<?xml version="1.0" encoding="utf-8"?>
<svg version="1.1" id="Layer_1" xmlns="http://www.w3.org/2000/svg" viewBox="-1 -1 26 26" xml:space="preserve">
<g>
	<path d="M12,7.1c-1.3,0-2.5,0.5-3.4,1.4c-1,1-1.4,2.1-1.4,3.4c0,1.3,0.5,2.5,1.4,3.4c1,1,2.1,1.4,3.4,1.4c1.3,0,2.5-0.5,3.4-1.4
		c1-1,1.4-2.1,1.4-3.4c0-1.3-0.5-2.5-1.4-3.4C14.5,7.6,13.3,7.1,12,7.1z"/>
	<path d="M22.7,1.3C21.8,0.4,20.7,0,19.5,0h-15C3.3,0,2.2,0.4,1.3,1.3C0.4,2.2,0,3.3,0,4.5v15c0,1.2,0.4,2.3,1.3,3.2
		C2.2,23.6,3.3,24,4.5,24h15c1.2,0,2.3-0.4,3.2-1.3c0.9-0.9,1.3-1.9,1.3-3.2v-15C24,3.3,23.6,2.2,22.7,1.3z M17.3,17.3
		c-1.5,1.5-3.2,2.2-5.3,2.2c-2.1,0-3.8-0.7-5.3-2.2c-1.5-1.5-2.2-3.2-2.2-5.3c0-2.1,0.7-3.8,2.2-5.3C8.2,5.2,9.9,4.5,12,4.5
		c2.1,0,3.8,0.7,5.3,2.2c1.5,1.5,2.2,3.2,2.2,5.3C19.5,14.1,18.8,15.8,17.3,17.3z M21,5.4C20.7,5.8,20.3,6,19.8,6
		c-0.5,0-0.9-0.2-1.2-0.5c-0.3-0.3-0.5-0.8-0.5-1.2c0-0.5,0.2-0.9,0.5-1.2c0.3-0.3,0.8-0.5,1.2-0.5c0.5,0,0.9,0.2,1.2,0.5
		c0.3,0.3,0.5,0.8,0.5,1.2C21.6,4.7,21.4,5.1,21,5.4z"/>
</g>
</svg>
