<?xml version="1.0" standalone="no"?>
<!DOCTYPE svg PUBLIC "-//W3C//DTD SVG 1.1//EN" "http://www.w3.org/Graphics/SVG/1.1/DTD/svg11.dtd" >
<svg>
<metadata>
Created by FontForge 20120731 at Mon Nov 17 03:25:32 2014
 By Orthosie Webhosting
(c) Copyright: Gerard Unger, 2005. Exclusive design for Allianz International. Webfonts produced by Just Another Foundry in 2011. Unauthorised use strictly prohibited. Allianz Sans and Allianz Serif are trademarks of Allianz International, that may be registered in some jurisdictions. ALL RIGHTS RESERVED.
</metadata>
<defs>
<font id="" horiz-adv-x="551" >
  <font-face 
    font-family=""
    font-weight="700"
    font-style="italic"
    font-stretch="normal"
    units-per-em="1000"
    panose-1="2 0 8 3 5 0 0 9 0 4"
    ascent="770"
    descent="-230"
    x-height="524"
    cap-height="703"
    bbox="-127 -230 1170 983"
    underline-thickness="86"
    underline-position="-18"
    slope="-9"
    unicode-range="U+0020-FB02"
  />
<missing-glyph horiz-adv-x="200" 
 />
    <glyph glyph-name="fi" unicode="fi" horiz-adv-x="531" 
d="M545 660q0 -11 -3 -24t-11 -23.5t-21 -17.5t-34 -7q-33 0 -47 18t-14 44q0 6 0.5 8.5t0.5 4.5q-11 5 -29 7t-34 2q-37 0 -59 -12t-34 -32q-7 -11 -11 -25t-6 -29l-8 -50h273l-83 -524h-134l67 426h-139l-103 -656h-134l103 656h-54l16 98h54l7 43q8 46 22 83t49 68
q33 29 75 40.5t92 11.5q29 0 64 -4.5t65 -16.5t50 -33.5t20 -55.5z" />
    <glyph glyph-name="fl" unicode="fl" horiz-adv-x="532" 
d="M427 0h-133l105 660q-10 5 -24 8t-34 3q-27 0 -44 -7t-27.5 -19.5t-16.5 -29.5t-9 -37l-9 -54h100l-16 -98h-100l-104 -656h-133l103 656h-55l16 98h55l9 55q5 32 17 69.5t41 66.5t69.5 42t94.5 13q29 0 53 -3.5t46 -10.5l119 14z" />
    <glyph glyph-name=".notdef" horiz-adv-x="200" 
 />
    <glyph glyph-name=".null" horiz-adv-x="0" 
 />
    <glyph glyph-name="nonmarkingreturn" horiz-adv-x="200" 
 />
    <glyph glyph-name="space" unicode=" " horiz-adv-x="200" 
 />
    <glyph glyph-name="numbersign" unicode="#" horiz-adv-x="588" 
d="M563 443h-106l-35 -185h105l-12 -69h-107l-35 -189h-80l35 189h-150l-35 -189h-80l35 189h-107l14 69h105l35 185h-105l11 69h107l36 191h80l-36 -191h151l35 191h81l-36 -191h106zM226 443l-35 -185h150l35 185h-150z" />
    <glyph glyph-name="dollar" unicode="$" horiz-adv-x="537" 
d="M492 541q-20 27 -57.5 44t-86.5 17q-56 0 -77 -22t-21 -54q0 -26 12 -43.5t42 -42.5l54 -45q32 -27 52 -49.5t31.5 -44.5t15.5 -43.5t4 -45.5q0 -33 -7.5 -67t-27.5 -64t-55.5 -53t-91.5 -33l-17 -101h-110l16 97q-50 4 -87 17.5t-52 28.5l15 129q19 -32 62 -49.5
t94 -17.5q34 0 57 8t36.5 21.5t19 31t5.5 37.5q0 22 -10 40.5t-44 45.5l-59 47q-54 43 -76 83t-22 92q0 34 9 67t30 61t55.5 48t85.5 27l16 93l112 15l-18 -108q40 -5 71.5 -17.5t43.5 -25.5z" />
    <glyph glyph-name="percent" unicode="%" horiz-adv-x="750" 
d="M389 558q0 -38 -12.5 -70.5t-35.5 -57t-56 -38.5t-74 -14q-37 0 -66 11.5t-49 32.5t-30.5 50t-10.5 63q0 39 13 71.5t36.5 55.5t56.5 36t72 13q73 0 114.5 -42t41.5 -111zM132 0h-112l629 706h111zM731 169q0 -38 -12.5 -70.5t-35.5 -57t-56 -38.5t-74 -14
q-37 0 -66 11.5t-49 32.5t-30.5 50t-10.5 63q0 39 13 71.5t36.5 55.5t56.5 36t72 13q73 0 114.5 -42t41.5 -111zM294 551q0 17 -3.5 33t-11.5 28t-21 19.5t-32 7.5q-40 0 -58 -30t-18 -72q0 -34 14 -59.5t52 -25.5q40 0 59 29t19 70zM636 162q0 17 -3.5 33t-11.5 28
t-21 19.5t-32 7.5q-40 0 -58 -30t-18 -72q0 -34 14 -59.5t52 -25.5q40 0 59 29t19 70z" />
    <glyph glyph-name="ampersand" unicode="&#x26;" horiz-adv-x="611" 
d="M593 343q-1 -46 -10.5 -83t-24 -65.5t-32 -49.5t-33.5 -36l71 -109h-155l-19 29q-26 -18 -71 -28.5t-95 -10.5q-63 0 -104 16.5t-65 43.5t-33.5 61t-9.5 69q0 46 13 80.5t34.5 59.5t48.5 40.5t55 23.5l-11 17q-5 8 -13 21.5t-15.5 31.5t-13 40.5t-5.5 48.5q0 22 6.5 52
t26.5 56t57 44.5t98 18.5q88 0 135 -41t47 -119q0 -41 -12.5 -73t-33 -56t-47 -39.5t-54.5 -23.5l113 -173q14 14 25 53.5t11 95.5v5h116zM355 554q0 70 -61 70q-6 0 -17.5 -1.5t-22 -8.5t-18.5 -21t-8 -38q0 -29 11.5 -50t25.5 -44l19 -29q36 17 53.5 50.5t17.5 71.5z
M209 312q-20 -8 -39 -34t-19 -72q0 -54 29.5 -86t81.5 -32q20 0 42.5 5t36.5 13z" />
    <glyph glyph-name="quotesingle" unicode="'" horiz-adv-x="179" 
d="M142 487h-72l21 216h98z" />
    <glyph glyph-name="parenleft" unicode="(" horiz-adv-x="410" 
d="M465 770q-138 -116 -213 -261t-75 -319q0 -127 38 -231t103 -189h-128q-12 14 -23.5 30.5t-19.5 30.5q-97 158 -97 354q0 167 63.5 305.5t172.5 241.5q14 14 24 22l20 16h135v0z" />
    <glyph glyph-name="parenright" unicode=")" horiz-adv-x="410" 
d="M360 355q0 -167 -63.5 -305.5t-172.5 -241.5q-11 -11 -21 -19.5t-23 -18.5h-135q138 116 213 261t75 319q0 127 -38 231t-103 189h128q12 -14 23.5 -30.5t19.5 -30.5q97 -158 97 -354z" />
    <glyph glyph-name="asterisk" unicode="*" horiz-adv-x="380" 
d="M273 553l119 -53l-53 -74l-90 83v-131h-94l45 135l-119 -87l-31 74l139 53l-121 51l55 73l91 -83v138h94l-47 -138l120 83l29 -73z" />
    <glyph glyph-name="plus" unicode="+" horiz-adv-x="640" 
d="M375 311v-270h-91v270h-251v86h251v260h91v-260h252v-86h-252z" />
    <glyph glyph-name="comma" unicode="," horiz-adv-x="248" 
d="M182 141q-2 -48 -14.5 -92.5t-30.5 -83t-39.5 -70.5t-41.5 -55l-86 40q13 24 25 51t21 58.5t16 68.5t11 83h139v0z" />
    <glyph glyph-name="hyphen" unicode="-" horiz-adv-x="324" 
d="M274 207h-243l19 120h243z" />
    <glyph glyph-name="period" unicode="." horiz-adv-x="240" 
d="M177 80q0 -38 -23.5 -65t-64.5 -27q-35 0 -55.5 21t-20.5 59q0 40 23 66t62 26q34 0 56.5 -21t22.5 -59z" />
    <glyph glyph-name="slash" unicode="/" horiz-adv-x="384" 
d="M77 -177h-127l335 947h129z" />
    <glyph glyph-name="zero" unicode="0" horiz-adv-x="537" 
d="M533 460q0 -44 -5 -88.5t-14 -86.5t-21 -79.5t-25 -66.5q-22 -48 -49.5 -77t-58 -45.5t-62 -22t-61.5 -5.5q-41 0 -77.5 10t-64.5 37.5t-44.5 77t-16.5 128.5q0 43 5 88t14 87t20.5 79.5t25.5 66.5q22 48 49.5 77t58 45.5t62 22t61.5 5.5q40 0 77 -10t65 -37.5t44.5 -77
t16.5 -128.5zM396 479q0 25 -2.5 48.5t-11 41.5t-24 29t-41.5 11q-37 0 -60.5 -23t-40.5 -71q-9 -26 -17 -60t-14.5 -73t-10 -79.5t-3.5 -79.5q0 -25 2.5 -48.5t10.5 -41.5t24 -29t42 -11q37 0 60.5 23t40.5 71q9 25 17 59.5t14.5 73.5t10 79.5t3.5 79.5z" />
    <glyph glyph-name="one" unicode="1" horiz-adv-x="537" 
d="M320 0h-137l88 552l-151 -25l17 107q22 3 50 10.5t56 17t53.5 20.5t43.5 22h92z" />
    <glyph glyph-name="two" unicode="2" horiz-adv-x="537" 
d="M514 516q0 -54 -16.5 -97.5t-42.5 -79.5t-59 -65t-67 -55q-52 -40 -88.5 -65t-62.5 -41h273l-18 -113h-426l20 125q46 32 101.5 73t113.5 90q24 20 47.5 42t41.5 47.5t29.5 54.5t11.5 64q0 17 -4 35.5t-16 34.5t-34.5 26t-59.5 10q-55 0 -95.5 -20t-62.5 -43l20 127
q13 10 33 18.5t43.5 14.5t50 9.5t53.5 3.5q33 0 70.5 -7t69.5 -28t53 -59.5t21 -101.5z" />
    <glyph glyph-name="three" unicode="3" horiz-adv-x="537" 
d="M514 546q0 -41 -12 -72.5t-32.5 -54.5t-47.5 -37t-56 -20q23 -4 45 -15t38.5 -29.5t26.5 -46t10 -65.5q0 -24 -7.5 -61t-34.5 -72t-80 -60t-145 -25q-76 0 -123.5 16t-73.5 33l13 128q24 -25 68 -46t107 -21q40 0 66 9t42 25t22.5 36.5t6.5 43.5q0 31 -10.5 50.5
t-28.5 29.5t-42.5 13.5t-53.5 3.5h-21l15 99h19q28 0 54.5 4.5t47 16t32.5 32.5t12 54q0 19 -4.5 35t-15.5 27.5t-29.5 18t-46.5 6.5q-50 0 -87 -18.5t-60 -38.5l20 129q28 17 72 27.5t92 10.5q40 0 76.5 -8.5t64.5 -28t44.5 -51t16.5 -78.5z" />
    <glyph glyph-name="four" unicode="4" horiz-adv-x="537" 
d="M462 265h67l-17 -113h-67l-24 -152h-132l24 152h-307l20 128l347 424h158zM376 559q-7 -11 -19.5 -28.5t-32.5 -43.5l-111 -141q-11 -14 -32.5 -38t-40.5 -43h190z" />
    <glyph glyph-name="five" unicode="5" horiz-adv-x="537" 
d="M513 590h-262l-23 -147q11 3 27.5 4.5t31.5 1.5q23 0 56 -6t63 -27t51.5 -62t21.5 -111q0 -63 -19 -111t-53.5 -80t-82.5 -48t-106 -16q-63 0 -110.5 15.5t-74.5 33.5l13 127q23 -26 64.5 -46t95.5 -20q40 0 66 12.5t41 32t21 44t6 48.5q0 33 -9 55.5t-25.5 36.5t-39 20
t-49.5 6q-38 0 -70 -9t-52 -19l60 378h376z" />
    <glyph glyph-name="six" unicode="6" horiz-adv-x="537" 
d="M543 538q-20 26 -58.5 46t-97.5 20q-46 0 -76.5 -14t-50.5 -38.5t-31.5 -58t-19.5 -72.5q16 12 43.5 24t73.5 12q57 0 93 -20t56.5 -51t28 -68t7.5 -70q0 -18 -3 -44.5t-11.5 -55t-25 -57t-44.5 -51t-68.5 -36.5t-96.5 -14q-67 0 -109.5 20t-66.5 54t-32.5 79t-8.5 94
q0 28 2.5 64.5t9 76.5t17.5 80.5t27 77.5q18 42 43 75t59 55.5t78 34.5t100 12q70 0 113 -15t64 -31zM374 239q0 22 -3.5 42t-13 34t-26.5 22.5t-45 8.5q-35 0 -59 -11.5t-36 -25.5q-4 -20 -7 -46.5t-3 -55.5q0 -24 3.5 -45t12.5 -36t25.5 -24t43.5 -9q22 0 41.5 7t34.5 24
t23.5 45t8.5 70z" />
    <glyph glyph-name="seven" unicode="7" horiz-adv-x="537" 
d="M542 634q-6 -42 -24 -84t-50 -89l-103 -147q-26 -36 -44 -66t-31 -60t-21.5 -63.5t-13.5 -76.5l-6 -48h-136l7 49q7 48 14 83.5t20 69t34.5 71t57.5 88.5l65 93q21 31 34.5 52.5t21.5 36.5t11.5 26t5.5 21h-301l18 113h451z" />
    <glyph glyph-name="eight" unicode="8" horiz-adv-x="537" 
d="M529 547q0 -40 -12 -69.5t-31.5 -51t-45.5 -35.5t-53 -22l15 -10q19 -13 36 -29t29.5 -37t19.5 -47.5t7 -60.5q0 -69 -27.5 -108t-66 -59t-79.5 -25t-68 -5q-73 0 -117.5 17t-69 43t-33 57.5t-8.5 60.5q0 45 13.5 78.5t36 57.5t51.5 39t59 23l-10 7q-45 32 -63 70t-18 86
q0 45 12.5 76t32 51.5t43.5 32t48 17t45 7t34 1.5q71 0 114 -16t66.5 -40t31.5 -53t8 -56zM408 540q0 46 -25.5 65t-67.5 19q-15 0 -31 -3t-30 -11.5t-23 -24.5t-9 -43q0 -29 12 -51.5t39 -41.5l42 -29q16 6 33 16t30 24t21.5 34t8.5 46zM362 183q0 28 -12 52.5t-45 46.5
l-46 31q-20 -6 -39 -16.5t-34 -26.5t-24 -38t-9 -51q0 -49 26.5 -73t76.5 -24q33 0 53.5 9.5t32.5 24t16 32t4 33.5z" />
    <glyph glyph-name="nine" unicode="9" horiz-adv-x="537" 
d="M523 466q0 -29 -2.5 -65t-9 -76t-17.5 -80.5t-27 -77.5q-18 -42 -43 -75t-59 -55.5t-78 -34.5t-100 -12q-70 0 -113 15t-64 31l15 129q20 -26 58.5 -46t97.5 -20q46 0 76.5 14t50.5 38.5t31.5 58t19.5 72.5q-16 -12 -43.5 -24t-73.5 -12q-57 0 -93 20t-56.5 51t-28 68
t-7.5 70q0 18 2.5 44.5t11.5 55t25.5 57t44.5 51t68 36.5t97 14q67 0 109.5 -20t66.5 -54t32.5 -79t8.5 -94zM387 496q0 24 -3.5 45t-12.5 36t-25.5 24t-43.5 9q-22 0 -41.5 -7t-34.5 -24t-23.5 -45t-8.5 -70q0 -23 3.5 -42.5t13 -33.5t26.5 -22.5t45 -8.5q35 0 59 11.5
t36 25.5q4 20 7 46.5t3 55.5z" />
    <glyph glyph-name="colon" unicode=":" horiz-adv-x="252" 
d="M177 80q0 -38 -23.5 -65t-64.5 -27q-35 0 -55.5 21t-20.5 59q0 40 23 66t62 26q34 0 56.5 -21t22.5 -59zM239 488q0 -38 -23.5 -65t-64.5 -27q-35 0 -55.5 21t-20.5 59q0 40 23 66t62 26q34 0 56.5 -21t22.5 -59z" />
    <glyph glyph-name="semicolon" unicode=";" horiz-adv-x="249" 
d="M236 488q0 -38 -23.5 -65t-64.5 -27q-35 0 -55.5 21t-20.5 59q0 40 23 66t62 26q34 0 56.5 -21t22.5 -59zM182 141q-2 -48 -14.5 -92.5t-30.5 -83t-39.5 -70.5t-41.5 -55l-86 40q13 24 25 51t21 58.5t16 68.5t11 83h139v0z" />
    <glyph glyph-name="less" unicode="&#x3c;" horiz-adv-x="711" 
d="M33 324v53l665 294v-94l-524 -225l524 -224v-97z" />
    <glyph glyph-name="equal" unicode="=" horiz-adv-x="640" 
d="M33 184v86h594v-86h-594zM33 433v86h594v-86h-594z" />
    <glyph glyph-name="greater" unicode="&#x3e;" horiz-adv-x="711" 
d="M33 31v97l524 224l-524 225v94l665 -294v-53z" />
    <glyph glyph-name="question" unicode="?" horiz-adv-x="432" 
d="M452 553q0 -52 -24.5 -97t-82.5 -92l-67 -54q-15 -12 -24 -21.5t-14.5 -19.5t-8.5 -21t-6 -27l-4 -23h-123l6 37q6 36 18 63.5t42 54.5l70 62q15 13 29.5 26t26 27.5t18 31t6.5 36.5q0 36 -22.5 53t-64.5 17q-50 0 -89.5 -20t-66.5 -46l20 124q27 18 73.5 33t105.5 15
q96 0 139 -44t43 -115zM223 76q0 -35 -21.5 -59t-59.5 -24q-32 0 -51.5 19t-19.5 54q0 37 21.5 61t57.5 24q32 0 52.5 -20t20.5 -55z" />
    <glyph glyph-name="at" unicode="@" horiz-adv-x="961" 
d="M931 333q0 -97 -38 -175t-119 -120q-42 -22 -83 -29t-68 -9q-14 -1 -28.5 -1.5t-28.5 -0.5t-28 0.5t-28 1.5l19 115q-5 -13 -16 -32.5t-34 -42.5q-29 -29 -55 -39t-53 -10q-66 0 -97 46.5t-31 144.5q0 60 12.5 121t40.5 110t74 80t114 31q44 0 68.5 -11.5t36.5 -22.5
l127 34l-71 -449q14 2 34 8t41 19q100 61 100 220q0 142 -75 213.5t-209 71.5q-60 0 -127 -17t-124 -60t-94 -116.5t-37 -186.5q0 -171 90 -258t261 -87q89 0 156 19.5t107 41.5l-6 -110q-35 -17 -100.5 -33.5t-158.5 -16.5q-118 0 -205 32t-144.5 90t-85.5 138t-28 175
q0 108 35 197t98.5 152.5t152.5 98t197 34.5q87 0 161.5 -23.5t129.5 -69.5t86 -114.5t31 -159.5zM572 410q-8 6 -23 13.5t-41 7.5q-32 0 -54.5 -13t-38.5 -36q-13 -18 -21.5 -42t-14 -49t-7.5 -49t-2 -42q0 -32 5.5 -51.5t14.5 -30t19 -13.5t19 -3q14 0 31 8.5t38 36.5
t34 58.5t17 53.5z" />
    <glyph glyph-name="A" unicode="A" horiz-adv-x="577" 
d="M403 0l-23 211h-209l-89 -211h-134l321 704h185l90 -704h-141zM345 536q-2 21 -3.5 43.5t-1.5 40.5q-5 -17 -13 -38.5t-18 -44.5l-94 -223h154z" />
    <glyph glyph-name="B" unicode="B" horiz-adv-x="556" 
d="M542 543q0 -43 -13 -75.5t-35 -55t-52 -35.5t-63 -17q23 -3 47 -12t43.5 -27t31.5 -46t12 -70q0 -41 -11 -71t-27.5 -51.5t-35 -35t-33.5 -20.5q-35 -17 -82 -22t-107 -5h-194l111 703h178q35 0 61 -1.5t45.5 -5t34.5 -9.5t29 -15q33 -23 46.5 -56t13.5 -73zM398 522
q0 25 -6 41t-17.5 25t-28 12.5t-36.5 3.5h-56l-31 -196h41q18 0 41.5 3t44 14t34.5 34t14 63zM374 218q0 55 -27.5 73t-77.5 18h-61l-33 -210h67q14 0 36.5 2.5t43.5 13.5t36.5 35t15.5 68z" />
    <glyph glyph-name="C" unicode="C" 
d="M562 544q-25 30 -68.5 44t-87.5 14q-70 0 -112.5 -31.5t-65.5 -78t-30.5 -99.5t-7.5 -97q0 -34 5 -69t21.5 -63.5t48 -46.5t85.5 -18q57 0 96.5 18.5t62.5 40.5l-26 -127q-21 -14 -64.5 -28t-107.5 -14q-74 0 -124 22t-80.5 61t-43.5 92t-13 116q0 94 23.5 171t60.5 131
q28 41 60.5 66.5t67 39.5t69.5 19t67 5q75 0 118.5 -17t64.5 -34z" />
    <glyph glyph-name="D" unicode="D" horiz-adv-x="640" 
d="M620 419q0 -97 -29.5 -184.5t-94.5 -147.5q-32 -30 -68 -47t-76 -26t-83 -11.5t-90 -2.5h-156l111 703h155q53 0 92.5 -3t69.5 -11t53 -21.5t43 -33.5q40 -40 56.5 -92.5t16.5 -122.5zM482 412q0 67 -14.5 103.5t-40.5 54.5q-17 12 -43.5 17.5t-69.5 5.5h-60l-77 -483h79
q68 0 112 28.5t69.5 72.5t35 97.5t9.5 103.5z" />
    <glyph glyph-name="E" unicode="E" horiz-adv-x="458" 
d="M470 590h-217l-28 -177h177l-18 -113h-177l-30 -189h235l-23 -111h-366l111 703h354z" />
    <glyph glyph-name="F" unicode="F" horiz-adv-x="438" 
d="M470 590h-217l-28 -177h177l-18 -113h-177l-47 -300h-137l111 703h354z" />
    <glyph glyph-name="G" unicode="G" horiz-adv-x="616" 
d="M602 544q-28 29 -75 43.5t-98 14.5q-55 0 -94 -15.5t-65.5 -40.5t-42 -57t-24 -65.5t-11 -65.5t-2.5 -57q0 -35 5 -71.5t21.5 -66.5t48 -49t85.5 -19q14 0 27.5 1t17.5 3l34 212h136l-44 -281q-28 -15 -74.5 -28t-112.5 -13q-81 0 -135.5 22.5t-87.5 62.5t-47 94t-14 117
q0 92 24 168.5t62 128.5q30 41 65.5 66.5t73 39.5t75 19t72.5 5q78 0 126 -16.5t72 -34.5z" />
    <glyph glyph-name="H" unicode="H" horiz-adv-x="623" 
d="M519 0h-137l47 298h-222l-47 -298h-137l111 703h137l-45 -290h222l45 290h137z" />
    <glyph glyph-name="I" unicode="I" horiz-adv-x="264" 
d="M160 0h-137l111 703h137z" />
    <glyph glyph-name="J" unicode="J" horiz-adv-x="346" 
d="M272 154q-2 -14 -6 -30.5t-10.5 -34t-17.5 -34t-27 -29.5q-19 -15 -46.5 -24t-67.5 -9q-34 0 -62 6t-45 14l18 115q14 -10 32 -15.5t36 -5.5q26 0 42 14t21 46l87 536h135z" />
    <glyph glyph-name="K" unicode="K" horiz-adv-x="556" 
d="M352 366l169 -366h-150l-156 353l-56 -353h-136l111 703h136l-51 -327l268 327h148z" />
    <glyph glyph-name="L" unicode="L" horiz-adv-x="437" 
d="M379 0h-356l111 703h135l-92 -592h225z" />
    <glyph glyph-name="M" unicode="M" horiz-adv-x="809" 
d="M705 0h-129l95 601q-8 -30 -23.5 -75t-35.5 -93l-184 -433h-142l-46 429q-1 11 -2.5 31.5t-2.5 45t-1.5 50t-0.5 46.5l-95 -602h-115l111 703h205l45 -420q4 -35 3.5 -70t0.5 -68q7 31 19 68t26 71l178 419h205z" />
    <glyph glyph-name="N" unicode="N" horiz-adv-x="643" 
d="M538 0h-145l-133 365q-16 43 -24.5 82.5t-10.5 60.5l-82 -508h-121l113 703h150l119 -350q13 -38 24.5 -85t18.5 -84l83 519h121z" />
    <glyph glyph-name="O" unicode="O" horiz-adv-x="648" 
d="M628 421q0 -11 -2 -47.5t-11.5 -84.5t-29.5 -101t-56.5 -97.5t-92.5 -73.5t-137 -29q-57 0 -98 15t-68.5 39t-44 55t-25 63.5t-11 63.5t-2.5 55q0 11 2 47.5t11.5 84.5t29.5 101t56.5 97.5t92.5 73.5t137 29q57 0 98 -15t68.5 -39t44 -55t25 -63.5t11 -63.5t2.5 -55z
M488 423q0 58 -10 93.5t-26.5 54.5t-38.5 25.5t-45 6.5q-31 0 -59.5 -11.5t-53.5 -48.5q-32 -47 -48.5 -119.5t-16.5 -146.5q0 -58 10 -93.5t26.5 -54.5t38.5 -25.5t45 -6.5q31 0 59.5 11.5t53.5 48.5q32 47 48.5 119.5t16.5 146.5z" />
    <glyph glyph-name="P" unicode="P" horiz-adv-x="547" 
d="M557 515q0 -72 -23 -121t-62 -79.5t-90 -44t-108 -13.5h-74l-41 -257h-136l112 703h190q68 0 105 -9t63 -27q28 -20 46 -53.5t18 -98.5zM416 505q0 34 -8.5 54t-22.5 30t-33 12.5t-41 2.5h-57l-39 -246h57q28 0 54 7t46 24.5t32 45.5t12 70z" />
    <glyph glyph-name="Q" unicode="Q" horiz-adv-x="648" 
d="M628 427q0 -18 -2 -55t-11 -82t-26.5 -93.5t-48 -91t-76.5 -73t-111 -40.5q14 -23 39 -36.5t73 -13.5q51 0 86 14.5t52 31.5l-15 -110q-26 -17 -68.5 -25.5t-85.5 -8.5q-88 0 -141.5 36.5t-75.5 117.5q-57 15 -90 49t-50.5 74.5t-22 82.5t-4.5 74q0 11 2 47.5t11 84.5
t29.5 101.5t56.5 98t92 73.5t137 29q57 0 98 -15t69 -39t44.5 -55t25 -62.5t11 -61.5t2.5 -52zM488 423q0 58 -10 93.5t-26.5 54.5t-38.5 25.5t-45 6.5q-31 0 -59.5 -11.5t-53.5 -48.5q-32 -47 -48.5 -119.5t-16.5 -146.5q0 -58 10 -93.5t26.5 -54.5t38.5 -25.5t45 -6.5
q31 0 59.5 11.5t53.5 48.5q32 47 48.5 119.5t16.5 146.5z" />
    <glyph glyph-name="R" unicode="R" horiz-adv-x="547" 
d="M547 529q0 -48 -11.5 -83t-30 -59t-40.5 -38.5t-43.5 -22.5t-39.5 -10.5t-28 -2.5l166 -313h-153l-157 319l-51 -319h-136l111 703h182q33 0 58 -1t44.5 -4t34.5 -8.5t28 -14.5q36 -23 51 -60t15 -86zM406 514q0 32 -8.5 50t-21.5 27t-29.5 11t-32.5 2h-60l-33 -212h56
q18 0 40.5 3.5t42 16t33 36.5t13.5 66z" />
    <glyph glyph-name="S" unicode="S" horiz-adv-x="460" 
d="M458 541q-20 27 -57.5 44t-86.5 17q-56 0 -77 -22t-21 -54q0 -26 12 -43.5t42 -42.5l54 -45q30 -25 49.5 -46.5t31.5 -43t17 -44t5 -49.5q0 -36 -10 -75.5t-38 -72.5t-78 -54t-129 -21q-63 0 -109 13.5t-68 34.5l15 129q19 -32 62 -49.5t94 -17.5q34 0 57 8t36.5 21.5
t19 31t5.5 37.5q0 22 -10 40.5t-44 45.5l-59 47q-54 43 -76 83t-22 91q0 37 11 74t38 67t72.5 48.5t113.5 18.5q55 0 100.5 -12.5t69.5 -34.5z" />
    <glyph glyph-name="T" unicode="T" horiz-adv-x="521" 
d="M558 590h-176l-94 -590h-137l94 590h-185l18 113h503z" />
    <glyph glyph-name="U" unicode="U" horiz-adv-x="612" 
d="M559 257q-6 -41 -12.5 -72.5t-15.5 -57t-21.5 -45.5t-31.5 -38q-37 -33 -84 -44.5t-101 -11.5q-58 0 -98.5 9.5t-67.5 25t-42 35t-22.5 39t-9.5 38t-2 32.5q0 18 1.5 39.5t6.5 50.5l70 446h137l-73 -464q-2 -14 -3.5 -28t-1.5 -25q0 -30 10 -47.5t26 -27t35 -12.5t36 -3
q37 0 60 9.5t36.5 27t20.5 43t12 57.5l74 470h131z" />
    <glyph glyph-name="V" unicode="V" horiz-adv-x="578" 
d="M308 -4h-147l-111 707h143l55 -413q4 -32 6.5 -54.5t3.5 -41.5t1 -36v-38q5 20 18.5 56.5t35.5 85.5l197 441h138z" />
    <glyph glyph-name="W" unicode="W" horiz-adv-x="933" 
d="M681 -4h-149l-36 404q-3 38 -3.5 70.5t-0.5 44.5q-4 -17 -13 -45t-20 -56l-161 -418h-154l-84 707h140l42 -422q2 -23 3.5 -47t2 -44.5t0.5 -35.5v-21q7 29 18.5 68.5t26.5 79.5l163 422h140l36 -397q2 -23 3.5 -51t2 -53t1 -44t0.5 -25q9 38 23.5 84.5t30.5 85.5
l162 400h133z" />
    <glyph glyph-name="X" unicode="X" horiz-adv-x="590" 
d="M390 355l173 -355h-148l-125 252l-184 -252h-145l274 362l-169 341h155l116 -238l173 238h144z" />
    <glyph glyph-name="Y" unicode="Y" horiz-adv-x="566" 
d="M340 264l-42 -264h-134l43 268l-157 435h142l102 -311l205 311h147z" />
    <glyph glyph-name="Z" unicode="Z" horiz-adv-x="558" 
d="M581 602l-411 -489h330l-24 -113h-486l17 102l401 488h-296l18 113h468z" />
    <glyph glyph-name="bracketleft" unicode="[" horiz-adv-x="384" 
d="M369 680h-76l-128 -820h76l-15 -90h-203l158 1000h203z" />
    <glyph glyph-name="backslash" unicode="\" horiz-adv-x="433" 
d="M261 -177l-171 947h128l170 -947h-127z" />
    <glyph glyph-name="bracketright" unicode="]" horiz-adv-x="384" 
d="M203 -230h-203l15 90h76l128 820h-76l15 90h203z" />
    <glyph glyph-name="asciicircum" unicode="^" horiz-adv-x="557" 
d="M409 234l-132 354l-130 -354h-107l209 524h60l208 -524h-108z" />
    <glyph glyph-name="underscore" unicode="_" horiz-adv-x="500" 
d="M0 -118v39h500v-39h-500z" />
    <glyph glyph-name="grave" unicode="`" horiz-adv-x="500" 
d="M323 583l-198 113l52 86l186 -135z" />
    <glyph glyph-name="a" unicode="a" horiz-adv-x="537" 
d="M431 0h-131l19 116q-7 -16 -18 -35t-32 -41q-27 -28 -53 -38.5t-55 -10.5q-66 0 -97 46.5t-31 144.5q0 60 12.5 122t40.5 113t74 83t114 32q42 0 67 -11t38 -23l4 26h131zM362 410q-8 8 -22 14.5t-38 6.5q-32 0 -53.5 -13.5t-36.5 -35.5q-13 -18 -21.5 -42t-14 -49
t-7.5 -49t-2 -43q0 -31 4.5 -49t12 -27.5t16.5 -12.5t17 -3q19 0 35.5 10t35.5 35q21 28 34 58.5t17 53.5z" />
    <glyph glyph-name="b" unicode="b" horiz-adv-x="540" 
d="M508 344q0 -53 -10.5 -114.5t-38 -114.5t-74.5 -88t-120 -35q-43 0 -70.5 11t-41.5 23l-131 -33l120 759l137 18l-40 -254l-4.5 -27t-5.5 -30t-5.5 -28.5t-4.5 -21.5q7 16 18.5 35.5t32.5 41.5q29 29 55.5 38t51.5 9q67 0 99 -44.5t32 -144.5zM374 322q0 40 -10 67.5
t-43 27.5q-14 0 -31.5 -8.5t-40.5 -37.5q-20 -26 -33 -56.5t-18 -57.5l-23 -143q6 -6 20.5 -13.5t40.5 -7.5q34 0 56.5 14.5t36.5 34.5q20 28 32.5 75t12.5 105z" />
    <glyph glyph-name="c" unicode="c" horiz-adv-x="428" 
d="M418 389q-12 14 -38 27t-65 13q-26 0 -50.5 -8t-44.5 -31q-28 -31 -39.5 -76.5t-11.5 -89.5q0 -60 24 -95.5t88 -35.5q42 0 66.5 13t37.5 25l-21 -110q-16 -10 -45.5 -20t-79.5 -10q-71 0 -112 22.5t-62 56t-27 71.5t-6 68q0 60 14.5 118t46 103.5t82.5 73.5t123 28
q54 0 88.5 -13.5t48.5 -26.5z" />
    <glyph glyph-name="d" unicode="d" horiz-adv-x="539" 
d="M435 0h-131l18 115q-7 -16 -18.5 -35.5t-32.5 -41.5q-29 -29 -55.5 -38t-51.5 -9q-67 0 -99 44.5t-32 144.5q0 54 11 115.5t38 114t74 87.5t119 35q42 0 67 -10.5t38 -21.5l40 252l137 18zM366 410q-6 6 -20.5 13.5t-40.5 7.5q-34 0 -56.5 -14.5t-36.5 -34.5
q-20 -28 -32.5 -75t-12.5 -105q0 -40 10 -67.5t43 -27.5q14 0 31.5 8.5t40.5 37.5q20 26 33 56.5t18 57.5z" />
    <glyph glyph-name="e" unicode="e" horiz-adv-x="486" 
d="M478 394q0 -57 -27.5 -94.5t-73.5 -57.5q-32 -14 -80.5 -22t-116.5 -8h-8q0 -2 -0.5 -4t-0.5 -12q0 -21 4.5 -40t17.5 -33t34.5 -22t56.5 -8q51 0 85 14.5t51 28.5l-22 -114q-22 -13 -60.5 -22t-88.5 -9q-72 0 -115 20.5t-65.5 52t-29.5 69.5t-7 73q0 64 15.5 123
t49.5 104t86.5 72t127.5 27q57 0 90 -15t50.5 -36.5t22 -45t4.5 -41.5zM350 392q0 54 -55 54q-26 0 -48 -12.5t-38 -40.5q-9 -16 -17.5 -40.5t-11.5 -51.5h7q34 0 63.5 4t51.5 14t35 27.5t13 45.5z" />
    <glyph glyph-name="f" unicode="f" horiz-adv-x="274" 
d="M383 658q-8 6 -22.5 12t-37.5 6q-20 0 -32.5 -5.5t-22.5 -17.5q-9 -11 -14 -26.5t-10 -47.5l-9 -55h100l-16 -98h-100l-103 -656h-134l103 656h-54l16 98h54l9 55q8 51 18 82.5t32 56.5q26 29 58 40.5t79 11.5q42 0 66 -6t34 -11z" />
    <glyph glyph-name="g" unicode="g" horiz-adv-x="541" 
d="M437 9q-10 -62 -23 -101t-40 -70q-32 -36 -76.5 -52t-109.5 -16q-62 0 -110.5 12t-74.5 29l18 113q15 -17 49 -34.5t90 -17.5q42 0 67.5 11t42.5 31q18 22 25.5 50.5t12.5 59.5l7 40q3 19 4.5 27.5t2.5 12.5t1 6.5t2 10.5q-8 -18 -22 -40t-32 -40q-29 -29 -55.5 -38
t-51.5 -9q-66 0 -98.5 44t-32.5 143q0 53 11 114.5t38 114t74 87.5t119 35q45 0 71 -11.5t37 -22.5l4 26h131zM367 416q-20 15 -60 15q-34 0 -57 -13.5t-38 -35.5q-18 -26 -31.5 -71.5t-13.5 -105.5q0 -40 10 -67.5t43 -27.5q12 0 30.5 8t41.5 38q19 24 32.5 53.5t18.5 57.5
z" />
    <glyph glyph-name="h" unicode="h" 
d="M511 417q0 -23 -3 -50.5t-6 -45.5l-51 -321h-134l44 278q1 5 2.5 15t3 21.5t2.5 23.5t1 22q0 21 -8 33.5t-33 12.5q-26 0 -46 -14t-37 -35q-20 -25 -32.5 -53t-16.5 -51l-40 -253h-134l119 752l137 18l-40 -253q-6 -39 -11.5 -65.5t-9.5 -40.5q9 17 24.5 39t39.5 42
q29 24 55.5 32t53.5 8q42 0 66 -12.5t36 -30.5t15 -37.5t3 -34.5z" />
    <glyph glyph-name="i" unicode="i" horiz-adv-x="261" 
d="M275 682q0 -13 -3.5 -26.5t-12.5 -24.5t-24.5 -18t-38.5 -7q-33 0 -54 16t-21 50q0 13 3.5 26.5t12.5 24.5t24.5 18t38.5 7q33 0 54 -16t21 -50zM157 0h-134l83 524h134z" />
    <glyph glyph-name="j" unicode="j" horiz-adv-x="257" 
d="M271 682q0 -13 -3.5 -26.5t-12.5 -24.5t-24.5 -18t-38.5 -7q-33 0 -54 16t-21 50q0 13 3.5 26.5t12.5 24.5t24.5 18t38.5 7q33 0 54 -16t21 -50zM144 -82q-12 -74 -54.5 -111t-128.5 -37q-54 0 -88 13l17 100q13 -6 25.5 -10t29.5 -4q36 0 49.5 21.5t20.5 64.5l92 569
h134z" />
    <glyph glyph-name="k" unicode="k" horiz-adv-x="496" 
d="M331 278l124 -278h-144l-112 267l-42 -267h-134l119 752l137 18l-76 -480l198 234h145z" />
    <glyph glyph-name="l" unicode="l" horiz-adv-x="261" 
d="M157 0h-134l119 752l137 18z" />
    <glyph glyph-name="m" unicode="m" horiz-adv-x="841" 
d="M801 419q0 -24 -3 -52t-6 -46l-51 -321h-134l44 278q1 5 2.5 15t3 21.5t2.5 23.5t1 22q0 20 -7.5 33t-32.5 13q-26 0 -45.5 -14t-36.5 -35q-19 -24 -32 -52t-17 -52l-40 -253h-134l44 278q1 5 2.5 15t3 21.5t2.5 23.5t1 22q0 20 -7.5 33t-32.5 13q-26 0 -45.5 -14
t-36.5 -35q-19 -24 -32 -52t-17 -52l-40 -253h-134l83 524h131l-18 -113q8 17 24 39.5t39 41.5q29 24 55.5 32t52.5 8q43 0 66.5 -13.5t35 -31.5t14 -36.5t2.5 -28.5q0 -8 -0.5 -10.5t-0.5 -5.5q10 20 26 43.5t40 43.5q29 24 55.5 32t53.5 8q42 0 66 -12.5t35.5 -30.5
t14.5 -37.5t3 -33.5z" />
    <glyph glyph-name="n" unicode="n" 
d="M511 417q0 -23 -3 -50.5t-6 -45.5l-51 -321h-134l44 278q1 5 2.5 15t3 21.5t2.5 23.5t1 22q0 21 -8 33.5t-33 12.5q-26 0 -46 -14t-37 -35q-20 -25 -32.5 -53t-16.5 -51l-40 -253h-134l83 524h131l-18 -113q8 17 24 39.5t39 41.5q29 24 55.5 32t53.5 8q42 0 66 -12.5
t36 -30.5t15 -37.5t3 -34.5z" />
    <glyph glyph-name="o" unicode="o" horiz-adv-x="520" 
d="M488 314q0 -18 -2.5 -49t-11 -67t-25 -73t-45 -67t-71 -49t-102.5 -19q-65 0 -104 22t-60 54.5t-28 70.5t-7 71q0 17 2.5 48t11 67t25 73.5t45.5 68t71.5 49.5t102.5 19q64 0 103 -22t60 -54.5t28 -71t7 -71.5zM351 315q0 59 -14.5 88t-56.5 29q-20 0 -36 -8t-30 -28
q-20 -29 -32.5 -77.5t-12.5 -110.5q0 -59 14.5 -88t56.5 -29q20 0 36 8t30 28q20 29 32.5 77.5t12.5 110.5z" />
    <glyph glyph-name="p" unicode="p" horiz-adv-x="540" 
d="M508 344q0 -54 -11 -115.5t-38 -114t-74 -87.5t-119 -35q-42 0 -67 10.5t-38 21.5l-40 -254h-134l119 754h131l-18 -115q7 16 18.5 35.5t32.5 41.5q29 29 55.5 38t51.5 9q67 0 99 -44.5t32 -144.5zM374 322q0 40 -10 67.5t-43 27.5q-14 0 -31.5 -8.5t-40.5 -37.5
q-20 -26 -33 -56.5t-18 -57.5l-23 -143q6 -6 20.5 -13.5t40.5 -7.5q34 0 56.5 14.5t36.5 34.5q20 28 32.5 75t12.5 105z" />
    <glyph glyph-name="q" unicode="q" horiz-adv-x="541" 
d="M399 -230h-132l47 288q3 16 4.5 26.5t2.5 17t2 10.5t2 9q-5 -11 -17.5 -33t-36.5 -47q-29 -29 -55.5 -38t-51.5 -9q-66 0 -98.5 44t-32.5 143q0 53 11 114.5t38 114t74 87.5t119 35q45 0 71 -11.5t37 -22.5l4 26h131zM367 416q-20 15 -60 15q-34 0 -57 -13.5t-38 -35.5
q-18 -26 -31.5 -71.5t-13.5 -105.5q0 -40 10 -67.5t43 -27.5q12 0 30.5 8t41.5 38q19 24 32.5 53.5t18.5 57.5z" />
    <glyph glyph-name="r" unicode="r" horiz-adv-x="385" 
d="M394 395q-8 8 -20.5 13.5t-32.5 5.5q-25 0 -46.5 -12t-43.5 -39q-23 -28 -36.5 -57.5t-17.5 -52.5l-40 -253h-134l83 524h131l-19 -120q11 23 28 47.5t38 44.5q39 36 86 36q17 0 32 -4t23 -12z" />
    <glyph glyph-name="s" unicode="s" horiz-adv-x="391" 
d="M368 382q-17 17 -49 32t-74 15q-35 0 -49 -12t-14 -32q0 -18 10 -28.5t31 -25.5l47 -34q16 -12 30.5 -24.5t25.5 -28.5t17.5 -37.5t6.5 -50.5q0 -32 -9.5 -61.5t-31.5 -52.5t-58.5 -37t-91.5 -14q-54 0 -95 12t-64 27l16 118q19 -21 54.5 -38t83.5 -17q12 0 24.5 2t22 7
t16 15t6.5 27q0 20 -10.5 30.5t-33.5 26.5l-44 31q-37 26 -58.5 57.5t-21.5 82.5q0 46 17 77t44 49.5t59.5 26t64.5 7.5q36 0 75.5 -9.5t68.5 -29.5z" />
    <glyph glyph-name="t" unicode="t" horiz-adv-x="324" 
d="M343 426h-120l-34 -219q-2 -12 -5 -32.5t-3 -34.5q0 -8 2 -16.5t8 -15.5t16.5 -11t27.5 -4q21 0 36 5.5t23 12.5l-19 -100q-14 -9 -40.5 -14.5t-56.5 -5.5q-49 0 -76 13.5t-40 32.5t-15.5 38t-2.5 31q0 26 3 47.5t6 42.5l36 230h-54l16 98h54l14 89l139 28l-19 -117h120z
" />
    <glyph glyph-name="u" unicode="u" 
d="M445 0h-131l18 113q-8 -17 -24 -39.5t-39 -41.5q-29 -24 -55.5 -32t-53.5 -8q-42 0 -66 12.5t-36 30.5t-15 37.5t-3 34.5q0 23 3 50.5t6 45.5l51 321h134l-44 -278q-1 -5 -2.5 -15t-3 -21.5t-2.5 -23.5t-1 -22q0 -21 8 -33.5t33 -12.5q26 0 46 14t37 35q20 25 32.5 53
t16.5 51l40 253h134z" />
    <glyph glyph-name="v" unicode="v" horiz-adv-x="460" 
d="M260 -2h-161l-67 526h134l32 -329q2 -26 2.5 -44t0.5 -39q3 13 10.5 35t18.5 48l137 329h131z" />
    <glyph glyph-name="w" unicode="w" horiz-adv-x="750" 
d="M557 -2h-158l-15 254q-2 24 -2.5 52.5t-0.5 51.5q-3 -9 -6.5 -21.5t-7.5 -25t-7.5 -23t-5.5 -15.5l-96 -273h-166l-60 526h132l27 -337q2 -23 2 -48v-46q4 13 9 28q4 13 9.5 30t12.5 37l118 336h139l20 -339q1 -19 1 -45v-49q5 21 13 49.5t17 51.5l129 332h127z" />
    <glyph glyph-name="x" unicode="x" horiz-adv-x="449" 
d="M303 262l138 -262h-139l-94 175l-122 -175h-136l205 274l-133 250h142l86 -163l114 163h135z" />
    <glyph glyph-name="y" unicode="y" horiz-adv-x="458" 
d="M218 -84q-14 -29 -35 -62.5t-51 -53.5q-25 -17 -54 -23.5t-62 -6.5q-35 0 -59 5.5t-35 10.5l17 101q8 -6 23.5 -12.5t42.5 -6.5q37 0 59.5 16.5t40.5 55.5l10 22l-85 562h135l36 -283q5 -33 6 -60t1 -42q6 20 15.5 45t17.5 45l126 295h129z" />
    <glyph glyph-name="z" unicode="z" horiz-adv-x="429" 
d="M435 436l-284 -338h226l-16 -98h-381l14 88l283 338h-211l15 98h368z" />
    <glyph glyph-name="braceleft" unicode="{" horiz-adv-x="457" 
d="M443 677q-5 3 -18 6t-27 3q-31 0 -44 -18t-20 -58l-29 -168q-5 -26 -10.5 -50.5t-16.5 -45.5t-30.5 -37t-51.5 -25q37 -14 48.5 -43t11.5 -63q0 -18 -2 -35.5t-4 -32.5l-28 -177q-3 -18 -3 -32q0 -23 11 -35.5t42 -12.5q14 0 24.5 2.5t17.5 5.5l-14 -80q-9 -3 -34.5 -7
t-51.5 -4q-35 0 -59 9t-38.5 24t-21 35t-6.5 43q0 16 3 34l30 188q2 13 3 24.5t1 20.5q0 92 -76 99l13 76q49 0 77 31.5t39 97.5l30 174q5 29 14 55.5t26 46.5t45.5 32t72.5 12q33 0 57.5 -5.5t32.5 -8.5z" />
    <glyph glyph-name="bar" unicode="|" horiz-adv-x="297" 
d="M138 -177h-133l153 947h133z" />
    <glyph glyph-name="braceright" unicode="}" horiz-adv-x="457" 
d="M394 219q-49 0 -77 -31.5t-39 -97.5l-30 -174q-5 -29 -14 -55.5t-26 -46.5t-45.5 -32t-72.5 -12q-33 0 -57.5 5.5t-32.5 8.5l14 81q5 -3 18 -6t27 -3q31 0 44 18t20 58l29 168q4 26 10 50.5t17 45.5t30.5 37t51.5 25q-37 14 -48.5 43t-11.5 63q0 18 2 35.5t4 32.5l28 177
q3 18 3 32q0 23 -11 35.5t-42 12.5q-14 0 -24.5 -2.5t-17.5 -5.5l14 80q9 3 34.5 7t51.5 4q35 0 59 -9t38.5 -24t21 -35t6.5 -43q0 -16 -3 -34l-30 -188q-2 -13 -3 -24.5t-1 -20.5q0 -92 76 -99z" />
    <glyph glyph-name="asciitilde" unicode="~" horiz-adv-x="698" 
d="M690 447q-7 -30 -18 -66.5t-25 -60.5q-22 -39 -56.5 -55.5t-73.5 -16.5q-38 0 -73.5 11.5t-68.5 24.5l-78 30q-48 19 -72.5 24t-42.5 5q-29 0 -50 -10t-37 -36q-9 -15 -16.5 -33t-12.5 -35l-60 21q8 37 19.5 73.5t28.5 65.5q26 42 58.5 56t67.5 14q40 0 74.5 -11.5
t68.5 -24.5l79 -30q24 -9 41 -14.5t30 -9t23 -4.5t19 -1q27 0 48 8.5t38 31.5q8 11 16.5 28t13.5 33l59 -18v0z" />
    <glyph glyph-name="uni00A0" unicode="&#xa0;" horiz-adv-x="200" 
 />
    <glyph glyph-name="exclamdown" unicode="&#xa1;" horiz-adv-x="274" 
d="M269 632q0 -37 -21.5 -61t-57.5 -24q-32 0 -52.5 20t-20.5 55t21.5 59t59.5 24q32 0 51.5 -19t19.5 -54zM164 13l-134 -18l87 505h119z" />
    <glyph glyph-name="cent" unicode="&#xa2;" horiz-adv-x="537" 
d="M485 479q-12 14 -38 27t-65 13q-26 0 -50.5 -8t-44.5 -31q-28 -31 -39.5 -76.5t-11.5 -89.5q0 -60 24 -95.5t88 -35.5q42 0 66.5 13t37.5 25l-21 -110q-13 -9 -38.5 -17.5t-54.5 -11.5l-15 -93h-110l16 102q-43 12 -69 35.5t-39.5 52t-17.5 59.5t-4 59q0 54 11.5 106.5
t36 96t64 74.5t95.5 42l14 84l112 12l-15 -94q28 -5 51 -15t34 -21z" />
    <glyph glyph-name="sterling" unicode="&#xa3;" horiz-adv-x="537" 
d="M552 547q-13 20 -42 38.5t-75 18.5q-35 0 -63 -14t-48 -45q-19 -29 -26 -60t-15 -71h158l-15 -89h-157q-8 -39 -16 -65t-16.5 -44t-18 -31t-21.5 -25q-15 -16 -29 -27t-32 -23q11 5 27 10t38 5q14 0 29 -2t29 -5l68 -16q8 -2 23.5 -4t29.5 -2q35 0 64.5 14t45.5 29
l-28 -125q-20 -15 -50 -21t-57 -6q-23 0 -47.5 3.5t-47.5 8.5l-71 16q-15 3 -32.5 5t-31.5 2q-28 0 -58.5 -8t-56.5 -25l-35 75q21 11 37.5 21t30.5 24q23 23 48.5 73t42.5 143h-81l15 89h80q8 41 16.5 78.5t25.5 75.5q29 63 86.5 103.5t147.5 40.5q54 0 91.5 -13t57.5 -28z
" />
    <glyph glyph-name="currency" unicode="&#xa4;" horiz-adv-x="555" 
d="M479 91l-58 58q-65 -46 -143 -46t-143 46l-58 -58l-59 59l58 58q-46 64 -46 143q0 78 46 143l-58 58l59 59l58 -58q64 46 142 46q79 0 144 -46l58 58l59 -59l-58 -58q46 -64 46 -142q0 -77 -46 -144l58 -58zM416 351q0 58 -41 101q-40 43 -97 43q-58 0 -98 -43
q-40 -41 -40 -101q0 -31 10.5 -56.5t29.5 -45.5q40 -42 98 -42q56 0 97 42q18 19 29.5 44.5t11.5 57.5z" />
    <glyph glyph-name="yen" unicode="&#xa5;" horiz-adv-x="537" 
d="M402 379h84l-13 -86h-129l-13 -75h129l-13 -86h-129l-22 -132h-136l22 132h-125l13 86h125l13 75h-125l13 86h81l-111 324h144l83 -292l180 292h144z" />
    <glyph glyph-name="brokenbar" unicode="&#xa6;" horiz-adv-x="530" 
d="M344 349h-133l56 354h133zM259 -177h-133l55 339h132z" />
    <glyph glyph-name="section" unicode="&#xa7;" horiz-adv-x="534" 
d="M498 612q-19 20 -51.5 38.5t-78.5 18.5q-34 0 -54 -13t-20 -44q0 -17 8.5 -30.5t33.5 -33.5l77 -61q40 -32 60 -67.5t20 -87.5q0 -43 -13 -76.5t-34 -58.5t-48 -42t-56 -26l5 -4q24 -19 38 -49.5t14 -69.5q0 -29 -9 -58.5t-31.5 -53.5t-61 -39t-96.5 -15q-60 0 -100.5 15
t-60.5 33l18 110q19 -20 51.5 -38.5t78.5 -18.5q34 0 54 13t20 44q0 17 -8.5 30.5t-33.5 33.5l-77 61q-40 32 -60 67.5t-20 87.5q0 43 13 76.5t34 58.5t48 42t56 26l-5 4q-24 19 -38 49.5t-14 69.5q0 28 9 57.5t31.5 53.5t61 39.5t96.5 15.5q60 0 100.5 -15t60.5 -33z
M363 308q0 35 -16.5 57.5t-36.5 39.5l-26 21q-38 -17 -64.5 -49.5t-26.5 -74.5q0 -35 16.5 -57.5t36.5 -39.5l26 -21q38 17 64.5 49.5t26.5 74.5z" />
    <glyph glyph-name="dieresis" unicode="&#xa8;" horiz-adv-x="500" 
d="M420 680q0 -31 -20 -50t-49 -19q-26 0 -42 15t-16 43q0 31 20 50t49 19q26 0 42 -15t16 -43zM211 680q0 -31 -20 -50t-49 -19q-26 0 -42 15t-16 43q0 31 20 50t49 19q26 0 42 -15t16 -43z" />
    <glyph glyph-name="copyright" unicode="&#xa9;" horiz-adv-x="873" 
d="M833 321q0 -87 -28.5 -161t-80 -128t-123.5 -84.5t-159 -30.5q-86 0 -158 29.5t-124 82.5t-81 126t-29 160t29.5 160.5t82 126.5t125.5 82.5t161 29.5q87 0 158.5 -29.5t121.5 -81.5t77.5 -124.5t27.5 -157.5zM763 319q0 72 -22 133.5t-63 106.5t-100 70.5t-132 25.5
q-74 0 -134 -26t-102.5 -71.5t-65.5 -107.5t-23 -134q0 -73 23 -135.5t65.5 -108t102 -71.5t131.5 -26q73 0 132 26t101 72.5t64.5 109t22.5 136.5zM589 95q-21 -18 -59 -26.5t-76 -8.5q-62 0 -107 20t-74 54t-43.5 79.5t-14.5 96.5q0 44 10 83.5t28 70.5q32 55 87.5 82
t122.5 27q46 0 78.5 -10.5t49.5 -22.5v-94q-14 14 -42.5 28.5t-74.5 14.5q-32 0 -60 -9t-49 -29.5t-33.5 -52.5t-12.5 -78q0 -80 38.5 -128t115.5 -48q45 0 75 15t45 34z" />
    <glyph glyph-name="ordfeminine" unicode="&#xaa;" horiz-adv-x="385" 
d="M354 317h-101l14 86q-6 -14 -14.5 -27.5t-22.5 -28.5q-22 -23 -41.5 -30t-39.5 -7q-51 0 -75 35t-24 107q0 44 9.5 90t31 83.5t57 61.5t86.5 24q32 0 50.5 -8.5t27.5 -16.5l2 19h101zM299 618q-6 6 -16.5 10.5t-27.5 4.5q-23 0 -39.5 -9.5t-27.5 -26.5q-9 -14 -15.5 -31
t-10.5 -35t-5.5 -35t-1.5 -31q0 -22 3.5 -35t9 -20t12 -9t12.5 -2q13 0 25 7t27 27q17 22 26 44t12 39z" />
    <glyph glyph-name="guillemotleft" unicode="&#xab;" horiz-adv-x="507" 
d="M165 261l51 -207h-101l-74 209l136 188h110zM385 261l51 -207h-101l-74 209l136 188h110z" />
    <glyph glyph-name="logicalnot" unicode="&#xac;" horiz-adv-x="640" 
d="M540 186v156h-507v86h594v-242h-87z" />
    <glyph glyph-name="uni00AD" unicode="&#xad;" horiz-adv-x="324" 
d="M274 207h-243l19 120h243z" />
    <glyph glyph-name="registered" unicode="&#xae;" horiz-adv-x="873" 
d="M833 321q0 -87 -28.5 -161t-80 -128t-123.5 -84.5t-159 -30.5q-86 0 -158 29.5t-124 82.5t-81 126t-29 160t29.5 160.5t82 126.5t125.5 82.5t161 29.5q87 0 158.5 -29.5t121.5 -81.5t77.5 -124.5t27.5 -157.5zM763 319q0 72 -22 133.5t-63 106.5t-100 70.5t-132 25.5
q-74 0 -134 -26t-102.5 -71.5t-65.5 -107.5t-23 -134q0 -73 23 -135.5t65.5 -108t102 -71.5t131.5 -26q73 0 132 26t101 72.5t64.5 109t22.5 136.5zM527 68l-151 188v-188h-90v509h94q62 0 99 -4.5t61 -15.5q32 -14 50 -44t18 -75q0 -37 -12.5 -65t-33.5 -47.5t-48 -29.5
t-56 -11l183 -217h-114zM511 431q0 24 -7.5 38.5t-20.5 22.5t-31 11t-40 3h-34v-161h24q22 0 42 3.5t35 13t23.5 26.5t8.5 43z" />
    <glyph glyph-name="macron" unicode="&#xaf;" horiz-adv-x="485" 
d="M481 619h-279l15 98h280z" />
    <glyph glyph-name="degree" unicode="&#xb0;" horiz-adv-x="385" 
d="M385 600q0 -32 -12.5 -60t-34 -49t-50 -33.5t-61.5 -12.5t-61.5 12t-49.5 33t-33.5 49.5t-12.5 60.5t12.5 60.5t33.5 49.5t49.5 33t61.5 12q32 0 61 -12t50.5 -33t34 -49.5t12.5 -60.5zM323 601q0 41 -27.5 68.5t-68.5 27.5t-68.5 -27.5t-27.5 -68.5t27.5 -70t68.5 -29
t68.5 29t27.5 70z" />
    <glyph glyph-name="plusminus" unicode="&#xb1;" horiz-adv-x="640" 
d="M375 394v-264h-91v264h-251v86h251v256h91v-256h252v-86h-252zM33 0v86h594v-86h-594z" />
    <glyph glyph-name="twosuperior" unicode="&#xb2;" horiz-adv-x="352" 
d="M324 595q0 -20 -5 -38.5t-17 -37.5t-31.5 -40t-48.5 -47q-32 -29 -55.5 -46t-35.5 -24h156l-13 -79h-276l10 69q34 25 68.5 52t71.5 62q41 38 58.5 64.5t17.5 53.5q0 26 -15 40t-45 14t-57.5 -12.5t-45.5 -27.5l14 85q19 11 49 20t69 9q36 0 61 -9t40.5 -25t22.5 -37.5
t7 -45.5z" />
    <glyph glyph-name="threesuperior" unicode="&#xb3;" horiz-adv-x="352" 
d="M306 620q0 -31 -12.5 -52.5t-29.5 -35t-34.5 -20t-27.5 -7.5q41 -7 64 -28t23 -67q0 -38 -15.5 -64t-40.5 -41.5t-55.5 -22.5t-60.5 -7q-41 0 -67.5 9t-38.5 19l12 79q14 -14 37 -25t55 -11q41 0 62 18.5t21 48.5t-21.5 42.5t-59.5 12.5h-12l10 65h15q36 0 60 16.5
t24 48.5q0 47 -54 47q-26 0 -51 -10.5t-42 -24.5l12 75q17 9 45 18t66 9q57 0 86.5 -23.5t29.5 -68.5z" />
    <glyph glyph-name="acute" unicode="&#xb4;" horiz-adv-x="500" 
d="M164 583l-39 64l186 135l51 -86z" />
    <glyph glyph-name="paragraph" unicode="&#xb6;" horiz-adv-x="463" 
d="M466 601h-54l-97 -585q-6 -37 -16.5 -65.5t-28.5 -51.5q-46 -58 -141 -58q-39 0 -68 7t-41 13l16 98q13 -8 32.5 -16t51.5 -8q40 0 57.5 20t25.5 67l48 288h-14q-78 0 -122.5 45t-44.5 126q0 49 17.5 90t50.5 70.5t80.5 45.5t107.5 16h162z" />
    <glyph glyph-name="periodcentered" unicode="&#xb7;" horiz-adv-x="290" 
d="M240 300q0 -40 -23 -65.5t-65 -25.5q-40 0 -63.5 24t-23.5 67q0 42 23.5 67t62.5 25q38 0 63.5 -24t25.5 -68z" />
    <glyph glyph-name="cedilla" unicode="&#xb8;" 
d="M236 -125q0 -37 -23 -65q-31 -37 -93 -37q-22 0 -37.5 3.5t-24.5 8.5l7 69q6 -5 18.5 -11t29.5 -6q24 0 33.5 12t9.5 27q0 17 -7.5 24t-12.5 12q-8 7 -14 15.5t-6 25.5q0 12 3 22.5t10 24.5h69q-8 -17 -8 -30q0 -14 5 -20.5t14 -14.5t18 -21t9 -39z" />
    <glyph glyph-name="onesuperior" unicode="&#xb9;" horiz-adv-x="292" 
d="M191 283h-93l49 315l-94 -18l11 79q13 2 29 6.5t32.5 10t31.5 12.5t26 15h75z" />
    <glyph glyph-name="ordmasculine" unicode="&#xba;" horiz-adv-x="370" 
d="M390 552q0 -13 -2 -36t-8.5 -49.5t-19 -53.5t-34 -49.5t-54 -36.5t-77.5 -14q-49 0 -78.5 16t-45.5 40t-21 52t-5 52q0 13 2 36t8.5 50t19 54.5t34 50t53.5 36.5t77 14q49 0 79 -16.5t46 -40.5t21 -52.5t5 -52.5zM281 554q0 42 -10 63t-40 21q-14 0 -25 -5.5t-22 -21.5
q-14 -21 -22.5 -56.5t-8.5 -80.5q0 -43 10.5 -64.5t39.5 -21.5q14 0 25 5.5t22 21.5q14 21 22.5 57t8.5 82z" />
    <glyph glyph-name="guillemotright" unicode="&#xbb;" horiz-adv-x="507" 
d="M110 54h-110l122 190l-51 207h101l74 -209zM330 54h-110l122 190l-51 207h101l74 -209z" />
    <glyph glyph-name="onequarter" unicode="&#xbc;" horiz-adv-x="747" 
d="M653 148h44l-11 -70h-44l-13 -78h-85l13 78h-200l11 74l238 276h92zM164 0h-99l511 703h97zM194 283h-93l49 315l-94 -18l11 79q13 2 29 6.5t32.5 10t31.5 12.5t26 15h75zM598 332q-5 -8 -12 -18t-21 -27l-119 -139h122z" />
    <glyph glyph-name="onehalf" unicode="&#xbd;" horiz-adv-x="747" 
d="M138 0h-99l511 703h97zM184 283h-93l49 315l-94 -18l11 79q13 2 29 6.5t32.5 10t31.5 12.5t26 15h75zM723 313q0 -20 -5 -38.5t-17 -37.5t-31.5 -40t-48.5 -47q-32 -29 -55.5 -46t-35.5 -24h156l-13 -79h-276l10 69q34 25 68.5 52t71.5 62q41 38 58.5 64.5t17.5 53.5
q0 26 -15 40t-45 14t-57.5 -12.5t-45.5 -27.5l14 85q19 11 49 20t69 9q36 0 61 -9t40.5 -25t22.5 -37.5t7 -45.5z" />
    <glyph glyph-name="threequarters" unicode="&#xbe;" horiz-adv-x="747" 
d="M683 148h44l-11 -70h-44l-13 -78h-85l13 78h-200l11 74l238 276h92zM209 0h-99l511 703h97zM322 620q0 -31 -12.5 -52.5t-29.5 -35t-34.5 -20t-27.5 -7.5q41 -7 64 -28t23 -67q0 -38 -15.5 -64t-40.5 -41.5t-55.5 -22.5t-60.5 -7q-41 0 -67.5 9t-38.5 19l12 79
q14 -14 37 -25t55 -11q41 0 62 18.5t21 48.5t-21.5 42.5t-59.5 12.5h-12l10 65h15q36 0 60 16.5t24 48.5q0 47 -54 47q-26 0 -51 -10.5t-42 -24.5l12 75q17 9 45 18t66 9q57 0 86.5 -23.5t29.5 -68.5zM628 332q-5 -8 -12 -18t-21 -27l-119 -139h122z" />
    <glyph glyph-name="questiondown" unicode="&#xbf;" horiz-adv-x="430" 
d="M388 632q0 -37 -21.5 -61t-57.5 -24q-32 0 -52.5 20t-20.5 55t21.5 59t59.5 24q32 0 51.5 -19t19.5 -54zM368 34q-27 -18 -73.5 -33t-105.5 -15q-96 0 -139 44t-43 115q0 52 24 97t83 92l67 54q15 12 24 21.5t14.5 19t8.5 21t6 27.5l4 23h123l-6 -37q-6 -36 -18 -63.5
t-42 -54.5l-70 -62q-31 -27 -55.5 -54t-24.5 -67q0 -36 22.5 -53t64.5 -17q50 0 89.5 20t66.5 46z" />
    <glyph glyph-name="Agrave" unicode="&#xc0;" horiz-adv-x="577" 
d="M453 748l-198 113l52 86l186 -135zM403 0l-23 211h-209l-89 -211h-134l321 704h185l90 -704h-141zM345 536q-2 21 -3.5 43.5t-1.5 40.5q-5 -17 -13 -38.5t-18 -44.5l-94 -223h154z" />
    <glyph glyph-name="Aacute" unicode="&#xc1;" horiz-adv-x="577" 
d="M291 748l-39 64l186 135l51 -86zM403 0l-23 211h-209l-89 -211h-134l321 704h185l90 -704h-141zM345 536q-2 21 -3.5 43.5t-1.5 40.5q-5 -17 -13 -38.5t-18 -44.5l-94 -223h154z" />
    <glyph glyph-name="Acircumflex" unicode="&#xc2;" horiz-adv-x="577" 
d="M487 748l-110 92l-146 -92l-37 58l199 150l145 -150zM403 0l-23 211h-209l-89 -211h-134l321 704h185l90 -704h-141zM345 536q-2 21 -3.5 43.5t-1.5 40.5q-5 -17 -13 -38.5t-18 -44.5l-94 -223h154z" />
    <glyph glyph-name="Atilde" unicode="&#xc3;" horiz-adv-x="577" 
d="M538 874q-8 -18 -19.5 -36.5t-26.5 -33.5t-33 -24.5t-40 -9.5t-49 13l-23 11q-13 6 -21 8t-14 2q-18 0 -32 -10.5t-22 -24.5l-47 34q10 18 22 36.5t27 32.5t33 23t38 9q10 0 21 -2.5t26 -10.5l23 -11q21 -10 35 -10q16 0 28 10t19 25l55 -31v0zM403 0l-23 211h-209
l-89 -211h-134l321 704h185l90 -704h-141zM345 536q-2 21 -3.5 43.5t-1.5 40.5q-5 -17 -13 -38.5t-18 -44.5l-94 -223h154z" />
    <glyph glyph-name="Adieresis" unicode="&#xc4;" horiz-adv-x="577" 
d="M548 845q0 -31 -20 -50t-49 -19q-26 0 -42 15t-16 43q0 31 20 50t49 19q26 0 42 -15t16 -43zM339 845q0 -31 -20 -50t-49 -19q-26 0 -42 15t-16 43q0 31 20 50t49 19q26 0 42 -15t16 -43zM403 0l-23 211h-209l-89 -211h-134l321 704h185l90 -704h-141zM345 536
q-2 21 -3.5 43.5t-1.5 40.5q-5 -17 -13 -38.5t-18 -44.5l-94 -223h154z" />
    <glyph glyph-name="Aring" unicode="&#xc5;" horiz-adv-x="577" 
d="M499 874q0 -29 -10 -53.5t-27 -41.5t-41 -26.5t-51 -9.5q-48 0 -79.5 28.5t-31.5 81.5q0 29 10 53t27.5 41t41.5 26.5t53 9.5q50 0 79 -29t29 -80zM434 870q0 29 -15 41t-35 12q-28 0 -44 -19t-16 -48t15 -41.5t35 -12.5q28 0 44 19.5t16 48.5zM403 0l-23 211h-209
l-89 -211h-134l321 704h185l90 -704h-141zM345 536q-2 21 -3.5 43.5t-1.5 40.5q-5 -17 -13 -38.5t-18 -44.5l-94 -223h154z" />
    <glyph glyph-name="AE" unicode="&#xc6;" horiz-adv-x="805" 
d="M817 590h-217l-31 -199h177l-18 -113h-177l-27 -167h235l-23 -111h-366l45 281h-145l-170 -281h-155l439 703h451zM472 637q-5 -11 -13 -25l-16 -28l-112 -193h100z" />
    <glyph glyph-name="Ccedilla" unicode="&#xc7;" 
d="M562 544q-25 30 -68.5 44t-87.5 14q-70 0 -112.5 -31.5t-65.5 -78t-30.5 -99.5t-7.5 -97q0 -34 5 -69t21.5 -63.5t48 -46.5t85.5 -18q57 0 96.5 18.5t62.5 40.5l-26 -127q-18 -14 -56.5 -26t-86.5 -15q-2 -5 -3 -10.5t-1 -10.5q0 -13 5.5 -19.5t13.5 -14.5q9 -8 18 -21
t9 -39q0 -37 -23 -65q-31 -37 -93 -37q-22 0 -37.5 3.5t-24.5 8.5l7 69q6 -5 18.5 -11t29.5 -6q24 0 33.5 12t9.5 27q0 17 -7.5 24t-12.5 12q-8 7 -14 15.5t-6 25.5t9 38q-63 6 -105.5 31t-68 63t-36.5 88t-11 107q0 94 23.5 171t60.5 131q30 43 64 69t69 39.5t68.5 17.5
t60.5 4q38 0 68 -5t52.5 -12.5t38 -16.5t26.5 -17z" />
    <glyph glyph-name="Egrave" unicode="&#xc8;" horiz-adv-x="458" 
d="M402 748l-198 113l52 86l186 -135zM470 590h-217l-28 -177h177l-18 -113h-177l-30 -189h235l-23 -111h-366l111 703h354z" />
    <glyph glyph-name="Eacute" unicode="&#xc9;" horiz-adv-x="458" 
d="M257 748l-39 64l186 135l51 -86zM470 590h-217l-28 -177h177l-18 -113h-177l-30 -189h235l-23 -111h-366l111 703h354z" />
    <glyph glyph-name="Ecircumflex" unicode="&#xca;" horiz-adv-x="458" 
d="M440 748l-110 92l-146 -92l-37 58l199 150l145 -150zM470 590h-217l-28 -177h177l-18 -113h-177l-30 -189h235l-23 -111h-366l111 703h354z" />
    <glyph glyph-name="Edieresis" unicode="&#xcb;" horiz-adv-x="458" 
d="M484 845q0 -31 -20 -50t-49 -19q-26 0 -42 15t-16 43q0 31 20 50t49 19q26 0 42 -15t16 -43zM275 845q0 -31 -20 -50t-49 -19q-26 0 -42 15t-16 43q0 31 20 50t49 19q26 0 42 -15t16 -43zM470 590h-217l-28 -177h177l-18 -113h-177l-30 -189h235l-23 -111h-366l111 703
h354z" />
    <glyph glyph-name="Igrave" unicode="&#xcc;" horiz-adv-x="264" 
d="M296 748l-198 113l52 86l186 -135zM160 0h-137l111 703h137z" />
    <glyph glyph-name="Iacute" unicode="&#xcd;" horiz-adv-x="264" 
d="M136 748l-39 64l186 135l51 -86zM160 0h-137l111 703h137z" />
    <glyph glyph-name="Icircumflex" unicode="&#xce;" horiz-adv-x="264" 
d="M336 748l-110 92l-146 -92l-37 58l199 150l145 -150zM160 0h-137l111 703h137z" />
    <glyph glyph-name="Idieresis" unicode="&#xcf;" horiz-adv-x="264" 
d="M391 845q0 -31 -20 -50t-49 -19q-26 0 -42 15t-16 43q0 31 20 50t49 19q26 0 42 -15t16 -43zM182 845q0 -31 -20 -50t-49 -19q-26 0 -42 15t-16 43q0 31 20 50t49 19q26 0 42 -15t16 -43zM160 0h-137l111 703h137z" />
    <glyph glyph-name="Eth" unicode="&#xd0;" horiz-adv-x="640" 
d="M620 419q0 -97 -29.5 -184.5t-94.5 -147.5q-32 -30 -68 -47t-76 -26t-83 -11.5t-90 -2.5h-156l49 311h-62l14 93h62l48 299h155q53 0 92.5 -3t69.5 -11t53 -21.5t43 -33.5q40 -40 56.5 -92.5t16.5 -122.5zM482 412q0 67 -14.5 103.5t-40.5 54.5q-17 12 -43.5 17.5
t-69.5 5.5h-60l-30 -189h144l-19 -93h-140l-32 -201h79q68 0 112 28.5t69.5 72.5t35 97.5t9.5 103.5z" />
    <glyph glyph-name="Ntilde" unicode="&#xd1;" horiz-adv-x="643" 
d="M588 874q-8 -18 -19.5 -36.5t-26.5 -33.5t-33 -24.5t-40 -9.5t-49 13l-23 11q-13 6 -21 8t-14 2q-18 0 -32 -10.5t-22 -24.5l-47 34q10 18 22 36.5t27 32.5t33 23t38 9q10 0 21 -2.5t26 -10.5l23 -11q21 -10 35 -10q16 0 28 10t19 25l55 -31v0zM538 0h-145l-133 365
q-16 43 -24.5 82.5t-10.5 60.5l-82 -508h-121l113 703h150l119 -350q13 -38 24.5 -85t18.5 -84l83 519h121z" />
    <glyph glyph-name="Ograve" unicode="&#xd2;" horiz-adv-x="648" 
d="M490 748l-198 113l52 86l186 -135zM628 421q0 -11 -2 -47.5t-11.5 -84.5t-29.5 -101t-56.5 -97.5t-92.5 -73.5t-137 -29q-57 0 -98 15t-68.5 39t-44 55t-25 63.5t-11 63.5t-2.5 55q0 11 2 47.5t11.5 84.5t29.5 101t56.5 97.5t92.5 73.5t137 29q57 0 98 -15t68.5 -39
t44 -55t25 -63.5t11 -63.5t2.5 -55zM488 423q0 58 -10 93.5t-26.5 54.5t-38.5 25.5t-45 6.5q-31 0 -59.5 -11.5t-53.5 -48.5q-32 -47 -48.5 -119.5t-16.5 -146.5q0 -58 10 -93.5t26.5 -54.5t38.5 -25.5t45 -6.5q31 0 59.5 11.5t53.5 48.5q32 47 48.5 119.5t16.5 146.5z" />
    <glyph glyph-name="Oacute" unicode="&#xd3;" horiz-adv-x="648" 
d="M335 748l-39 64l186 135l51 -86zM628 421q0 -11 -2 -47.5t-11.5 -84.5t-29.5 -101t-56.5 -97.5t-92.5 -73.5t-137 -29q-57 0 -98 15t-68.5 39t-44 55t-25 63.5t-11 63.5t-2.5 55q0 11 2 47.5t11.5 84.5t29.5 101t56.5 97.5t92.5 73.5t137 29q57 0 98 -15t68.5 -39t44 -55
t25 -63.5t11 -63.5t2.5 -55zM488 423q0 58 -10 93.5t-26.5 54.5t-38.5 25.5t-45 6.5q-31 0 -59.5 -11.5t-53.5 -48.5q-32 -47 -48.5 -119.5t-16.5 -146.5q0 -58 10 -93.5t26.5 -54.5t38.5 -25.5t45 -6.5q31 0 59.5 11.5t53.5 48.5q32 47 48.5 119.5t16.5 146.5z" />
    <glyph glyph-name="Ocircumflex" unicode="&#xd4;" horiz-adv-x="648" 
d="M526 748l-110 92l-146 -92l-37 58l199 150l145 -150zM628 421q0 -11 -2 -47.5t-11.5 -84.5t-29.5 -101t-56.5 -97.5t-92.5 -73.5t-137 -29q-57 0 -98 15t-68.5 39t-44 55t-25 63.5t-11 63.5t-2.5 55q0 11 2 47.5t11.5 84.5t29.5 101t56.5 97.5t92.5 73.5t137 29
q57 0 98 -15t68.5 -39t44 -55t25 -63.5t11 -63.5t2.5 -55zM488 423q0 58 -10 93.5t-26.5 54.5t-38.5 25.5t-45 6.5q-31 0 -59.5 -11.5t-53.5 -48.5q-32 -47 -48.5 -119.5t-16.5 -146.5q0 -58 10 -93.5t26.5 -54.5t38.5 -25.5t45 -6.5q31 0 59.5 11.5t53.5 48.5
q32 47 48.5 119.5t16.5 146.5z" />
    <glyph glyph-name="Otilde" unicode="&#xd5;" horiz-adv-x="648" 
d="M568 874q-8 -18 -19.5 -36.5t-26.5 -33.5t-33 -24.5t-40 -9.5t-49 13l-23 11q-13 6 -21 8t-14 2q-18 0 -32 -10.5t-22 -24.5l-47 34q10 18 22 36.5t27 32.5t33 23t38 9q10 0 21 -2.5t26 -10.5l23 -11q21 -10 35 -10q16 0 28 10t19 25l55 -31v0zM628 421q0 -11 -2 -47.5
t-11.5 -84.5t-29.5 -101t-56.5 -97.5t-92.5 -73.5t-137 -29q-57 0 -98 15t-68.5 39t-44 55t-25 63.5t-11 63.5t-2.5 55q0 11 2 47.5t11.5 84.5t29.5 101t56.5 97.5t92.5 73.5t137 29q57 0 98 -15t68.5 -39t44 -55t25 -63.5t11 -63.5t2.5 -55zM488 423q0 58 -10 93.5
t-26.5 54.5t-38.5 25.5t-45 6.5q-31 0 -59.5 -11.5t-53.5 -48.5q-32 -47 -48.5 -119.5t-16.5 -146.5q0 -58 10 -93.5t26.5 -54.5t38.5 -25.5t45 -6.5q31 0 59.5 11.5t53.5 48.5q32 47 48.5 119.5t16.5 146.5z" />
    <glyph glyph-name="Odieresis" unicode="&#xd6;" horiz-adv-x="648" 
d="M568 845q0 -31 -20 -50t-49 -19q-26 0 -42 15t-16 43q0 31 20 50t49 19q26 0 42 -15t16 -43zM359 845q0 -31 -20 -50t-49 -19q-26 0 -42 15t-16 43q0 31 20 50t49 19q26 0 42 -15t16 -43zM628 421q0 -11 -2 -47.5t-11.5 -84.5t-29.5 -101t-56.5 -97.5t-92.5 -73.5
t-137 -29q-57 0 -98 15t-68.5 39t-44 55t-25 63.5t-11 63.5t-2.5 55q0 11 2 47.5t11.5 84.5t29.5 101t56.5 97.5t92.5 73.5t137 29q57 0 98 -15t68.5 -39t44 -55t25 -63.5t11 -63.5t2.5 -55zM488 423q0 58 -10 93.5t-26.5 54.5t-38.5 25.5t-45 6.5q-31 0 -59.5 -11.5
t-53.5 -48.5q-32 -47 -48.5 -119.5t-16.5 -146.5q0 -58 10 -93.5t26.5 -54.5t38.5 -25.5t45 -6.5q31 0 59.5 11.5t53.5 48.5q32 47 48.5 119.5t16.5 146.5z" />
    <glyph glyph-name="multiply" unicode="&#xd7;" horiz-adv-x="546" 
d="M477 90l-194 198l-194 -197l-66 63l195 198l-190 193l65 66l190 -193l190 193l65 -65l-190 -193l195 -199z" />
    <glyph glyph-name="Oslash" unicode="&#xd8;" horiz-adv-x="648" 
d="M567 635q20 -24 32 -52t18.5 -56.5t8.5 -55t2 -48.5q0 -11 -2 -47.5t-11 -85t-29.5 -101.5t-56.5 -98t-92 -74t-137 -29q-46 0 -82.5 10t-63.5 27l-49 -73h-100l90 134q-15 23 -24 48.5t-13.5 50.5t-6 48t-1.5 42q0 11 2 47.5t11 85t29 102.5t56.5 98.5t91.5 74t136 29.5
q38 0 68.5 -7t55.5 -18l33 49h102zM432 586q-14 10 -31 13.5t-34 3.5q-35 0 -62 -13.5t-50 -46.5q-17 -24 -29 -55.5t-20 -66.5t-12 -72t-4 -73q0 -16 0.5 -26.5t1.5 -20.5zM488 425q0 27 -2 46.5t-6 35.5l-255 -377q17 -20 39.5 -26.5t45.5 -6.5q31 0 59.5 11.5t53.5 48.5
q16 24 28.5 55.5t20.5 67t12 72.5t4 73z" />
    <glyph glyph-name="Ugrave" unicode="&#xd9;" horiz-adv-x="612" 
d="M479 748l-198 113l52 86l186 -135zM559 257q-6 -41 -12.5 -72.5t-15.5 -57t-21.5 -45.5t-31.5 -38q-37 -33 -84 -44.5t-101 -11.5q-58 0 -98.5 9.5t-67.5 25t-42 35t-22.5 39t-9.5 38t-2 32.5q0 18 1.5 39.5t6.5 50.5l70 446h137l-73 -464q-2 -14 -3.5 -28t-1.5 -25
q0 -30 10 -47.5t26 -27t35 -12.5t36 -3q37 0 60 9.5t36.5 27t20.5 43t12 57.5l74 470h131z" />
    <glyph glyph-name="Uacute" unicode="&#xda;" horiz-adv-x="612" 
d="M339 748l-39 64l186 135l51 -86zM559 257q-6 -41 -12.5 -72.5t-15.5 -57t-21.5 -45.5t-31.5 -38q-37 -33 -84 -44.5t-101 -11.5q-58 0 -98.5 9.5t-67.5 25t-42 35t-22.5 39t-9.5 38t-2 32.5q0 18 1.5 39.5t6.5 50.5l70 446h137l-73 -464q-2 -14 -3.5 -28t-1.5 -25
q0 -30 10 -47.5t26 -27t35 -12.5t36 -3q37 0 60 9.5t36.5 27t20.5 43t12 57.5l74 470h131z" />
    <glyph glyph-name="Ucircumflex" unicode="&#xdb;" horiz-adv-x="612" 
d="M523 748l-110 92l-146 -92l-37 58l199 150l145 -150zM559 257q-6 -41 -12.5 -72.5t-15.5 -57t-21.5 -45.5t-31.5 -38q-37 -33 -84 -44.5t-101 -11.5q-58 0 -98.5 9.5t-67.5 25t-42 35t-22.5 39t-9.5 38t-2 32.5q0 18 1.5 39.5t6.5 50.5l70 446h137l-73 -464
q-2 -14 -3.5 -28t-1.5 -25q0 -30 10 -47.5t26 -27t35 -12.5t36 -3q37 0 60 9.5t36.5 27t20.5 43t12 57.5l74 470h131z" />
    <glyph glyph-name="Udieresis" unicode="&#xdc;" horiz-adv-x="612" 
d="M567 845q0 -31 -20 -50t-49 -19q-26 0 -42 15t-16 43q0 31 20 50t49 19q26 0 42 -15t16 -43zM358 845q0 -31 -20 -50t-49 -19q-26 0 -42 15t-16 43q0 31 20 50t49 19q26 0 42 -15t16 -43zM559 257q-6 -41 -12.5 -72.5t-15.5 -57t-21.5 -45.5t-31.5 -38q-37 -33 -84 -44.5
t-101 -11.5q-58 0 -98.5 9.5t-67.5 25t-42 35t-22.5 39t-9.5 38t-2 32.5q0 18 1.5 39.5t6.5 50.5l70 446h137l-73 -464q-2 -14 -3.5 -28t-1.5 -25q0 -30 10 -47.5t26 -27t35 -12.5t36 -3q37 0 60 9.5t36.5 27t20.5 43t12 57.5l74 470h131z" />
    <glyph glyph-name="Yacute" unicode="&#xdd;" horiz-adv-x="566" 
d="M318 748l-39 64l186 135l51 -86zM340 264l-42 -264h-134l43 268l-157 435h142l102 -311l205 311h147z" />
    <glyph glyph-name="Thorn" unicode="&#xde;" horiz-adv-x="547" 
d="M542 424q0 -72 -23 -121t-62 -79.5t-90 -44t-108 -13.5h-74l-26 -166h-136l112 703h134l-14 -91h55q68 0 105 -9t63 -27q28 -20 46 -53.5t18 -98.5zM401 414q0 34 -8.5 54t-22.5 30t-33 12.5t-41 2.5h-57l-39 -246h57q28 0 54 7t46 24.5t32 45.5t12 70z" />
    <glyph glyph-name="germandbls" unicode="&#xdf;" horiz-adv-x="608" 
d="M581 621q0 -26 -7.5 -47t-20.5 -38.5t-31 -32.5t-39 -29q-19 -12 -34.5 -22t-26.5 -20t-17 -20.5t-6 -24.5q0 -19 11 -30.5t30 -25.5l47 -34q16 -12 30.5 -24.5t25.5 -28.5t17.5 -37.5t6.5 -50.5q0 -32 -9.5 -61.5t-31.5 -52.5t-58.5 -37t-91.5 -14q-54 0 -95 12t-64 27
l16 118q19 -21 54.5 -38t83.5 -17q12 0 24.5 2t22 7t16 15t6.5 27q0 20 -10.5 30.5t-33.5 26.5l-44 31q-48 34 -65 64.5t-17 68.5q0 35 11 60t27.5 43.5t36.5 32.5t39 28q35 24 45.5 40.5t10.5 35.5q0 35 -23.5 47t-56.5 12q-30 0 -52 -8.5t-37 -28.5q-4 -5 -8 -12
t-7.5 -17.5t-7 -26.5t-7.5 -40l-86 -531h-132l84 529q4 24 7.5 42.5t7.5 33.5t9 28t11 26q29 56 83.5 83.5t140.5 27.5q97 0 156 -36.5t59 -112.5z" />
    <glyph glyph-name="agrave" unicode="&#xe0;" horiz-adv-x="537" 
d="M431 0h-131l19 116q-7 -16 -18 -35t-32 -41q-27 -28 -53 -38.5t-55 -10.5q-66 0 -97 46.5t-31 144.5q0 60 12.5 122t40.5 113t74 83t114 32q42 0 67 -11t38 -23l4 26h131zM362 410q-8 8 -22 14.5t-38 6.5q-32 0 -53.5 -13.5t-36.5 -35.5q-13 -18 -21.5 -42t-14 -49
t-7.5 -49t-2 -43q0 -31 4.5 -49t12 -27.5t16.5 -12.5t17 -3q19 0 35.5 10t35.5 35q21 28 34 58.5t17 53.5zM399 583l-198 113l52 86l186 -135z" />
    <glyph glyph-name="aacute" unicode="&#xe1;" horiz-adv-x="537" 
d="M269 583l-39 64l186 135l51 -86zM431 0h-131l19 116q-7 -16 -18 -35t-32 -41q-27 -28 -53 -38.5t-55 -10.5q-66 0 -97 46.5t-31 144.5q0 60 12.5 122t40.5 113t74 83t114 32q42 0 67 -11t38 -23l4 26h131zM362 410q-8 8 -22 14.5t-38 6.5q-32 0 -53.5 -13.5t-36.5 -35.5
q-13 -18 -21.5 -42t-14 -49t-7.5 -49t-2 -43q0 -31 4.5 -49t12 -27.5t16.5 -12.5t17 -3q19 0 35.5 10t35.5 35q21 28 34 58.5t17 53.5z" />
    <glyph glyph-name="acircumflex" unicode="&#xe2;" horiz-adv-x="537" 
d="M456 583l-110 92l-146 -92l-37 58l199 150l145 -150zM431 0h-131l19 116q-7 -16 -18 -35t-32 -41q-27 -28 -53 -38.5t-55 -10.5q-66 0 -97 46.5t-31 144.5q0 60 12.5 122t40.5 113t74 83t114 32q42 0 67 -11t38 -23l4 26h131zM362 410q-8 8 -22 14.5t-38 6.5
q-32 0 -53.5 -13.5t-36.5 -35.5q-13 -18 -21.5 -42t-14 -49t-7.5 -49t-2 -43q0 -31 4.5 -49t12 -27.5t16.5 -12.5t17 -3q19 0 35.5 10t35.5 35q21 28 34 58.5t17 53.5z" />
    <glyph glyph-name="atilde" unicode="&#xe3;" horiz-adv-x="537" 
d="M503 709q-8 -18 -19.5 -36.5t-26.5 -33.5t-33 -24.5t-40 -9.5t-49 13l-23 11q-13 6 -21 8t-14 2q-18 0 -32 -10.5t-22 -24.5l-47 34q10 18 22 36.5t27 32.5t33 23t38 9q10 0 21 -2.5t26 -10.5l23 -11q21 -10 35 -10q16 0 28 10t19 25l55 -31v0zM431 0h-131l19 116
q-7 -16 -18 -35t-32 -41q-27 -28 -53 -38.5t-55 -10.5q-66 0 -97 46.5t-31 144.5q0 60 12.5 122t40.5 113t74 83t114 32q42 0 67 -11t38 -23l4 26h131zM362 410q-8 8 -22 14.5t-38 6.5q-32 0 -53.5 -13.5t-36.5 -35.5q-13 -18 -21.5 -42t-14 -49t-7.5 -49t-2 -43
q0 -31 4.5 -49t12 -27.5t16.5 -12.5t17 -3q19 0 35.5 10t35.5 35q21 28 34 58.5t17 53.5z" />
    <glyph glyph-name="adieresis" unicode="&#xe4;" horiz-adv-x="537" 
d="M502 680q0 -31 -20 -50t-49 -19q-26 0 -42 15t-16 43q0 31 20 50t49 19q26 0 42 -15t16 -43zM293 680q0 -31 -20 -50t-49 -19q-26 0 -42 15t-16 43q0 31 20 50t49 19q26 0 42 -15t16 -43zM431 0h-131l19 116q-7 -16 -18 -35t-32 -41q-27 -28 -53 -38.5t-55 -10.5
q-66 0 -97 46.5t-31 144.5q0 60 12.5 122t40.5 113t74 83t114 32q42 0 67 -11t38 -23l4 26h131zM362 410q-8 8 -22 14.5t-38 6.5q-32 0 -53.5 -13.5t-36.5 -35.5q-13 -18 -21.5 -42t-14 -49t-7.5 -49t-2 -43q0 -31 4.5 -49t12 -27.5t16.5 -12.5t17 -3q19 0 35.5 10t35.5 35
q21 28 34 58.5t17 53.5z" />
    <glyph glyph-name="aring" unicode="&#xe5;" horiz-adv-x="537" 
d="M444 691q0 -29 -10 -53.5t-27 -41.5t-41 -26.5t-51 -9.5q-48 0 -79.5 28.5t-31.5 81.5q0 29 10 53t27.5 41t41.5 26.5t53 9.5q50 0 79 -29t29 -80zM379 687q0 29 -15 41t-35 12q-28 0 -44 -19t-16 -48t15 -41.5t35 -12.5q28 0 44 19.5t16 48.5zM431 0h-131l19 116
q-7 -16 -18 -35t-32 -41q-27 -28 -53 -38.5t-55 -10.5q-66 0 -97 46.5t-31 144.5q0 60 12.5 122t40.5 113t74 83t114 32q42 0 67 -11t38 -23l4 26h131zM362 410q-8 8 -22 14.5t-38 6.5q-32 0 -53.5 -13.5t-36.5 -35.5q-13 -18 -21.5 -42t-14 -49t-7.5 -49t-2 -43
q0 -31 4.5 -49t12 -27.5t16.5 -12.5t17 -3q19 0 35.5 10t35.5 35q21 28 34 58.5t17 53.5z" />
    <glyph glyph-name="ae" unicode="&#xe6;" horiz-adv-x="784" 
d="M776 394q0 -56 -26.5 -94t-74.5 -58q-32 -14 -80.5 -22t-116.5 -8h-8q0 -2 -0.5 -4t-0.5 -12q0 -21 4.5 -40t17.5 -33t34.5 -22t56.5 -8q51 0 85 14.5t51 28.5l-22 -114q-23 -14 -62 -22.5t-84 -8.5q-47 0 -80.5 9.5t-56 24.5t-35.5 34t-18 38q-8 -12 -23 -29t-37 -35
q-21 -17 -48.5 -29.5t-71.5 -12.5q-45 0 -73.5 14t-45 39.5t-22.5 60.5t-6 76q0 61 12.5 123.5t40.5 113t74 82.5t114 32q42 0 67 -11t38 -23l4 26h117l-5 -28q14 11 44 23t78 12q18 0 45 -3.5t52.5 -17.5t43.5 -41.5t18 -74.5zM648 392q0 54 -55 54q-26 0 -48 -12.5
t-38 -40.5q-9 -16 -17.5 -40.5t-11.5 -51.5h7q34 0 63.5 4t51.5 14t35 27.5t13 45.5zM362 410q-8 8 -22 14.5t-38 6.5q-32 0 -53.5 -13.5t-36.5 -35.5q-13 -18 -21.5 -42t-14 -49t-7.5 -49t-2 -43q0 -31 5 -49.5t12.5 -28t16 -12t16.5 -2.5q24 0 43 14t36 34q14 17 25 35.5
t13 35.5z" />
    <glyph glyph-name="ccedilla" unicode="&#xe7;" horiz-adv-x="428" 
d="M418 389q-12 14 -38 27t-65 13q-26 0 -50.5 -8t-44.5 -31q-28 -31 -39.5 -76.5t-11.5 -89.5q0 -60 24 -95.5t88 -35.5q42 0 66.5 13t37.5 25l-21 -110q-17 -11 -48.5 -20t-70.5 -10q-4 -11 -4 -22q0 -13 5 -19.5t14 -14.5t18 -21t9 -39q0 -37 -23 -65q-31 -37 -93 -37
q-22 0 -37.5 3.5t-24.5 8.5l7 69q6 -5 18.5 -11t29.5 -6q24 0 33.5 12t9.5 27q0 17 -7.5 24t-12.5 12q-8 7 -14 15t-6 25q0 12 3 22t9 23q-51 10 -80 35t-44 55t-19 62t-4 57q0 62 14.5 120.5t46 104.5t82.5 73.5t123 27.5q54 0 88.5 -13.5t48.5 -26.5z" />
    <glyph glyph-name="egrave" unicode="&#xe8;" horiz-adv-x="486" 
d="M478 394q0 -57 -27.5 -94.5t-73.5 -57.5q-32 -14 -80.5 -22t-116.5 -8h-8q0 -2 -0.5 -4t-0.5 -12q0 -21 4.5 -40t17.5 -33t34.5 -22t56.5 -8q51 0 85 14.5t51 28.5l-22 -114q-22 -13 -60.5 -22t-88.5 -9q-72 0 -115 20.5t-65.5 52t-29.5 69.5t-7 73q0 64 15.5 123
t49.5 104t86.5 72t127.5 27q57 0 90 -15t50.5 -36.5t22 -45t4.5 -41.5zM350 392q0 54 -55 54q-26 0 -48 -12.5t-38 -40.5q-9 -16 -17.5 -40.5t-11.5 -51.5h7q34 0 63.5 4t51.5 14t35 27.5t13 45.5zM381 583l-198 113l52 86l186 -135z" />
    <glyph glyph-name="eacute" unicode="&#xe9;" horiz-adv-x="486" 
d="M242 583l-39 64l186 135l51 -86zM478 394q0 -57 -27.5 -94.5t-73.5 -57.5q-32 -14 -80.5 -22t-116.5 -8h-8q0 -2 -0.5 -4t-0.5 -12q0 -21 4.5 -40t17.5 -33t34.5 -22t56.5 -8q51 0 85 14.5t51 28.5l-22 -114q-22 -13 -60.5 -22t-88.5 -9q-72 0 -115 20.5t-65.5 52
t-29.5 69.5t-7 73q0 64 15.5 123t49.5 104t86.5 72t127.5 27q57 0 90 -15t50.5 -36.5t22 -45t4.5 -41.5zM350 392q0 54 -55 54q-26 0 -48 -12.5t-38 -40.5q-9 -16 -17.5 -40.5t-11.5 -51.5h7q34 0 63.5 4t51.5 14t35 27.5t13 45.5z" />
    <glyph glyph-name="ecircumflex" unicode="&#xea;" horiz-adv-x="486" 
d="M434 583l-110 92l-146 -92l-37 58l199 150l145 -150zM478 394q0 -57 -27.5 -94.5t-73.5 -57.5q-32 -14 -80.5 -22t-116.5 -8h-8q0 -2 -0.5 -4t-0.5 -12q0 -21 4.5 -40t17.5 -33t34.5 -22t56.5 -8q51 0 85 14.5t51 28.5l-22 -114q-22 -13 -60.5 -22t-88.5 -9
q-72 0 -115 20.5t-65.5 52t-29.5 69.5t-7 73q0 64 15.5 123t49.5 104t86.5 72t127.5 27q57 0 90 -15t50.5 -36.5t22 -45t4.5 -41.5zM350 392q0 54 -55 54q-26 0 -48 -12.5t-38 -40.5q-9 -16 -17.5 -40.5t-11.5 -51.5h7q34 0 63.5 4t51.5 14t35 27.5t13 45.5z" />
    <glyph glyph-name="edieresis" unicode="&#xeb;" horiz-adv-x="486" 
d="M482 680q0 -31 -20 -50t-49 -19q-26 0 -42 15t-16 43q0 31 20 50t49 19q26 0 42 -15t16 -43zM273 680q0 -31 -20 -50t-49 -19q-26 0 -42 15t-16 43q0 31 20 50t49 19q26 0 42 -15t16 -43zM478 394q0 -57 -27.5 -94.5t-73.5 -57.5q-32 -14 -80.5 -22t-116.5 -8h-8
q0 -2 -0.5 -4t-0.5 -12q0 -21 4.5 -40t17.5 -33t34.5 -22t56.5 -8q51 0 85 14.5t51 28.5l-22 -114q-22 -13 -60.5 -22t-88.5 -9q-72 0 -115 20.5t-65.5 52t-29.5 69.5t-7 73q0 64 15.5 123t49.5 104t86.5 72t127.5 27q57 0 90 -15t50.5 -36.5t22 -45t4.5 -41.5zM350 392
q0 54 -55 54q-26 0 -48 -12.5t-38 -40.5q-9 -16 -17.5 -40.5t-11.5 -51.5h7q34 0 63.5 4t51.5 14t35 27.5t13 45.5z" />
    <glyph glyph-name="igrave" unicode="&#xec;" horiz-adv-x="261" 
d="M157 0h-134l83 524h134zM265 583l-198 113l52 86l186 -135z" />
    <glyph glyph-name="iacute" unicode="&#xed;" horiz-adv-x="261" 
d="M157 0h-134l83 524h134zM98 583l-39 64l186 135l51 -86z" />
    <glyph glyph-name="icircumflex" unicode="&#xee;" horiz-adv-x="261" 
d="M311 583l-110 92l-146 -92l-37 58l199 150l145 -150zM157 0h-134l83 524h134z" />
    <glyph glyph-name="idieresis" unicode="&#xef;" horiz-adv-x="261" 
d="M157 0h-134l83 524h134zM362 680q0 -31 -20 -50t-49 -19q-26 0 -42 15t-16 43q0 31 20 50t49 19q26 0 42 -15t16 -43zM153 680q0 -31 -20 -50t-49 -19q-26 0 -42 15t-16 43q0 31 20 50t49 19q26 0 42 -15t16 -43z" />
    <glyph glyph-name="eth" unicode="&#xf0;" horiz-adv-x="519" 
d="M470 672q20 -36 28 -81.5t8 -96.5q0 -38 -4 -81t-10.5 -85.5t-15.5 -82t-19 -70.5q-30 -92 -82.5 -138.5t-144.5 -46.5q-101 0 -149.5 55.5t-48.5 164.5q0 55 13 112t41 103t72.5 75t107.5 29q42 0 69 -12t39 -26q1 10 1.5 20t0.5 23q0 12 -1.5 31.5t-8.5 38.5l-64 -41
l-35 56l56 36q-14 8 -33 12.5t-46 4.5q-49 0 -85 -14t-53 -32l15 110q22 15 63 24.5t91 9.5q54 0 90.5 -12t62.5 -34l71 46l35 -56zM363 394q-12 18 -33 26.5t-42 8.5q-41 0 -65 -27.5t-36 -64.5t-15 -75t-3 -60q0 -20 2.5 -40t10 -36t22 -25.5t38.5 -9.5q20 0 37 9.5
t31.5 40t27 87t23.5 149.5z" />
    <glyph glyph-name="ntilde" unicode="&#xf1;" 
d="M505 709q-8 -18 -19.5 -36.5t-26.5 -33.5t-33 -24.5t-40 -9.5t-49 13l-23 11q-13 6 -21 8t-14 2q-18 0 -32 -10.5t-22 -24.5l-47 34q10 18 22 36.5t27 32.5t33 23t38 9q10 0 21 -2.5t26 -10.5l23 -11q21 -10 35 -10q16 0 28 10t19 25l55 -31v0zM511 417q0 -23 -3 -50.5
t-6 -45.5l-51 -321h-134l44 278q1 5 2.5 15t3 21.5t2.5 23.5t1 22q0 21 -8 33.5t-33 12.5q-26 0 -46 -14t-37 -35q-20 -25 -32.5 -53t-16.5 -51l-40 -253h-134l83 524h131l-18 -113q8 17 24 39.5t39 41.5q29 24 55.5 32t53.5 8q42 0 66 -12.5t36 -30.5t15 -37.5t3 -34.5z
" />
    <glyph glyph-name="ograve" unicode="&#xf2;" horiz-adv-x="520" 
d="M488 314q0 -18 -2.5 -49t-11 -67t-25 -73t-45 -67t-71 -49t-102.5 -19q-65 0 -104 22t-60 54.5t-28 70.5t-7 71q0 17 2.5 48t11 67t25 73.5t45.5 68t71.5 49.5t102.5 19q64 0 103 -22t60 -54.5t28 -71t7 -71.5zM351 315q0 59 -14.5 88t-56.5 29q-20 0 -36 -8t-30 -28
q-20 -29 -32.5 -77.5t-12.5 -110.5q0 -59 14.5 -88t56.5 -29q20 0 36 8t30 28q20 29 32.5 77.5t12.5 110.5zM386 583l-198 113l52 86l186 -135z" />
    <glyph glyph-name="oacute" unicode="&#xf3;" horiz-adv-x="520" 
d="M239 583l-39 64l186 135l51 -86zM488 314q0 -18 -2.5 -49t-11 -67t-25 -73t-45 -67t-71 -49t-102.5 -19q-65 0 -104 22t-60 54.5t-28 70.5t-7 71q0 17 2.5 48t11 67t25 73.5t45.5 68t71.5 49.5t102.5 19q64 0 103 -22t60 -54.5t28 -71t7 -71.5zM351 315q0 59 -14.5 88
t-56.5 29q-20 0 -36 -8t-30 -28q-20 -29 -32.5 -77.5t-12.5 -110.5q0 -59 14.5 -88t56.5 -29q20 0 36 8t30 28q20 29 32.5 77.5t12.5 110.5z" />
    <glyph glyph-name="ocircumflex" unicode="&#xf4;" horiz-adv-x="520" 
d="M428 583l-110 92l-146 -92l-37 58l199 150l145 -150zM488 314q0 -18 -2.5 -49t-11 -67t-25 -73t-45 -67t-71 -49t-102.5 -19q-65 0 -104 22t-60 54.5t-28 70.5t-7 71q0 17 2.5 48t11 67t25 73.5t45.5 68t71.5 49.5t102.5 19q64 0 103 -22t60 -54.5t28 -71t7 -71.5z
M351 315q0 59 -14.5 88t-56.5 29q-20 0 -36 -8t-30 -28q-20 -29 -32.5 -77.5t-12.5 -110.5q0 -59 14.5 -88t56.5 -29q20 0 36 8t30 28q20 29 32.5 77.5t12.5 110.5z" />
    <glyph glyph-name="otilde" unicode="&#xf5;" horiz-adv-x="520" 
d="M480 709q-8 -18 -19.5 -36.5t-26.5 -33.5t-33 -24.5t-40 -9.5t-49 13l-23 11q-13 6 -21 8t-14 2q-18 0 -32 -10.5t-22 -24.5l-47 34q10 18 22 36.5t27 32.5t33 23t38 9q10 0 21 -2.5t26 -10.5l23 -11q21 -10 35 -10q16 0 28 10t19 25l55 -31v0zM488 314q0 -18 -2.5 -49
t-11 -67t-25 -73t-45 -67t-71 -49t-102.5 -19q-65 0 -104 22t-60 54.5t-28 70.5t-7 71q0 17 2.5 48t11 67t25 73.5t45.5 68t71.5 49.5t102.5 19q64 0 103 -22t60 -54.5t28 -71t7 -71.5zM351 315q0 59 -14.5 88t-56.5 29q-20 0 -36 -8t-30 -28q-20 -29 -32.5 -77.5
t-12.5 -110.5q0 -59 14.5 -88t56.5 -29q20 0 36 8t30 28q20 29 32.5 77.5t12.5 110.5z" />
    <glyph glyph-name="odieresis" unicode="&#xf6;" horiz-adv-x="520" 
d="M485 680q0 -31 -20 -50t-49 -19q-26 0 -42 15t-16 43q0 31 20 50t49 19q26 0 42 -15t16 -43zM276 680q0 -31 -20 -50t-49 -19q-26 0 -42 15t-16 43q0 31 20 50t49 19q26 0 42 -15t16 -43zM488 314q0 -18 -2.5 -49t-11 -67t-25 -73t-45 -67t-71 -49t-102.5 -19
q-65 0 -104 22t-60 54.5t-28 70.5t-7 71q0 17 2.5 48t11 67t25 73.5t45.5 68t71.5 49.5t102.5 19q64 0 103 -22t60 -54.5t28 -71t7 -71.5zM351 315q0 59 -14.5 88t-56.5 29q-20 0 -36 -8t-30 -28q-20 -29 -32.5 -77.5t-12.5 -110.5q0 -59 14.5 -88t56.5 -29q20 0 36 8t30 28
q20 29 32.5 77.5t12.5 110.5z" />
    <glyph glyph-name="divide" unicode="&#xf7;" horiz-adv-x="640" 
d="M401 561q0 -33 -20.5 -52.5t-50.5 -19.5t-51 19t-21 53q0 32 19.5 51.5t51.5 19.5q31 0 51.5 -19t20.5 -52zM33 310v86h594v-86h-594zM401 146q0 -34 -20.5 -53t-50.5 -19t-51 19t-21 53q0 32 20 51.5t52 19.5q30 0 50.5 -18.5t20.5 -52.5z" />
    <glyph glyph-name="oslash" unicode="&#xf8;" horiz-adv-x="520" 
d="M446 467q26 -33 34 -73.5t8 -76.5q0 -18 -2.5 -49.5t-11 -68t-25 -73.5t-45 -67.5t-70.5 -49.5t-101 -19q-32 0 -57.5 5.5t-45.5 14.5l-38 -56h-82l67 97q-28 34 -36.5 76t-8.5 78q0 18 2.5 49.5t11 68t25 74t45 68t70.5 49.5t101 19q62 0 104 -22l33 48h85zM326 416
q-18 16 -47 16q-20 0 -35.5 -8t-29.5 -28q-20 -29 -32.5 -78t-12.5 -109v-22zM351 329l-155 -224q14 -14 44 -14q19 0 35.5 7.5t30.5 28.5q20 29 32.5 78t12.5 109v15z" />
    <glyph glyph-name="ugrave" unicode="&#xf9;" 
d="M445 0h-131l18 113q-8 -17 -24 -39.5t-39 -41.5q-29 -24 -55.5 -32t-53.5 -8q-42 0 -66 12.5t-36 30.5t-15 37.5t-3 34.5q0 23 3 50.5t6 45.5l51 321h134l-44 -278q-1 -5 -2.5 -15t-3 -21.5t-2.5 -23.5t-1 -22q0 -21 8 -33.5t33 -12.5q26 0 46 14t37 35q20 25 32.5 53
t16.5 51l40 253h134zM399 583l-198 113l52 86l186 -135z" />
    <glyph glyph-name="uacute" unicode="&#xfa;" 
d="M266 583l-39 64l186 135l51 -86zM445 0h-131l18 113q-8 -17 -24 -39.5t-39 -41.5q-29 -24 -55.5 -32t-53.5 -8q-42 0 -66 12.5t-36 30.5t-15 37.5t-3 34.5q0 23 3 50.5t6 45.5l51 321h134l-44 -278q-1 -5 -2.5 -15t-3 -21.5t-2.5 -23.5t-1 -22q0 -21 8 -33.5t33 -12.5
q26 0 46 14t37 35q20 25 32.5 53t16.5 51l40 253h134z" />
    <glyph glyph-name="ucircumflex" unicode="&#xfb;" 
d="M452 583l-110 92l-146 -92l-37 58l199 150l145 -150zM445 0h-131l18 113q-8 -17 -24 -39.5t-39 -41.5q-29 -24 -55.5 -32t-53.5 -8q-42 0 -66 12.5t-36 30.5t-15 37.5t-3 34.5q0 23 3 50.5t6 45.5l51 321h134l-44 -278q-1 -5 -2.5 -15t-3 -21.5t-2.5 -23.5t-1 -22
q0 -21 8 -33.5t33 -12.5q26 0 46 14t37 35q20 25 32.5 53t16.5 51l40 253h134z" />
    <glyph glyph-name="udieresis" unicode="&#xfc;" 
d="M501 680q0 -31 -20 -50t-49 -19q-26 0 -42 15t-16 43q0 31 20 50t49 19q26 0 42 -15t16 -43zM292 680q0 -31 -20 -50t-49 -19q-26 0 -42 15t-16 43q0 31 20 50t49 19q26 0 42 -15t16 -43zM445 0h-131l18 113q-8 -17 -24 -39.5t-39 -41.5q-29 -24 -55.5 -32t-53.5 -8
q-42 0 -66 12.5t-36 30.5t-15 37.5t-3 34.5q0 23 3 50.5t6 45.5l51 321h134l-44 -278q-1 -5 -2.5 -15t-3 -21.5t-2.5 -23.5t-1 -22q0 -21 8 -33.5t33 -12.5q26 0 46 14t37 35q20 25 32.5 53t16.5 51l40 253h134z" />
    <glyph glyph-name="yacute" unicode="&#xfd;" horiz-adv-x="458" 
d="M223 583l-39 64l186 135l51 -86zM218 -84q-14 -29 -35 -62.5t-51 -53.5q-25 -17 -54 -23.5t-62 -6.5q-35 0 -59 5.5t-35 10.5l17 101q8 -6 23.5 -12.5t42.5 -6.5q37 0 59.5 16.5t40.5 55.5l10 22l-85 562h135l36 -283q5 -33 6 -60t1 -42q6 20 15.5 45t17.5 45l126 295
h129z" />
    <glyph glyph-name="thorn" unicode="&#xfe;" horiz-adv-x="540" 
d="M508 344q0 -54 -11 -115.5t-38 -114t-74 -87.5t-119 -35q-42 0 -67 10.5t-38 21.5l-40 -254h-134l155 982l134 17l-57 -360q7 16 18.5 35.5t32.5 41.5q29 29 55.5 38t51.5 9q67 0 99 -44.5t32 -144.5zM374 322q0 40 -10 67.5t-43 27.5q-14 0 -31.5 -8.5t-40.5 -37.5
q-20 -26 -33 -56.5t-18 -57.5l-23 -143q6 -6 20.5 -13.5t40.5 -7.5q34 0 56.5 14.5t36.5 34.5q20 28 32.5 75t12.5 105z" />
    <glyph glyph-name="ydieresis" unicode="&#xff;" horiz-adv-x="458" 
d="M448 680q0 -31 -20 -50t-49 -19q-26 0 -42 15t-16 43q0 31 20 50t49 19q26 0 42 -15t16 -43zM239 680q0 -31 -20 -50t-49 -19q-26 0 -42 15t-16 43q0 31 20 50t49 19q26 0 42 -15t16 -43zM218 -84q-14 -29 -35 -62.5t-51 -53.5q-25 -17 -54 -23.5t-62 -6.5q-35 0 -59 5.5
t-35 10.5l17 101q8 -6 23.5 -12.5t42.5 -6.5q37 0 59.5 16.5t40.5 55.5l10 22l-85 562h135l36 -283q5 -33 6 -60t1 -42q6 20 15.5 45t17.5 45l126 295h129z" />
    <glyph glyph-name="Amacron" unicode="&#x100;" horiz-adv-x="577" 
d="M503 784h-279l15 98h280zM403 0l-23 211h-209l-89 -211h-134l321 704h185l90 -704h-141zM345 536q-2 21 -3.5 43.5t-1.5 40.5q-5 -17 -13 -38.5t-18 -44.5l-94 -223h154z" />
    <glyph glyph-name="amacron" unicode="&#x101;" horiz-adv-x="537" 
d="M503 619h-279l15 98h280zM431 0h-131l19 116q-7 -16 -18 -35t-32 -41q-27 -28 -53 -38.5t-55 -10.5q-66 0 -97 46.5t-31 144.5q0 60 12.5 122t40.5 113t74 83t114 32q42 0 67 -11t38 -23l4 26h131zM362 410q-8 8 -22 14.5t-38 6.5q-32 0 -53.5 -13.5t-36.5 -35.5
q-13 -18 -21.5 -42t-14 -49t-7.5 -49t-2 -43q0 -31 4.5 -49t12 -27.5t16.5 -12.5t17 -3q19 0 35.5 10t35.5 35q21 28 34 58.5t17 53.5z" />
    <glyph glyph-name="Abreve" unicode="&#x102;" horiz-adv-x="577" 
d="M546 880q-11 -22 -28 -43.5t-40 -39t-52.5 -28t-65.5 -10.5q-34 0 -60.5 10t-45.5 26.5t-31.5 37.5t-18.5 43l73 43q4 -13 11 -26.5t18 -24t25.5 -17t34.5 -6.5q37 0 65.5 22t44.5 52l70 -39v0zM403 0l-23 211h-209l-89 -211h-134l321 704h185l90 -704h-141zM345 536
q-2 21 -3.5 43.5t-1.5 40.5q-5 -17 -13 -38.5t-18 -44.5l-94 -223h154z" />
    <glyph glyph-name="abreve" unicode="&#x103;" horiz-adv-x="537" 
d="M526 716q-11 -22 -28 -43.5t-40 -39t-52.5 -28t-65.5 -10.5q-34 0 -60.5 10t-45.5 26.5t-31.5 37.5t-18.5 43l73 43q4 -13 11 -26.5t18 -24t25.5 -17t34.5 -6.5q37 0 65.5 22t44.5 52l70 -39v0zM431 0h-131l19 116q-7 -16 -18 -35t-32 -41q-27 -28 -53 -38.5t-55 -10.5
q-66 0 -97 46.5t-31 144.5q0 60 12.5 122t40.5 113t74 83t114 32q42 0 67 -11t38 -23l4 26h131zM362 410q-8 8 -22 14.5t-38 6.5q-32 0 -53.5 -13.5t-36.5 -35.5q-13 -18 -21.5 -42t-14 -49t-7.5 -49t-2 -43q0 -31 4.5 -49t12 -27.5t16.5 -12.5t17 -3q19 0 35.5 10t35.5 35
q21 28 34 58.5t17 53.5z" />
    <glyph glyph-name="Aogonek" unicode="&#x104;" horiz-adv-x="577" 
d="M544 0q-61 -7 -91.5 -35.5t-30.5 -62.5q0 -22 12 -32t32 -10q14 0 29 4.5t26 12.5l-16 -81q-15 -8 -37 -12t-43 -4q-54 0 -76.5 26.5t-22.5 66.5q0 46 23.5 75.5t53.5 51.5l-23 211h-209l-89 -211h-134l321 704h185zM345 536q-3 28 -4 51t-1 32q-2 -4 -9.5 -26.5
t-21.5 -55.5l-94 -223h154z" />
    <glyph glyph-name="aogonek" unicode="&#x105;" horiz-adv-x="537" 
d="M431 0q-23 -3 -44.5 -11t-38.5 -20.5t-27 -29.5t-10 -37q0 -19 10.5 -30.5t33.5 -11.5q15 0 29.5 4.5t25.5 12.5l-16 -81q-14 -8 -36 -12t-43 -4q-54 0 -77 26t-23 66q0 25 8 45.5t20.5 36.5t27.5 28.5t30 22.5l18 111q-7 -16 -18 -35t-32 -41q-27 -28 -53 -38.5
t-55 -10.5q-66 0 -97 46.5t-31 144.5q0 60 12.5 122t40.5 113t74 83t114 32q42 0 67 -11t38 -23l4 26h131zM362 410q-8 8 -22 14.5t-38 6.5q-32 0 -53.5 -13.5t-36.5 -35.5q-13 -18 -21.5 -42t-14 -49t-7.5 -49t-2 -43q0 -31 4.5 -49t12 -27.5t16.5 -12.5t17 -3
q19 0 35.5 10t35.5 35q21 28 34 58.5t17 53.5z" />
    <glyph glyph-name="Cacute" unicode="&#x106;" 
d="M357 748l-39 64l186 135l51 -86zM562 544q-25 30 -68.5 44t-87.5 14q-70 0 -112.5 -31.5t-65.5 -78t-30.5 -99.5t-7.5 -97q0 -34 5 -69t21.5 -63.5t48 -46.5t85.5 -18q57 0 96.5 18.5t62.5 40.5l-26 -127q-21 -14 -64.5 -28t-107.5 -14q-74 0 -124 22t-80.5 61t-43.5 92
t-13 116q0 94 23.5 171t60.5 131q28 41 60.5 66.5t67 39.5t69.5 19t67 5q75 0 118.5 -17t64.5 -34z" />
    <glyph glyph-name="cacute" unicode="&#x107;" horiz-adv-x="428" 
d="M418 724l-117 -164l-62 40l99 178zM418 389q-12 14 -38 27t-65 13q-26 0 -50.5 -8t-44.5 -31q-28 -31 -39.5 -76.5t-11.5 -89.5q0 -60 24 -95.5t88 -35.5q42 0 66.5 13t37.5 25l-21 -110q-16 -10 -45.5 -20t-79.5 -10q-71 0 -112 22.5t-62 56t-27 71.5t-6 68
q0 60 14.5 118t46 103.5t82.5 73.5t123 28q54 0 88.5 -13.5t48.5 -26.5z" />
    <glyph glyph-name="Ccircumflex" unicode="&#x108;" 
d="M547 748l-110 92l-146 -92l-37 58l199 150l145 -150zM562 544q-25 30 -68.5 44t-87.5 14q-70 0 -112.5 -31.5t-65.5 -78t-30.5 -99.5t-7.5 -97q0 -34 5 -69t21.5 -63.5t48 -46.5t85.5 -18q57 0 96.5 18.5t62.5 40.5l-26 -127q-21 -14 -64.5 -28t-107.5 -14q-74 0 -124 22
t-80.5 61t-43.5 92t-13 116q0 94 23.5 171t60.5 131q28 41 60.5 66.5t67 39.5t69.5 19t67 5q75 0 118.5 -17t64.5 -34z" />
    <glyph glyph-name="ccircumflex" unicode="&#x109;" horiz-adv-x="428" 
d="M447 583l-110 92l-146 -92l-37 58l199 150l145 -150zM418 389q-12 14 -38 27t-65 13q-26 0 -50.5 -8t-44.5 -31q-28 -31 -39.5 -76.5t-11.5 -89.5q0 -60 24 -95.5t88 -35.5q42 0 66.5 13t37.5 25l-21 -110q-16 -10 -45.5 -20t-79.5 -10q-71 0 -112 22.5t-62 56t-27 71.5
t-6 68q0 60 14.5 118t46 103.5t82.5 73.5t123 28q54 0 88.5 -13.5t48.5 -26.5z" />
    <glyph glyph-name="Cdotaccent" unicode="&#x10a;" 
d="M496 849q0 -34 -21 -57.5t-58 -23.5q-32 0 -50.5 19t-18.5 53q0 35 21 58.5t56 23.5q32 0 51.5 -19.5t19.5 -53.5zM562 544q-25 30 -68.5 44t-87.5 14q-70 0 -112.5 -31.5t-65.5 -78t-30.5 -99.5t-7.5 -97q0 -34 5 -69t21.5 -63.5t48 -46.5t85.5 -18q57 0 96.5 18.5
t62.5 40.5l-26 -127q-21 -14 -64.5 -28t-107.5 -14q-74 0 -124 22t-80.5 61t-43.5 92t-13 116q0 94 23.5 171t60.5 131q28 41 60.5 66.5t67 39.5t69.5 19t67 5q75 0 118.5 -17t64.5 -34z" />
    <glyph glyph-name="cdotaccent" unicode="&#x10b;" horiz-adv-x="428" 
d="M403 678q0 -34 -21 -57.5t-58 -23.5q-32 0 -50.5 19t-18.5 53q0 35 21 58.5t56 23.5q32 0 51.5 -19.5t19.5 -53.5zM418 389q-12 14 -38 27t-65 13q-26 0 -50.5 -8t-44.5 -31q-28 -31 -39.5 -76.5t-11.5 -89.5q0 -60 24 -95.5t88 -35.5q42 0 66.5 13t37.5 25l-21 -110
q-16 -10 -45.5 -20t-79.5 -10q-71 0 -112 22.5t-62 56t-27 71.5t-6 68q0 60 14.5 118t46 103.5t82.5 73.5t123 28q54 0 88.5 -13.5t48.5 -26.5z" />
    <glyph glyph-name="Ccaron" unicode="&#x10c;" 
d="M392 748l-145 136l63 66l104 -93l128 93l45 -57zM562 544q-25 30 -68.5 44t-87.5 14q-70 0 -112.5 -31.5t-65.5 -78t-30.5 -99.5t-7.5 -97q0 -34 5 -69t21.5 -63.5t48 -46.5t85.5 -18q57 0 96.5 18.5t62.5 40.5l-26 -127q-21 -14 -64.5 -28t-107.5 -14q-74 0 -124 22
t-80.5 61t-43.5 92t-13 116q0 94 23.5 171t60.5 131q28 41 60.5 66.5t67 39.5t69.5 19t67 5q75 0 118.5 -17t64.5 -34z" />
    <glyph glyph-name="ccaron" unicode="&#x10d;" horiz-adv-x="428" 
d="M300 583l-145 136l63 66l104 -93l128 93l45 -57zM418 389q-12 14 -38 27t-65 13q-26 0 -50.5 -8t-44.5 -31q-28 -31 -39.5 -76.5t-11.5 -89.5q0 -60 24 -95.5t88 -35.5q42 0 66.5 13t37.5 25l-21 -110q-16 -10 -45.5 -20t-79.5 -10q-71 0 -112 22.5t-62 56t-27 71.5
t-6 68q0 60 14.5 118t46 103.5t82.5 73.5t123 28q54 0 88.5 -13.5t48.5 -26.5z" />
    <glyph glyph-name="Dcaron" unicode="&#x10e;" horiz-adv-x="640" 
d="M309 748l-145 136l63 66l104 -93l128 93l45 -57zM620 419q0 -97 -29.5 -184.5t-94.5 -147.5q-32 -30 -68 -47t-76 -26t-83 -11.5t-90 -2.5h-156l111 703h155q53 0 92.5 -3t69.5 -11t53 -21.5t43 -33.5q40 -40 56.5 -92.5t16.5 -122.5zM482 412q0 67 -14.5 103.5
t-40.5 54.5q-17 12 -43.5 17.5t-69.5 5.5h-60l-77 -483h79q68 0 112 28.5t69.5 72.5t35 97.5t9.5 103.5z" />
    <glyph glyph-name="dcaron" unicode="&#x10f;" horiz-adv-x="539" 
d="M744 793q-9 -51 -21 -87q-9 -30 -18.5 -51.5t-14.5 -28.5l-5 -7h-73q27 93 27 168v6h105zM435 0h-131l18 115q-7 -16 -18.5 -35.5t-32.5 -41.5q-29 -29 -55.5 -38t-51.5 -9q-67 0 -99 44.5t-32 144.5q0 54 11 115.5t38 114t74 87.5t119 35q42 0 67 -10.5t38 -21.5l40 252
l137 18zM366 410q-6 6 -20.5 13.5t-40.5 7.5q-34 0 -56.5 -14.5t-36.5 -34.5q-20 -28 -32.5 -75t-12.5 -105q0 -40 10 -67.5t43 -27.5q14 0 31.5 8.5t40.5 37.5q20 26 33 56.5t18 57.5z" />
    <glyph glyph-name="Dcroat" unicode="&#x110;" horiz-adv-x="640" 
d="M620 419q0 -97 -29.5 -184.5t-94.5 -147.5q-32 -30 -68 -47t-76 -26t-83 -11.5t-90 -2.5h-156l49 311h-62l14 93h62l48 299h155q53 0 92.5 -3t69.5 -11t53 -21.5t43 -33.5q40 -40 56.5 -92.5t16.5 -122.5zM482 412q0 67 -14.5 103.5t-40.5 54.5q-17 12 -43.5 17.5
t-69.5 5.5h-60l-30 -189h144l-19 -93h-140l-32 -201h79q68 0 112 28.5t69.5 72.5t35 97.5t9.5 103.5z" />
    <glyph glyph-name="dcroat" unicode="&#x111;" horiz-adv-x="539" 
d="M541 673h70l-15 -98h-70l-91 -575h-131l18 114l-13 -26t-38 -50q-29 -29 -55.5 -38t-51.5 -9q-67 0 -99 44.5t-32 144.5q0 54 11 115.5t38 114t74 87.5t119 35q42 0 67 -10.5t38 -21.5l12 75h-105l16 98h104l13 79l137 18zM366 410q-6 6 -20.5 13.5t-40.5 7.5
q-34 0 -56.5 -14.5t-36.5 -34.5q-20 -28 -32.5 -75t-12.5 -105q0 -40 10 -67.5t43 -27.5q14 0 31.5 8.5t40.5 37.5q20 26 33 56.5t18 57.5z" />
    <glyph glyph-name="Emacron" unicode="&#x112;" horiz-adv-x="458" 
d="M464 784h-279l15 98h280zM470 590h-217l-28 -177h177l-18 -113h-177l-30 -189h235l-23 -111h-366l111 703h354z" />
    <glyph glyph-name="emacron" unicode="&#x113;" horiz-adv-x="486" 
d="M478 619h-279l15 98h280zM478 394q0 -57 -27.5 -94.5t-73.5 -57.5q-32 -14 -80.5 -22t-116.5 -8h-8q0 -2 -0.5 -4t-0.5 -12q0 -21 4.5 -40t17.5 -33t34.5 -22t56.5 -8q51 0 85 14.5t51 28.5l-22 -114q-22 -13 -60.5 -22t-88.5 -9q-72 0 -115 20.5t-65.5 52t-29.5 69.5
t-7 73q0 64 15.5 123t49.5 104t86.5 72t127.5 27q57 0 90 -15t50.5 -36.5t22 -45t4.5 -41.5zM350 392q0 54 -55 54q-26 0 -48 -12.5t-38 -40.5q-9 -16 -17.5 -40.5t-11.5 -51.5h7q34 0 63.5 4t51.5 14t35 27.5t13 45.5z" />
    <glyph glyph-name="Edotaccent" unicode="&#x116;" horiz-adv-x="458" 
d="M407 849q0 -34 -21 -57.5t-58 -23.5q-32 0 -50.5 19t-18.5 53q0 35 21 58.5t56 23.5q32 0 51.5 -19.5t19.5 -53.5zM470 590h-217l-28 -177h177l-18 -113h-177l-30 -189h235l-23 -111h-366l111 703h354z" />
    <glyph glyph-name="edotaccent" unicode="&#x117;" horiz-adv-x="486" 
d="M406 678q0 -34 -21 -57.5t-58 -23.5q-32 0 -50.5 19t-18.5 53q0 35 21 58.5t56 23.5q32 0 51.5 -19.5t19.5 -53.5zM478 394q0 -57 -27.5 -94.5t-73.5 -57.5q-32 -14 -80.5 -22t-116.5 -8h-8q0 -2 -0.5 -4t-0.5 -12q0 -21 4.5 -40t17.5 -33t34.5 -22t56.5 -8q51 0 85 14.5
t51 28.5l-22 -114q-22 -13 -60.5 -22t-88.5 -9q-72 0 -115 20.5t-65.5 52t-29.5 69.5t-7 73q0 64 15.5 123t49.5 104t86.5 72t127.5 27q57 0 90 -15t50.5 -36.5t22 -45t4.5 -41.5zM350 392q0 54 -55 54q-26 0 -48 -12.5t-38 -40.5q-9 -16 -17.5 -40.5t-11.5 -51.5h7
q34 0 63.5 4t51.5 14t35 27.5t13 45.5z" />
    <glyph glyph-name="Eogonek" unicode="&#x118;" horiz-adv-x="458" 
d="M470 590h-217l-28 -177h177l-18 -113h-177l-30 -189h235l-23 -111q-58 -7 -88.5 -35.5t-30.5 -62.5q0 -22 12 -32t32 -10q14 0 29.5 4.5t25.5 12.5l-16 -81q-15 -8 -37 -12t-43 -4q-54 0 -76.5 26.5t-22.5 66.5q0 46 23.5 75.5t53.5 51.5h-228l111 703h354z" />
    <glyph glyph-name="eogonek" unicode="&#x119;" horiz-adv-x="486" 
d="M478 394q0 -57 -27.5 -94.5t-73.5 -57.5q-32 -14 -80.5 -22t-116.5 -8h-8q0 -2 -0.5 -4t-0.5 -12q0 -21 4.5 -40t17.5 -33t34.5 -22t56.5 -8q51 0 85 14.5t51 28.5l-22 -114q-1 0 -2 -1q-2 -2 -3 -2q-21 -11 -41 -23t-36 -26t-26 -31t-10 -37q0 -22 12 -32t32 -10
q14 0 29 4.5t26 12.5l-16 -81q-15 -8 -37 -12t-43 -4q-54 0 -76.5 26.5t-22.5 67.5q0 42 19.5 69t45.5 48q-72 0 -115 20.5t-65.5 52.5t-29.5 70t-7 73q0 63 15.5 122t49.5 104t86.5 72t127.5 27q57 0 90 -15t50.5 -36.5t22 -45t4.5 -41.5zM350 392q0 54 -55 54
q-26 0 -48 -12.5t-38 -40.5q-9 -16 -17.5 -40.5t-11.5 -51.5h7q34 0 63.5 4t51.5 14t35 27.5t13 45.5z" />
    <glyph glyph-name="Ecaron" unicode="&#x11a;" horiz-adv-x="458" 
d="M316 748l-145 136l63 66l104 -93l128 93l45 -57zM470 590h-217l-28 -177h177l-18 -113h-177l-30 -189h235l-23 -111h-366l111 703h354z" />
    <glyph glyph-name="ecaron" unicode="&#x11b;" horiz-adv-x="486" 
d="M310 583l-145 136l63 66l104 -93l128 93l45 -57zM478 394q0 -57 -27.5 -94.5t-73.5 -57.5q-32 -14 -80.5 -22t-116.5 -8h-8q0 -2 -0.5 -4t-0.5 -12q0 -21 4.5 -40t17.5 -33t34.5 -22t56.5 -8q51 0 85 14.5t51 28.5l-22 -114q-22 -13 -60.5 -22t-88.5 -9q-72 0 -115 20.5
t-65.5 52t-29.5 69.5t-7 73q0 64 15.5 123t49.5 104t86.5 72t127.5 27q57 0 90 -15t50.5 -36.5t22 -45t4.5 -41.5zM350 392q0 54 -55 54q-26 0 -48 -12.5t-38 -40.5q-9 -16 -17.5 -40.5t-11.5 -51.5h7q34 0 63.5 4t51.5 14t35 27.5t13 45.5z" />
    <glyph glyph-name="Gcircumflex" unicode="&#x11c;" horiz-adv-x="616" 
d="M568 748l-110 92l-146 -92l-37 58l199 150l145 -150zM602 544q-28 29 -75 43.5t-98 14.5q-55 0 -94 -15.5t-65.5 -40.5t-42 -57t-24 -65.5t-11 -65.5t-2.5 -57q0 -35 5 -71.5t21.5 -66.5t48 -49t85.5 -19q14 0 27.5 1t17.5 3l34 212h136l-44 -281q-28 -15 -74.5 -28
t-112.5 -13q-81 0 -135.5 22.5t-87.5 62.5t-47 94t-14 117q0 92 24 168.5t62 128.5q30 41 65.5 66.5t73 39.5t75 19t72.5 5q78 0 126 -16.5t72 -34.5z" />
    <glyph glyph-name="gcircumflex" unicode="&#x11d;" horiz-adv-x="541" 
d="M450 583l-110 92l-146 -92l-37 58l199 150l145 -150zM437 9q-10 -62 -23 -101t-40 -70q-32 -36 -76.5 -52t-109.5 -16q-62 0 -110.5 12t-74.5 29l18 113q15 -17 49 -34.5t90 -17.5q42 0 67.5 11t42.5 31q18 22 25.5 50.5t12.5 59.5l7 40q3 19 4.5 27.5t2.5 12.5t1 6.5
t2 10.5q-8 -18 -22 -40t-32 -40q-29 -29 -55.5 -38t-51.5 -9q-66 0 -98.5 44t-32.5 143q0 53 11 114.5t38 114t74 87.5t119 35q45 0 71 -11.5t37 -22.5l4 26h131zM367 416q-20 15 -60 15q-34 0 -57 -13.5t-38 -35.5q-18 -26 -31.5 -71.5t-13.5 -105.5q0 -40 10 -67.5
t43 -27.5q12 0 30.5 8t41.5 38q19 24 32.5 53.5t18.5 57.5z" />
    <glyph glyph-name="Gbreve" unicode="&#x11e;" horiz-adv-x="616" 
d="M614 880q-11 -22 -28 -43.5t-40 -39t-52.5 -28t-65.5 -10.5q-34 0 -60.5 10t-45.5 26.5t-31.5 37.5t-18.5 43l73 43q4 -13 11 -26.5t18 -24t25.5 -17t34.5 -6.5q37 0 65.5 22t44.5 52l70 -39v0zM602 544q-28 29 -75 43.5t-98 14.5q-55 0 -94 -15.5t-65.5 -40.5t-42 -57
t-24 -65.5t-11 -65.5t-2.5 -57q0 -35 5 -71.5t21.5 -66.5t48 -49t85.5 -19q14 0 27.5 1t17.5 3l34 212h136l-44 -281q-28 -15 -74.5 -28t-112.5 -13q-81 0 -135.5 22.5t-87.5 62.5t-47 94t-14 117q0 92 24 168.5t62 128.5q30 41 65.5 66.5t73 39.5t75 19t72.5 5
q78 0 126 -16.5t72 -34.5z" />
    <glyph glyph-name="gbreve" unicode="&#x11f;" horiz-adv-x="541" 
d="M524 716q-11 -22 -28 -43.5t-40 -39t-52.5 -28t-65.5 -10.5q-34 0 -60.5 10t-45.5 26.5t-31.5 37.5t-18.5 43l73 43q4 -13 11 -26.5t18 -24t25.5 -17t34.5 -6.5q37 0 65.5 22t44.5 52l70 -39v0zM437 9q-10 -62 -23 -101t-40 -70q-32 -36 -76.5 -52t-109.5 -16
q-62 0 -110.5 12t-74.5 29l18 113q15 -17 49 -34.5t90 -17.5q42 0 67.5 11t42.5 31q18 22 25.5 50.5t12.5 59.5l7 40q3 19 4.5 27.5t2.5 12.5t1 6.5t2 10.5q-8 -18 -22 -40t-32 -40q-29 -29 -55.5 -38t-51.5 -9q-66 0 -98.5 44t-32.5 143q0 53 11 114.5t38 114t74 87.5
t119 35q45 0 71 -11.5t37 -22.5l4 26h131zM367 416q-20 15 -60 15q-34 0 -57 -13.5t-38 -35.5q-18 -26 -31.5 -71.5t-13.5 -105.5q0 -40 10 -67.5t43 -27.5q12 0 30.5 8t41.5 38q19 24 32.5 53.5t18.5 57.5z" />
    <glyph glyph-name="Gdotaccent" unicode="&#x120;" horiz-adv-x="616" 
d="M515 849q0 -34 -21 -57.5t-58 -23.5q-32 0 -50.5 19t-18.5 53q0 35 21 58.5t56 23.5q32 0 51.5 -19.5t19.5 -53.5zM602 544q-28 29 -75 43.5t-98 14.5q-55 0 -94 -15.5t-65.5 -40.5t-42 -57t-24 -65.5t-11 -65.5t-2.5 -57q0 -35 5 -71.5t21.5 -66.5t48 -49t85.5 -19
q14 0 27.5 1t17.5 3l34 212h136l-44 -281q-28 -15 -74.5 -28t-112.5 -13q-81 0 -135.5 22.5t-87.5 62.5t-47 94t-14 117q0 92 24 168.5t62 128.5q30 41 65.5 66.5t73 39.5t75 19t72.5 5q78 0 126 -16.5t72 -34.5z" />
    <glyph glyph-name="gdotaccent" unicode="&#x121;" horiz-adv-x="541" 
d="M403 678q0 -34 -21 -57.5t-58 -23.5q-32 0 -50.5 19t-18.5 53q0 35 21 58.5t56 23.5q32 0 51.5 -19.5t19.5 -53.5zM437 9q-10 -62 -23 -101t-40 -70q-32 -36 -76.5 -52t-109.5 -16q-62 0 -110.5 12t-74.5 29l18 113q15 -17 49 -34.5t90 -17.5q42 0 67.5 11t42.5 31
q18 22 25.5 50.5t12.5 59.5l7 40q3 19 4.5 27.5t2.5 12.5t1 6.5t2 10.5q-8 -18 -22 -40t-32 -40q-29 -29 -55.5 -38t-51.5 -9q-66 0 -98.5 44t-32.5 143q0 53 11 114.5t38 114t74 87.5t119 35q45 0 71 -11.5t37 -22.5l4 26h131zM367 416q-20 15 -60 15q-34 0 -57 -13.5
t-38 -35.5q-18 -26 -31.5 -71.5t-13.5 -105.5q0 -40 10 -67.5t43 -27.5q12 0 30.5 8t41.5 38q19 24 32.5 53.5t18.5 57.5z" />
    <glyph glyph-name="uni0122" unicode="&#x122;" horiz-adv-x="616" 
d="M371 -55q-9 -51 -21 -87q-9 -30 -18.5 -51.5t-14.5 -28.5l-5 -7h-73q27 93 27 168v6h105zM602 544q-28 29 -75 43.5t-98 14.5q-55 0 -94 -15.5t-65.5 -40.5t-42 -57t-24 -65.5t-11 -65.5t-2.5 -57q0 -35 5 -71.5t21.5 -66.5t48 -49t85.5 -19q14 0 27.5 1t17.5 3l34 212
h136l-44 -281q-28 -15 -74.5 -28t-112.5 -13q-81 0 -135.5 22.5t-87.5 62.5t-47 94t-14 117q0 92 24 168.5t62 128.5q30 41 65.5 66.5t73 39.5t75 19t72.5 5q78 0 126 -16.5t72 -34.5z" />
    <glyph glyph-name="uni0123" unicode="&#x123;" horiz-adv-x="541" 
d="M392 757q-27 -93 -27 -168v-6h-105q9 51 21 87q9 30 18.5 51.5t14.5 28.5l5 7h73zM437 9q-10 -62 -23 -101t-40 -70q-32 -36 -76.5 -52t-109.5 -16q-62 0 -110.5 12t-74.5 29l18 113q15 -17 49 -34.5t90 -17.5q42 0 67.5 11t42.5 31q18 22 25.5 50.5t12.5 59.5l7 40
q3 19 4.5 27.5t2.5 12.5t1 6.5t2 10.5q-8 -18 -22 -40t-32 -40q-29 -29 -55.5 -38t-51.5 -9q-66 0 -98.5 44t-32.5 143q0 53 11 114.5t38 114t74 87.5t119 35q45 0 71 -11.5t37 -22.5l4 26h131zM367 416q-20 15 -60 15q-34 0 -57 -13.5t-38 -35.5q-18 -26 -31.5 -71.5
t-13.5 -105.5q0 -40 10 -67.5t43 -27.5q12 0 30.5 8t41.5 38q19 24 32.5 53.5t18.5 57.5z" />
    <glyph glyph-name="Hcircumflex" unicode="&#x124;" horiz-adv-x="623" 
d="M521 748l-110 92l-146 -92l-37 58l199 150l145 -150zM519 0h-137l47 298h-222l-47 -298h-137l111 703h137l-45 -290h222l45 290h137z" />
    <glyph glyph-name="hcircumflex" unicode="&#x125;" 
d="M343 748l-110 92l-146 -92l-37 58l199 150l145 -150zM511 417q0 -23 -3 -50.5t-6 -45.5l-51 -321h-134l44 278q1 5 2.5 15t3 21.5t2.5 23.5t1 22q0 21 -8 33.5t-33 12.5q-26 0 -46 -14t-37 -35q-20 -25 -32.5 -53t-16.5 -51l-40 -253h-134l119 752l137 18l-40 -253
q-6 -39 -11.5 -65.5t-9.5 -40.5q9 17 24.5 39t39.5 42q29 24 55.5 32t53.5 8q42 0 66 -12.5t36 -30.5t15 -37.5t3 -34.5z" />
    <glyph glyph-name="Hbar" unicode="&#x126;" horiz-adv-x="623" 
d="M519 0h-137l47 298h-222l-47 -298h-137l111 703h137l-14 -86h222l14 86h137zM448 413l14 89h-222l-14 -89h222z" />
    <glyph glyph-name="hbar" unicode="&#x127;" 
d="M511 417q0 -23 -3 -50.5t-6 -45.5l-51 -321h-134l44 278q1 5 2.5 15t3 21.5t2.5 23.5t1 22q0 21 -8 33.5t-33 12.5q-26 0 -46 -14t-37 -35q-20 -25 -32.5 -53t-16.5 -51l-40 -253h-134l91 575h-70l15 98h70l13 79l137 18l-16 -97h105l-16 -98h-104l-9 -58
q-3 -17 -6 -34.5t-6 -32t-5.5 -24.5t-3.5 -13q3 6 19 30.5t45 48.5t56 32t54 8q42 0 65.5 -12.5t35.5 -30.5t15 -37.5t3 -34.5z" />
    <glyph glyph-name="Itilde" unicode="&#x128;" horiz-adv-x="264" 
d="M384 874q-8 -18 -19.5 -36.5t-26.5 -33.5t-33 -24.5t-40 -9.5t-49 13l-23 11q-13 6 -21 8t-14 2q-18 0 -32 -10.5t-22 -24.5l-47 34q10 18 22 36.5t27 32.5t33 23t38 9q10 0 21 -2.5t26 -10.5l23 -11q21 -10 35 -10q16 0 28 10t19 25l55 -31v0zM160 0h-137l111 703h137z
" />
    <glyph glyph-name="itilde" unicode="&#x129;" horiz-adv-x="261" 
d="M361 709q-8 -18 -19.5 -36.5t-26.5 -33.5t-33 -24.5t-40 -9.5t-49 13l-23 11q-13 6 -21 8t-14 2q-18 0 -32 -10.5t-22 -24.5l-47 34q10 18 22 36.5t27 32.5t33 23t38 9q10 0 21 -2.5t26 -10.5l23 -11q21 -10 35 -10q16 0 28 10t19 25l55 -31v0zM157 0h-134l83 524h134z
" />
    <glyph glyph-name="Imacron" unicode="&#x12a;" horiz-adv-x="264" 
d="M356 784h-279l15 98h280zM160 0h-137l111 703h137z" />
    <glyph glyph-name="imacron" unicode="&#x12b;" horiz-adv-x="261" 
d="M157 0h-134l83 524h134zM329 619h-279l15 98h280z" />
    <glyph glyph-name="Iogonek" unicode="&#x12e;" horiz-adv-x="264" 
d="M160 0q-58 -8 -88 -36t-30 -62q0 -22 12 -32t32 -10q14 0 29 4.5t26 12.5l-16 -81q-15 -8 -37 -12t-43 -4q-54 0 -76.5 26.5t-22.5 66.5q0 23 6.5 41.5t17.5 34t24.5 28t28.5 23.5l111 703h137z" />
    <glyph glyph-name="iogonek" unicode="&#x12f;" horiz-adv-x="261" 
d="M157 0q-56 -8 -85.5 -36t-29.5 -62q0 -22 12 -32t32 -10q14 0 29 4.5t26 12.5l-16 -81q-15 -8 -37 -12t-43 -4q-54 0 -76.5 26.5t-22.5 66.5q0 23 6.5 41.5t17.5 34t24.5 28t28.5 23.5l83 524h134zM275 682q0 -13 -3.5 -26.5t-12.5 -24.5t-24.5 -18t-38.5 -7
q-33 0 -54 16t-21 50q0 13 3.5 26.5t12.5 24.5t24.5 18t38.5 7q33 0 54 -16t21 -50z" />
    <glyph glyph-name="Idotaccent" unicode="&#x130;" horiz-adv-x="264" 
d="M300 849q0 -34 -21 -57.5t-58 -23.5q-32 0 -50.5 19t-18.5 53q0 35 21 58.5t56 23.5q32 0 51.5 -19.5t19.5 -53.5zM160 0h-137l111 703h137z" />
    <glyph glyph-name="dotlessi" unicode="&#x131;" horiz-adv-x="261" 
d="M157 0h-134l83 524h134z" />
    <glyph glyph-name="Jcircumflex" unicode="&#x134;" horiz-adv-x="346" 
d="M435 748l-110 92l-146 -92l-37 58l199 150l145 -150zM272 154q-2 -14 -6 -30.5t-10.5 -34t-17.5 -34t-27 -29.5q-19 -15 -46.5 -24t-67.5 -9q-34 0 -62 6t-45 14l18 115q14 -10 32 -15.5t36 -5.5q26 0 42 14t21 46l87 536h135z" />
    <glyph glyph-name="jcircumflex" unicode="&#x135;" horiz-adv-x="257" 
d="M241 524l-97 -606q-13 -78 -57 -113t-127 -35q-53 0 -87 13l17 100q30 -14 56 -14q34 0 47.5 20t21.5 66l92 569h134zM314 583l-110 92l-146 -92l-37 58l199 150l145 -150z" />
    <glyph glyph-name="uni0136" unicode="&#x136;" horiz-adv-x="556" 
d="M286 -55q-9 -51 -21 -87q-9 -30 -18.5 -51.5t-14.5 -28.5l-5 -7h-73q27 93 27 168v6h105zM352 366l169 -366h-150l-156 353l-56 -353h-136l111 703h136l-51 -327l268 327h148z" />
    <glyph glyph-name="uni0137" unicode="&#x137;" horiz-adv-x="496" 
d="M257 -55q-9 -51 -21 -87q-9 -30 -18.5 -51.5t-14.5 -28.5l-5 -7h-73q27 93 27 168v6h105zM331 278l124 -278h-144l-112 267l-42 -267h-134l119 752l137 18l-76 -480l198 234h145z" />
    <glyph glyph-name="kgreenlandic" unicode="&#x138;" horiz-adv-x="496" 
d="M331 278l124 -278h-144l-112 267l-42 -267h-134l82 515l137 18l-39 -243l198 234h145z" />
    <glyph glyph-name="Lacute" unicode="&#x139;" horiz-adv-x="437" 
d="M149 748l-39 64l186 135l51 -86zM379 0h-356l111 703h135l-92 -592h225z" />
    <glyph glyph-name="lacute" unicode="&#x13a;" horiz-adv-x="261" 
d="M143 778l-39 64l186 135l51 -86zM157 0h-134l119 752l137 18z" />
    <glyph glyph-name="uni013B" unicode="&#x13b;" horiz-adv-x="437" 
d="M260 -55q-9 -51 -21 -87q-9 -30 -18.5 -51.5t-14.5 -28.5l-5 -7h-73q27 93 27 168v6h105zM379 0h-356l111 703h135l-92 -592h225z" />
    <glyph glyph-name="uni013C" unicode="&#x13c;" horiz-adv-x="261" 
d="M132 -55q-9 -51 -21 -87q-9 -30 -18.5 -51.5t-14.5 -28.5l-5 -7h-73q27 93 27 168v6h105zM157 0h-134l119 752l137 18z" />
    <glyph glyph-name="Lcaron" unicode="&#x13d;" horiz-adv-x="437" 
d="M475 725q-9 -51 -21 -87q-9 -30 -18.5 -51.5t-14.5 -28.5l-5 -7h-73q27 93 27 168v6h105zM379 0h-356l111 703h135l-92 -592h225z" />
    <glyph glyph-name="lcaron" unicode="&#x13e;" horiz-adv-x="261" 
d="M469 793q-9 -51 -21 -87q-9 -30 -18.5 -51.5t-14.5 -28.5l-5 -7h-73q27 93 27 168v6h105zM157 0h-134l119 752l137 18z" />
    <glyph glyph-name="Ldot" unicode="&#x13f;" horiz-adv-x="437" 
d="M466 470q0 -34 -21 -57.5t-58 -23.5q-32 0 -50.5 19t-18.5 53q0 35 21 58.5t56 23.5q32 0 51.5 -19.5t19.5 -53.5zM379 0h-356l111 703h135l-92 -592h225z" />
    <glyph glyph-name="ldot" unicode="&#x140;" horiz-adv-x="261" 
d="M433 470q0 -34 -21 -57.5t-58 -23.5q-32 0 -50.5 19t-18.5 53q0 35 21 58.5t56 23.5q32 0 51.5 -19.5t19.5 -53.5zM157 0h-134l119 752l137 18z" />
    <glyph glyph-name="Lslash" unicode="&#x141;" horiz-adv-x="458" 
d="M379 0h-356l40 250l-28 -15l-43 78l88 51l54 339h135l-40 -254l95 53l43 -78l-155 -89l-35 -224h225z" />
    <glyph glyph-name="lslash" unicode="&#x142;" horiz-adv-x="261" 
d="M212 348l-55 -348h-134l37 236l-13 -10l-52 73l85 63l62 390l137 18l-47 -295l21 15l52 -73z" />
    <glyph glyph-name="Nacute" unicode="&#x143;" horiz-adv-x="643" 
d="M355 748l-39 64l186 135l51 -86zM538 0h-145l-133 365q-16 43 -24.5 82.5t-10.5 60.5l-82 -508h-121l113 703h150l119 -350q13 -38 24.5 -85t18.5 -84l83 519h121z" />
    <glyph glyph-name="nacute" unicode="&#x144;" 
d="M482 724l-117 -164l-62 40l99 178zM511 417q0 -23 -3 -50.5t-6 -45.5l-51 -321h-134l44 278q1 5 2.5 15t3 21.5t2.5 23.5t1 22q0 21 -8 33.5t-33 12.5q-26 0 -46 -14t-37 -35q-20 -25 -32.5 -53t-16.5 -51l-40 -253h-134l83 524h131l-18 -113q8 17 24 39.5t39 41.5
q29 24 55.5 32t53.5 8q42 0 66 -12.5t36 -30.5t15 -37.5t3 -34.5z" />
    <glyph glyph-name="uni0145" unicode="&#x145;" horiz-adv-x="643" 
d="M306 -55q-9 -51 -21 -87q-9 -30 -18.5 -51.5t-14.5 -28.5l-5 -7h-73q27 93 27 168v6h105zM538 0h-145l-133 365q-16 43 -24.5 82.5t-10.5 60.5l-82 -508h-121l113 703h150l119 -350q13 -38 24.5 -85t18.5 -84l83 519h121z" />
    <glyph glyph-name="uni0146" unicode="&#x146;" 
d="M276 -55q-9 -51 -21 -87q-9 -30 -18.5 -51.5t-14.5 -28.5l-5 -7h-73q27 93 27 168v6h105zM511 417q0 -23 -3 -50.5t-6 -45.5l-51 -321h-134l44 278q1 5 2.5 15t3 21.5t2.5 23.5t1 22q0 21 -8 33.5t-33 12.5q-26 0 -46 -14t-37 -35q-20 -25 -32.5 -53t-16.5 -51l-40 -253
h-134l83 524h131l-18 -113q8 17 24 39.5t39 41.5q29 24 55.5 32t53.5 8q42 0 66 -12.5t36 -30.5t15 -37.5t3 -34.5z" />
    <glyph glyph-name="Ncaron" unicode="&#x147;" horiz-adv-x="643" 
d="M404 748l-145 136l63 66l104 -93l128 93l45 -57zM538 0h-145l-133 365q-16 43 -24.5 82.5t-10.5 60.5l-82 -508h-121l113 703h150l119 -350q13 -38 24.5 -85t18.5 -84l83 519h121z" />
    <glyph glyph-name="ncaron" unicode="&#x148;" 
d="M350 583l-145 136l63 66l104 -93l128 93l45 -57zM511 417q0 -23 -3 -50.5t-6 -45.5l-51 -321h-134l44 278q1 5 2.5 15t3 21.5t2.5 23.5t1 22q0 21 -8 33.5t-33 12.5q-26 0 -46 -14t-37 -35q-20 -25 -32.5 -53t-16.5 -51l-40 -253h-134l83 524h131l-18 -113q8 17 24 39.5
t39 41.5q29 24 55.5 32t53.5 8q42 0 66 -12.5t36 -30.5t15 -37.5t3 -34.5z" />
    <glyph glyph-name="napostrophe" unicode="&#x149;" 
d="M157 793q-9 -51 -21 -87q-9 -30 -18.5 -51.5t-14.5 -28.5l-5 -7h-73q27 93 27 168v6h105zM511 417q0 -23 -3 -50.5t-6 -45.5l-51 -321h-134l44 278q1 5 2.5 15t3 21.5t2.5 23.5t1 22q0 21 -8 33.5t-33 12.5q-26 0 -46 -14t-37 -35q-20 -25 -32.5 -53t-16.5 -51l-40 -253
h-134l83 524h131l-18 -113q8 17 24 39.5t39 41.5q29 24 55.5 32t53.5 8q42 0 66 -12.5t36 -30.5t15 -37.5t3 -34.5z" />
    <glyph glyph-name="Eng" unicode="&#x14a;" horiz-adv-x="643" 
d="M538 0h-1l-13 -82q-13 -81 -59 -114.5t-124 -33.5q-54 0 -88 13l17 100q13 -6 25.5 -10t28.5 -4q20 0 32.5 6.5t20 18t11.5 27t7 34.5l4 27l-139 383q-15 42 -24 79.5t-11 63.5l-82 -508h-121l113 703h150l119 -350q13 -38 24.5 -85t18.5 -84l83 519h121z" />
    <glyph glyph-name="eng" unicode="&#x14b;" 
d="M511 417q0 -23 -3 -50.5t-6 -45.5l-64 -403q-13 -80 -58 -114t-125 -34q-54 0 -88 13l17 100q13 -6 25.5 -10t29.5 -4q36 0 49.5 21.5t20.5 64.5l52 323q1 5 2.5 15t3 21.5t2.5 23.5t1 22q0 21 -8 33.5t-33 12.5q-26 0 -46 -14t-37 -35q-20 -25 -32.5 -53t-16.5 -51
l-40 -253h-134l83 524h131l-18 -113q0 1 4.5 9t12.5 20t19.5 26t26.5 26q29 24 55.5 32t53.5 8q42 0 66 -12.5t36 -30.5t15 -37.5t3 -34.5z" />
    <glyph glyph-name="Omacron" unicode="&#x14c;" horiz-adv-x="648" 
d="M531 784h-279l15 98h280zM628 421q0 -11 -2 -47.5t-11.5 -84.5t-29.5 -101t-56.5 -97.5t-92.5 -73.5t-137 -29q-57 0 -98 15t-68.5 39t-44 55t-25 63.5t-11 63.5t-2.5 55q0 11 2 47.5t11.5 84.5t29.5 101t56.5 97.5t92.5 73.5t137 29q57 0 98 -15t68.5 -39t44 -55
t25 -63.5t11 -63.5t2.5 -55zM488 423q0 58 -10 93.5t-26.5 54.5t-38.5 25.5t-45 6.5q-31 0 -59.5 -11.5t-53.5 -48.5q-32 -47 -48.5 -119.5t-16.5 -146.5q0 -58 10 -93.5t26.5 -54.5t38.5 -25.5t45 -6.5q31 0 59.5 11.5t53.5 48.5q32 47 48.5 119.5t16.5 146.5z" />
    <glyph glyph-name="omacron" unicode="&#x14d;" horiz-adv-x="520" 
d="M443 619h-279l15 98h280zM488 314q0 -18 -2.5 -49t-11 -67t-25 -73t-45 -67t-71 -49t-102.5 -19q-65 0 -104 22t-60 54.5t-28 70.5t-7 71q0 17 2.5 48t11 67t25 73.5t45.5 68t71.5 49.5t102.5 19q64 0 103 -22t60 -54.5t28 -71t7 -71.5zM351 315q0 59 -14.5 88t-56.5 29
q-20 0 -36 -8t-30 -28q-20 -29 -32.5 -77.5t-12.5 -110.5q0 -59 14.5 -88t56.5 -29q20 0 36 8t30 28q20 29 32.5 77.5t12.5 110.5z" />
    <glyph glyph-name="Ohungarumlaut" unicode="&#x150;" horiz-adv-x="648" 
d="M255 748l-39 64l186 135l51 -86zM488 748l-39 64l186 135l51 -86zM628 421q0 -11 -2 -47.5t-11.5 -84.5t-29.5 -101t-56.5 -97.5t-92.5 -73.5t-137 -29q-57 0 -98 15t-68.5 39t-44 55t-25 63.5t-11 63.5t-2.5 55q0 11 2 47.5t11.5 84.5t29.5 101t56.5 97.5t92.5 73.5
t137 29q57 0 98 -15t68.5 -39t44 -55t25 -63.5t11 -63.5t2.5 -55zM488 423q0 58 -10 93.5t-26.5 54.5t-38.5 25.5t-45 6.5q-31 0 -59.5 -11.5t-53.5 -48.5q-32 -47 -48.5 -119.5t-16.5 -146.5q0 -58 10 -93.5t26.5 -54.5t38.5 -25.5t45 -6.5q31 0 59.5 11.5t53.5 48.5
q32 47 48.5 119.5t16.5 146.5z" />
    <glyph glyph-name="ohungarumlaut" unicode="&#x151;" horiz-adv-x="520" 
d="M530 728l-117 -164l-62 40l99 178zM343 728l-117 -164l-62 40l99 178zM488 314q0 -18 -2.5 -49t-11 -67t-25 -73t-45 -67t-71 -49t-102.5 -19q-65 0 -104 22t-60 54.5t-28 70.5t-7 71q0 17 2.5 48t11 67t25 73.5t45.5 68t71.5 49.5t102.5 19q64 0 103 -22t60 -54.5
t28 -71t7 -71.5zM351 315q0 59 -14.5 88t-56.5 29q-20 0 -36 -8t-30 -28q-20 -29 -32.5 -77.5t-12.5 -110.5q0 -59 14.5 -88t56.5 -29q20 0 36 8t30 28q20 29 32.5 77.5t12.5 110.5z" />
    <glyph glyph-name="OE" unicode="&#x152;" horiz-adv-x="829" 
d="M841 590h-217l-28 -177h177l-18 -113h-177l-30 -189h235l-23 -111h-374q-11 -4 -34.5 -8t-56.5 -4q-56 0 -96.5 14.5t-67.5 38t-43 53.5t-24.5 62.5t-11 64t-2.5 57.5q0 12 2 49.5t11.5 86t30 102.5t58 98.5t94.5 74t140 29.5q31 0 58.5 -4t44.5 -11h370zM487 589
q-11 6 -35.5 13t-62.5 7q-15 0 -32 -2t-34.5 -9t-35 -19.5t-32.5 -34.5q-16 -23 -28 -54t-20.5 -66t-12.5 -73t-4 -74q0 -58 10 -94t27 -55.5t39.5 -26t48.5 -6.5q30 0 55.5 6t41.5 15z" />
    <glyph glyph-name="oe" unicode="&#x153;" horiz-adv-x="791" 
d="M783 395q0 -61 -28.5 -97.5t-72.5 -55.5q-32 -14 -80.5 -22t-116.5 -8h-8q0 -2 -0.5 -4t-0.5 -12q0 -21 4.5 -40t17.5 -33t34.5 -22t56.5 -8q51 0 85 14.5t51 28.5l-22 -114q-22 -13 -60.5 -22t-87.5 -9q-69 0 -108.5 18.5t-60.5 45.5q-29 -29 -66 -47t-94 -18
q-63 0 -101 21.5t-58.5 54t-27.5 69.5t-7 69q0 19 2.5 50.5t11.5 68t25.5 74t44.5 68t68.5 49.5t98.5 19q61 0 96 -21t55 -51q32 32 74.5 51.5t107.5 19.5q57 0 90 -14.5t50.5 -36t22 -45t4.5 -41.5zM655 392q0 54 -55 54q-26 0 -48 -12.5t-38 -40.5q-9 -16 -17.5 -40.5
t-11.5 -51.5h7q34 0 63.5 4t51.5 14t35 27.5t13 45.5zM351 315q0 59 -14.5 88t-56.5 29q-20 0 -36 -8t-30 -28q-20 -29 -32.5 -77.5t-12.5 -110.5q0 -59 14.5 -88t56.5 -29q20 0 36 8t30 28q20 29 32.5 77.5t12.5 110.5z" />
    <glyph glyph-name="Racute" unicode="&#x154;" horiz-adv-x="547" 
d="M269 748l-39 64l186 135l51 -86zM547 529q0 -48 -11.5 -83t-30 -59t-40.5 -38.5t-43.5 -22.5t-39.5 -10.5t-28 -2.5l166 -313h-153l-157 319l-51 -319h-136l111 703h182q33 0 58 -1t44.5 -4t34.5 -8.5t28 -14.5q36 -23 51 -60t15 -86zM406 514q0 32 -8.5 50t-21.5 27
t-29.5 11t-32.5 2h-60l-33 -212h56q18 0 40.5 3.5t42 16t33 36.5t13.5 66z" />
    <glyph glyph-name="racute" unicode="&#x155;" horiz-adv-x="385" 
d="M238 583l-39 64l186 135l51 -86zM394 395q-8 8 -20.5 13.5t-32.5 5.5q-25 0 -46.5 -12t-43.5 -39q-23 -28 -36.5 -57.5t-17.5 -52.5l-40 -253h-134l83 524h131l-19 -120q11 23 28 47.5t38 44.5q39 36 86 36q17 0 32 -4t23 -12z" />
    <glyph glyph-name="uni0156" unicode="&#x156;" horiz-adv-x="547" 
d="M297 -55q-9 -51 -21 -87q-9 -30 -18.5 -51.5t-14.5 -28.5l-5 -7h-73q27 93 27 168v6h105zM547 529q0 -48 -11.5 -83t-30 -59t-40.5 -38.5t-43.5 -22.5t-39.5 -10.5t-28 -2.5l166 -313h-153l-157 319l-51 -319h-136l111 703h182q33 0 58 -1t44.5 -4t34.5 -8.5t28 -14.5
q36 -23 51 -60t15 -86zM406 514q0 32 -8.5 50t-21.5 27t-29.5 11t-32.5 2h-60l-33 -212h56q18 0 40.5 3.5t42 16t33 36.5t13.5 66z" />
    <glyph glyph-name="uni0157" unicode="&#x157;" horiz-adv-x="385" 
d="M132 -55q-9 -51 -21 -87q-9 -30 -18.5 -51.5t-14.5 -28.5l-5 -7h-73q27 93 27 168v6h105zM394 395q-8 8 -20.5 13.5t-32.5 5.5q-25 0 -46.5 -12t-43.5 -39q-23 -28 -36.5 -57.5t-17.5 -52.5l-40 -253h-134l83 524h131l-19 -120q11 23 28 47.5t38 44.5q39 36 86 36
q17 0 32 -4t23 -12z" />
    <glyph glyph-name="Rcaron" unicode="&#x158;" horiz-adv-x="547" 
d="M314 748l-145 136l63 66l104 -93l128 93l45 -57zM547 529q0 -48 -11.5 -83t-30 -59t-40.5 -38.5t-43.5 -22.5t-39.5 -10.5t-28 -2.5l166 -313h-153l-157 319l-51 -319h-136l111 703h182q33 0 58 -1t44.5 -4t34.5 -8.5t28 -14.5q36 -23 51 -60t15 -86zM406 514
q0 32 -8.5 50t-21.5 27t-29.5 11t-32.5 2h-60l-33 -212h56q18 0 40.5 3.5t42 16t33 36.5t13.5 66z" />
    <glyph glyph-name="rcaron" unicode="&#x159;" horiz-adv-x="385" 
d="M265 583l-145 136l63 66l104 -93l128 93l45 -57zM394 395q-8 8 -20.5 13.5t-32.5 5.5q-25 0 -46.5 -12t-43.5 -39q-23 -28 -36.5 -57.5t-17.5 -52.5l-40 -253h-134l83 524h131l-19 -120q11 23 28 47.5t38 44.5q39 36 86 36q17 0 32 -4t23 -12z" />
    <glyph glyph-name="Sacute" unicode="&#x15a;" horiz-adv-x="460" 
d="M257 748l-39 64l186 135l51 -86zM458 541q-20 27 -57.5 44t-86.5 17q-56 0 -77 -22t-21 -54q0 -26 12 -43.5t42 -42.5l54 -45q30 -25 49.5 -46.5t31.5 -43t17 -44t5 -49.5q0 -36 -10 -75.5t-38 -72.5t-78 -54t-129 -21q-63 0 -109 13.5t-68 34.5l15 129q19 -32 62 -49.5
t94 -17.5q34 0 57 8t36.5 21.5t19 31t5.5 37.5q0 22 -10 40.5t-44 45.5l-59 47q-54 43 -76 83t-22 91q0 37 11 74t38 67t72.5 48.5t113.5 18.5q55 0 100.5 -12.5t69.5 -34.5z" />
    <glyph glyph-name="sacute" unicode="&#x15b;" horiz-adv-x="391" 
d="M363 724l-117 -164l-62 40l99 178zM368 382q-17 17 -49 32t-74 15q-35 0 -49 -12t-14 -32q0 -18 10 -28.5t31 -25.5l47 -34q16 -12 30.5 -24.5t25.5 -28.5t17.5 -37.5t6.5 -50.5q0 -32 -9.5 -61.5t-31.5 -52.5t-58.5 -37t-91.5 -14q-54 0 -95 12t-64 27l16 118
q19 -21 54.5 -38t83.5 -17q12 0 24.5 2t22 7t16 15t6.5 27q0 20 -10.5 30.5t-33.5 26.5l-44 31q-37 26 -58.5 57.5t-21.5 82.5q0 46 17 77t44 49.5t59.5 26t64.5 7.5q36 0 75.5 -9.5t68.5 -29.5z" />
    <glyph glyph-name="Scircumflex" unicode="&#x15c;" horiz-adv-x="460" 
d="M445 748l-110 92l-146 -92l-37 58l199 150l145 -150zM458 541q-20 27 -57.5 44t-86.5 17q-56 0 -77 -22t-21 -54q0 -26 12 -43.5t42 -42.5l54 -45q30 -25 49.5 -46.5t31.5 -43t17 -44t5 -49.5q0 -36 -10 -75.5t-38 -72.5t-78 -54t-129 -21q-63 0 -109 13.5t-68 34.5
l15 129q19 -32 62 -49.5t94 -17.5q34 0 57 8t36.5 21.5t19 31t5.5 37.5q0 22 -10 40.5t-44 45.5l-59 47q-54 43 -76 83t-22 91q0 37 11 74t38 67t72.5 48.5t113.5 18.5q55 0 100.5 -12.5t69.5 -34.5z" />
    <glyph glyph-name="scircumflex" unicode="&#x15d;" horiz-adv-x="391" 
d="M379 583l-110 92l-146 -92l-37 58l199 150l145 -150zM368 382q-17 17 -49 32t-74 15q-35 0 -49 -12t-14 -32q0 -18 10 -28.5t31 -25.5l47 -34q16 -12 30.5 -24.5t25.5 -28.5t17.5 -37.5t6.5 -50.5q0 -32 -9.5 -61.5t-31.5 -52.5t-58.5 -37t-91.5 -14q-54 0 -95 12t-64 27
l16 118q19 -21 54.5 -38t83.5 -17q12 0 24.5 2t22 7t16 15t6.5 27q0 20 -10.5 30.5t-33.5 26.5l-44 31q-37 26 -58.5 57.5t-21.5 82.5q0 46 17 77t44 49.5t59.5 26t64.5 7.5q36 0 75.5 -9.5t68.5 -29.5z" />
    <glyph glyph-name="Scedilla" unicode="&#x15e;" horiz-adv-x="460" 
d="M266 -125q0 -37 -23 -65q-31 -37 -93 -37q-22 0 -37.5 3.5t-24.5 8.5l7 69q6 -5 18.5 -11t29.5 -6q24 0 33.5 12t9.5 27q0 17 -7.5 24t-12.5 12q-8 7 -14 15t-6 26q0 20 8 37q-66 2 -106.5 17.5t-52.5 29.5l15 129q19 -32 62 -49.5t94 -17.5q34 0 57 8t36.5 21.5t19 31
t5.5 37.5q0 22 -10 40.5t-44 45.5l-59 47q-54 43 -76 83t-22 91q0 37 11 74t38 67t72.5 48.5t113.5 18.5q55 0 100.5 -12.5t69.5 -34.5l-20 -124q-20 27 -57.5 44t-86.5 17q-56 0 -77 -22t-21 -54q0 -26 12 -43.5t42 -42.5l54 -45q32 -27 52 -49.5t31.5 -44.5t15.5 -43
t4 -45q0 -37 -9 -73.5t-32 -66.5t-62 -52t-100 -29q-4 -11 -4 -23q0 -13 5 -19.5t14 -14.5t18 -21t9 -39z" />
    <glyph glyph-name="scedilla" unicode="&#x15f;" horiz-adv-x="391" 
d="M239 -125q0 -37 -23 -65q-31 -37 -93 -37q-22 0 -37.5 3.5t-24.5 8.5l7 69q6 -5 18.5 -11t29.5 -6q24 0 33.5 12t9.5 27q0 17 -7.5 24t-12.5 12q-8 7 -14 15t-6 27q0 9 2 18t7 20q-45 4 -79 15.5t-49 22.5l16 118q19 -21 54.5 -38t83.5 -17q12 0 24.5 2t22 7t16 15
t6.5 27q0 20 -10.5 30.5t-33.5 26.5l-44 31q-37 26 -58.5 57.5t-21.5 82.5q0 46 17 77t44 49.5t59.5 26t64.5 7.5q36 0 75.5 -9.5t68.5 -29.5l-16 -111q-17 17 -49 32t-74 15q-35 0 -49 -12t-14 -32q0 -18 10 -28.5t31 -25.5l47 -34q16 -12 30.5 -24.5t25.5 -28.5
t17.5 -37.5t6.5 -50.5t-7.5 -56t-25.5 -49t-47 -37.5t-72 -19.5q-5 -11 -5 -24q0 -14 5 -20.5t14 -14.5t18 -21t9 -39z" />
    <glyph glyph-name="Scaron" unicode="&#x160;" horiz-adv-x="460" 
d="M312 748l-145 136l63 66l104 -93l128 93l45 -57zM458 541q-20 27 -57.5 44t-86.5 17q-56 0 -77 -22t-21 -54q0 -26 12 -43.5t42 -42.5l54 -45q30 -25 49.5 -46.5t31.5 -43t17 -44t5 -49.5q0 -36 -10 -75.5t-38 -72.5t-78 -54t-129 -21q-63 0 -109 13.5t-68 34.5l15 129
q19 -32 62 -49.5t94 -17.5q34 0 57 8t36.5 21.5t19 31t5.5 37.5q0 22 -10 40.5t-44 45.5l-59 47q-54 43 -76 83t-22 91q0 37 11 74t38 67t72.5 48.5t113.5 18.5q55 0 100.5 -12.5t69.5 -34.5z" />
    <glyph glyph-name="scaron" unicode="&#x161;" horiz-adv-x="391" 
d="M250 583l-145 136l63 66l104 -93l128 93l45 -57zM368 382q-17 17 -49 32t-74 15q-35 0 -49 -12t-14 -32q0 -18 10 -28.5t31 -25.5l47 -34q16 -12 30.5 -24.5t25.5 -28.5t17.5 -37.5t6.5 -50.5q0 -32 -9.5 -61.5t-31.5 -52.5t-58.5 -37t-91.5 -14q-54 0 -95 12t-64 27
l16 118q19 -21 54.5 -38t83.5 -17q12 0 24.5 2t22 7t16 15t6.5 27q0 20 -10.5 30.5t-33.5 26.5l-44 31q-37 26 -58.5 57.5t-21.5 82.5q0 46 17 77t44 49.5t59.5 26t64.5 7.5q36 0 75.5 -9.5t68.5 -29.5z" />
    <glyph glyph-name="uni0162" unicode="&#x162;" horiz-adv-x="521" 
d="M261 -55q-9 -51 -21 -87q-9 -30 -18.5 -51.5t-14.5 -28.5l-5 -7h-73q27 93 27 168v6h105zM558 590h-176l-94 -590h-137l94 590h-185l18 113h503z" />
    <glyph glyph-name="uni0163" unicode="&#x163;" horiz-adv-x="324" 
d="M202 -55q-9 -51 -21 -87q-9 -30 -18.5 -51.5t-14.5 -28.5l-5 -7h-73q27 93 27 168v6h105zM343 426h-120l-34 -219q-2 -12 -5 -32.5t-3 -34.5q0 -8 2 -16.5t8 -15.5t16.5 -11t27.5 -4q21 0 36 5.5t23 12.5l-19 -100q-14 -9 -40.5 -14.5t-56.5 -5.5q-49 0 -76 13.5
t-40 32.5t-15.5 38t-2.5 31q0 26 3 47.5t6 42.5l36 230h-54l16 98h54l14 89l139 28l-19 -117h120z" />
    <glyph glyph-name="Tcaron" unicode="&#x164;" horiz-adv-x="521" 
d="M332 748l-145 136l63 66l104 -93l128 93l45 -57zM558 590h-176l-94 -590h-137l94 590h-185l18 113h503z" />
    <glyph glyph-name="tcaron" unicode="&#x165;" horiz-adv-x="324" 
d="M464 793q-9 -51 -21 -87q-9 -30 -18.5 -51.5t-14.5 -28.5l-5 -7h-73q27 93 27 168v6h105zM343 426h-120l-34 -219q-2 -12 -5 -32.5t-3 -34.5q0 -8 2 -16.5t8 -15.5t16.5 -11t27.5 -4q21 0 36 5.5t23 12.5l-19 -100q-14 -9 -40.5 -14.5t-56.5 -5.5q-49 0 -76 13.5
t-40 32.5t-15.5 38t-2.5 31q0 26 3 47.5t6 42.5l36 230h-54l16 98h54l14 89l139 28l-19 -117h120z" />
    <glyph glyph-name="Tbar" unicode="&#x166;" horiz-adv-x="521" 
d="M558 590h-176l-11 -66h98l-23 -98h-90l-68 -426h-137l68 426h-91l16 98h90l11 66h-185l18 113h503z" />
    <glyph glyph-name="tbar" unicode="&#x167;" horiz-adv-x="324" 
d="M343 426h-120l-15 -92h121l-16 -98h-120l-4 -29q-2 -13 -5 -33t-3 -34q0 -9 2 -17t8 -15t16.5 -11t27.5 -4q23 0 37 6t22 12l-19 -100q-14 -9 -40.5 -14.5t-56.5 -5.5q-49 0 -76 14t-40 32.5t-15.5 38t-2.5 31.5q0 26 3 47l6 42l6 40h-54l16 98h53l15 92h-54l16 98h54
l14 89l139 28l-19 -117h120z" />
    <glyph glyph-name="Utilde" unicode="&#x168;" horiz-adv-x="612" 
d="M560 874q-8 -18 -19.5 -36.5t-26.5 -33.5t-33 -24.5t-40 -9.5t-49 13l-23 11q-13 6 -21 8t-14 2q-18 0 -32 -10.5t-22 -24.5l-47 34q10 18 22 36.5t27 32.5t33 23t38 9q10 0 21 -2.5t26 -10.5l23 -11q21 -10 35 -10q16 0 28 10t19 25l55 -31v0zM559 257
q-6 -41 -12.5 -72.5t-15.5 -57t-21.5 -45.5t-31.5 -38q-37 -33 -84 -44.5t-101 -11.5q-58 0 -98.5 9.5t-67.5 25t-42 35t-22.5 39t-9.5 38t-2 32.5q0 18 1.5 39.5t6.5 50.5l70 446h137l-73 -464q-2 -14 -3.5 -28t-1.5 -25q0 -30 10 -47.5t26 -27t35 -12.5t36 -3q37 0 60 9.5
t36.5 27t20.5 43t12 57.5l74 470h131z" />
    <glyph glyph-name="utilde" unicode="&#x169;" 
d="M528 709q-8 -18 -19.5 -36.5t-26.5 -33.5t-33 -24.5t-40 -9.5t-49 13l-23 11q-13 6 -21 8t-14 2q-18 0 -32 -10.5t-22 -24.5l-47 34q10 18 22 36.5t27 32.5t33 23t38 9q10 0 21 -2.5t26 -10.5l23 -11q21 -10 35 -10q16 0 28 10t19 25l55 -31v0zM445 0h-131l18 113
q-8 -17 -24 -39.5t-39 -41.5q-29 -24 -55.5 -32t-53.5 -8q-42 0 -66 12.5t-36 30.5t-15 37.5t-3 34.5q0 23 3 50.5t6 45.5l51 321h134l-44 -278q-1 -5 -2.5 -15t-3 -21.5t-2.5 -23.5t-1 -22q0 -21 8 -33.5t33 -12.5q26 0 46 14t37 35q20 25 32.5 53t16.5 51l40 253h134z" />
    <glyph glyph-name="Umacron" unicode="&#x16a;" horiz-adv-x="612" 
d="M538 784h-279l15 98h280zM559 257q-6 -41 -12.5 -72.5t-15.5 -57t-21.5 -45.5t-31.5 -38q-37 -33 -84 -44.5t-101 -11.5q-58 0 -98.5 9.5t-67.5 25t-42 35t-22.5 39t-9.5 38t-2 32.5q0 18 1.5 39.5t6.5 50.5l70 446h137l-73 -464q-2 -14 -3.5 -28t-1.5 -25
q0 -30 10 -47.5t26 -27t35 -12.5t36 -3q37 0 60 9.5t36.5 27t20.5 43t12 57.5l74 470h131z" />
    <glyph glyph-name="umacron" unicode="&#x16b;" 
d="M469 619h-279l15 98h280zM445 0h-131l18 113q-8 -17 -24 -39.5t-39 -41.5q-29 -24 -55.5 -32t-53.5 -8q-42 0 -66 12.5t-36 30.5t-15 37.5t-3 34.5q0 23 3 50.5t6 45.5l51 321h134l-44 -278q-1 -5 -2.5 -15t-3 -21.5t-2.5 -23.5t-1 -22q0 -21 8 -33.5t33 -12.5
q26 0 46 14t37 35q20 25 32.5 53t16.5 51l40 253h134z" />
    <glyph glyph-name="Ubreve" unicode="&#x16c;" horiz-adv-x="612" 
d="M572 880q-11 -22 -28 -43.5t-40 -39t-52.5 -28t-65.5 -10.5q-34 0 -60.5 10t-45.5 26.5t-31.5 37.5t-18.5 43l73 43q4 -13 11 -26.5t18 -24t25.5 -17t34.5 -6.5q37 0 65.5 22t44.5 52l70 -39v0zM559 257q-6 -41 -12.5 -72.5t-15.5 -57t-21.5 -45.5t-31.5 -38
q-37 -33 -84 -44.5t-101 -11.5q-58 0 -98.5 9.5t-67.5 25t-42 35t-22.5 39t-9.5 38t-2 32.5q0 18 1.5 39.5t6.5 50.5l70 446h137l-73 -464q-2 -14 -3.5 -28t-1.5 -25q0 -30 10 -47.5t26 -27t35 -12.5t36 -3q37 0 60 9.5t36.5 27t20.5 43t12 57.5l74 470h131z" />
    <glyph glyph-name="ubreve" unicode="&#x16d;" 
d="M509 716q-11 -22 -28 -43.5t-40 -39t-52.5 -28t-65.5 -10.5q-34 0 -60.5 10t-45.5 26.5t-31.5 37.5t-18.5 43l73 43q4 -13 11 -26.5t18 -24t25.5 -17t34.5 -6.5q37 0 65.5 22t44.5 52l70 -39v0zM445 0h-131l18 113q-8 -17 -24 -39.5t-39 -41.5q-29 -24 -55.5 -32
t-53.5 -8q-42 0 -66 12.5t-36 30.5t-15 37.5t-3 34.5q0 23 3 50.5t6 45.5l51 321h134l-44 -278q-1 -5 -2.5 -15t-3 -21.5t-2.5 -23.5t-1 -22q0 -21 8 -33.5t33 -12.5q26 0 46 14t37 35q20 25 32.5 53t16.5 51l40 253h134z" />
    <glyph glyph-name="Uring" unicode="&#x16e;" horiz-adv-x="612" 
d="M530 874q0 -29 -10 -53.5t-27 -41.5t-41 -26.5t-51 -9.5q-48 0 -79.5 28.5t-31.5 81.5q0 29 10 53t27.5 41t41.5 26.5t53 9.5q50 0 79 -29t29 -80zM465 870q0 29 -15 41t-35 12q-28 0 -44 -19t-16 -48t15 -41.5t35 -12.5q28 0 44 19.5t16 48.5zM559 257
q-6 -41 -12.5 -72.5t-15.5 -57t-21.5 -45.5t-31.5 -38q-37 -33 -84 -44.5t-101 -11.5q-58 0 -98.5 9.5t-67.5 25t-42 35t-22.5 39t-9.5 38t-2 32.5q0 18 1.5 39.5t6.5 50.5l70 446h137l-73 -464q-2 -14 -3.5 -28t-1.5 -25q0 -30 10 -47.5t26 -27t35 -12.5t36 -3q37 0 60 9.5
t36.5 27t20.5 43t12 57.5l74 470h131z" />
    <glyph glyph-name="uring" unicode="&#x16f;" 
d="M458 691q0 -29 -10 -53.5t-27 -41.5t-41 -26.5t-51 -9.5q-48 0 -79.5 28.5t-31.5 81.5q0 29 10 53t27.5 41t41.5 26.5t53 9.5q50 0 79 -29t29 -80zM393 687q0 29 -15 41t-35 12q-28 0 -44 -19t-16 -48t15 -41.5t35 -12.5q28 0 44 19.5t16 48.5zM445 0h-131l18 113
q-8 -17 -24 -39.5t-39 -41.5q-29 -24 -55.5 -32t-53.5 -8q-42 0 -66 12.5t-36 30.5t-15 37.5t-3 34.5q0 23 3 50.5t6 45.5l51 321h134l-44 -278q-1 -5 -2.5 -15t-3 -21.5t-2.5 -23.5t-1 -22q0 -21 8 -33.5t33 -12.5q26 0 46 14t37 35q20 25 32.5 53t16.5 51l40 253h134z" />
    <glyph glyph-name="Uhungarumlaut" unicode="&#x170;" horiz-adv-x="612" 
d="M264 748l-39 64l186 135l51 -86zM497 748l-39 64l186 135l51 -86zM559 257q-6 -41 -12.5 -72.5t-15.5 -57t-21.5 -45.5t-31.5 -38q-37 -33 -84 -44.5t-101 -11.5q-58 0 -98.5 9.5t-67.5 25t-42 35t-22.5 39t-9.5 38t-2 32.5q0 18 1.5 39.5t6.5 50.5l70 446h137l-73 -464
q-2 -14 -3.5 -28t-1.5 -25q0 -30 10 -47.5t26 -27t35 -12.5t36 -3q37 0 60 9.5t36.5 27t20.5 43t12 57.5l74 470h131z" />
    <glyph glyph-name="uhungarumlaut" unicode="&#x171;" 
d="M527 728l-117 -164l-62 40l99 178zM340 728l-117 -164l-62 40l99 178zM445 0h-131l18 113q-8 -17 -24 -39.5t-39 -41.5q-29 -24 -55.5 -32t-53.5 -8q-42 0 -66 12.5t-36 30.5t-15 37.5t-3 34.5q0 23 3 50.5t6 45.5l51 321h134l-44 -278q-1 -5 -2.5 -15t-3 -21.5
t-2.5 -23.5t-1 -22q0 -21 8 -33.5t33 -12.5q26 0 46 14t37 35q20 25 32.5 53t16.5 51l40 253h134z" />
    <glyph glyph-name="Uogonek" unicode="&#x172;" horiz-adv-x="612" 
d="M559 257q-11 -71 -26 -123.5t-55 -89.5q-17 -16 -42 -29q-51 -31 -76 -56t-25 -57q0 -42 43 -42q14 0 29.5 4.5t26.5 12.5l-16 -81q-15 -8 -37 -12t-43 -4q-54 0 -76.5 26.5t-22.5 66.5q0 41 18 67.5t43 47.5h-14q-85 0 -132 21t-70 50t-28 59.5t-5 49.5q0 17 1.5 38.5
t6.5 50.5l70 446h137l-73 -464q-2 -14 -3.5 -28t-1.5 -25q0 -30 10 -47.5t26 -27t35 -12.5t36 -3q37 0 60 9.5t36.5 27t20.5 43t12 57.5l74 470h131z" />
    <glyph glyph-name="uogonek" unicode="&#x173;" 
d="M445 0q-60 -8 -90 -37t-30 -62q0 -21 12 -31t32 -10q14 0 29.5 4.5t25.5 12.5l-16 -81q-15 -8 -37 -12t-43 -4q-54 0 -76.5 26.5t-22.5 65.5q0 24 7.5 44t19.5 35.5t27 27.5t31 21l18 112q-5 -9 -20 -33t-43 -47q-29 -24 -56 -32t-54 -8q-42 0 -65.5 12.5t-35.5 30.5
t-15 37.5t-3 34.5q0 23 3 50.5t6 45.5l51 321h134l-44 -278q-1 -5 -2.5 -15t-3 -21.5t-2.5 -23.5t-1 -22q0 -21 8 -33.5t33 -12.5q26 0 46 14t37 35q20 25 32.5 53t16.5 51l40 253h134z" />
    <glyph glyph-name="Wcircumflex" unicode="&#x174;" horiz-adv-x="933" 
d="M658 748l-110 92l-146 -92l-37 58l199 150l145 -150zM681 -4h-149l-36 404q-3 38 -3.5 70.5t-0.5 44.5q-4 -17 -13 -45t-20 -56l-161 -418h-154l-84 707h140l42 -422q2 -23 3.5 -47t2 -44.5t0.5 -35.5v-21q7 29 18.5 68.5t26.5 79.5l163 422h140l36 -397q2 -23 3.5 -51
t2 -53t1 -44t0.5 -25q9 38 23.5 84.5t30.5 85.5l162 400h133z" />
    <glyph glyph-name="wcircumflex" unicode="&#x175;" horiz-adv-x="750" 
d="M539 583l-110 92l-146 -92l-37 58l199 150l145 -150zM557 -2h-158l-15 254q-2 24 -2.5 52.5t-0.5 51.5q-3 -9 -6.5 -21.5t-7.5 -25t-7.5 -23t-5.5 -15.5l-96 -273h-166l-60 526h132l27 -337q2 -23 2 -48v-46q4 13 9 28q4 13 9.5 30t12.5 37l118 336h139l20 -339
q1 -19 1 -45v-49q5 21 13 49.5t17 51.5l129 332h127z" />
    <glyph glyph-name="Ycircumflex" unicode="&#x176;" horiz-adv-x="566" 
d="M476 748l-110 92l-146 -92l-37 58l199 150l145 -150zM340 264l-42 -264h-134l43 268l-157 435h142l102 -311l205 311h147z" />
    <glyph glyph-name="ycircumflex" unicode="&#x177;" horiz-adv-x="458" 
d="M413 583l-110 92l-146 -92l-37 58l199 150l145 -150zM218 -84q-14 -29 -35 -62.5t-51 -53.5q-25 -17 -54 -23.5t-62 -6.5q-35 0 -59 5.5t-35 10.5l17 101q8 -6 23.5 -12.5t42.5 -6.5q37 0 59.5 16.5t40.5 55.5l10 22l-85 562h135l36 -283q5 -33 6 -60t1 -42q6 20 15.5 45
t17.5 45l126 295h129z" />
    <glyph glyph-name="Ydieresis" unicode="&#x178;" horiz-adv-x="566" 
d="M540 845q0 -31 -20 -50t-49 -19q-26 0 -42 15t-16 43q0 31 20 50t49 19q26 0 42 -15t16 -43zM331 845q0 -31 -20 -50t-49 -19q-26 0 -42 15t-16 43q0 31 20 50t49 19q26 0 42 -15t16 -43zM340 264l-42 -264h-134l43 268l-157 435h142l102 -311l205 311h147z" />
    <glyph glyph-name="Zacute" unicode="&#x179;" horiz-adv-x="558" 
d="M343 748l-39 64l186 135l51 -86zM581 602l-411 -489h330l-24 -113h-486l17 102l401 488h-296l18 113h468z" />
    <glyph glyph-name="zacute" unicode="&#x17a;" horiz-adv-x="429" 
d="M400 724l-117 -164l-62 40l99 178zM435 436l-284 -338h226l-16 -98h-381l14 88l283 338h-211l15 98h368z" />
    <glyph glyph-name="Zdotaccent" unicode="&#x17b;" horiz-adv-x="558" 
d="M459 849q0 -34 -21 -57.5t-58 -23.5q-32 0 -50.5 19t-18.5 53q0 35 21 58.5t56 23.5q32 0 51.5 -19.5t19.5 -53.5zM581 602l-411 -489h330l-24 -113h-486l17 102l401 488h-296l18 113h468z" />
    <glyph glyph-name="zdotaccent" unicode="&#x17c;" horiz-adv-x="429" 
d="M362 678q0 -34 -21 -57.5t-58 -23.5q-32 0 -50.5 19t-18.5 53q0 35 21 58.5t56 23.5q32 0 51.5 -19.5t19.5 -53.5zM435 436l-284 -338h226l-16 -98h-381l14 88l283 338h-211l15 98h368z" />
    <glyph glyph-name="Zcaron" unicode="&#x17d;" horiz-adv-x="558" 
d="M363 748l-145 136l63 66l104 -93l128 93l45 -57zM581 602l-411 -489h330l-24 -113h-486l17 102l401 488h-296l18 113h468z" />
    <glyph glyph-name="zcaron" unicode="&#x17e;" horiz-adv-x="427" 
d="M265 583l-145 136l63 66l104 -93l128 93l45 -57zM435 436l-284 -338h226l-16 -98h-381l14 88l283 338h-211l15 98h368z" />
    <glyph glyph-name="florin" unicode="&#x192;" horiz-adv-x="537" 
d="M498 658q-8 6 -22.5 12t-37.5 6q-20 0 -32.5 -5.5t-22.5 -17.5q-9 -11 -14 -26.5t-10 -47.5l-9 -55h100l-16 -98h-100l-73 -465q-5 -28 -9.5 -49t-10 -37t-13 -28.5t-17.5 -24.5q-26 -29 -58 -40.5t-79 -11.5q-42 0 -66 6t-34 11l15 98q6 -5 20.5 -11.5t39.5 -6.5
q41 0 55.5 23t22.5 71l73 465h-54l16 98h54l9 55q8 51 18 82.5t32 56.5q26 29 58 40.5t79 11.5q42 0 66 -6t34 -11z" />
    <glyph glyph-name="uni01F5" unicode="&#x1f5;" horiz-adv-x="541" 
d="M286 583l-39 64l186 135l51 -86zM437 9q-10 -62 -23 -101t-40 -70q-32 -36 -76.5 -52t-109.5 -16q-62 0 -110.5 12t-74.5 29l18 113q15 -17 49 -34.5t90 -17.5q42 0 67.5 11t42.5 31q18 22 25.5 50.5t12.5 59.5l7 40q3 19 4.5 27.5t2.5 12.5t1 6.5t2 10.5q-8 -18 -22 -40
t-32 -40q-29 -29 -55.5 -38t-51.5 -9q-66 0 -98.5 44t-32.5 143q0 53 11 114.5t38 114t74 87.5t119 35q45 0 71 -11.5t37 -22.5l4 26h131zM367 416q-20 15 -60 15q-34 0 -57 -13.5t-38 -35.5q-18 -26 -31.5 -71.5t-13.5 -105.5q0 -40 10 -67.5t43 -27.5q12 0 30.5 8t41.5 38
q19 24 32.5 53.5t18.5 57.5z" />
    <glyph glyph-name="uni0218" unicode="&#x218;" horiz-adv-x="460" 
d="M230 -55q-9 -51 -21 -87q-9 -30 -18.5 -51.5t-14.5 -28.5l-5 -7h-73q27 93 27 168v6h105zM458 541q-20 27 -57.5 44t-86.5 17q-56 0 -77 -22t-21 -54q0 -26 12 -43.5t42 -42.5l54 -45q30 -25 49.5 -46.5t31.5 -43t17 -44t5 -49.5q0 -36 -10 -75.5t-38 -72.5t-78 -54
t-129 -21q-63 0 -109 13.5t-68 34.5l15 129q19 -32 62 -49.5t94 -17.5q34 0 57 8t36.5 21.5t19 31t5.5 37.5q0 22 -10 40.5t-44 45.5l-59 47q-54 43 -76 83t-22 91q0 37 11 74t38 67t72.5 48.5t113.5 18.5q55 0 100.5 -12.5t69.5 -34.5z" />
    <glyph glyph-name="uni0219" unicode="&#x219;" horiz-adv-x="391" 
d="M210 -55q-9 -51 -21 -87q-9 -30 -18.5 -51.5t-14.5 -28.5l-5 -7h-73q27 93 27 168v6h105zM368 382q-17 17 -49 32t-74 15q-35 0 -49 -12t-14 -32q0 -18 10 -28.5t31 -25.5l47 -34q16 -12 30.5 -24.5t25.5 -28.5t17.5 -37.5t6.5 -50.5q0 -32 -9.5 -61.5t-31.5 -52.5
t-58.5 -37t-91.5 -14q-54 0 -95 12t-64 27l16 118q19 -21 54.5 -38t83.5 -17q12 0 24.5 2t22 7t16 15t6.5 27q0 20 -10.5 30.5t-33.5 26.5l-44 31q-37 26 -58.5 57.5t-21.5 82.5q0 46 17 77t44 49.5t59.5 26t64.5 7.5q36 0 75.5 -9.5t68.5 -29.5z" />
    <glyph glyph-name="uni021A" unicode="&#x21a;" horiz-adv-x="521" 
d="M261 -55q-9 -51 -21 -87q-9 -30 -18.5 -51.5t-14.5 -28.5l-5 -7h-73q27 93 27 168v6h105zM558 590h-176l-94 -590h-137l94 590h-185l18 113h503z" />
    <glyph glyph-name="uni021B" unicode="&#x21b;" horiz-adv-x="324" 
d="M202 -55q-9 -51 -21 -87q-9 -30 -18.5 -51.5t-14.5 -28.5l-5 -7h-73q27 93 27 168v6h105zM343 426h-120l-34 -219q-2 -12 -5 -32.5t-3 -34.5q0 -8 2 -16.5t8 -15.5t16.5 -11t27.5 -4q21 0 36 5.5t23 12.5l-19 -100q-14 -9 -40.5 -14.5t-56.5 -5.5q-49 0 -76 13.5
t-40 32.5t-15.5 38t-2.5 31q0 26 3 47.5t6 42.5l36 230h-54l16 98h54l14 89l139 28l-19 -117h120z" />
    <glyph glyph-name="circumflex" unicode="&#x2c6;" horiz-adv-x="500" 
d="M452 583l-110 92l-146 -92l-37 58l199 150l145 -150z" />
    <glyph glyph-name="caron" unicode="&#x2c7;" horiz-adv-x="360" 
d="M145 583l-145 136l63 66l104 -93l128 93l45 -57z" />
    <glyph glyph-name="breve" unicode="&#x2d8;" horiz-adv-x="485" 
d="M526 716q-11 -22 -28 -43.5t-40 -39t-52.5 -28t-65.5 -10.5q-34 0 -60.5 10t-45.5 26.5t-31.5 37.5t-18.5 43l73 43q4 -13 11 -26.5t18 -24t25.5 -17t34.5 -6.5q37 0 65.5 22t44.5 52l70 -39v0z" />
    <glyph glyph-name="dotaccent" unicode="&#x2d9;" horiz-adv-x="485" 
d="M426 678q0 -34 -21 -57.5t-58 -23.5q-32 0 -50.5 19t-18.5 53q0 35 21 58.5t56 23.5q32 0 51.5 -19.5t19.5 -53.5z" />
    <glyph glyph-name="ring" unicode="&#x2da;" horiz-adv-x="485" 
d="M446 691q0 -29 -10 -53.5t-27 -41.5t-41 -26.5t-51 -9.5q-48 0 -79.5 28.5t-31.5 81.5q0 29 10 53t27.5 41t41.5 26.5t53 9.5q50 0 79 -29t29 -80zM381 687q0 29 -15 41t-35 12q-28 0 -44 -19t-16 -48t15 -41.5t35 -12.5q28 0 44 19.5t16 48.5z" />
    <glyph glyph-name="ogonek" unicode="&#x2db;" horiz-adv-x="227" 
d="M179 -204q-15 -8 -37 -12t-43 -4q-54 0 -76.5 26.5t-22.5 65.5q0 30 11 53.5t27.5 41.5t36 31.5t37.5 22.5h95q-57 -33 -84 -59t-27 -60q0 -42 43 -42q14 0 29.5 4.5t26.5 12.5z" />
    <glyph glyph-name="tilde" unicode="&#x2dc;" horiz-adv-x="485" 
d="M538 709q-8 -18 -19.5 -36.5t-26.5 -33.5t-33 -24.5t-40 -9.5t-49 13l-23 11q-13 6 -21 8t-14 2q-18 0 -32 -10.5t-22 -24.5l-47 34q10 18 22 36.5t27 32.5t33 23t38 9q10 0 21 -2.5t26 -10.5l23 -11q21 -10 35 -10q16 0 28 10t19 25l55 -31v0z" />
    <glyph glyph-name="hungarumlaut" unicode="&#x2dd;" horiz-adv-x="432" 
d="M366 728l-117 -164l-62 40l99 178zM179 728l-117 -164l-62 40l99 178z" />
    <glyph glyph-name="endash" unicode="&#x2013;" horiz-adv-x="496" 
d="M489 216h-500l18 105h500z" />
    <glyph glyph-name="emdash" unicode="&#x2014;" horiz-adv-x="1000" 
d="M991 216h-1000l18 105h1000z" />
    <glyph glyph-name="afii00208" unicode="&#x2015;" horiz-adv-x="324" 
d="M329 524l-16 -98h-308l16 98h308z" />
    <glyph glyph-name="quoteleft" unicode="&#x2018;" horiz-adv-x="248" 
d="M288 739q-14 -24 -25.5 -51t-20.5 -58.5t-16 -68.5t-11 -83h-139q2 48 14.5 92.5t30.5 83t39.5 70.5t41.5 55l86 -40v0z" />
    <glyph glyph-name="quoteright" unicode="&#x2019;" horiz-adv-x="248" 
d="M292 770q-2 -48 -14.5 -92.5t-30.5 -83t-39.5 -70.5t-41.5 -55l-86 40q13 24 25 51t21 58.5t16 68.5t11 83h139v0z" />
    <glyph glyph-name="quotesinglbase" unicode="&#x201a;" horiz-adv-x="248" 
d="M182 141q-2 -48 -14.5 -92.5t-30.5 -83t-39.5 -70.5t-41.5 -55l-86 40q13 24 25 51t21 58.5t16 68.5t11 83h139v0z" />
    <glyph glyph-name="quotedblleft" unicode="&#x201c;" horiz-adv-x="458" 
d="M288 739q-14 -24 -25.5 -51t-20.5 -58.5t-16 -68.5t-11 -83h-139q2 48 14.5 92.5t30.5 83t39.5 70.5t41.5 55l86 -40v0zM498 739q-14 -24 -25.5 -51t-20.5 -58.5t-16 -68.5t-11 -83h-139q2 48 14.5 92.5t30.5 83t39.5 70.5t41.5 55l86 -40v0z" />
    <glyph glyph-name="quotedblright" unicode="&#x201d;" horiz-adv-x="458" 
d="M292 770q-2 -48 -14.5 -92.5t-30.5 -83t-39.5 -70.5t-41.5 -55l-86 40q13 24 25 51t21 58.5t16 68.5t11 83h139v0zM502 770q-2 -48 -14.5 -92.5t-30.5 -83t-39.5 -70.5t-41.5 -55l-86 40q13 24 25 51t21 58.5t16 68.5t11 83h139v0z" />
    <glyph glyph-name="quotedblbase" unicode="&#x201e;" horiz-adv-x="458" 
d="M182 141q-2 -48 -14.5 -92.5t-30.5 -83t-39.5 -70.5t-41.5 -55l-86 40q13 24 25 51t21 58.5t16 68.5t11 83h139v0zM392 141q-2 -48 -14.5 -92.5t-30.5 -83t-39.5 -70.5t-41.5 -55l-86 40q13 24 25 51t21 58.5t16 68.5t11 83h139v0z" />
    <glyph glyph-name="dagger" unicode="&#x2020;" horiz-adv-x="492" 
d="M456 428l-156 39l11 -146l-16 -96l-98 -374h-58l20 380l16 95l58 141l-170 -39l22 134l157 -39l-12 180h151l-72 -180l169 39z" />
    <glyph glyph-name="daggerdbl" unicode="&#x2021;" horiz-adv-x="492" 
d="M466 428l-155 39l11 -142l-14 -88l-60 -150l169 39l-23 -134l-155 39l12 -180h-151l72 180l-170 -39l23 134l156 -39l-11 160l14 86l62 135l-172 -40l23 134l156 -39l-12 180h151l-72 -180l169 39z" />
    <glyph glyph-name="bullet" unicode="&#x2022;" horiz-adv-x="558" 
d="M438 292q0 -32 -12.5 -60.5t-33.5 -49.5t-49.5 -33.5t-59.5 -12.5q-32 0 -59.5 12.5t-48.5 33.5t-33 49.5t-12 60.5t12 60t32.5 49t48.5 33.5t60 12.5t60 -12.5t49 -33.5t33.5 -49t12.5 -60z" />
    <glyph glyph-name="ellipsis" unicode="&#x2026;" horiz-adv-x="811" 
d="M168 80q0 -38 -23.5 -65t-64.5 -27q-35 0 -55.5 21t-20.5 59q0 40 23 66t62 26q34 0 56.5 -21t22.5 -59zM467 80q0 -38 -23.5 -65t-64.5 -27q-35 0 -55.5 21t-20.5 59q0 40 23 66t62 26q34 0 56.5 -21t22.5 -59zM758 80q0 -38 -23.5 -65t-64.5 -27q-35 0 -55.5 21
t-20.5 59q0 40 23 66t62 26q34 0 56.5 -21t22.5 -59z" />
    <glyph glyph-name="perthousand" unicode="&#x2030;" horiz-adv-x="1131" 
d="M1106 169q0 -38 -12.5 -70.5t-35.5 -57t-56 -38.5t-74 -14q-37 0 -66 11.5t-49 32.5t-30.5 50t-10.5 63q0 39 13 71.5t36.5 55.5t56.5 36t72 13q73 0 114.5 -42t41.5 -111zM389 558q0 -38 -12.5 -70.5t-35.5 -57t-56 -38.5t-74 -14q-37 0 -66 11.5t-49 32.5t-30.5 50
t-10.5 63q0 39 13 71.5t36.5 55.5t56.5 36t72 13q73 0 114.5 -42t41.5 -111zM132 0h-112l629 706h111zM731 169q0 -38 -12.5 -70.5t-35.5 -57t-56 -38.5t-74 -14q-37 0 -66 11.5t-49 32.5t-30.5 50t-10.5 63q0 39 13 71.5t36.5 55.5t56.5 36t72 13q73 0 114.5 -42t41.5 -111
zM1011 162q0 17 -3.5 33t-11.5 28t-21 19.5t-32 7.5q-40 0 -58 -30t-18 -72q0 -34 14 -59.5t52 -25.5q40 0 59 29t19 70zM294 551q0 17 -3.5 33t-11.5 28t-21 19.5t-32 7.5q-40 0 -58 -30t-18 -72q0 -34 14 -59.5t52 -25.5q40 0 59 29t19 70zM636 162q0 17 -3.5 33t-11.5 28
t-21 19.5t-32 7.5q-40 0 -58 -30t-18 -72q0 -34 14 -59.5t52 -25.5q40 0 59 29t19 70z" />
    <glyph glyph-name="guilsinglleft" unicode="&#x2039;" horiz-adv-x="287" 
d="M165 261l51 -207h-101l-74 209l136 188h110z" />
    <glyph glyph-name="guilsinglright" unicode="&#x203a;" horiz-adv-x="287" 
d="M110 54h-110l122 190l-51 207h101l74 -209z" />
    <glyph glyph-name="fraction" unicode="&#x2044;" horiz-adv-x="500" 
d="M86 0h-99l511 703h97z" />
    <glyph glyph-name="Euro" unicode="&#x20ac;" horiz-adv-x="537" 
d="M566 551q-13 18 -44 34t-86 16q-70 0 -115 -32.5t-71 -103.5h245l-35 -90h-235q-2 -17 -3.5 -30t-1.5 -30h218l-36 -90h-183q3 -24 10 -46t22 -39t40.5 -27.5t64.5 -10.5q45 0 81.5 12t58.5 29l-28 -129q-20 -10 -55 -17.5t-80 -7.5q-72 0 -118.5 21.5t-75 55.5t-40.5 76
t-15 83h-95l34 90h63q1 29 8 60h-64l35 90h50q14 51 38 93t64 78q42 37 93 56.5t120 19.5q34 0 60 -4.5t45.5 -11.5t33 -15t21.5 -15z" />
    <glyph glyph-name="trademark" unicode="&#x2122;" horiz-adv-x="852" 
d="M756 309v289q-8 -28 -16 -51l-91 -238h-66l-87 236q-3 8 -7.5 22t-7.5 26v-284h-70v394h111l89 -248q3 -9 6.5 -23t5.5 -25q4 14 7.5 26.5t7.5 23.5l92 246h102v-394h-76zM255 635v-326h-81v326h-104v68h291v-68h-106z" />
    <glyph glyph-name="uni2139" unicode="&#x2139;" horiz-adv-x="659" 
d="M477 744q0 -32 -12.5 -61t-34 -50.5t-50 -34t-60.5 -12.5q-33 0 -61.5 12.5t-49.5 34t-33.5 50.5t-12.5 61t12.5 60.5t34 49.5t50 33.5t60.5 12.5t60.5 -12.5t50 -33.5t34 -49.5t12.5 -60.5zM120 0v39h58q9 0 14.5 6.5t5.5 12.5v426q0 15 -18 15h-60v40h322v-483
q0 -5 3.5 -11t11.5 -6h82v-39h-419z" />
    <glyph glyph-name="arrowleft" unicode="&#x2190;" horiz-adv-x="703" 
d="M177 299l260 -259h-125l-312 311l312 312h125l-260 -260h526v-104h-526z" />
    <glyph glyph-name="arrowup" unicode="&#x2191;" horiz-adv-x="623" 
d="M363 526v-526h-104v526l-259 -260v125l311 312l312 -312v-125z" />
    <glyph glyph-name="arrowright" unicode="&#x2192;" horiz-adv-x="703" 
d="M391 40h-125l260 260h-526v104h526l-260 259h125l312 -311z" />
    <glyph glyph-name="arrowdown" unicode="&#x2193;" horiz-adv-x="623" 
d="M312 0l-312 312v125l260 -260v526h104v-526l259 260v-125z" />
    <glyph glyph-name="uni2196" unicode="&#x2196;" horiz-adv-x="533" 
d="M460 66l-372 372v-367l-88 88v441h441l88 -89h-367l371 -372z" />
    <glyph glyph-name="uni2197" unicode="&#x2197;" horiz-adv-x="534" 
d="M445 71v367l-372 -371l-73 73l372 371h-367l88 89h441v-441z" />
    <glyph glyph-name="uni2198" unicode="&#x2198;" horiz-adv-x="533" 
d="M92 103l-88 89h367l-371 372l73 73l371 -372v367l89 -88v-441h-441z" />
    <glyph glyph-name="uni2199" unicode="&#x2199;" horiz-adv-x="534" 
d="M162 191h367l-88 -88h-441v441l89 88v-367l372 371l73 -73z" />
    <glyph glyph-name="minus" unicode="&#x2212;" horiz-adv-x="640" 
d="M33 310v86h594v-86h-594z" />
    <glyph glyph-name="uni2219" unicode="&#x2219;" horiz-adv-x="290" 
d="M240 300q0 -40 -23 -65.5t-65 -25.5q-40 0 -63.5 24t-23.5 67q0 42 23.5 67t62.5 25q38 0 63.5 -24t25.5 -68z" />
    <glyph glyph-name="notequal" unicode="&#x2260;" horiz-adv-x="640" 
d="M304 183l-85 -166l-78 30l70 136h-178v87h223l84 163h-307v87h351l82 159l78 -31l-66 -128h149v-87h-193l-84 -163h277v-87h-323z" />
    <glyph glyph-name="lessequal" unicode="&#x2264;" horiz-adv-x="711" 
d="M33 409v53l665 294v-94l-524 -225l524 -224v-97zM33 0v86h665v-86h-665z" />
    <glyph glyph-name="greaterequal" unicode="&#x2265;" horiz-adv-x="711" 
d="M33 116v97l524 224l-524 225v94l665 -294v-53zM33 0v86h665v-86h-665z" />
    <glyph glyph-name="SF100000" unicode="&#x2500;" horiz-adv-x="500" 
d="M0 0v35h500v-35h-500z" />
    <glyph glyph-name="uni254C" unicode="&#x254c;" horiz-adv-x="500" 
d="M0 0v35h250v-35h-250z" />
    <glyph glyph-name="uni25A3" unicode="&#x25a3;" horiz-adv-x="703" 
d="M0 0v703h703v-703h-703zM631 631h-559v-559h559v559zM156 156v391h391v-391h-391z" />
    <glyph glyph-name="uni25B6" unicode="&#x25b6;" horiz-adv-x="703" 
d="M-1 0v703l703 -352z" />
    <glyph glyph-name="uni25C0" unicode="&#x25c0;" horiz-adv-x="703" 
d="M0 351l703 352v-703z" />
    <glyph glyph-name="lozenge" unicode="&#x25ca;" horiz-adv-x="531" 
d="M273 2l-252 368l254 382l252 -367zM274 649l-183 -277l183 -272l180 282z" />
    <glyph glyph-name="uni25FC" unicode="&#x25fc;" horiz-adv-x="703" 
d="M0 0v703h703v-703h-703z" />
    <glyph glyph-name="uni25FD" unicode="&#x25fd;" horiz-adv-x="703" 
d="M631 72h-559v559h559v-559z" />
    <glyph glyph-name="uni25FE" unicode="&#x25fe;" horiz-adv-x="703" 
d="M156 156v391h391v-391h-391z" />
    <glyph glyph-name="uni260E" unicode="&#x260e;" horiz-adv-x="955" 
d="M955 484q2 -26 -5 -44.5t-16 -26.5q-8 -8 -24.5 -13t-50.5 -5q-149 0 -149 116v19q73 -41 151 -41q43 0 93 17zM954 543q-23 -8 -45.5 -12.5t-45.5 -4.5q-37 0 -76 11.5t-77 34.5v11q0 76 -235 76q-230 0 -230 -76v-11q-80 -40 -157 -40q-22 0 -43.5 3t-44.5 8
q7 43 20.5 82t35.5 74q55 20 101.5 32.5t99.5 21.5q105 18 221 18q114 0 219 -18q53 -9 100.5 -22t100.5 -32q22 -39 35.5 -78t20.5 -78zM106 0v119q0 77 51 158l132 212v95l112 14v-83h153v83l112 -14v-95l132 -212q51 -81 51 -158v-119h-743zM245 511q0 -110 -149 -110
q-56 0 -76 17t-20 65v24q42 -12 90 -12q42 0 80.5 9.5t74.5 29.5v-23zM648 301q0 25 -13.5 47.5t-37 39t-54.5 26t-66 9.5t-66 -9.5t-54 -26t-36.5 -39t-13.5 -47.5q0 -26 13.5 -48t36.5 -38.5t54 -26t66 -9.5t66 9.5t54.5 26t37 38.5t13.5 48z" />
    <glyph glyph-name="uni2610" unicode="&#x2610;" horiz-adv-x="703" 
d="M0 0v703h703v-703h-703zM631 631h-559v-559h559v559z" />
    <glyph glyph-name="uni2611" unicode="&#x2611;" horiz-adv-x="703" 
d="M802 718q-53 -44 -99 -93v-625h-703v703h703v-17q20 15 41 30.5t44 29.5zM631 542q-8 -11 -16 -20t-20 -24q-24 -30 -49.5 -66.5t-50.5 -77t-48.5 -83t-42.5 -83.5l-90 -52l-172 298l89 52l116 -200q33 60 87.5 131.5t124.5 143.5q16 17 34 33.5t38 33.5v3h-559v-559h559
v470z" />
    <glyph glyph-name="uni2612" unicode="&#x2612;" horiz-adv-x="703" 
d="M0 0v703h703v-703h-703zM631 631h-559v-559h559v559zM504 138l-153 153l-152 -153l-61 61l153 152l-153 153l61 61l152 -153l153 153l61 -61l-153 -153l153 -152z" />
    <glyph glyph-name="uni26A0" unicode="&#x26a0;" horiz-adv-x="1020" 
d="M1020 58q0 -24 -17 -41t-42 -17h-902q-25 0 -42 17t-17 43q0 16 7 29l449 776q8 14 22 24.5t32 10.5q17 0 30.5 -9t21.5 -23l449 -777q4 -7 6.5 -15t2.5 -18zM510 782l-400 -693h800zM545 333q-2 -16 -9 -30t-26 -14t-26.5 14t-9.5 30l-27 231q-2 16 0.5 33t10 31
t20.5 22.5t32 8.5t32 -8.5t20 -22.5t9.5 -31t0.5 -33zM567 180q0 -24 -17 -41t-41 -17t-41.5 17t-17.5 41t17.5 41t41.5 17t41 -17t17 -41z" />
    <glyph glyph-name="uni2702" unicode="&#x2702;" horiz-adv-x="1170" 
d="M1170 -124q-36 -10 -72.5 -13.5t-70.5 -3.5q-54 0 -125 7.5t-161 24.5q-61 11 -107 22t-82.5 21.5t-65.5 20.5t-54 20q-16 -12 -28.5 -20.5t-27.5 -14.5t-33.5 -8.5t-46.5 -2.5q-15 0 -33.5 1t-38.5 3q17 -12 26.5 -25.5t9.5 -32.5q0 -22 -11.5 -38.5t-30.5 -29.5
q-23 -16 -49 -22t-50 -6q-26 0 -51.5 7.5t-44.5 24.5q-23 20 -23 52q0 19 7 32.5t18.5 22.5t26 15t29.5 11q30 10 60.5 16.5t73.5 14.5t71.5 14.5t54.5 19.5q-30 14 -58.5 21t-67.5 14q-30 5 -49 9t-33.5 7t-26 6t-25.5 8q-35 11 -58 28.5t-23 52.5q0 32 23 52
q19 17 44.5 24.5t51.5 7.5q24 0 50 -6t49 -22q19 -13 30.5 -29.5t11.5 -38.5q0 -19 -9.5 -32t-26.5 -25q20 2 38.5 3t33.5 1q28 0 46.5 -2.5t33.5 -8.5t27.5 -14.5t28.5 -20.5q25 10 60.5 21.5t76.5 22.5t85 21t87 18q87 15 153 24t129 9q38 0 74.5 -4t72.5 -14l-593 -133z
M210 141q0 13 -10.5 24.5t-29.5 18.5q-10 4 -23.5 6.5t-28.5 2.5q-34 0 -49 -12t-15 -29q0 -16 10.5 -24t22.5 -13q27 -11 55 -11q10 0 22 2t22.5 6.5t17 11.5t6.5 17zM210 -122q0 10 -6.5 17t-17 11.5t-22.5 6.5t-22 2q-28 0 -55 -11q-12 -5 -22.5 -13t-10.5 -23
q0 -17 15 -30t48 -13q16 0 29.5 3t23.5 7q40 15 40 43z" />
    <glyph glyph-name="uni2706" unicode="&#x2706;" horiz-adv-x="900" 
d="M900 393q0 -93 -35.5 -175t-96.5 -143t-143 -96.5t-175 -35.5t-175 35.5t-143 96.5t-96.5 143t-35.5 175t35.5 175t96.5 143t143 96.5t175 35.5t175 -35.5t143 -96.5t96.5 -143t35.5 -175zM865 393q0 85 -32.5 161t-89 132.5t-132 89.5t-161.5 33t-161.5 -33t-132 -89.5
t-89 -132.5t-32.5 -161q0 -86 32.5 -161.5t89 -132t132 -89t161.5 -32.5t161.5 32.5t132 89t89 132t32.5 161.5zM442 668q14 -52 0 -81t-52 -39l-12 -3q15 55 0 108q-5 16 -11.5 30t-16.5 29l15 4q35 9 51 -1t26 -47zM496 70q-30 -3 -58.5 -1t-55.5 10q-23 32 -41.5 65
t-30.5 59q-14 31 -27 67.5t-24 76.5q-12 48 -18 81.5t-9 67.5q-6 71 0 144q43 42 94 65q11 -16 17 -29.5t10 -27.5q13 -51 -3 -111l-7 -2q-51 -15 -9 -171q20 -75 43 -110.5t49 -27.5l7 2q22 -25 35 -50t19 -47q3 -11 5.5 -27.5t3.5 -33.5zM576 105q-8 -17 -40 -25l-16 -4
q1 27 -8 62q-8 30 -21 51.5t-33 44.5l16 4q74 18 100 -80q5 -21 5 -33.5t-3 -19.5z" />
    <glyph glyph-name="uni2709" unicode="&#x2709;" horiz-adv-x="1055" 
d="M0 0v779h1055v-779h-1055zM1020 721l-322 -341l322 -322v663zM60 744l385 -409h164l385 409h-934zM675 354l-51 -54h-194l-50 54l-320 -319h934zM34 721v-663l322 322z" />
    <glyph glyph-name="uni270E" unicode="&#x270e;" horiz-adv-x="900" 
d="M628 133l-628 628l139 139l628 -628l133 -272zM134 849l-27 -28l582 -582l28 27zM748 253l-101 -100l131 -68l37 37zM79 793l-28 -27l583 -583l28 28z" />
    <glyph glyph-name="uni2713" unicode="&#x2713;" horiz-adv-x="703" 
d="M802 718q-45 -38 -98.5 -94t-108.5 -126q-60 -77 -107.5 -154.5t-84.5 -155.5l-90 -52l-172 298l89 52l116 -200q33 60 87.5 131.5t124.5 143.5q45 45 102.5 92.5t126.5 92.5z" />
    <glyph glyph-name="uni2717" unicode="&#x2717;" horiz-adv-x="703" 
d="M504 138l-153 153l-152 -153l-61 61l153 152l-153 153l61 61l152 -153l153 153l61 -61l-153 -153l153 -152z" />
    <glyph glyph-name="uni2794" unicode="&#x2794;" horiz-adv-x="703" 
d="M391 40h-196l243 243h-438v138h438l-243 242h196l312 -311z" />
    <glyph glyph-name="uniE003" unicode="&#xe003;" horiz-adv-x="199" 
d="M179 724l-117 -164l-62 40l99 178z" />
    <glyph glyph-name="uniE719" unicode="&#xe719;" horiz-adv-x="152" 
d="M132 725q-9 -51 -21 -87q-9 -30 -18.5 -51.5t-14.5 -28.5l-5 -7h-73q27 93 27 168v6h105z" />
    <glyph glyph-name="uniE784" unicode="&#xe784;" horiz-adv-x="152" 
d="M132 757q-27 -93 -27 -168v-6h-105q9 51 21 87q9 30 18.5 51.5t14.5 28.5l5 7h73z" />
    <glyph glyph-name="uniF6BE" unicode="&#xf6be;" horiz-adv-x="257" 
d="M241 524l-97 -606q-13 -78 -57 -113t-127 -35q-53 0 -87 13l17 100q30 -14 56 -14q34 0 47.5 20t21.5 66l92 569h134z" />
    <glyph glyph-name="exclam" unicode="!" horiz-adv-x="274" 
d="M182 198h-119l72 487l134 18zM182 76q0 -35 -21.5 -59t-59.5 -24q-32 0 -51.5 19t-19.5 54q0 37 21.5 61t57.5 24q32 0 52.5 -20t20.5 -55z" />
    <glyph glyph-name="quotedbl" unicode="&#x22;" horiz-adv-x="326" 
d="M142 487h-72l21 216h98zM289 487h-72l21 216h98z" />
    </font>
</defs>
</svg>
