<?xml version="1.0" standalone="no"?>
<!DOCTYPE svg PUBLIC "-//W3C//DTD SVG 1.1//EN" "http://www.w3.org/Graphics/SVG/1.1/DTD/svg11.dtd" >
<svg>
<metadata>
Created by FontForge 20120731 at Mon Nov 17 03:26:07 2014
 By Orthosie Webhosting
(c) Copyright: Gerard Unger, 2005. Exclusive design for Allianz International. Webfonts produced by Just Another Foundry in 2011. Unauthorised use strictly prohibited. Allianz Sans and Allianz Serif are trademarks of Allianz International, that may be registered in some jurisdictions. ALL RIGHTS RESERVED.
</metadata>
<defs>
<font id="" horiz-adv-x="535" >
  <font-face 
    font-family=""
    font-weight="400"
    font-stretch="normal"
    units-per-em="1000"
    panose-1="2 0 5 6 3 0 0 2 0 4"
    ascent="770"
    descent="-230"
    x-height="517"
    cap-height="703"
    bbox="-46 -230 1170 946"
    underline-thickness="64"
    underline-position="-38"
    unicode-range="U+0020-FB02"
  />
<missing-glyph horiz-adv-x="200" 
 />
    <glyph glyph-name="fi" unicode="fi" horiz-adv-x="510" 
d="M450 685q0 -29 -16.5 -40.5t-39.5 -11.5q-28 0 -39.5 14t-11.5 37v8q-5 4 -21 6.5t-36 2.5q-40 0 -62 -12t-33 -34q-8 -15 -9.5 -33t-1.5 -32v-73h261v-517h-94v448h-167v-448h-93v448h-54v69h54v69q0 30 6.5 62.5t27.5 59.5t59 44.5t101 17.5q39 0 75 -7t59 -21
q35 -20 35 -57z" />
    <glyph glyph-name="fl" unicode="fl" horiz-adv-x="515" 
d="M352 0v685q-14 7 -32.5 11t-40.5 4q-42 0 -61.5 -13.5t-27.5 -31.5q-7 -14 -8.5 -31.5t-1.5 -32.5v-74h102v-68h-102v-449h-93v449h-54v68h54v75q0 32 7.5 62.5t28.5 56.5q20 25 55.5 42t91.5 17q29 0 54.5 -4.5t44.5 -9.5l76 14v-770h-93z" />
    <glyph glyph-name=".notdef" horiz-adv-x="200" 
 />
    <glyph glyph-name=".null" horiz-adv-x="0" 
 />
    <glyph glyph-name="nonmarkingreturn" horiz-adv-x="200" 
 />
    <glyph glyph-name="space" unicode=" " horiz-adv-x="200" 
 />
    <glyph glyph-name="numbersign" unicode="#" horiz-adv-x="588" 
d="M576 449h-116l-37 -195h115l-11 -59h-116l-36 -195h-68l37 195h-168l-37 -195h-68l37 195h-115l12 59h114l37 195h-115l11 59h116l37 195h68l-38 -195h169l36 195h69l-38 -195h115zM224 449l-37 -195h168l38 195h-169z" />
    <glyph glyph-name="dollar" unicode="$" horiz-adv-x="525" 
d="M439 189q0 -75 -39.5 -126.5t-119.5 -65.5v-103h-69v97q-57 1 -102 14.5t-66 30.5l-6 97q22 -24 69 -43.5t105 -19.5v252l-32 20q-22 14 -45 29.5t-41.5 37.5t-30.5 51.5t-12 70.5q0 34 9 63.5t28.5 53t50 39.5t73.5 22v90l69 11v-99q45 -2 82 -15t54 -27v-93
q-20 20 -56.5 36t-79.5 20v-229l35 -21q23 -14 45 -30.5t39.5 -39t28.5 -52.5t11 -71zM211 627q-67 -16 -67 -89q0 -40 19 -63.5t48 -41.5v194zM344 182q0 38 -15 62.5t-49 46.5v-213q31 12 47.5 36.5t16.5 67.5z" />
    <glyph glyph-name="percent" unicode="%" horiz-adv-x="618" 
d="M323 558q0 -36 -11.5 -67t-33 -53.5t-52 -35t-68.5 -12.5q-71 0 -114.5 43t-43.5 117q0 36 11.5 66t32.5 51.5t51.5 33.5t68.5 12q73 0 116 -41.5t43 -113.5zM107 0h-79l482 705h79zM618 157q0 -36 -11.5 -66.5t-32.5 -53t-51.5 -35t-68.5 -12.5q-36 0 -65 11.5t-50 32.5
t-32.5 50.5t-11.5 65.5t11.5 65.5t32.5 51.5t51.5 34t68.5 12q72 0 115.5 -42t43.5 -114zM245 554q0 20 -4.5 38t-14.5 32t-26 22.5t-38 8.5q-23 0 -38.5 -8.5t-25.5 -23t-14.5 -33t-4.5 -39.5q0 -20 4.5 -38.5t14 -32t24.5 -21.5t37 -8q45 0 65.5 30.5t20.5 72.5zM540 154
q0 20 -4.5 38.5t-14.5 32t-26 21.5t-38 8q-45 0 -64 -30.5t-19 -72.5q0 -41 18.5 -70.5t62.5 -29.5t64.5 29.5t20.5 73.5z" />
    <glyph glyph-name="ampersand" unicode="&#x26;" horiz-adv-x="698" 
d="M536 0l-42 46q-5 -3 -19 -12t-37 -18.5t-56 -16.5t-75 -7q-45 0 -87.5 10t-75.5 33.5t-53.5 62t-20.5 94.5q0 42 11.5 74.5t29.5 56.5t41 39.5t46 24.5l-10 11q-38 42 -59 78t-21 82q0 24 7.5 51t27 50t53.5 38t87 15q57 0 91 -17t52 -41t23.5 -50.5t5.5 -45.5
q0 -25 -7 -51.5t-22.5 -51.5t-40.5 -47.5t-61 -38.5l178 -203q11 14 18 44t7 72q0 13 -0.5 23t-1.5 17h91v-14q0 -11 -0.5 -27.5t-2.5 -35.5t-6 -39.5t-12 -39.5q-10 -24 -20.5 -39t-15.5 -20l92 -107h-115zM366 556q0 28 -8.5 45.5t-21 27.5t-28 13t-28.5 3q-26 0 -42 -8
t-24.5 -20.5t-11.5 -26.5t-3 -26q0 -20 6 -37.5t15.5 -33t21.5 -30t24 -27.5l16 -18q33 17 58.5 52t25.5 86zM241 334q-13 -6 -26.5 -17t-25 -27t-18.5 -38.5t-7 -50.5q0 -59 36 -97t116 -38q51 0 81.5 13t44.5 25z" />
    <glyph glyph-name="quotesingle" unicode="'" horiz-adv-x="170" 
d="M114 487h-58l-12 216h82z" />
    <glyph glyph-name="parenleft" unicode="(" horiz-adv-x="382" 
d="M374 770q-56 -52 -98 -107t-69.5 -115.5t-41.5 -128.5t-14 -146q0 -84 15.5 -153t44 -129.5t69.5 -114.5t92 -106h-99q-19 15 -37 34q-91 97 -136.5 216.5t-45.5 251.5q0 138 47 255t132 205q9 10 15 15.5t10 9t7 6t8 7.5h101v0z" />
    <glyph glyph-name="parenright" unicode=")" horiz-adv-x="382" 
d="M328 268q0 -138 -47 -255t-132 -205q-9 -10 -15 -15.5t-10 -9t-7.5 -6.5t-7.5 -7h-101q112 103 167.5 222.5t55.5 274.5q0 84 -15.5 153t-44 129.5t-69.5 114t-92 106.5h99q19 -15 37 -34q91 -97 136.5 -216.5t45.5 -251.5z" />
    <glyph glyph-name="asterisk" unicode="*" horiz-adv-x="372" 
d="M315 434l-108 86l21 -139h-82l20 139l-106 -86l-39 66l130 53l-130 55l39 65l106 -85l-20 141h82l-21 -141l108 85l37 -65l-129 -55l129 -53z" />
    <glyph glyph-name="plus" unicode="+" horiz-adv-x="640" 
d="M357 316v-275h-75v275h-259v70h259v271h75v-271h260v-70h-260z" />
    <glyph glyph-name="comma" unicode="," horiz-adv-x="205" 
d="M159 98q0 -31 -6 -63.5t-15.5 -64t-22.5 -60.5t-26 -53l-72 25q19 47 30 90.5t11 92.5v49h101v-16v0z" />
    <glyph glyph-name="hyphen" unicode="-" horiz-adv-x="325" 
d="M41 223v86h243v-86h-243z" />
    <glyph glyph-name="period" unicode="." horiz-adv-x="238" 
d="M185 56q0 -31 -17.5 -50.5t-48.5 -19.5q-30 0 -48 19t-18 51t18 51t47 19t48 -18.5t19 -51.5z" />
    <glyph glyph-name="slash" unicode="/" horiz-adv-x="375" 
d="M88 -177h-88l253 947h89z" />
    <glyph glyph-name="zero" unicode="0" horiz-adv-x="521" 
d="M483 358q0 -191 -57 -280t-170 -89q-110 0 -164 85.5t-54 269.5q0 190 57 279t170 89q111 0 164.5 -85.5t53.5 -268.5zM385 353q0 149 -28 216t-96 67q-69 0 -97 -70t-28 -217q0 -149 28 -216t96 -67q69 0 97 70t28 217z" />
    <glyph glyph-name="one" unicode="1" horiz-adv-x="521" 
d="M236 0v589l-142 -25v77q20 3 44.5 9.5t49 15t46.5 18.5t37 21h61v-705h-96z" />
    <glyph glyph-name="two" unicode="2" horiz-adv-x="521" 
d="M47 0v87q24 22 50 46.5t52.5 50.5t51.5 51.5t46 48.5q22 24 40 48t31.5 49.5t21 53.5t7.5 61q0 24 -5.5 48.5t-20.5 44t-42 32t-70 12.5q-56 0 -94 -18.5t-58 -38.5v94q29 21 75 31.5t93 10.5q39 0 78 -8.5t70.5 -31.5t51.5 -63t20 -103q0 -40 -8.5 -74.5t-26 -67.5
t-43 -65.5t-59.5 -68.5q-30 -32 -72 -72t-83 -75h292v-83h-398z" />
    <glyph glyph-name="three" unicode="3" horiz-adv-x="521" 
d="M452 198q0 -40 -12.5 -77.5t-41 -66.5t-73.5 -46.5t-111 -17.5q-65 0 -107.5 14.5t-63.5 29.5l-6 98q18 -21 59.5 -42t106.5 -21q42 0 71 10t46.5 28t25.5 42t8 52q0 44 -17 69t-41.5 37.5t-53.5 15.5t-53 3h-25v72h19q71 0 108.5 33t37.5 95q0 58 -31.5 83t-84.5 25
q-47 0 -86 -16.5t-62 -40.5v95q20 14 61.5 27.5t99.5 13.5q44 0 81 -10t63.5 -31t41.5 -53.5t15 -77.5q0 -40 -11 -69.5t-28 -50.5t-38.5 -34.5t-42.5 -19.5q28 -2 54 -13t46.5 -31.5t32.5 -51.5t12 -73z" />
    <glyph glyph-name="four" unicode="4" horiz-adv-x="522" 
d="M422 169v-169h-95v169h-306v89l297 448h104v-457h75v-80h-75zM327 589q-5 -11 -16.5 -31.5t-28.5 -45.5l-175 -263h220v340z" />
    <glyph glyph-name="five" unicode="5" horiz-adv-x="521" 
d="M462 227q0 -47 -13.5 -90t-42 -75.5t-74.5 -52t-110 -19.5q-62 0 -101 15t-59 29l-6 98q19 -25 58.5 -44t95.5 -19q42 0 71.5 12t48 33.5t27 50.5t8.5 62q0 30 -7.5 56.5t-24.5 46t-46 30.5t-71 11q-35 0 -72 -8t-63 -24v364h360v-82h-277v-190q12 5 34.5 9.5t53.5 4.5
q61 0 101.5 -19.5t64.5 -50.5t34 -70t10 -78z" />
    <glyph glyph-name="six" unicode="6" horiz-adv-x="521" 
d="M482 230q0 -61 -16.5 -106t-45.5 -74.5t-69 -44t-88 -14.5q-63 0 -104.5 24t-66.5 68t-35.5 106.5t-10.5 139.5q0 95 15 166.5t46.5 119.5t81 72.5t119.5 24.5q57 0 95.5 -13t60.5 -30v-96q-22 26 -61.5 43t-90.5 17q-55 0 -87.5 -20.5t-50 -53t-23 -73.5t-5.5 -81
q20 15 55 29.5t85 14.5q37 0 72.5 -11t63 -36.5t44 -67.5t16.5 -104zM385 220q0 78 -31.5 114t-92.5 36q-41 0 -69.5 -12.5t-46.5 -26.5v-13q0 -53 3 -99t14.5 -80.5t35 -54.5t64.5 -20q18 0 39.5 5.5t40 22t31 47t12.5 81.5z" />
    <glyph glyph-name="seven" unicode="7" horiz-adv-x="521" 
d="M460 649q0 -46 -10.5 -89.5t-39.5 -96.5l-88 -162q-19 -35 -30.5 -63.5t-18 -55t-8.5 -53t-2 -57.5v-72h-97v83q0 66 18.5 123.5t50.5 117.5l72 135q22 41 37.5 75t15.5 63v24h-305v82h405v-54v0z" />
    <glyph glyph-name="eight" unicode="8" horiz-adv-x="521" 
d="M481 175q0 -45 -16 -80t-45.5 -58.5t-71 -35.5t-92.5 -12q-41 0 -80 9t-69 29.5t-48 54.5t-18 84q0 43 13 75.5t34 56.5t47 39.5t52 23.5l-22 13q-19 11 -38 26t-34 35t-24 46t-9 60q0 44 15.5 76.5t42.5 53.5t64 31.5t80 10.5q42 0 78.5 -10t62.5 -30.5t41 -51.5t15 -72
q0 -36 -11 -65t-29 -51t-41 -37t-46 -24l31 -19q21 -13 42 -28t38 -36t27.5 -48.5t10.5 -65.5zM367 546q0 56 -30.5 78t-75.5 22q-54 0 -81.5 -26t-27.5 -75q0 -36 17.5 -61.5t61.5 -51.5l43 -25q17 7 33.5 19t30 29t21.5 39.5t8 51.5zM384 173q0 25 -6.5 43t-18.5 32.5
t-28.5 26t-35.5 22.5l-47 28q-20 -7 -39.5 -19t-36 -31t-26.5 -44t-10 -57t10 -53.5t26.5 -35.5t39 -20t47.5 -6q58 0 91.5 29t33.5 85z" />
    <glyph glyph-name="nine" unicode="9" horiz-adv-x="521" 
d="M474 372q0 -94 -14 -165t-45.5 -119t-81.5 -72.5t-121 -24.5q-60 0 -96.5 14t-56.5 28l-6 98q17 -21 56.5 -41.5t99.5 -20.5q55 0 87 19.5t48.5 52t22.5 73.5t8 83q-22 -17 -57 -30.5t-83 -13.5q-38 0 -73 11t-63 36.5t-44.5 67.5t-16.5 104q0 61 16.5 106t45.5 75
t69.5 44.5t88.5 14.5q62 0 103.5 -24t66.5 -68t35.5 -107t10.5 -141zM376 383q0 53 -3 99.5t-14.5 81t-35 54.5t-65.5 20q-18 0 -39 -5.5t-39.5 -22t-31 -47t-12.5 -81.5q0 -78 31.5 -114t91.5 -36q38 0 67.5 12t49.5 27v12z" />
    <glyph glyph-name="colon" unicode=":" horiz-adv-x="238" 
d="M185 56q0 -31 -17.5 -50.5t-48.5 -19.5q-30 0 -48 19t-18 51t18 51t47 19t48 -18.5t19 -51.5zM185 450q0 -31 -17.5 -50.5t-48.5 -19.5q-30 0 -48 19t-18 51t18 51t47 19t48 -18.5t19 -51.5z" />
    <glyph glyph-name="semicolon" unicode=";" horiz-adv-x="228" 
d="M183 450q0 -31 -17.5 -50.5t-48.5 -19.5q-30 0 -48 19t-18 51t18 51t47 19t48 -18.5t19 -51.5zM168 98q0 -31 -6 -63.5t-15.5 -64t-22.5 -60.5t-26 -53l-72 25q19 47 30 90.5t11 92.5v49h101v-16v0z" />
    <glyph glyph-name="less" unicode="&#x3c;" horiz-adv-x="711" 
d="M23 329v43l665 293v-77l-551 -236l551 -235v-80z" />
    <glyph glyph-name="equal" unicode="=" horiz-adv-x="640" 
d="M23 190v70h594v-70h-594zM23 439v70h594v-70h-594z" />
    <glyph glyph-name="greater" unicode="&#x3e;" horiz-adv-x="711" 
d="M24 37v80l551 235l-551 236v77l665 -293v-43z" />
    <glyph glyph-name="question" unicode="?" horiz-adv-x="443" 
d="M399 534q0 -45 -17.5 -86.5t-62.5 -83.5l-63 -60q-14 -13 -22 -23.5t-12.5 -21t-6 -22t-1.5 -27.5v-35h-87v47q0 35 10 61.5t37 53.5l70 69q30 29 45 58t15 62q0 48 -30.5 78.5t-90.5 30.5q-49 0 -87.5 -18t-63.5 -41v94q30 20 74.5 31.5t91.5 11.5q42 0 78.5 -10.5
t64 -32.5t43 -56t15.5 -80zM233 56q0 -29 -16.5 -48t-45.5 -19t-46 18t-17 48t17 48t45 18t45.5 -17.5t17.5 -47.5z" />
    <glyph glyph-name="at" unicode="@" horiz-adv-x="954" 
d="M905 330q0 -45 -8.5 -88t-27 -81.5t-48 -70t-71.5 -54.5q-46 -25 -89.5 -31.5t-85.5 -6.5q-19 0 -32.5 0.5t-24.5 1.5l21 118q-1 -2 -5 -10.5t-11.5 -20t-18 -25t-23.5 -25.5q-26 -25 -51 -34.5t-53 -9.5q-62 0 -93.5 42.5t-31.5 139.5q0 58 12.5 119.5t41 112t74.5 82.5
t112 32q40 0 66 -10.5t41 -24.5l86 34q-18 -116 -36 -230.5t-37 -230.5q18 1 44 5.5t55 21.5q54 30 82 87t28 145q0 149 -78.5 227t-218.5 78q-40 0 -84.5 -7.5t-88 -25t-83 -46.5t-70 -73t-48.5 -103.5t-18 -138.5q0 -173 92.5 -268.5t274.5 -95.5q87 0 147 18t95 37
l-5 -82q-29 -15 -89 -30.5t-148 -15.5q-113 0 -198 31t-141.5 87.5t-85 135t-28.5 174.5q0 106 33.5 193.5t95 150t147.5 96.5t190 34q83 0 155 -22.5t125 -68t83 -114t30 -159.5zM583 425q-11 11 -31 19.5t-47 8.5q-37 0 -63.5 -15.5t-44.5 -40.5q-17 -24 -27.5 -53.5
t-16.5 -59.5t-8.5 -57.5t-2.5 -46.5q0 -38 6.5 -60t16 -33t21 -14.5t20.5 -3.5q26 0 46.5 14t40.5 40q23 29 40.5 63.5t22.5 63.5z" />
    <glyph glyph-name="A" unicode="A" horiz-adv-x="576" 
d="M476 0l-75 233h-235l-76 -233h-92l238 705h109l231 -705h-100zM309 527q-8 26 -14.5 51.5t-9.5 42.5q-4 -16 -9.5 -36t-16.5 -56l-70 -221h189z" />
    <glyph glyph-name="B" unicode="B" horiz-adv-x="525" 
d="M487 196q0 -60 -25 -104t-74 -67q-30 -14 -69 -19.5t-106 -5.5h-144v703h146q37 0 64 -1.5t47.5 -5t36 -9.5t28.5 -14q70 -44 70 -140q0 -39 -11 -68t-28.5 -49t-39.5 -32t-45 -16q28 -2 55 -12.5t48 -31.5t34 -52.5t13 -75.5zM363 521q0 35 -10.5 56.5t-28.5 33.5
t-42 16t-51 4h-66v-232h58q22 0 46.5 3.5t45.5 16t34.5 36.5t13.5 66zM389 201q0 43 -14 68.5t-36 38t-49 16t-54 3.5h-71v-255h78q28 0 54.5 5t47 19t32.5 39t12 66z" />
    <glyph glyph-name="C" unicode="C" horiz-adv-x="560" 
d="M530 38q-29 -23 -79 -35t-106 -12q-85 0 -144 27.5t-96 75.5t-53.5 112t-16.5 137q0 62 11.5 119t37.5 104q42 75 112.5 110.5t159.5 35.5q60 0 106.5 -13t72.5 -30v-94q-23 23 -67.5 40.5t-104.5 17.5q-107 0 -168.5 -69t-61.5 -213q0 -134 55.5 -207.5t170.5 -73.5
q63 0 108.5 19.5t69.5 44.5z" />
    <glyph glyph-name="D" unicode="D" horiz-adv-x="632" 
d="M597 358q0 -54 -8.5 -103t-27 -90.5t-48 -74.5t-72.5 -54q-49 -24 -103.5 -30t-121.5 -6h-147v703h161q45 0 79 -1.5t62 -6.5t50.5 -13.5t44.5 -21.5q131 -82 131 -302zM498 355q0 98 -27 158.5t-77 87.5q-24 13 -55 18.5t-86 5.5h-87v-547h76q53 0 88 6t62 21
q56 31 81 95t25 155z" />
    <glyph glyph-name="E" unicode="E" horiz-adv-x="460" 
d="M435 0h-366v703h352v-80h-255v-222h212v-79h-212v-242h273z" />
    <glyph glyph-name="F" unicode="F" horiz-adv-x="432" 
d="M166 623v-222h212v-79h-212v-322h-97v703h352v-80h-255z" />
    <glyph glyph-name="G" unicode="G" horiz-adv-x="618" 
d="M558 47q-17 -14 -41 -24.5t-52 -17.5t-57.5 -10.5t-58.5 -3.5q-153 0 -233.5 90.5t-80.5 260.5q0 48 9.5 107.5t41.5 114.5q38 67 108 107.5t177 40.5q61 0 110 -12.5t77 -30.5v-94q-29 29 -79.5 43.5t-104.5 14.5q-68 0 -114 -22t-74 -61t-40.5 -91.5t-12.5 -113.5
q0 -136 56 -206.5t169 -70.5q35 0 62 5.5t42 12.5v226h96v-265v0z" />
    <glyph glyph-name="H" unicode="H" horiz-adv-x="630" 
d="M464 0v320h-298v-320h-97v703h97v-302h298v302h97v-703h-97z" />
    <glyph glyph-name="I" unicode="I" horiz-adv-x="235" 
d="M69 0v703h97v-703h-97z" />
    <glyph glyph-name="J" unicode="J" horiz-adv-x="272" 
d="M205 149q0 -22 -3 -49t-16 -51t-40 -40t-76 -16q-28 0 -47.5 4.5t-26.5 7.5l-7 81q6 -5 20.5 -10.5t36.5 -5.5q40 0 51.5 22t11.5 54v557h96v-554v0z" />
    <glyph glyph-name="K" unicode="K" horiz-adv-x="536" 
d="M423 0l-257 359v-359h-97v703h97v-325l265 325h110l-275 -327l276 -376h-119z" />
    <glyph glyph-name="L" unicode="L" horiz-adv-x="437" 
d="M418 0h-349v703h97v-623h252v-80z" />
    <glyph glyph-name="M" unicode="M" horiz-adv-x="797" 
d="M634 0v639q-1 -14 -3.5 -31t-6.5 -35.5t-8.5 -37t-9.5 -34.5l-168 -501h-88l-167 501q-5 15 -9.5 33t-8.5 36.5t-6.5 36.5t-3.5 32v-639h-86v703h145l162 -490q11 -32 16.5 -61t5.5 -43q1 15 5.5 41.5t17.5 64.5l164 488h143v-703h-94z" />
    <glyph glyph-name="N" unicode="N" horiz-adv-x="634" 
d="M472 0l-266 450q-20 35 -33.5 64.5t-17.5 43.5v-558h-86v703h99l253 -433q23 -40 38 -73t20 -50v556h86v-703h-93z" />
    <glyph glyph-name="O" unicode="O" horiz-adv-x="644" 
d="M609 357q0 -88 -20 -156.5t-57.5 -115.5t-91.5 -71.5t-123 -24.5q-66 0 -118 22.5t-88.5 67.5t-56 111.5t-19.5 153.5q0 88 19.5 156.5t57 115.5t91.5 72t123 25q66 0 118 -23t89 -68t56.5 -111.5t19.5 -153.5zM510 353q0 145 -48 213.5t-139 68.5q-92 0 -140.5 -70
t-48.5 -217q0 -145 47.5 -213.5t138.5 -68.5q92 0 141 70t49 217z" />
    <glyph glyph-name="P" unicode="P" horiz-adv-x="506" 
d="M482 497q0 -51 -13.5 -88t-35 -61.5t-48.5 -39t-54.5 -22.5t-53.5 -10t-44 -2h-67v-274h-97v703h158q66 0 106.5 -8t69.5 -26q40 -25 59.5 -68.5t19.5 -103.5zM383 492q0 50 -14.5 78t-37.5 41.5t-52 16.5t-57 3h-56v-285h53q29 0 58.5 4t53 19t38 44t14.5 79z" />
    <glyph glyph-name="Q" unicode="Q" horiz-adv-x="644" 
d="M619 -135q-20 -13 -53.5 -23.5t-81.5 -10.5q-50 0 -87 12.5t-64 34.5t-44.5 51.5t-27.5 64.5q-108 20 -167 105.5t-59 242.5q0 178 76 274.5t214 96.5q66 0 118.5 -23t89 -67.5t56.5 -110.5t20 -153q0 -79 -17 -144.5t-49 -113.5t-79.5 -76.5t-108.5 -33.5
q16 -38 49.5 -62.5t88.5 -24.5q42 0 74 13t52 27v-79zM510 353q0 145 -48 213.5t-139 68.5q-92 0 -140.5 -70t-48.5 -217q0 -145 47.5 -213.5t138.5 -68.5q92 0 141 70t49 217z" />
    <glyph glyph-name="R" unicode="R" horiz-adv-x="524" 
d="M399 0l-234 326v-326h-96v703h141q59 0 100.5 -5t73.5 -23q79 -45 79 -154q0 -53 -17.5 -90t-45 -60t-61.5 -33t-66 -10l244 -328h-118zM364 513q0 38 -11 61.5t-30 36t-44.5 16.5t-53.5 4h-60v-246h62q26 0 51 5.5t44 19.5t30.5 39t11.5 64z" />
    <glyph glyph-name="S" unicode="S" horiz-adv-x="463" 
d="M429 189q0 -91 -56 -144.5t-168 -53.5q-61 0 -105 14t-67 31l-6 97q23 -23 67.5 -43t105.5 -20q63 0 98.5 27t35.5 86q0 22 -5 37.5t-15 28.5t-25.5 24t-35.5 23l-84 50q-23 13 -45.5 28t-41.5 36t-30.5 50t-11.5 70q0 39 12 72t37.5 57.5t64.5 38.5t94 14
q62 0 101 -14.5t57 -28.5v-93q-19 19 -59 38t-98 19q-115 0 -115 -94q0 -23 6.5 -40t18.5 -29.5t28 -23.5t36 -22l82 -48q23 -14 45 -29t39.5 -36.5t28.5 -51t11 -70.5z" />
    <glyph glyph-name="T" unicode="T" horiz-adv-x="503" 
d="M499 623h-199v-623h-96v623h-199v80h498z" />
    <glyph glyph-name="U" unicode="U" horiz-adv-x="628" 
d="M563 298q0 -42 -1 -75.5t-5.5 -61.5t-13.5 -51t-25 -44q-32 -41 -82 -58.5t-121 -17.5q-68 0 -118 16t-82 53q-33 38 -41.5 89.5t-8.5 126.5v428h96v-459q0 -32 3.5 -63.5t18.5 -56.5t46.5 -41t87.5 -16q57 0 88.5 16.5t46 43t17.5 59.5t3 65v452h91v-405v0z" />
    <glyph glyph-name="V" unicode="V" horiz-adv-x="572" 
d="M336 -3h-103l-234 706h102l166 -515q10 -30 15.5 -54t8.5 -40q3 15 10 41t15 52l168 516h93z" />
    <glyph glyph-name="W" unicode="W" horiz-adv-x="907" 
d="M704 -4h-100l-122 462l-26 104q-7 -29 -13.5 -55.5t-12.5 -47.5l-127 -463h-101l-195 707h104l123 -482q8 -33 14.5 -65t8.5 -49q2 16 9.5 50.5t16.5 67.5l131 478h97l126 -483q9 -35 15.5 -65.5t8.5 -47.5q2 16 8 47t16 67l126 482h94z" />
    <glyph glyph-name="X" unicode="X" horiz-adv-x="577" 
d="M457 0l-177 285l-171 -285h-102l225 362l-211 341h111l166 -269l161 269h100l-215 -345l221 -358h-108z" />
    <glyph glyph-name="Y" unicode="Y" horiz-adv-x="557" 
d="M327 274v-274h-97v270l-232 433h110l174 -344l181 344h102z" />
    <glyph glyph-name="Z" unicode="Z" horiz-adv-x="552" 
d="M150 80h364l-4 -80h-478v68l365 555h-337v80h458v-68z" />
    <glyph glyph-name="bracketleft" unicode="[" horiz-adv-x="324" 
d="M74 -230v1000h176v-66h-87v-868h87v-66h-176z" />
    <glyph glyph-name="backslash" unicode="\" horiz-adv-x="374" 
d="M286 -177l-254 947h88l253 -947h-87z" />
    <glyph glyph-name="bracketright" unicode="]" horiz-adv-x="324" 
d="M74 -230v66h87v868h-87v66h176v-1000h-176z" />
    <glyph glyph-name="asciicircum" unicode="^" horiz-adv-x="557" 
d="M433 234l-156 395l-154 -395h-83l215 524h46l216 -524h-84z" />
    <glyph glyph-name="underscore" unicode="_" horiz-adv-x="500" 
d="M0 -118v39h500v-39h-500z" />
    <glyph glyph-name="grave" unicode="`" horiz-adv-x="500" 
d="M328 583l-193 109l44 69l182 -128z" />
    <glyph glyph-name="a" unicode="a" horiz-adv-x="472" 
d="M318 -4v67q-13 -25 -46.5 -47.5t-89.5 -22.5q-39 0 -67 12.5t-46 34.5t-26.5 50t-8.5 60q0 57 23 89t56.5 48.5t72 20.5t68.5 6l61 3v41q0 14 -1.5 31t-11 31.5t-30 24.5t-57.5 10q-49 0 -81 -16t-49 -35v80q16 14 53.5 27t97.5 13q62 0 96.5 -16t51 -41t20 -54t3.5 -55
v-354zM316 256l-60 -5q-28 -2 -51.5 -7t-41 -15.5t-27 -28.5t-9.5 -45q0 -16 4 -32t13.5 -28.5t26 -20.5t42.5 -8q47 0 75 26.5t28 67.5v96z" />
    <glyph glyph-name="b" unicode="b" horiz-adv-x="527" 
d="M490 262q0 -79 -19.5 -131t-50.5 -83t-69.5 -43.5t-77.5 -12.5q-48 0 -78 13.5t-47 27.5l-79 -41v764l94 14v-312q17 26 49 46.5t86 20.5q48 0 84 -19t60 -53.5t36 -83t12 -107.5zM394 260q0 52 -8.5 87.5t-25 57.5t-39.5 32t-51 10q-50 0 -78.5 -25.5t-28.5 -71.5v-252
q11 -12 34.5 -23.5t61.5 -11.5q135 0 135 197z" />
    <glyph glyph-name="c" unicode="c" horiz-adv-x="432" 
d="M402 29q-21 -17 -58.5 -27.5t-81.5 -10.5q-35 0 -74.5 9.5t-73 37.5t-55.5 79t-22 134q0 51 10.5 100t36.5 87.5t69.5 62.5t110.5 24q41 0 79.5 -9.5t61.5 -27.5v-83q-14 15 -44.5 31t-82.5 16q-20 0 -45.5 -5.5t-48 -25t-37.5 -58t-15 -104.5q0 -42 7.5 -77.5t25.5 -62
t47 -41t72 -14.5q48 0 78 16t46 34z" />
    <glyph glyph-name="d" unicode="d" horiz-adv-x="526" 
d="M366 -4v66q-8 -12 -19.5 -24.5t-28 -22.5t-39 -16.5t-51.5 -6.5q-48 0 -84 19t-60 53.5t-35.5 82.5t-11.5 107q0 79 19.5 131.5t50 83.5t69 43.5t76.5 12.5q45 0 71.5 -12t40.5 -26v269l93 14v-766zM364 418q-11 11 -35 23t-62 12q-69 0 -102 -48t-33 -148
q0 -52 8.5 -87.5t25 -57.5t39 -32t51.5 -10q50 0 79 25.5t29 71.5v251z" />
    <glyph glyph-name="e" unicode="e" horiz-adv-x="486" 
d="M131 247q0 -39 6.5 -73t23.5 -58.5t47 -39t78 -14.5q53 0 88 15.5t55 35.5l-6 -84q-23 -18 -65 -28t-90 -10q-40 0 -81 9.5t-74.5 38t-54.5 79t-21 133.5q0 61 13 111.5t40 86.5t68 56t98 20q65 0 103.5 -25t59 -63t27 -84.5t6.5 -89.5v-16h-321zM359 314q0 26 -4 52
t-15.5 46.5t-32.5 33.5t-55 13q-40 0 -63.5 -17t-36 -40t-16 -47.5t-3.5 -40.5h226z" />
    <glyph glyph-name="f" unicode="f" horiz-adv-x="290" 
d="M301 682q-8 8 -24 12.5t-33 4.5q-37 0 -52 -23q-8 -13 -10 -30.5t-2 -37.5v-91h103v-69h-103v-448h-93v448h-54v69h54v85q0 36 4 65.5t20 52.5q21 31 52.5 40.5t62.5 9.5q32 0 52.5 -5t28.5 -10z" />
    <glyph glyph-name="g" unicode="g" horiz-adv-x="525" 
d="M456 -2q0 -29 -1.5 -50.5t-5 -38.5t-10 -31t-15.5 -27q-18 -25 -41 -40.5t-49 -24.5t-53.5 -12.5t-53.5 -3.5q-63 0 -103 13t-57 26l-5 85q23 -20 61.5 -36.5t93.5 -16.5q35 0 69 10t54 38q17 22 20 49.5t3 47.5v77q-17 -26 -49.5 -47t-86.5 -21q-48 0 -84 19.5
t-59.5 54.5t-35 83t-11.5 105q0 78 19.5 129.5t50 82t68.5 43.5t76 13q45 0 73 -13t41 -26v31h91v-519zM363 418q-11 12 -35 23.5t-61 11.5q-135 0 -135 -194q0 -55 10 -91t27 -57t39.5 -29t47.5 -8q49 0 78 25t29 71v248z" />
    <glyph glyph-name="h" unicode="h" 
d="M379 0v312q0 19 -2 42.5t-11.5 44t-30 34t-57.5 13.5q-21 0 -41.5 -5t-37 -16.5t-26.5 -30t-10 -45.5v-349h-94v756l94 14v-316q16 26 51.5 48.5t93.5 22.5q40 0 68 -11.5t47 -28.5q18 -17 28 -36.5t14.5 -40t5.5 -40t1 -35.5v-333h-93z" />
    <glyph glyph-name="i" unicode="i" horiz-adv-x="231" 
d="M172 692q0 -28 -17 -40.5t-40 -12.5q-24 0 -39.5 13.5t-15.5 39.5q0 27 17 40t40 13q25 0 40 -14t15 -39zM69 0v517h94v-517h-94z" />
    <glyph glyph-name="j" unicode="j" horiz-adv-x="237" 
d="M178 691q0 -26 -16.5 -39.5t-40.5 -13.5q-26 0 -40.5 14t-14.5 39q0 27 16.5 40t39.5 13q25 0 40.5 -13.5t15.5 -39.5zM168 -78q0 -28 -6 -55.5t-21.5 -49t-43.5 -34.5t-72 -13q-25 0 -41.5 3.5t-24.5 7.5l-5 75q6 -4 19.5 -9t34.5 -5q22 0 35.5 7t20.5 19t9 27.5t2 32.5
v589h93v-595z" />
    <glyph glyph-name="k" unicode="k" horiz-adv-x="451" 
d="M260 286l195 -286h-112l-180 270v-270h-94v756l94 14v-484l188 231h105z" />
    <glyph glyph-name="l" unicode="l" horiz-adv-x="232" 
d="M69 0v756l94 14v-770h-94z" />
    <glyph glyph-name="m" unicode="m" horiz-adv-x="838" 
d="M682 0v312q0 20 -2 43.5t-11.5 43.5t-29.5 33.5t-57 13.5q-22 0 -42.5 -5.5t-36 -17t-25 -30t-9.5 -44.5v-349h-94v312q0 21 -2 44.5t-11.5 43.5t-29.5 33t-56 13q-22 0 -42.5 -5.5t-36 -17t-25 -30t-9.5 -44.5v-349h-94v517h92v-64q7 13 20 25.5t31 23t41.5 17t52.5 6.5
q57 0 91.5 -23t48.5 -52q8 13 22 26t33.5 24t46 18t60.5 7q74 0 117 -39q18 -16 28 -35.5t15 -39.5t6 -40t1 -37v-334h-93z" />
    <glyph glyph-name="n" unicode="n" 
d="M379 0v312q0 19 -2 42.5t-11.5 44t-30 34t-57.5 13.5q-21 0 -41.5 -5t-37 -16.5t-26.5 -30t-10 -45.5v-349h-94v517h92v-64q8 13 21 26t31 23t42 16.5t53 6.5q40 0 68 -11.5t47 -28.5q18 -17 28 -36.5t14.5 -40t5.5 -40t1 -35.5v-333h-93z" />
    <glyph glyph-name="o" unicode="o" horiz-adv-x="512" 
d="M475 262q0 -61 -13.5 -111.5t-41.5 -86.5t-69.5 -56t-96.5 -20q-100 0 -158.5 66t-58.5 197q0 61 13.5 111.5t41.5 86.5t69 56t97 20q100 0 158.5 -66t58.5 -197zM380 257q0 41 -6 76.5t-20 62t-38 42t-60 15.5q-66 0 -95 -50.5t-29 -145.5q0 -41 6 -77t20 -62.5t38 -42
t60 -15.5q65 0 94.5 50.5t29.5 146.5z" />
    <glyph glyph-name="p" unicode="p" horiz-adv-x="527" 
d="M490 263q0 -79 -19.5 -131.5t-50 -83.5t-69 -43.5t-76.5 -12.5q-45 0 -71.5 12t-40.5 25v-259h-94v747h92v-63q7 12 18.5 25t28 23t39 16.5t51.5 6.5q48 0 84 -19t60 -53.5t36 -83t12 -106.5zM394 260q0 52 -8.5 87.5t-25 57.5t-39.5 32t-51 10q-50 0 -78.5 -25.5
t-28.5 -71.5v-252q11 -12 34.5 -23.5t61.5 -11.5q135 0 135 197z" />
    <glyph glyph-name="q" unicode="q" horiz-adv-x="526" 
d="M365 -230v292q-6 -9 -16 -21t-26.5 -23t-39.5 -18.5t-55 -7.5q-48 0 -84 19t-60 53.5t-35.5 82.5t-11.5 107q0 79 19.5 131.5t50 83.5t69 43.5t76.5 12.5q47 0 74 -13.5t40 -25.5v31h91v-747h-92zM364 418q-11 11 -35 23t-62 12q-69 0 -102 -48t-33 -148q0 -52 8.5 -87.5
t25 -57.5t39 -32t51.5 -10q50 0 79 25.5t29 71.5v251z" />
    <glyph glyph-name="r" unicode="r" horiz-adv-x="343" 
d="M334 423q-13 12 -33.5 17.5t-39.5 5.5q-28 0 -46.5 -10.5t-30 -27t-16.5 -37.5t-5 -41v-330h-94v517h91v-73q14 32 42.5 56.5t74.5 24.5q20 0 37.5 -5t28.5 -13z" />
    <glyph glyph-name="s" unicode="s" horiz-adv-x="391" 
d="M358 139q0 -46 -17.5 -74.5t-43.5 -44.5t-57.5 -22t-59.5 -6q-50 0 -86.5 12t-56.5 28l-5 85q21 -21 57.5 -38t88.5 -17q41 0 66.5 15t25.5 55q0 27 -14.5 42.5t-51.5 35.5l-56 31q-19 10 -37.5 22.5t-33 29t-23.5 39.5t-9 55q0 45 17 72.5t42 42t53 19t50 4.5
q49 0 81 -12t49 -26v-82q-19 19 -51 34.5t-74 15.5q-27 0 -43 -7t-24 -17t-10.5 -21t-2.5 -19q0 -17 5.5 -29t15 -20.5t22 -15t25.5 -13.5l57 -29q20 -10 38 -22t32 -29t22.5 -40t8.5 -54z" />
    <glyph glyph-name="t" unicode="t" horiz-adv-x="316" 
d="M294 10q-12 -7 -33 -12t-51 -5q-31 0 -59 9t-48 38q-15 22 -19 47.5t-4 70.5v290h-54v69h54v91l93 22v-113h123v-69h-123v-299q0 -42 11 -60q7 -11 20 -18t33 -7q17 0 34 5t27 15z" />
    <glyph glyph-name="u" unicode="u" 
d="M375 -4v68q-8 -13 -21 -26t-31.5 -23t-42.5 -16.5t-54 -6.5q-38 0 -66 10.5t-47 27.5q-18 16 -28 36t-15 40.5t-6 40t-1 36.5v334h94v-314q0 -20 1.5 -43t11 -43t29.5 -33t57 -13q21 0 42 5t37.5 16.5t27 30t10.5 45.5v349h93v-513z" />
    <glyph glyph-name="v" unicode="v" horiz-adv-x="442" 
d="M267 -4h-95l-174 521h98l104 -333q6 -20 13 -48t11 -47q3 15 9 39t16 55l106 334h90z" />
    <glyph glyph-name="w" unicode="w" horiz-adv-x="726" 
d="M565 -4h-97l-82 305q-3 11 -10 39t-14 57q-5 -22 -10 -41q-5 -17 -9.5 -33.5t-6.5 -25.5l-86 -301h-96l-151 521h97l84 -327q10 -38 15.5 -66t7.5 -37q1 5 3.5 17t6 27t7 30.5t7.5 28.5l92 327h92l86 -327q8 -31 14 -61t8 -44q1 6 3.5 18t6 27t7 30.5t7.5 29.5l90 327h88
z" />
    <glyph glyph-name="x" unicode="x" horiz-adv-x="461" 
d="M351 0l-127 198l-118 -198h-98l173 265l-162 252h105l116 -183l110 183h97l-163 -251l169 -266h-102z" />
    <glyph glyph-name="y" unicode="y" horiz-adv-x="442" 
d="M241 -73q-12 -36 -27 -65t-35 -49.5t-47.5 -31.5t-65.5 -11q-24 0 -42 3.5t-28 8.5l-4 77q13 -8 30 -12t34 -4q36 0 58 18.5t38 63.5l25 70l-179 522h98l105 -332q20 -62 23 -88q6 32 23 85l108 335h90z" />
    <glyph glyph-name="z" unicode="z" horiz-adv-x="440" 
d="M401 0h-369v58l263 391h-244v68h354v-58l-263 -391h263z" />
    <glyph glyph-name="braceleft" unicode="{" horiz-adv-x="402" 
d="M336 691q-6 3 -17 6.5t-27 3.5q-39 0 -51 -25.5t-12 -65.5v-176q0 -23 -1.5 -46t-9 -44.5t-23.5 -39t-45 -28.5q27 -6 43 -21.5t24 -36t10 -43.5t2 -45v-198q0 -17 2.5 -33.5t10 -29.5t21 -21t35.5 -8q14 0 25 3t17 5l-5 -66q-8 -3 -25.5 -6t-38.5 -3q-38 0 -63 11.5
t-40 30t-21.5 43t-6.5 51.5v206q0 55 -21.5 92.5t-73.5 37.5v61q95 0 95 132v172q0 29 4 57t18 50.5t40 36t70 13.5q22 0 41.5 -3t27.5 -6z" />
    <glyph glyph-name="bar" unicode="|" horiz-adv-x="267" 
d="M86 -177v947h94v-947h-94z" />
    <glyph glyph-name="braceright" unicode="}" horiz-adv-x="402" 
d="M357 245q-26 0 -44.5 -10t-29.5 -27.5t-16 -41.5t-5 -51v-206q0 -27 -6.5 -51.5t-21.5 -43t-40.5 -30t-62.5 -11.5q-21 0 -38.5 3t-25.5 6l-5 66q6 -2 17 -5t25 -3q22 0 35.5 8t21 21t10 29.5t2.5 33.5v198q0 22 2 45t10 43.5t24 36t43 21.5q-29 11 -45 28.5t-23.5 39
t-9 44.5t-1.5 46v176q0 40 -12 65.5t-51 25.5q-16 0 -27 -3.5t-17 -6.5l-5 67q8 3 27.5 6t41.5 3q44 0 70 -13.5t40 -36t18 -50.5t4 -57v-172q0 -132 95 -132v-61v0z" />
    <glyph glyph-name="asciitilde" unicode="~" horiz-adv-x="698" 
d="M684 447q-8 -32 -18.5 -62.5t-22.5 -52.5q-22 -39 -54.5 -55.5t-71.5 -16.5q-38 0 -73.5 11.5t-68.5 24.5l-78 30q-48 19 -72.5 24t-42.5 5q-29 0 -48 -9t-35 -31q-14 -19 -23 -41t-14 -41l-49 17q6 29 16.5 63.5t26.5 62.5q23 40 54.5 55.5t69.5 15.5t73 -11t70 -25
l79 -30q24 -9 41 -14.5t30 -9t23 -4.5t19 -1q53 0 84 37q16 19 24.5 39t12.5 34l48 -15v0z" />
    <glyph glyph-name="uni00A0" unicode="&#xa0;" horiz-adv-x="200" 
 />
    <glyph glyph-name="exclamdown" unicode="&#xa1;" horiz-adv-x="271" 
d="M197 643q0 -30 -17 -48t-45 -18t-45.5 17.5t-17.5 47.5q0 29 16.5 48t45.5 19t46 -18t17 -48zM86 -5l6 529h83l7 -514z" />
    <glyph glyph-name="cent" unicode="&#xa2;" horiz-adv-x="525" 
d="M429 120q-12 -10 -38 -20.5t-64 -15.5v-92h-69v91q-35 3 -69.5 17t-62.5 43.5t-45 77.5t-17 120q0 46 9 92t31 84t59.5 64.5t94.5 32.5v87l69 11v-98q35 -4 64 -14t41 -21v-83q-14 17 -42.5 29.5t-62.5 16.5v-387q33 2 63 16.5t45 33.5zM258 537q-17 -5 -35 -16
t-32 -32.5t-23 -55t-9 -83.5q0 -70 22 -120t77 -67v374z" />
    <glyph glyph-name="sterling" unicode="&#xa3;" horiz-adv-x="522" 
d="M490 12q-11 -9 -34 -17t-65 -8q-26 0 -52 3.5t-50 8.5l-76 16q-16 3 -34 4.5t-32 1.5q-30 0 -58.5 -7.5t-49.5 -22.5l-30 61q14 8 27 17.5t25 23.5q11 13 20.5 32.5t17 48.5t14 69t11.5 94h-82v67h87q5 52 11 96.5t18 79.5q9 26 24.5 50t39.5 42.5t56.5 29.5t75.5 11
q53 0 88.5 -13.5t52.5 -27.5v-95q-14 19 -46.5 38t-83.5 19q-34 0 -62.5 -12.5t-45.5 -47.5q-14 -29 -20.5 -71t-11.5 -99h175v-67h-179q-5 -46 -10.5 -79.5t-13 -57.5t-15.5 -40.5t-17 -28.5t-22.5 -27.5t-21.5 -22.5q10 5 33.5 9.5t46.5 4.5q16 0 33 -2t31 -5l73 -16
q8 -2 24.5 -4t31.5 -2q34 0 59.5 12.5t41.5 29.5z" />
    <glyph glyph-name="currency" unicode="&#xa4;" horiz-adv-x="586" 
d="M493 114l-63 61q-36 -25 -67.5 -35t-70.5 -10q-38 0 -69.5 10t-67.5 36l-63 -62l-45 44l64 62q-26 36 -36.5 66.5t-10.5 67.5q0 39 10.5 70.5t36.5 67.5l-64 62l45 44l63 -61q35 24 66 34.5t71 10.5q39 0 70.5 -10.5t67.5 -35.5l63 62l45 -44l-64 -62q26 -35 36.5 -66.5
t10.5 -70.5q0 -37 -10.5 -68t-36.5 -67l64 -62zM439 357q0 32 -11.5 58.5t-32.5 47.5q-43 43 -102 43q-63 0 -104 -43q-42 -44 -42 -107q0 -62 42 -106q41 -43 104 -43q33 0 57.5 11.5t44.5 31.5q44 44 44 107z" />
    <glyph glyph-name="yen" unicode="&#xa5;" horiz-adv-x="521" 
d="M342 361h114v-64h-148v-86h148v-65h-148v-146h-96v146h-146v65h146v86h-146v64h109l-176 342h108l157 -328l162 328h98z" />
    <glyph glyph-name="brokenbar" unicode="&#xa6;" horiz-adv-x="530" 
d="M217 349v354h93v-354h-93zM217 -177v339h93v-339h-93z" />
    <glyph glyph-name="section" unicode="&#xa7;" horiz-adv-x="558" 
d="M478 316q0 -45 -16 -77t-37.5 -53.5t-42.5 -34t-30 -17.5q1 -1 3.5 -2.5t5.5 -3.5l8 -6q25 -17 44 -47t19 -78q0 -73 -49 -113.5t-130 -40.5q-42 0 -82 11t-63 31v87q25 -26 63 -40.5t78 -14.5q44 0 67 18.5t23 54.5q0 28 -14 46t-41 35l-101 65q-15 10 -33 24
t-33.5 34.5t-26 47t-10.5 60.5q0 41 14.5 71t35 51t42 34t36.5 19q-1 0 -4 2.5t-6 4.5l-8 6q-23 17 -43 47t-20 78q0 68 47 111.5t133 43.5q42 0 79 -10.5t59 -29.5v-88q-23 23 -58.5 38.5t-76.5 15.5q-46 0 -68 -20.5t-22 -53.5q0 -30 16 -48t41 -35l102 -67
q15 -10 32.5 -23t32.5 -31.5t24.5 -43t9.5 -58.5zM386 300q0 38 -20.5 64t-54.5 47l-43 27q-12 -5 -28.5 -14.5t-31.5 -24.5t-25.5 -36t-10.5 -49q0 -38 21 -64.5t62 -52.5l38 -24q9 6 25 15.5t31 24.5t26 36.5t11 50.5z" />
    <glyph glyph-name="dieresis" unicode="&#xa8;" horiz-adv-x="500" 
d="M394 662q0 -24 -14.5 -38.5t-37.5 -14.5t-37 14t-14 38t14.5 38t37.5 14q22 0 36.5 -13.5t14.5 -37.5zM212 662q0 -24 -14.5 -38.5t-37.5 -14.5q-22 0 -36.5 14t-14.5 38t14.5 38t37.5 14t37 -13.5t14 -37.5z" />
    <glyph glyph-name="copyright" unicode="&#xa9;" horiz-adv-x="883" 
d="M833 321q0 -87 -28.5 -161t-80 -128t-123.5 -84.5t-159 -30.5q-86 0 -158 29.5t-124 82.5t-81 126t-29 160t29.5 160.5t82 126.5t125.5 82.5t161 29.5q87 0 158.5 -29.5t121.5 -81.5t77.5 -124.5t27.5 -157.5zM769 319q0 74 -22.5 136.5t-64 108.5t-101 71.5t-134.5 25.5
q-76 0 -137 -26t-104 -72.5t-66.5 -109.5t-23.5 -137q0 -75 23.5 -138.5t66.5 -110t103.5 -72.5t134.5 -26t134 26.5t102.5 73.5t65.5 111t23 139zM585 95q-18 -15 -53 -24.5t-78 -9.5q-60 0 -104.5 19.5t-73.5 53t-43 78.5t-14 95q0 46 10.5 85.5t28.5 70.5
q32 55 84.5 80.5t118.5 25.5q47 0 79.5 -10t47.5 -20v-75q-15 15 -45.5 28t-74.5 13q-76 0 -121.5 -47.5t-45.5 -142.5q0 -90 42 -140t122 -50q45 0 76.5 14t48.5 31z" />
    <glyph glyph-name="ordfeminine" unicode="&#xaa;" horiz-adv-x="370" 
d="M243 316v51q-10 -20 -34.5 -36.5t-66.5 -16.5q-31 0 -52.5 9.5t-35 26t-20 37.5t-6.5 45q0 43 17.5 67t43 36.5t55 16t53.5 4.5l41 2v28q0 10 -2.5 22t-10 22t-21.5 16.5t-38 6.5q-36 0 -61 -13.5t-38 -27.5v69q14 11 43.5 21t75.5 10q47 0 73 -12t38.5 -30.5t15 -40.5
t2.5 -41v-266zM239 507l-41 -4q-40 -4 -66 -17t-26 -51q0 -11 3 -22t10 -19.5t18.5 -14t28.5 -5.5q34 0 53.5 20t19.5 49v64z" />
    <glyph glyph-name="guillemotleft" unicode="&#xab;" horiz-adv-x="463" 
d="M151 54l-105 198l105 199h82l-93 -198l93 -199h-82zM344 54l-105 198l105 199h82l-93 -198l93 -199h-82z" />
    <glyph glyph-name="logicalnot" unicode="&#xac;" horiz-adv-x="640" 
d="M546 186v162h-523v70h594v-232h-71z" />
    <glyph glyph-name="uni00AD" unicode="&#xad;" horiz-adv-x="325" 
d="M41 223v86h243v-86h-243z" />
    <glyph glyph-name="registered" unicode="&#xae;" horiz-adv-x="883" 
d="M833 321q0 -87 -28.5 -161t-80 -128t-123.5 -84.5t-159 -30.5q-86 0 -158 29.5t-124 82.5t-81 126t-29 160t29.5 160.5t82 126.5t125.5 82.5t161 29.5q87 0 158.5 -29.5t121.5 -81.5t77.5 -124.5t27.5 -157.5zM769 319q0 74 -22.5 136.5t-64 108.5t-101 71.5t-134.5 25.5
q-76 0 -137 -26t-104 -72.5t-66.5 -109.5t-23.5 -137q0 -75 23.5 -138.5t66.5 -110t103.5 -72.5t134.5 -26t134 26.5t102.5 73.5t65.5 111t23 139zM540 68l-170 210v-210h-72v509h88q50 0 84 -3.5t60 -16.5q29 -14 48 -43t19 -75q0 -37 -12.5 -65t-33 -46.5t-47.5 -28.5
t-57 -10l184 -221h-91zM520 431q0 28 -8.5 45.5t-23.5 27t-35 13t-44 3.5h-38v-183h37q22 0 42.5 3.5t36 14t24.5 29t9 47.5z" />
    <glyph glyph-name="macron" unicode="&#xaf;" horiz-adv-x="500" 
d="M106 619v73h288v-73h-288z" />
    <glyph glyph-name="degree" unicode="&#xb0;" horiz-adv-x="436" 
d="M374 600q0 -32 -12.5 -60.5t-33.5 -49.5t-49.5 -33t-60.5 -12t-60.5 12t-49.5 33t-33.5 49.5t-12.5 60.5t12.5 60.5t33.5 49.5t49.5 33t60.5 12t60.5 -12t49.5 -33t33.5 -49.5t12.5 -60.5zM319 601q0 43 -29.5 72.5t-72.5 29.5t-71.5 -29.5t-28.5 -72.5q0 -22 7.5 -41
t21 -33.5t32 -22.5t39.5 -8t40 8t32.5 22.5t21.5 33.5t8 41z" />
    <glyph glyph-name="plusminus" unicode="&#xb1;" horiz-adv-x="640" 
d="M357 400v-270h-75v270h-259v70h259v266h75v-266h260v-70h-260zM23 0v70h594v-70h-594z" />
    <glyph glyph-name="twosuperior" unicode="&#xb2;" horiz-adv-x="352" 
d="M32 283v59q32 29 65.5 61.5t59.5 61.5q36 41 49 68t13 50q0 26 -15 46.5t-56 20.5q-33 0 -60 -12.5t-42 -26.5v74q17 10 46.5 19t68.5 9t65.5 -10.5t42.5 -27.5t23 -39t7 -46q0 -20 -4.5 -38.5t-15 -37.5t-27 -39.5t-39.5 -44.5q-20 -21 -44.5 -44t-39.5 -36h173v-67
h-270z" />
    <glyph glyph-name="threesuperior" unicode="&#xb3;" horiz-adv-x="352" 
d="M302 399q0 -35 -14 -59t-36 -38.5t-49.5 -20.5t-55.5 -6q-37 0 -64 8t-42 19l-3 69q15 -11 41 -23.5t64 -12.5t60 15.5t22 49.5q0 41 -30.5 56.5t-75.5 15.5h-10v56h11q18 0 34 3.5t28 11.5t19.5 21t7.5 32q0 29 -17 43.5t-49 14.5q-29 0 -53.5 -10t-40.5 -23v66
q14 8 41.5 17t66.5 9q63 0 96 -28t33 -76q0 -31 -12 -50.5t-27 -31.5t-29.5 -17t-19.5 -6q51 -3 77.5 -30t26.5 -75z" />
    <glyph glyph-name="acute" unicode="&#xb4;" horiz-adv-x="500" 
d="M164 583l-33 50l181 128l44 -69z" />
    <glyph glyph-name="paragraph" unicode="&#xb6;" horiz-adv-x="423" 
d="M379 703q-2 -18 -2.5 -36t-1.5 -36h-54v-626q0 -28 -3.5 -52t-12.5 -43q-16 -33 -50 -50t-82 -17q-28 0 -51.5 5t-36.5 11l-5 75q14 -8 35 -15.5t49 -7.5q42 0 57.5 21.5t15.5 66.5v316h-16q-43 0 -78.5 14t-61 39.5t-40 61.5t-14.5 79q0 91 61.5 142.5t172.5 51.5h118v0
z" />
    <glyph glyph-name="periodcentered" unicode="&#xb7;" horiz-adv-x="234" 
d="M190 300q0 -33 -19.5 -54.5t-53.5 -21.5q-32 0 -52 20t-20 56q0 35 19.5 56t51.5 21t53 -20.5t21 -56.5z" />
    <glyph glyph-name="cedilla" unicode="&#xb8;" horiz-adv-x="560" 
d="M232 -128q0 -38 -24.5 -64t-70.5 -26q-16 0 -30 3t-23 8l-4 59q11 -8 23.5 -12t23.5 -4q16 0 27.5 8.5t11.5 26.5q0 16 -8.5 25.5t-20.5 18.5q-13 10 -22 21.5t-9 37.5q0 7 1 14.5t3 11.5h58v-16q0 -16 6.5 -21.5t18.5 -16.5t25.5 -27t13.5 -47z" />
    <glyph glyph-name="onesuperior" unicode="&#xb9;" horiz-adv-x="292" 
d="M131 283v330l-97 -18v64q13 2 29 6.5t32 10t30.5 12.5t24.5 15h59v-420h-78z" />
    <glyph glyph-name="ordmasculine" unicode="&#xba;" horiz-adv-x="418" 
d="M378 517q0 -45 -10.5 -82.5t-31.5 -64.5t-53 -42t-74 -15q-76 0 -120 49.5t-44 146.5q0 92 42.5 147.5t125.5 55.5q75 0 120 -48t45 -147zM298 513q0 29 -4 54.5t-14 44.5t-27 30t-42 11q-45 0 -65.5 -36.5t-20.5 -103.5q0 -29 4 -54.5t14 -44.5t26.5 -30t42.5 -11
q45 0 65.5 36.5t20.5 103.5z" />
    <glyph glyph-name="guillemotright" unicode="&#xbb;" horiz-adv-x="468" 
d="M124 54h-87l93 198l-93 199h87l105 -198zM317 54h-87l93 198l-93 199h87l105 -198z" />
    <glyph glyph-name="onequarter" unicode="&#xbc;" horiz-adv-x="727" 
d="M647 88v-88h-74v88h-197v64l199 276h72v-280h45v-60h-45zM139 0h-79l511 703h77zM112 283v330l-97 -18v64q13 2 29 6.5t32 10t30.5 12.5t24.5 15h59v-420h-78zM573 340q-2 -6 -8.5 -18t-15.5 -24l-111 -150h135v192z" />
    <glyph glyph-name="onehalf" unicode="&#xbd;" horiz-adv-x="727" 
d="M105 0h-79l511 703h77zM103 283v330l-97 -18v64q13 2 29 6.5t32 10t30.5 12.5t24.5 15h59v-420h-78zM435 1v59q32 29 65.5 61.5t59.5 61.5q36 41 49 68t13 50q0 26 -15 46.5t-56 20.5q-33 0 -60 -12.5t-42 -26.5v74q17 10 46.5 19t68.5 9t65.5 -10.5t42.5 -27.5t23 -39
t7 -46q0 -20 -4.5 -38.5t-15 -37.5t-27 -39.5t-39.5 -44.5q-20 -21 -44.5 -44t-39.5 -36h173v-67h-270z" />
    <glyph glyph-name="threequarters" unicode="&#xbe;" horiz-adv-x="727" 
d="M667 88v-88h-74v88h-197v64l199 276h72v-280h45v-60h-45zM178 0h-79l511 703h77zM279 399q0 -35 -14 -59t-36 -38.5t-49.5 -20.5t-55.5 -6q-37 0 -64 8t-42 19l-3 69q15 -11 41 -23.5t64 -12.5t60 15.5t22 49.5q0 41 -30.5 56.5t-75.5 15.5h-10v56h11q18 0 34 3.5
t28 11.5t19.5 21t7.5 32q0 29 -17 43.5t-49 14.5q-29 0 -53.5 -10t-40.5 -23v66q14 8 41.5 17t66.5 9q64 0 96.5 -28t32.5 -76q0 -24 -8 -42t-20.5 -30.5t-28 -20.5t-31.5 -12q51 -3 77.5 -30t26.5 -75zM593 340q-2 -6 -8.5 -18t-15.5 -24l-111 -150h135v192z" />
    <glyph glyph-name="questiondown" unicode="&#xbf;" horiz-adv-x="443" 
d="M325 643q0 -30 -16.5 -48t-45.5 -18q-28 0 -45.5 17.5t-17.5 48.5q0 29 16.5 47.5t46.5 18.5q29 0 45.5 -18t16.5 -48zM401 28q-30 -20 -74.5 -31.5t-91.5 -11.5q-42 0 -78.5 10.5t-64 32.5t-43 55.5t-15.5 80.5q0 45 17.5 86.5t62.5 83.5l63 60q13 13 21.5 23t13 20.5
t6 22.5t1.5 28v35h87v-47q0 -35 -10 -61.5t-37 -53.5l-70 -69q-30 -29 -45 -58t-15 -62q0 -48 30.5 -78.5t90.5 -30.5q49 0 87.5 18t63.5 41v-94z" />
    <glyph glyph-name="Agrave" unicode="&#xc0;" horiz-adv-x="576" 
d="M368 753l-193 109l44 69l182 -128zM476 0l-75 233h-235l-76 -233h-92l238 705h109l231 -705h-100zM309 527q-8 26 -14.5 51.5t-9.5 42.5q-4 -16 -9.5 -36t-16.5 -56l-70 -221h189z" />
    <glyph glyph-name="Aacute" unicode="&#xc1;" horiz-adv-x="576" 
d="M209 753l-33 50l181 128l44 -69zM476 0l-75 233h-235l-76 -233h-92l238 705h109l231 -705h-100zM309 527q-8 26 -14.5 51.5t-9.5 42.5q-4 -16 -9.5 -36t-16.5 -56l-70 -221h189z" />
    <glyph glyph-name="Acircumflex" unicode="&#xc2;" horiz-adv-x="576" 
d="M414 753l-127 85l-127 -85l-37 48l164 133l164 -133zM476 0l-75 233h-235l-76 -233h-92l238 705h109l231 -705h-100zM309 527q-8 26 -14.5 51.5t-9.5 42.5q-4 -16 -9.5 -36t-16.5 -56l-70 -221h189z" />
    <glyph glyph-name="Atilde" unicode="&#xc3;" horiz-adv-x="576" 
d="M439 857q-10 -32 -33 -57t-63 -25q-11 0 -22.5 2.5t-28.5 10.5l-25 11q-16 7 -23.5 8.5t-12.5 1.5q-20 0 -31.5 -10.5t-16.5 -23.5l-46 28q11 32 34 56.5t62 24.5q11 0 22 -2.5t28 -10.5l25 -11q15 -7 23 -8.5t13 -1.5q21 0 32 11t16 24l47 -28v0zM476 0l-75 233h-235
l-76 -233h-92l238 705h109l231 -705h-100zM309 527q-8 26 -14.5 51.5t-9.5 42.5q-4 -16 -9.5 -36t-16.5 -56l-70 -221h189z" />
    <glyph glyph-name="Adieresis" unicode="&#xc4;" horiz-adv-x="576" 
d="M429 832q0 -24 -14.5 -38.5t-37.5 -14.5t-37 14t-14 38t14.5 38t37.5 14q22 0 36.5 -13.5t14.5 -37.5zM247 832q0 -24 -14.5 -38.5t-37.5 -14.5q-22 0 -36.5 14t-14.5 38t14.5 38t37.5 14t37 -13.5t14 -37.5zM476 0l-75 233h-235l-76 -233h-92l238 705h109l231 -705h-100
zM309 527q-8 26 -14.5 51.5t-9.5 42.5q-4 -16 -9.5 -36t-16.5 -56l-70 -221h189z" />
    <glyph glyph-name="Aring" unicode="&#xc5;" horiz-adv-x="576" 
d="M403 838q0 -54 -32.5 -82.5t-78.5 -28.5q-22 0 -42 7t-35.5 20.5t-24.5 34t-9 47.5q0 53 32.5 81.5t78.5 28.5q22 0 42 -6.5t35.5 -20t24.5 -34t9 -47.5zM348 837q0 31 -16.5 45.5t-39.5 14.5q-22 0 -39 -14t-17 -46q0 -31 16.5 -45.5t39.5 -14.5q22 0 39 14t17 46z
M476 0l-75 233h-235l-76 -233h-92l238 705h109l231 -705h-100zM309 527q-8 26 -14.5 51.5t-9.5 42.5q-4 -16 -9.5 -36t-16.5 -56l-70 -221h189z" />
    <glyph glyph-name="AE" unicode="&#xc6;" horiz-adv-x="779" 
d="M754 0h-366v316h-146l-145 -316h-101l333 703h411v-80h-255v-233h212v-79h-212v-231h273zM388 651q-3 -11 -8 -25.5t-13 -31.5l-93 -204h114v261z" />
    <glyph glyph-name="Ccedilla" unicode="&#xc7;" horiz-adv-x="560" 
d="M531 38q-20 -17 -64 -30.5t-104 -16.5v-7q0 -16 6.5 -21.5t18.5 -16.5t25.5 -27t13.5 -47q0 -38 -24.5 -64t-71.5 -26q-17 0 -29.5 3t-22.5 8l-4 59q11 -8 23.5 -12t23.5 -4q16 0 27.5 8.5t11.5 26.5q0 16 -8.5 25.5t-20.5 18.5q-13 10 -22 21.5t-9 36.5q0 12 2 20
q-73 7 -124 36.5t-83 76t-46.5 107t-14.5 129.5q0 63 11.5 120t37.5 104q42 75 112.5 110.5t159.5 35.5q60 0 106.5 -13t72.5 -30v-94q-23 23 -67.5 40.5t-104.5 17.5q-107 0 -168.5 -69t-61.5 -213q0 -134 55.5 -207.5t170.5 -73.5q63 0 108.5 19.5t69.5 44.5z" />
    <glyph glyph-name="Egrave" unicode="&#xc8;" horiz-adv-x="460" 
d="M317 753l-193 109l44 69l182 -128zM435 0h-366v703h352v-80h-255v-222h212v-79h-212v-242h273z" />
    <glyph glyph-name="Eacute" unicode="&#xc9;" horiz-adv-x="460" 
d="M178 753l-33 50l181 128l44 -69zM435 0h-366v703h352v-80h-255v-222h212v-79h-212v-242h273z" />
    <glyph glyph-name="Ecircumflex" unicode="&#xca;" horiz-adv-x="460" 
d="M370 753l-127 85l-127 -85l-37 48l164 133l164 -133zM435 0h-366v703h352v-80h-255v-222h212v-79h-212v-242h273z" />
    <glyph glyph-name="Edieresis" unicode="&#xcb;" horiz-adv-x="460" 
d="M389 832q0 -24 -14.5 -38.5t-37.5 -14.5t-37 14t-14 38t14.5 38t37.5 14q22 0 36.5 -13.5t14.5 -37.5zM207 832q0 -24 -14.5 -38.5t-37.5 -14.5q-22 0 -36.5 14t-14.5 38t14.5 38t37.5 14t37 -13.5t14 -37.5zM435 0h-366v703h352v-80h-255v-222h212v-79h-212v-242h273z
" />
    <glyph glyph-name="Igrave" unicode="&#xcc;" horiz-adv-x="235" 
d="M196 753l-193 109l44 69l182 -128zM69 0v703h97v-703h-97z" />
    <glyph glyph-name="Iacute" unicode="&#xcd;" horiz-adv-x="235" 
d="M37 753l-33 50l181 128l44 -69zM69 0v703h97v-703h-97z" />
    <glyph glyph-name="Icircumflex" unicode="&#xce;" horiz-adv-x="235" 
d="M246 753l-127 85l-127 -85l-37 48l164 133l164 -133zM69 0v703h97v-703h-97z" />
    <glyph glyph-name="Idieresis" unicode="&#xcf;" horiz-adv-x="235" 
d="M262 832q0 -24 -14.5 -38.5t-37.5 -14.5t-37 14t-14 38t14.5 38t37.5 14q22 0 36.5 -13.5t14.5 -37.5zM80 832q0 -24 -14.5 -38.5t-37.5 -14.5q-22 0 -36.5 14t-14.5 38t14.5 38t37.5 14t37 -13.5t14 -37.5zM69 0v703h97v-703h-97z" />
    <glyph glyph-name="Eth" unicode="&#xd0;" horiz-adv-x="631" 
d="M597 358q0 -54 -8.5 -103t-27 -90.5t-48 -74.5t-72.5 -54q-49 -24 -103.5 -30t-121.5 -6h-147v323h-68v70h68v310h161q45 0 79 -1.5t62 -6.5t50.5 -13.5t44.5 -21.5q131 -82 131 -302zM498 355q0 98 -27 158.5t-77 87.5q-24 13 -55 18.5t-86 5.5h-87v-232h170l-3 -70
h-167v-245h76q53 0 88 6t62 21q56 31 81 95t25 155z" />
    <glyph glyph-name="Ntilde" unicode="&#xd1;" horiz-adv-x="634" 
d="M473 857q-10 -32 -33 -57t-63 -25q-11 0 -22.5 2.5t-28.5 10.5l-25 11q-16 7 -23.5 8.5t-12.5 1.5q-20 0 -31.5 -10.5t-16.5 -23.5l-46 28q11 32 34 56.5t62 24.5q11 0 22 -2.5t28 -10.5l25 -11q15 -7 23 -8.5t13 -1.5q21 0 32 11t16 24l47 -28v0zM472 0l-266 450
q-20 35 -33.5 64.5t-17.5 43.5v-558h-86v703h99l253 -433q23 -40 38 -73t20 -50v556h86v-703h-93z" />
    <glyph glyph-name="Ograve" unicode="&#xd2;" horiz-adv-x="644" 
d="M400 753l-193 109l44 69l182 -128zM609 357q0 -88 -20 -156.5t-57.5 -115.5t-91.5 -71.5t-123 -24.5q-66 0 -118 22.5t-88.5 67.5t-56 111.5t-19.5 153.5q0 88 19.5 156.5t57 115.5t91.5 72t123 25q66 0 118 -23t89 -68t56.5 -111.5t19.5 -153.5zM510 353
q0 145 -48 213.5t-139 68.5q-92 0 -140.5 -70t-48.5 -217q0 -145 47.5 -213.5t138.5 -68.5q92 0 141 70t49 217z" />
    <glyph glyph-name="Oacute" unicode="&#xd3;" horiz-adv-x="644" 
d="M243 753l-33 50l181 128l44 -69zM609 357q0 -88 -20 -156.5t-57.5 -115.5t-91.5 -71.5t-123 -24.5q-66 0 -118 22.5t-88.5 67.5t-56 111.5t-19.5 153.5q0 88 19.5 156.5t57 115.5t91.5 72t123 25q66 0 118 -23t89 -68t56.5 -111.5t19.5 -153.5zM510 353q0 145 -48 213.5
t-139 68.5q-92 0 -140.5 -70t-48.5 -217q0 -145 47.5 -213.5t138.5 -68.5q92 0 141 70t49 217z" />
    <glyph glyph-name="Ocircumflex" unicode="&#xd4;" horiz-adv-x="644" 
d="M451 753l-127 85l-127 -85l-37 48l164 133l164 -133zM609 357q0 -88 -20 -156.5t-57.5 -115.5t-91.5 -71.5t-123 -24.5q-66 0 -118 22.5t-88.5 67.5t-56 111.5t-19.5 153.5q0 88 19.5 156.5t57 115.5t91.5 72t123 25q66 0 118 -23t89 -68t56.5 -111.5t19.5 -153.5z
M510 353q0 145 -48 213.5t-139 68.5q-92 0 -140.5 -70t-48.5 -217q0 -145 47.5 -213.5t138.5 -68.5q92 0 141 70t49 217z" />
    <glyph glyph-name="Otilde" unicode="&#xd5;" horiz-adv-x="644" 
d="M473 857q-10 -32 -33 -57t-63 -25q-11 0 -22.5 2.5t-28.5 10.5l-25 11q-16 7 -23.5 8.5t-12.5 1.5q-20 0 -31.5 -10.5t-16.5 -23.5l-46 28q11 32 34 56.5t62 24.5q11 0 22 -2.5t28 -10.5l25 -11q15 -7 23 -8.5t13 -1.5q21 0 32 11t16 24l47 -28v0zM609 357
q0 -88 -20 -156.5t-57.5 -115.5t-91.5 -71.5t-123 -24.5q-66 0 -118 22.5t-88.5 67.5t-56 111.5t-19.5 153.5q0 88 19.5 156.5t57 115.5t91.5 72t123 25q66 0 118 -23t89 -68t56.5 -111.5t19.5 -153.5zM510 353q0 145 -48 213.5t-139 68.5q-92 0 -140.5 -70t-48.5 -217
q0 -145 47.5 -213.5t138.5 -68.5q92 0 141 70t49 217z" />
    <glyph glyph-name="Odieresis" unicode="&#xd6;" horiz-adv-x="644" 
d="M465 832q0 -24 -14.5 -38.5t-37.5 -14.5t-37 14t-14 38t14.5 38t37.5 14q22 0 36.5 -13.5t14.5 -37.5zM283 832q0 -24 -14.5 -38.5t-37.5 -14.5q-22 0 -36.5 14t-14.5 38t14.5 38t37.5 14t37 -13.5t14 -37.5zM609 357q0 -88 -20 -156.5t-57.5 -115.5t-91.5 -71.5
t-123 -24.5q-66 0 -118 22.5t-88.5 67.5t-56 111.5t-19.5 153.5q0 88 19.5 156.5t57 115.5t91.5 72t123 25q66 0 118 -23t89 -68t56.5 -111.5t19.5 -153.5zM510 353q0 145 -48 213.5t-139 68.5q-92 0 -140.5 -70t-48.5 -217q0 -145 47.5 -213.5t138.5 -68.5q92 0 141 70
t49 217z" />
    <glyph glyph-name="multiply" unicode="&#xd7;" horiz-adv-x="546" 
d="M473 96l-200 204l-200 -203l-52 48l201 204l-198 202l51 52l199 -202l197 201l51 -50l-198 -201l201 -205z" />
    <glyph glyph-name="Oslash" unicode="&#xd8;" horiz-adv-x="644" 
d="M609 361q0 -89 -20 -158.5t-57 -117t-91 -72t-121 -24.5q-44 0 -84 10.5t-72 31.5l-45 -74h-73l70 115q-40 45 -60.5 111t-20.5 157q0 89 19.5 158.5t56.5 117t90.5 72.5t120.5 25q91 0 158 -44l38 62h75l-64 -104q42 -48 61 -114t19 -152zM436 596q-44 40 -114 40
q-91 0 -139.5 -70.5t-48.5 -218.5q0 -122 34 -190zM510 354q0 118 -33 187l-268 -438q22 -20 50.5 -29t61.5 -9q91 0 140 70.5t49 218.5z" />
    <glyph glyph-name="Ugrave" unicode="&#xd9;" horiz-adv-x="628" 
d="M394 753l-193 109l44 69l182 -128zM563 298q0 -42 -1 -75.5t-5.5 -61.5t-13.5 -51t-25 -44q-32 -41 -82 -58.5t-121 -17.5q-68 0 -118 16t-82 53q-33 38 -41.5 89.5t-8.5 126.5v428h96v-459q0 -32 3.5 -63.5t18.5 -56.5t46.5 -41t87.5 -16q57 0 88.5 16.5t46 43
t17.5 59.5t3 65v452h91v-405v0z" />
    <glyph glyph-name="Uacute" unicode="&#xda;" horiz-adv-x="628" 
d="M238 753l-33 50l181 128l44 -69zM563 298q0 -42 -1 -75.5t-5.5 -61.5t-13.5 -51t-25 -44q-32 -41 -82 -58.5t-121 -17.5q-68 0 -118 16t-82 53q-33 38 -41.5 89.5t-8.5 126.5v428h96v-459q0 -32 3.5 -63.5t18.5 -56.5t46.5 -41t87.5 -16q57 0 88.5 16.5t46 43t17.5 59.5
t3 65v452h91v-405v0z" />
    <glyph glyph-name="Ucircumflex" unicode="&#xdb;" horiz-adv-x="628" 
d="M443 753l-127 85l-127 -85l-37 48l164 133l164 -133zM563 298q0 -42 -1 -75.5t-5.5 -61.5t-13.5 -51t-25 -44q-32 -41 -82 -58.5t-121 -17.5q-68 0 -118 16t-82 53q-33 38 -41.5 89.5t-8.5 126.5v428h96v-459q0 -32 3.5 -63.5t18.5 -56.5t46.5 -41t87.5 -16
q57 0 88.5 16.5t46 43t17.5 59.5t3 65v452h91v-405v0z" />
    <glyph glyph-name="Udieresis" unicode="&#xdc;" horiz-adv-x="628" 
d="M462 832q0 -24 -14.5 -38.5t-37.5 -14.5t-37 14t-14 38t14.5 38t37.5 14q22 0 36.5 -13.5t14.5 -37.5zM280 832q0 -24 -14.5 -38.5t-37.5 -14.5q-22 0 -36.5 14t-14.5 38t14.5 38t37.5 14t37 -13.5t14 -37.5zM563 298q0 -42 -1 -75.5t-5.5 -61.5t-13.5 -51t-25 -44
q-32 -41 -82 -58.5t-121 -17.5q-68 0 -118 16t-82 53q-33 38 -41.5 89.5t-8.5 126.5v428h96v-459q0 -32 3.5 -63.5t18.5 -56.5t46.5 -41t87.5 -16q57 0 88.5 16.5t46 43t17.5 59.5t3 65v452h91v-405v0z" />
    <glyph glyph-name="Yacute" unicode="&#xdd;" horiz-adv-x="557" 
d="M231 753l-33 50l181 128l44 -69zM327 274v-274h-97v270l-232 433h110l174 -344l181 344h102z" />
    <glyph glyph-name="Thorn" unicode="&#xde;" horiz-adv-x="506" 
d="M482 406q0 -52 -13.5 -88.5t-35 -61t-48.5 -39t-54.5 -22.5t-53.5 -10t-44 -2h-67v-183h-97v703h97v-91h61q66 0 106 -8t69 -26q42 -26 61 -70.5t19 -101.5zM383 400q0 51 -15 79t-38 41.5t-51.5 16.5t-56.5 3h-56v-285h53q30 0 59 4t52.5 18.5t38 43.5t14.5 79z" />
    <glyph glyph-name="germandbls" unicode="&#xdf;" horiz-adv-x="571" 
d="M541 141q0 -45 -17.5 -73.5t-43.5 -45.5t-57 -23.5t-59 -6.5q-35 0 -72.5 9.5t-61.5 30.5l-5 85q23 -28 61 -41.5t76 -13.5t64 15.5t26 54.5q0 23 -13 40t-48 37l-54 30q-53 29 -74 61.5t-21 76.5q0 27 6.5 47.5t18 36t25.5 28t29 24.5q14 11 26.5 21.5t22.5 22.5
t15.5 26.5t5.5 33.5q0 23 -9 38.5t-24 25t-35 13.5t-42 4q-73 0 -100 -39q-14 -19 -16 -42t-2 -48v-569h-94v565q0 19 1 40t6.5 42t16 40.5t30.5 36.5q18 15 38.5 24.5t41.5 14t41.5 6t37.5 1.5q34 0 70 -5t65.5 -20.5t48.5 -44t19 -75.5q0 -28 -7 -49.5t-18 -38
t-24.5 -29.5t-27.5 -23q-17 -13 -31.5 -23.5t-25 -21t-16.5 -23.5t-6 -31q0 -27 14 -42t48 -33l53 -28q20 -11 37.5 -23.5t31 -29t21 -38.5t7.5 -51z" />
    <glyph glyph-name="agrave" unicode="&#xe0;" horiz-adv-x="472" 
d="M318 -4v67q-13 -25 -46.5 -47.5t-89.5 -22.5q-39 0 -67 12.5t-46 34.5t-26.5 50t-8.5 60q0 57 23 89t56.5 48.5t72 20.5t68.5 6l61 3v41q0 14 -1.5 31t-11 31.5t-30 24.5t-57.5 10q-49 0 -81 -16t-49 -35v80q16 14 53.5 27t97.5 13q62 0 96.5 -16t51 -41t20 -54t3.5 -55
v-354zM316 256l-60 -5q-28 -2 -51.5 -7t-41 -15.5t-27 -28.5t-9.5 -45q0 -16 4 -32t13.5 -28.5t26 -20.5t42.5 -8q47 0 75 26.5t28 67.5v96zM328 583l-193 109l44 69l182 -128z" />
    <glyph glyph-name="aacute" unicode="&#xe1;" horiz-adv-x="472" 
d="M164 583l-33 50l181 128l44 -69zM318 -4v67q-13 -25 -46.5 -47.5t-89.5 -22.5q-39 0 -67 12.5t-46 34.5t-26.5 50t-8.5 60q0 57 23 89t56.5 48.5t72 20.5t68.5 6l61 3v41q0 14 -1.5 31t-11 31.5t-30 24.5t-57.5 10q-49 0 -81 -16t-49 -35v80q16 14 53.5 27t97.5 13
q62 0 96.5 -16t51 -41t20 -54t3.5 -55v-354zM316 256l-60 -5q-28 -2 -51.5 -7t-41 -15.5t-27 -28.5t-9.5 -45q0 -16 4 -32t13.5 -28.5t26 -20.5t42.5 -8q47 0 75 26.5t28 67.5v96z" />
    <glyph glyph-name="acircumflex" unicode="&#xe2;" horiz-adv-x="472" 
d="M367 583l-127 85l-127 -85l-37 48l164 133l164 -133zM318 -4v67q-13 -25 -46.5 -47.5t-89.5 -22.5q-39 0 -67 12.5t-46 34.5t-26.5 50t-8.5 60q0 57 23 89t56.5 48.5t72 20.5t68.5 6l61 3v41q0 14 -1.5 31t-11 31.5t-30 24.5t-57.5 10q-49 0 -81 -16t-49 -35v80
q16 14 53.5 27t97.5 13q62 0 96.5 -16t51 -41t20 -54t3.5 -55v-354zM316 256l-60 -5q-28 -2 -51.5 -7t-41 -15.5t-27 -28.5t-9.5 -45q0 -16 4 -32t13.5 -28.5t26 -20.5t42.5 -8q47 0 75 26.5t28 67.5v96z" />
    <glyph glyph-name="atilde" unicode="&#xe3;" horiz-adv-x="472" 
d="M390 687q-10 -32 -33 -57t-63 -25q-11 0 -22.5 2.5t-28.5 10.5l-25 11q-16 7 -23.5 8.5t-12.5 1.5q-20 0 -31.5 -10.5t-16.5 -23.5l-46 28q11 32 34 56.5t62 24.5q11 0 22 -2.5t28 -10.5l25 -11q15 -7 23 -8.5t13 -1.5q21 0 32 11t16 24l47 -28v0zM318 -4v67
q-13 -25 -46.5 -47.5t-89.5 -22.5q-39 0 -67 12.5t-46 34.5t-26.5 50t-8.5 60q0 57 23 89t56.5 48.5t72 20.5t68.5 6l61 3v41q0 14 -1.5 31t-11 31.5t-30 24.5t-57.5 10q-49 0 -81 -16t-49 -35v80q16 14 53.5 27t97.5 13q62 0 96.5 -16t51 -41t20 -54t3.5 -55v-354zM316 256
l-60 -5q-28 -2 -51.5 -7t-41 -15.5t-27 -28.5t-9.5 -45q0 -16 4 -32t13.5 -28.5t26 -20.5t42.5 -8q47 0 75 26.5t28 67.5v96z" />
    <glyph glyph-name="adieresis" unicode="&#xe4;" horiz-adv-x="472" 
d="M381 662q0 -24 -14.5 -38.5t-37.5 -14.5t-37 14t-14 38t14.5 38t37.5 14q22 0 36.5 -13.5t14.5 -37.5zM199 662q0 -24 -14.5 -38.5t-37.5 -14.5q-22 0 -36.5 14t-14.5 38t14.5 38t37.5 14t37 -13.5t14 -37.5zM318 -4v67q-13 -25 -46.5 -47.5t-89.5 -22.5q-39 0 -67 12.5
t-46 34.5t-26.5 50t-8.5 60q0 57 23 89t56.5 48.5t72 20.5t68.5 6l61 3v41q0 14 -1.5 31t-11 31.5t-30 24.5t-57.5 10q-49 0 -81 -16t-49 -35v80q16 14 53.5 27t97.5 13q62 0 96.5 -16t51 -41t20 -54t3.5 -55v-354zM316 256l-60 -5q-28 -2 -51.5 -7t-41 -15.5t-27 -28.5
t-9.5 -45q0 -16 4 -32t13.5 -28.5t26 -20.5t42.5 -8q47 0 75 26.5t28 67.5v96z" />
    <glyph glyph-name="aring" unicode="&#xe5;" horiz-adv-x="472" 
d="M346 663q0 -54 -32.5 -82.5t-78.5 -28.5q-22 0 -42 7t-35.5 20.5t-24.5 34t-9 47.5q0 53 32.5 81.5t78.5 28.5q22 0 42 -6.5t35.5 -20t24.5 -34t9 -47.5zM291 662q0 31 -16.5 45.5t-39.5 14.5q-22 0 -39 -14t-17 -46q0 -31 16.5 -45.5t39.5 -14.5q22 0 39 14t17 46z
M318 -4v67q-13 -25 -46.5 -47.5t-89.5 -22.5q-39 0 -67 12.5t-46 34.5t-26.5 50t-8.5 60q0 57 23 89t56.5 48.5t72 20.5t68.5 6l61 3v41q0 14 -1.5 31t-11 31.5t-30 24.5t-57.5 10q-49 0 -81 -16t-49 -35v80q16 14 53.5 27t97.5 13q62 0 96.5 -16t51 -41t20 -54t3.5 -55
v-354zM316 256l-60 -5q-28 -2 -51.5 -7t-41 -15.5t-27 -28.5t-9.5 -45q0 -16 4 -32t13.5 -28.5t26 -20.5t42.5 -8q47 0 75 26.5t28 67.5v96z" />
    <glyph glyph-name="ae" unicode="&#xe6;" horiz-adv-x="760" 
d="M405 247v-8q0 -37 7 -69t24.5 -56t47.5 -38t76 -14q54 0 89 16.5t53 34.5l-6 -84q-26 -20 -68.5 -29t-84.5 -9t-73 8t-53 20.5t-35.5 28.5t-20.5 32q-16 -34 -57 -60.5t-109 -26.5q-49 0 -80 14.5t-49 37.5t-25 50.5t-7 54.5q0 56 22.5 88t56 48.5t71.5 21t70 6.5l61 3
v41q0 14 -1.5 31t-11 31.5t-30 24.5t-57.5 10q-49 0 -81 -16t-49 -35v80q23 20 64 30t85 10q40 0 66 -8t42 -18.5t25 -21.5t15 -17q9 8 20.5 19t29 21.5t42 18t59.5 7.5q64 0 102 -25.5t58 -64t26.5 -84.5t6.5 -88v-16h-321zM632 314q0 26 -4 52t-15.5 46.5t-32.5 33.5
t-55 13q-40 0 -63.5 -17t-36 -40.5t-16 -48t-3.5 -39.5h226zM316 256l-60 -5q-28 -2 -51.5 -7t-41 -15.5t-27 -28.5t-9.5 -45q0 -16 4 -32t13.5 -28.5t26 -20.5t42.5 -8q47 0 75 26.5t28 67.5v96z" />
    <glyph glyph-name="ccedilla" unicode="&#xe7;" horiz-adv-x="432" 
d="M402 29q-14 -13 -47 -24.5t-79 -13.5v-7q0 -16 6.5 -21.5t18.5 -16.5t25.5 -27t13.5 -47q0 -38 -24.5 -64t-71.5 -26q-17 0 -29.5 3t-22.5 8l-4 59q11 -8 23.5 -12t23.5 -4q16 0 27.5 8.5t11.5 26.5q0 16 -8.5 25.5t-20.5 18.5q-13 10 -22 21.5t-9 37.5q0 12 2 20
q-32 5 -63.5 19.5t-57.5 44t-42 76.5t-16 117q0 50 10.5 99t36.5 88t69.5 63t110.5 24q41 0 79.5 -9.5t61.5 -27.5v-83q-14 15 -44.5 31t-82.5 16q-20 0 -45.5 -5.5t-48 -25t-37.5 -58t-15 -104.5q0 -42 7.5 -77.5t25.5 -62t47 -41t72 -14.5q48 0 78 16t46 34z" />
    <glyph glyph-name="egrave" unicode="&#xe8;" horiz-adv-x="487" 
d="M131 247q0 -39 6.5 -73t23.5 -58.5t47 -39t78 -14.5q53 0 88 15.5t55 35.5l-6 -84q-23 -18 -65 -28t-90 -10q-40 0 -81 9.5t-74.5 38t-54.5 79t-21 133.5q0 61 13 111.5t40 86.5t68 56t98 20q65 0 103.5 -25t59 -63t27 -84.5t6.5 -89.5v-16h-321zM359 314q0 26 -4 52
t-15.5 46.5t-32.5 33.5t-55 13q-40 0 -63.5 -17t-36 -40t-16 -47.5t-3.5 -40.5h226zM328 583l-193 109l44 69l182 -128z" />
    <glyph glyph-name="eacute" unicode="&#xe9;" horiz-adv-x="487" 
d="M169 583l-33 50l181 128l44 -69zM131 247q0 -39 6.5 -73t23.5 -58.5t47 -39t78 -14.5q53 0 88 15.5t55 35.5l-6 -84q-23 -18 -65 -28t-90 -10q-40 0 -81 9.5t-74.5 38t-54.5 79t-21 133.5q0 61 13 111.5t40 86.5t68 56t98 20q65 0 103.5 -25t59 -63t27 -84.5t6.5 -89.5
v-16h-321zM359 314q0 26 -4 52t-15.5 46.5t-32.5 33.5t-55 13q-40 0 -63.5 -17t-36 -40t-16 -47.5t-3.5 -40.5h226z" />
    <glyph glyph-name="ecircumflex" unicode="&#xea;" horiz-adv-x="487" 
d="M375 583l-127 85l-127 -85l-37 48l164 133l164 -133zM131 247q0 -39 6.5 -73t23.5 -58.5t47 -39t78 -14.5q53 0 88 15.5t55 35.5l-6 -84q-23 -18 -65 -28t-90 -10q-40 0 -81 9.5t-74.5 38t-54.5 79t-21 133.5q0 61 13 111.5t40 86.5t68 56t98 20q65 0 103.5 -25t59 -63
t27 -84.5t6.5 -89.5v-16h-321zM359 314q0 26 -4 52t-15.5 46.5t-32.5 33.5t-55 13q-40 0 -63.5 -17t-36 -40t-16 -47.5t-3.5 -40.5h226z" />
    <glyph glyph-name="edieresis" unicode="&#xeb;" horiz-adv-x="487" 
d="M394 662q0 -24 -14.5 -38.5t-37.5 -14.5t-37 14t-14 38t14.5 38t37.5 14q22 0 36.5 -13.5t14.5 -37.5zM212 662q0 -24 -14.5 -38.5t-37.5 -14.5q-22 0 -36.5 14t-14.5 38t14.5 38t37.5 14t37 -13.5t14 -37.5zM131 247q0 -39 6.5 -73t23.5 -58.5t47 -39t78 -14.5
q53 0 88 15.5t55 35.5l-6 -84q-23 -18 -65 -28t-90 -10q-40 0 -81 9.5t-74.5 38t-54.5 79t-21 133.5q0 61 13 111.5t40 86.5t68 56t98 20q65 0 103.5 -25t59 -63t27 -84.5t6.5 -89.5v-16h-321zM359 314q0 26 -4 52t-15.5 46.5t-32.5 33.5t-55 13q-40 0 -63.5 -17t-36 -40
t-16 -47.5t-3.5 -40.5h226z" />
    <glyph glyph-name="igrave" unicode="&#xec;" horiz-adv-x="235" 
d="M70 0v517h94v-517h-94zM199 583l-193 109l44 69l182 -128z" />
    <glyph glyph-name="iacute" unicode="&#xed;" horiz-adv-x="235" 
d="M70 0v517h94v-517h-94zM40 583l-33 50l181 128l44 -69z" />
    <glyph glyph-name="icircumflex" unicode="&#xee;" horiz-adv-x="235" 
d="M246 583l-127 85l-127 -85l-37 48l164 133l164 -133zM70 0v517h94v-517h-94z" />
    <glyph glyph-name="idieresis" unicode="&#xef;" horiz-adv-x="235" 
d="M70 0v517h94v-517h-94zM262 662q0 -24 -14.5 -38.5t-37.5 -14.5t-37 14t-14 38t14.5 38t37.5 14q22 0 36.5 -13.5t14.5 -37.5zM80 662q0 -24 -14.5 -38.5t-37.5 -14.5q-22 0 -36.5 14t-14.5 38t14.5 38t37.5 14t37 -13.5t14 -37.5z" />
    <glyph glyph-name="eth" unicode="&#xf0;" horiz-adv-x="508" 
d="M411 668q17 -28 28 -63.5t17 -74.5t8 -79.5t2 -77.5q0 -116 -15.5 -190t-44 -116.5t-68.5 -59t-89 -16.5q-36 0 -74 10t-69 38t-50.5 78.5t-19.5 131.5q0 82 20 134.5t51.5 82.5t69 41.5t72.5 11.5q47 0 77.5 -13.5t44.5 -29.5q-1 38 -7.5 75t-23.5 68l-70 -48l-34 52
l63 43q-19 14 -44.5 22.5t-57.5 8.5q-43 0 -75.5 -13.5t-50.5 -27.5v80q19 12 52 23t84 11q54 0 94 -14t69 -40l76 53l34 -53zM372 337q0 19 -0.5 30t-0.5 17t-0.5 9.5t-0.5 7.5q-15 19 -41 33t-66 14q-41 0 -67 -16.5t-40.5 -44.5t-19.5 -63.5t-5 -73.5q0 -39 5 -73
t18.5 -59.5t37 -40.5t59.5 -15q33 0 56.5 14.5t37.5 47t20.5 85t6.5 128.5z" />
    <glyph glyph-name="ntilde" unicode="&#xf1;" 
d="M426 687q-10 -32 -33 -57t-63 -25q-11 0 -22.5 2.5t-28.5 10.5l-25 11q-16 7 -23.5 8.5t-12.5 1.5q-20 0 -31.5 -10.5t-16.5 -23.5l-46 28q11 32 34 56.5t62 24.5q11 0 22 -2.5t28 -10.5l25 -11q15 -7 23 -8.5t13 -1.5q21 0 32 11t16 24l47 -28v0zM379 0v312
q0 19 -2 42.5t-11.5 44t-30 34t-57.5 13.5q-21 0 -41.5 -5t-37 -16.5t-26.5 -30t-10 -45.5v-349h-94v517h92v-64q8 13 21 26t31 23t42 16.5t53 6.5q40 0 68 -11.5t47 -28.5q18 -17 28 -36.5t14.5 -40t5.5 -40t1 -35.5v-333h-93z" />
    <glyph glyph-name="ograve" unicode="&#xf2;" horiz-adv-x="512" 
d="M475 262q0 -61 -13.5 -111.5t-41.5 -86.5t-69.5 -56t-96.5 -20q-100 0 -158.5 66t-58.5 197q0 61 13.5 111.5t41.5 86.5t69 56t97 20q100 0 158.5 -66t58.5 -197zM380 257q0 41 -6 76.5t-20 62t-38 42t-60 15.5q-66 0 -95 -50.5t-29 -145.5q0 -41 6 -77t20 -62.5t38 -42
t60 -15.5q65 0 94.5 50.5t29.5 146.5zM341 583l-193 109l44 69l182 -128z" />
    <glyph glyph-name="oacute" unicode="&#xf3;" horiz-adv-x="512" 
d="M187 583l-33 50l181 128l44 -69zM475 262q0 -61 -13.5 -111.5t-41.5 -86.5t-69.5 -56t-96.5 -20q-100 0 -158.5 66t-58.5 197q0 61 13.5 111.5t41.5 86.5t69 56t97 20q100 0 158.5 -66t58.5 -197zM380 257q0 41 -6 76.5t-20 62t-38 42t-60 15.5q-66 0 -95 -50.5
t-29 -145.5q0 -41 6 -77t20 -62.5t38 -42t60 -15.5q65 0 94.5 50.5t29.5 146.5z" />
    <glyph glyph-name="ocircumflex" unicode="&#xf4;" horiz-adv-x="512" 
d="M386 583l-127 85l-127 -85l-37 48l164 133l164 -133zM475 262q0 -61 -13.5 -111.5t-41.5 -86.5t-69.5 -56t-96.5 -20q-100 0 -158.5 66t-58.5 197q0 61 13.5 111.5t41.5 86.5t69 56t97 20q100 0 158.5 -66t58.5 -197zM380 257q0 41 -6 76.5t-20 62t-38 42t-60 15.5
q-66 0 -95 -50.5t-29 -145.5q0 -41 6 -77t20 -62.5t38 -42t60 -15.5q65 0 94.5 50.5t29.5 146.5z" />
    <glyph glyph-name="otilde" unicode="&#xf5;" horiz-adv-x="512" 
d="M412 687q-10 -32 -33 -57t-63 -25q-11 0 -22.5 2.5t-28.5 10.5l-25 11q-16 7 -23.5 8.5t-12.5 1.5q-20 0 -31.5 -10.5t-16.5 -23.5l-46 28q11 32 34 56.5t62 24.5q11 0 22 -2.5t28 -10.5l25 -11q15 -7 23 -8.5t13 -1.5q21 0 32 11t16 24l47 -28v0zM475 262
q0 -61 -13.5 -111.5t-41.5 -86.5t-69.5 -56t-96.5 -20q-100 0 -158.5 66t-58.5 197q0 61 13.5 111.5t41.5 86.5t69 56t97 20q100 0 158.5 -66t58.5 -197zM380 257q0 41 -6 76.5t-20 62t-38 42t-60 15.5q-66 0 -95 -50.5t-29 -145.5q0 -41 6 -77t20 -62.5t38 -42t60 -15.5
q65 0 94.5 50.5t29.5 146.5z" />
    <glyph glyph-name="odieresis" unicode="&#xf6;" horiz-adv-x="512" 
d="M401 662q0 -24 -14.5 -38.5t-37.5 -14.5t-37 14t-14 38t14.5 38t37.5 14q22 0 36.5 -13.5t14.5 -37.5zM219 662q0 -24 -14.5 -38.5t-37.5 -14.5q-22 0 -36.5 14t-14.5 38t14.5 38t37.5 14t37 -13.5t14 -37.5zM475 262q0 -61 -13.5 -111.5t-41.5 -86.5t-69.5 -56
t-96.5 -20q-100 0 -158.5 66t-58.5 197q0 61 13.5 111.5t41.5 86.5t69 56t97 20q100 0 158.5 -66t58.5 -197zM380 257q0 41 -6 76.5t-20 62t-38 42t-60 15.5q-66 0 -95 -50.5t-29 -145.5q0 -41 6 -77t20 -62.5t38 -42t60 -15.5q65 0 94.5 50.5t29.5 146.5z" />
    <glyph glyph-name="divide" unicode="&#xf7;" horiz-adv-x="640" 
d="M384 561q0 -29 -18.5 -47t-45.5 -18q-26 0 -45.5 17.5t-19.5 47.5q0 29 18 46.5t46 17.5t46.5 -17.5t18.5 -46.5zM23 316v70h594v-70h-594zM384 146q0 -30 -18.5 -47.5t-45.5 -17.5t-46 17.5t-19 47.5q0 29 18 46.5t47 17.5q27 0 45.5 -17t18.5 -47z" />
    <glyph glyph-name="oslash" unicode="&#xf8;" horiz-adv-x="512" 
d="M475 261q0 -61 -14 -111t-41.5 -86t-69.5 -55.5t-98 -19.5q-32 0 -59 6.5t-51 18.5l-36 -60h-66l58 96q-30 33 -46 82.5t-16 117.5q0 62 13.5 112.5t41.5 86.5t69.5 55.5t97.5 19.5q62 0 108 -26l34 56h68l-56 -92q30 -33 46.5 -82.5t16.5 -118.5zM324 430q-26 23 -69 23
q-65 0 -94 -50.5t-29 -145.5q0 -35 4 -65.5t15 -55.5zM379 254q0 76 -20 122l-174 -295q28 -22 70 -22q65 0 94.5 50.5t29.5 144.5z" />
    <glyph glyph-name="ugrave" unicode="&#xf9;" 
d="M375 -4v68q-8 -13 -21 -26t-31.5 -23t-42.5 -16.5t-54 -6.5q-38 0 -66 10.5t-47 27.5q-18 16 -28 36t-15 40.5t-6 40t-1 36.5v334h94v-314q0 -20 1.5 -43t11 -43t29.5 -33t57 -13q21 0 42 5t37.5 16.5t27 30t10.5 45.5v349h93v-513zM347 583l-193 109l44 69l182 -128z
" />
    <glyph glyph-name="uacute" unicode="&#xfa;" 
d="M196 583l-33 50l181 128l44 -69zM375 -4v68q-8 -13 -21 -26t-31.5 -23t-42.5 -16.5t-54 -6.5q-38 0 -66 10.5t-47 27.5q-18 16 -28 36t-15 40.5t-6 40t-1 36.5v334h94v-314q0 -20 1.5 -43t11 -43t29.5 -33t57 -13q21 0 42 5t37.5 16.5t27 30t10.5 45.5v349h93v-513z" />
    <glyph glyph-name="ucircumflex" unicode="&#xfb;" 
d="M394 583l-127 85l-127 -85l-37 48l164 133l164 -133zM375 -4v68q-8 -13 -21 -26t-31.5 -23t-42.5 -16.5t-54 -6.5q-38 0 -66 10.5t-47 27.5q-18 16 -28 36t-15 40.5t-6 40t-1 36.5v334h94v-314q0 -20 1.5 -43t11 -43t29.5 -33t57 -13q21 0 42 5t37.5 16.5t27 30
t10.5 45.5v349h93v-513z" />
    <glyph glyph-name="udieresis" unicode="&#xfc;" 
d="M410 662q0 -24 -14.5 -38.5t-37.5 -14.5t-37 14t-14 38t14.5 38t37.5 14q22 0 36.5 -13.5t14.5 -37.5zM228 662q0 -24 -14.5 -38.5t-37.5 -14.5q-22 0 -36.5 14t-14.5 38t14.5 38t37.5 14t37 -13.5t14 -37.5zM375 -4v68q-8 -13 -21 -26t-31.5 -23t-42.5 -16.5t-54 -6.5
q-38 0 -66 10.5t-47 27.5q-18 16 -28 36t-15 40.5t-6 40t-1 36.5v334h94v-314q0 -20 1.5 -43t11 -43t29.5 -33t57 -13q21 0 42 5t37.5 16.5t27 30t10.5 45.5v349h93v-513z" />
    <glyph glyph-name="yacute" unicode="&#xfd;" horiz-adv-x="442" 
d="M160 583l-33 50l181 128l44 -69zM241 -73q-12 -36 -27 -65t-35 -49.5t-47.5 -31.5t-65.5 -11q-24 0 -42 3.5t-28 8.5l-4 77q13 -8 30 -12t34 -4q36 0 58 18.5t38 63.5l25 70l-179 522h98l105 -332q20 -62 23 -88q6 32 23 85l108 335h90z" />
    <glyph glyph-name="thorn" unicode="&#xfe;" horiz-adv-x="526" 
d="M490 263q0 -79 -19.5 -131.5t-50 -83.5t-69 -43.5t-76.5 -12.5q-45 0 -71.5 12t-40.5 25v-259h-94v985l92 15v-316q7 12 18.5 25t28 23t39 16.5t51.5 6.5q48 0 84 -19t60 -53.5t36 -83t12 -106.5zM394 260q0 52 -8.5 87.5t-25 57.5t-39.5 32t-51 10q-50 0 -78.5 -25.5
t-28.5 -71.5v-252q11 -12 34.5 -23.5t61.5 -11.5q135 0 135 197z" />
    <glyph glyph-name="ydieresis" unicode="&#xff;" horiz-adv-x="442" 
d="M364 662q0 -24 -14.5 -38.5t-37.5 -14.5t-37 14t-14 38t14.5 38t37.5 14q22 0 36.5 -13.5t14.5 -37.5zM182 662q0 -24 -14.5 -38.5t-37.5 -14.5q-22 0 -36.5 14t-14.5 38t14.5 38t37.5 14t37 -13.5t14 -37.5zM241 -73q-12 -36 -27 -65t-35 -49.5t-47.5 -31.5t-65.5 -11
q-24 0 -42 3.5t-28 8.5l-4 77q13 -8 30 -12t34 -4q36 0 58 18.5t38 63.5l25 70l-179 522h98l105 -332q20 -62 23 -88q6 32 23 85l108 335h90z" />
    <glyph glyph-name="Amacron" unicode="&#x100;" horiz-adv-x="576" 
d="M143 789v73h288v-73h-288zM476 0l-75 233h-235l-76 -233h-92l238 705h109l231 -705h-100zM309 527q-8 26 -14.5 51.5t-9.5 42.5q-4 -16 -9.5 -36t-16.5 -56l-70 -221h189z" />
    <glyph glyph-name="amacron" unicode="&#x101;" horiz-adv-x="472" 
d="M92 619v73h288v-73h-288zM318 -4v67q-13 -25 -46.5 -47.5t-89.5 -22.5q-39 0 -67 12.5t-46 34.5t-26.5 50t-8.5 60q0 57 23 89t56.5 48.5t72 20.5t68.5 6l61 3v41q0 14 -1.5 31t-11 31.5t-30 24.5t-57.5 10q-49 0 -81 -16t-49 -35v80q16 14 53.5 27t97.5 13
q62 0 96.5 -16t51 -41t20 -54t3.5 -55v-354zM316 256l-60 -5q-28 -2 -51.5 -7t-41 -15.5t-27 -28.5t-9.5 -45q0 -16 4 -32t13.5 -28.5t26 -20.5t42.5 -8q47 0 75 26.5t28 67.5v96z" />
    <glyph glyph-name="Abreve" unicode="&#x102;" horiz-adv-x="576" 
d="M455 868q-10 -19 -25.5 -38.5t-36.5 -35t-48.5 -25t-60.5 -9.5q-34 0 -61.5 10t-48.5 25.5t-35.5 34.5t-22.5 37l57 36q17 -29 46 -51t69 -22q21 0 38.5 6.5t31.5 17t24.5 23t17.5 25.5l55 -34v0zM476 0l-75 233h-235l-76 -233h-92l238 705h109l231 -705h-100zM309 527
q-8 26 -14.5 51.5t-9.5 42.5q-4 -16 -9.5 -36t-16.5 -56l-70 -221h189z" />
    <glyph glyph-name="abreve" unicode="&#x103;" horiz-adv-x="472" 
d="M399 703q-10 -19 -25.5 -38.5t-36.5 -35t-48.5 -25t-60.5 -9.5q-34 0 -61.5 10t-48.5 25.5t-35.5 34.5t-22.5 37l57 36q17 -29 46 -51t69 -22q21 0 38.5 6.5t31.5 17t24.5 23t17.5 25.5l55 -34v0zM318 -4v67q-13 -25 -46.5 -47.5t-89.5 -22.5q-39 0 -67 12.5t-46 34.5
t-26.5 50t-8.5 60q0 57 23 89t56.5 48.5t72 20.5t68.5 6l61 3v41q0 14 -1.5 31t-11 31.5t-30 24.5t-57.5 10q-49 0 -81 -16t-49 -35v80q16 14 53.5 27t97.5 13q62 0 96.5 -16t51 -41t20 -54t3.5 -55v-354zM316 256l-60 -5q-28 -2 -51.5 -7t-41 -15.5t-27 -28.5t-9.5 -45
q0 -16 4 -32t13.5 -28.5t26 -20.5t42.5 -8q47 0 75 26.5t28 67.5v96z" />
    <glyph glyph-name="Aogonek" unicode="&#x104;" horiz-adv-x="576" 
d="M576 0q-26 -3 -45 -14t-31 -26t-17.5 -32.5t-5.5 -32.5q0 -23 12 -36.5t35 -13.5q15 0 28 5t21 13l-4 -63q-11 -7 -29.5 -12.5t-42.5 -5.5q-49 0 -73 25t-24 66q0 45 24 77t52 50l-75 233h-235l-76 -233h-92l238 705h109zM309 527q-15 49 -19 71t-6 22q-1 0 -1 -3
t-2.5 -12.5t-7 -27.5t-14.5 -48l-70 -221h189z" />
    <glyph glyph-name="aogonek" unicode="&#x105;" horiz-adv-x="472" 
d="M413 -200q-10 -5 -27.5 -11.5t-44.5 -6.5q-51 0 -74 25.5t-23 65.5q0 42 22 73t52 51v66q-13 -25 -46.5 -47.5t-89.5 -22.5q-39 0 -67 12.5t-46 34.5t-26.5 50t-8.5 60q0 57 23 89t56.5 48.5t72 20.5t68.5 6l61 3v41q0 14 -1.5 31t-11 31.5t-30 24.5t-57.5 10
q-49 0 -81 -16t-49 -35v80q16 14 53.5 27t97.5 13q62 0 96.5 -16t51 -41t20 -54t3.5 -55v-354q-40 -20 -63 -47.5t-23 -60.5q0 -25 12.5 -38t34.5 -13q15 0 28 5t21 13zM316 256l-60 -5q-28 -2 -51.5 -7t-41 -15.5t-27 -28.5t-9.5 -45q0 -16 4 -32t13.5 -28.5t26 -20.5
t42.5 -8q47 0 75 26.5t28 67.5v96z" />
    <glyph glyph-name="Cacute" unicode="&#x106;" horiz-adv-x="560" 
d="M301 753l-33 50l181 128l44 -69zM530 38q-29 -23 -79 -35t-106 -12q-85 0 -144 27.5t-96 75.5t-53.5 112t-16.5 137q0 62 11.5 119t37.5 104q42 75 112.5 110.5t159.5 35.5q60 0 106.5 -13t72.5 -30v-94q-23 23 -67.5 40.5t-104.5 17.5q-107 0 -168.5 -69t-61.5 -213
q0 -134 55.5 -207.5t170.5 -73.5q63 0 108.5 19.5t69.5 44.5z" />
    <glyph glyph-name="cacute" unicode="&#x107;" horiz-adv-x="432" 
d="M359 719l-113 -161l-51 31l98 171zM402 29q-21 -17 -58.5 -27.5t-81.5 -10.5q-35 0 -74.5 9.5t-73 37.5t-55.5 79t-22 134q0 51 10.5 100t36.5 87.5t69.5 62.5t110.5 24q41 0 79.5 -9.5t61.5 -27.5v-83q-14 15 -44.5 31t-82.5 16q-20 0 -45.5 -5.5t-48 -25t-37.5 -58
t-15 -104.5q0 -42 7.5 -77.5t25.5 -62t47 -41t72 -14.5q48 0 78 16t46 34z" />
    <glyph glyph-name="Ccircumflex" unicode="&#x108;" horiz-adv-x="560" 
d="M480 753l-127 85l-127 -85l-37 48l164 133l164 -133zM530 38q-29 -23 -79 -35t-106 -12q-85 0 -144 27.5t-96 75.5t-53.5 112t-16.5 137q0 62 11.5 119t37.5 104q42 75 112.5 110.5t159.5 35.5q60 0 106.5 -13t72.5 -30v-94q-23 23 -67.5 40.5t-104.5 17.5
q-107 0 -168.5 -69t-61.5 -213q0 -134 55.5 -207.5t170.5 -73.5q63 0 108.5 19.5t69.5 44.5z" />
    <glyph glyph-name="ccircumflex" unicode="&#x109;" horiz-adv-x="432" 
d="M383 583l-127 85l-127 -85l-37 48l164 133l164 -133zM402 29q-21 -17 -58.5 -27.5t-81.5 -10.5q-35 0 -74.5 9.5t-73 37.5t-55.5 79t-22 134q0 51 10.5 100t36.5 87.5t69.5 62.5t110.5 24q41 0 79.5 -9.5t61.5 -27.5v-83q-14 15 -44.5 31t-82.5 16q-20 0 -45.5 -5.5
t-48 -25t-37.5 -58t-15 -104.5q0 -42 7.5 -77.5t25.5 -62t47 -41t72 -14.5q48 0 78 16t46 34z" />
    <glyph glyph-name="Cdotaccent" unicode="&#x10a;" horiz-adv-x="560" 
d="M402 831q0 -26 -16 -42t-42 -16t-42 15.5t-16 41.5t16 42.5t42 16.5t42 -16t16 -42zM530 38q-29 -23 -79 -35t-106 -12q-85 0 -144 27.5t-96 75.5t-53.5 112t-16.5 137q0 62 11.5 119t37.5 104q42 75 112.5 110.5t159.5 35.5q60 0 106.5 -13t72.5 -30v-94
q-23 23 -67.5 40.5t-104.5 17.5q-107 0 -168.5 -69t-61.5 -213q0 -134 55.5 -207.5t170.5 -73.5q63 0 108.5 19.5t69.5 44.5z" />
    <glyph glyph-name="cdotaccent" unicode="&#x10b;" horiz-adv-x="432" 
d="M316 657q0 -26 -16 -42t-42 -16t-42 15.5t-16 41.5t16 42.5t42 16.5t42 -16t16 -42zM402 29q-21 -17 -58.5 -27.5t-81.5 -10.5q-35 0 -74.5 9.5t-73 37.5t-55.5 79t-22 134q0 51 10.5 100t36.5 87.5t69.5 62.5t110.5 24q41 0 79.5 -9.5t61.5 -27.5v-83q-14 15 -44.5 31
t-82.5 16q-20 0 -45.5 -5.5t-48 -25t-37.5 -58t-15 -104.5q0 -42 7.5 -77.5t25.5 -62t47 -41t72 -14.5q48 0 78 16t46 34z" />
    <glyph glyph-name="Ccaron" unicode="&#x10c;" horiz-adv-x="560" 
d="M351 749l-160 131l49 59l121 -94l118 90l41 -52zM530 38q-29 -23 -79 -35t-106 -12q-85 0 -144 27.5t-96 75.5t-53.5 112t-16.5 137q0 62 11.5 119t37.5 104q42 75 112.5 110.5t159.5 35.5q60 0 106.5 -13t72.5 -30v-94q-23 23 -67.5 40.5t-104.5 17.5q-107 0 -168.5 -69
t-61.5 -213q0 -134 55.5 -207.5t170.5 -73.5q63 0 108.5 19.5t69.5 44.5z" />
    <glyph glyph-name="ccaron" unicode="&#x10d;" horiz-adv-x="432" 
d="M251 583l-160 131l49 59l121 -94l118 90l41 -52zM402 29q-21 -17 -58.5 -27.5t-81.5 -10.5q-35 0 -74.5 9.5t-73 37.5t-55.5 79t-22 134q0 51 10.5 100t36.5 87.5t69.5 62.5t110.5 24q41 0 79.5 -9.5t61.5 -27.5v-83q-14 15 -44.5 31t-82.5 16q-20 0 -45.5 -5.5t-48 -25
t-37.5 -58t-15 -104.5q0 -42 7.5 -77.5t25.5 -62t47 -41t72 -14.5q48 0 78 16t46 34z" />
    <glyph glyph-name="Dcaron" unicode="&#x10e;" horiz-adv-x="632" 
d="M243 749l-160 131l49 59l121 -94l118 90l41 -52zM597 358q0 -54 -8.5 -103t-27 -90.5t-48 -74.5t-72.5 -54q-49 -24 -103.5 -30t-121.5 -6h-147v703h161q45 0 79 -1.5t62 -6.5t50.5 -13.5t44.5 -21.5q131 -82 131 -302zM498 355q0 98 -27 158.5t-77 87.5q-24 13 -55 18.5
t-86 5.5h-87v-547h76q53 0 88 6t62 21q56 31 81 95t25 155z" />
    <glyph glyph-name="dcaron" unicode="&#x10f;" horiz-adv-x="526" 
d="M611 790q0 -53 -8 -96t-16 -59l-7 -17h-53q5 28 5 98q0 20 -1.5 39t-3.5 28l-1 9h85v-2zM366 -4v66q-8 -12 -19.5 -24.5t-28 -22.5t-39 -16.5t-51.5 -6.5q-48 0 -84 19t-60 53.5t-35.5 82.5t-11.5 107q0 79 19.5 131.5t50 83.5t69 43.5t76.5 12.5q45 0 71.5 -12t40.5 -26
v269l93 14v-766zM364 418q-11 11 -35 23t-62 12q-69 0 -102 -48t-33 -148q0 -52 8.5 -87.5t25 -57.5t39 -32t51.5 -10q50 0 79 25.5t29 71.5v251z" />
    <glyph glyph-name="Dcroat" unicode="&#x110;" horiz-adv-x="631" 
d="M597 358q0 -54 -8.5 -103t-27 -90.5t-48 -74.5t-72.5 -54q-49 -24 -103.5 -30t-121.5 -6h-147v323h-68v70h68v310h161q45 0 79 -1.5t62 -6.5t50.5 -13.5t44.5 -21.5q131 -82 131 -302zM498 355q0 98 -27 158.5t-77 87.5q-24 13 -55 18.5t-86 5.5h-87v-232h170l-3 -70
h-167v-245h76q53 0 88 6t62 21q56 31 81 95t25 155z" />
    <glyph glyph-name="dcroat" unicode="&#x111;" horiz-adv-x="526" 
d="M366 -4v66q-8 -12 -19.5 -24.5t-28 -22.5t-39 -16.5t-51.5 -6.5q-48 0 -84 19t-60 53.5t-35.5 82.5t-11.5 107q0 79 19.5 131.5t50 83.5t69 43.5t76.5 12.5q45 0 71.5 -12t40.5 -26v84h-108v69h108v116l93 14v-130h69v-69h-69v-567zM364 418q-11 11 -35 23t-62 12
q-69 0 -102 -48t-33 -148q0 -52 8.5 -87.5t25 -57.5t39 -32t51.5 -10q50 0 79 25.5t29 71.5v251z" />
    <glyph glyph-name="Emacron" unicode="&#x112;" horiz-adv-x="460" 
d="M104 789v73h288v-73h-288zM435 0h-366v703h352v-80h-255v-222h212v-79h-212v-242h273z" />
    <glyph glyph-name="emacron" unicode="&#x113;" horiz-adv-x="486" 
d="M110 619v73h288v-73h-288zM131 247q0 -39 6.5 -73t23.5 -58.5t47 -39t78 -14.5q53 0 88 15.5t55 35.5l-6 -84q-23 -18 -65 -28t-90 -10q-40 0 -81 9.5t-74.5 38t-54.5 79t-21 133.5q0 61 13 111.5t40 86.5t68 56t98 20q65 0 103.5 -25t59 -63t27 -84.5t6.5 -89.5v-16
h-321zM359 314q0 26 -4 52t-15.5 46.5t-32.5 33.5t-55 13q-40 0 -63.5 -17t-36 -40t-16 -47.5t-3.5 -40.5h226z" />
    <glyph glyph-name="Edotaccent" unicode="&#x116;" horiz-adv-x="460" 
d="M308 831q0 -26 -16 -42t-42 -16t-42 15.5t-16 41.5t16 42.5t42 16.5t42 -16t16 -42zM435 0h-366v703h352v-80h-255v-222h212v-79h-212v-242h273z" />
    <glyph glyph-name="edotaccent" unicode="&#x117;" horiz-adv-x="486" 
d="M311 657q0 -26 -16 -42t-42 -16t-42 15.5t-16 41.5t16 42.5t42 16.5t42 -16t16 -42zM131 247q0 -39 6.5 -73t23.5 -58.5t47 -39t78 -14.5q53 0 88 15.5t55 35.5l-6 -84q-23 -18 -65 -28t-90 -10q-40 0 -81 9.5t-74.5 38t-54.5 79t-21 133.5q0 61 13 111.5t40 86.5t68 56
t98 20q65 0 103.5 -25t59 -63t27 -84.5t6.5 -89.5v-16h-321zM359 314q0 26 -4 52t-15.5 46.5t-32.5 33.5t-55 13q-40 0 -63.5 -17t-36 -40t-16 -47.5t-3.5 -40.5h226z" />
    <glyph glyph-name="Eogonek" unicode="&#x118;" horiz-adv-x="460" 
d="M435 0q-25 -3 -43 -13.5t-30 -25.5t-17.5 -32.5t-5.5 -33.5q0 -23 12 -36.5t35 -13.5q15 0 28 5t21 13l-4 -63q-11 -7 -29.5 -12.5t-42.5 -5.5q-49 0 -73 25t-24 66q0 45 24 77t51 50h-268v703h352v-80h-255v-222h212v-79h-212v-242h273z" />
    <glyph glyph-name="eogonek" unicode="&#x119;" horiz-adv-x="486" 
d="M131 247q0 -39 6.5 -73t23.5 -58.5t47 -39t78 -14.5q53 0 88 15.5t55 35.5l-6 -84q-12 -11 -39 -20q-45 -27 -63 -54.5t-18 -56.5q0 -25 12 -39t35 -14q17 0 29.5 5.5t19.5 12.5l-4 -63q-11 -7 -29.5 -12.5t-42.5 -5.5q-49 0 -73 25t-24 66q0 37 17.5 67t45.5 52
q-6 -1 -11.5 -1h-12.5q-38 0 -78.5 9.5t-73.5 38t-54.5 79t-21.5 133.5q0 61 13 111.5t40 86.5t68 56t98 20q65 0 103.5 -25t59 -63t27 -84.5t6.5 -89.5v-16h-321zM359 314q0 26 -4 52t-15.5 46.5t-32.5 33.5t-55 13q-40 0 -63.5 -17t-36 -40t-16 -47.5t-3.5 -40.5h226z" />
    <glyph glyph-name="Ecaron" unicode="&#x11a;" horiz-adv-x="460" 
d="M248 749l-160 131l49 59l121 -94l118 90l41 -52zM435 0h-366v703h352v-80h-255v-222h212v-79h-212v-242h273z" />
    <glyph glyph-name="ecaron" unicode="&#x11b;" horiz-adv-x="486" 
d="M247 583l-160 131l49 59l121 -94l118 90l41 -52zM131 247q0 -39 6.5 -73t23.5 -58.5t47 -39t78 -14.5q53 0 88 15.5t55 35.5l-6 -84q-23 -18 -65 -28t-90 -10q-40 0 -81 9.5t-74.5 38t-54.5 79t-21 133.5q0 61 13 111.5t40 86.5t68 56t98 20q65 0 103.5 -25t59 -63
t27 -84.5t6.5 -89.5v-16h-321zM359 314q0 26 -4 52t-15.5 46.5t-32.5 33.5t-55 13q-40 0 -63.5 -17t-36 -40t-16 -47.5t-3.5 -40.5h226z" />
    <glyph glyph-name="Gcircumflex" unicode="&#x11c;" horiz-adv-x="618" 
d="M485 753l-127 85l-127 -85l-37 48l164 133l164 -133zM558 47q-17 -14 -41 -24.5t-52 -17.5t-57.5 -10.5t-58.5 -3.5q-153 0 -233.5 90.5t-80.5 260.5q0 48 9.5 107.5t41.5 114.5q38 67 108 107.5t177 40.5q61 0 110 -12.5t77 -30.5v-94q-29 29 -79.5 43.5t-104.5 14.5
q-68 0 -114 -22t-74 -61t-40.5 -91.5t-12.5 -113.5q0 -136 56 -206.5t169 -70.5q35 0 62 5.5t42 12.5v226h96v-265v0z" />
    <glyph glyph-name="gcircumflex" unicode="&#x11d;" horiz-adv-x="525" 
d="M393 583l-127 85l-127 -85l-37 48l164 133l164 -133zM456 -2q0 -29 -1.5 -50.5t-5 -38.5t-10 -31t-15.5 -27q-18 -25 -41 -40.5t-49 -24.5t-53.5 -12.5t-53.5 -3.5q-63 0 -103 13t-57 26l-5 85q23 -20 61.5 -36.5t93.5 -16.5q35 0 69 10t54 38q17 22 20 49.5t3 47.5v77
q-17 -26 -49.5 -47t-86.5 -21q-48 0 -84 19.5t-59.5 54.5t-35 83t-11.5 105q0 78 19.5 129.5t50 82t68.5 43.5t76 13q45 0 73 -13t41 -26v31h91v-519zM363 418q-11 12 -35 23.5t-61 11.5q-135 0 -135 -194q0 -55 10 -91t27 -57t39.5 -29t47.5 -8q49 0 78 25t29 71v248z" />
    <glyph glyph-name="Gbreve" unicode="&#x11e;" horiz-adv-x="618" 
d="M520 868q-10 -19 -25.5 -38.5t-36.5 -35t-48.5 -25t-60.5 -9.5q-34 0 -61.5 10t-48.5 25.5t-35.5 34.5t-22.5 37l57 36q17 -29 46 -51t69 -22q21 0 38.5 6.5t31.5 17t24.5 23t17.5 25.5l55 -34v0zM558 47q-17 -14 -41 -24.5t-52 -17.5t-57.5 -10.5t-58.5 -3.5
q-153 0 -233.5 90.5t-80.5 260.5q0 48 9.5 107.5t41.5 114.5q38 67 108 107.5t177 40.5q61 0 110 -12.5t77 -30.5v-94q-29 29 -79.5 43.5t-104.5 14.5q-68 0 -114 -22t-74 -61t-40.5 -91.5t-12.5 -113.5q0 -136 56 -206.5t169 -70.5q35 0 62 5.5t42 12.5v226h96v-265v0z" />
    <glyph glyph-name="gbreve" unicode="&#x11f;" horiz-adv-x="525" 
d="M438 703q-10 -19 -25.5 -38.5t-36.5 -35t-48.5 -25t-60.5 -9.5q-34 0 -61.5 10t-48.5 25.5t-35.5 34.5t-22.5 37l57 36q17 -29 46 -51t69 -22q21 0 38.5 6.5t31.5 17t24.5 23t17.5 25.5l55 -34v0zM456 -2q0 -29 -1.5 -50.5t-5 -38.5t-10 -31t-15.5 -27q-18 -25 -41 -40.5
t-49 -24.5t-53.5 -12.5t-53.5 -3.5q-63 0 -103 13t-57 26l-5 85q23 -20 61.5 -36.5t93.5 -16.5q35 0 69 10t54 38q17 22 20 49.5t3 47.5v77q-17 -26 -49.5 -47t-86.5 -21q-48 0 -84 19.5t-59.5 54.5t-35 83t-11.5 105q0 78 19.5 129.5t50 82t68.5 43.5t76 13q45 0 73 -13
t41 -26v31h91v-519zM363 418q-11 12 -35 23.5t-61 11.5q-135 0 -135 -194q0 -55 10 -91t27 -57t39.5 -29t47.5 -8q49 0 78 25t29 71v248z" />
    <glyph glyph-name="Gdotaccent" unicode="&#x120;" horiz-adv-x="500" 
d="M417 831q0 -26 -16 -42t-42 -16t-42 15.5t-16 41.5t16 42.5t42 16.5t42 -16t16 -42zM558 47q-17 -14 -41 -24.5t-52 -17.5t-57.5 -10.5t-58.5 -3.5q-153 0 -233.5 90.5t-80.5 260.5q0 48 9.5 107.5t41.5 114.5q38 67 108 107.5t177 40.5q61 0 110 -12.5t77 -30.5v-94
q-29 29 -79.5 43.5t-104.5 14.5q-68 0 -114 -22t-74 -61t-40.5 -91.5t-12.5 -113.5q0 -136 56 -206.5t169 -70.5q35 0 62 5.5t42 12.5v226h96v-265v0z" />
    <glyph glyph-name="gdotaccent" unicode="&#x121;" horiz-adv-x="525" 
d="M311 657q0 -26 -16 -42t-42 -16t-42 15.5t-16 41.5t16 42.5t42 16.5t42 -16t16 -42zM456 -2q0 -29 -1.5 -50.5t-5 -38.5t-10 -31t-15.5 -27q-18 -25 -41 -40.5t-49 -24.5t-53.5 -12.5t-53.5 -3.5q-63 0 -103 13t-57 26l-5 85q23 -20 61.5 -36.5t93.5 -16.5q35 0 69 10
t54 38q17 22 20 49.5t3 47.5v77q-17 -26 -49.5 -47t-86.5 -21q-48 0 -84 19.5t-59.5 54.5t-35 83t-11.5 105q0 78 19.5 129.5t50 82t68.5 43.5t76 13q45 0 73 -13t41 -26v31h91v-519zM363 418q-11 12 -35 23.5t-61 11.5q-135 0 -135 -194q0 -55 10 -91t27 -57t39.5 -29
t47.5 -8q49 0 78 25t29 71v248z" />
    <glyph glyph-name="uni0122" unicode="&#x122;" horiz-adv-x="618" 
d="M383 -57q0 -53 -8 -96t-16 -59l-7 -17h-53q5 28 5 98q0 20 -1.5 39t-3.5 28l-1 9h85v-2zM558 47q-17 -14 -41 -24.5t-52 -17.5t-57.5 -10.5t-58.5 -3.5q-153 0 -233.5 90.5t-80.5 260.5q0 48 9.5 107.5t41.5 114.5q38 67 108 107.5t177 40.5q61 0 110 -12.5t77 -30.5v-94
q-29 29 -79.5 43.5t-104.5 14.5q-68 0 -114 -22t-74 -61t-40.5 -91.5t-12.5 -113.5q0 -136 56 -206.5t169 -70.5q35 0 62 5.5t42 12.5v226h96v-265v0z" />
    <glyph glyph-name="uni0123" unicode="&#x123;" horiz-adv-x="525" 
d="M299 583h-85v2q0 53 8 96t16 59l7 17h53q-5 -28 -5 -98q0 -20 1.5 -39t3.5 -28zM456 -2q0 -29 -1.5 -50.5t-5 -38.5t-10 -31t-15.5 -27q-18 -25 -41 -40.5t-49 -24.5t-53.5 -12.5t-53.5 -3.5q-63 0 -103 13t-57 26l-5 85q23 -20 61.5 -36.5t93.5 -16.5q35 0 69 10t54 38
q17 22 20 49.5t3 47.5v77q-17 -26 -49.5 -47t-86.5 -21q-48 0 -84 19.5t-59.5 54.5t-35 83t-11.5 105q0 78 19.5 129.5t50 82t68.5 43.5t76 13q45 0 73 -13t41 -26v31h91v-519zM363 418q-11 12 -35 23.5t-61 11.5q-135 0 -135 -194q0 -55 10 -91t27 -57t39.5 -29t47.5 -8
q49 0 78 25t29 71v248z" />
    <glyph glyph-name="Hcircumflex" unicode="&#x124;" horiz-adv-x="630" 
d="M443 753l-127 85l-127 -85l-37 48l164 133l164 -133zM464 0v320h-298v-320h-97v703h97v-302h298v302h97v-703h-97z" />
    <glyph glyph-name="hcircumflex" unicode="&#x125;" 
d="M257 753l-127 85l-127 -85l-37 48l164 133l164 -133zM379 0v312q0 19 -2 42.5t-11.5 44t-30 34t-57.5 13.5q-21 0 -41.5 -5t-37 -16.5t-26.5 -30t-10 -45.5v-349h-94v756l94 14v-316q16 26 51.5 48.5t93.5 22.5q40 0 68 -11.5t47 -28.5q18 -17 28 -36.5t14.5 -40t5.5 -40
t1 -35.5v-333h-93z" />
    <glyph glyph-name="Hbar" unicode="&#x126;" horiz-adv-x="630" 
d="M464 0v320h-298v-320h-97v703h97v-111h298v111h97v-703h-97zM464 401v110h-298v-110h298z" />
    <glyph glyph-name="hbar" unicode="&#x127;" 
d="M379 0v312q0 19 -2 42.5t-11.5 44t-30 34t-57.5 13.5q-21 0 -41.5 -5t-37 -16.5t-26.5 -30t-10 -45.5v-349h-94v571h-69v69h69v116l94 14v-130h107v-69h-107v-117q16 26 51.5 48.5t93.5 22.5q40 0 68 -11.5t47 -28.5q18 -17 28 -36.5t14.5 -40t5.5 -40t1 -35.5v-333h-93z
" />
    <glyph glyph-name="Itilde" unicode="&#x128;" horiz-adv-x="235" 
d="M267 857q-10 -32 -33 -57t-63 -25q-11 0 -22.5 2.5t-28.5 10.5l-25 11q-16 7 -23.5 8.5t-12.5 1.5q-20 0 -31.5 -10.5t-16.5 -23.5l-46 28q11 32 34 56.5t62 24.5q11 0 22 -2.5t28 -10.5l25 -11q15 -7 23 -8.5t13 -1.5q21 0 32 11t16 24l47 -28v0zM69 0v703h97v-703h-97z
" />
    <glyph glyph-name="itilde" unicode="&#x129;" horiz-adv-x="235" 
d="M267 687q-10 -32 -33 -57t-63 -25q-11 0 -22.5 2.5t-28.5 10.5l-25 11q-16 7 -23.5 8.5t-12.5 1.5q-20 0 -31.5 -10.5t-16.5 -23.5l-46 28q11 32 34 56.5t62 24.5q11 0 22 -2.5t28 -10.5l25 -11q15 -7 23 -8.5t13 -1.5q21 0 32 11t16 24l47 -28v0zM70 0v517h94v-517h-94z
" />
    <glyph glyph-name="Imacron" unicode="&#x12a;" horiz-adv-x="235" 
d="M-25 789v73h288v-73h-288zM69 0v703h97v-703h-97z" />
    <glyph glyph-name="imacron" unicode="&#x12b;" horiz-adv-x="235" 
d="M70 0v517h94v-517h-94zM-25 619v73h288v-73h-288z" />
    <glyph glyph-name="Iogonek" unicode="&#x12e;" horiz-adv-x="235" 
d="M166 0q-24 -3 -42 -13.5t-29.5 -25.5t-17.5 -32.5t-6 -33.5q0 -23 12 -36.5t35 -13.5q15 0 28 5t21 13l-4 -63q-11 -7 -29.5 -12.5t-42.5 -5.5q-49 0 -73 25t-24 66q0 45 24 77t51 50v703h97v-703v0z" />
    <glyph glyph-name="iogonek" unicode="&#x12f;" horiz-adv-x="231" 
d="M163 0q-22 -2 -39 -12.5t-29 -25.5t-18 -32.5t-6 -33.5q0 -23 12 -37t35 -14q15 0 28 5t21 13l-4 -63q-11 -7 -29.5 -12.5t-42.5 -5.5q-49 0 -73 25t-24 66q0 45 24 77t51 50v517h94v-517zM172 692q0 -28 -17 -40.5t-40 -12.5q-24 0 -39.5 13.5t-15.5 39.5q0 27 17 40
t40 13q25 0 40 -14t15 -39z" />
    <glyph glyph-name="Idotaccent" unicode="&#x130;" horiz-adv-x="235" 
d="M177 831q0 -26 -16 -42t-42 -16t-42 15.5t-16 41.5t16 42.5t42 16.5t42 -16t16 -42zM69 0v703h97v-703h-97z" />
    <glyph glyph-name="dotlessi" unicode="&#x131;" horiz-adv-x="235" 
d="M70 0v517h94v-517h-94z" />
    <glyph glyph-name="Jcircumflex" unicode="&#x134;" horiz-adv-x="272" 
d="M282 753l-127 85l-127 -85l-37 48l164 133l164 -133zM205 149q0 -22 -3 -49t-16 -51t-40 -40t-76 -16q-28 0 -47.5 4.5t-26.5 7.5l-7 81q6 -5 20.5 -10.5t36.5 -5.5q40 0 51.5 22t11.5 54v557h96v-554v0z" />
    <glyph glyph-name="jcircumflex" unicode="&#x135;" horiz-adv-x="237" 
d="M168 -78q0 -152 -142 -152q-43 0 -67 11l-5 75q22 -14 52 -14q42 0 55.5 22t13.5 64v589h93v-595zM247 583l-127 85l-127 -85l-37 48l164 133l164 -133z" />
    <glyph glyph-name="uni0136" unicode="&#x136;" horiz-adv-x="536" 
d="M289 -57q0 -53 -8 -96t-16 -59l-7 -17h-53q5 28 5 98q0 20 -1.5 39t-3.5 28l-1 9h85v-2zM423 0l-257 359v-359h-97v703h97v-325l265 325h110l-275 -327l276 -376h-119z" />
    <glyph glyph-name="uni0137" unicode="&#x137;" horiz-adv-x="451" 
d="M260 -57q0 -53 -8 -96t-16 -59l-7 -17h-53q5 28 5 98q0 20 -1.5 39t-3.5 28l-1 9h85v-2zM260 286l195 -286h-112l-180 270v-270h-94v756l94 14v-484l188 231h105z" />
    <glyph glyph-name="kgreenlandic" unicode="&#x138;" horiz-adv-x="451" 
d="M260 277l195 -277h-112l-180 264v-264h-94v510l94 14v-244l188 237h105z" />
    <glyph glyph-name="Lacute" unicode="&#x139;" horiz-adv-x="437" 
d="M110 753l-33 50l181 128l44 -69zM418 0h-349v703h97v-623h252v-80z" />
    <glyph glyph-name="lacute" unicode="&#x13a;" horiz-adv-x="232" 
d="M47 763l-33 50l181 128l44 -69zM69 0v756l94 14v-770h-94z" />
    <glyph glyph-name="uni013B" unicode="&#x13b;" horiz-adv-x="437" 
d="M278 -57q0 -53 -8 -96t-16 -59l-7 -17h-53q5 28 5 98q0 20 -1.5 39t-3.5 28l-1 9h85v-2zM418 0h-349v703h97v-623h252v-80z" />
    <glyph glyph-name="uni013C" unicode="&#x13c;" horiz-adv-x="232" 
d="M157 -57q0 -53 -8 -96t-16 -59l-7 -17h-53q5 28 5 98q0 20 -1.5 39t-3.5 28l-1 9h85v-2zM69 0v756l94 14v-770h-94z" />
    <glyph glyph-name="Lcaron" unicode="&#x13d;" horiz-adv-x="437" 
d="M347 723q0 -53 -8 -96t-16 -59l-7 -17h-53q5 28 5 98q0 20 -1.5 39t-3.5 28l-1 9h85v-2zM418 0h-349v703h97v-623h252v-80z" />
    <glyph glyph-name="lcaron" unicode="&#x13e;" horiz-adv-x="232" 
d="M328 790q0 -53 -8 -96t-16 -59l-7 -17h-53q5 28 5 98q0 20 -1.5 39t-3.5 28l-1 9h85v-2zM69 0v756l94 14v-770h-94z" />
    <glyph glyph-name="Ldot" unicode="&#x13f;" horiz-adv-x="437" 
d="M391 468q0 -26 -16 -42t-42 -16t-42 15.5t-16 41.5t16 42.5t42 16.5t42 -16t16 -42zM418 0h-349v703h97v-623h252v-80z" />
    <glyph glyph-name="ldot" unicode="&#x140;" horiz-adv-x="232" 
d="M335 468q0 -26 -16 -42t-42 -16t-42 15.5t-16 41.5t16 42.5t42 16.5t42 -16t16 -42zM69 0v756l94 14v-770h-94z" />
    <glyph glyph-name="Lslash" unicode="&#x141;" horiz-adv-x="441" 
d="M422 0h-349v281l-41 -23l-32 58l73 41v346h96v-292l133 74l32 -58l-165 -93v-254h257z" />
    <glyph glyph-name="lslash" unicode="&#x142;" horiz-adv-x="235" 
d="M164 384v-384h-94v316l-24 -18l-39 54l63 46v358l94 14v-304l33 25l39 -54z" />
    <glyph glyph-name="Nacute" unicode="&#x143;" horiz-adv-x="634" 
d="M266 753l-33 50l181 128l44 -69zM472 0l-266 450q-20 35 -33.5 64.5t-17.5 43.5v-558h-86v703h99l253 -433q23 -40 38 -73t20 -50v556h86v-703h-93z" />
    <glyph glyph-name="nacute" unicode="&#x144;" 
d="M386 719l-113 -161l-51 31l98 171zM379 0v312q0 19 -2 42.5t-11.5 44t-30 34t-57.5 13.5q-21 0 -41.5 -5t-37 -16.5t-26.5 -30t-10 -45.5v-349h-94v517h92v-64q8 13 21 26t31 23t42 16.5t53 6.5q40 0 68 -11.5t47 -28.5q18 -17 28 -36.5t14.5 -40t5.5 -40t1 -35.5v-333
h-93z" />
    <glyph glyph-name="uni0145" unicode="&#x145;" horiz-adv-x="634" 
d="M347 -57q0 -53 -8 -96t-16 -59l-7 -17h-53q5 28 5 98q0 20 -1.5 39t-3.5 28l-1 9h85v-2zM472 0l-266 450q-20 35 -33.5 64.5t-17.5 43.5v-558h-86v703h99l253 -433q23 -40 38 -73t20 -50v556h86v-703h-93z" />
    <glyph glyph-name="uni0146" unicode="&#x146;" 
d="M306 -57q0 -53 -8 -96t-16 -59l-7 -17h-53q5 28 5 98q0 20 -1.5 39t-3.5 28l-1 9h85v-2zM379 0v312q0 19 -2 42.5t-11.5 44t-30 34t-57.5 13.5q-21 0 -41.5 -5t-37 -16.5t-26.5 -30t-10 -45.5v-349h-94v517h92v-64q8 13 21 26t31 23t42 16.5t53 6.5q40 0 68 -11.5
t47 -28.5q18 -17 28 -36.5t14.5 -40t5.5 -40t1 -35.5v-333h-93z" />
    <glyph glyph-name="Ncaron" unicode="&#x147;" horiz-adv-x="634" 
d="M315 749l-160 131l49 59l121 -94l118 90l41 -52zM472 0l-266 450q-20 35 -33.5 64.5t-17.5 43.5v-558h-86v703h99l253 -433q23 -40 38 -73t20 -50v556h86v-703h-93z" />
    <glyph glyph-name="ncaron" unicode="&#x148;" 
d="M276 583l-160 131l49 59l121 -94l118 90l41 -52zM379 0v312q0 19 -2 42.5t-11.5 44t-30 34t-57.5 13.5q-21 0 -41.5 -5t-37 -16.5t-26.5 -30t-10 -45.5v-349h-94v517h92v-64q8 13 21 26t31 23t42 16.5t53 6.5q40 0 68 -11.5t47 -28.5q18 -17 28 -36.5t14.5 -40t5.5 -40
t1 -35.5v-333h-93z" />
    <glyph glyph-name="napostrophe" unicode="&#x149;" 
d="M90 790q0 -53 -8 -96t-16 -59l-7 -17h-53q5 28 5 98q0 20 -1.5 39t-3.5 28l-1 9h85v-2zM379 0v312q0 19 -2 42.5t-11.5 44t-30 34t-57.5 13.5q-21 0 -41.5 -5t-37 -16.5t-26.5 -30t-10 -45.5v-349h-94v517h92v-64q8 13 21 26t31 23t42 16.5t53 6.5q40 0 68 -11.5
t47 -28.5q18 -17 28 -36.5t14.5 -40t5.5 -40t1 -35.5v-333h-93z" />
    <glyph glyph-name="Eng" unicode="&#x14a;" horiz-adv-x="634" 
d="M565 -78q0 -28 -6 -55.5t-21.5 -49t-43.5 -34.5t-72 -13q-25 0 -41.5 3.5t-24.5 7.5l-5 75q6 -4 19.5 -9t34.5 -5q22 0 35.5 7t20.5 19t9 27.5t2 32.5v72l-266 450q-27 46 -37.5 71.5t-13.5 35.5v-557h-86v703h99l253 -433q23 -40 38 -73t20 -50v556h86v-781v0z" />
    <glyph glyph-name="eng" unicode="&#x14b;" 
d="M472 -78q0 -28 -6 -55.5t-21.5 -49t-43.5 -34.5t-72 -13q-25 0 -41.5 3.5t-24.5 7.5l-5 75q6 -4 19.5 -9t34.5 -5q22 0 35.5 7t20.5 19t9 27.5t2 32.5v384q0 19 -2 42.5t-11.5 44t-30 34t-57.5 13.5q-21 0 -41.5 -5t-37 -16.5t-26.5 -30t-10 -45.5v-349h-94v517h92v-64
q8 13 21 26t31 23t42 16.5t53 6.5q40 0 68 -11.5t47 -28.5q18 -17 28 -36.5t14.5 -40t5.5 -40t1 -35.5v-411v0z" />
    <glyph glyph-name="Omacron" unicode="&#x14c;" horiz-adv-x="644" 
d="M175 789v73h288v-73h-288zM609 357q0 -88 -20 -156.5t-57.5 -115.5t-91.5 -71.5t-123 -24.5q-66 0 -118 22.5t-88.5 67.5t-56 111.5t-19.5 153.5q0 88 19.5 156.5t57 115.5t91.5 72t123 25q66 0 118 -23t89 -68t56.5 -111.5t19.5 -153.5zM510 353q0 145 -48 213.5
t-139 68.5q-92 0 -140.5 -70t-48.5 -217q0 -145 47.5 -213.5t138.5 -68.5q92 0 141 70t49 217z" />
    <glyph glyph-name="omacron" unicode="&#x14d;" horiz-adv-x="512" 
d="M110 619v73h288v-73h-288zM475 262q0 -61 -13.5 -111.5t-41.5 -86.5t-69.5 -56t-96.5 -20q-100 0 -158.5 66t-58.5 197q0 61 13.5 111.5t41.5 86.5t69 56t97 20q100 0 158.5 -66t58.5 -197zM380 257q0 41 -6 76.5t-20 62t-38 42t-60 15.5q-66 0 -95 -50.5t-29 -145.5
q0 -41 6 -77t20 -62.5t38 -42t60 -15.5q65 0 94.5 50.5t29.5 146.5z" />
    <glyph glyph-name="Ohungarumlaut" unicode="&#x150;" horiz-adv-x="644" 
d="M187 753l-33 50l181 128l44 -69zM403 753l-33 50l181 128l44 -69zM609 357q0 -88 -20 -156.5t-57.5 -115.5t-91.5 -71.5t-123 -24.5q-66 0 -118 22.5t-88.5 67.5t-56 111.5t-19.5 153.5q0 88 19.5 156.5t57 115.5t91.5 72t123 25q66 0 118 -23t89 -68t56.5 -111.5
t19.5 -153.5zM510 353q0 145 -48 213.5t-139 68.5q-92 0 -140.5 -70t-48.5 -217q0 -145 47.5 -213.5t138.5 -68.5q92 0 141 70t49 217z" />
    <glyph glyph-name="ohungarumlaut" unicode="&#x151;" horiz-adv-x="512" 
d="M467 744l-113 -161l-51 31l98 171zM285 744l-113 -161l-51 31l98 171zM475 262q0 -61 -13.5 -111.5t-41.5 -86.5t-69.5 -56t-96.5 -20q-100 0 -158.5 66t-58.5 197q0 61 13.5 111.5t41.5 86.5t69 56t97 20q100 0 158.5 -66t58.5 -197zM380 257q0 41 -6 76.5t-20 62
t-38 42t-60 15.5q-66 0 -95 -50.5t-29 -145.5q0 -41 6 -77t20 -62.5t38 -42t60 -15.5q65 0 94.5 50.5t29.5 146.5z" />
    <glyph glyph-name="OE" unicode="&#x152;" horiz-adv-x="827" 
d="M802 0h-363q-17 -3 -47 -7t-65 -4q-141 0 -216.5 87.5t-75.5 265.5q0 88 19 157.5t57 117.5t94.5 73.5t131.5 25.5q34 0 60 -4t43 -9h348v-80h-255v-222h212v-80h-212v-242h273zM436 619q-17 8 -41 13.5t-57 5.5q-108 0 -156 -71.5t-48 -217.5q0 -149 49 -216.5
t156 -67.5q26 0 51.5 4t45.5 12v538z" />
    <glyph glyph-name="oe" unicode="&#x153;" horiz-adv-x="827" 
d="M472 247q0 -39 6.5 -73t23.5 -58.5t47 -39t78 -14.5q53 0 88 15.5t55 35.5l-6 -84q-26 -20 -68 -29t-84 -9q-28 0 -56 4.5t-53 15.5t-46 29.5t-35 47.5q-23 -45 -65 -72.5t-108 -27.5q-96 0 -154 66t-58 197q0 61 14 111.5t41.5 86.5t68 56t94.5 20q65 0 105.5 -27.5
t63.5 -73.5q24 47 66 74t108 27q64 0 103 -25t59 -63t26.5 -84.5t6.5 -89.5v-16h-321zM700 314q0 26 -4 52t-16 46.5t-33 33.5t-55 13q-40 0 -63.5 -17t-35.5 -40.5t-15.5 -48t-3.5 -39.5h226zM380 257q0 41 -6 76.5t-20 62t-38 42t-60 15.5q-66 0 -95 -50.5t-29 -145.5
q0 -41 6 -77t20 -62.5t38 -42t60 -15.5q65 0 94.5 50.5t29.5 146.5z" />
    <glyph glyph-name="Racute" unicode="&#x154;" horiz-adv-x="524" 
d="M178 753l-33 50l181 128l44 -69zM399 0l-234 326v-326h-96v703h141q59 0 100.5 -5t73.5 -23q79 -45 79 -154q0 -53 -17.5 -90t-45 -60t-61.5 -33t-66 -10l244 -328h-118zM364 513q0 38 -11 61.5t-30 36t-44.5 16.5t-53.5 4h-60v-246h62q26 0 51 5.5t44 19.5t30.5 39
t11.5 64z" />
    <glyph glyph-name="racute" unicode="&#x155;" horiz-adv-x="343" 
d="M156 583l-33 50l181 128l44 -69zM334 423q-13 12 -33.5 17.5t-39.5 5.5q-28 0 -46.5 -10.5t-30 -27t-16.5 -37.5t-5 -41v-330h-94v517h91v-73q14 32 42.5 56.5t74.5 24.5q20 0 37.5 -5t28.5 -13z" />
    <glyph glyph-name="uni0156" unicode="&#x156;" horiz-adv-x="524" 
d="M284 -57q0 -53 -8 -96t-16 -59l-7 -17h-53q5 28 5 98q0 20 -1.5 39t-3.5 28l-1 9h85v-2zM399 0l-234 326v-326h-96v703h141q59 0 100.5 -5t73.5 -23q79 -45 79 -154q0 -53 -17.5 -90t-45 -60t-61.5 -33t-66 -10l244 -328h-118zM364 513q0 38 -11 61.5t-30 36t-44.5 16.5
t-53.5 4h-60v-246h62q26 0 51 5.5t44 19.5t30.5 39t11.5 64z" />
    <glyph glyph-name="uni0157" unicode="&#x157;" horiz-adv-x="343" 
d="M156 -57q0 -53 -8 -96t-16 -59l-7 -17h-53q5 28 5 98q0 20 -1.5 39t-3.5 28l-1 9h85v-2zM334 423q-13 12 -33.5 17.5t-39.5 5.5q-28 0 -46.5 -10.5t-30 -27t-16.5 -37.5t-5 -41v-330h-94v517h91v-73q14 32 42.5 56.5t74.5 24.5q20 0 37.5 -5t28.5 -13z" />
    <glyph glyph-name="Rcaron" unicode="&#x158;" horiz-adv-x="524" 
d="M217 749l-160 131l49 59l121 -94l118 90l41 -52zM399 0l-234 326v-326h-96v703h141q59 0 100.5 -5t73.5 -23q79 -45 79 -154q0 -53 -17.5 -90t-45 -60t-61.5 -33t-66 -10l244 -328h-118zM364 513q0 38 -11 61.5t-30 36t-44.5 16.5t-53.5 4h-60v-246h62q26 0 51 5.5
t44 19.5t30.5 39t11.5 64z" />
    <glyph glyph-name="rcaron" unicode="&#x159;" horiz-adv-x="343" 
d="M196 583l-160 131l49 59l121 -94l118 90l41 -52zM334 423q-13 12 -33.5 17.5t-39.5 5.5q-28 0 -46.5 -10.5t-30 -27t-16.5 -37.5t-5 -41v-330h-94v517h91v-73q14 32 42.5 56.5t74.5 24.5q20 0 37.5 -5t28.5 -13z" />
    <glyph glyph-name="Sacute" unicode="&#x15a;" horiz-adv-x="463" 
d="M178 753l-33 50l181 128l44 -69zM429 189q0 -91 -56 -144.5t-168 -53.5q-61 0 -105 14t-67 31l-6 97q23 -23 67.5 -43t105.5 -20q63 0 98.5 27t35.5 86q0 22 -5 37.5t-15 28.5t-25.5 24t-35.5 23l-84 50q-23 13 -45.5 28t-41.5 36t-30.5 50t-11.5 70q0 39 12 72
t37.5 57.5t64.5 38.5t94 14q62 0 101 -14.5t57 -28.5v-93q-19 19 -59 38t-98 19q-115 0 -115 -94q0 -23 6.5 -40t18.5 -29.5t28 -23.5t36 -22l82 -48q23 -14 45 -29t39.5 -36.5t28.5 -51t11 -70.5z" />
    <glyph glyph-name="sacute" unicode="&#x15b;" horiz-adv-x="391" 
d="M294 719l-113 -161l-51 31l98 171zM358 139q0 -46 -17.5 -74.5t-43.5 -44.5t-57.5 -22t-59.5 -6q-50 0 -86.5 12t-56.5 28l-5 85q21 -21 57.5 -38t88.5 -17q41 0 66.5 15t25.5 55q0 27 -14.5 42.5t-51.5 35.5l-56 31q-19 10 -37.5 22.5t-33 29t-23.5 39.5t-9 55
q0 45 17 72.5t42 42t53 19t50 4.5q49 0 81 -12t49 -26v-82q-19 19 -51 34.5t-74 15.5q-27 0 -43 -7t-24 -17t-10.5 -21t-2.5 -19q0 -17 5.5 -29t15 -20.5t22 -15t25.5 -13.5l57 -29q20 -10 38 -22t32 -29t22.5 -40t8.5 -54z" />
    <glyph glyph-name="Scircumflex" unicode="&#x15c;" horiz-adv-x="463" 
d="M370 753l-127 85l-127 -85l-37 48l164 133l164 -133zM429 189q0 -91 -56 -144.5t-168 -53.5q-61 0 -105 14t-67 31l-6 97q23 -23 67.5 -43t105.5 -20q63 0 98.5 27t35.5 86q0 22 -5 37.5t-15 28.5t-25.5 24t-35.5 23l-84 50q-23 13 -45.5 28t-41.5 36t-30.5 50t-11.5 70
q0 39 12 72t37.5 57.5t64.5 38.5t94 14q62 0 101 -14.5t57 -28.5v-93q-19 19 -59 38t-98 19q-115 0 -115 -94q0 -23 6.5 -40t18.5 -29.5t28 -23.5t36 -22l82 -48q23 -14 45 -29t39.5 -36.5t28.5 -51t11 -70.5z" />
    <glyph glyph-name="scircumflex" unicode="&#x15d;" horiz-adv-x="391" 
d="M328 583l-127 85l-127 -85l-37 48l164 133l164 -133zM358 139q0 -46 -17.5 -74.5t-43.5 -44.5t-57.5 -22t-59.5 -6q-50 0 -86.5 12t-56.5 28l-5 85q21 -21 57.5 -38t88.5 -17q41 0 66.5 15t25.5 55q0 27 -14.5 42.5t-51.5 35.5l-56 31q-19 10 -37.5 22.5t-33 29
t-23.5 39.5t-9 55q0 45 17 72.5t42 42t53 19t50 4.5q49 0 81 -12t49 -26v-82q-19 19 -51 34.5t-74 15.5q-27 0 -43 -7t-24 -17t-10.5 -21t-2.5 -19q0 -17 5.5 -29t15 -20.5t22 -15t25.5 -13.5l57 -29q20 -10 38 -22t32 -29t22.5 -40t8.5 -54z" />
    <glyph glyph-name="Scedilla" unicode="&#x15e;" horiz-adv-x="463" 
d="M429 189q0 -81 -45 -133.5t-138 -61.5v-10q0 -16 6.5 -21.5t18.5 -16.5t25.5 -27t13.5 -47q0 -38 -24.5 -64t-70.5 -26q-16 0 -30 3t-23 8l-4 59q11 -8 23.5 -12t23.5 -4q16 0 27.5 8.5t11.5 26.5q0 16 -8.5 25.5t-20.5 18.5q-13 10 -22 21.5t-9 36.5q0 15 1 19
q-48 2 -90 15t-62 29l-6 97q23 -23 67.5 -43t105.5 -20q63 0 98.5 27t35.5 86q0 22 -5 37.5t-15 28.5t-25.5 24t-35.5 23l-84 50q-23 13 -45.5 28t-41.5 36t-30.5 50t-11.5 70q0 39 12 72t37.5 57.5t64.5 38.5t94 14q62 0 101 -14.5t57 -28.5v-93q-19 19 -59 38t-98 19
q-115 0 -115 -94q0 -23 6.5 -40t18.5 -29.5t28 -23.5t36 -22l82 -48q23 -14 45 -29t39.5 -36.5t28.5 -51t11 -70.5z" />
    <glyph glyph-name="scedilla" unicode="&#x15f;" horiz-adv-x="391" 
d="M278 -128q0 -38 -24.5 -64t-70.5 -26q-16 0 -30 3t-23 8l-4 59q11 -8 23.5 -12t23.5 -4q16 0 27.5 8.5t11.5 26.5q0 16 -8.5 25.5t-20.5 18.5q-13 10 -22 21.5t-9 36.5q0 16 1 20q-38 3 -69 14t-47 25l-5 85q21 -21 57.5 -38t88.5 -17q41 0 66.5 15t25.5 55
q0 27 -14.5 42.5t-51.5 35.5l-56 31q-19 10 -37.5 22.5t-33 29t-23.5 39.5t-9 55q0 45 17 72.5t42 42t53 19t50 4.5q49 0 81 -12t49 -26v-82q-19 19 -51 34.5t-74 15.5q-27 0 -43 -7t-24 -17t-10.5 -21t-2.5 -19q0 -17 5.5 -29t15 -20.5t22 -15t25.5 -13.5l57 -29
q20 -10 38 -22t32 -29t22.5 -39.5t8.5 -53.5q0 -39 -13 -66t-33.5 -44t-46.5 -25t-51 -11v-10q0 -16 6.5 -21.5t18.5 -16.5t25.5 -27t13.5 -47z" />
    <glyph glyph-name="Scaron" unicode="&#x160;" horiz-adv-x="463" 
d="M236 749l-160 131l49 59l121 -94l118 90l41 -52zM429 189q0 -91 -56 -144.5t-168 -53.5q-61 0 -105 14t-67 31l-6 97q23 -23 67.5 -43t105.5 -20q63 0 98.5 27t35.5 86q0 22 -5 37.5t-15 28.5t-25.5 24t-35.5 23l-84 50q-23 13 -45.5 28t-41.5 36t-30.5 50t-11.5 70
q0 39 12 72t37.5 57.5t64.5 38.5t94 14q62 0 101 -14.5t57 -28.5v-93q-19 19 -59 38t-98 19q-115 0 -115 -94q0 -23 6.5 -40t18.5 -29.5t28 -23.5t36 -22l82 -48q23 -14 45 -29t39.5 -36.5t28.5 -51t11 -70.5z" />
    <glyph glyph-name="scaron" unicode="&#x161;" horiz-adv-x="391" 
d="M196 583l-160 131l49 59l121 -94l118 90l41 -52zM358 139q0 -46 -17.5 -74.5t-43.5 -44.5t-57.5 -22t-59.5 -6q-50 0 -86.5 12t-56.5 28l-5 85q21 -21 57.5 -38t88.5 -17q41 0 66.5 15t25.5 55q0 27 -14.5 42.5t-51.5 35.5l-56 31q-19 10 -37.5 22.5t-33 29t-23.5 39.5
t-9 55q0 45 17 72.5t42 42t53 19t50 4.5q49 0 81 -12t49 -26v-82q-19 19 -51 34.5t-74 15.5q-27 0 -43 -7t-24 -17t-10.5 -21t-2.5 -19q0 -17 5.5 -29t15 -20.5t22 -15t25.5 -13.5l57 -29q20 -10 38 -22t32 -29t22.5 -40t8.5 -54z" />
    <glyph glyph-name="uni0162" unicode="&#x162;" horiz-adv-x="503" 
d="M294 -57q0 -53 -8 -96t-16 -59l-7 -17h-53q5 28 5 98q0 20 -1.5 39t-3.5 28l-1 9h85v-2zM499 623h-199v-623h-96v623h-199v80h498z" />
    <glyph glyph-name="uni0163" unicode="&#x163;" horiz-adv-x="316" 
d="M209 -57q0 -53 -8 -96t-16 -59l-7 -17h-53q5 28 5 98q0 20 -1.5 39t-3.5 28l-1 9h85v-2zM294 10q-12 -7 -33 -12t-51 -5q-31 0 -59 9t-48 38q-15 22 -19 47.5t-4 70.5v290h-54v69h54v91l93 22v-113h123v-69h-123v-299q0 -42 11 -60q7 -11 20 -18t33 -7q17 0 34 5t27 15z
" />
    <glyph glyph-name="Tcaron" unicode="&#x164;" horiz-adv-x="503" 
d="M250 749l-160 131l49 59l121 -94l118 90l41 -52zM499 623h-199v-623h-96v623h-199v80h498z" />
    <glyph glyph-name="tcaron" unicode="&#x165;" horiz-adv-x="316" 
d="M327 790q0 -53 -8 -96t-16 -59l-7 -17h-53q5 28 5 98q0 20 -1.5 39t-3.5 28l-1 9h85v-2zM294 10q-12 -7 -33 -12t-51 -5q-31 0 -59 9t-48 38q-15 22 -19 47.5t-4 70.5v290h-54v69h54v91l93 22v-113h123v-69h-123v-299q0 -42 11 -60q7 -11 20 -18t33 -7q17 0 34 5t27 15z
" />
    <glyph glyph-name="Tbar" unicode="&#x166;" horiz-adv-x="503" 
d="M499 623h-199v-106h99l-4 -69h-95v-448h-96v448h-95v69h95v106h-199v80h498z" />
    <glyph glyph-name="tbar" unicode="&#x167;" horiz-adv-x="316" 
d="M294 10q-12 -7 -33 -12t-51 -5q-31 0 -59 9t-48 38q-15 22 -19 47.5t-4 70.5v151h-54v69h54v70h-54v69h54v91l93 22v-113h123v-69h-123v-70h123v-69h-123v-160q0 -42 11 -60q7 -11 20 -18t33 -7q17 0 34 5t27 15z" />
    <glyph glyph-name="Utilde" unicode="&#x168;" horiz-adv-x="628" 
d="M473 857q-10 -32 -33 -57t-63 -25q-11 0 -22.5 2.5t-28.5 10.5l-25 11q-16 7 -23.5 8.5t-12.5 1.5q-20 0 -31.5 -10.5t-16.5 -23.5l-46 28q11 32 34 56.5t62 24.5q11 0 22 -2.5t28 -10.5l25 -11q15 -7 23 -8.5t13 -1.5q21 0 32 11t16 24l47 -28v0zM563 298
q0 -42 -1 -75.5t-5.5 -61.5t-13.5 -51t-25 -44q-32 -41 -82 -58.5t-121 -17.5q-68 0 -118 16t-82 53q-33 38 -41.5 89.5t-8.5 126.5v428h96v-459q0 -32 3.5 -63.5t18.5 -56.5t46.5 -41t87.5 -16q57 0 88.5 16.5t46 43t17.5 59.5t3 65v452h91v-405v0z" />
    <glyph glyph-name="utilde" unicode="&#x169;" 
d="M426 687q-10 -32 -33 -57t-63 -25q-11 0 -22.5 2.5t-28.5 10.5l-25 11q-16 7 -23.5 8.5t-12.5 1.5q-20 0 -31.5 -10.5t-16.5 -23.5l-46 28q11 32 34 56.5t62 24.5q11 0 22 -2.5t28 -10.5l25 -11q15 -7 23 -8.5t13 -1.5q21 0 32 11t16 24l47 -28v0zM375 -4v68
q-8 -13 -21 -26t-31.5 -23t-42.5 -16.5t-54 -6.5q-38 0 -66 10.5t-47 27.5q-18 16 -28 36t-15 40.5t-6 40t-1 36.5v334h94v-314q0 -20 1.5 -43t11 -43t29.5 -33t57 -13q21 0 42 5t37.5 16.5t27 30t10.5 45.5v349h93v-513z" />
    <glyph glyph-name="Umacron" unicode="&#x16a;" horiz-adv-x="628" 
d="M172 789v73h288v-73h-288zM563 298q0 -42 -1 -75.5t-5.5 -61.5t-13.5 -51t-25 -44q-32 -41 -82 -58.5t-121 -17.5q-68 0 -118 16t-82 53q-33 38 -41.5 89.5t-8.5 126.5v428h96v-459q0 -32 3.5 -63.5t18.5 -56.5t46.5 -41t87.5 -16q57 0 88.5 16.5t46 43t17.5 59.5t3 65
v452h91v-405v0z" />
    <glyph glyph-name="umacron" unicode="&#x16b;" 
d="M126 619v73h288v-73h-288zM375 -4v68q-8 -13 -21 -26t-31.5 -23t-42.5 -16.5t-54 -6.5q-38 0 -66 10.5t-47 27.5q-18 16 -28 36t-15 40.5t-6 40t-1 36.5v334h94v-314q0 -20 1.5 -43t11 -43t29.5 -33t57 -13q21 0 42 5t37.5 16.5t27 30t10.5 45.5v349h93v-513z" />
    <glyph glyph-name="Ubreve" unicode="&#x16c;" horiz-adv-x="628" 
d="M490 868q-10 -19 -25.5 -38.5t-36.5 -35t-48.5 -25t-60.5 -9.5q-34 0 -61.5 10t-48.5 25.5t-35.5 34.5t-22.5 37l57 36q17 -29 46 -51t69 -22q21 0 38.5 6.5t31.5 17t24.5 23t17.5 25.5l55 -34v0zM563 298q0 -42 -1 -75.5t-5.5 -61.5t-13.5 -51t-25 -44
q-32 -41 -82 -58.5t-121 -17.5q-68 0 -118 16t-82 53q-33 38 -41.5 89.5t-8.5 126.5v428h96v-459q0 -32 3.5 -63.5t18.5 -56.5t46.5 -41t87.5 -16q57 0 88.5 16.5t46 43t17.5 59.5t3 65v452h91v-405v0z" />
    <glyph glyph-name="ubreve" unicode="&#x16d;" 
d="M430 703q-10 -19 -25.5 -38.5t-36.5 -35t-48.5 -25t-60.5 -9.5q-34 0 -61.5 10t-48.5 25.5t-35.5 34.5t-22.5 37l57 36q17 -29 46 -51t69 -22q21 0 38.5 6.5t31.5 17t24.5 23t17.5 25.5l55 -34v0zM375 -4v68q-8 -13 -21 -26t-31.5 -23t-42.5 -16.5t-54 -6.5
q-38 0 -66 10.5t-47 27.5q-18 16 -28 36t-15 40.5t-6 40t-1 36.5v334h94v-314q0 -20 1.5 -43t11 -43t29.5 -33t57 -13q21 0 42 5t37.5 16.5t27 30t10.5 45.5v349h93v-513z" />
    <glyph glyph-name="Uring" unicode="&#x16e;" horiz-adv-x="628" 
d="M434 838q0 -54 -32.5 -82.5t-78.5 -28.5q-22 0 -42 7t-35.5 20.5t-24.5 34t-9 47.5q0 53 32.5 81.5t78.5 28.5q22 0 42 -6.5t35.5 -20t24.5 -34t9 -47.5zM379 837q0 31 -16.5 45.5t-39.5 14.5q-22 0 -39 -14t-17 -46q0 -31 16.5 -45.5t39.5 -14.5q22 0 39 14t17 46z
M563 298q0 -42 -1 -75.5t-5.5 -61.5t-13.5 -51t-25 -44q-32 -41 -82 -58.5t-121 -17.5q-68 0 -118 16t-82 53q-33 38 -41.5 89.5t-8.5 126.5v428h96v-459q0 -32 3.5 -63.5t18.5 -56.5t46.5 -41t87.5 -16q57 0 88.5 16.5t46 43t17.5 59.5t3 65v452h91v-405v0z" />
    <glyph glyph-name="uring" unicode="&#x16f;" 
d="M374 663q0 -54 -32.5 -82.5t-78.5 -28.5q-22 0 -42 7t-35.5 20.5t-24.5 34t-9 47.5q0 53 32.5 81.5t78.5 28.5q22 0 42 -6.5t35.5 -20t24.5 -34t9 -47.5zM319 662q0 31 -16.5 45.5t-39.5 14.5q-22 0 -39 -14t-17 -46q0 -31 16.5 -45.5t39.5 -14.5q22 0 39 14t17 46z
M375 -4v68q-8 -13 -21 -26t-31.5 -23t-42.5 -16.5t-54 -6.5q-38 0 -66 10.5t-47 27.5q-18 16 -28 36t-15 40.5t-6 40t-1 36.5v334h94v-314q0 -20 1.5 -43t11 -43t29.5 -33t57 -13q21 0 42 5t37.5 16.5t27 30t10.5 45.5v349h93v-513z" />
    <glyph glyph-name="Uhungarumlaut" unicode="&#x170;" horiz-adv-x="628" 
d="M174 753l-33 50l181 128l44 -69zM390 753l-33 50l181 128l44 -69zM563 298q0 -42 -1 -75.5t-5.5 -61.5t-13.5 -51t-25 -44q-32 -41 -82 -58.5t-121 -17.5q-68 0 -118 16t-82 53q-33 38 -41.5 89.5t-8.5 126.5v428h96v-459q0 -32 3.5 -63.5t18.5 -56.5t46.5 -41t87.5 -16
q57 0 88.5 16.5t46 43t17.5 59.5t3 65v452h91v-405v0z" />
    <glyph glyph-name="uhungarumlaut" unicode="&#x171;" 
d="M475 744l-113 -161l-51 31l98 171zM293 744l-113 -161l-51 31l98 171zM375 -4v68q-8 -13 -21 -26t-31.5 -23t-42.5 -16.5t-54 -6.5q-38 0 -66 10.5t-47 27.5q-18 16 -28 36t-15 40.5t-6 40t-1 36.5v334h94v-314q0 -20 1.5 -43t11 -43t29.5 -33t57 -13q21 0 42 5
t37.5 16.5t27 30t10.5 45.5v349h93v-513z" />
    <glyph glyph-name="Uogonek" unicode="&#x172;" horiz-adv-x="628" 
d="M563 298q0 -41 -1 -75t-5.5 -62t-13.5 -51t-25 -44q-31 -39 -79 -57q-45 -27 -63 -54.5t-18 -56.5q0 -25 12 -39t35 -14q17 0 29.5 5.5t19.5 12.5l-4 -63q-10 -6 -28.5 -12t-44.5 -6q-48 0 -72 25t-24 66q0 36 17.5 66t44.5 52q-6 -1 -12.5 -1h-12.5q-71 0 -121 16
t-82 53q-33 38 -41.5 89.5t-8.5 126.5v428h96v-459q0 -32 3.5 -63.5t18.5 -56.5t46.5 -41t87.5 -16q57 0 88.5 16.5t46 43t17.5 59.5t3 65v452h91v-405v0z" />
    <glyph glyph-name="uogonek" unicode="&#x173;" 
d="M466 4q-37 -14 -62.5 -44.5t-25.5 -64.5q0 -22 12 -36t36 -14q14 0 27 5t21 13l-4 -63q-10 -6 -28.5 -12t-44.5 -6q-48 0 -72 25t-24 66q0 44 23 75t51 50v66q-8 -13 -21 -26t-31.5 -23t-42.5 -16.5t-54 -6.5q-38 0 -66 10.5t-47 27.5q-18 16 -28 36t-15 40.5t-6 40
t-1 36.5v334h94v-314q0 -20 1.5 -43t11 -43t29.5 -33t57 -13q21 0 42 5t37.5 16.5t27 30t10.5 45.5v349h93v-513v0z" />
    <glyph glyph-name="Wcircumflex" unicode="&#x174;" horiz-adv-x="907" 
d="M585 753l-127 85l-127 -85l-37 48l164 133l164 -133zM704 -4h-100l-122 462l-26 104q-7 -29 -13.5 -55.5t-12.5 -47.5l-127 -463h-101l-195 707h104l123 -482q8 -33 14.5 -65t8.5 -49q2 16 9.5 50.5t16.5 67.5l131 478h97l126 -483q9 -35 15.5 -65.5t8.5 -47.5q2 16 8 47
t16 67l126 482h94z" />
    <glyph glyph-name="wcircumflex" unicode="&#x175;" horiz-adv-x="726" 
d="M491 583l-127 85l-127 -85l-37 48l164 133l164 -133zM565 -4h-97l-82 305q-3 11 -10 39t-14 57q-5 -22 -10 -41q-5 -17 -9.5 -33.5t-6.5 -25.5l-86 -301h-96l-151 521h97l84 -327q10 -38 15.5 -66t7.5 -37q1 5 3.5 17t6 27t7 30.5t7.5 28.5l92 327h92l86 -327
q8 -31 14 -61t8 -44q1 6 3.5 18t6 27t7 30.5t7.5 29.5l90 327h88z" />
    <glyph glyph-name="Ycircumflex" unicode="&#x176;" horiz-adv-x="557" 
d="M409 753l-127 85l-127 -85l-37 48l164 133l164 -133zM327 274v-274h-97v270l-232 433h110l174 -344l181 344h102z" />
    <glyph glyph-name="ycircumflex" unicode="&#x177;" horiz-adv-x="442" 
d="M283 657q0 -26 -16 -42t-42 -16t-42 15.5t-16 41.5t16 42.5t42 16.5t42 -16t16 -42zM241 -73q-12 -36 -27 -65t-35 -49.5t-47.5 -31.5t-65.5 -11q-24 0 -42 3.5t-28 8.5l-4 77q13 -8 30 -12t34 -4q36 0 58 18.5t38 63.5l25 70l-179 522h98l105 -332q20 -62 23 -88
q6 32 23 85l108 335h90z" />
    <glyph glyph-name="Ydieresis" unicode="&#x178;" horiz-adv-x="557" 
d="M427 832q0 -24 -14.5 -38.5t-37.5 -14.5t-37 14t-14 38t14.5 38t37.5 14q22 0 36.5 -13.5t14.5 -37.5zM245 832q0 -24 -14.5 -38.5t-37.5 -14.5q-22 0 -36.5 14t-14.5 38t14.5 38t37.5 14t37 -13.5t14 -37.5zM327 274v-274h-97v270l-232 433h110l174 -344l181 344h102z
" />
    <glyph glyph-name="Zacute" unicode="&#x179;" horiz-adv-x="552" 
d="M249 753l-33 50l181 128l44 -69zM150 80h364l-4 -80h-478v68l365 555h-337v80h458v-68z" />
    <glyph glyph-name="zacute" unicode="&#x17a;" horiz-adv-x="440" 
d="M321 719l-113 -161l-51 31l98 171zM401 0h-369v58l263 391h-244v68h354v-58l-263 -391h263z" />
    <glyph glyph-name="Zdotaccent" unicode="&#x17b;" horiz-adv-x="552" 
d="M358 831q0 -26 -16 -42t-42 -16t-42 15.5t-16 41.5t16 42.5t42 16.5t42 -16t16 -42zM150 80h364l-4 -80h-478v68l365 555h-337v80h458v-68z" />
    <glyph glyph-name="zdotaccent" unicode="&#x17c;" horiz-adv-x="440" 
d="M282 657q0 -26 -16 -42t-42 -16t-42 15.5t-16 41.5t16 42.5t42 16.5t42 -16t16 -42zM401 0h-369v58l263 391h-244v68h354v-58l-263 -391h263z" />
    <glyph glyph-name="Zcaron" unicode="&#x17d;" horiz-adv-x="552" 
d="M291 749l-160 131l49 59l121 -94l118 90l41 -52zM150 80h364l-4 -80h-478v68l365 555h-337v80h458v-68z" />
    <glyph glyph-name="zcaron" unicode="&#x17e;" horiz-adv-x="441" 
d="M229 583l-160 131l49 59l121 -94l118 90l41 -52zM401 0h-369v58l263 391h-244v68h354v-58l-263 -391h263z" />
    <glyph glyph-name="florin" unicode="&#x192;" horiz-adv-x="498" 
d="M442 674q-11 11 -28 17t-36 6q-39 0 -58 -25q-8 -11 -12.5 -31t-9.5 -57l-9 -73h105l-8 -72h-105l-60 -492q-5 -38 -15.5 -75t-36.5 -63q-22 -21 -49.5 -29.5t-56.5 -8.5q-24 0 -51 4.5t-38 10.5l-5 82q12 -8 32.5 -15t45.5 -7q44 0 61 30q6 11 10 25t6 31l62 507h-59
l9 72h58l13 99q5 35 17 68t34 54q21 20 49 29t60 9q30 0 54 -6t36 -12z" />
    <glyph glyph-name="uni01F5" unicode="&#x1f5;" horiz-adv-x="525" 
d="M215 583l-33 50l181 128l44 -69zM456 -2q0 -29 -1.5 -50.5t-5 -38.5t-10 -31t-15.5 -27q-18 -25 -41 -40.5t-49 -24.5t-53.5 -12.5t-53.5 -3.5q-63 0 -103 13t-57 26l-5 85q23 -20 61.5 -36.5t93.5 -16.5q35 0 69 10t54 38q17 22 20 49.5t3 47.5v77q-17 -26 -49.5 -47
t-86.5 -21q-48 0 -84 19.5t-59.5 54.5t-35 83t-11.5 105q0 78 19.5 129.5t50 82t68.5 43.5t76 13q45 0 73 -13t41 -26v31h91v-519zM363 418q-11 12 -35 23.5t-61 11.5q-135 0 -135 -194q0 -55 10 -91t27 -57t39.5 -29t47.5 -8q49 0 78 25t29 71v248z" />
    <glyph glyph-name="uni0218" unicode="&#x218;" horiz-adv-x="463" 
d="M244 -57q0 -53 -8 -96t-16 -59l-7 -17h-53q5 28 5 98q0 20 -1.5 39t-3.5 28l-1 9h85v-2zM429 189q0 -91 -56 -144.5t-168 -53.5q-61 0 -105 14t-67 31l-6 97q23 -23 67.5 -43t105.5 -20q63 0 98.5 27t35.5 86q0 22 -5 37.5t-15 28.5t-25.5 24t-35.5 23l-84 50
q-23 13 -45.5 28t-41.5 36t-30.5 50t-11.5 70q0 39 12 72t37.5 57.5t64.5 38.5t94 14q62 0 101 -14.5t57 -28.5v-93q-19 19 -59 38t-98 19q-115 0 -115 -94q0 -23 6.5 -40t18.5 -29.5t28 -23.5t36 -22l82 -48q23 -14 45 -29t39.5 -36.5t28.5 -51t11 -70.5z" />
    <glyph glyph-name="uni0219" unicode="&#x219;" horiz-adv-x="391" 
d="M225 -57q0 -53 -8 -96t-16 -59l-7 -17h-53q5 28 5 98q0 20 -1.5 39t-3.5 28l-1 9h85v-2zM358 139q0 -46 -17.5 -74.5t-43.5 -44.5t-57.5 -22t-59.5 -6q-50 0 -86.5 12t-56.5 28l-5 85q21 -21 57.5 -38t88.5 -17q41 0 66.5 15t25.5 55q0 27 -14.5 42.5t-51.5 35.5l-56 31
q-19 10 -37.5 22.5t-33 29t-23.5 39.5t-9 55q0 45 17 72.5t42 42t53 19t50 4.5q49 0 81 -12t49 -26v-82q-19 19 -51 34.5t-74 15.5q-27 0 -43 -7t-24 -17t-10.5 -21t-2.5 -19q0 -17 5.5 -29t15 -20.5t22 -15t25.5 -13.5l57 -29q20 -10 38 -22t32 -29t22.5 -40t8.5 -54z" />
    <glyph glyph-name="uni021A" unicode="&#x21a;" horiz-adv-x="503" 
d="M294 -57q0 -53 -8 -96t-16 -59l-7 -17h-53q5 28 5 98q0 20 -1.5 39t-3.5 28l-1 9h85v-2zM499 623h-199v-623h-96v623h-199v80h498z" />
    <glyph glyph-name="uni021B" unicode="&#x21b;" horiz-adv-x="316" 
d="M209 -57q0 -53 -8 -96t-16 -59l-7 -17h-53q5 28 5 98q0 20 -1.5 39t-3.5 28l-1 9h85v-2zM294 10q-12 -7 -33 -12t-51 -5q-31 0 -59 9t-48 38q-15 22 -19 47.5t-4 70.5v290h-54v69h54v91l93 22v-113h123v-69h-123v-299q0 -42 11 -60q7 -11 20 -18t33 -7q17 0 34 5t27 15z
" />
    <glyph glyph-name="circumflex" unicode="&#x2c6;" horiz-adv-x="500" 
d="M373 583l-127 85l-127 -85l-37 48l164 133l164 -133z" />
    <glyph glyph-name="caron" unicode="&#x2c7;" horiz-adv-x="329" 
d="M160 583l-160 131l49 59l121 -94l118 90l41 -52z" />
    <glyph glyph-name="breve" unicode="&#x2d8;" horiz-adv-x="500" 
d="M420 703q-10 -19 -25.5 -38.5t-36.5 -35t-48.5 -25t-60.5 -9.5q-34 0 -61.5 10t-48.5 25.5t-35.5 34.5t-22.5 37l57 36q17 -29 46 -51t69 -22q21 0 38.5 6.5t31.5 17t24.5 23t17.5 25.5l55 -34v0z" />
    <glyph glyph-name="dotaccent" unicode="&#x2d9;" horiz-adv-x="500" 
d="M308 657q0 -26 -16 -42t-42 -16t-42 15.5t-16 41.5t16 42.5t42 16.5t42 -16t16 -42z" />
    <glyph glyph-name="ring" unicode="&#x2da;" horiz-adv-x="500" 
d="M335 663q0 -54 -32.5 -82.5t-78.5 -28.5q-22 0 -42 7t-35.5 20.5t-24.5 34t-9 47.5q0 53 32.5 81.5t78.5 28.5q22 0 42 -6.5t35.5 -20t24.5 -34t9 -47.5zM280 662q0 31 -16.5 45.5t-39.5 14.5q-22 0 -39 -14t-17 -46q0 -31 16.5 -45.5t39.5 -14.5q22 0 39 14t17 46z" />
    <glyph glyph-name="ogonek" unicode="&#x2db;" horiz-adv-x="223" 
d="M169 -200q-11 -7 -29.5 -12.5t-42.5 -5.5q-49 0 -73 25t-24 66q0 24 7.5 44.5t20.5 38t29.5 31t33.5 23.5h69q-83 -51 -83 -113q0 -24 12 -38t35 -14q17 0 29.5 5.5t19.5 12.5z" />
    <glyph glyph-name="tilde" unicode="&#x2dc;" horiz-adv-x="500" 
d="M426 687q-10 -32 -33 -57t-63 -25q-11 0 -22.5 2.5t-28.5 10.5l-25 11q-16 7 -23.5 8.5t-12.5 1.5q-20 0 -31.5 -10.5t-16.5 -23.5l-46 28q11 32 34 56.5t62 24.5q11 0 22 -2.5t28 -10.5l25 -11q15 -7 23 -8.5t13 -1.5q21 0 32 11t16 24l47 -28v0z" />
    <glyph glyph-name="hungarumlaut" unicode="&#x2dd;" horiz-adv-x="346" 
d="M346 744l-113 -161l-51 31l98 171zM164 744l-113 -161l-51 31l98 171z" />
    <glyph glyph-name="endash" unicode="&#x2013;" horiz-adv-x="500" 
d="M0 231v72h500v-72h-500z" />
    <glyph glyph-name="emdash" unicode="&#x2014;" horiz-adv-x="1000" 
d="M0 231v72h1000v-72h-1000z" />
    <glyph glyph-name="afii00208" unicode="&#x2015;" horiz-adv-x="270" 
d="M270 309h-270v69h270v-69z" />
    <glyph glyph-name="quoteleft" unicode="&#x2018;" horiz-adv-x="222" 
d="M187 750q-20 -51 -30 -98.5t-10 -103.5v-32h-102v22.5t1 22.5q4 59 25 115t44 98q18 -7 36 -12.5t36 -11.5z" />
    <glyph glyph-name="quoteright" unicode="&#x2019;" horiz-adv-x="219" 
d="M185 770v-22.5t-1 -22.5q-4 -59 -25 -115t-44 -98q-18 7 -36 12.5t-36 11.5q20 51 30 98.5t10 103.5v32h102v0z" />
    <glyph glyph-name="quotesinglbase" unicode="&#x201a;" horiz-adv-x="205" 
d="M159 98q0 -31 -6 -63.5t-15.5 -64t-22.5 -60.5t-26 -53l-72 25q19 47 30 90.5t11 92.5v49h101v-16v0z" />
    <glyph glyph-name="quotedblleft" unicode="&#x201c;" horiz-adv-x="405" 
d="M187 750q-20 -51 -30 -98.5t-10 -103.5v-32h-102v22.5t1 22.5q4 59 25 115t44 98q18 -7 36 -12.5t36 -11.5zM370 750q-20 -51 -30 -98.5t-10 -103.5v-32h-102v22.5t1 22.5q4 59 25 115t44 98q18 -7 36 -12.5t36 -11.5z" />
    <glyph glyph-name="quotedblright" unicode="&#x201d;" horiz-adv-x="402" 
d="M185 770v-22.5t-1 -22.5q-4 -59 -25 -115t-44 -98q-18 7 -36 12.5t-36 11.5q20 51 30 98.5t10 103.5v32h102v0zM368 770v-22.5t-1 -22.5q-4 -59 -25 -115t-44 -98q-18 7 -36 12.5t-36 11.5q20 51 30 98.5t10 103.5v32h102v0z" />
    <glyph glyph-name="quotedblbase" unicode="&#x201e;" horiz-adv-x="388" 
d="M159 98q0 -31 -6 -63.5t-15.5 -64t-22.5 -60.5t-26 -53l-72 25q19 47 30 90.5t11 92.5v49h101v-16v0zM342 98q0 -31 -6 -63.5t-15.5 -64t-22.5 -60.5t-26 -53l-72 25q19 47 30 90.5t11 92.5v49h101v-16v0z" />
    <glyph glyph-name="dagger" unicode="&#x2020;" horiz-adv-x="480" 
d="M268 467l26 -146v-96l-27 -374h-47l-34 374v95l27 147l-169 -27v104l169 -27l-30 186h115l-30 -186l168 27v-104z" />
    <glyph glyph-name="daggerdbl" unicode="&#x2021;" horiz-adv-x="480" 
d="M268 44l30 -193h-116l30 193l-168 -27v104l168 -27l-26 150v79l27 144l-169 -27v104l169 -27l-30 186h115l-30 -186l168 27v-104l-168 27l26 -143v-80l-26 -150l168 27v-104z" />
    <glyph glyph-name="bullet" unicode="&#x2022;" horiz-adv-x="518" 
d="M413 292q0 -32 -12.5 -60.5t-33.5 -49.5t-49.5 -33.5t-59.5 -12.5q-32 0 -59.5 12.5t-48.5 33.5t-33 49.5t-12 60.5t12 60t32.5 49t48.5 33.5t60 12.5t60 -12.5t49 -33.5t33.5 -49t12.5 -60z" />
    <glyph glyph-name="ellipsis" unicode="&#x2026;" horiz-adv-x="828" 
d="M185 56q0 -31 -17.5 -50.5t-48.5 -19.5q-30 0 -48 19t-18 51t18 51t47 19t48 -18.5t19 -51.5zM484 56q0 -31 -17.5 -50.5t-48.5 -19.5q-30 0 -48 19t-18 51t18 51t47 19t48 -18.5t19 -51.5zM775 56q0 -31 -17.5 -50.5t-48.5 -19.5q-30 0 -48 19t-18 51t18 51t47 19
t48 -18.5t19 -51.5z" />
    <glyph glyph-name="perthousand" unicode="&#x2030;" horiz-adv-x="982" 
d="M982 157q0 -36 -11.5 -66.5t-33 -53t-52 -35t-68.5 -12.5q-71 0 -114.5 43t-43.5 116q0 36 11.5 66t32.5 52t51 34t68 12q36 0 65.5 -11t50.5 -31.5t32.5 -49t11.5 -64.5zM323 558q0 -36 -11.5 -67t-33 -53.5t-52 -35t-68.5 -12.5q-71 0 -114.5 43t-43.5 117
q0 36 11.5 66t32.5 51.5t51.5 33.5t68.5 12q73 0 116 -41.5t43 -113.5zM107 0h-79l482 705h79zM618 157q0 -36 -11.5 -66.5t-32.5 -53t-51.5 -35t-68.5 -12.5q-36 0 -65 11.5t-50 32.5t-32.5 50.5t-11.5 65.5t11.5 65.5t32.5 51.5t51.5 34t68.5 12q72 0 115.5 -42t43.5 -114
zM904 154q0 40 -19.5 70t-64.5 30q-44 0 -63 -30.5t-19 -72.5q0 -20 4.5 -38.5t14 -32t24.5 -21.5t37 -8q45 0 65.5 30t20.5 73zM245 554q0 20 -4.5 38t-14.5 32t-26 22.5t-38 8.5q-23 0 -38.5 -8.5t-25.5 -23t-14.5 -33t-4.5 -39.5q0 -20 4.5 -38.5t14 -32t24.5 -21.5
t37 -8q45 0 65.5 30.5t20.5 72.5zM540 154q0 20 -4.5 38.5t-14.5 32t-26 21.5t-38 8q-45 0 -64 -30.5t-19 -72.5q0 -41 18.5 -70.5t62.5 -29.5t64.5 29.5t20.5 73.5z" />
    <glyph glyph-name="guilsinglleft" unicode="&#x2039;" horiz-adv-x="270" 
d="M151 54l-105 198l105 199h82l-93 -198l93 -199h-82z" />
    <glyph glyph-name="guilsinglright" unicode="&#x203a;" horiz-adv-x="275" 
d="M124 54h-87l93 198l-93 199h87l105 -198z" />
    <glyph glyph-name="fraction" unicode="&#x2044;" horiz-adv-x="500" 
d="M68 0h-79l511 703h77z" />
    <glyph glyph-name="Euro" unicode="&#x20ac;" horiz-adv-x="521" 
d="M501 25q-21 -13 -60 -23.5t-89 -10.5q-61 0 -107 18.5t-78 51t-51.5 77t-27.5 97.5h-85l14 67h67q-1 10 -1 21v20v21t1 21h-69l14 66h60q8 45 24.5 88.5t44.5 78.5q36 46 87 70t116 24q50 0 87 -12.5t59 -28.5v-95q-20 22 -57 39t-86 17q-73 0 -119 -45t-61 -136h251
l-13 -66h-244q-1 -10 -1 -20v-19q0 -11 0.5 -22.5t1.5 -21.5h227q-3 -17 -6.5 -33.5t-6.5 -33.5h-209q29 -166 177 -166q49 0 86 15.5t60 35.5z" />
    <glyph glyph-name="trademark" unicode="&#x2122;" horiz-adv-x="865" 
d="M721 309v311q-3 -11 -6.5 -23t-8.5 -23l-103 -265h-54l-98 268q-5 12 -8 23.5t-5 18.5v-310h-61v394h96l98 -270q3 -8 5.5 -19.5t4.5 -20.5q2 10 5.5 22t5.5 18l104 270h88v-394h-63zM208 647v-338h-68v338h-111v56h291v-56h-112z" />
    <glyph glyph-name="uni2139" unicode="&#x2139;" horiz-adv-x="659" 
d="M477 744q0 -32 -12.5 -61t-34 -50.5t-50 -34t-60.5 -12.5q-33 0 -61.5 12.5t-49.5 34t-33.5 50.5t-12.5 61t12.5 60.5t34 49.5t50 33.5t60.5 12.5t60.5 -12.5t50 -33.5t34 -49.5t12.5 -60.5zM120 0v39h58q9 0 14.5 6.5t5.5 12.5v426q0 15 -18 15h-60v40h322v-483
q0 -5 3.5 -11t11.5 -6h82v-39h-419z" />
    <glyph glyph-name="arrowleft" unicode="&#x2190;" horiz-adv-x="703" 
d="M177 299l260 -259h-125l-312 311l312 312h125l-260 -260h526v-104h-526z" />
    <glyph glyph-name="arrowup" unicode="&#x2191;" horiz-adv-x="623" 
d="M363 526v-526h-104v526l-259 -260v125l311 312l312 -312v-125z" />
    <glyph glyph-name="arrowright" unicode="&#x2192;" horiz-adv-x="703" 
d="M391 40h-125l260 260h-526v104h526l-260 259h125l312 -311z" />
    <glyph glyph-name="arrowdown" unicode="&#x2193;" horiz-adv-x="623" 
d="M312 0l-312 312v125l260 -260v526h104v-526l259 260v-125z" />
    <glyph glyph-name="uni2196" unicode="&#x2196;" horiz-adv-x="533" 
d="M460 66l-372 372v-367l-88 88v441h441l88 -89h-367l371 -372z" />
    <glyph glyph-name="uni2197" unicode="&#x2197;" horiz-adv-x="534" 
d="M445 71v367l-372 -371l-73 73l372 371h-367l88 89h441v-441z" />
    <glyph glyph-name="uni2198" unicode="&#x2198;" horiz-adv-x="533" 
d="M92 103l-88 89h367l-371 372l73 73l371 -372v367l89 -88v-441h-441z" />
    <glyph glyph-name="uni2199" unicode="&#x2199;" horiz-adv-x="534" 
d="M162 191h367l-88 -88h-441v441l89 88v-367l372 371l73 -73z" />
    <glyph glyph-name="minus" unicode="&#x2212;" horiz-adv-x="640" 
d="M23 316v70h594v-70h-594z" />
    <glyph glyph-name="uni2219" unicode="&#x2219;" horiz-adv-x="234" 
d="M190 300q0 -33 -19.5 -54.5t-53.5 -21.5q-32 0 -52 20t-20 56q0 35 19.5 56t51.5 21t53 -20.5t21 -56.5z" />
    <glyph glyph-name="notequal" unicode="&#x2260;" horiz-adv-x="640" 
d="M287 189l-88 -170l-62 28l73 142h-187v71h226l90 179h-316v71h354l85 169l62 -29l-69 -140h162v-71h-200l-90 -179h290v-71h-330z" />
    <glyph glyph-name="lessequal" unicode="&#x2264;" horiz-adv-x="711" 
d="M23 414v44l665 293v-77l-551 -236l551 -236v-80zM23 0v70h665v-70h-665z" />
    <glyph glyph-name="greaterequal" unicode="&#x2265;" horiz-adv-x="711" 
d="M23 122v80l551 236l-551 236v77l665 -293v-44zM23 0v70h665v-70h-665z" />
    <glyph glyph-name="SF100000" unicode="&#x2500;" horiz-adv-x="500" 
d="M0 0v35h500v-35h-500z" />
    <glyph glyph-name="uni254C" unicode="&#x254c;" horiz-adv-x="500" 
d="M0 0v35h250v-35h-250z" />
    <glyph glyph-name="uni25A3" unicode="&#x25a3;" horiz-adv-x="703" 
d="M0 0v703h703v-703h-703zM631 631h-559v-559h559v559zM156 156v391h391v-391h-391z" />
    <glyph glyph-name="uni25B6" unicode="&#x25b6;" horiz-adv-x="703" 
d="M-1 0v703l703 -352z" />
    <glyph glyph-name="uni25C0" unicode="&#x25c0;" horiz-adv-x="703" 
d="M0 351l703 352v-703z" />
    <glyph glyph-name="lozenge" unicode="&#x25ca;" horiz-adv-x="514" 
d="M256 2l-252 368l254 382l252 -367zM257 649l-183 -277l183 -272l180 282z" />
    <glyph glyph-name="uni25FC" unicode="&#x25fc;" horiz-adv-x="703" 
d="M0 0v703h703v-703h-703z" />
    <glyph glyph-name="uni25FD" unicode="&#x25fd;" horiz-adv-x="703" 
d="M631 72h-559v559h559v-559z" />
    <glyph glyph-name="uni25FE" unicode="&#x25fe;" horiz-adv-x="703" 
d="M156 156v391h391v-391h-391z" />
    <glyph glyph-name="uni260E" unicode="&#x260e;" horiz-adv-x="954" 
d="M954 542q-23 -7 -44.5 -10.5t-44.5 -3.5q-78 0 -155 43v11q0 76 -233 76t-233 -76v-11q-77 -43 -155 -43q-23 0 -44.5 3.5t-44.5 10.5q7 42 20.5 80.5t35.5 75.5q54 20 101 32.5t100 21.5q105 18 220 18t220 -18q53 -9 100 -21.5t101 -32.5q22 -37 35.5 -75.5t20.5 -80.5
zM105 0v119q0 77 51 158l132 212v95l112 14v-83h154v83l112 -14v-95l132 -212q51 -81 51 -158v-119h-744zM648 301q0 25 -13.5 47.5t-37 39t-54.5 26t-66 9.5t-66 -9.5t-54.5 -26t-37 -39t-13.5 -47.5q0 -26 13.5 -48t37 -38.5t54.5 -26t66 -9.5t66 9.5t54.5 26t37 38.5
t13.5 48zM244 511q0 -110 -148 -110q-56 0 -76 17t-20 65v27q42 -15 90 -15q81 0 154 41v-25zM710 536q73 -41 154 -41q48 0 90 15v-27q0 -48 -20 -65t-76 -17q-148 0 -148 110v25z" />
    <glyph glyph-name="uni2610" unicode="&#x2610;" horiz-adv-x="703" 
d="M0 0v703h703v-703h-703zM631 631h-559v-559h559v559z" />
    <glyph glyph-name="uni2611" unicode="&#x2611;" horiz-adv-x="703" 
d="M802 718q-53 -44 -99 -93v-625h-703v703h703v-17q20 15 41 30.5t44 29.5zM631 542q-8 -11 -16 -20t-20 -24q-24 -30 -49.5 -66.5t-50.5 -77t-48.5 -83t-42.5 -83.5l-90 -52l-172 298l89 52l116 -200q33 60 87.5 131.5t124.5 143.5q16 17 34 33.5t38 33.5v3h-559v-559h559
v470z" />
    <glyph glyph-name="uni2612" unicode="&#x2612;" horiz-adv-x="703" 
d="M0 0v703h703v-703h-703zM631 631h-559v-559h559v559zM504 138l-153 153l-152 -153l-61 61l153 152l-153 153l61 61l152 -153l153 153l61 -61l-153 -153l153 -152z" />
    <glyph glyph-name="uni26A0" unicode="&#x26a0;" horiz-adv-x="1020" 
d="M1020 58q0 -24 -17 -41t-42 -17h-902q-25 0 -42 17t-17 43q0 16 7 29l449 776q8 14 22 24.5t32 10.5q17 0 30.5 -9t21.5 -23l449 -777q4 -7 6.5 -15t2.5 -18zM510 782l-400 -693h800zM545 333q-2 -16 -9 -30t-26 -14t-26.5 14t-9.5 30l-27 231q-2 16 0.5 33t10 31
t20.5 22.5t32 8.5t32 -8.5t20 -22.5t9.5 -31t0.5 -33zM567 180q0 -24 -17 -41t-41 -17t-41.5 17t-17.5 41t17.5 41t41.5 17t41 -17t17 -41z" />
    <glyph glyph-name="uni2702" unicode="&#x2702;" horiz-adv-x="1170" 
d="M1170 -124q-36 -10 -72.5 -13.5t-70.5 -3.5q-54 0 -125 7.5t-161 24.5q-61 11 -107 22t-82.5 21.5t-65.5 20.5t-54 20q-16 -12 -28.5 -20.5t-27.5 -14.5t-33.5 -8.5t-46.5 -2.5q-15 0 -33.5 1t-38.5 3q17 -12 26.5 -25.5t9.5 -32.5q0 -22 -11.5 -38.5t-30.5 -29.5
q-23 -16 -49 -22t-50 -6q-26 0 -51.5 7.5t-44.5 24.5q-23 20 -23 52q0 19 7 32.5t18.5 22.5t26 15t29.5 11q30 10 60.5 16.5t73.5 14.5t71.5 14.5t54.5 19.5q-30 14 -58.5 21t-67.5 14q-30 5 -49 9t-33.5 7t-26 6t-25.5 8q-35 11 -58 28.5t-23 52.5q0 32 23 52
q19 17 44.5 24.5t51.5 7.5q24 0 50 -6t49 -22q19 -13 30.5 -29.5t11.5 -38.5q0 -19 -9.5 -32t-26.5 -25q20 2 38.5 3t33.5 1q28 0 46.5 -2.5t33.5 -8.5t27.5 -14.5t28.5 -20.5q25 10 60.5 21.5t76.5 22.5t85 21t87 18q87 15 153 24t129 9q38 0 74.5 -4t72.5 -14l-593 -133z
M210 141q0 13 -10.5 24.5t-29.5 18.5q-10 4 -23.5 6.5t-28.5 2.5q-34 0 -49 -12t-15 -29q0 -16 10.5 -24t22.5 -13q27 -11 55 -11q10 0 22 2t22.5 6.5t17 11.5t6.5 17zM210 -122q0 10 -6.5 17t-17 11.5t-22.5 6.5t-22 2q-28 0 -55 -11q-12 -5 -22.5 -13t-10.5 -23
q0 -17 15 -30t48 -13q16 0 29.5 3t23.5 7q40 15 40 43z" />
    <glyph glyph-name="uni2706" unicode="&#x2706;" horiz-adv-x="900" 
d="M900 393q0 -93 -35.5 -175t-96.5 -143t-143 -96.5t-175 -35.5t-175 35.5t-143 96.5t-96.5 143t-35.5 175t35.5 175t96.5 143t143 96.5t175 35.5t175 -35.5t143 -96.5t96.5 -143t35.5 -175zM865 393q0 85 -32.5 161t-89 132.5t-132 89.5t-161.5 33t-161.5 -33t-132 -89.5
t-89 -132.5t-32.5 -161q0 -86 32.5 -161.5t89 -132t132 -89t161.5 -32.5t161.5 32.5t132 89t89 132t32.5 161.5zM442 668q14 -52 0 -81t-52 -39l-12 -3q15 55 0 108q-5 16 -11.5 30t-16.5 29l15 4q35 9 51 -1t26 -47zM496 70q-30 -3 -58.5 -1t-55.5 10q-23 32 -41.5 65
t-30.5 59q-14 31 -27 67.5t-24 76.5q-12 48 -18 81.5t-9 67.5q-6 71 0 144q43 42 94 65q11 -16 17 -29.5t10 -27.5q13 -51 -3 -111l-7 -2q-51 -15 -9 -171q20 -75 43 -110.5t49 -27.5l7 2q22 -25 35 -50t19 -47q3 -11 5.5 -27.5t3.5 -33.5zM576 105q-8 -17 -40 -25l-16 -4
q1 27 -8 62q-8 30 -21 51.5t-33 44.5l16 4q74 18 100 -80q5 -21 5 -33.5t-3 -19.5z" />
    <glyph glyph-name="uni2709" unicode="&#x2709;" horiz-adv-x="1055" 
d="M0 0v779h1055v-779h-1055zM1020 721l-322 -341l322 -322v663zM60 744l385 -409h164l385 409h-934zM675 354l-51 -54h-194l-50 54l-320 -319h934zM34 721v-663l322 322z" />
    <glyph glyph-name="uni270E" unicode="&#x270e;" horiz-adv-x="900" 
d="M628 133l-628 628l139 139l628 -628l133 -272zM134 849l-27 -28l582 -582l28 27zM748 253l-101 -100l131 -68l37 37zM79 793l-28 -27l583 -583l28 28z" />
    <glyph glyph-name="uni2713" unicode="&#x2713;" horiz-adv-x="703" 
d="M802 718q-45 -38 -98.5 -94t-108.5 -126q-60 -77 -107.5 -154.5t-84.5 -155.5l-90 -52l-172 298l89 52l116 -200q33 60 87.5 131.5t124.5 143.5q45 45 102.5 92.5t126.5 92.5z" />
    <glyph glyph-name="uni2717" unicode="&#x2717;" horiz-adv-x="703" 
d="M504 138l-153 153l-152 -153l-61 61l153 152l-153 153l61 61l152 -153l153 153l61 -61l-153 -153l153 -152z" />
    <glyph glyph-name="uni2794" unicode="&#x2794;" horiz-adv-x="703" 
d="M391 40h-196l243 243h-438v138h438l-243 242h196l312 -311z" />
    <glyph glyph-name="uniE003" unicode="&#xe003;" horiz-adv-x="164" 
d="M164 719l-113 -161l-51 31l98 171z" />
    <glyph glyph-name="uniE719" unicode="&#xe719;" horiz-adv-x="316" 
d="M86 723q0 -53 -8 -96t-16 -59l-7 -17h-53q5 28 5 98q0 20 -1.5 39t-3.5 28l-1 9h85v-2z" />
    <glyph glyph-name="uniE784" unicode="&#xe784;" horiz-adv-x="85" 
d="M85 583h-85v2q0 53 8 96t16 59l7 17h53q-5 -28 -5 -98q0 -20 1.5 -39t3.5 -28z" />
    <glyph glyph-name="uniF6BE" unicode="&#xf6be;" horiz-adv-x="237" 
d="M168 -78q0 -152 -142 -152q-43 0 -67 11l-5 75q22 -14 52 -14q42 0 55.5 22t13.5 64v589h93v-595z" />
    <glyph glyph-name="exclam" unicode="!" horiz-adv-x="271" 
d="M176 174h-82l-7 514l95 15zM197 56q0 -29 -16.5 -48t-45.5 -19t-46 18t-17 48t17 48t45 18t45.5 -17.5t17.5 -47.5z" />
    <glyph glyph-name="quotedbl" unicode="&#x22;" horiz-adv-x="299" 
d="M114 487h-58l-12 216h82zM243 487h-58l-12 216h82z" />
    </font>
</defs>
</svg>
