<?xml version="1.0" standalone="no"?>
<!DOCTYPE svg PUBLIC "-//W3C//DTD SVG 1.1//EN" "http://www.w3.org/Graphics/SVG/1.1/DTD/svg11.dtd" >
<svg>
<metadata>
Created by FontForge 20120731 at Mon Nov 17 03:25:46 2014
 By Orthosie Webhosting
(c) Copyright: Gerard Unger, 2005. Exclusive design for Allianz International. Webfonts produced by Just Another Foundry in 2011. Unauthorised use strictly prohibited. Allianz Sans and Allianz Serif are trademarks of Allianz International, that may be registered in some jurisdictions. ALL RIGHTS RESERVED.
</metadata>
<defs>
<font id="" horiz-adv-x="508" >
  <font-face 
    font-family=""
    font-weight="400"
    font-style="italic"
    font-stretch="normal"
    units-per-em="1000"
    panose-1="2 0 5 6 3 0 0 9 0 4"
    ascent="770"
    descent="-230"
    x-height="517"
    cap-height="703"
    bbox="-123 -230 1170 954"
    underline-thickness="64"
    underline-position="-38"
    slope="-9"
    unicode-range="U+0020-FB02"
  />
<missing-glyph horiz-adv-x="200" 
 />
    <glyph glyph-name="fi" unicode="fi" horiz-adv-x="480" 
d="M489 680q0 -24 -14 -39.5t-40 -15.5q-24 0 -36 13t-12 33q0 7 1 12t3 10q-10 5 -25 7t-31 2q-36 0 -58 -11t-34.5 -27.5t-17.5 -37t-8 -39.5l-11 -71h243l-81 -516h-90l70 446h-154l-106 -676h-91l107 676h-54l11 70h54l11 68q7 42 22 76.5t40 59t61 37.5t85 13
q28 0 56 -5t50 -15.5t35.5 -28t13.5 -41.5z" />
    <glyph glyph-name="fl" unicode="fl" horiz-adv-x="483" 
d="M373 0h-90l110 686q-12 6 -28.5 10t-38.5 4q-33 0 -53 -9.5t-31.5 -25t-16.5 -35t-8 -39.5l-11 -75h103l-11 -70h-104l-106 -676h-91l107 676h-55l12 70h54l11 69q4 27 12 59t28 60t56.5 47t97.5 19q31 0 54 -4.5t39 -9.5l82 14z" />
    <glyph glyph-name=".notdef" horiz-adv-x="200" 
 />
    <glyph glyph-name=".null" horiz-adv-x="0" 
 />
    <glyph glyph-name="nonmarkingreturn" horiz-adv-x="200" 
 />
    <glyph glyph-name="space" unicode=" " horiz-adv-x="200" 
 />
    <glyph glyph-name="numbersign" unicode="#" horiz-adv-x="588" 
d="M564 451h-109l-36 -197h109l-11 -57h-109l-36 -197h-65l35 197h-161l-36 -197h-65l35 197h-109l11 57h108l36 197h-109l10 57h110l35 195h66l-36 -195h162l35 195h67l-36 -195h109zM227 451l-36 -197h162l36 197h-162z" />
    <glyph glyph-name="dollar" unicode="$" 
d="M473 573q-13 20 -44.5 37.5t-75.5 23.5l-39 -244l15 -13q22 -19 41 -38t33.5 -40.5t22.5 -47.5t8 -60q0 -27 -7 -59t-27 -60.5t-56 -50.5t-94 -29l-16 -98h-65l15 95q-58 2 -98.5 17t-57.5 29l13 92q16 -24 57.5 -42.5t98.5 -19.5l42 263l-27 22q-22 18 -40.5 36
t-31.5 38.5t-20.5 45t-7.5 55.5q0 36 11 68.5t34 57.5t58.5 41t85.5 19l14 88l66 11l-16 -101q44 -5 76 -19t46 -28zM288 634q-42 -8 -62 -33.5t-20 -67.5q0 -29 11.5 -50.5t39.5 -46.5zM340 186q0 28 -9.5 50t-34.5 46l-33 -209q42 14 59.5 43.5t17.5 69.5z" />
    <glyph glyph-name="percent" unicode="%" horiz-adv-x="697" 
d="M376 563q0 -36 -12 -68t-34 -55.5t-53 -37t-69 -13.5q-69 0 -108.5 42t-39.5 110q0 38 12.5 69.5t35 54t53.5 35t68 12.5q66 0 106.5 -40t40.5 -109zM89 0h-89l629 706h88zM657 163q0 -36 -12 -68t-34 -55.5t-53 -37t-69 -13.5q-69 0 -108.5 42t-39.5 110q0 38 12.5 69.5
t35 54t53.5 35t68 12.5q66 0 106.5 -40t40.5 -109zM301 557q0 19 -4.5 36.5t-14.5 31t-24.5 21.5t-35.5 8q-44 0 -65.5 -33t-21.5 -78q0 -38 17.5 -66t58.5 -28q44 0 67 32t23 76zM582 157q0 19 -4.5 36.5t-14.5 31t-24.5 21.5t-35.5 8q-44 0 -65.5 -33t-21.5 -78
q0 -38 17.5 -66t58.5 -28q44 0 67 32t23 76z" />
    <glyph glyph-name="ampersand" unicode="&#x26;" horiz-adv-x="600" 
d="M564 334q-2 -77 -26.5 -135.5t-66.5 -98.5l64 -100h-108l-26 40q-22 -18 -65 -34t-104 -16q-62 0 -101 18t-61 45t-30.5 60t-8.5 63q0 42 12.5 75.5t33.5 59.5t48.5 44t56.5 29q-23 34 -41.5 74t-18.5 92q0 18 4.5 45.5t21.5 54t50 45t90 18.5q48 0 79.5 -14.5t50 -37
t25.5 -50t7 -54.5q0 -45 -16 -78.5t-38.5 -56.5t-48.5 -37t-45 -21q32 -52 65.5 -103.5t65.5 -102.5q19 20 32.5 66t13.5 106zM364 562q0 39 -17 62t-60 23q-8 0 -21 -2t-25.5 -10t-22 -24.5t-9.5 -46.5q0 -43 18.5 -79t41.5 -70q13 5 29.5 16t31 29t24.5 43t10 59zM366 95
q-38 60 -75.5 118t-74.5 118q-11 -4 -27 -13t-31 -25t-25.5 -40.5t-10.5 -59.5q0 -60 33.5 -96.5t97.5 -36.5q29 0 59.5 8.5t53.5 26.5z" />
    <glyph glyph-name="quotesingle" unicode="'" horiz-adv-x="158" 
d="M137 487h-57l23 216h81z" />
    <glyph glyph-name="parenleft" unicode="(" horiz-adv-x="365" 
d="M425 770q-138 -116 -213 -261t-75 -319q0 -127 38 -231t103 -189h-93q-12 14 -23.5 30.5t-19.5 30.5q-97 158 -97 354q0 167 63.5 305.5t172.5 241.5q14 14 24 22l20 16h100v0z" />
    <glyph glyph-name="parenright" unicode=")" horiz-adv-x="365" 
d="M320 355q0 -167 -63.5 -305.5t-172.5 -241.5q-11 -11 -21 -19.5t-23 -18.5h-100q138 116 213 261t75 319q0 127 -38 231t-103 189h93q12 -14 23.5 -30.5t19.5 -30.5q97 -158 97 -354z" />
    <glyph glyph-name="asterisk" unicode="*" horiz-adv-x="382" 
d="M267 554l120 -54l-48 -66l-94 86v-139h-82l43 140l-122 -87l-28 66l140 54l-122 54l50 65l95 -85v141h82l-45 -141l123 85l27 -65z" />
    <glyph glyph-name="plus" unicode="+" horiz-adv-x="640" 
d="M369 316v-275h-75v275h-259v70h259v271h75v-271h260v-70h-260z" />
    <glyph glyph-name="comma" unicode="," horiz-adv-x="208" 
d="M143 112q-3 -40 -14.5 -77.5t-27.5 -71t-35 -61.5t-37 -50l-59 28q30 53 46.5 107t24.5 125h102v0z" />
    <glyph glyph-name="hyphen" unicode="-" horiz-adv-x="317" 
d="M269 223h-236l15 86h236z" />
    <glyph glyph-name="period" unicode="." horiz-adv-x="206" 
d="M140 60q0 -30 -18.5 -50.5t-49.5 -20.5q-27 0 -43 16.5t-16 46.5q0 31 17.5 51t48.5 20q26 0 43.5 -16.5t17.5 -46.5z" />
    <glyph glyph-name="slash" unicode="/" horiz-adv-x="356" 
d="M43 -177h-88l335 947h90z" />
    <glyph glyph-name="zero" unicode="0" 
d="M498 467q0 -40 -4.5 -84t-12.5 -87t-19.5 -83t-25.5 -73q-21 -47 -46 -76.5t-52.5 -46t-55.5 -22.5t-55 -6q-51 0 -87 17t-58 48.5t-32 77.5t-10 104q0 42 4.5 86.5t13 87.5t19.5 82t25 70q21 47 46 76.5t52.5 46t55.5 22.5t55 6q52 0 87.5 -17t57.5 -48.5t32 -77.5
t10 -103zM404 486q0 26 -2.5 53.5t-12.5 50t-30 36.5t-54 14q-45 0 -73 -26.5t-48 -80.5q-11 -28 -20 -65.5t-15.5 -79.5t-10.5 -86.5t-4 -87.5q0 -26 2.5 -52.5t12.5 -49t30 -36.5t54 -14q47 0 75 28t47 79q11 30 20 67.5t15.5 79.5t10 85.5t3.5 84.5z" />
    <glyph glyph-name="one" unicode="1" 
d="M275 0h-93l95 595l-146 -26l11 72q20 3 45.5 9.5t51.5 15t49.5 18.5t40.5 21h58z" />
    <glyph glyph-name="two" unicode="2" 
d="M486 527q0 -51 -15.5 -92.5t-40 -76.5t-54.5 -64.5t-59 -55.5q-60 -53 -106.5 -90.5t-87.5 -67.5h292l-13 -80h-397l13 87q51 39 114.5 91t132.5 117q24 23 46.5 46.5t40 50t27.5 57t10 66.5q0 15 -3.5 36t-16.5 40t-38 32t-68 13q-48 0 -89.5 -16t-67.5 -41l14 92
q29 20 74 30.5t91 10.5q40 0 76.5 -9.5t64.5 -31.5t44 -57.5t16 -86.5z" />
    <glyph glyph-name="three" unicode="3" 
d="M477 548q0 -40 -12 -72t-32.5 -55t-48.5 -37.5t-59 -19.5q24 -3 46 -14t39 -30t27.5 -47t10.5 -67q0 -23 -7 -59.5t-32.5 -71.5t-76.5 -60t-138 -25q-68 0 -112 14.5t-69 31.5l9 91q23 -23 63.5 -41.5t104.5 -18.5q49 0 80.5 12t50 31.5t25.5 45t7 51.5q0 66 -37.5 93.5
t-115.5 27.5h-24l12 69h24q85 0 126.5 35t41.5 99q0 48 -25.5 76.5t-85.5 28.5q-51 0 -88 -18t-55 -36l14 92q26 18 67.5 28t84.5 10q37 0 70.5 -8.5t59 -28t40.5 -51t15 -76.5z" />
    <glyph glyph-name="four" unicode="4" 
d="M480 168h-75l-26 -168h-92l27 168h-307l14 89l369 449h100l-72 -458h75zM383 604q-10 -15 -20.5 -30.5t-23.5 -31.5l-235 -294h222z" />
    <glyph glyph-name="five" unicode="5" 
d="M490 623h-273l-31 -192q12 4 30.5 6.5t39.5 2.5q37 0 72 -10t62 -34t43 -63t16 -97q0 -60 -18 -106t-51.5 -77t-80.5 -47t-104 -16q-60 0 -104.5 14.5t-69.5 31.5l9 91q20 -22 60.5 -41t98.5 -19q48 0 79.5 14t50.5 37.5t27 53t8 61.5q0 67 -33.5 102t-106.5 35
q-30 0 -63.5 -6t-59.5 -20l58 359h354z" />
    <glyph glyph-name="six" unicode="6" 
d="M518 576q-17 26 -55 43.5t-91 17.5q-56 0 -92 -20.5t-59 -53.5t-35.5 -74.5t-20.5 -83.5q15 14 45.5 29.5t84.5 15.5q57 0 92 -19t54.5 -48.5t26 -65t6.5 -68.5q0 -41 -10 -87t-35.5 -84t-70 -63t-114.5 -25q-53 0 -90.5 16t-60.5 46t-33.5 73.5t-10.5 99.5q0 30 3 68
t10 79.5t18 83.5t27 80q17 39 40 72t55 56t73 36t94 13q64 0 104 -15.5t57 -31.5zM380 241q0 28 -4.5 52t-16.5 42t-33 28.5t-55 10.5q-45 0 -74.5 -15.5t-43.5 -32.5q-4 -20 -8 -51.5t-4 -68.5q0 -28 4 -54t15 -45.5t32 -31.5t54 -12q28 0 52.5 9.5t42.5 31t28.5 55.5
t10.5 82z" />
    <glyph glyph-name="seven" unicode="7" 
d="M502 650q-5 -31 -12.5 -56t-17.5 -47.5t-22.5 -44t-28.5 -44.5l-98 -144q-23 -33 -40.5 -62.5t-31 -61t-24 -67t-17.5 -81.5l-7 -42h-95l5 31q7 44 15 80t22.5 72t37.5 77t60 95l69 101q24 34 39 57.5t24.5 41t13.5 30.5t6 28l1 9h-306l13 81h403z" />
    <glyph glyph-name="eight" unicode="8" 
d="M497 549q0 -41 -14 -72t-35.5 -53.5t-48.5 -37t-53 -21.5l13 -9q18 -12 36 -28.5t32 -37.5t23 -48t9 -61q0 -41 -14 -76t-41.5 -60.5t-70 -40.5t-99.5 -15q-59 0 -98 15.5t-62 40.5t-32.5 56.5t-9.5 63.5q0 46 15.5 80.5t39.5 59t54 40t59 23.5l-10 8q-41 32 -64 69
t-23 91q0 85 56.5 131t150.5 46q56 0 92.5 -15.5t57.5 -39.5t29 -53t8 -56zM410 546q0 33 -10.5 53t-27 31.5t-35.5 15t-35 3.5q-56 0 -83 -29.5t-27 -77.5q0 -33 14.5 -60t49.5 -52l38 -27q21 6 41.5 17.5t37 28.5t27 41t10.5 56zM367 173q0 42 -17.5 71t-52.5 55l-43 31
q-23 -6 -46.5 -18.5t-42.5 -32t-31 -46.5t-12 -63q0 -35 11 -57t29 -34.5t40 -17.5t44 -5q36 0 59 10t37 26.5t19.5 37.5t5.5 43z" />
    <glyph glyph-name="nine" unicode="9" 
d="M488 478q0 -30 -3 -68t-10 -79.5t-18 -83.5t-27 -80q-17 -39 -40 -72t-55 -56t-73 -36t-94 -13q-64 0 -104 15.5t-57 31.5l12 90q17 -26 55 -43.5t91 -17.5q55 0 91.5 20.5t59.5 53.5t35.5 74.5t20.5 83.5q-15 -14 -45.5 -29.5t-84.5 -15.5q-57 0 -92 19t-54.5 48.5
t-26 65t-6.5 68.5q0 41 10 86.5t35.5 84t70 63.5t114.5 25q106 0 150.5 -61.5t44.5 -173.5zM396 496q0 28 -4 54.5t-15 46t-32 31.5t-54 12q-29 0 -53.5 -9.5t-42.5 -31t-28 -55.5t-10 -82q0 -28 4.5 -52t16.5 -42t33 -28.5t55 -10.5q46 0 75.5 16t43.5 32q4 22 7.5 53
t3.5 66z" />
    <glyph glyph-name="colon" unicode=":" horiz-adv-x="213" 
d="M140 60q0 -30 -18.5 -50.5t-49.5 -20.5q-27 0 -43 16.5t-16 46.5q0 31 17.5 51t48.5 20q26 0 43.5 -16.5t17.5 -46.5zM202 468q0 -30 -18.5 -50.5t-49.5 -20.5q-27 0 -43 16.5t-16 46.5q0 31 17.5 51t48.5 20q26 0 43.5 -16.5t17.5 -46.5z" />
    <glyph glyph-name="semicolon" unicode=";" horiz-adv-x="227" 
d="M206 468q0 -30 -18.5 -50.5t-49.5 -20.5q-27 0 -43 16.5t-16 46.5q0 31 17.5 51t48.5 20q26 0 43.5 -16.5t17.5 -46.5zM148 112q-3 -40 -14.5 -77.5t-27.5 -71t-35 -61.5t-37 -50l-59 28q30 53 46.5 107t24.5 125h102v0z" />
    <glyph glyph-name="less" unicode="&#x3c;" horiz-adv-x="711" 
d="M35 329v43l665 293v-77l-551 -236l551 -235v-80z" />
    <glyph glyph-name="equal" unicode="=" horiz-adv-x="640" 
d="M35 190v70h594v-70h-594zM35 439v70h594v-70h-594z" />
    <glyph glyph-name="greater" unicode="&#x3e;" horiz-adv-x="711" 
d="M35 37v80l550 235l-550 236v77l665 -293v-43z" />
    <glyph glyph-name="question" unicode="?" horiz-adv-x="405" 
d="M425 555q0 -51 -23 -97.5t-82 -94.5l-73 -59q-15 -12 -24.5 -23t-15.5 -21.5t-9 -23t-6 -27.5l-6 -35h-81l7 47q5 35 19 64t44 56l77 68q36 32 57 62.5t21 72.5q0 43 -25 68t-81 25q-50 0 -88 -18t-59 -40l14 91q29 19 71 31t90 12q81 0 127 -39.5t46 -118.5zM195 60
q0 -30 -17.5 -49.5t-47.5 -19.5q-26 0 -41 15.5t-15 43.5q0 30 17.5 50.5t47.5 20.5q27 0 41.5 -17.5t14.5 -43.5z" />
    <glyph glyph-name="at" unicode="@" horiz-adv-x="947" 
d="M905 330q0 -97 -37 -173.5t-118 -120.5q-46 -25 -89.5 -31.5t-83.5 -6.5q-17 0 -32.5 0.5t-26.5 1.5l21 118q-1 -2 -5 -10.5t-11.5 -20t-18 -25t-23.5 -25.5q-26 -25 -51 -34.5t-53 -9.5q-62 0 -93.5 42.5t-31.5 139.5q0 58 12.5 119.5t41 112t74.5 82.5t112 32
q40 0 66 -10.5t41 -24.5l86 34l-73 -461q16 1 41.5 4.5t57.5 22.5q110 66 110 235q0 73 -20.5 129t-58.5 94.5t-93.5 58.5t-124.5 20q-40 0 -84.5 -7.5t-88 -25t-83 -46.5t-70 -73t-48.5 -103.5t-18 -138.5q0 -173 92.5 -268.5t274.5 -95.5q87 0 147 18t95 37l-5 -82
q-29 -15 -89 -30.5t-148 -15.5q-113 0 -198 31t-141.5 87.5t-85 135t-28.5 174.5q0 106 33.5 193.5t95 150t147.5 96.5t190 34q83 0 155 -22.5t125 -68t83 -114t30 -159.5zM583 425q-11 11 -31 19.5t-47 8.5q-37 0 -63.5 -15.5t-44.5 -40.5q-17 -24 -27.5 -53.5t-16.5 -59.5
t-8.5 -57.5t-2.5 -46.5q0 -38 6.5 -60t16 -33t21 -14.5t20.5 -3.5q26 0 46.5 14t40.5 40q23 29 40.5 63.5t22.5 63.5z" />
    <glyph glyph-name="A" unicode="A" horiz-adv-x="548" 
d="M417 0l-35 237h-224l-111 -237h-92l340 705h107l110 -705h-95zM340 521q-4 26 -6 53.5t-3 44.5q-5 -17 -14.5 -40t-25.5 -57l-100 -214h180z" />
    <glyph glyph-name="B" unicode="B" horiz-adv-x="520" 
d="M501 547q0 -39 -11.5 -70.5t-32 -55t-48 -38t-58.5 -19.5q24 -3 46 -13.5t39 -29t27 -46.5t10 -66q0 -66 -29.5 -112.5t-76.5 -69.5q-37 -18 -84 -22.5t-106 -4.5h-147l112 703h132q58 0 98.5 -5t67.5 -22q32 -20 46.5 -53.5t14.5 -75.5zM403 534q0 34 -9.5 53.5
t-25 29.5t-35.5 12.5t-41 2.5h-69l-37 -234h61q21 0 48 4t51 17.5t40.5 40.5t16.5 74zM376 213q0 38 -10.5 60.5t-28 34.5t-40 15.5t-47.5 3.5h-75l-40 -256h82q21 0 48.5 3.5t52 17.5t41.5 42.5t17 78.5z" />
    <glyph glyph-name="C" unicode="C" horiz-adv-x="535" 
d="M556 575q-20 25 -61 43t-98 18q-55 0 -95 -18.5t-68 -48t-45.5 -67.5t-27 -77t-12.5 -76t-3 -64q0 -47 8.5 -87.5t29 -70t54.5 -46t86 -16.5q61 0 102 20t66 46l-20 -97q-22 -17 -63.5 -31t-104.5 -14q-73 0 -122 22.5t-78.5 61.5t-42 92.5t-12.5 116.5q0 96 23.5 171
t60.5 129q29 42 62.5 67.5t67 39.5t67 18.5t62.5 4.5q72 0 114 -16.5t64 -34.5z" />
    <glyph glyph-name="D" unicode="D" horiz-adv-x="619" 
d="M599 421q0 -101 -30 -187.5t-92 -145.5q-29 -27 -61.5 -44.5t-70 -27t-81 -13t-95.5 -3.5h-139l112 703h138q51 0 89 -3t67.5 -11t51.5 -21.5t41 -33.5q35 -37 52.5 -87t17.5 -126zM503 421q0 72 -16 114.5t-51 65.5q-21 14 -52.5 20.5t-83.5 6.5h-77l-87 -553h99
q58 0 100.5 17t72 45t48.5 64.5t29.5 75t14 76t3.5 68.5z" />
    <glyph glyph-name="E" unicode="E" horiz-adv-x="448" 
d="M460 626h-237l-36 -227h197l-12 -77h-197l-40 -246h255l-16 -76h-344l112 703h331z" />
    <glyph glyph-name="F" unicode="F" horiz-adv-x="422" 
d="M460 626h-237l-36 -227h197l-12 -77h-197l-52 -322h-93l112 703h331z" />
    <glyph glyph-name="G" unicode="G" horiz-adv-x="599" 
d="M590 575q-20 23 -64 42t-109 19q-61 0 -104.5 -18.5t-73.5 -48.5t-48.5 -68t-28.5 -77t-13 -75t-3 -62q0 -46 8.5 -87t29.5 -71.5t56.5 -48t90.5 -17.5q27 0 50 4t37 11l37 234h93l-44 -277q-22 -15 -66 -30.5t-116 -15.5q-78 0 -130.5 22.5t-84 62t-45 93t-13.5 116.5
q0 94 24.5 170t63.5 130q30 41 65 66t71 39t72 19t69 5q76 0 121 -16.5t68 -34.5z" />
    <glyph glyph-name="H" unicode="H" horiz-adv-x="610" 
d="M500 0h-93l50 321h-282l-52 -321h-93l112 703h93l-48 -304h283l48 304h94z" />
    <glyph glyph-name="I" unicode="I" horiz-adv-x="233" 
d="M123 0h-93l112 703h93z" />
    <glyph glyph-name="J" unicode="J" horiz-adv-x="298" 
d="M218 149q-6 -37 -16 -68t-33 -54q-19 -18 -45.5 -26t-58.5 -8q-33 0 -52.5 5.5t-26.5 9.5l13 79q5 -5 18.5 -11t34.5 -6q37 0 52.5 21.5t20.5 56.5l88 555h93z" />
    <glyph glyph-name="K" unicode="K" horiz-adv-x="509" 
d="M276 370l201 -370h-105l-192 359l-57 -359h-93l112 703h93l-52 -325l302 325h105z" />
    <glyph glyph-name="L" unicode="L" horiz-adv-x="418" 
d="M364 0h-334l112 703h93l-100 -627h245z" />
    <glyph glyph-name="M" unicode="M" horiz-adv-x="767" 
d="M657 0h-89l100 633q-8 -28 -21.5 -65.5t-27.5 -66.5l-239 -501h-82l-79 500q-4 24 -6 62.5t-2 71.5l-100 -634h-81l112 703h136l77 -488q3 -20 4.5 -48t1.5 -50q4 15 14 43t23 55l232 488h139z" />
    <glyph glyph-name="N" unicode="N" horiz-adv-x="614" 
d="M504 0h-86l-184 452q-15 37 -22.5 65.5t-8.5 44.5l-89 -562h-84l111 703h93l173 -436q14 -36 23.5 -70t12.5 -54l89 560h84z" />
    <glyph glyph-name="O" unicode="O" horiz-adv-x="632" 
d="M612 431q0 -16 -2 -55t-12 -88t-30 -102t-55.5 -97t-89.5 -72.5t-131 -28.5q-55 0 -94.5 14.5t-66.5 38.5t-43.5 54.5t-25 62t-11 61t-2.5 51.5q0 16 2 55t12 88t30 102t55.5 97t89.5 72.5t131 28.5q55 0 94.5 -14.5t66.5 -38.5t43.5 -54.5t25 -62t11 -61t2.5 -51.5z
M515 422q0 64 -11.5 105.5t-31.5 66t-47.5 34t-59.5 9.5q-42 0 -79.5 -16t-68.5 -61q-19 -27 -32.5 -62t-22 -72.5t-12.5 -76t-4 -73.5q0 -63 11.5 -104t32 -65t48.5 -33.5t61 -9.5q43 0 79 16.5t66 60.5q19 28 32.5 61.5t22 70.5t12.5 75t4 74z" />
    <glyph glyph-name="P" unicode="P" horiz-adv-x="494" 
d="M510 527q0 -76 -25.5 -125t-64.5 -77.5t-87 -39.5t-93 -11h-74l-43 -274h-93l111 703h153q61 0 96.5 -7t61.5 -27q29 -22 43.5 -54.5t14.5 -87.5zM414 519q0 40 -9.5 62.5t-26 34t-39.5 14t-50 2.5h-67l-45 -286h66q33 0 64 8.5t54.5 28.5t38 53t14.5 83z" />
    <glyph glyph-name="Q" unicode="Q" horiz-adv-x="632" 
d="M612 430q0 -19 -2.5 -57t-11.5 -85t-27.5 -97t-50.5 -92.5t-79.5 -72.5t-115.5 -36q13 -32 39.5 -52.5t80.5 -20.5q35 0 73 10t63 33l-11 -81q-19 -12 -56 -22.5t-86 -10.5q-85 0 -131 37t-65 111q-43 9 -73.5 28.5t-50.5 44t-32 52.5t-18 55t-7.5 51t-1.5 41t2 56.5
t12 89.5t30 103t55.5 97t89.5 72.5t131 28.5q55 0 94.5 -14.5t66.5 -38.5t43.5 -54.5t25 -62t11 -61.5t2.5 -52zM515 424q0 63 -11.5 104.5t-31.5 65.5t-48 33.5t-61 9.5q-43 0 -79.5 -16.5t-66.5 -60.5q-18 -27 -31.5 -60.5t-22.5 -70.5t-13 -76t-4 -76q0 -64 11.5 -105
t32 -65t48 -33.5t60.5 -9.5q42 0 78.5 16t67.5 61q19 28 33 63t22 72.5t12 75t4 72.5z" />
    <glyph glyph-name="R" unicode="R" horiz-adv-x="503" 
d="M500 535q0 -70 -24.5 -111.5t-59.5 -63.5t-73 -28.5t-65 -6.5l191 -325h-107l-186 332l-53 -332h-93l112 703h134q35 0 59.5 -1t42.5 -4t31.5 -8.5t26.5 -13.5q35 -23 49.5 -58t14.5 -83zM403 528q0 38 -10 59t-25.5 31t-35.5 12t-39 2h-70l-39 -247h66q21 0 48 4
t50 18.5t39 43t16 77.5z" />
    <glyph glyph-name="S" unicode="S" horiz-adv-x="452" 
d="M446 573q-26 33 -67 48t-83 15q-61 0 -88 -28t-27 -73q0 -37 16.5 -59.5t48.5 -49.5l57 -48q22 -19 41 -37.5t33 -40.5t22 -48t8 -59q0 -30 -9 -66t-34.5 -66.5t-71 -51t-119.5 -20.5q-64 0 -106.5 14.5t-65.5 31.5l13 92q20 -26 60 -44t97 -18q73 0 106.5 32t33.5 89
q0 32 -13.5 57t-53.5 57l-59 48q-22 18 -40.5 36t-31.5 39t-20.5 45.5t-7.5 55.5q0 39 12 73t37.5 59.5t65.5 40.5t95 15q60 0 102 -15.5t63 -34.5z" />
    <glyph glyph-name="T" unicode="T" horiz-adv-x="490" 
d="M534 626h-186l-100 -626h-93l99 626h-188l13 77h471z" />
    <glyph glyph-name="U" unicode="U" horiz-adv-x="595" 
d="M535 257q-6 -38 -12 -69t-14 -57t-20.5 -47.5t-31.5 -39.5q-35 -33 -79.5 -44.5t-95.5 -11.5q-82 0 -128 20t-68 48t-27 58t-5 49q0 22 2 44t7 50l70 446h93l-73 -460q-6 -36 -6 -64q0 -39 13 -62t32.5 -34.5t43 -15t43.5 -3.5q47 0 76 11t46 32.5t26 53.5t16 74l74 468
h89z" />
    <glyph glyph-name="V" unicode="V" horiz-adv-x="545" 
d="M267 -3h-92l-117 706h96l75 -476q5 -34 8 -70t3 -58q6 17 16.5 43.5t31.5 71.5l233 489h94z" />
    <glyph glyph-name="W" unicode="W" horiz-adv-x="874" 
d="M628 -3h-93l-50 491q-2 22 -3.5 46.5t-1.5 41.5q-3 -10 -10 -29.5t-19 -48.5l-207 -501h-96l-82 706h95l49 -474q3 -31 4.5 -65.5t1.5 -57.5q6 22 16 52.5t27 71.5l195 473h98l47 -463q1 -16 2.5 -34t2 -36t1 -34.5t0.5 -29.5q7 26 19 62t26 71l193 464h92z" />
    <glyph glyph-name="X" unicode="X" horiz-adv-x="557" 
d="M346 354l172 -354h-101l-139 286l-209 -286h-103l274 362l-166 341h105l131 -273l199 273h102z" />
    <glyph glyph-name="Y" unicode="Y" horiz-adv-x="527" 
d="M303 272l-43 -272h-93l44 273l-155 430h99l115 -342l229 342h102z" />
    <glyph glyph-name="Z" unicode="Z" horiz-adv-x="540" 
d="M563 637l-442 -560h350l-17 -77h-458l10 67l437 559h-321l12 77h440z" />
    <glyph glyph-name="bracketleft" unicode="[" horiz-adv-x="346" 
d="M335 704h-87l-141 -868h88l-11 -66h-176l162 1000h176z" />
    <glyph glyph-name="backslash" unicode="\" horiz-adv-x="406" 
d="M267 -177l-171 947h89l170 -947h-88z" />
    <glyph glyph-name="bracketright" unicode="]" horiz-adv-x="346" 
d="M175 -230h-175l10 66h88l140 868h-88l11 66h177z" />
    <glyph glyph-name="asciicircum" unicode="^" horiz-adv-x="557" 
d="M433 234l-156 395l-154 -395h-83l215 524h46l216 -524h-84z" />
    <glyph glyph-name="underscore" unicode="_" horiz-adv-x="500" 
d="M0 -118v39h500v-39h-500z" />
    <glyph glyph-name="grave" unicode="`" horiz-adv-x="500" 
d="M326 583l-192 109l41 67l181 -129z" />
    <glyph glyph-name="a" unicode="a" horiz-adv-x="502" 
d="M392 0h-88l17 110q-6 -12 -19 -32.5t-36 -41.5q-46 -43 -104 -43q-62 0 -93.5 42.5t-31.5 139.5q0 58 12.5 120t41 113t74.5 83.5t112 32.5q43 0 68 -11.5t36 -22.5l4 27h88zM371 425q-8 8 -26 18t-50 10q-34 0 -59 -13t-43 -34t-30 -48.5t-19.5 -58t-10.5 -60.5t-3 -55
q0 -35 5 -56.5t14 -34.5t21 -17.5t26 -4.5q20 0 39.5 11t45.5 43q54 66 63 127z" />
    <glyph glyph-name="b" unicode="b" horiz-adv-x="509" 
d="M471 342q0 -56 -12 -117t-40 -113t-75 -85.5t-117 -33.5q-42 0 -68.5 10.5t-40.5 22.5l-91 -32l121 761l93 15l-42 -265q-3 -16 -6 -33t-5.5 -31t-5 -25t-3.5 -15q1 2 6 10.5t12.5 20.5t17.5 25t22 24q27 26 53.5 35t52.5 9q63 0 95.5 -42.5t32.5 -140.5zM378 334
q0 34 -5.5 55.5t-14.5 34t-21 17t-25 4.5q-23 0 -43.5 -12.5t-44.5 -41.5q-23 -28 -40.5 -62t-22.5 -65l-27 -173q8 -8 27 -17.5t51 -9.5q42 0 69.5 17.5t46.5 46.5q14 22 23.5 49t15.5 54.5t8.5 54.5t2.5 48z" />
    <glyph glyph-name="c" unicode="c" horiz-adv-x="420" 
d="M407 409q-15 18 -42.5 31.5t-65.5 13.5q-24 0 -53.5 -9t-55.5 -39q-31 -36 -44.5 -88.5t-13.5 -105.5q0 -75 28 -112.5t91 -37.5q43 0 70.5 14t43.5 28l-16 -82q-16 -11 -44 -20.5t-74 -9.5q-45 0 -77 10.5t-53.5 28t-34 39.5t-19 45.5t-8.5 45.5t-2 40q0 62 14 120
t44.5 103t78.5 72.5t116 27.5q51 0 83 -13t46 -26z" />
    <glyph glyph-name="d" unicode="d" 
d="M397 0h-88l20 117q-10 -20 -24 -41t-34 -40q-27 -26 -53.5 -34.5t-51.5 -8.5q-64 0 -96.5 42t-32.5 139q0 55 12 117t40.5 113.5t75 85.5t116.5 34q39 0 64.5 -10t39.5 -22l42 263l92 15zM374 425q-8 8 -26.5 18t-51.5 10q-35 0 -60 -13t-43 -34t-30 -48.5t-19.5 -58
t-10.5 -60.5t-3 -55q0 -35 5 -56.5t14 -34.5t21 -17.5t26 -4.5q23 0 43 12t45 42t41.5 63.5t21.5 63.5z" />
    <glyph glyph-name="e" unicode="e" horiz-adv-x="458" 
d="M444 401q0 -31 -9.5 -54.5t-23.5 -40.5t-32 -28t-34 -18q-21 -9 -46 -14.5t-52 -8.5t-53.5 -4.5t-50.5 -1.5h-9q0 -4 -0.5 -7.5t-0.5 -17.5q0 -33 5.5 -59.5t19 -45t37 -29t59.5 -10.5q45 0 77 14t52 31l-16 -85q-17 -11 -49.5 -20.5t-80.5 -9.5q-68 0 -108 21t-60.5 52
t-26 67t-5.5 66q0 65 15.5 124t48 104t81.5 72t117 27q49 0 77.5 -13.5t43.5 -32.5t19.5 -40.5t4.5 -37.5zM354 399q0 63 -68 63q-40 0 -66.5 -18t-43.5 -46q-11 -19 -21 -47t-15 -58h9q100 0 152.5 24t52.5 82z" />
    <glyph glyph-name="f" unicode="f" horiz-adv-x="253" 
d="M359 683q-6 6 -21.5 12.5t-39.5 6.5q-38 0 -56 -24q-10 -13 -14.5 -31.5t-8.5 -44.5l-13 -85h103l-11 -70h-104l-106 -677h-91l107 677h-55l12 70h54l13 80q4 25 8 44t9 33.5t11 26t15 22.5q23 28 52 37.5t65 9.5q32 0 51.5 -5t30.5 -10z" />
    <glyph glyph-name="g" unicode="g" horiz-adv-x="510" 
d="M397 -5q-8 -53 -19 -90.5t-36 -67.5q-27 -33 -68.5 -50t-104.5 -17q-57 0 -100 12t-66 29l13 84q18 -20 53 -36.5t88 -16.5q41 0 67.5 10.5t43.5 30.5q18 21 25.5 47.5t15.5 69.5l9 52q5 29 7.5 42.5t4.5 24.5q-10 -20 -24.5 -41.5t-34.5 -40.5q-27 -26 -53.5 -34.5
t-51.5 -8.5q-64 0 -96.5 42t-32.5 139q0 37 5 77t17 79t30.5 74t45.5 61.5t63 42t83 15.5q43 0 69 -11.5t38 -22.5l4 27h88zM375 428q-9 9 -29 17t-49 8q-35 0 -60.5 -13t-43.5 -34t-30 -48.5t-19.5 -57.5t-10.5 -60t-3 -55q0 -35 5 -56.5t14 -34.5t21 -17.5t26 -4.5
q23 0 43 12.5t45 42.5t41.5 62.5t21.5 62.5z" />
    <glyph glyph-name="h" unicode="h" horiz-adv-x="520" 
d="M471 416q0 -24 -3 -51.5t-5 -40.5l-51 -324h-90l47 299q1 6 2.5 16t3 22t2.5 25t1 24q0 8 -1.5 17.5t-6.5 18t-16 14t-29 5.5q-33 0 -57 -16.5t-43 -39.5q-24 -29 -41.5 -61.5t-21.5 -58.5l-42 -265h-90l120 755l92 15l-41 -264q-2 -9 -4 -23t-5 -29l-6 -30t-6 -25
q14 26 31 48t34 37q29 26 58 33.5t53 7.5q42 0 65 -13t34 -31t13.5 -36.5t2.5 -28.5z" />
    <glyph glyph-name="i" unicode="i" horiz-adv-x="231" 
d="M240 690q0 -20 -12.5 -38t-44.5 -18q-26 0 -40 13.5t-14 36.5q0 20 12.5 38.5t44.5 18.5q26 0 40 -13.5t14 -37.5zM120 0h-90l82 517h90z" />
    <glyph glyph-name="j" unicode="j" horiz-adv-x="231" 
d="M240 690q0 -20 -12.5 -38.5t-44.5 -18.5q-26 0 -40 13.5t-14 37.5q0 20 12.5 38t44.5 18q26 0 40 -13.5t14 -36.5zM108 -84q-5 -33 -15.5 -60t-28.5 -46t-45.5 -29.5t-67.5 -10.5q-32 0 -49.5 5t-24.5 8l12 71q5 -2 17 -7.5t36 -5.5q22 0 35.5 6t22 17.5t13 28t7.5 37.5
l94 587h90z" />
    <glyph glyph-name="k" unicode="k" horiz-adv-x="449" 
d="M254 278l148 -278h-99l-140 271l-43 -271h-90l120 755l92 15l-76 -482l220 229h103z" />
    <glyph glyph-name="l" unicode="l" horiz-adv-x="230" 
d="M120 0h-90l120 755l92 15z" />
    <glyph glyph-name="m" unicode="m" horiz-adv-x="807" 
d="M759 418q0 -26 -3 -53t-5 -40l-51 -325h-91l47 299q2 11 5.5 38t3.5 51q0 8 -1 17t-6.5 17t-16 13.5t-28.5 5.5q-33 0 -56 -16.5t-42 -39.5q-22 -26 -40.5 -60t-22.5 -60l-42 -265h-90l47 299q2 11 5.5 38t3.5 50q0 8 -1 17.5t-6.5 17.5t-16 13.5t-28.5 5.5
q-33 0 -56.5 -16.5t-42.5 -39.5q-26 -32 -42.5 -64t-20.5 -56l-42 -265h-90l82 517h88l-20 -118q11 20 28 44t37 41q29 26 57.5 33.5t52.5 7.5q42 0 65 -13.5t33.5 -31t12.5 -35t2 -25.5q0 -16 -0.5 -17t-0.5 -6q11 20 28.5 44t38.5 43q29 26 57 34t54 8q42 0 65 -13t34 -31
t13 -36t2 -28z" />
    <glyph glyph-name="n" unicode="n" horiz-adv-x="520" 
d="M471 416q0 -24 -3 -51.5t-5 -40.5l-51 -324h-90l47 299q1 6 2.5 16t3 22t2.5 25t1 24q0 8 -1.5 17.5t-6.5 18t-16 14t-29 5.5q-33 0 -57 -16.5t-43 -39.5q-24 -29 -41.5 -61.5t-21.5 -58.5l-42 -265h-90l82 517h88l-20 -118q14 26 31 48t34 37q29 26 58 33.5t53 7.5
q42 0 65 -13t34 -31t13.5 -36.5t2.5 -28.5z" />
    <glyph glyph-name="o" unicode="o" horiz-adv-x="491" 
d="M454 316q0 -20 -2.5 -52t-11 -68t-24.5 -73t-42.5 -66.5t-65 -48t-92.5 -18.5q-60 0 -95.5 22.5t-54 54.5t-24 68.5t-5.5 63.5q0 21 3 53t11.5 68.5t24.5 73t42.5 66t64.5 48t92 18.5q60 0 95 -22.5t54 -55t24.5 -68.5t5.5 -64zM360 312q0 75 -21.5 109t-69.5 34
q-26 0 -46 -9.5t-37 -32.5q-26 -33 -40.5 -88.5t-14.5 -121.5q0 -75 21.5 -108.5t70.5 -33.5q23 0 43.5 9t38.5 33q26 34 40.5 88.5t14.5 120.5z" />
    <glyph glyph-name="p" unicode="p" horiz-adv-x="509" 
d="M472 343q0 -56 -12 -117.5t-40.5 -113.5t-75 -85.5t-116.5 -33.5q-37 0 -63.5 9t-40.5 21l-40 -253h-89l116 746h88l-19 -117q8 17 22 39t36 43q27 26 53.5 35t52.5 9q63 0 95.5 -42.5t32.5 -139.5zM379 333q0 34 -5.5 56t-14.5 34.5t-20.5 17t-24.5 4.5q-21 0 -43 -11.5
t-47 -42.5q-22 -27 -39.5 -61t-22.5 -66l-28 -173q8 -9 28 -18t51 -9q42 0 69.5 17.5t46.5 46.5q15 23 24.5 50.5t15.5 55.5t8 53.5t2 45.5z" />
    <glyph glyph-name="q" unicode="q" horiz-adv-x="510" 
d="M361 -230h-89l45 279q1 9 3 19.5t4 20.5t3.5 18.5t2.5 11.5q-1 -3 -6 -11.5t-12.5 -20.5t-18 -25t-22.5 -25q-27 -26 -53.5 -34.5t-51.5 -8.5q-64 0 -96.5 42t-32.5 139q0 37 5 77t17 79t30.5 74t45.5 61.5t63 42t83 15.5q43 0 69 -11.5t38 -22.5l4 27h88zM375 428
q-10 10 -30.5 17.5t-47.5 7.5q-35 0 -60.5 -13t-43.5 -34t-30 -49t-19.5 -58.5t-10.5 -60.5t-3 -54q0 -34 5 -56t14 -34.5t21 -17t26 -4.5q23 0 43 12.5t45 42.5t41.5 62.5t21.5 62.5z" />
    <glyph glyph-name="r" unicode="r" horiz-adv-x="357" 
d="M371 427q-9 9 -23 12.5t-26 3.5q-28 0 -51.5 -15.5t-46.5 -44.5q-23 -28 -40.5 -62t-22.5 -63l-41 -258h-90l82 517h88l-22 -125q8 17 23 39.5t38 46.5q25 26 49.5 36.5t52.5 10.5q21 0 34 -4t19 -9z" />
    <glyph glyph-name="s" unicode="s" horiz-adv-x="372" 
d="M345 406q-17 19 -47.5 33.5t-68.5 14.5q-25 0 -40.5 -6t-24 -16t-11.5 -21.5t-3 -21.5q0 -22 10.5 -36t30.5 -31l58 -47q34 -27 53 -55.5t19 -74.5q0 -23 -6.5 -50t-25.5 -50t-53.5 -38t-89.5 -15q-51 0 -85.5 11.5t-54.5 25.5l12 84q18 -20 50 -35.5t76 -15.5
q37 0 62.5 16t25.5 57q0 28 -12.5 43.5t-35.5 33.5l-51 39q-40 30 -55.5 60.5t-15.5 66.5q0 66 43 106t121 40q45 0 78 -12t53 -27z" />
    <glyph glyph-name="t" unicode="t" horiz-adv-x="296" 
d="M318 447h-123l-44 -278q0 -3 -1 -9.5t-2 -15t-2 -17.5t-1 -15q0 -7 1.5 -15t7 -15.5t16.5 -12.5t30 -5q22 0 36.5 6t23.5 13l-12 -73q-11 -7 -31.5 -12t-48.5 -5q-41 0 -64.5 11.5t-34.5 27.5t-13.5 33t-2.5 28q0 20 2.5 38t5.5 38l43 278h-54l12 70h54l14 91l94 22
l-18 -113h123z" />
    <glyph glyph-name="u" unicode="u" horiz-adv-x="517" 
d="M407 0h-88l20 119q-14 -26 -31 -48t-34 -37q-29 -26 -58 -33.5t-54 -7.5q-41 0 -64 13t-34 30.5t-13.5 36t-2.5 29.5q0 25 3 51.5t5 40.5l51 323h90l-47 -298q-2 -14 -5.5 -38t-3.5 -47q0 -9 1.5 -19.5t6.5 -19t16 -14t29 -5.5q33 0 57 16.5t43 39.5q24 29 41.5 61.5
t21.5 58.5l42 265h90z" />
    <glyph glyph-name="v" unicode="v" horiz-adv-x="421" 
d="M214 -3h-94l-78 520h91l43 -330q4 -29 6 -55t2 -37q4 12 12 33t25 59l149 330h91z" />
    <glyph glyph-name="w" unicode="w" horiz-adv-x="689" 
d="M497 -3h-92l-34 329q-1 7 -2 17.5t-1.5 22.5t-1 23t-0.5 18q-5 -15 -10.5 -30t-16.5 -43l-138 -337h-95l-65 520h91l32 -324q3 -32 4.5 -60.5t1.5 -44.5q5 15 14.5 42.5t22.5 59.5l131 327h96l31 -327q6 -63 6 -103q7 25 15.5 49.5t21.5 56.5l135 324h88z" />
    <glyph glyph-name="x" unicode="x" horiz-adv-x="417" 
d="M261 264l138 -264h-95l-107 202l-145 -202h-96l205 271l-130 246h98l96 -184l132 184h95z" />
    <glyph glyph-name="y" unicode="y" horiz-adv-x="419" 
d="M177 -75q-14 -30 -34 -64t-48 -57q-20 -17 -45.5 -25.5t-59.5 -8.5q-26 0 -43.5 4t-26.5 8l12 73q8 -6 21.5 -11t33.5 -5q38 0 61.5 22.5t45.5 67.5l30 61l-85 527h92l44 -309q5 -37 7 -61.5t3 -42.5q5 15 14.5 39t23.5 56l145 318h91z" />
    <glyph glyph-name="z" unicode="z" horiz-adv-x="418" 
d="M426 459l-319 -390h254l-11 -69h-364l9 59l318 389h-239l11 69h350z" />
    <glyph glyph-name="braceleft" unicode="{" horiz-adv-x="412" 
d="M407 691q-5 3 -16 6.5t-26 3.5q-21 0 -34 -8t-20.5 -21.5t-11.5 -31.5t-8 -39l-28 -156q-5 -27 -10.5 -52t-16.5 -46.5t-30.5 -38t-51.5 -26.5q37 -14 48.5 -42.5t11.5 -63.5q0 -15 -1.5 -31t-3.5 -31l-30 -181q-2 -10 -3 -21t-1 -20q0 -22 11 -37.5t44 -15.5
q14 0 24 2.5t16 5.5l-12 -65q-9 -3 -27 -6t-38 -3q-60 0 -84.5 29.5t-24.5 72.5q0 17 3 37l33 201q2 13 3 25.5t1 21.5q0 42 -17.5 66.5t-58.5 27.5l10 61q49 0 76.5 30.5t39.5 98.5l32 181q6 31 15 57.5t25.5 46t41.5 30t61 10.5q26 0 45 -4.5t27 -8.5z" />
    <glyph glyph-name="bar" unicode="|" horiz-adv-x="267" 
d="M102 -179h-90l151 947h90z" />
    <glyph glyph-name="braceright" unicode="}" horiz-adv-x="412" 
d="M354 226q-49 0 -76.5 -30.5t-39.5 -98.5l-32 -181q-6 -32 -15 -58t-25.5 -45.5t-41.5 -30t-61 -10.5q-26 0 -45 4.5t-27 8.5l14 65q5 -3 16 -6.5t26 -3.5q21 0 34 8t20.5 21.5t11.5 31.5t8 39l28 156q5 27 10.5 52t16.5 46.5t30.5 38t51.5 26.5q-37 14 -48.5 42.5
t-11.5 63.5q0 15 1.5 31t3.5 31l30 181q2 10 3 21t1 20q0 22 -11 37.5t-44 15.5q-14 0 -24 -2.5t-16 -5.5l12 65q9 3 27 6t38 3q60 0 84.5 -29.5t24.5 -72.5q0 -18 -3 -37l-33 -201q-2 -13 -3 -25.5t-1 -21.5q0 -42 17.5 -66.5t58.5 -27.5z" />
    <glyph glyph-name="asciitilde" unicode="~" horiz-adv-x="711" 
d="M711 447q-8 -32 -18.5 -62.5t-22.5 -52.5q-22 -39 -54.5 -55.5t-71.5 -16.5q-38 0 -73.5 11.5t-68.5 24.5l-78 30q-48 19 -72.5 24t-42.5 5q-29 0 -48 -9t-35 -31q-14 -19 -23 -41t-14 -41l-49 17q6 29 16.5 63.5t26.5 62.5q23 40 54.5 55.5t69.5 15.5t73 -11t70 -25
l79 -30q24 -9 41 -14.5t30 -9t23 -4.5t19 -1q53 0 84 37q16 19 24.5 39t12.5 34l48 -15v0z" />
    <glyph glyph-name="uni00A0" unicode="&#xa0;" horiz-adv-x="200" 
 />
    <glyph glyph-name="exclamdown" unicode="&#xa1;" horiz-adv-x="271" 
d="M256 647q0 -30 -17.5 -50t-46.5 -20q-28 0 -42.5 17.5t-14.5 43.5q0 30 18 49.5t47 19.5q26 0 41 -16t15 -44zM145 11l-95 -16l90 529h80z" />
    <glyph glyph-name="cent" unicode="&#xa2;" 
d="M460 506q-12 16 -36.5 28.5t-55.5 15.5l-63 -391h3q33 0 63 12.5t47 29.5l-16 -82q-15 -11 -44 -20t-65 -10l-16 -101h-67l17 107q-48 10 -75 33.5t-41 53t-17.5 60t-3.5 53.5q0 57 12 112t38 100t68.5 75t104.5 37l13 82l68 11l-15 -93q30 -4 55.5 -14.5t37.5 -22.5z
M300 543q-15 -5 -29 -14.5t-28 -25.5q-29 -34 -43.5 -84.5t-14.5 -110.5q0 -52 12.5 -85t42.5 -50z" />
    <glyph glyph-name="sterling" unicode="&#xa3;" 
d="M521 581q-16 24 -46 40t-71 16q-33 0 -62 -14t-51 -49q-19 -31 -29.5 -72t-21.5 -99h168l-10 -64h-169q-9 -46 -18 -80t-18.5 -59t-20 -43t-22.5 -31q-11 -11 -28 -26t-27 -22q11 5 34 10t46 5q14 0 30 -2t30 -5l68 -16q8 -2 23.5 -4t29.5 -2q34 0 60.5 13t41.5 28
l-20 -93q-19 -15 -45.5 -20t-51.5 -5t-49 3.5t-47 8.5l-70 16q-15 4 -32 5.5t-30 1.5q-61 0 -107 -31l-26 56q20 11 34 20.5t27 23.5q11 12 23.5 31.5t24.5 49t24 70.5t23 97h-80l10 64h80q11 55 21.5 98t26.5 78q27 59 78.5 96.5t130.5 37.5q48 0 81.5 -12.5t51.5 -29.5z
" />
    <glyph glyph-name="currency" unicode="&#xa4;" horiz-adv-x="586" 
d="M493 114l-63 61q-36 -25 -67.5 -35t-70.5 -10q-38 0 -69.5 10t-67.5 36l-63 -62l-45 44l64 62q-26 36 -36.5 66.5t-10.5 67.5q0 39 10.5 70.5t36.5 67.5l-64 62l45 44l63 -61q35 24 66 34.5t71 10.5q39 0 70.5 -10.5t67.5 -35.5l63 62l45 -44l-64 -62q26 -35 36.5 -66.5
t10.5 -70.5q0 -37 -10.5 -68t-36.5 -67l64 -62zM439 357q0 35 -12 60.5t-32 45.5q-43 43 -102 43q-63 0 -104 -43q-42 -44 -42 -107q0 -62 42 -106q41 -43 104 -43q33 0 57.5 11.5t44.5 31.5q21 21 32.5 47.5t11.5 59.5z" />
    <glyph glyph-name="yen" unicode="&#xa5;" 
d="M347 361h107l-10 -64h-142l-14 -86h141l-10 -65h-141l-24 -146h-92l23 146h-140l10 65h140l14 86h-140l10 64h107l-116 342h99l99 -322l203 322h102z" />
    <glyph glyph-name="brokenbar" unicode="&#xa6;" horiz-adv-x="530" 
d="M322 349h-90l56 354h90zM238 -177h-90l54 339h90z" />
    <glyph glyph-name="section" unicode="&#xa7;" horiz-adv-x="535" 
d="M491 645q-18 21 -50.5 37t-76.5 16q-45 0 -71 -20t-26 -64q0 -27 12 -45t38 -38l72 -54q41 -30 62 -63t21 -87q0 -44 -13 -77t-34.5 -57t-49.5 -39.5t-58 -24.5l4 -3q20 -15 38.5 -45t18.5 -77q0 -23 -7 -51t-27 -52.5t-56 -41.5t-94 -17q-54 0 -90.5 13.5t-54.5 29.5
l13 82q18 -21 50.5 -37t76.5 -16q45 0 71 20t26 64q0 27 -12 45t-38 38l-72 54q-41 30 -62 63t-21 87q0 43 13 76t34.5 57t49.5 40t58 25l-4 3q-20 15 -38.5 45t-18.5 77q0 22 7 50.5t27 53t56 41.5t94 17q54 0 90.5 -13.5t54.5 -29.5zM383 311q0 41 -18.5 65t-40.5 41
l-36 27q-23 -8 -44.5 -20.5t-38 -30.5t-26 -41t-9.5 -51q0 -41 18.5 -65.5t40.5 -40.5l36 -27q23 8 44.5 20.5t38 30.5t26 40.5t9.5 51.5z" />
    <glyph glyph-name="dieresis" unicode="&#xa8;" horiz-adv-x="500" 
d="M393 667q0 -25 -16 -40.5t-40 -15.5q-21 0 -33.5 12t-12.5 34q0 26 16 41t40 15q20 0 33 -12t13 -34zM212 667q0 -25 -16 -40.5t-40 -15.5q-20 0 -33 12t-13 34q0 26 16 41t40 15q20 0 33 -12t13 -34z" />
    <glyph glyph-name="copyright" unicode="&#xa9;" horiz-adv-x="870" 
d="M833 321q0 -87 -28.5 -161t-80 -128t-123.5 -84.5t-159 -30.5q-86 0 -158 29.5t-124 82.5t-81 126t-29 160t29.5 160.5t82 126.5t125.5 82.5t161 29.5q87 0 158.5 -29.5t121.5 -81.5t77.5 -124.5t27.5 -157.5zM769 319q0 74 -22.5 136.5t-64 108.5t-101.5 71.5t-135 25.5
q-76 0 -137 -26t-104 -72.5t-66.5 -109.5t-23.5 -137q0 -75 23.5 -138.5t66.5 -110t103.5 -72.5t134.5 -26q75 0 135 26.5t102.5 73.5t65.5 111t23 139zM585 95q-20 -16 -55 -25t-77 -9q-60 0 -104.5 19.5t-73 53.5t-42.5 79t-14 96q0 45 10 83.5t28 70.5q29 51 81 78.5
t123 27.5q44 0 76.5 -9.5t49.5 -20.5v-75q-15 15 -45.5 28t-74.5 13q-77 0 -122 -48t-45 -142q0 -90 42.5 -140t121.5 -50q45 0 76.5 14t48.5 31z" />
    <glyph glyph-name="ordfeminine" unicode="&#xaa;" horiz-adv-x="368" 
d="M331 321h-70l16 88q-7 -12 -17 -26.5t-27 -31.5q-22 -21 -40 -28.5t-39 -7.5q-48 0 -72 33t-24 105q0 43 9.5 89t31 84t57 62.5t86.5 24.5q29 0 47.5 -7.5t29.5 -17.5l3 20h70zM309 636q-13 8 -28 13t-32 5q-36 0 -58.5 -23t-34.5 -54.5t-16.5 -65t-4.5 -55.5
q0 -23 3.5 -38t9.5 -23.5t13.5 -11.5t15.5 -3q20 0 36 12.5t30 30.5q18 23 31 48t16 45z" />
    <glyph glyph-name="guillemotleft" unicode="&#xab;" horiz-adv-x="462" 
d="M144 263l53 -209h-76l-72 211l134 186h84zM336 263l53 -209h-76l-72 211l134 186h84z" />
    <glyph glyph-name="logicalnot" unicode="&#xac;" horiz-adv-x="640" 
d="M558 186v162h-523v70h594v-232h-71z" />
    <glyph glyph-name="uni00AD" unicode="&#xad;" horiz-adv-x="317" 
d="M269 223h-236l15 86h236z" />
    <glyph glyph-name="registered" unicode="&#xae;" horiz-adv-x="870" 
d="M833 321q0 -87 -28.5 -161t-80 -128t-123.5 -84.5t-159 -30.5q-86 0 -158 29.5t-124 82.5t-81 126t-29 160t29.5 160.5t82 126.5t125.5 82.5t161 29.5q87 0 158.5 -29.5t121.5 -81.5t77.5 -124.5t27.5 -157.5zM769 319q0 74 -22.5 136.5t-64 108.5t-101.5 71.5t-135 25.5
q-76 0 -137 -26t-104 -72.5t-66.5 -109.5t-23.5 -137q0 -75 23.5 -138.5t66.5 -110t103.5 -72.5t134.5 -26q75 0 135 26.5t102.5 73.5t65.5 111t23 139zM539 68l-169 210v-210h-73v509h88q50 0 84.5 -3.5t60.5 -16.5q29 -14 48 -43t19 -75q0 -37 -12.5 -65t-33.5 -47
t-48.5 -28.5t-56.5 -9.5l184 -221h-91zM520 431q0 28 -8.5 45.5t-23.5 27t-35.5 13t-43.5 3.5h-39v-183h37q22 0 42.5 3.5t36 14t25 29t9.5 47.5z" />
    <glyph glyph-name="macron" unicode="&#xaf;" horiz-adv-x="307" 
d="M275 620h-275l11 72h276z" />
    <glyph glyph-name="degree" unicode="&#xb0;" horiz-adv-x="372" 
d="M378 600q0 -32 -12.5 -60.5t-33.5 -49.5t-49.5 -33t-60.5 -12t-60.5 12t-49.5 33t-33.5 49.5t-12.5 60.5t12 60.5t33 49.5t49.5 33t60.5 12q33 0 61.5 -12t49.5 -33t33.5 -49.5t12.5 -60.5zM322 601q0 43 -29 72.5t-72 29.5t-71.5 -29.5t-28.5 -72.5q0 -22 7.5 -41
t21 -33.5t32 -22.5t39.5 -8t39.5 8t32 22.5t21.5 33.5t8 41z" />
    <glyph glyph-name="plusminus" unicode="&#xb1;" horiz-adv-x="640" 
d="M369 400v-270h-75v270h-259v70h259v266h75v-266h260v-70h-260zM35 0v70h594v-70h-594z" />
    <glyph glyph-name="twosuperior" unicode="&#xb2;" horiz-adv-x="352" 
d="M330 601q0 -23 -6.5 -43.5t-19.5 -40.5t-33 -42t-48 -47q-29 -26 -52.5 -46.5t-41.5 -34.5h163l-10 -64h-261l9 56q33 28 70.5 61t69.5 64q42 41 61 69.5t19 58.5q0 26 -14.5 42t-47.5 16q-28 0 -54.5 -11t-46.5 -28l13 74q16 9 44.5 18.5t65.5 9.5q33 0 56 -9
t37.5 -24.5t20.5 -36t6 -42.5z" />
    <glyph glyph-name="threesuperior" unicode="&#xb3;" horiz-adv-x="352" 
d="M319 617q0 -30 -11 -50.5t-27 -34t-32.5 -20.5t-27.5 -8q38 -6 59.5 -28t21.5 -66q0 -38 -15 -64t-40 -43q-24 -16 -52.5 -22t-56.5 -6q-40 0 -65 8.5t-38 19.5l10 67q14 -13 36.5 -24.5t56.5 -11.5q40 0 64.5 19.5t24.5 54.5q0 36 -24.5 50t-64.5 14h-11l9 55h12
q17 0 34 4t30.5 13t22 23t8.5 34q0 25 -14.5 39.5t-43.5 14.5q-27 0 -52 -10.5t-41 -23.5l11 65q16 9 43 17.5t62 8.5q54 0 82.5 -25t28.5 -70z" />
    <glyph glyph-name="acute" unicode="&#xb4;" horiz-adv-x="500" 
d="M164 583l-30 48l182 129l40 -68z" />
    <glyph glyph-name="paragraph" unicode="&#xb6;" horiz-adv-x="440" 
d="M443 632h-52l-101 -626q-5 -32 -13 -58t-21 -46q-19 -29 -50 -44t-78 -15q-32 0 -55.5 5.5t-34.5 11.5l12 72q12 -7 29.5 -14t44.5 -7q41 0 58.5 21t25.5 66l51 318h-15q-75 0 -120 44.5t-45 125.5q0 48 17 87.5t48.5 68.5t77 45t103.5 16h134z" />
    <glyph glyph-name="periodcentered" unicode="&#xb7;" horiz-adv-x="240" 
d="M196 300q0 -33 -19.5 -54.5t-53.5 -21.5q-32 0 -52 20t-20 56q0 35 19.5 56t51.5 21t53 -20.5t21 -56.5z" />
    <glyph glyph-name="cedilla" unicode="&#xb8;" horiz-adv-x="521" 
d="M230 -124q0 -38 -23 -62q-15 -17 -36 -24.5t-47 -7.5q-22 0 -36.5 4t-20.5 7l7 58q8 -7 19.5 -11.5t25.5 -4.5q20 0 32.5 10t12.5 30q0 15 -6.5 23t-14.5 14q-8 7 -14.5 15.5t-6.5 25.5q0 12 3.5 22.5t10.5 24.5h57q-8 -17 -8 -31t5 -20t13 -14q9 -8 18 -20.5t9 -38.5z
" />
    <glyph glyph-name="onesuperior" unicode="&#xb9;" horiz-adv-x="292" 
d="M182 283h-74l53 333l-95 -18l9 61q26 5 60.5 16.5t56.5 27.5h57z" />
    <glyph glyph-name="ordmasculine" unicode="&#xba;" horiz-adv-x="363" 
d="M377 557q0 -15 -2 -39t-8.5 -51t-18.5 -54.5t-32 -49t-49.5 -35.5t-70.5 -14q-46 0 -73 16.5t-41 40.5t-18 50.5t-4 47.5q0 15 2 39t8.5 51t18.5 54.5t32 49.5t49.5 36t70.5 14q46 0 73 -17t41 -41t18 -51t4 -47zM299 551q0 56 -15 81t-50 25q-18 0 -31.5 -7t-26.5 -24
q-20 -27 -29.5 -67t-9.5 -85q0 -55 15.5 -79.5t49.5 -24.5q14 0 29.5 5.5t29.5 24.5q20 26 29 66t9 85z" />
    <glyph glyph-name="guillemotright" unicode="&#xbb;" horiz-adv-x="462" 
d="M86 55h-83l123 188l-53 209h75l73 -211zM278 55h-83l123 188l-53 209h75l73 -211z" />
    <glyph glyph-name="onequarter" unicode="&#xbc;" horiz-adv-x="727" 
d="M669 91h-45l-15 -91h-69l15 91h-192l9 61l235 276h70l-44 -280h46zM145 0h-83l511 703h81zM172 283h-74l53 333l-95 -18l9 61q26 5 60.5 16.5t56.5 27.5h57zM595 341q-3 -5 -10.5 -16t-20.5 -26l-129 -151h129z" />
    <glyph glyph-name="onehalf" unicode="&#xbd;" horiz-adv-x="727" 
d="M119 0h-83l511 703h81zM163 283h-74l53 333l-95 -18l9 61q26 5 60.5 16.5t56.5 27.5h57zM706 319q0 -23 -6.5 -43.5t-19.5 -40.5t-33 -42t-48 -47q-29 -26 -52.5 -46.5t-41.5 -34.5h163l-10 -64h-261l9 56q33 28 70.5 61t69.5 64q42 41 61 69.5t19 58.5q0 26 -14.5 42
t-47.5 16q-28 0 -54.5 -11t-46.5 -28l13 74q16 9 44.5 18.5t65.5 9.5q33 0 56 -9t37.5 -24.5t20.5 -36t6 -42.5z" />
    <glyph glyph-name="threequarters" unicode="&#xbe;" horiz-adv-x="727" 
d="M699 91h-45l-15 -91h-69l15 91h-192l9 61l235 276h70l-44 -280h46zM197 0h-83l511 703h81zM312 617q0 -30 -11 -50.5t-27 -34t-32.5 -20.5t-27.5 -8q38 -6 59.5 -28t21.5 -66q0 -38 -15 -64t-40 -43q-24 -16 -52.5 -22t-56.5 -6q-40 0 -65 8.5t-38 19.5l10 67
q14 -13 36.5 -24.5t56.5 -11.5q40 0 64.5 19.5t24.5 54.5q0 36 -24.5 50t-64.5 14h-11l9 55h12q17 0 34 4t30.5 13t22 23t8.5 34q0 25 -14.5 39.5t-43.5 14.5q-27 0 -52 -10.5t-41 -23.5l11 65q16 9 43 17.5t62 8.5q54 0 82.5 -25t28.5 -70zM625 341q-3 -5 -10.5 -16
t-20.5 -26l-129 -151h129z" />
    <glyph glyph-name="questiondown" unicode="&#xbf;" horiz-adv-x="409" 
d="M366 647q0 -30 -17.5 -50t-46.5 -20q-28 0 -42.5 17.5t-14.5 43.5q0 30 17.5 49.5t47.5 19.5q26 0 41 -16t15 -44zM349 28q-29 -19 -71 -31t-90 -12q-81 0 -127 39.5t-46 118.5q0 51 23 97.5t82 94.5l73 59q15 12 24.5 23t15.5 21.5t9 23t6 27.5l6 35h81l-7 -47
q-5 -35 -19 -64t-44 -56l-77 -68q-36 -32 -57 -62.5t-21 -72.5q0 -43 25 -68t81 -25q50 0 88 18t59 40z" />
    <glyph glyph-name="Agrave" unicode="&#xc0;" horiz-adv-x="548" 
d="M430 748l-192 109l41 67l181 -129zM417 0l-35 237h-224l-111 -237h-92l340 705h107l110 -705h-95zM340 521q-4 26 -6 53.5t-3 44.5q-5 -17 -14.5 -40t-25.5 -57l-100 -214h180z" />
    <glyph glyph-name="Aacute" unicode="&#xc1;" horiz-adv-x="548" 
d="M274 748l-30 48l182 129l40 -68zM417 0l-35 237h-224l-111 -237h-92l340 705h107l110 -705h-95zM340 521q-4 26 -6 53.5t-3 44.5q-5 -17 -14.5 -40t-25.5 -57l-100 -214h180z" />
    <glyph glyph-name="Acircumflex" unicode="&#xc2;" horiz-adv-x="548" 
d="M473 748l-105 87l-138 -87l-29 46l179 133l132 -133zM417 0l-35 237h-224l-111 -237h-92l340 705h107l110 -705h-95zM340 521q-4 26 -6 53.5t-3 44.5q-5 -17 -14.5 -40t-25.5 -57l-100 -214h180z" />
    <glyph glyph-name="Atilde" unicode="&#xc3;" horiz-adv-x="548" 
d="M511 852q-14 -32 -39.5 -57t-63.5 -25q-12 0 -23 3t-25 10l-22 10q-15 7 -22.5 9t-13.5 2q-18 0 -30.5 -10.5t-20.5 -23.5l-39 28q7 13 16.5 27.5t22.5 26.5t29 19.5t36 7.5q11 0 22 -2.5t26 -10.5l22 -11q12 -6 20.5 -8t14.5 -2q17 0 28.5 10.5t19.5 24.5l42 -28v0z
M417 0l-35 237h-224l-111 -237h-92l340 705h107l110 -705h-95zM340 521q-4 26 -6 53.5t-3 44.5q-5 -17 -14.5 -40t-25.5 -57l-100 -214h180z" />
    <glyph glyph-name="Adieresis" unicode="&#xc4;" horiz-adv-x="548" 
d="M505 832q0 -25 -16 -40.5t-40 -15.5q-21 0 -33.5 12t-12.5 34q0 26 16 41t40 15q20 0 33 -12t13 -34zM324 832q0 -25 -16 -40.5t-40 -15.5q-20 0 -33 12t-13 34q0 26 16 41t40 15q20 0 33 -12t13 -34zM417 0l-35 237h-224l-111 -237h-92l340 705h107l110 -705h-95z
M340 521q-4 26 -6 53.5t-3 44.5q-5 -17 -14.5 -40t-25.5 -57l-100 -214h180z" />
    <glyph glyph-name="Aring" unicode="&#xc5;" horiz-adv-x="548" 
d="M475 853q0 -27 -9 -49t-25 -37t-37.5 -23.5t-45.5 -8.5q-43 0 -73.5 26t-30.5 77q0 53 34 84.5t85 31.5q43 0 72.5 -25t29.5 -76zM420 850q0 29 -15.5 42t-36.5 13q-26 0 -42.5 -17.5t-16.5 -47.5q0 -29 15.5 -42.5t35.5 -13.5q26 0 43 18.5t17 47.5zM417 0l-35 237h-224
l-111 -237h-92l340 705h107l110 -705h-95zM340 521q-4 26 -6 53.5t-3 44.5q-5 -17 -14.5 -40t-25.5 -57l-100 -214h180z" />
    <glyph glyph-name="AE" unicode="&#xc6;" horiz-adv-x="745" 
d="M757 626h-237l-37 -236h197l-12 -77h-197l-39 -237h255l-15 -76h-345l51 315h-140l-189 -315h-99l429 703h391zM432 653q-5 -12 -14 -29t-20 -36l-116 -198h107z" />
    <glyph glyph-name="Ccedilla" unicode="&#xc7;" horiz-adv-x="535" 
d="M556 575q-20 25 -61 43t-98 18q-55 0 -95 -18.5t-68 -48t-45.5 -67.5t-27 -77t-12.5 -76t-3 -64q0 -47 8.5 -87.5t29 -70t54.5 -46t86 -16.5q61 0 102 20t66 46l-20 -97q-18 -16 -58 -29.5t-97 -15.5q-4 -9 -4 -20q0 -14 5 -20t13 -14q9 -8 18 -20.5t9 -38.5
q0 -38 -23 -62q-15 -17 -36 -24.5t-47 -7.5q-22 0 -36.5 4t-20.5 7l7 58q8 -7 19.5 -11.5t25.5 -4.5q20 0 32.5 10t12.5 30q0 15 -6.5 23t-14.5 14q-8 7 -14.5 15t-6.5 25q0 11 2.5 20t7.5 20q-62 7 -103 32.5t-65 64t-33.5 87.5t-9.5 104q0 97 23.5 172.5t60.5 129.5
q29 42 62.5 67.5t67 39.5t67 18.5t62.5 4.5q72 0 114 -16.5t64 -34.5z" />
    <glyph glyph-name="Egrave" unicode="&#xc8;" horiz-adv-x="448" 
d="M399 748l-192 109l41 67l181 -129zM460 626h-237l-36 -227h197l-12 -77h-197l-40 -246h255l-16 -76h-344l112 703h331z" />
    <glyph glyph-name="Eacute" unicode="&#xc9;" horiz-adv-x="448" 
d="M250 748l-30 48l182 129l40 -68zM460 626h-237l-36 -227h197l-12 -77h-197l-40 -246h255l-16 -76h-344l112 703h331z" />
    <glyph glyph-name="Ecircumflex" unicode="&#xca;" horiz-adv-x="448" 
d="M431 748l-105 87l-138 -87l-29 46l179 133l132 -133zM460 626h-237l-36 -227h197l-12 -77h-197l-40 -246h255l-16 -76h-344l112 703h331z" />
    <glyph glyph-name="Edieresis" unicode="&#xcb;" horiz-adv-x="448" 
d="M457 832q0 -25 -16 -40.5t-40 -15.5q-21 0 -33.5 12t-12.5 34q0 26 16 41t40 15q20 0 33 -12t13 -34zM276 832q0 -25 -16 -40.5t-40 -15.5q-20 0 -33 12t-13 34q0 26 16 41t40 15q20 0 33 -12t13 -34zM460 626h-237l-36 -227h197l-12 -77h-197l-40 -246h255l-16 -76h-344
l112 703h331z" />
    <glyph glyph-name="Igrave" unicode="&#xcc;" horiz-adv-x="233" 
d="M279 748l-192 109l41 67l181 -129zM123 0h-93l112 703h93z" />
    <glyph glyph-name="Iacute" unicode="&#xcd;" horiz-adv-x="233" 
d="M117 748l-30 48l182 129l40 -68zM123 0h-93l112 703h93z" />
    <glyph glyph-name="Icircumflex" unicode="&#xce;" horiz-adv-x="233" 
d="M318 748l-105 87l-138 -87l-29 46l179 133l132 -133zM123 0h-93l112 703h93z" />
    <glyph glyph-name="Idieresis" unicode="&#xcf;" horiz-adv-x="233" 
d="M347 832q0 -25 -16 -40.5t-40 -15.5q-21 0 -33.5 12t-12.5 34q0 26 16 41t40 15q20 0 33 -12t13 -34zM166 832q0 -25 -16 -40.5t-40 -15.5q-20 0 -33 12t-13 34q0 26 16 41t40 15q20 0 33 -12t13 -34zM123 0h-93l112 703h93z" />
    <glyph glyph-name="Eth" unicode="&#xd0;" horiz-adv-x="619" 
d="M599 421q0 -101 -30 -187.5t-92 -145.5q-29 -27 -61.5 -44.5t-70 -27t-81 -13t-95.5 -3.5h-139l51 326h-63l10 68h64l50 309h138q51 0 89 -3t67.5 -11t51.5 -21.5t41 -33.5q35 -37 52.5 -87t17.5 -126zM503 421q0 72 -16 114.5t-51 65.5q-21 14 -52.5 20.5t-83.5 6.5h-77
l-37 -234h177l-15 -68h-173l-39 -251h99q58 0 100.5 17t72 45t48.5 64.5t29.5 75t14 76t3.5 68.5z" />
    <glyph glyph-name="Ntilde" unicode="&#xd1;" horiz-adv-x="614" 
d="M555 852q-14 -32 -39.5 -57t-63.5 -25q-12 0 -23 3t-25 10l-22 10q-15 7 -22.5 9t-13.5 2q-18 0 -30.5 -10.5t-20.5 -23.5l-39 28q7 13 16.5 27.5t22.5 26.5t29 19.5t36 7.5q11 0 22 -2.5t26 -10.5l22 -11q12 -6 20.5 -8t14.5 -2q17 0 28.5 10.5t19.5 24.5l42 -28v0z
M504 0h-86l-184 452q-15 37 -22.5 65.5t-8.5 44.5l-89 -562h-84l111 703h93l173 -436q14 -36 23.5 -70t12.5 -54l89 560h84z" />
    <glyph glyph-name="Ograve" unicode="&#xd2;" horiz-adv-x="632" 
d="M479 748l-192 109l41 67l181 -129zM612 431q0 -16 -2 -55t-12 -88t-30 -102t-55.5 -97t-89.5 -72.5t-131 -28.5q-55 0 -94.5 14.5t-66.5 38.5t-43.5 54.5t-25 62t-11 61t-2.5 51.5q0 16 2 55t12 88t30 102t55.5 97t89.5 72.5t131 28.5q55 0 94.5 -14.5t66.5 -38.5
t43.5 -54.5t25 -62t11 -61t2.5 -51.5zM515 422q0 64 -11.5 105.5t-31.5 66t-47.5 34t-59.5 9.5q-42 0 -79.5 -16t-68.5 -61q-19 -27 -32.5 -62t-22 -72.5t-12.5 -76t-4 -73.5q0 -63 11.5 -104t32 -65t48.5 -33.5t61 -9.5q43 0 79 16.5t66 60.5q19 28 32.5 61.5t22 70.5
t12.5 75t4 74z" />
    <glyph glyph-name="Oacute" unicode="&#xd3;" horiz-adv-x="632" 
d="M324 748l-30 48l182 129l40 -68zM612 431q0 -16 -2 -55t-12 -88t-30 -102t-55.5 -97t-89.5 -72.5t-131 -28.5q-55 0 -94.5 14.5t-66.5 38.5t-43.5 54.5t-25 62t-11 61t-2.5 51.5q0 16 2 55t12 88t30 102t55.5 97t89.5 72.5t131 28.5q55 0 94.5 -14.5t66.5 -38.5
t43.5 -54.5t25 -62t11 -61t2.5 -51.5zM515 422q0 64 -11.5 105.5t-31.5 66t-47.5 34t-59.5 9.5q-42 0 -79.5 -16t-68.5 -61q-19 -27 -32.5 -62t-22 -72.5t-12.5 -76t-4 -73.5q0 -63 11.5 -104t32 -65t48.5 -33.5t61 -9.5q43 0 79 16.5t66 60.5q19 28 32.5 61.5t22 70.5
t12.5 75t4 74z" />
    <glyph glyph-name="Ocircumflex" unicode="&#xd4;" horiz-adv-x="632" 
d="M509 748l-105 87l-138 -87l-29 46l179 133l132 -133zM612 431q0 -16 -2 -55t-12 -88t-30 -102t-55.5 -97t-89.5 -72.5t-131 -28.5q-55 0 -94.5 14.5t-66.5 38.5t-43.5 54.5t-25 62t-11 61t-2.5 51.5q0 16 2 55t12 88t30 102t55.5 97t89.5 72.5t131 28.5q55 0 94.5 -14.5
t66.5 -38.5t43.5 -54.5t25 -62t11 -61t2.5 -51.5zM515 422q0 64 -11.5 105.5t-31.5 66t-47.5 34t-59.5 9.5q-42 0 -79.5 -16t-68.5 -61q-19 -27 -32.5 -62t-22 -72.5t-12.5 -76t-4 -73.5q0 -63 11.5 -104t32 -65t48.5 -33.5t61 -9.5q43 0 79 16.5t66 60.5q19 28 32.5 61.5
t22 70.5t12.5 75t4 74z" />
    <glyph glyph-name="Otilde" unicode="&#xd5;" horiz-adv-x="632" 
d="M548 852q-14 -32 -39.5 -57t-63.5 -25q-12 0 -23 3t-25 10l-22 10q-15 7 -22.5 9t-13.5 2q-18 0 -30.5 -10.5t-20.5 -23.5l-39 28q7 13 16.5 27.5t22.5 26.5t29 19.5t36 7.5q11 0 22 -2.5t26 -10.5l22 -11q12 -6 20.5 -8t14.5 -2q17 0 28.5 10.5t19.5 24.5l42 -28v0z
M612 431q0 -16 -2 -55t-12 -88t-30 -102t-55.5 -97t-89.5 -72.5t-131 -28.5q-55 0 -94.5 14.5t-66.5 38.5t-43.5 54.5t-25 62t-11 61t-2.5 51.5q0 16 2 55t12 88t30 102t55.5 97t89.5 72.5t131 28.5q55 0 94.5 -14.5t66.5 -38.5t43.5 -54.5t25 -62t11 -61t2.5 -51.5z
M515 422q0 64 -11.5 105.5t-31.5 66t-47.5 34t-59.5 9.5q-42 0 -79.5 -16t-68.5 -61q-19 -27 -32.5 -62t-22 -72.5t-12.5 -76t-4 -73.5q0 -63 11.5 -104t32 -65t48.5 -33.5t61 -9.5q43 0 79 16.5t66 60.5q19 28 32.5 61.5t22 70.5t12.5 75t4 74z" />
    <glyph glyph-name="Odieresis" unicode="&#xd6;" horiz-adv-x="632" 
d="M538 832q0 -25 -16 -40.5t-40 -15.5q-21 0 -33.5 12t-12.5 34q0 26 16 41t40 15q20 0 33 -12t13 -34zM357 832q0 -25 -16 -40.5t-40 -15.5q-20 0 -33 12t-13 34q0 26 16 41t40 15q20 0 33 -12t13 -34zM612 431q0 -16 -2 -55t-12 -88t-30 -102t-55.5 -97t-89.5 -72.5
t-131 -28.5q-55 0 -94.5 14.5t-66.5 38.5t-43.5 54.5t-25 62t-11 61t-2.5 51.5q0 16 2 55t12 88t30 102t55.5 97t89.5 72.5t131 28.5q55 0 94.5 -14.5t66.5 -38.5t43.5 -54.5t25 -62t11 -61t2.5 -51.5zM515 422q0 64 -11.5 105.5t-31.5 66t-47.5 34t-59.5 9.5
q-42 0 -79.5 -16t-68.5 -61q-19 -27 -32.5 -62t-22 -72.5t-12.5 -76t-4 -73.5q0 -63 11.5 -104t32 -65t48.5 -33.5t61 -9.5q43 0 79 16.5t66 60.5q19 28 32.5 61.5t22 70.5t12.5 75t4 74z" />
    <glyph glyph-name="multiply" unicode="&#xd7;" horiz-adv-x="546" 
d="M486 96l-199 204l-200 -203l-52 48l201 204l-199 202l52 52l198 -202l198 201l51 -50l-198 -201l201 -205z" />
    <glyph glyph-name="Oslash" unicode="&#xd8;" horiz-adv-x="632" 
d="M554 634q19 -24 30.5 -52.5t17.5 -56t8 -52.5t2 -43q0 -16 -2.5 -54.5t-12 -88t-30 -102.5t-56 -96.5t-89 -72t-130.5 -28.5q-51 0 -88.5 12.5t-63.5 32.5l-52 -76h-77l85 125q-15 23 -24.5 49t-14.5 51.5t-6.5 48t-1.5 39.5q0 16 2.5 55.5t12.5 88.5t30 102t55 96.5
t88.5 72t129.5 28.5q46 0 79 -10t59 -26l37 54h79zM457 607q-20 16 -43.5 23t-50.5 7q-42 0 -79.5 -17.5t-66.5 -59.5q-19 -27 -32.5 -62t-22 -72.5t-12.5 -76t-4 -73.5t3.5 -58.5t10.5 -43.5zM515 424q0 44 -5 73t-14 51l-306 -442q20 -23 48 -32.5t61 -9.5q43 0 79 16.5
t66 60.5q19 28 33 62.5t22 71.5t12 75t4 74z" />
    <glyph glyph-name="Ugrave" unicode="&#xd9;" horiz-adv-x="595" 
d="M461 748l-192 109l41 67l181 -129zM535 257q-6 -38 -12 -69t-14 -57t-20.5 -47.5t-31.5 -39.5q-35 -33 -79.5 -44.5t-95.5 -11.5q-82 0 -128 20t-68 48t-27 58t-5 49q0 22 2 44t7 50l70 446h93l-73 -460q-6 -36 -6 -64q0 -39 13 -62t32.5 -34.5t43 -15t43.5 -3.5
q47 0 76 11t46 32.5t26 53.5t16 74l74 468h89z" />
    <glyph glyph-name="Uacute" unicode="&#xda;" horiz-adv-x="595" 
d="M325 748l-30 48l182 129l40 -68zM535 257q-6 -38 -12 -69t-14 -57t-20.5 -47.5t-31.5 -39.5q-35 -33 -79.5 -44.5t-95.5 -11.5q-82 0 -128 20t-68 48t-27 58t-5 49q0 22 2 44t7 50l70 446h93l-73 -460q-6 -36 -6 -64q0 -39 13 -62t32.5 -34.5t43 -15t43.5 -3.5
q47 0 76 11t46 32.5t26 53.5t16 74l74 468h89z" />
    <glyph glyph-name="Ucircumflex" unicode="&#xdb;" horiz-adv-x="595" 
d="M501 748l-105 87l-138 -87l-29 46l179 133l132 -133zM535 257q-6 -38 -12 -69t-14 -57t-20.5 -47.5t-31.5 -39.5q-35 -33 -79.5 -44.5t-95.5 -11.5q-82 0 -128 20t-68 48t-27 58t-5 49q0 22 2 44t7 50l70 446h93l-73 -460q-6 -36 -6 -64q0 -39 13 -62t32.5 -34.5t43 -15
t43.5 -3.5q47 0 76 11t46 32.5t26 53.5t16 74l74 468h89z" />
    <glyph glyph-name="Udieresis" unicode="&#xdc;" horiz-adv-x="595" 
d="M531 832q0 -25 -16 -40.5t-40 -15.5q-21 0 -33.5 12t-12.5 34q0 26 16 41t40 15q20 0 33 -12t13 -34zM350 832q0 -25 -16 -40.5t-40 -15.5q-20 0 -33 12t-13 34q0 26 16 41t40 15q20 0 33 -12t13 -34zM535 257q-6 -38 -12 -69t-14 -57t-20.5 -47.5t-31.5 -39.5
q-35 -33 -79.5 -44.5t-95.5 -11.5q-82 0 -128 20t-68 48t-27 58t-5 49q0 22 2 44t7 50l70 446h93l-73 -460q-6 -36 -6 -64q0 -39 13 -62t32.5 -34.5t43 -15t43.5 -3.5q47 0 76 11t46 32.5t26 53.5t16 74l74 468h89z" />
    <glyph glyph-name="Yacute" unicode="&#xdd;" horiz-adv-x="527" 
d="M294 748l-30 48l182 129l40 -68zM303 272l-43 -272h-93l44 273l-155 430h99l115 -342l229 342h102z" />
    <glyph glyph-name="Thorn" unicode="&#xde;" horiz-adv-x="494" 
d="M495 435q0 -76 -25 -124.5t-64.5 -77t-87.5 -39.5t-93 -11h-73l-29 -183h-93l111 703h93l-14 -91h59q61 0 96.5 -7.5t61.5 -26.5q26 -20 42 -51.5t16 -91.5zM399 429q0 40 -9.5 62.5t-26 33.5t-39.5 13.5t-50 2.5h-66l-46 -286h66q33 0 64 8.5t55 28.5t38 53.5t14 83.5z
" />
    <glyph glyph-name="germandbls" unicode="&#xdf;" horiz-adv-x="558" 
d="M528 634q0 -27 -8 -49t-22 -40t-32 -33t-38 -28q-43 -28 -64.5 -48t-21.5 -51q0 -23 11 -36t29 -27l58 -47q35 -28 53.5 -56t18.5 -74q0 -24 -6.5 -50.5t-25.5 -49.5t-53.5 -38t-89.5 -15q-52 0 -86.5 12t-52.5 25l11 84q17 -19 49 -35t76 -16q37 0 63 16t26 59
q0 26 -11.5 41t-36.5 34l-51 39q-42 32 -56.5 60t-14.5 60q0 31 9.5 54t25 41t35.5 32.5t41 29.5q35 25 52.5 45.5t17.5 49.5q0 22 -9 37t-23.5 23t-32 11.5t-33.5 3.5q-34 0 -58.5 -11t-38.5 -31q-11 -14 -18 -35t-12 -54l-91 -567h-89l89 567q7 42 14 66.5t18 44.5
q26 48 75 70t115 22q36 0 69.5 -7t60 -22.5t42.5 -41.5t16 -65z" />
    <glyph glyph-name="agrave" unicode="&#xe0;" horiz-adv-x="502" 
d="M392 0h-88l17 110q-6 -12 -19 -32.5t-36 -41.5q-46 -43 -104 -43q-62 0 -93.5 42.5t-31.5 139.5q0 58 12.5 120t41 113t74.5 83.5t112 32.5q43 0 68 -11.5t36 -22.5l4 27h88zM371 425q-8 8 -26 18t-50 10q-34 0 -59 -13t-43 -34t-30 -48.5t-19.5 -58t-10.5 -60.5t-3 -55
q0 -35 5 -56.5t14 -34.5t21 -17.5t26 -4.5q20 0 39.5 11t45.5 43q54 66 63 127zM396 583l-192 109l41 67l181 -129z" />
    <glyph glyph-name="aacute" unicode="&#xe1;" horiz-adv-x="502" 
d="M259 583l-30 48l182 129l40 -68zM392 0h-88l17 110q-6 -12 -19 -32.5t-36 -41.5q-46 -43 -104 -43q-62 0 -93.5 42.5t-31.5 139.5q0 58 12.5 120t41 113t74.5 83.5t112 32.5q43 0 68 -11.5t36 -22.5l4 27h88zM371 425q-8 8 -26 18t-50 10q-34 0 -59 -13t-43 -34
t-30 -48.5t-19.5 -58t-10.5 -60.5t-3 -55q0 -35 5 -56.5t14 -34.5t21 -17.5t26 -4.5q20 0 39.5 11t45.5 43q54 66 63 127z" />
    <glyph glyph-name="acircumflex" unicode="&#xe2;" horiz-adv-x="502" 
d="M434 583l-105 87l-138 -87l-29 46l179 133l132 -133zM392 0h-88l17 110q-6 -12 -19 -32.5t-36 -41.5q-46 -43 -104 -43q-62 0 -93.5 42.5t-31.5 139.5q0 58 12.5 120t41 113t74.5 83.5t112 32.5q43 0 68 -11.5t36 -22.5l4 27h88zM371 425q-8 8 -26 18t-50 10
q-34 0 -59 -13t-43 -34t-30 -48.5t-19.5 -58t-10.5 -60.5t-3 -55q0 -35 5 -56.5t14 -34.5t21 -17.5t26 -4.5q20 0 39.5 11t45.5 43q54 66 63 127z" />
    <glyph glyph-name="atilde" unicode="&#xe3;" horiz-adv-x="502" 
d="M471 687q-14 -32 -39.5 -57t-63.5 -25q-12 0 -23 3t-25 10l-22 10q-15 7 -22.5 9t-13.5 2q-18 0 -30.5 -10.5t-20.5 -23.5l-39 28q7 13 16.5 27.5t22.5 26.5t29 19.5t36 7.5q11 0 22 -2.5t26 -10.5l22 -11q12 -6 20.5 -8t14.5 -2q17 0 28.5 10.5t19.5 24.5l42 -28v0z
M392 0h-88l17 110q-6 -12 -19 -32.5t-36 -41.5q-46 -43 -104 -43q-62 0 -93.5 42.5t-31.5 139.5q0 58 12.5 120t41 113t74.5 83.5t112 32.5q43 0 68 -11.5t36 -22.5l4 27h88zM371 425q-8 8 -26 18t-50 10q-34 0 -59 -13t-43 -34t-30 -48.5t-19.5 -58t-10.5 -60.5t-3 -55
q0 -35 5 -56.5t14 -34.5t21 -17.5t26 -4.5q20 0 39.5 11t45.5 43q54 66 63 127z" />
    <glyph glyph-name="adieresis" unicode="&#xe4;" horiz-adv-x="502" 
d="M468 667q0 -25 -16 -40.5t-40 -15.5q-21 0 -33.5 12t-12.5 34q0 26 16 41t40 15q20 0 33 -12t13 -34zM287 667q0 -25 -16 -40.5t-40 -15.5q-20 0 -33 12t-13 34q0 26 16 41t40 15q20 0 33 -12t13 -34zM392 0h-88l17 110q-6 -12 -19 -32.5t-36 -41.5q-46 -43 -104 -43
q-62 0 -93.5 42.5t-31.5 139.5q0 58 12.5 120t41 113t74.5 83.5t112 32.5q43 0 68 -11.5t36 -22.5l4 27h88zM371 425q-8 8 -26 18t-50 10q-34 0 -59 -13t-43 -34t-30 -48.5t-19.5 -58t-10.5 -60.5t-3 -55q0 -35 5 -56.5t14 -34.5t21 -17.5t26 -4.5q20 0 39.5 11t45.5 43
q54 66 63 127z" />
    <glyph glyph-name="aring" unicode="&#xe5;" horiz-adv-x="502" 
d="M427 670q0 -27 -9 -49t-25 -37t-37.5 -23.5t-45.5 -8.5q-43 0 -73.5 26t-30.5 77q0 53 34 84.5t85 31.5q43 0 72.5 -25t29.5 -76zM372 667q0 29 -15.5 42t-36.5 13q-26 0 -42.5 -17.5t-16.5 -47.5q0 -29 15.5 -42.5t35.5 -13.5q26 0 43 18.5t17 47.5zM392 0h-88l17 110
q-6 -12 -19 -32.5t-36 -41.5q-46 -43 -104 -43q-62 0 -93.5 42.5t-31.5 139.5q0 58 12.5 120t41 113t74.5 83.5t112 32.5q43 0 68 -11.5t36 -22.5l4 27h88zM371 425q-8 8 -26 18t-50 10q-34 0 -59 -13t-43 -34t-30 -48.5t-19.5 -58t-10.5 -60.5t-3 -55q0 -35 5 -56.5
t14 -34.5t21 -17.5t26 -4.5q20 0 39.5 11t45.5 43q54 66 63 127z" />
    <glyph glyph-name="ae" unicode="&#xe6;" horiz-adv-x="756" 
d="M741 398q0 -27 -8 -49t-21.5 -39.5t-31.5 -29.5t-37 -20q-22 -9 -48 -14.5t-53 -9t-53.5 -4.5t-47.5 -1h-9q-2 -10 -2 -33q0 -29 5.5 -54t19 -43t37.5 -28.5t60 -10.5q49 0 80.5 15.5t47.5 29.5l-16 -85q-14 -10 -46.5 -20t-83.5 -10q-60 0 -96 16t-54.5 37.5t-25 43
t-7.5 32.5q-3 -8 -10 -19t-16 -23t-19.5 -23.5t-20.5 -20.5q-47 -43 -115 -43q-72 0 -102 45.5t-30 136.5q0 59 12.5 121t41 113t74.5 84t112 33q42 0 66.5 -11.5t36.5 -22.5l4 27h81l-8 -47q17 19 51 36.5t87 17.5q66 0 105.5 -33t39.5 -94zM652 398q0 64 -70 64
q-38 0 -65 -17.5t-44 -46.5q-12 -20 -21.5 -48t-13.5 -57h8q100 0 153 24t53 81zM368 426q-8 8 -26 17.5t-49 9.5q-38 0 -64.5 -16t-44.5 -42q-17 -24 -27.5 -53.5t-16.5 -59.5t-8 -57.5t-2 -46.5q0 -36 6 -57.5t15.5 -32t20 -13.5t19.5 -3q28 0 49.5 15t41.5 40t37 54.5
t21 55.5z" />
    <glyph glyph-name="ccedilla" unicode="&#xe7;" horiz-adv-x="420" 
d="M407 409q-15 18 -42.5 31.5t-65.5 13.5q-24 0 -53.5 -9t-55.5 -39q-31 -36 -44.5 -88.5t-13.5 -105.5q0 -75 28 -112.5t91 -37.5q43 0 70.5 14t43.5 28l-16 -82q-15 -11 -44.5 -20t-64.5 -10q-5 -13 -5 -24q0 -13 5.5 -19.5t13.5 -13.5q9 -8 18 -20t9 -39q0 -38 -23 -62
q-15 -17 -36 -24.5t-47 -7.5q-22 0 -37 4t-21 7l8 58q8 -7 19.5 -11.5t25.5 -4.5q20 0 32 10t12 30q0 15 -6.5 22.5t-14.5 14.5t-14 15t-6 26q0 21 11 43q-51 8 -80.5 32t-44.5 54t-18.5 61t-3.5 55q0 63 14 121.5t44.5 104t78.5 73t116 27.5q51 0 83 -13t46 -26z" />
    <glyph glyph-name="egrave" unicode="&#xe8;" horiz-adv-x="458" 
d="M444 401q0 -31 -9.5 -54.5t-23.5 -40.5t-32 -28t-34 -18q-21 -9 -46 -14.5t-52 -8.5t-53.5 -4.5t-50.5 -1.5h-9q0 -4 -0.5 -7.5t-0.5 -17.5q0 -33 5.5 -59.5t19 -45t37 -29t59.5 -10.5q45 0 77 14t52 31l-16 -85q-17 -11 -49.5 -20.5t-80.5 -9.5q-68 0 -108 21t-60.5 52
t-26 67t-5.5 66q0 65 15.5 124t48 104t81.5 72t117 27q49 0 77.5 -13.5t43.5 -32.5t19.5 -40.5t4.5 -37.5zM354 399q0 63 -68 63q-40 0 -66.5 -18t-43.5 -46q-11 -19 -21 -47t-15 -58h9q100 0 152.5 24t52.5 82zM370 583l-192 109l41 67l181 -129z" />
    <glyph glyph-name="eacute" unicode="&#xe9;" horiz-adv-x="458" 
d="M231 583l-30 48l182 129l40 -68zM444 401q0 -31 -9.5 -54.5t-23.5 -40.5t-32 -28t-34 -18q-21 -9 -46 -14.5t-52 -8.5t-53.5 -4.5t-50.5 -1.5h-9q0 -4 -0.5 -7.5t-0.5 -17.5q0 -33 5.5 -59.5t19 -45t37 -29t59.5 -10.5q45 0 77 14t52 31l-16 -85q-17 -11 -49.5 -20.5
t-80.5 -9.5q-68 0 -108 21t-60.5 52t-26 67t-5.5 66q0 65 15.5 124t48 104t81.5 72t117 27q49 0 77.5 -13.5t43.5 -32.5t19.5 -40.5t4.5 -37.5zM354 399q0 63 -68 63q-40 0 -66.5 -18t-43.5 -46q-11 -19 -21 -47t-15 -58h9q100 0 152.5 24t52.5 82z" />
    <glyph glyph-name="ecircumflex" unicode="&#xea;" horiz-adv-x="458" 
d="M412 583l-105 87l-138 -87l-29 46l179 133l132 -133zM444 401q0 -31 -9.5 -54.5t-23.5 -40.5t-32 -28t-34 -18q-21 -9 -46 -14.5t-52 -8.5t-53.5 -4.5t-50.5 -1.5h-9q0 -4 -0.5 -7.5t-0.5 -17.5q0 -33 5.5 -59.5t19 -45t37 -29t59.5 -10.5q45 0 77 14t52 31l-16 -85
q-17 -11 -49.5 -20.5t-80.5 -9.5q-68 0 -108 21t-60.5 52t-26 67t-5.5 66q0 65 15.5 124t48 104t81.5 72t117 27q49 0 77.5 -13.5t43.5 -32.5t19.5 -40.5t4.5 -37.5zM354 399q0 63 -68 63q-40 0 -66.5 -18t-43.5 -46q-11 -19 -21 -47t-15 -58h9q100 0 152.5 24t52.5 82z" />
    <glyph glyph-name="edieresis" unicode="&#xeb;" horiz-adv-x="458" 
d="M440 667q0 -25 -16 -40.5t-40 -15.5q-21 0 -33.5 12t-12.5 34q0 26 16 41t40 15q20 0 33 -12t13 -34zM259 667q0 -25 -16 -40.5t-40 -15.5q-20 0 -33 12t-13 34q0 26 16 41t40 15q20 0 33 -12t13 -34zM444 401q0 -31 -9.5 -54.5t-23.5 -40.5t-32 -28t-34 -18
q-21 -9 -46 -14.5t-52 -8.5t-53.5 -4.5t-50.5 -1.5h-9q0 -4 -0.5 -7.5t-0.5 -17.5q0 -33 5.5 -59.5t19 -45t37 -29t59.5 -10.5q45 0 77 14t52 31l-16 -85q-17 -11 -49.5 -20.5t-80.5 -9.5q-68 0 -108 21t-60.5 52t-26 67t-5.5 66q0 65 15.5 124t48 104t81.5 72t117 27
q49 0 77.5 -13.5t43.5 -32.5t19.5 -40.5t4.5 -37.5zM354 399q0 63 -68 63q-40 0 -66.5 -18t-43.5 -46q-11 -19 -21 -47t-15 -58h9q100 0 152.5 24t52.5 82z" />
    <glyph glyph-name="igrave" unicode="&#xec;" horiz-adv-x="231" 
d="M120 0h-90l82 517h90zM242 583l-192 109l41 67l181 -129z" />
    <glyph glyph-name="iacute" unicode="&#xed;" horiz-adv-x="231" 
d="M120 0h-90l82 517h90zM98 583l-30 48l182 129l40 -68z" />
    <glyph glyph-name="icircumflex" unicode="&#xee;" horiz-adv-x="231" 
d="M289 583l-105 87l-138 -87l-29 46l179 133l132 -133zM120 0h-90l82 517h90z" />
    <glyph glyph-name="idieresis" unicode="&#xef;" horiz-adv-x="231" 
d="M120 0h-90l82 517h90zM320 667q0 -25 -16 -40.5t-40 -15.5q-21 0 -33.5 12t-12.5 34q0 26 16 41t40 15q20 0 33 -12t13 -34zM139 667q0 -25 -16 -40.5t-40 -15.5q-20 0 -33 12t-13 34q0 26 16 41t40 15q20 0 33 -12t13 -34z" />
    <glyph glyph-name="eth" unicode="&#xf0;" horiz-adv-x="487" 
d="M437 676q18 -35 25.5 -80t7.5 -96q0 -39 -4 -82t-10 -84t-13.5 -78t-15.5 -64q-13 -45 -30.5 -82.5t-43 -64t-60.5 -41t-82 -14.5q-82 0 -128 48t-46 155q0 29 4 65t14 73t27 71.5t43 61.5t61 43.5t82 16.5q42 0 69 -12t41 -26q0 6 0.5 11.5t0.5 25.5t-2 49.5t-13 55.5
l-67 -44l-30 47l63 42q-15 12 -35 19t-52 7q-37 0 -74 -10.5t-62 -32.5l12 81q23 14 59.5 23.5t81.5 9.5q51 0 85.5 -13t58.5 -36l74 49l30 -47zM371 411q-15 21 -40.5 32t-52.5 11q-47 0 -76 -29.5t-45 -71t-21 -86t-5 -74.5q0 -27 4 -51t13.5 -42t27 -28.5t44.5 -10.5
q31 0 54.5 16t41 53t30 96t21.5 146z" />
    <glyph glyph-name="ntilde" unicode="&#xf1;" horiz-adv-x="520" 
d="M479 687q-14 -32 -39.5 -57t-63.5 -25q-12 0 -23 3t-25 10l-22 10q-15 7 -22.5 9t-13.5 2q-18 0 -30.5 -10.5t-20.5 -23.5l-39 28q7 13 16.5 27.5t22.5 26.5t29 19.5t36 7.5q11 0 22 -2.5t26 -10.5l22 -11q12 -6 20.5 -8t14.5 -2q17 0 28.5 10.5t19.5 24.5l42 -28v0z
M471 416q0 -24 -3 -51.5t-5 -40.5l-51 -324h-90l47 299q1 6 2.5 16t3 22t2.5 25t1 24q0 8 -1.5 17.5t-6.5 18t-16 14t-29 5.5q-33 0 -57 -16.5t-43 -39.5q-24 -29 -41.5 -61.5t-21.5 -58.5l-42 -265h-90l82 517h88l-20 -118q14 26 31 48t34 37q29 26 58 33.5t53 7.5
q42 0 65 -13t34 -31t13.5 -36.5t2.5 -28.5z" />
    <glyph glyph-name="ograve" unicode="&#xf2;" horiz-adv-x="491" 
d="M454 316q0 -20 -2.5 -52t-11 -68t-24.5 -73t-42.5 -66.5t-65 -48t-92.5 -18.5q-60 0 -95.5 22.5t-54 54.5t-24 68.5t-5.5 63.5q0 21 3 53t11.5 68.5t24.5 73t42.5 66t64.5 48t92 18.5q60 0 95 -22.5t54 -55t24.5 -68.5t5.5 -64zM360 312q0 75 -21.5 109t-69.5 34
q-26 0 -46 -9.5t-37 -32.5q-26 -33 -40.5 -88.5t-14.5 -121.5q0 -75 21.5 -108.5t70.5 -33.5q23 0 43.5 9t38.5 33q26 34 40.5 88.5t14.5 120.5zM375 583l-192 109l41 67l181 -129z" />
    <glyph glyph-name="oacute" unicode="&#xf3;" horiz-adv-x="491" 
d="M223 583l-30 48l182 129l40 -68zM454 316q0 -20 -2.5 -52t-11 -68t-24.5 -73t-42.5 -66.5t-65 -48t-92.5 -18.5q-60 0 -95.5 22.5t-54 54.5t-24 68.5t-5.5 63.5q0 21 3 53t11.5 68.5t24.5 73t42.5 66t64.5 48t92 18.5q60 0 95 -22.5t54 -55t24.5 -68.5t5.5 -64zM360 312
q0 75 -21.5 109t-69.5 34q-26 0 -46 -9.5t-37 -32.5q-26 -33 -40.5 -88.5t-14.5 -121.5q0 -75 21.5 -108.5t70.5 -33.5q23 0 43.5 9t38.5 33q26 34 40.5 88.5t14.5 120.5z" />
    <glyph glyph-name="ocircumflex" unicode="&#xf4;" horiz-adv-x="491" 
d="M410 583l-105 87l-138 -87l-29 46l179 133l132 -133zM454 316q0 -20 -2.5 -52t-11 -68t-24.5 -73t-42.5 -66.5t-65 -48t-92.5 -18.5q-60 0 -95.5 22.5t-54 54.5t-24 68.5t-5.5 63.5q0 21 3 53t11.5 68.5t24.5 73t42.5 66t64.5 48t92 18.5q60 0 95 -22.5t54 -55
t24.5 -68.5t5.5 -64zM360 312q0 75 -21.5 109t-69.5 34q-26 0 -46 -9.5t-37 -32.5q-26 -33 -40.5 -88.5t-14.5 -121.5q0 -75 21.5 -108.5t70.5 -33.5q23 0 43.5 9t38.5 33q26 34 40.5 88.5t14.5 120.5z" />
    <glyph glyph-name="otilde" unicode="&#xf5;" horiz-adv-x="491" 
d="M452 687q-14 -32 -39.5 -57t-63.5 -25q-12 0 -23 3t-25 10l-22 10q-15 7 -22.5 9t-13.5 2q-18 0 -30.5 -10.5t-20.5 -23.5l-39 28q7 13 16.5 27.5t22.5 26.5t29 19.5t36 7.5q11 0 22 -2.5t26 -10.5l22 -11q12 -6 20.5 -8t14.5 -2q17 0 28.5 10.5t19.5 24.5l42 -28v0z
M454 316q0 -20 -2.5 -52t-11 -68t-24.5 -73t-42.5 -66.5t-65 -48t-92.5 -18.5q-60 0 -95.5 22.5t-54 54.5t-24 68.5t-5.5 63.5q0 21 3 53t11.5 68.5t24.5 73t42.5 66t64.5 48t92 18.5q60 0 95 -22.5t54 -55t24.5 -68.5t5.5 -64zM360 312q0 75 -21.5 109t-69.5 34
q-26 0 -46 -9.5t-37 -32.5q-26 -33 -40.5 -88.5t-14.5 -121.5q0 -75 21.5 -108.5t70.5 -33.5q23 0 43.5 9t38.5 33q26 34 40.5 88.5t14.5 120.5z" />
    <glyph glyph-name="odieresis" unicode="&#xf6;" horiz-adv-x="491" 
d="M442 667q0 -25 -16 -40.5t-40 -15.5q-21 0 -33.5 12t-12.5 34q0 26 16 41t40 15q20 0 33 -12t13 -34zM261 667q0 -25 -16 -40.5t-40 -15.5q-20 0 -33 12t-13 34q0 26 16 41t40 15q20 0 33 -12t13 -34zM454 316q0 -20 -2.5 -52t-11 -68t-24.5 -73t-42.5 -66.5t-65 -48
t-92.5 -18.5q-60 0 -95.5 22.5t-54 54.5t-24 68.5t-5.5 63.5q0 21 3 53t11.5 68.5t24.5 73t42.5 66t64.5 48t92 18.5q60 0 95 -22.5t54 -55t24.5 -68.5t5.5 -64zM360 312q0 75 -21.5 109t-69.5 34q-26 0 -46 -9.5t-37 -32.5q-26 -33 -40.5 -88.5t-14.5 -121.5
q0 -75 21.5 -108.5t70.5 -33.5q23 0 43.5 9t38.5 33q26 34 40.5 88.5t14.5 120.5z" />
    <glyph glyph-name="divide" unicode="&#xf7;" horiz-adv-x="640" 
d="M396 561q0 -29 -18.5 -47t-45.5 -18t-46 17.5t-19 47.5q0 29 17.5 46.5t46.5 17.5q28 0 46.5 -17.5t18.5 -46.5zM35 316v70h594v-70h-594zM396 146q0 -30 -18.5 -47.5t-45.5 -17.5t-46 17.5t-19 47.5q0 29 17.5 46.5t46.5 17.5q28 0 46.5 -17t18.5 -47z" />
    <glyph glyph-name="oslash" unicode="&#xf8;" horiz-adv-x="491" 
d="M489 553q-17 -26 -34 -50.5t-34 -50.5q20 -33 26 -71t6 -65q0 -20 -3 -52.5t-11.5 -68.5t-24.5 -72.5t-41.5 -66t-62 -48t-87.5 -18.5q-10 0 -15 0.5t-8 1.5q-47 1 -79 19l-20 -28t-20 -29h-66l63 93q-14 17 -22 37t-12.5 40.5t-6 39.5t-1.5 34q0 21 3 53t11.5 68.5
t24.5 73t42.5 66t64.5 48t91 18.5q35 0 61.5 -8.5t45.5 -22.5q11 15 20.5 29.5t19.5 29.5h69zM334 426q-23 29 -67 29q-26 0 -45.5 -10.5t-36.5 -32.5q-27 -36 -41 -90.5t-14 -114.5q0 -24 2 -41t6 -30q49 72 98 144.5t98 145.5zM359 311q0 26 -3 46q-48 -70 -95 -139.5
t-95 -140.5q22 -17 56 -17q26 0 45 10t37 33q27 36 41 90.5t14 117.5z" />
    <glyph glyph-name="ugrave" unicode="&#xf9;" horiz-adv-x="517" 
d="M407 0h-88l20 119q-14 -26 -31 -48t-34 -37q-29 -26 -58 -33.5t-54 -7.5q-41 0 -64 13t-34 30.5t-13.5 36t-2.5 29.5q0 25 3 51.5t5 40.5l51 323h90l-47 -298q-2 -14 -5.5 -38t-3.5 -47q0 -9 1.5 -19.5t6.5 -19t16 -14t29 -5.5q33 0 57 16.5t43 39.5q24 29 41.5 61.5
t21.5 58.5l42 265h90zM387 583l-192 109l41 67l181 -129z" />
    <glyph glyph-name="uacute" unicode="&#xfa;" horiz-adv-x="517" 
d="M251 583l-30 48l182 129l40 -68zM407 0h-88l20 119q-14 -26 -31 -48t-34 -37q-29 -26 -58 -33.5t-54 -7.5q-41 0 -64 13t-34 30.5t-13.5 36t-2.5 29.5q0 25 3 51.5t5 40.5l51 323h90l-47 -298q-2 -14 -5.5 -38t-3.5 -47q0 -9 1.5 -19.5t6.5 -19t16 -14t29 -5.5
q33 0 57 16.5t43 39.5q24 29 41.5 61.5t21.5 58.5l42 265h90z" />
    <glyph glyph-name="ucircumflex" unicode="&#xfb;" horiz-adv-x="517" 
d="M431 583l-105 87l-138 -87l-29 46l179 133l132 -133zM407 0h-88l20 119q-14 -26 -31 -48t-34 -37q-29 -26 -58 -33.5t-54 -7.5q-41 0 -64 13t-34 30.5t-13.5 36t-2.5 29.5q0 25 3 51.5t5 40.5l51 323h90l-47 -298q-2 -14 -5.5 -38t-3.5 -47q0 -9 1.5 -19.5t6.5 -19
t16 -14t29 -5.5q33 0 57 16.5t43 39.5q24 29 41.5 61.5t21.5 58.5l42 265h90z" />
    <glyph glyph-name="udieresis" unicode="&#xfc;" horiz-adv-x="517" 
d="M458 667q0 -25 -16 -40.5t-40 -15.5q-21 0 -33.5 12t-12.5 34q0 26 16 41t40 15q20 0 33 -12t13 -34zM277 667q0 -25 -16 -40.5t-40 -15.5q-20 0 -33 12t-13 34q0 26 16 41t40 15q20 0 33 -12t13 -34zM407 0h-88l20 119q-14 -26 -31 -48t-34 -37q-29 -26 -58 -33.5
t-54 -7.5q-41 0 -64 13t-34 30.5t-13.5 36t-2.5 29.5q0 25 3 51.5t5 40.5l51 323h90l-47 -298q-2 -14 -5.5 -38t-3.5 -47q0 -9 1.5 -19.5t6.5 -19t16 -14t29 -5.5q33 0 57 16.5t43 39.5q24 29 41.5 61.5t21.5 58.5l42 265h90z" />
    <glyph glyph-name="yacute" unicode="&#xfd;" horiz-adv-x="419" 
d="M209 583l-30 48l182 129l40 -68zM177 -75q-14 -30 -34 -64t-48 -57q-20 -17 -45.5 -25.5t-59.5 -8.5q-26 0 -43.5 4t-26.5 8l12 73q8 -6 21.5 -11t33.5 -5q38 0 61.5 22.5t45.5 67.5l30 61l-85 527h92l44 -309q5 -37 7 -61.5t3 -42.5q5 15 14.5 39t23.5 56l145 318h91z
" />
    <glyph glyph-name="thorn" unicode="&#xfe;" horiz-adv-x="509" 
d="M472 343q0 -56 -12 -117.5t-40.5 -113.5t-75 -85.5t-116.5 -33.5q-37 0 -63.5 9t-40.5 21l-40 -253h-89l153 983l90 15l-58 -369q8 17 22 39t36 43q27 26 53.5 35t52.5 9q63 0 95.5 -42.5t32.5 -139.5zM379 333q0 34 -5.5 56t-14.5 34.5t-20.5 17t-24.5 4.5
q-21 0 -43 -11.5t-47 -42.5q-22 -27 -39.5 -61t-22.5 -66l-28 -173q8 -9 28 -18t51 -9q42 0 69.5 17.5t46.5 46.5q15 23 24.5 50.5t15.5 55.5t8 53.5t2 45.5z" />
    <glyph glyph-name="ydieresis" unicode="&#xff;" horiz-adv-x="419" 
d="M411 667q0 -25 -16 -40.5t-40 -15.5q-21 0 -33.5 12t-12.5 34q0 26 16 41t40 15q20 0 33 -12t13 -34zM230 667q0 -25 -16 -40.5t-40 -15.5q-20 0 -33 12t-13 34q0 26 16 41t40 15q20 0 33 -12t13 -34zM177 -75q-14 -30 -34 -64t-48 -57q-20 -17 -45.5 -25.5t-59.5 -8.5
q-26 0 -43.5 4t-26.5 8l12 73q8 -6 21.5 -11t33.5 -5q38 0 61.5 22.5t45.5 67.5l30 61l-85 527h92l44 -309q5 -37 7 -61.5t3 -42.5q5 15 14.5 39t23.5 56l145 318h91z" />
    <glyph glyph-name="Amacron" unicode="&#x100;" horiz-adv-x="548" 
d="M498 789h-275l11 72h276zM417 0l-35 237h-224l-111 -237h-92l340 705h107l110 -705h-95zM340 521q-4 26 -6 53.5t-3 44.5q-5 -17 -14.5 -40t-25.5 -57l-100 -214h180z" />
    <glyph glyph-name="amacron" unicode="&#x101;" horiz-adv-x="502" 
d="M446 620h-275l11 72h276zM392 0h-88l17 110q-6 -12 -19 -32.5t-36 -41.5q-46 -43 -104 -43q-62 0 -93.5 42.5t-31.5 139.5q0 58 12.5 120t41 113t74.5 83.5t112 32.5q43 0 68 -11.5t36 -22.5l4 27h88zM371 425q-8 8 -26 18t-50 10q-34 0 -59 -13t-43 -34t-30 -48.5
t-19.5 -58t-10.5 -60.5t-3 -55q0 -35 5 -56.5t14 -34.5t21 -17.5t26 -4.5q20 0 39.5 11t45.5 43q54 66 63 127z" />
    <glyph glyph-name="Abreve" unicode="&#x102;" horiz-adv-x="548" 
d="M527 864q-9 -18 -25 -37.5t-37.5 -35t-50 -25.5t-62.5 -10q-35 0 -60.5 10t-44 25t-29.5 34t-17 37l59 36q11 -29 35 -51.5t62 -22.5q36 0 66.5 21t49.5 53l54 -34v0zM417 0l-35 237h-224l-111 -237h-92l340 705h107l110 -705h-95zM340 521q-4 26 -6 53.5t-3 44.5
q-5 -17 -14.5 -40t-25.5 -57l-100 -214h180z" />
    <glyph glyph-name="abreve" unicode="&#x103;" horiz-adv-x="502" 
d="M490 703q-9 -18 -25 -37.5t-37.5 -35t-50 -25.5t-62.5 -10q-35 0 -60.5 10t-44 25t-29.5 34t-17 37l59 36q11 -29 35 -51.5t62 -22.5q36 0 66.5 21t49.5 53l54 -34v0zM392 0h-88l17 110q-6 -12 -19 -32.5t-36 -41.5q-46 -43 -104 -43q-62 0 -93.5 42.5t-31.5 139.5
q0 58 12.5 120t41 113t74.5 83.5t112 32.5q43 0 68 -11.5t36 -22.5l4 27h88zM371 425q-8 8 -26 18t-50 10q-34 0 -59 -13t-43 -34t-30 -48.5t-19.5 -58t-10.5 -60.5t-3 -55q0 -35 5 -56.5t14 -34.5t21 -17.5t26 -4.5q20 0 39.5 11t45.5 43q54 66 63 127z" />
    <glyph glyph-name="Aogonek" unicode="&#x104;" horiz-adv-x="548" 
d="M512 0q-18 -3 -38 -14t-36.5 -27.5t-27 -36t-10.5 -38.5q0 -18 10 -29t33 -11q16 0 30 5t22 11l-13 -63q-14 -7 -33 -11t-39 -4q-45 0 -66 22.5t-21 57.5q0 47 29 82t65 56l-35 237h-224l-111 -237h-92l340 705h107zM340 521q-6 44 -7 71.5t-2 25.5t-10.5 -27t-29.5 -69
l-100 -214h180z" />
    <glyph glyph-name="aogonek" unicode="&#x105;" horiz-adv-x="502" 
d="M392 0q-49 -21 -79 -51t-30 -64q0 -16 8.5 -28.5t33.5 -12.5q14 0 28 4t25 12l-13 -63q-16 -8 -35.5 -11.5t-36.5 -3.5q-45 0 -66 22.5t-21 57.5q0 24 8.5 44.5t22 37.5t31 31t36.5 25l17 110q-6 -12 -19 -32.5t-36 -41.5q-46 -43 -104 -43q-62 0 -93.5 42.5t-31.5 139.5
q0 58 12.5 120t41 113t74.5 83.5t112 32.5q43 0 68 -11.5t36 -22.5l4 27h88zM371 425q-8 8 -26 18t-50 10q-34 0 -59 -13t-43 -34t-30 -48.5t-19.5 -58t-10.5 -60.5t-3 -55q0 -35 5 -56.5t14 -34.5t21 -17.5t26 -4.5q20 0 39.5 11t45.5 43q54 66 63 127z" />
    <glyph glyph-name="Cacute" unicode="&#x106;" horiz-adv-x="535" 
d="M354 748l-30 48l182 129l40 -68zM556 575q-20 25 -61 43t-98 18q-55 0 -95 -18.5t-68 -48t-45.5 -67.5t-27 -77t-12.5 -76t-3 -64q0 -47 8.5 -87.5t29 -70t54.5 -46t86 -16.5q61 0 102 20t66 46l-20 -97q-22 -17 -63.5 -31t-104.5 -14q-73 0 -122 22.5t-78.5 61.5
t-42 92.5t-12.5 116.5q0 96 23.5 171t60.5 129q29 42 62.5 67.5t67 39.5t67 18.5t62.5 4.5q72 0 114 -16.5t64 -34.5z" />
    <glyph glyph-name="cacute" unicode="&#x107;" horiz-adv-x="420" 
d="M401 719l-115 -162l-47 31l99 174zM407 409q-15 18 -42.5 31.5t-65.5 13.5q-24 0 -53.5 -9t-55.5 -39q-31 -36 -44.5 -88.5t-13.5 -105.5q0 -75 28 -112.5t91 -37.5q43 0 70.5 14t43.5 28l-16 -82q-16 -11 -44 -20.5t-74 -9.5q-45 0 -77 10.5t-53.5 28t-34 39.5t-19 45.5
t-8.5 45.5t-2 40q0 62 14 120t44.5 103t78.5 72.5t116 27.5q51 0 83 -13t46 -26z" />
    <glyph glyph-name="Ccircumflex" unicode="&#x108;" horiz-adv-x="535" 
d="M531 748l-105 87l-138 -87l-29 46l179 133l132 -133zM556 575q-20 25 -61 43t-98 18q-55 0 -95 -18.5t-68 -48t-45.5 -67.5t-27 -77t-12.5 -76t-3 -64q0 -47 8.5 -87.5t29 -70t54.5 -46t86 -16.5q61 0 102 20t66 46l-20 -97q-22 -17 -63.5 -31t-104.5 -14
q-73 0 -122 22.5t-78.5 61.5t-42 92.5t-12.5 116.5q0 96 23.5 171t60.5 129q29 42 62.5 67.5t67 39.5t67 18.5t62.5 4.5q72 0 114 -16.5t64 -34.5z" />
    <glyph glyph-name="ccircumflex" unicode="&#x109;" horiz-adv-x="420" 
d="M424 583l-105 87l-138 -87l-29 46l179 133l132 -133zM407 409q-15 18 -42.5 31.5t-65.5 13.5q-24 0 -53.5 -9t-55.5 -39q-31 -36 -44.5 -88.5t-13.5 -105.5q0 -75 28 -112.5t91 -37.5q43 0 70.5 14t43.5 28l-16 -82q-16 -11 -44 -20.5t-74 -9.5q-45 0 -77 10.5t-53.5 28
t-34 39.5t-19 45.5t-8.5 45.5t-2 40q0 62 14 120t44.5 103t78.5 72.5t116 27.5q51 0 83 -13t46 -26z" />
    <glyph glyph-name="Cdotaccent" unicode="&#x10a;" horiz-adv-x="535" 
d="M470 834q0 -28 -17.5 -46t-45.5 -18q-25 0 -39.5 14.5t-14.5 40.5q0 29 18 47t45 18q25 0 39.5 -15.5t14.5 -40.5zM556 575q-20 25 -61 43t-98 18q-55 0 -95 -18.5t-68 -48t-45.5 -67.5t-27 -77t-12.5 -76t-3 -64q0 -47 8.5 -87.5t29 -70t54.5 -46t86 -16.5q61 0 102 20
t66 46l-20 -97q-22 -17 -63.5 -31t-104.5 -14q-73 0 -122 22.5t-78.5 61.5t-42 92.5t-12.5 116.5q0 96 23.5 171t60.5 129q29 42 62.5 67.5t67 39.5t67 18.5t62.5 4.5q72 0 114 -16.5t64 -34.5z" />
    <glyph glyph-name="cdotaccent" unicode="&#x10b;" horiz-adv-x="420" 
d="M363 662q0 -28 -17.5 -46t-45.5 -18q-25 0 -39.5 14.5t-14.5 40.5q0 29 18 47t45 18q25 0 39.5 -15.5t14.5 -40.5zM407 409q-15 18 -42.5 31.5t-65.5 13.5q-24 0 -53.5 -9t-55.5 -39q-31 -36 -44.5 -88.5t-13.5 -105.5q0 -75 28 -112.5t91 -37.5q43 0 70.5 14t43.5 28
l-16 -82q-16 -11 -44 -20.5t-74 -9.5q-45 0 -77 10.5t-53.5 28t-34 39.5t-19 45.5t-8.5 45.5t-2 40q0 62 14 120t44.5 103t78.5 72.5t116 27.5q51 0 83 -13t46 -26z" />
    <glyph glyph-name="Ccaron" unicode="&#x10c;" horiz-adv-x="535" 
d="M383 746l-132 126l50 52l98 -88l127 90l33 -52zM556 575q-20 25 -61 43t-98 18q-55 0 -95 -18.5t-68 -48t-45.5 -67.5t-27 -77t-12.5 -76t-3 -64q0 -47 8.5 -87.5t29 -70t54.5 -46t86 -16.5q61 0 102 20t66 46l-20 -97q-22 -17 -63.5 -31t-104.5 -14q-73 0 -122 22.5
t-78.5 61.5t-42 92.5t-12.5 116.5q0 96 23.5 171t60.5 129q29 42 62.5 67.5t67 39.5t67 18.5t62.5 4.5q72 0 114 -16.5t64 -34.5z" />
    <glyph glyph-name="ccaron" unicode="&#x10d;" horiz-adv-x="420" 
d="M293 581l-132 126l50 52l98 -88l127 90l33 -52zM407 409q-15 18 -42.5 31.5t-65.5 13.5q-24 0 -53.5 -9t-55.5 -39q-31 -36 -44.5 -88.5t-13.5 -105.5q0 -75 28 -112.5t91 -37.5q43 0 70.5 14t43.5 28l-16 -82q-16 -11 -44 -20.5t-74 -9.5q-45 0 -77 10.5t-53.5 28
t-34 39.5t-19 45.5t-8.5 45.5t-2 40q0 62 14 120t44.5 103t78.5 72.5t116 27.5q51 0 83 -13t46 -26z" />
    <glyph glyph-name="Dcaron" unicode="&#x10e;" horiz-adv-x="619" 
d="M312 746l-132 126l50 52l98 -88l127 90l33 -52zM599 421q0 -101 -30 -187.5t-92 -145.5q-29 -27 -61.5 -44.5t-70 -27t-81 -13t-95.5 -3.5h-139l112 703h138q51 0 89 -3t67.5 -11t51.5 -21.5t41 -33.5q35 -37 52.5 -87t17.5 -126zM503 421q0 72 -16 114.5t-51 65.5
q-21 14 -52.5 20.5t-83.5 6.5h-77l-87 -553h99q58 0 100.5 17t72 45t48.5 64.5t29.5 75t14 76t3.5 68.5z" />
    <glyph glyph-name="dcaron" unicode="&#x10f;" 
d="M677 792q-8 -51 -20 -87q-9 -30 -18.5 -51.5t-13.5 -28.5l-5 -7h-53q27 93 27 168v6h83zM397 0h-88l20 117q-10 -20 -24 -41t-34 -40q-27 -26 -53.5 -34.5t-51.5 -8.5q-64 0 -96.5 42t-32.5 139q0 55 12 117t40.5 113.5t75 85.5t116.5 34q39 0 64.5 -10t39.5 -22l42 263
l92 15zM374 425q-8 8 -26.5 18t-51.5 10q-35 0 -60 -13t-43 -34t-30 -48.5t-19.5 -58t-10.5 -60.5t-3 -55q0 -35 5 -56.5t14 -34.5t21 -17.5t26 -4.5q23 0 43 12t45 42t41.5 63.5t21.5 63.5z" />
    <glyph glyph-name="Dcroat" unicode="&#x110;" horiz-adv-x="619" 
d="M599 421q0 -101 -30 -187.5t-92 -145.5q-29 -27 -61.5 -44.5t-70 -27t-81 -13t-95.5 -3.5h-139l51 326h-63l10 68h64l50 309h138q51 0 89 -3t67.5 -11t51.5 -21.5t41 -33.5q35 -37 52.5 -87t17.5 -126zM503 421q0 72 -16 114.5t-51 65.5q-21 14 -52.5 20.5t-83.5 6.5h-77
l-37 -234h177l-15 -68h-173l-39 -251h99q58 0 100.5 17t72 45t48.5 64.5t29.5 75t14 76t3.5 68.5z" />
    <glyph glyph-name="dcroat" unicode="&#x111;" 
d="M558 570h-71l-90 -570h-88l20 116q-1 -2 -5.5 -10t-12 -19.5t-17.5 -25t-23 -25.5q-27 -26 -53.5 -34.5t-51.5 -8.5q-64 0 -96.5 42t-32.5 139q0 55 12 117t40.5 113.5t75 85.5t116.5 34q39 0 64.5 -10t39.5 -22l12 78h-107l12 70h106l19 115l92 15l-21 -130h71zM374 425
q-8 8 -26.5 18t-51.5 10q-35 0 -60 -13t-43 -34t-30 -48.5t-19.5 -58t-10.5 -60.5t-3 -55q0 -35 5 -56.5t14 -34.5t21 -17.5t26 -4.5q23 0 43 12t45 42t41.5 63.5t21.5 63.5z" />
    <glyph glyph-name="Emacron" unicode="&#x112;" horiz-adv-x="448" 
d="M456 789h-275l11 72h276zM460 626h-237l-36 -227h197l-12 -77h-197l-40 -246h255l-16 -76h-344l112 703h331z" />
    <glyph glyph-name="emacron" unicode="&#x113;" horiz-adv-x="458" 
d="M449 620h-275l11 72h276zM444 401q0 -31 -9.5 -54.5t-23.5 -40.5t-32 -28t-34 -18q-21 -9 -46 -14.5t-52 -8.5t-53.5 -4.5t-50.5 -1.5h-9q0 -4 -0.5 -7.5t-0.5 -17.5q0 -33 5.5 -59.5t19 -45t37 -29t59.5 -10.5q45 0 77 14t52 31l-16 -85q-17 -11 -49.5 -20.5t-80.5 -9.5
q-68 0 -108 21t-60.5 52t-26 67t-5.5 66q0 65 15.5 124t48 104t81.5 72t117 27q49 0 77.5 -13.5t43.5 -32.5t19.5 -40.5t4.5 -37.5zM354 399q0 63 -68 63q-40 0 -66.5 -18t-43.5 -46q-11 -19 -21 -47t-15 -58h9q100 0 152.5 24t52.5 82z" />
    <glyph glyph-name="Edotaccent" unicode="&#x116;" horiz-adv-x="448" 
d="M381 834q0 -28 -17.5 -46t-45.5 -18q-25 0 -39.5 14.5t-14.5 40.5q0 29 18 47t45 18q25 0 39.5 -15.5t14.5 -40.5zM460 626h-237l-36 -227h197l-12 -77h-197l-40 -246h255l-16 -76h-344l112 703h331z" />
    <glyph glyph-name="edotaccent" unicode="&#x117;" horiz-adv-x="458" 
d="M378 662q0 -28 -17.5 -46t-45.5 -18q-25 0 -39.5 14.5t-14.5 40.5q0 29 18 47t45 18q25 0 39.5 -15.5t14.5 -40.5zM444 401q0 -31 -9.5 -54.5t-23.5 -40.5t-32 -28t-34 -18q-21 -9 -46 -14.5t-52 -8.5t-53.5 -4.5t-50.5 -1.5h-9q0 -4 -0.5 -7.5t-0.5 -17.5
q0 -33 5.5 -59.5t19 -45t37 -29t59.5 -10.5q45 0 77 14t52 31l-16 -85q-17 -11 -49.5 -20.5t-80.5 -9.5q-68 0 -108 21t-60.5 52t-26 67t-5.5 66q0 65 15.5 124t48 104t81.5 72t117 27q49 0 77.5 -13.5t43.5 -32.5t19.5 -40.5t4.5 -37.5zM354 399q0 63 -68 63
q-40 0 -66.5 -18t-43.5 -46q-11 -19 -21 -47t-15 -58h9q100 0 152.5 24t52.5 82z" />
    <glyph glyph-name="Eogonek" unicode="&#x118;" horiz-adv-x="448" 
d="M460 626h-237l-36 -227h197l-12 -77h-197l-40 -246h255l-16 -76q-17 -5 -35.5 -17t-33.5 -27.5t-25 -34t-10 -37.5q0 -18 10 -29t33 -11q16 0 30 5t22 11l-13 -63q-14 -7 -33 -11t-39 -4q-45 0 -66 22.5t-21 57.5q0 47 29 82t65 56h-257l112 703h331z" />
    <glyph glyph-name="eogonek" unicode="&#x119;" horiz-adv-x="458" 
d="M444 401q0 -31 -9.5 -54.5t-23.5 -40.5t-32 -28t-34 -18q-21 -9 -46 -14.5t-52 -8.5t-53.5 -4.5t-50.5 -1.5h-9q0 -4 -0.5 -7.5t-0.5 -17.5q0 -33 5.5 -59.5t19 -45t37 -29t59.5 -10.5q45 0 77 14t52 31l-16 -85q-8 -5 -23 -12q-43 -26 -74.5 -58t-31.5 -68q0 -18 10 -29
t33 -11q17 0 30.5 5.5t21.5 10.5l-13 -63q-14 -7 -33 -11t-39 -4q-45 0 -66 22.5t-21 57.5q0 42 24.5 75.5t56.5 54.5h-5q-68 0 -108 20.5t-60.5 51.5t-26 67t-5.5 67q0 65 15.5 124.5t48 104.5t81.5 71.5t116 26.5q49 0 78 -13.5t44 -32.5t19.5 -40.5t4.5 -37.5zM354 399
q0 63 -68 63q-40 0 -66.5 -18t-43.5 -46q-11 -19 -21 -47t-15 -58h9q100 0 152.5 24t52.5 82z" />
    <glyph glyph-name="Ecaron" unicode="&#x11a;" horiz-adv-x="448" 
d="M308 746l-132 126l50 52l98 -88l127 90l33 -52zM460 626h-237l-36 -227h197l-12 -77h-197l-40 -246h255l-16 -76h-344l112 703h331z" />
    <glyph glyph-name="ecaron" unicode="&#x11b;" horiz-adv-x="458" 
d="M298 581l-132 126l50 52l98 -88l127 90l33 -52zM444 401q0 -31 -9.5 -54.5t-23.5 -40.5t-32 -28t-34 -18q-21 -9 -46 -14.5t-52 -8.5t-53.5 -4.5t-50.5 -1.5h-9q0 -4 -0.5 -7.5t-0.5 -17.5q0 -33 5.5 -59.5t19 -45t37 -29t59.5 -10.5q45 0 77 14t52 31l-16 -85
q-17 -11 -49.5 -20.5t-80.5 -9.5q-68 0 -108 21t-60.5 52t-26 67t-5.5 66q0 65 15.5 124t48 104t81.5 72t117 27q49 0 77.5 -13.5t43.5 -32.5t19.5 -40.5t4.5 -37.5zM354 399q0 63 -68 63q-40 0 -66.5 -18t-43.5 -46q-11 -19 -21 -47t-15 -58h9q100 0 152.5 24t52.5 82z" />
    <glyph glyph-name="Gcircumflex" unicode="&#x11c;" horiz-adv-x="599" 
d="M554 748l-105 87l-138 -87l-29 46l179 133l132 -133zM590 575q-20 23 -64 42t-109 19q-61 0 -104.5 -18.5t-73.5 -48.5t-48.5 -68t-28.5 -77t-13 -75t-3 -62q0 -46 8.5 -87t29.5 -71.5t56.5 -48t90.5 -17.5q27 0 50 4t37 11l37 234h93l-44 -277q-22 -15 -66 -30.5
t-116 -15.5q-78 0 -130.5 22.5t-84 62t-45 93t-13.5 116.5q0 94 24.5 170t63.5 130q30 41 65 66t71 39t72 19t69 5q76 0 121 -16.5t68 -34.5z" />
    <glyph glyph-name="gcircumflex" unicode="&#x11d;" horiz-adv-x="510" 
d="M447 583l-105 87l-138 -87l-29 46l179 133l132 -133zM397 -5q-8 -53 -19 -90.5t-36 -67.5q-27 -33 -68.5 -50t-104.5 -17q-57 0 -100 12t-66 29l13 84q18 -20 53 -36.5t88 -16.5q41 0 67.5 10.5t43.5 30.5q18 21 25.5 47.5t15.5 69.5l9 52q5 29 7.5 42.5t4.5 24.5
q-10 -20 -24.5 -41.5t-34.5 -40.5q-27 -26 -53.5 -34.5t-51.5 -8.5q-64 0 -96.5 42t-32.5 139q0 37 5 77t17 79t30.5 74t45.5 61.5t63 42t83 15.5q43 0 69 -11.5t38 -22.5l4 27h88zM375 428q-9 9 -29 17t-49 8q-35 0 -60.5 -13t-43.5 -34t-30 -48.5t-19.5 -57.5t-10.5 -60
t-3 -55q0 -35 5 -56.5t14 -34.5t21 -17.5t26 -4.5q23 0 43 12.5t45 42.5t41.5 62.5t21.5 62.5z" />
    <glyph glyph-name="Gbreve" unicode="&#x11e;" horiz-adv-x="599" 
d="M598 864q-9 -18 -25 -37.5t-37.5 -35t-50 -25.5t-62.5 -10q-35 0 -60.5 10t-44 25t-29.5 34t-17 37l59 36q11 -29 35 -51.5t62 -22.5q36 0 66.5 21t49.5 53l54 -34v0zM590 575q-20 23 -64 42t-109 19q-61 0 -104.5 -18.5t-73.5 -48.5t-48.5 -68t-28.5 -77t-13 -75t-3 -62
q0 -46 8.5 -87t29.5 -71.5t56.5 -48t90.5 -17.5q27 0 50 4t37 11l37 234h93l-44 -277q-22 -15 -66 -30.5t-116 -15.5q-78 0 -130.5 22.5t-84 62t-45 93t-13.5 116.5q0 94 24.5 170t63.5 130q30 41 65 66t71 39t72 19t69 5q76 0 121 -16.5t68 -34.5z" />
    <glyph glyph-name="gbreve" unicode="&#x11f;" horiz-adv-x="510" 
d="M511 703q-9 -18 -25 -37.5t-37.5 -35t-50 -25.5t-62.5 -10q-35 0 -60.5 10t-44 25t-29.5 34t-17 37l59 36q11 -29 35 -51.5t62 -22.5q36 0 66.5 21t49.5 53l54 -34v0zM397 -5q-8 -53 -19 -90.5t-36 -67.5q-27 -33 -68.5 -50t-104.5 -17q-57 0 -100 12t-66 29l13 84
q18 -20 53 -36.5t88 -16.5q41 0 67.5 10.5t43.5 30.5q18 21 25.5 47.5t15.5 69.5l9 52q5 29 7.5 42.5t4.5 24.5q-10 -20 -24.5 -41.5t-34.5 -40.5q-27 -26 -53.5 -34.5t-51.5 -8.5q-64 0 -96.5 42t-32.5 139q0 37 5 77t17 79t30.5 74t45.5 61.5t63 42t83 15.5q43 0 69 -11.5
t38 -22.5l4 27h88zM375 428q-9 9 -29 17t-49 8q-35 0 -60.5 -13t-43.5 -34t-30 -48.5t-19.5 -57.5t-10.5 -60t-3 -55q0 -35 5 -56.5t14 -34.5t21 -17.5t26 -4.5q23 0 43 12.5t45 42.5t41.5 62.5t21.5 62.5z" />
    <glyph glyph-name="Gdotaccent" unicode="&#x120;" horiz-adv-x="599" 
d="M492 834q0 -28 -17.5 -46t-45.5 -18q-25 0 -39.5 14.5t-14.5 40.5q0 29 18 47t45 18q25 0 39.5 -15.5t14.5 -40.5zM590 575q-20 23 -64 42t-109 19q-61 0 -104.5 -18.5t-73.5 -48.5t-48.5 -68t-28.5 -77t-13 -75t-3 -62q0 -46 8.5 -87t29.5 -71.5t56.5 -48t90.5 -17.5
q27 0 50 4t37 11l37 234h93l-44 -277q-22 -15 -66 -30.5t-116 -15.5q-78 0 -130.5 22.5t-84 62t-45 93t-13.5 116.5q0 94 24.5 170t63.5 130q30 41 65 66t71 39t72 19t69 5q76 0 121 -16.5t68 -34.5z" />
    <glyph glyph-name="gdotaccent" unicode="&#x121;" horiz-adv-x="510" 
d="M379 662q0 -28 -17.5 -46t-45.5 -18q-25 0 -39.5 14.5t-14.5 40.5q0 29 18 47t45 18q25 0 39.5 -15.5t14.5 -40.5zM397 -5q-8 -53 -19 -90.5t-36 -67.5q-27 -33 -68.5 -50t-104.5 -17q-57 0 -100 12t-66 29l13 84q18 -20 53 -36.5t88 -16.5q41 0 67.5 10.5t43.5 30.5
q18 21 25.5 47.5t15.5 69.5l9 52q5 29 7.5 42.5t4.5 24.5q-10 -20 -24.5 -41.5t-34.5 -40.5q-27 -26 -53.5 -34.5t-51.5 -8.5q-64 0 -96.5 42t-32.5 139q0 37 5 77t17 79t30.5 74t45.5 61.5t63 42t83 15.5q43 0 69 -11.5t38 -22.5l4 27h88zM375 428q-9 9 -29 17t-49 8
q-35 0 -60.5 -13t-43.5 -34t-30 -48.5t-19.5 -57.5t-10.5 -60t-3 -55q0 -35 5 -56.5t14 -34.5t21 -17.5t26 -4.5q23 0 43 12.5t45 42.5t41.5 62.5t21.5 62.5z" />
    <glyph glyph-name="uni0122" unicode="&#x122;" horiz-adv-x="599" 
d="M344 -55q-8 -51 -20 -87q-9 -30 -18.5 -51.5t-13.5 -28.5l-5 -7h-53q27 93 27 168v6h83zM590 575q-20 23 -64 42t-109 19q-61 0 -104.5 -18.5t-73.5 -48.5t-48.5 -68t-28.5 -77t-13 -75t-3 -62q0 -46 8.5 -87t29.5 -71.5t56.5 -48t90.5 -17.5q27 0 50 4t37 11l37 234h93
l-44 -277q-22 -15 -66 -30.5t-116 -15.5q-78 0 -130.5 22.5t-84 62t-45 93t-13.5 116.5q0 94 24.5 170t63.5 130q30 41 65 66t71 39t72 19t69 5q76 0 121 -16.5t68 -34.5z" />
    <glyph glyph-name="uni0123" unicode="&#x123;" horiz-adv-x="510" 
d="M372 757q-27 -93 -27 -168v-6h-83q8 51 20 87q9 30 18.5 51.5t13.5 28.5l5 7h53zM397 -5q-8 -53 -19 -90.5t-36 -67.5q-27 -33 -68.5 -50t-104.5 -17q-57 0 -100 12t-66 29l13 84q18 -20 53 -36.5t88 -16.5q41 0 67.5 10.5t43.5 30.5q18 21 25.5 47.5t15.5 69.5l9 52
q5 29 7.5 42.5t4.5 24.5q-10 -20 -24.5 -41.5t-34.5 -40.5q-27 -26 -53.5 -34.5t-51.5 -8.5q-64 0 -96.5 42t-32.5 139q0 37 5 77t17 79t30.5 74t45.5 61.5t63 42t83 15.5q43 0 69 -11.5t38 -22.5l4 27h88zM375 428q-9 9 -29 17t-49 8q-35 0 -60.5 -13t-43.5 -34t-30 -48.5
t-19.5 -57.5t-10.5 -60t-3 -55q0 -35 5 -56.5t14 -34.5t21 -17.5t26 -4.5q23 0 43 12.5t45 42.5t41.5 62.5t21.5 62.5z" />
    <glyph glyph-name="Hcircumflex" unicode="&#x124;" horiz-adv-x="610" 
d="M504 748l-105 87l-138 -87l-29 46l179 133l132 -133zM500 0h-93l50 321h-282l-52 -321h-93l112 703h93l-48 -304h283l48 304h94z" />
    <glyph glyph-name="hcircumflex" unicode="&#x125;" horiz-adv-x="520" 
d="M336 748l-105 87l-138 -87l-29 46l179 133l132 -133zM471 416q0 -24 -3 -51.5t-5 -40.5l-51 -324h-90l47 299q1 6 2.5 16t3 22t2.5 25t1 24q0 8 -1.5 17.5t-6.5 18t-16 14t-29 5.5q-33 0 -57 -16.5t-43 -39.5q-24 -29 -41.5 -61.5t-21.5 -58.5l-42 -265h-90l120 755
l92 15l-41 -264q-2 -9 -4 -23t-5 -29l-6 -30t-6 -25q14 26 31 48t34 37q29 26 58 33.5t53 7.5q42 0 65 -13t34 -31t13.5 -36.5t2.5 -28.5z" />
    <glyph glyph-name="Hbar" unicode="&#x126;" horiz-adv-x="610" 
d="M500 0h-93l50 321h-282l-52 -321h-93l112 703h93l-18 -112h283l18 112h94zM470 399l18 114h-283l-18 -114h283z" />
    <glyph glyph-name="hbar" unicode="&#x127;" horiz-adv-x="520" 
d="M471 416q0 -24 -3 -51.5t-5 -40.5l-51 -324h-90l47 299q1 6 2.5 16t3 22t2.5 25t1 24q0 8 -1.5 17.5t-6.5 18t-16 14t-29 5.5q-33 0 -57 -16.5t-43 -39.5q-24 -29 -41.5 -61.5t-21.5 -58.5l-42 -265h-90l90 570h-74l12 70h73l19 115l92 15l-20 -130h103l-11 -70h-103
l-10 -64q-1 -5 -3 -17t-5 -27.5t-6.5 -32t-6.5 -29.5q5 10 21.5 35t43.5 49q29 26 57 33.5t53 7.5q42 0 65.5 -13t34.5 -30.5t13.5 -36t2.5 -29.5z" />
    <glyph glyph-name="Itilde" unicode="&#x128;" horiz-adv-x="233" 
d="M360 852q-14 -32 -39.5 -57t-63.5 -25q-12 0 -23 3t-25 10l-22 10q-15 7 -22.5 9t-13.5 2q-18 0 -30.5 -10.5t-20.5 -23.5l-39 28q7 13 16.5 27.5t22.5 26.5t29 19.5t36 7.5q11 0 22 -2.5t26 -10.5l22 -11q12 -6 20.5 -8t14.5 -2q17 0 28.5 10.5t19.5 24.5l42 -28v0z
M123 0h-93l112 703h93z" />
    <glyph glyph-name="itilde" unicode="&#x129;" horiz-adv-x="231" 
d="M334 687q-14 -32 -39.5 -57t-63.5 -25q-12 0 -23 3t-25 10l-22 10q-15 7 -22.5 9t-13.5 2q-18 0 -30.5 -10.5t-20.5 -23.5l-39 28q7 13 16.5 27.5t22.5 26.5t29 19.5t36 7.5q11 0 22 -2.5t26 -10.5l22 -11q12 -6 20.5 -8t14.5 -2q17 0 28.5 10.5t19.5 24.5l42 -28v0z
M120 0h-90l82 517h90z" />
    <glyph glyph-name="Imacron" unicode="&#x12a;" horiz-adv-x="233" 
d="M343 789h-275l11 72h276zM123 0h-93l112 703h93z" />
    <glyph glyph-name="imacron" unicode="&#x12b;" horiz-adv-x="231" 
d="M120 0h-90l82 517h90zM314 620h-275l11 72h276z" />
    <glyph glyph-name="Iogonek" unicode="&#x12e;" horiz-adv-x="233" 
d="M123 0q-19 -5 -38.5 -16.5t-35.5 -27t-26 -34.5t-10 -38q0 -18 10 -29t33 -11q16 0 30 5t22 11l-13 -63q-14 -7 -33 -11t-39 -4q-45 0 -66 22.5t-21 57.5q0 47 29 82t65 56l112 703h93z" />
    <glyph glyph-name="iogonek" unicode="&#x12f;" horiz-adv-x="231" 
d="M120 0q-18 -5 -36.5 -16.5t-34.5 -27t-26 -34.5t-10 -38q0 -18 10 -29t33 -11q16 0 30 5t22 11l-13 -63q-14 -7 -33 -11t-39 -4q-45 0 -66 22.5t-21 57.5q0 47 29 82t65 56l82 517h90zM240 690q0 -20 -12.5 -38t-44.5 -18q-26 0 -40 13.5t-14 36.5q0 20 12.5 38.5
t44.5 18.5q26 0 40 -13.5t14 -37.5z" />
    <glyph glyph-name="Idotaccent" unicode="&#x130;" horiz-adv-x="233" 
d="M268 834q0 -28 -17.5 -46t-45.5 -18q-25 0 -39.5 14.5t-14.5 40.5q0 29 18 47t45 18q25 0 39.5 -15.5t14.5 -40.5zM123 0h-93l112 703h93z" />
    <glyph glyph-name="dotlessi" unicode="&#x131;" horiz-adv-x="231" 
d="M120 0h-90l82 517h90z" />
    <glyph glyph-name="Jcircumflex" unicode="&#x134;" horiz-adv-x="298" 
d="M386 748l-105 87l-138 -87l-29 46l179 133l132 -133zM218 149q-6 -37 -16 -68t-33 -54q-19 -18 -45.5 -26t-58.5 -8q-33 0 -52.5 5.5t-26.5 9.5l13 79q5 -5 18.5 -11t34.5 -6q37 0 52.5 21.5t20.5 56.5l88 555h93z" />
    <glyph glyph-name="jcircumflex" unicode="&#x135;" horiz-adv-x="231" 
d="M204 517l-96 -601q-11 -73 -46.5 -109.5t-113.5 -36.5q-42 0 -71 13l12 71q30 -13 52 -13q40 0 56 20.5t23 68.5l94 587h90zM293 583l-105 87l-138 -87l-29 46l179 133l132 -133z" />
    <glyph glyph-name="uni0136" unicode="&#x136;" horiz-adv-x="509" 
d="M253 -55q-8 -51 -20 -87q-9 -30 -18.5 -51.5t-13.5 -28.5l-5 -7h-53q27 93 27 168v6h83zM276 370l201 -370h-105l-192 359l-57 -359h-93l112 703h93l-52 -325l302 325h105z" />
    <glyph glyph-name="uni0137" unicode="&#x137;" horiz-adv-x="449" 
d="M232 -55q-8 -51 -20 -87q-9 -30 -18.5 -51.5t-13.5 -28.5l-5 -7h-53q27 93 27 168v6h83zM254 278l148 -278h-99l-140 271l-43 -271h-90l120 755l92 15l-76 -482l220 229h103z" />
    <glyph glyph-name="kgreenlandic" unicode="&#x138;" horiz-adv-x="449" 
d="M254 278l148 -278h-99l-140 271l-43 -271h-90l81 510l92 15l-37 -237l220 229h103z" />
    <glyph glyph-name="Lacute" unicode="&#x139;" horiz-adv-x="418" 
d="M150 748l-30 48l182 129l40 -68zM364 0h-334l112 703h93l-100 -627h245z" />
    <glyph glyph-name="lacute" unicode="&#x13a;" horiz-adv-x="230" 
d="M120 758l-30 48l182 129l40 -68zM120 0h-90l120 755l92 15z" />
    <glyph glyph-name="uni013B" unicode="&#x13b;" horiz-adv-x="418" 
d="M229 -55q-8 -51 -20 -87q-9 -30 -18.5 -51.5t-13.5 -28.5l-5 -7h-53q27 93 27 168v6h83zM364 0h-334l112 703h93l-100 -627h245z" />
    <glyph glyph-name="uni013C" unicode="&#x13c;" horiz-adv-x="230" 
d="M110 -55q-8 -51 -20 -87q-9 -30 -18.5 -51.5t-13.5 -28.5l-5 -7h-53q27 93 27 168v6h83zM120 0h-90l120 755l92 15z" />
    <glyph glyph-name="Lcaron" unicode="&#x13d;" horiz-adv-x="418" 
d="M450 725q-8 -51 -20 -87q-9 -30 -18.5 -51.5t-13.5 -28.5l-5 -7h-53q27 93 27 168v6h83zM364 0h-334l112 703h93l-100 -627h245z" />
    <glyph glyph-name="lcaron" unicode="&#x13e;" horiz-adv-x="230" 
d="M404 792q-8 -51 -20 -87q-9 -30 -18.5 -51.5t-13.5 -28.5l-5 -7h-53q27 93 27 168v6h83zM120 0h-90l120 755l92 15z" />
    <glyph glyph-name="Ldot" unicode="&#x13f;" horiz-adv-x="418" 
d="M422 473q0 -28 -17.5 -46t-45.5 -18q-25 0 -39.5 14.5t-14.5 40.5q0 29 18 47t45 18q25 0 39.5 -15.5t14.5 -40.5zM364 0h-334l112 703h93l-100 -627h245z" />
    <glyph glyph-name="ldot" unicode="&#x140;" horiz-adv-x="230" 
d="M370 473q0 -28 -17.5 -46t-45.5 -18q-25 0 -39.5 14.5t-14.5 40.5q0 29 18 47t45 18q25 0 39.5 -15.5t14.5 -40.5zM120 0h-90l120 755l92 15z" />
    <glyph glyph-name="Lslash" unicode="&#x141;" horiz-adv-x="416" 
d="M364 0h-334l45 282l-43 -24l-32 58l88 50l54 337h93l-45 -280l112 62l32 -58l-157 -88l-42 -263h245z" />
    <glyph glyph-name="lslash" unicode="&#x142;" horiz-adv-x="230" 
d="M180 379l-60 -379h-90l48 304l-17 -13l-37 54l69 51l57 359l92 15l-47 -300l22 17l37 -54z" />
    <glyph glyph-name="Nacute" unicode="&#x143;" horiz-adv-x="614" 
d="M336 748l-30 48l182 129l40 -68zM504 0h-86l-184 452q-15 37 -22.5 65.5t-8.5 44.5l-89 -562h-84l111 703h93l173 -436q14 -36 23.5 -70t12.5 -54l89 560h84z" />
    <glyph glyph-name="nacute" unicode="&#x144;" horiz-adv-x="520" 
d="M448 719l-115 -162l-47 31l99 174zM471 416q0 -24 -3 -51.5t-5 -40.5l-51 -324h-90l47 299q1 6 2.5 16t3 22t2.5 25t1 24q0 8 -1.5 17.5t-6.5 18t-16 14t-29 5.5q-33 0 -57 -16.5t-43 -39.5q-24 -29 -41.5 -61.5t-21.5 -58.5l-42 -265h-90l82 517h88l-20 -118
q14 26 31 48t34 37q29 26 58 33.5t53 7.5q42 0 65 -13t34 -31t13.5 -36.5t2.5 -28.5z" />
    <glyph glyph-name="uni0145" unicode="&#x145;" horiz-adv-x="614" 
d="M299 -55q-8 -51 -20 -87q-9 -30 -18.5 -51.5t-13.5 -28.5l-5 -7h-53q27 93 27 168v6h83zM504 0h-86l-184 452q-15 37 -22.5 65.5t-8.5 44.5l-89 -562h-84l111 703h93l173 -436q14 -36 23.5 -70t12.5 -54l89 560h84z" />
    <glyph glyph-name="uni0146" unicode="&#x146;" horiz-adv-x="520" 
d="M258 -55q-8 -51 -20 -87q-9 -30 -18.5 -51.5t-13.5 -28.5l-5 -7h-53q27 93 27 168v6h83zM471 416q0 -24 -3 -51.5t-5 -40.5l-51 -324h-90l47 299q1 6 2.5 16t3 22t2.5 25t1 24q0 8 -1.5 17.5t-6.5 18t-16 14t-29 5.5q-33 0 -57 -16.5t-43 -39.5q-24 -29 -41.5 -61.5
t-21.5 -58.5l-42 -265h-90l82 517h88l-20 -118q14 26 31 48t34 37q29 26 58 33.5t53 7.5q42 0 65 -13t34 -31t13.5 -36.5t2.5 -28.5z" />
    <glyph glyph-name="Ncaron" unicode="&#x147;" horiz-adv-x="614" 
d="M385 746l-132 126l50 52l98 -88l127 90l33 -52zM504 0h-86l-184 452q-15 37 -22.5 65.5t-8.5 44.5l-89 -562h-84l111 703h93l173 -436q14 -36 23.5 -70t12.5 -54l89 560h84z" />
    <glyph glyph-name="ncaron" unicode="&#x148;" horiz-adv-x="520" 
d="M335 581l-132 126l50 52l98 -88l127 90l33 -52zM471 416q0 -24 -3 -51.5t-5 -40.5l-51 -324h-90l47 299q1 6 2.5 16t3 22t2.5 25t1 24q0 8 -1.5 17.5t-6.5 18t-16 14t-29 5.5q-33 0 -57 -16.5t-43 -39.5q-24 -29 -41.5 -61.5t-21.5 -58.5l-42 -265h-90l82 517h88
l-20 -118q14 26 31 48t34 37q29 26 58 33.5t53 7.5q42 0 65 -13t34 -31t13.5 -36.5t2.5 -28.5z" />
    <glyph glyph-name="napostrophe" unicode="&#x149;" horiz-adv-x="520" 
d="M133 792q-8 -51 -20 -87q-9 -30 -18.5 -51.5t-13.5 -28.5l-5 -7h-53q27 93 27 168v6h83zM471 416q0 -24 -3 -51.5t-5 -40.5l-51 -324h-90l47 299q1 6 2.5 16t3 22t2.5 25t1 24q0 8 -1.5 17.5t-6.5 18t-16 14t-29 5.5q-33 0 -57 -16.5t-43 -39.5q-24 -29 -41.5 -61.5
t-21.5 -58.5l-42 -265h-90l82 517h88l-20 -118q14 26 31 48t34 37q29 26 58 33.5t53 7.5q42 0 65 -13t34 -31t13.5 -36.5t2.5 -28.5z" />
    <glyph glyph-name="Eng" unicode="&#x14a;" horiz-adv-x="614" 
d="M490 -84q-5 -33 -15.5 -60t-28.5 -46t-45.5 -29.5t-67.5 -10.5q-32 0 -49.5 5t-24.5 8l12 71q5 -2 17 -7.5t36 -5.5q21 0 34.5 5.5t22 17t13 28t8.5 38.5l13 78l-181 444q-15 37 -22.5 65.5t-8.5 44.5l-89 -562h-84l111 703h93l173 -436q14 -36 23.5 -70t12.5 -54l89 560
h84z" />
    <glyph glyph-name="eng" unicode="&#x14b;" horiz-adv-x="520" 
d="M471 416q0 -24 -3 -51.5t-5 -40.5l-64 -408q-5 -31 -14.5 -57.5t-27 -46t-45.5 -31t-70 -11.5q-32 0 -49.5 5t-24.5 8l12 71q5 -2 17.5 -7.5t35.5 -5.5q21 0 35 6t22 17.5t13 28t8 37.5l58 369q1 6 2.5 16t3 22t2.5 25t1 24q0 8 -1.5 17.5t-6.5 18t-16 14t-29 5.5
q-33 0 -57 -16.5t-43 -39.5q-24 -29 -41.5 -61.5t-21.5 -58.5l-42 -265h-90l82 517h88l-20 -118q0 1 5 10t14 21.5t20.5 27t25.5 26.5q29 26 57 33.5t53 7.5q42 0 65.5 -13t34.5 -31t13.5 -36.5t2.5 -28.5z" />
    <glyph glyph-name="Omacron" unicode="&#x14c;" horiz-adv-x="632" 
d="M522 789h-275l11 72h276zM612 431q0 -16 -2 -55t-12 -88t-30 -102t-55.5 -97t-89.5 -72.5t-131 -28.5q-55 0 -94.5 14.5t-66.5 38.5t-43.5 54.5t-25 62t-11 61t-2.5 51.5q0 16 2 55t12 88t30 102t55.5 97t89.5 72.5t131 28.5q55 0 94.5 -14.5t66.5 -38.5t43.5 -54.5
t25 -62t11 -61t2.5 -51.5zM515 422q0 64 -11.5 105.5t-31.5 66t-47.5 34t-59.5 9.5q-42 0 -79.5 -16t-68.5 -61q-19 -27 -32.5 -62t-22 -72.5t-12.5 -76t-4 -73.5q0 -63 11.5 -104t32 -65t48.5 -33.5t61 -9.5q43 0 79 16.5t66 60.5q19 28 32.5 61.5t22 70.5t12.5 75t4 74z
" />
    <glyph glyph-name="omacron" unicode="&#x14d;" horiz-adv-x="491" 
d="M420 620h-275l11 72h276zM454 316q0 -20 -2.5 -52t-11 -68t-24.5 -73t-42.5 -66.5t-65 -48t-92.5 -18.5q-60 0 -95.5 22.5t-54 54.5t-24 68.5t-5.5 63.5q0 21 3 53t11.5 68.5t24.5 73t42.5 66t64.5 48t92 18.5q60 0 95 -22.5t54 -55t24.5 -68.5t5.5 -64zM360 312
q0 75 -21.5 109t-69.5 34q-26 0 -46 -9.5t-37 -32.5q-26 -33 -40.5 -88.5t-14.5 -121.5q0 -75 21.5 -108.5t70.5 -33.5q23 0 43.5 9t38.5 33q26 34 40.5 88.5t14.5 120.5z" />
    <glyph glyph-name="Ohungarumlaut" unicode="&#x150;" horiz-adv-x="632" 
d="M254 748l-30 48l182 129l40 -68zM465 748l-30 48l182 129l40 -68zM612 431q0 -16 -2 -55t-12 -88t-30 -102t-55.5 -97t-89.5 -72.5t-131 -28.5q-55 0 -94.5 14.5t-66.5 38.5t-43.5 54.5t-25 62t-11 61t-2.5 51.5q0 16 2 55t12 88t30 102t55.5 97t89.5 72.5t131 28.5
q55 0 94.5 -14.5t66.5 -38.5t43.5 -54.5t25 -62t11 -61t2.5 -51.5zM515 422q0 64 -11.5 105.5t-31.5 66t-47.5 34t-59.5 9.5q-42 0 -79.5 -16t-68.5 -61q-19 -27 -32.5 -62t-22 -72.5t-12.5 -76t-4 -73.5q0 -63 11.5 -104t32 -65t48.5 -33.5t61 -9.5q43 0 79 16.5t66 60.5
q19 28 32.5 61.5t22 70.5t12.5 75t4 74z" />
    <glyph glyph-name="ohungarumlaut" unicode="&#x151;" horiz-adv-x="491" 
d="M310 744l-115 -162l-47 31l99 174zM492 744l-115 -162l-47 31l99 174zM454 316q0 -20 -2.5 -52t-11 -68t-24.5 -73t-42.5 -66.5t-65 -48t-92.5 -18.5q-60 0 -95.5 22.5t-54 54.5t-24 68.5t-5.5 63.5q0 21 3 53t11.5 68.5t24.5 73t42.5 66t64.5 48t92 18.5q60 0 95 -22.5
t54 -55t24.5 -68.5t5.5 -64zM360 312q0 75 -21.5 109t-69.5 34q-26 0 -46 -9.5t-37 -32.5q-26 -33 -40.5 -88.5t-14.5 -121.5q0 -75 21.5 -108.5t70.5 -33.5q23 0 43.5 9t38.5 33q26 34 40.5 88.5t14.5 120.5z" />
    <glyph glyph-name="OE" unicode="&#x152;" horiz-adv-x="807" 
d="M819 626h-237l-36 -227h197l-12 -77h-197l-40 -246h255l-16 -76h-352q-14 -5 -38.5 -8.5t-53.5 -3.5q-66 0 -112 22.5t-74.5 61.5t-41 90.5t-12.5 109.5q0 19 2.5 59.5t13 90t31.5 102t57 95.5t90.5 70.5t132.5 27.5q30 0 58.5 -4t48.5 -10h349zM488 620q-14 8 -45.5 15
t-65.5 7q-50 0 -89.5 -19t-69.5 -62q-19 -27 -32.5 -60.5t-22.5 -71t-13 -76t-4 -75.5q0 -64 11.5 -105.5t32.5 -66t50 -34t64 -9.5t60 6.5t39 13.5z" />
    <glyph glyph-name="oe" unicode="&#x153;" horiz-adv-x="770" 
d="M755 401q0 -29 -8.5 -52t-22 -40t-31 -29t-36.5 -20q-22 -9 -48 -14.5t-53 -9t-53.5 -4.5t-47.5 -1h-9q-2 -10 -2 -33q0 -29 5.5 -54t19 -43t37.5 -28.5t60 -10.5q49 0 80.5 15.5t47.5 29.5l-16 -85q-17 -11 -50 -20.5t-79 -9.5q-37 0 -64.5 6.5t-48 18.5t-34 28
t-22.5 35q-25 -38 -65 -64t-103 -26q-58 0 -92.5 22t-53 54.5t-24 68.5t-5.5 63q0 20 3 52.5t11.5 69t24 73.5t41.5 66.5t64 48t90 18.5q67 0 102 -29t49 -69q65 97 186 97q49 0 78.5 -13t44.5 -32.5t19.5 -41t4.5 -37.5zM666 398q0 64 -69 64q-40 0 -66.5 -18t-43.5 -47
q-12 -20 -21.5 -48t-13.5 -56h8q100 0 153 24t53 81zM360 312q0 77 -22 110t-70 33q-26 0 -45 -9.5t-37 -32.5q-28 -37 -41.5 -92.5t-13.5 -117.5q0 -75 21.5 -108.5t70.5 -33.5q25 0 44.5 9.5t37.5 32.5q28 37 41.5 92.5t13.5 116.5z" />
    <glyph glyph-name="Racute" unicode="&#x154;" horiz-adv-x="503" 
d="M258 748l-30 48l182 129l40 -68zM500 535q0 -70 -24.5 -111.5t-59.5 -63.5t-73 -28.5t-65 -6.5l191 -325h-107l-186 332l-53 -332h-93l112 703h134q35 0 59.5 -1t42.5 -4t31.5 -8.5t26.5 -13.5q35 -23 49.5 -58t14.5 -83zM403 528q0 38 -10 59t-25.5 31t-35.5 12t-39 2
h-70l-39 -247h66q21 0 48 4t50 18.5t39 43t16 77.5z" />
    <glyph glyph-name="racute" unicode="&#x155;" horiz-adv-x="357" 
d="M200 583l-30 48l182 129l40 -68zM371 427q-9 9 -23 12.5t-26 3.5q-28 0 -51.5 -15.5t-46.5 -44.5q-23 -28 -40.5 -62t-22.5 -63l-41 -258h-90l82 517h88l-22 -125q8 17 23 39.5t38 46.5q25 26 49.5 36.5t52.5 10.5q21 0 34 -4t19 -9z" />
    <glyph glyph-name="uni0156" unicode="&#x156;" horiz-adv-x="503" 
d="M246 -55q-8 -51 -20 -87q-9 -30 -18.5 -51.5t-13.5 -28.5l-5 -7h-53q27 93 27 168v6h83zM500 535q0 -70 -24.5 -111.5t-59.5 -63.5t-73 -28.5t-65 -6.5l191 -325h-107l-186 332l-53 -332h-93l112 703h134q35 0 59.5 -1t42.5 -4t31.5 -8.5t26.5 -13.5q35 -23 49.5 -58
t14.5 -83zM403 528q0 38 -10 59t-25.5 31t-35.5 12t-39 2h-70l-39 -247h66q21 0 48 4t50 18.5t39 43t16 77.5z" />
    <glyph glyph-name="uni0157" unicode="&#x157;" horiz-adv-x="357" 
d="M110 -55q-8 -51 -20 -87q-9 -30 -18.5 -51.5t-13.5 -28.5l-5 -7h-53q27 93 27 168v6h83zM371 427q-9 9 -23 12.5t-26 3.5q-28 0 -51.5 -15.5t-46.5 -44.5q-23 -28 -40.5 -62t-22.5 -63l-41 -258h-90l82 517h88l-22 -125q8 17 23 39.5t38 46.5q25 26 49.5 36.5t52.5 10.5
q21 0 34 -4t19 -9z" />
    <glyph glyph-name="Rcaron" unicode="&#x158;" horiz-adv-x="503" 
d="M287 746l-132 126l50 52l98 -88l127 90l33 -52zM500 535q0 -70 -24.5 -111.5t-59.5 -63.5t-73 -28.5t-65 -6.5l191 -325h-107l-186 332l-53 -332h-93l112 703h134q35 0 59.5 -1t42.5 -4t31.5 -8.5t26.5 -13.5q35 -23 49.5 -58t14.5 -83zM403 528q0 38 -10 59t-25.5 31
t-35.5 12t-39 2h-70l-39 -247h66q21 0 48 4t50 18.5t39 43t16 77.5z" />
    <glyph glyph-name="rcaron" unicode="&#x159;" horiz-adv-x="357" 
d="M254 581l-132 126l50 52l98 -88l127 90l33 -52zM371 427q-9 9 -23 12.5t-26 3.5q-28 0 -51.5 -15.5t-46.5 -44.5q-23 -28 -40.5 -62t-22.5 -63l-41 -258h-90l82 517h88l-22 -125q8 17 23 39.5t38 46.5q25 26 49.5 36.5t52.5 10.5q21 0 34 -4t19 -9z" />
    <glyph glyph-name="Sacute" unicode="&#x15a;" horiz-adv-x="452" 
d="M260 748l-30 48l182 129l40 -68zM446 573q-26 33 -67 48t-83 15q-61 0 -88 -28t-27 -73q0 -37 16.5 -59.5t48.5 -49.5l57 -48q22 -19 41 -37.5t33 -40.5t22 -48t8 -59q0 -30 -9 -66t-34.5 -66.5t-71 -51t-119.5 -20.5q-64 0 -106.5 14.5t-65.5 31.5l13 92q20 -26 60 -44
t97 -18q73 0 106.5 32t33.5 89q0 32 -13.5 57t-53.5 57l-59 48q-22 18 -40.5 36t-31.5 39t-20.5 45.5t-7.5 55.5q0 39 12 73t37.5 59.5t65.5 40.5t95 15q60 0 102 -15.5t63 -34.5z" />
    <glyph glyph-name="sacute" unicode="&#x15b;" horiz-adv-x="372" 
d="M342 719l-115 -162l-47 31l99 174zM345 406q-17 19 -47.5 33.5t-68.5 14.5q-25 0 -40.5 -6t-24 -16t-11.5 -21.5t-3 -21.5q0 -22 10.5 -36t30.5 -31l58 -47q34 -27 53 -55.5t19 -74.5q0 -23 -6.5 -50t-25.5 -50t-53.5 -38t-89.5 -15q-51 0 -85.5 11.5t-54.5 25.5l12 84
q18 -20 50 -35.5t76 -15.5q37 0 62.5 16t25.5 57q0 28 -12.5 43.5t-35.5 33.5l-51 39q-40 30 -55.5 60.5t-15.5 66.5q0 66 43 106t121 40q45 0 78 -12t53 -27z" />
    <glyph glyph-name="Scircumflex" unicode="&#x15c;" horiz-adv-x="452" 
d="M422 748l-105 87l-138 -87l-29 46l179 133l132 -133zM446 573q-26 33 -67 48t-83 15q-61 0 -88 -28t-27 -73q0 -37 16.5 -59.5t48.5 -49.5l57 -48q22 -19 41 -37.5t33 -40.5t22 -48t8 -59q0 -30 -9 -66t-34.5 -66.5t-71 -51t-119.5 -20.5q-64 0 -106.5 14.5t-65.5 31.5
l13 92q20 -26 60 -44t97 -18q73 0 106.5 32t33.5 89q0 32 -13.5 57t-53.5 57l-59 48q-22 18 -40.5 36t-31.5 39t-20.5 45.5t-7.5 55.5q0 39 12 73t37.5 59.5t65.5 40.5t95 15q60 0 102 -15.5t63 -34.5z" />
    <glyph glyph-name="scircumflex" unicode="&#x15d;" horiz-adv-x="372" 
d="M361 583l-105 87l-138 -87l-29 46l179 133l132 -133zM345 406q-17 19 -47.5 33.5t-68.5 14.5q-25 0 -40.5 -6t-24 -16t-11.5 -21.5t-3 -21.5q0 -22 10.5 -36t30.5 -31l58 -47q34 -27 53 -55.5t19 -74.5q0 -23 -6.5 -50t-25.5 -50t-53.5 -38t-89.5 -15q-51 0 -85.5 11.5
t-54.5 25.5l12 84q18 -20 50 -35.5t76 -15.5q37 0 62.5 16t25.5 57q0 28 -12.5 43.5t-35.5 33.5l-51 39q-40 30 -55.5 60.5t-15.5 66.5q0 66 43 106t121 40q45 0 78 -12t53 -27z" />
    <glyph glyph-name="Scedilla" unicode="&#x15e;" horiz-adv-x="452" 
d="M248 -124q0 -38 -23 -62q-15 -17 -36 -24.5t-47 -7.5q-22 0 -36.5 4t-20.5 7l7 58q8 -7 19.5 -11.5t25.5 -4.5q20 0 32.5 10t12.5 30q0 15 -6.5 23t-14.5 14q-8 7 -14.5 15.5t-6.5 25.5t9 37q-49 2 -89.5 15.5t-58.5 29.5l13 92q20 -26 60 -44t97 -18q73 0 106.5 32
t33.5 89q0 32 -13.5 57t-53.5 57l-59 48q-22 18 -40.5 36t-31.5 39t-20.5 45.5t-7.5 55.5q0 39 12 73t37.5 59.5t65.5 40.5t95 15q60 0 102 -15.5t63 -34.5l-14 -89q-26 33 -67 48t-83 15q-61 0 -88 -28t-27 -73q0 -37 16.5 -59.5t48.5 -49.5l57 -48q20 -17 39 -35t33.5 -40
t23 -49t8.5 -62q0 -29 -8 -62t-30 -62.5t-61 -50.5t-101 -26q-4 -11 -4 -22q0 -14 5 -20t13 -14q9 -8 18 -20.5t9 -38.5z" />
    <glyph glyph-name="scedilla" unicode="&#x15f;" horiz-adv-x="372" 
d="M220 -124q0 -38 -23 -62q-15 -17 -36 -24.5t-47 -7.5q-22 0 -36.5 4t-20.5 7l7 58q8 -7 19.5 -11.5t25.5 -4.5q20 0 32.5 10t12.5 30q0 15 -6.5 23t-14.5 14q-8 7 -14.5 15t-6.5 25q0 11 2.5 20.5t7.5 20.5q-35 2 -67 12.5t-49 23.5l12 84q18 -20 50 -35.5t76 -15.5
q37 0 62.5 16t25.5 57q0 28 -12.5 43.5t-35.5 33.5l-51 39q-40 30 -55.5 60.5t-15.5 66.5q0 66 43 106t121 40q45 0 78 -12t53 -27l-12 -79q-17 19 -47.5 33.5t-68.5 14.5q-25 0 -40.5 -6t-24 -16t-11.5 -21.5t-3 -21.5q0 -22 10.5 -36t30.5 -31l58 -47q35 -28 53.5 -56
t18.5 -74q0 -22 -5.5 -46.5t-21 -46t-43 -37.5t-71.5 -21q-5 -11 -5 -24q0 -15 5 -21.5t13 -13.5q9 -8 18 -20.5t9 -38.5z" />
    <glyph glyph-name="Scaron" unicode="&#x160;" horiz-adv-x="452" 
d="M298 746l-132 126l50 52l98 -88l127 90l33 -52zM446 573q-26 33 -67 48t-83 15q-61 0 -88 -28t-27 -73q0 -37 16.5 -59.5t48.5 -49.5l57 -48q22 -19 41 -37.5t33 -40.5t22 -48t8 -59q0 -30 -9 -66t-34.5 -66.5t-71 -51t-119.5 -20.5q-64 0 -106.5 14.5t-65.5 31.5l13 92
q20 -26 60 -44t97 -18q73 0 106.5 32t33.5 89q0 32 -13.5 57t-53.5 57l-59 48q-22 18 -40.5 36t-31.5 39t-20.5 45.5t-7.5 55.5q0 39 12 73t37.5 59.5t65.5 40.5t95 15q60 0 102 -15.5t63 -34.5z" />
    <glyph glyph-name="scaron" unicode="&#x161;" horiz-adv-x="372" 
d="M235 581l-132 126l50 52l98 -88l127 90l33 -52zM345 406q-17 19 -47.5 33.5t-68.5 14.5q-25 0 -40.5 -6t-24 -16t-11.5 -21.5t-3 -21.5q0 -22 10.5 -36t30.5 -31l58 -47q34 -27 53 -55.5t19 -74.5q0 -23 -6.5 -50t-25.5 -50t-53.5 -38t-89.5 -15q-51 0 -85.5 11.5
t-54.5 25.5l12 84q18 -20 50 -35.5t76 -15.5q37 0 62.5 16t25.5 57q0 28 -12.5 43.5t-35.5 33.5l-51 39q-40 30 -55.5 60.5t-15.5 66.5q0 66 43 106t121 40q45 0 78 -12t53 -27z" />
    <glyph glyph-name="uni0162" unicode="&#x162;" horiz-adv-x="490" 
d="M234 -55q-8 -51 -20 -87q-9 -30 -18.5 -51.5t-13.5 -28.5l-5 -7h-53q27 93 27 168v6h83zM534 626h-186l-100 -626h-93l99 626h-188l13 77h471z" />
    <glyph glyph-name="uni0163" unicode="&#x163;" horiz-adv-x="296" 
d="M167 -55q-8 -51 -20 -87q-9 -30 -18.5 -51.5t-13.5 -28.5l-5 -7h-53q27 93 27 168v6h83zM318 447h-123l-44 -278q0 -3 -1 -9.5t-2 -15t-2 -17.5t-1 -15q0 -7 1.5 -15t7 -15.5t16.5 -12.5t30 -5q22 0 36.5 6t23.5 13l-12 -73q-11 -7 -31.5 -12t-48.5 -5q-41 0 -64.5 11.5
t-34.5 27.5t-13.5 33t-2.5 28q0 20 2.5 38t5.5 38l43 278h-54l12 70h54l14 91l94 22l-18 -113h123z" />
    <glyph glyph-name="Tcaron" unicode="&#x164;" horiz-adv-x="490" 
d="M315 746l-132 126l50 52l98 -88l127 90l33 -52zM534 626h-186l-100 -626h-93l99 626h-188l13 77h471z" />
    <glyph glyph-name="tcaron" unicode="&#x165;" horiz-adv-x="296" 
d="M390 792q-8 -51 -20 -87q-9 -30 -18.5 -51.5t-13.5 -28.5l-5 -7h-53q27 93 27 168v6h83zM318 447h-123l-44 -278q0 -3 -1 -9.5t-2 -15t-2 -17.5t-1 -15q0 -7 1.5 -15t7 -15.5t16.5 -12.5t30 -5q22 0 36.5 6t23.5 13l-12 -73q-11 -7 -31.5 -12t-48.5 -5q-41 0 -64.5 11.5
t-34.5 27.5t-13.5 33t-2.5 28q0 20 2.5 38t5.5 38l43 278h-54l12 70h54l14 91l94 22l-18 -113h123z" />
    <glyph glyph-name="Tbar" unicode="&#x166;" horiz-adv-x="490" 
d="M534 626h-186l-18 -109h104l-15 -70h-100l-71 -447h-93l70 447h-97l12 70h96l18 109h-188l13 77h471z" />
    <glyph glyph-name="tbar" unicode="&#x167;" horiz-adv-x="296" 
d="M318 447h-123l-11 -69h123l-11 -70h-123l-22 -139q0 -3 -1 -9.5t-2 -15t-2 -17.5t-1 -15q0 -7 1.5 -15t7 -15.5t16.5 -12.5t30 -5q22 0 36.5 6t23.5 13l-12 -73q-9 -5 -28.5 -11t-51.5 -6q-41 0 -64.5 11.5t-34.5 27.5t-13.5 33t-2.5 28q0 20 2.5 38t5.5 38l21 139h-54
l12 70h53l11 69h-54l12 70h54l14 91l94 22l-18 -113h123z" />
    <glyph glyph-name="Utilde" unicode="&#x168;" horiz-adv-x="595" 
d="M537 852q-14 -32 -39.5 -57t-63.5 -25q-12 0 -23 3t-25 10l-22 10q-15 7 -22.5 9t-13.5 2q-18 0 -30.5 -10.5t-20.5 -23.5l-39 28q7 13 16.5 27.5t22.5 26.5t29 19.5t36 7.5q11 0 22 -2.5t26 -10.5l22 -11q12 -6 20.5 -8t14.5 -2q17 0 28.5 10.5t19.5 24.5l42 -28v0z
M535 257q-6 -38 -12 -69t-14 -57t-20.5 -47.5t-31.5 -39.5q-35 -33 -79.5 -44.5t-95.5 -11.5q-82 0 -128 20t-68 48t-27 58t-5 49q0 22 2 44t7 50l70 446h93l-73 -460q-6 -36 -6 -64q0 -39 13 -62t32.5 -34.5t43 -15t43.5 -3.5q47 0 76 11t46 32.5t26 53.5t16 74l74 468h89z
" />
    <glyph glyph-name="utilde" unicode="&#x169;" horiz-adv-x="517" 
d="M468 687q-14 -32 -39.5 -57t-63.5 -25q-12 0 -23 3t-25 10l-22 10q-15 7 -22.5 9t-13.5 2q-18 0 -30.5 -10.5t-20.5 -23.5l-39 28q7 13 16.5 27.5t22.5 26.5t29 19.5t36 7.5q11 0 22 -2.5t26 -10.5l22 -11q12 -6 20.5 -8t14.5 -2q17 0 28.5 10.5t19.5 24.5l42 -28v0z
M407 0h-88l20 119q-14 -26 -31 -48t-34 -37q-29 -26 -58 -33.5t-54 -7.5q-41 0 -64 13t-34 30.5t-13.5 36t-2.5 29.5q0 25 3 51.5t5 40.5l51 323h90l-47 -298q-2 -14 -5.5 -38t-3.5 -47q0 -9 1.5 -19.5t6.5 -19t16 -14t29 -5.5q33 0 57 16.5t43 39.5q24 29 41.5 61.5
t21.5 58.5l42 265h90z" />
    <glyph glyph-name="Umacron" unicode="&#x16a;" horiz-adv-x="595" 
d="M526 789h-275l11 72h276zM535 257q-6 -38 -12 -69t-14 -57t-20.5 -47.5t-31.5 -39.5q-35 -33 -79.5 -44.5t-95.5 -11.5q-82 0 -128 20t-68 48t-27 58t-5 49q0 22 2 44t7 50l70 446h93l-73 -460q-6 -36 -6 -64q0 -39 13 -62t32.5 -34.5t43 -15t43.5 -3.5q47 0 76 11
t46 32.5t26 53.5t16 74l74 468h89z" />
    <glyph glyph-name="umacron" unicode="&#x16b;" horiz-adv-x="517" 
d="M455 620h-275l11 72h276zM407 0h-88l20 119q-14 -26 -31 -48t-34 -37q-29 -26 -58 -33.5t-54 -7.5q-41 0 -64 13t-34 30.5t-13.5 36t-2.5 29.5q0 25 3 51.5t5 40.5l51 323h90l-47 -298q-2 -14 -5.5 -38t-3.5 -47q0 -9 1.5 -19.5t6.5 -19t16 -14t29 -5.5q33 0 57 16.5
t43 39.5q24 29 41.5 61.5t21.5 58.5l42 265h90z" />
    <glyph glyph-name="Ubreve" unicode="&#x16c;" horiz-adv-x="595" 
d="M551 864q-9 -18 -25 -37.5t-37.5 -35t-50 -25.5t-62.5 -10q-35 0 -60.5 10t-44 25t-29.5 34t-17 37l59 36q11 -29 35 -51.5t62 -22.5q36 0 66.5 21t49.5 53l54 -34v0zM535 257q-6 -38 -12 -69t-14 -57t-20.5 -47.5t-31.5 -39.5q-35 -33 -79.5 -44.5t-95.5 -11.5
q-82 0 -128 20t-68 48t-27 58t-5 49q0 22 2 44t7 50l70 446h93l-73 -460q-6 -36 -6 -64q0 -39 13 -62t32.5 -34.5t43 -15t43.5 -3.5q47 0 76 11t46 32.5t26 53.5t16 74l74 468h89z" />
    <glyph glyph-name="ubreve" unicode="&#x16d;" horiz-adv-x="517" 
d="M483 703q-9 -18 -25 -37.5t-37.5 -35t-50 -25.5t-62.5 -10q-35 0 -60.5 10t-44 25t-29.5 34t-17 37l59 36q11 -29 35 -51.5t62 -22.5q36 0 66.5 21t49.5 53l54 -34v0zM407 0h-88l20 119q-14 -26 -31 -48t-34 -37q-29 -26 -58 -33.5t-54 -7.5q-41 0 -64 13t-34 30.5
t-13.5 36t-2.5 29.5q0 25 3 51.5t5 40.5l51 323h90l-47 -298q-2 -14 -5.5 -38t-3.5 -47q0 -9 1.5 -19.5t6.5 -19t16 -14t29 -5.5q33 0 57 16.5t43 39.5q24 29 41.5 61.5t21.5 58.5l42 265h90z" />
    <glyph glyph-name="Uring" unicode="&#x16e;" horiz-adv-x="595" 
d="M499 853q0 -27 -9 -49t-25 -37t-37.5 -23.5t-45.5 -8.5q-43 0 -73.5 26t-30.5 77q0 53 34 84.5t85 31.5q43 0 72.5 -25t29.5 -76zM444 850q0 29 -15.5 42t-36.5 13q-26 0 -42.5 -17.5t-16.5 -47.5q0 -29 15.5 -42.5t35.5 -13.5q26 0 43 18.5t17 47.5zM535 257
q-6 -38 -12 -69t-14 -57t-20.5 -47.5t-31.5 -39.5q-35 -33 -79.5 -44.5t-95.5 -11.5q-82 0 -128 20t-68 48t-27 58t-5 49q0 22 2 44t7 50l70 446h93l-73 -460q-6 -36 -6 -64q0 -39 13 -62t32.5 -34.5t43 -15t43.5 -3.5q47 0 76 11t46 32.5t26 53.5t16 74l74 468h89z" />
    <glyph glyph-name="uring" unicode="&#x16f;" horiz-adv-x="517" 
d="M430 670q0 -27 -9 -49t-25 -37t-37.5 -23.5t-45.5 -8.5q-43 0 -73.5 26t-30.5 77q0 53 34 84.5t85 31.5q43 0 72.5 -25t29.5 -76zM375 667q0 29 -15.5 42t-36.5 13q-26 0 -42.5 -17.5t-16.5 -47.5q0 -29 15.5 -42.5t35.5 -13.5q26 0 43 18.5t17 47.5zM407 0h-88l20 119
q-14 -26 -31 -48t-34 -37q-29 -26 -58 -33.5t-54 -7.5q-41 0 -64 13t-34 30.5t-13.5 36t-2.5 29.5q0 25 3 51.5t5 40.5l51 323h90l-47 -298q-2 -14 -5.5 -38t-3.5 -47q0 -9 1.5 -19.5t6.5 -19t16 -14t29 -5.5q33 0 57 16.5t43 39.5q24 29 41.5 61.5t21.5 58.5l42 265h90z
" />
    <glyph glyph-name="Uhungarumlaut" unicode="&#x170;" horiz-adv-x="595" 
d="M258 748l-30 48l182 129l40 -68zM469 748l-30 48l182 129l40 -68zM535 257q-6 -38 -12 -69t-14 -57t-20.5 -47.5t-31.5 -39.5q-35 -33 -79.5 -44.5t-95.5 -11.5q-82 0 -128 20t-68 48t-27 58t-5 49q0 22 2 44t7 50l70 446h93l-73 -460q-6 -36 -6 -64q0 -39 13 -62
t32.5 -34.5t43 -15t43.5 -3.5q47 0 76 11t46 32.5t26 53.5t16 74l74 468h89z" />
    <glyph glyph-name="uhungarumlaut" unicode="&#x171;" horiz-adv-x="517" 
d="M343 744l-115 -162l-47 31l99 174zM525 744l-115 -162l-47 31l99 174zM407 0h-88l20 119q-14 -26 -31 -48t-34 -37q-29 -26 -58 -33.5t-54 -7.5q-41 0 -64 13t-34 30.5t-13.5 36t-2.5 29.5q0 25 3 51.5t5 40.5l51 323h90l-47 -298q-2 -14 -5.5 -38t-3.5 -47
q0 -9 1.5 -19.5t6.5 -19t16 -14t29 -5.5q33 0 57 16.5t43 39.5q24 29 41.5 61.5t21.5 58.5l42 265h90z" />
    <glyph glyph-name="Uogonek" unicode="&#x172;" horiz-adv-x="595" 
d="M535 257q-6 -38 -12 -69t-14 -57t-20.5 -47.5t-31.5 -39.5q-26 -24 -55 -36q-20 -13 -38.5 -27t-32.5 -29.5t-22.5 -32t-8.5 -34.5q0 -19 10 -30t33 -11q17 0 30.5 5.5t21.5 10.5l-13 -63q-14 -7 -33 -11t-39 -4q-45 0 -66 22.5t-21 57.5q0 41 22.5 73t53.5 54
q-6 -1 -12 -1h-12q-80 0 -124 21t-66 49.5t-26.5 58t-4.5 47.5q0 20 2 42.5t7 50.5l70 446h93l-73 -460q-6 -36 -6 -64q0 -39 13 -62t32.5 -34.5t43 -15t43.5 -3.5q47 0 76 11t46 32.5t26 53.5t16 74l74 468h89z" />
    <glyph glyph-name="uogonek" unicode="&#x173;" horiz-adv-x="517" 
d="M407 0q-20 -9 -39.5 -20.5t-35 -26.5t-25 -32t-9.5 -36t10 -30t33 -11q17 0 30.5 5.5t21.5 10.5l-13 -63q-14 -7 -33 -11t-39 -4q-45 0 -66 22.5t-21 57.5q0 23 8 43.5t21.5 38t31.5 31.5t37 25l20 118q-1 -1 -6 -9.5t-13.5 -21t-20 -27t-25.5 -26.5q-29 -26 -57 -33.5
t-53 -7.5q-42 0 -65.5 13t-34.5 30.5t-13.5 36t-2.5 29.5q0 25 3 51.5t5 40.5l51 323h90l-47 -298q-2 -14 -5.5 -38t-3.5 -47q0 -9 1.5 -19.5t6.5 -19t16 -14t29 -5.5q33 0 57 16.5t43 39.5q24 29 41.5 61.5t21.5 58.5l42 265h90z" />
    <glyph glyph-name="Wcircumflex" unicode="&#x174;" horiz-adv-x="874" 
d="M632 748l-105 87l-138 -87l-29 46l179 133l132 -133zM628 -3h-93l-50 491q-2 22 -3.5 46.5t-1.5 41.5q-3 -10 -10 -29.5t-19 -48.5l-207 -501h-96l-82 706h95l49 -474q3 -31 4.5 -65.5t1.5 -57.5q6 22 16 52.5t27 71.5l195 473h98l47 -463q1 -16 2.5 -34t2 -36t1 -34.5
t0.5 -29.5q7 26 19 62t26 71l193 464h92z" />
    <glyph glyph-name="wcircumflex" unicode="&#x175;" horiz-adv-x="689" 
d="M518 583l-105 87l-138 -87l-29 46l179 133l132 -133zM497 -3h-92l-34 329q-1 7 -2 17.5t-1.5 22.5t-1 23t-0.5 18q-5 -15 -10.5 -30t-16.5 -43l-138 -337h-95l-65 520h91l32 -324q3 -32 4.5 -60.5t1.5 -44.5q5 15 14.5 42.5t22.5 59.5l131 327h96l31 -327q6 -63 6 -103
q7 25 15.5 49.5t21.5 56.5l135 324h88z" />
    <glyph glyph-name="Ycircumflex" unicode="&#x176;" horiz-adv-x="527" 
d="M455 748l-105 87l-138 -87l-29 46l179 133l132 -133zM303 272l-43 -272h-93l44 273l-155 430h99l115 -342l229 342h102z" />
    <glyph glyph-name="ycircumflex" unicode="&#x177;" horiz-adv-x="419" 
d="M391 583l-105 87l-138 -87l-29 46l179 133l132 -133zM177 -75q-14 -30 -34 -64t-48 -57q-20 -17 -45.5 -25.5t-59.5 -8.5q-26 0 -43.5 4t-26.5 8l12 73q8 -6 21.5 -11t33.5 -5q38 0 61.5 22.5t45.5 67.5l30 61l-85 527h92l44 -309q5 -37 7 -61.5t3 -42.5q5 15 14.5 39
t23.5 56l145 318h91z" />
    <glyph glyph-name="Ydieresis" unicode="&#x178;" horiz-adv-x="527" 
d="M482 832q0 -25 -16 -40.5t-40 -15.5q-21 0 -33.5 12t-12.5 34q0 26 16 41t40 15q20 0 33 -12t13 -34zM301 832q0 -25 -16 -40.5t-40 -15.5q-20 0 -33 12t-13 34q0 26 16 41t40 15q20 0 33 -12t13 -34zM303 272l-43 -272h-93l44 273l-155 430h99l115 -342l229 342h102z
" />
    <glyph glyph-name="Zacute" unicode="&#x179;" horiz-adv-x="540" 
d="M321 748l-30 48l182 129l40 -68zM563 637l-442 -560h350l-17 -77h-458l10 67l437 559h-321l12 77h440z" />
    <glyph glyph-name="zacute" unicode="&#x17a;" horiz-adv-x="418" 
d="M384 719l-115 -162l-47 31l99 174zM426 459l-319 -390h254l-11 -69h-364l9 59l318 389h-239l11 69h350z" />
    <glyph glyph-name="Zdotaccent" unicode="&#x17b;" horiz-adv-x="540" 
d="M427 834q0 -28 -17.5 -46t-45.5 -18q-25 0 -39.5 14.5t-14.5 40.5q0 29 18 47t45 18q25 0 39.5 -15.5t14.5 -40.5zM563 637l-442 -560h350l-17 -77h-458l10 67l437 559h-321l12 77h440z" />
    <glyph glyph-name="zdotaccent" unicode="&#x17c;" horiz-adv-x="418" 
d="M330 662q0 -28 -17.5 -46t-45.5 -18q-25 0 -39.5 14.5t-14.5 40.5q0 29 18 47t45 18q25 0 39.5 -15.5t14.5 -40.5zM426 459l-319 -390h254l-11 -69h-364l9 59l318 389h-239l11 69h350z" />
    <glyph glyph-name="Zcaron" unicode="&#x17d;" horiz-adv-x="540" 
d="M350 746l-132 126l50 52l98 -88l127 90l33 -52zM563 637l-442 -560h350l-17 -77h-458l10 67l437 559h-321l12 77h440z" />
    <glyph glyph-name="zcaron" unicode="&#x17e;" horiz-adv-x="418" 
d="M263 581l-132 126l50 52l98 -88l127 90l33 -52zM426 459l-319 -390h254l-11 -69h-364l9 59l318 389h-239l11 69h350z" />
    <glyph glyph-name="florin" unicode="&#x192;" 
d="M470 680q-7 7 -22.5 14.5t-39.5 7.5q-37 0 -56 -25q-9 -12 -13.5 -29.5t-9.5 -45.5l-14 -87h104l-11 -69h-104l-73 -463q-3 -19 -6.5 -42t-10 -46.5t-16.5 -46t-26 -39.5q-20 -22 -47 -30.5t-61 -8.5t-55 6t-33 12l12 72q9 -8 25.5 -14t39.5 -6q38 0 56 24q11 14 16.5 34
t8.5 40l80 508h-55l11 69h55l16 97q5 28 12.5 53.5t18.5 43.5q22 35 55 48t72 13q42 0 62 -8t20 -10z" />
    <glyph glyph-name="uni01F5" unicode="&#x1f5;" horiz-adv-x="510" 
d="M273 583l-30 48l182 129l40 -68zM397 -5q-8 -53 -19 -90.5t-36 -67.5q-27 -33 -68.5 -50t-104.5 -17q-57 0 -100 12t-66 29l13 84q18 -20 53 -36.5t88 -16.5q41 0 67.5 10.5t43.5 30.5q18 21 25.5 47.5t15.5 69.5l9 52q5 29 7.5 42.5t4.5 24.5q-10 -20 -24.5 -41.5
t-34.5 -40.5q-27 -26 -53.5 -34.5t-51.5 -8.5q-64 0 -96.5 42t-32.5 139q0 37 5 77t17 79t30.5 74t45.5 61.5t63 42t83 15.5q43 0 69 -11.5t38 -22.5l4 27h88zM375 428q-9 9 -29 17t-49 8q-35 0 -60.5 -13t-43.5 -34t-30 -48.5t-19.5 -57.5t-10.5 -60t-3 -55q0 -35 5 -56.5
t14 -34.5t21 -17.5t26 -4.5q23 0 43 12.5t45 42.5t41.5 62.5t21.5 62.5z" />
    <glyph glyph-name="uni0218" unicode="&#x218;" horiz-adv-x="452" 
d="M208 -55q-8 -51 -20 -87q-9 -30 -18.5 -51.5t-13.5 -28.5l-5 -7h-53q27 93 27 168v6h83zM446 573q-26 33 -67 48t-83 15q-61 0 -88 -28t-27 -73q0 -37 16.5 -59.5t48.5 -49.5l57 -48q22 -19 41 -37.5t33 -40.5t22 -48t8 -59q0 -30 -9 -66t-34.5 -66.5t-71 -51
t-119.5 -20.5q-64 0 -106.5 14.5t-65.5 31.5l13 92q20 -26 60 -44t97 -18q73 0 106.5 32t33.5 89q0 32 -13.5 57t-53.5 57l-59 48q-22 18 -40.5 36t-31.5 39t-20.5 45.5t-7.5 55.5q0 39 12 73t37.5 59.5t65.5 40.5t95 15q60 0 102 -15.5t63 -34.5z" />
    <glyph glyph-name="uni0219" unicode="&#x219;" horiz-adv-x="372" 
d="M172 -55q-8 -51 -20 -87q-9 -30 -18.5 -51.5t-13.5 -28.5l-5 -7h-53q27 93 27 168v6h83zM345 406q-17 19 -47.5 33.5t-68.5 14.5q-25 0 -40.5 -6t-24 -16t-11.5 -21.5t-3 -21.5q0 -22 10.5 -36t30.5 -31l58 -47q34 -27 53 -55.5t19 -74.5q0 -23 -6.5 -50t-25.5 -50
t-53.5 -38t-89.5 -15q-51 0 -85.5 11.5t-54.5 25.5l12 84q18 -20 50 -35.5t76 -15.5q37 0 62.5 16t25.5 57q0 28 -12.5 43.5t-35.5 33.5l-51 39q-40 30 -55.5 60.5t-15.5 66.5q0 66 43 106t121 40q45 0 78 -12t53 -27z" />
    <glyph glyph-name="uni021A" unicode="&#x21a;" horiz-adv-x="490" 
d="M234 -55q-8 -51 -20 -87q-9 -30 -18.5 -51.5t-13.5 -28.5l-5 -7h-53q27 93 27 168v6h83zM534 626h-186l-100 -626h-93l99 626h-188l13 77h471z" />
    <glyph glyph-name="uni021B" unicode="&#x21b;" horiz-adv-x="296" 
d="M167 -55q-8 -51 -20 -87q-9 -30 -18.5 -51.5t-13.5 -28.5l-5 -7h-53q27 93 27 168v6h83zM318 447h-123l-44 -278q0 -3 -1 -9.5t-2 -15t-2 -17.5t-1 -15q0 -7 1.5 -15t7 -15.5t16.5 -12.5t30 -5q22 0 36.5 6t23.5 13l-12 -73q-11 -7 -31.5 -12t-48.5 -5q-41 0 -64.5 11.5
t-34.5 27.5t-13.5 33t-2.5 28q0 20 2.5 38t5.5 38l43 278h-54l12 70h54l14 91l94 22l-18 -113h123z" />
    <glyph glyph-name="circumflex" unicode="&#x2c6;" horiz-adv-x="485" 
d="M447 583l-105 87l-138 -87l-29 46l179 133l132 -133z" />
    <glyph glyph-name="caron" unicode="&#x2c7;" horiz-adv-x="494" 
d="M278 581l-132 126l50 52l98 -88l127 90l33 -52z" />
    <glyph glyph-name="breve" unicode="&#x2d8;" horiz-adv-x="479" 
d="M514 703q-9 -18 -25 -37.5t-37.5 -35t-50 -25.5t-62.5 -10q-35 0 -60.5 10t-44 25t-29.5 34t-17 37l59 36q11 -29 35 -51.5t62 -22.5q36 0 66.5 21t49.5 53l54 -34v0z" />
    <glyph glyph-name="dotaccent" unicode="&#x2d9;" horiz-adv-x="494" 
d="M350 662q0 -28 -17.5 -46t-45.5 -18q-25 0 -39.5 14.5t-14.5 40.5q0 29 18 47t45 18q25 0 39.5 -15.5t14.5 -40.5z" />
    <glyph glyph-name="ring" unicode="&#x2da;" horiz-adv-x="494" 
d="M376 670q0 -27 -9 -49t-25 -37t-37.5 -23.5t-45.5 -8.5q-43 0 -73.5 26t-30.5 77q0 53 34 84.5t85 31.5q43 0 72.5 -25t29.5 -76zM321 667q0 29 -15.5 42t-36.5 13q-26 0 -42.5 -17.5t-16.5 -47.5q0 -29 15.5 -42.5t35.5 -13.5q26 0 43 18.5t17 47.5z" />
    <glyph glyph-name="ogonek" unicode="&#x2db;" horiz-adv-x="233" 
d="M183 10q-43 -26 -74.5 -58t-31.5 -68q0 -18 10 -29t33 -11q17 0 30.5 5.5t21.5 10.5l-13 -63q-14 -7 -33 -11t-39 -4q-45 0 -66 22.5t-21 57.5q0 26 10 49t26 41.5t36.5 33t40.5 24.5h70v0z" />
    <glyph glyph-name="tilde" unicode="&#x2dc;" horiz-adv-x="479" 
d="M517 687q-14 -32 -39.5 -57t-63.5 -25q-12 0 -23 3t-25 10l-22 10q-15 7 -22.5 9t-13.5 2q-18 0 -30.5 -10.5t-20.5 -23.5l-39 28q7 13 16.5 27.5t22.5 26.5t29 19.5t36 7.5q11 0 22 -2.5t26 -10.5l22 -11q12 -6 20.5 -8t14.5 -2q17 0 28.5 10.5t19.5 24.5l42 -28v0z" />
    <glyph glyph-name="hungarumlaut" unicode="&#x2dd;" horiz-adv-x="364" 
d="M162 744l-115 -162l-47 31l99 174zM344 744l-115 -162l-47 31l99 174z" />
    <glyph glyph-name="endash" unicode="&#x2013;" horiz-adv-x="498" 
d="M493 231h-500l12 72h500z" />
    <glyph glyph-name="emdash" unicode="&#x2014;" horiz-adv-x="1000" 
d="M993 231h-999l12 72h1000z" />
    <glyph glyph-name="afii00208" unicode="&#x2015;" horiz-adv-x="296" 
d="M307 378l-11 -70h-268l12 70h267z" />
    <glyph glyph-name="quoteleft" unicode="&#x2018;" horiz-adv-x="220" 
d="M260 748q-30 -53 -47 -107t-24 -125h-102q3 40 14.5 77.5t27.5 71t35 61.5t37 50l59 -28v0z" />
    <glyph glyph-name="quoteright" unicode="&#x2019;" horiz-adv-x="220" 
d="M259 770q-3 -40 -14.5 -77.5t-27.5 -71t-35 -61.5t-37 -50l-59 28q30 53 46.5 107t24.5 125h102v0z" />
    <glyph glyph-name="quotesinglbase" unicode="&#x201a;" horiz-adv-x="208" 
d="M143 112q-3 -40 -14.5 -77.5t-27.5 -71t-35 -61.5t-37 -50l-59 28q30 53 46.5 107t24.5 125h102v0z" />
    <glyph glyph-name="quotedblleft" unicode="&#x201c;" horiz-adv-x="403" 
d="M260 748q-30 -53 -47 -107t-24 -125h-102q3 40 14.5 77.5t27.5 71t35 61.5t37 50l59 -28v0zM443 748q-30 -53 -47 -107t-24 -125h-102q3 40 14.5 77.5t27.5 71t35 61.5t37 50l59 -28v0z" />
    <glyph glyph-name="quotedblright" unicode="&#x201d;" horiz-adv-x="403" 
d="M259 770q-3 -40 -14.5 -77.5t-27.5 -71t-35 -61.5t-37 -50l-59 28q30 53 46.5 107t24.5 125h102v0zM442 770q-3 -40 -14.5 -77.5t-27.5 -71t-35 -61.5t-37 -50l-59 28q30 53 46.5 107t24.5 125h102v0z" />
    <glyph glyph-name="quotedblbase" unicode="&#x201e;" horiz-adv-x="391" 
d="M143 112q-3 -40 -14.5 -77.5t-27.5 -71t-35 -61.5t-37 -50l-59 28q30 53 46.5 107t24.5 125h102v0zM326 112q-3 -40 -14.5 -77.5t-27.5 -71t-35 -61.5t-37 -50l-59 28q30 53 46.5 107t24.5 125h102v0z" />
    <glyph glyph-name="dagger" unicode="&#x2020;" horiz-adv-x="480" 
d="M453 440l-159 27l3 -146l-16 -96l-87 -374h-45l26 378l16 95l49 143l-168 -25l17 104l159 -29v186h114l-59 -186l167 27z" />
    <glyph glyph-name="daggerdbl" unicode="&#x2021;" horiz-adv-x="480" 
d="M456 440l-159 27l4 -143l-13 -80l-51 -150l168 27l-17 -104l-159 27l-1 -193h-113l61 193l-168 -25l16 105l160 -30l-3 156l12 79l52 138l-170 -25l18 104l159 -29v186h113l-60 -186l168 27z" />
    <glyph glyph-name="bullet" unicode="&#x2022;" horiz-adv-x="518" 
d="M413 292q0 -32 -12.5 -60.5t-33.5 -49.5t-49.5 -33.5t-59.5 -12.5q-32 0 -59.5 12.5t-48.5 33.5t-33 49.5t-12 60.5t12 60t32.5 49t48.5 33.5t60 12.5t60 -12.5t49 -33.5t33.5 -49t12.5 -60z" />
    <glyph glyph-name="ellipsis" unicode="&#x2026;" horiz-adv-x="796" 
d="M140 60q0 -30 -18.5 -50.5t-49.5 -20.5q-27 0 -43 16.5t-16 46.5q0 31 17.5 51t48.5 20q26 0 43.5 -16.5t17.5 -46.5zM439 60q0 -30 -18.5 -50.5t-49.5 -20.5q-27 0 -43 16.5t-16 46.5q0 31 17.5 51t48.5 20q26 0 43.5 -16.5t17.5 -46.5zM730 60q0 -30 -18.5 -50.5
t-49.5 -20.5q-27 0 -43 16.5t-16 46.5q0 31 17.5 51t48.5 20q26 0 43.5 -16.5t17.5 -46.5z" />
    <glyph glyph-name="perthousand" unicode="&#x2030;" horiz-adv-x="1029" 
d="M1009 163q0 -36 -12 -68t-34 -55.5t-53 -37t-69 -13.5q-69 0 -108.5 42t-39.5 110q0 38 12.5 69.5t35 54t53.5 35t68 12.5q66 0 106.5 -40t40.5 -109zM374 563q0 -36 -12 -68t-34 -55.5t-53 -37t-69 -13.5q-69 0 -108.5 42t-39.5 110q0 38 12.5 69.5t35 54t53.5 35
t68 12.5q66 0 106.5 -40t40.5 -109zM89 0h-89l629 706h88zM657 163q0 -36 -12 -68t-34 -55.5t-53 -37t-69 -13.5q-69 0 -108.5 42t-39.5 110q0 38 12.5 69.5t35 54t53.5 35t68 12.5q66 0 106.5 -40t40.5 -109zM934 157q0 19 -4.5 36.5t-14.5 31t-24.5 21.5t-35.5 8
q-44 0 -65.5 -33t-21.5 -78q0 -38 17.5 -66t58.5 -28q44 0 67 32t23 76zM299 557q0 19 -4.5 36.5t-14.5 31t-24.5 21.5t-35.5 8q-44 0 -65.5 -33t-21.5 -78q0 -38 17.5 -66t58.5 -28q44 0 67 32t23 76zM582 157q0 19 -4.5 36.5t-14.5 31t-24.5 21.5t-35.5 8q-44 0 -65.5 -33
t-21.5 -78q0 -38 17.5 -66t58.5 -28q44 0 67 32t23 76z" />
    <glyph glyph-name="guilsinglleft" unicode="&#x2039;" horiz-adv-x="270" 
d="M144 263l53 -209h-76l-72 211l134 186h84z" />
    <glyph glyph-name="guilsinglright" unicode="&#x203a;" horiz-adv-x="264" 
d="M86 55h-83l123 188l-53 209h75l73 -211z" />
    <glyph glyph-name="fraction" unicode="&#x2044;" horiz-adv-x="500" 
d="M70 0h-83l511 703h81z" />
    <glyph glyph-name="Euro" unicode="&#x20ac;" 
d="M541 578q-14 20 -47 38t-86 18q-43 0 -76 -13.5t-58.5 -38t-43 -58t-29.5 -73.5h253l-25 -66h-244q-8 -47 -9 -83h221l-24 -66h-196q1 -36 9.5 -66.5t26 -53.5t45 -36t68.5 -13q45 0 83 14.5t62 36.5l-21 -98q-25 -15 -63 -23t-77 -8q-66 0 -109 22t-69 57t-37 79.5
t-13 88.5h-93l25 66h67q2 22 4.5 42.5t5.5 40.5h-63l25 66h53q13 46 30.5 83t44.5 70q50 61 107 85t119 24q60 0 96 -16t53 -33z" />
    <glyph glyph-name="trademark" unicode="&#x2122;" horiz-adv-x="851" 
d="M762 309v311q-4 -11 -8 -23.5t-8 -22.5l-103 -265h-53l-99 268q-4 11 -7 22.5t-5 19.5v-310h-61v394h95l94 -262q6 -17 9.5 -29.5t5.5 -22.5q2 10 5.5 23t8.5 24l101 267h88v-394h-63zM249 647v-338h-68v338h-111v56h291v-56h-112z" />
    <glyph glyph-name="uni2139" unicode="&#x2139;" horiz-adv-x="659" 
d="M477 744q0 -32 -12.5 -61t-34 -50.5t-50 -34t-60.5 -12.5q-33 0 -61.5 12.5t-49.5 34t-33.5 50.5t-12.5 61t12.5 60.5t34 49.5t50 33.5t60.5 12.5t60.5 -12.5t50 -33.5t34 -49.5t12.5 -60.5zM120 0v39h58q9 0 14.5 6.5t5.5 12.5v426q0 15 -18 15h-60v40h322v-483
q0 -5 3.5 -11t11.5 -6h82v-39h-419z" />
    <glyph glyph-name="arrowleft" unicode="&#x2190;" horiz-adv-x="703" 
d="M177 299l260 -259h-125l-312 311l312 312h125l-260 -260h526v-104h-526z" />
    <glyph glyph-name="arrowup" unicode="&#x2191;" horiz-adv-x="623" 
d="M363 526v-526h-104v526l-259 -260v125l311 312l312 -312v-125z" />
    <glyph glyph-name="arrowright" unicode="&#x2192;" horiz-adv-x="703" 
d="M391 40h-125l260 260h-526v104h526l-260 259h125l312 -311z" />
    <glyph glyph-name="arrowdown" unicode="&#x2193;" horiz-adv-x="623" 
d="M312 0l-312 312v125l260 -260v526h104v-526l259 260v-125z" />
    <glyph glyph-name="uni2196" unicode="&#x2196;" horiz-adv-x="533" 
d="M460 66l-372 372v-367l-88 88v441h441l88 -89h-367l371 -372z" />
    <glyph glyph-name="uni2197" unicode="&#x2197;" horiz-adv-x="534" 
d="M445 71v367l-372 -371l-73 73l372 371h-367l88 89h441v-441z" />
    <glyph glyph-name="uni2198" unicode="&#x2198;" horiz-adv-x="533" 
d="M92 103l-88 89h367l-371 372l73 73l371 -372v367l89 -88v-441h-441z" />
    <glyph glyph-name="uni2199" unicode="&#x2199;" horiz-adv-x="534" 
d="M162 191h367l-88 -88h-441v441l89 88v-367l372 371l73 -73z" />
    <glyph glyph-name="minus" unicode="&#x2212;" horiz-adv-x="640" 
d="M35 316v70h594v-70h-594z" />
    <glyph glyph-name="uni2219" unicode="&#x2219;" horiz-adv-x="240" 
d="M196 300q0 -33 -19.5 -54.5t-53.5 -21.5q-32 0 -52 20t-20 56q0 35 19.5 56t51.5 21t53 -20.5t21 -56.5z" />
    <glyph glyph-name="notequal" unicode="&#x2260;" horiz-adv-x="640" 
d="M299 189l-88 -170l-62 28l73 142h-187v71h226l90 179h-316v71h354l85 169l62 -29l-69 -140h162v-71h-200l-90 -179h290v-71h-330z" />
    <glyph glyph-name="lessequal" unicode="&#x2264;" horiz-adv-x="711" 
d="M35 414v44l665 293v-77l-551 -236l551 -236v-80zM35 0v70h665v-70h-665z" />
    <glyph glyph-name="greaterequal" unicode="&#x2265;" horiz-adv-x="711" 
d="M35 122v80l550 236l-550 236v77l665 -293v-44zM35 0v70h665v-70h-665z" />
    <glyph glyph-name="SF100000" unicode="&#x2500;" horiz-adv-x="500" 
d="M0 0v35h500v-35h-500z" />
    <glyph glyph-name="uni254C" unicode="&#x254c;" horiz-adv-x="500" 
d="M0 0v35h250v-35h-250z" />
    <glyph glyph-name="uni25A3" unicode="&#x25a3;" horiz-adv-x="703" 
d="M0 0v703h703v-703h-703zM631 631h-559v-559h559v559zM156 156v391h391v-391h-391z" />
    <glyph glyph-name="uni25B6" unicode="&#x25b6;" horiz-adv-x="703" 
d="M-1 0v703l703 -352z" />
    <glyph glyph-name="uni25C0" unicode="&#x25c0;" horiz-adv-x="703" 
d="M0 351l703 352v-703z" />
    <glyph glyph-name="lozenge" unicode="&#x25ca;" horiz-adv-x="537" 
d="M279 2l-252 368l254 382l252 -367zM280 649l-183 -277l183 -272l180 282z" />
    <glyph glyph-name="uni25FC" unicode="&#x25fc;" horiz-adv-x="703" 
d="M0 0v703h703v-703h-703z" />
    <glyph glyph-name="uni25FD" unicode="&#x25fd;" horiz-adv-x="703" 
d="M631 72h-559v559h559v-559z" />
    <glyph glyph-name="uni25FE" unicode="&#x25fe;" horiz-adv-x="703" 
d="M156 156v391h391v-391h-391z" />
    <glyph glyph-name="uni260E" unicode="&#x260e;" horiz-adv-x="955" 
d="M955 484q2 -26 -5 -44.5t-16 -26.5q-8 -8 -24.5 -13t-50.5 -5q-149 0 -149 116v19q73 -41 151 -41q43 0 93 17zM954 543q-23 -8 -45.5 -12.5t-45.5 -4.5q-37 0 -76 11.5t-77 34.5v11q0 76 -235 76q-230 0 -230 -76v-11q-80 -40 -157 -40q-22 0 -43.5 3t-44.5 8
q7 43 20.5 82t35.5 74q55 20 101.5 32.5t99.5 21.5q105 18 221 18q114 0 219 -18q53 -9 100.5 -22t100.5 -32q22 -39 35.5 -78t20.5 -78zM106 0v119q0 77 51 158l132 212v95l112 14v-83h153v83l112 -14v-95l132 -212q51 -81 51 -158v-119h-743zM245 511q0 -110 -149 -110
q-56 0 -76 17t-20 65v24q42 -12 90 -12q42 0 80.5 9.5t74.5 29.5v-23zM648 301q0 25 -13.5 47.5t-37 39t-54.5 26t-66 9.5t-66 -9.5t-54 -26t-36.5 -39t-13.5 -47.5q0 -26 13.5 -48t36.5 -38.5t54 -26t66 -9.5t66 9.5t54.5 26t37 38.5t13.5 48z" />
    <glyph glyph-name="uni2610" unicode="&#x2610;" horiz-adv-x="703" 
d="M0 0v703h703v-703h-703zM631 631h-559v-559h559v559z" />
    <glyph glyph-name="uni2611" unicode="&#x2611;" horiz-adv-x="703" 
d="M802 718q-53 -44 -99 -93v-625h-703v703h703v-17q20 15 41 30.5t44 29.5zM631 542q-8 -11 -16 -20t-20 -24q-24 -30 -49.5 -66.5t-50.5 -77t-48.5 -83t-42.5 -83.5l-90 -52l-172 298l89 52l116 -200q33 60 87.5 131.5t124.5 143.5q16 17 34 33.5t38 33.5v3h-559v-559h559
v470z" />
    <glyph glyph-name="uni2612" unicode="&#x2612;" horiz-adv-x="703" 
d="M0 0v703h703v-703h-703zM631 631h-559v-559h559v559zM504 138l-153 153l-152 -153l-61 61l153 152l-153 153l61 61l152 -153l153 153l61 -61l-153 -153l153 -152z" />
    <glyph glyph-name="uni26A0" unicode="&#x26a0;" horiz-adv-x="1020" 
d="M1020 58q0 -24 -17 -41t-42 -17h-902q-25 0 -42 17t-17 43q0 16 7 29l449 776q8 14 22 24.5t32 10.5q17 0 30.5 -9t21.5 -23l449 -777q4 -7 6.5 -15t2.5 -18zM510 782l-400 -693h800zM545 333q-2 -16 -9 -30t-26 -14t-26.5 14t-9.5 30l-27 231q-2 16 0.5 33t10 31
t20.5 22.5t32 8.5t32 -8.5t20 -22.5t9.5 -31t0.5 -33zM567 180q0 -24 -17 -41t-41 -17t-41.5 17t-17.5 41t17.5 41t41.5 17t41 -17t17 -41z" />
    <glyph glyph-name="uni2702" unicode="&#x2702;" horiz-adv-x="1170" 
d="M1170 -124q-36 -10 -72.5 -13.5t-70.5 -3.5q-54 0 -125 7.5t-161 24.5q-61 11 -107 22t-82.5 21.5t-65.5 20.5t-54 20q-16 -12 -28.5 -20.5t-27.5 -14.5t-33.5 -8.5t-46.5 -2.5q-15 0 -33.5 1t-38.5 3q17 -12 26.5 -25.5t9.5 -32.5q0 -22 -11.5 -38.5t-30.5 -29.5
q-23 -16 -49 -22t-50 -6q-26 0 -51.5 7.5t-44.5 24.5q-23 20 -23 52q0 19 7 32.5t18.5 22.5t26 15t29.5 11q30 10 60.5 16.5t73.5 14.5t71.5 14.5t54.5 19.5q-30 14 -58.5 21t-67.5 14q-30 5 -49 9t-33.5 7t-26 6t-25.5 8q-35 11 -58 28.5t-23 52.5q0 32 23 52
q19 17 44.5 24.5t51.5 7.5q24 0 50 -6t49 -22q19 -13 30.5 -29.5t11.5 -38.5q0 -19 -9.5 -32t-26.5 -25q20 2 38.5 3t33.5 1q28 0 46.5 -2.5t33.5 -8.5t27.5 -14.5t28.5 -20.5q25 10 60.5 21.5t76.5 22.5t85 21t87 18q87 15 153 24t129 9q38 0 74.5 -4t72.5 -14l-593 -133z
M210 141q0 13 -10.5 24.5t-29.5 18.5q-10 4 -23.5 6.5t-28.5 2.5q-34 0 -49 -12t-15 -29q0 -16 10.5 -24t22.5 -13q27 -11 55 -11q10 0 22 2t22.5 6.5t17 11.5t6.5 17zM210 -122q0 10 -6.5 17t-17 11.5t-22.5 6.5t-22 2q-28 0 -55 -11q-12 -5 -22.5 -13t-10.5 -23
q0 -17 15 -30t48 -13q16 0 29.5 3t23.5 7q40 15 40 43z" />
    <glyph glyph-name="uni2706" unicode="&#x2706;" horiz-adv-x="900" 
d="M900 393q0 -93 -35.5 -175t-96.5 -143t-143 -96.5t-175 -35.5t-175 35.5t-143 96.5t-96.5 143t-35.5 175t35.5 175t96.5 143t143 96.5t175 35.5t175 -35.5t143 -96.5t96.5 -143t35.5 -175zM865 393q0 85 -32.5 161t-89 132.5t-132 89.5t-161.5 33t-161.5 -33t-132 -89.5
t-89 -132.5t-32.5 -161q0 -86 32.5 -161.5t89 -132t132 -89t161.5 -32.5t161.5 32.5t132 89t89 132t32.5 161.5zM442 668q14 -52 0 -81t-52 -39l-12 -3q15 55 0 108q-5 16 -11.5 30t-16.5 29l15 4q35 9 51 -1t26 -47zM496 70q-30 -3 -58.5 -1t-55.5 10q-23 32 -41.5 65
t-30.5 59q-14 31 -27 67.5t-24 76.5q-12 48 -18 81.5t-9 67.5q-6 71 0 144q43 42 94 65q11 -16 17 -29.5t10 -27.5q13 -51 -3 -111l-7 -2q-51 -15 -9 -171q20 -75 43 -110.5t49 -27.5l7 2q22 -25 35 -50t19 -47q3 -11 5.5 -27.5t3.5 -33.5zM576 105q-8 -17 -40 -25l-16 -4
q1 27 -8 62q-8 30 -21 51.5t-33 44.5l16 4q74 18 100 -80q5 -21 5 -33.5t-3 -19.5z" />
    <glyph glyph-name="uni2709" unicode="&#x2709;" horiz-adv-x="1055" 
d="M0 0v779h1055v-779h-1055zM1020 721l-322 -341l322 -322v663zM60 744l385 -409h164l385 409h-934zM675 354l-51 -54h-194l-50 54l-320 -319h934zM34 721v-663l322 322z" />
    <glyph glyph-name="uni270E" unicode="&#x270e;" horiz-adv-x="900" 
d="M628 133l-628 628l139 139l628 -628l133 -272zM134 849l-27 -28l582 -582l28 27zM748 253l-101 -100l131 -68l37 37zM79 793l-28 -27l583 -583l28 28z" />
    <glyph glyph-name="uni2713" unicode="&#x2713;" horiz-adv-x="703" 
d="M802 718q-45 -38 -98.5 -94t-108.5 -126q-60 -77 -107.5 -154.5t-84.5 -155.5l-90 -52l-172 298l89 52l116 -200q33 60 87.5 131.5t124.5 143.5q45 45 102.5 92.5t126.5 92.5z" />
    <glyph glyph-name="uni2717" unicode="&#x2717;" horiz-adv-x="703" 
d="M504 138l-153 153l-152 -153l-61 61l153 152l-153 153l61 61l152 -153l153 153l61 -61l-153 -153l153 -152z" />
    <glyph glyph-name="uni2794" unicode="&#x2794;" horiz-adv-x="703" 
d="M391 40h-196l243 243h-438v138h438l-243 242h196l312 -311z" />
    <glyph glyph-name="uniE003" unicode="&#xe003;" horiz-adv-x="181" 
d="M162 719l-115 -162l-47 31l99 174z" />
    <glyph glyph-name="uniE719" unicode="&#xe719;" horiz-adv-x="130" 
d="M110 725q-8 -51 -20 -87q-9 -30 -18.5 -51.5t-13.5 -28.5l-5 -7h-53q27 93 27 168v6h83z" />
    <glyph glyph-name="uniE784" unicode="&#xe784;" horiz-adv-x="130" 
d="M110 757q-27 -93 -27 -168v-6h-83q8 51 20 87q9 30 18.5 51.5t13.5 28.5l5 7h53z" />
    <glyph glyph-name="uniF6BE" unicode="&#xf6be;" horiz-adv-x="231" 
d="M204 517l-96 -601q-11 -73 -46.5 -109.5t-113.5 -36.5q-42 0 -71 13l12 71q30 -13 52 -13q40 0 56 20.5t23 68.5l94 587h90z" />
    <glyph glyph-name="exclam" unicode="!" horiz-adv-x="268" 
d="M155 174h-80l75 513l95 16zM160 60q0 -30 -18 -49.5t-47 -19.5q-26 0 -41 16t-15 44q0 30 17.5 50t46.5 20q28 0 42.5 -17.5t14.5 -43.5z" />
    <glyph glyph-name="quotedbl" unicode="&#x22;" horiz-adv-x="287" 
d="M137 487h-57l23 216h81zM266 487h-57l23 216h81z" />
    </font>
</defs>
</svg>
