<?xml version="1.0" standalone="no"?>
<!DOCTYPE svg PUBLIC "-//W3C//DTD SVG 1.1//EN" "http://www.w3.org/Graphics/SVG/1.1/DTD/svg11.dtd" >
<svg>
<metadata>
Created by FontForge 20120731 at Mon Nov 17 03:26:00 2014
 By Orthosie Webhosting
(c) Copyright: Gerard Unger, 2005. Exclusive design for Allianz International. Webfonts produced by Just Another Foundry in 2011. Unauthorised use strictly prohibited. Allianz Sans and Allianz Serif are trademarks of Allianz International, that may be registered in some jurisdictions. ALL RIGHTS RESERVED.
</metadata>
<defs>
<font id="" horiz-adv-x="488" >
  <font-face 
    font-family=""
    font-weight="300"
    font-style="italic"
    font-stretch="normal"
    units-per-em="1000"
    panose-1="2 0 5 6 2 0 0 9 0 4"
    ascent="770"
    descent="-230"
    x-height="512"
    cap-height="703"
    bbox="-116 -230 1170 939"
    underline-thickness="48"
    underline-position="-60"
    slope="-9"
    unicode-range="U+0020-FB02"
  />
<missing-glyph horiz-adv-x="200" 
 />
    <glyph glyph-name="fi" unicode="fi" horiz-adv-x="445" 
d="M450 699q0 -20 -11 -32t-31 -12q-21 0 -29.5 11.5t-8.5 26.5q0 13 6 24q-12 3 -26 4.5t-27 1.5q-40 0 -63.5 -13.5t-36 -33t-17.5 -41.5t-8 -40l-13 -83h226l-81 -512h-60l73 463h-166l-109 -693h-60l109 693h-55l8 49h55l13 78q4 23 11 54t26.5 59t54.5 47.5t95 19.5
q19 0 41 -3t41 -11t31 -21.5t12 -35.5z" />
    <glyph glyph-name="fl" unicode="fl" horiz-adv-x="449" 
d="M335 0h-60l112 705q-13 8 -33 12t-42 4q-34 0 -54.5 -10.5t-32.5 -28t-17.5 -41t-9.5 -49.5l-13 -80h106l-8 -49h-106l-109 -693h-60l109 693h-55l8 49h55l14 85q6 34 15.5 65.5t29 55.5t50.5 38t80 14q31 0 51.5 -5t31.5 -10l60 15z" />
    <glyph glyph-name=".notdef" horiz-adv-x="200" 
 />
    <glyph glyph-name=".null" horiz-adv-x="0" 
 />
    <glyph glyph-name="nonmarkingreturn" horiz-adv-x="200" 
 />
    <glyph glyph-name="space" unicode=" " horiz-adv-x="200" 
 />
    <glyph glyph-name="numbersign" unicode="#" horiz-adv-x="588" 
d="M565 456h-111l-37 -204h111l-9 -50h-111l-36 -202h-56l36 202h-169l-36 -202h-56l36 202h-111l9 50h110l37 204h-111l9 50h111l35 197h57l-36 -197h169l35 197h57l-36 -197h111zM228 456l-37 -204h170l37 204h-170z" />
    <glyph glyph-name="dollar" unicode="$" 
d="M438 596q-13 17 -43 34.5t-70 24.5l-46 -276l10 -8q18 -15 36.5 -32.5t33.5 -40t24.5 -51t9.5 -65.5q0 -24 -6 -54.5t-25 -58.5t-54 -49.5t-93 -27.5l-16 -98h-52l15 95q-46 1 -89.5 14t-66.5 30l10 67q18 -23 59.5 -40t95.5 -18l48 294l-26 20q-20 15 -38 33t-31.5 40
t-21.5 48.5t-8 59.5q0 80 48.5 126.5t139.5 48.5l14 81l54 12l-16 -97q37 -5 68.5 -19.5t45.5 -28.5zM273 659q-56 -2 -86 -35.5t-30 -87.5q0 -20 4.5 -35.5t13.5 -29.5t22.5 -29t31.5 -33l3 -3zM330 179q0 36 -13.5 65.5t-49.5 61.5l-43 -260q106 21 106 133z" />
    <glyph glyph-name="percent" unicode="%" horiz-adv-x="649" 
d="M371 567q0 -36 -11.5 -67t-32.5 -54t-51 -36.5t-66 -13.5q-66 0 -103.5 41.5t-37.5 107.5q0 37 12 68t33.5 53t51 34.5t64.5 12.5q63 0 102 -38.5t39 -107.5zM63 0h-73l629 706h72zM609 159q0 -36 -11.5 -67t-32.5 -54t-51 -36.5t-66 -13.5q-66 0 -103.5 41.5
t-37.5 107.5q0 37 12 68t33.5 53t51 34.5t64.5 12.5q63 0 102 -38.5t39 -107.5zM311 561q0 21 -5.5 39.5t-16 32.5t-27 22.5t-38.5 8.5q-24 0 -41.5 -9.5t-29 -26t-17.5 -37.5t-6 -44q0 -41 19.5 -70.5t63.5 -29.5q24 0 42 9t30.5 24.5t19 36.5t6.5 44zM549 153
q0 21 -5.5 39.5t-16 32.5t-27 22.5t-38.5 8.5q-24 0 -41.5 -9.5t-29 -26t-17.5 -37.5t-6 -44q0 -41 19.5 -70.5t63.5 -29.5q24 0 42 9t30.5 24.5t19 36.5t6.5 44z" />
    <glyph glyph-name="ampersand" unicode="&#x26;" horiz-adv-x="592" 
d="M544 329q-2 -66 -21 -126.5t-67 -108.5l60 -94h-76l-30 48q-23 -21 -66 -40t-106 -19q-60 0 -97.5 19t-58.5 47.5t-29 62.5t-8 65q0 46 13 78t34.5 54.5t48.5 38.5t55 31l-11 17q-51 78 -51 155q0 16 4 42t19 51.5t45.5 44t83.5 18.5q52 0 81.5 -17.5t44.5 -41.5
t18.5 -49t3.5 -39q0 -66 -38.5 -120t-111.5 -80l145 -229q18 18 35 67.5t17 120.5v4h63zM371 570q0 44 -19 69t-69 25q-9 0 -23.5 -2.5t-28.5 -12t-24 -29.5t-10 -55q0 -38 12.5 -70.5t32.5 -63.5l18 -27q21 8 40.5 22t35.5 34t25.5 47.5t9.5 62.5zM221 345
q-11 -4 -29.5 -13.5t-36.5 -28t-31.5 -47t-13.5 -70.5q0 -63 34.5 -104t105.5 -41q43 0 78.5 14t55.5 33z" />
    <glyph glyph-name="quotesingle" unicode="'" horiz-adv-x="143" 
d="M117 487h-47l24 216h69z" />
    <glyph glyph-name="parenleft" unicode="(" horiz-adv-x="351" 
d="M414 770q-138 -116 -213 -261t-75 -319q0 -127 38 -231t103 -189h-68q-12 14 -23.5 30.5t-19.5 30.5q-97 158 -97 354q0 167 63.5 305.5t172.5 241.5q14 14 24 22l20 16h75v0z" />
    <glyph glyph-name="parenright" unicode=")" horiz-adv-x="351" 
d="M292 355q0 -167 -63.5 -305.5t-172.5 -241.5q-11 -11 -21 -19.5t-23 -18.5h-75q138 116 213 261t75 319q0 127 -38 231t-103 189h68q12 -14 23.5 -30.5t19.5 -30.5q97 -158 97 -354z" />
    <glyph glyph-name="asterisk" unicode="*" horiz-adv-x="383" 
d="M262 554l122 -54l-45 -61l-97 88v-144h-73l42 144l-125 -88l-26 61l141 54l-122 56l46 60l98 -87v144h73l-44 -144l126 87l25 -60z" />
    <glyph glyph-name="plus" unicode="+" horiz-adv-x="640" 
d="M365 320v-279h-64v279h-265v59h265v278h64v-278h265v-59h-265z" />
    <glyph glyph-name="comma" unicode="," horiz-adv-x="180" 
d="M116 92q-4 -35 -15 -67.5t-25.5 -62t-31.5 -55.5t-33 -47l-41 20q32 56 47.5 105t21.5 107h77v0z" />
    <glyph glyph-name="hyphen" unicode="-" horiz-adv-x="312" 
d="M266 234h-231l11 63h231z" />
    <glyph glyph-name="period" unicode="." horiz-adv-x="182" 
d="M114 47q0 -26 -15 -42t-40 -16q-21 0 -33.5 13t-12.5 37q0 26 14 42.5t38 16.5q22 0 35.5 -14t13.5 -37z" />
    <glyph glyph-name="slash" unicode="/" horiz-adv-x="337" 
d="M20 -177h-61l335 947h63z" />
    <glyph glyph-name="zero" unicode="0" 
d="M474 479q0 -41 -4 -86t-11.5 -89.5t-18.5 -86.5t-26 -77q-20 -48 -44.5 -78t-50.5 -46t-52 -21.5t-50 -5.5q-58 0 -92 22t-52 56t-23.5 75.5t-5.5 80.5q0 41 4 86t11.5 89.5t18.5 86.5t26 77q20 48 44.5 78t50.5 46t52 21.5t50 5.5q58 0 92 -22t52 -56t23.5 -75.5
t5.5 -80.5zM410 494q0 25 -3 54.5t-14 54.5t-33.5 41.5t-62.5 16.5q-55 0 -85.5 -32t-50.5 -83q-12 -32 -22 -72.5t-16.5 -85t-10.5 -91t-4 -89.5q0 -25 2.5 -54.5t14 -54.5t34 -41.5t62.5 -16.5q55 0 85.5 32t50.5 83q12 31 22 72t16.5 85.5t10.5 91t4 89.5z" />
    <glyph glyph-name="one" unicode="1" 
d="M244 0h-63l100 625l-143 -27l7 48q19 3 43 8.5t48 13.5t46.5 17t38.5 20h35z" />
    <glyph glyph-name="two" unicode="2" 
d="M467 534q0 -45 -13 -84t-35 -73t-51 -64.5t-60 -60.5q-54 -52 -108 -99.5t-116 -95.5h306l-9 -57h-378l9 60q67 54 132.5 111.5t136.5 128.5q24 24 46 49t38 52.5t25.5 59t9.5 69.5q0 13 -3 34.5t-16 42.5t-39.5 36.5t-74.5 15.5q-39 0 -82.5 -12.5t-74.5 -39.5l10 67
q28 17 69.5 27.5t86.5 10.5q91 0 141 -45t50 -133z" />
    <glyph glyph-name="three" unicode="3" 
d="M451 550q0 -81 -44 -128t-110 -57q22 -3 44 -12.5t40 -28.5t29.5 -48t11.5 -70q0 -15 -2.5 -36.5t-11 -45.5t-24.5 -47.5t-43.5 -42.5t-68 -30.5t-96.5 -11.5q-67 0 -108 14.5t-61 28.5l6 66q20 -20 58.5 -38t104.5 -18q52 0 87 13t56 35.5t30 51t9 60.5q0 65 -38 100.5
t-129 35.5h-25l9 48h28q51 0 86.5 12t57 33t31 49t9.5 59q0 56 -29.5 86.5t-92.5 30.5q-47 0 -83.5 -15.5t-56.5 -36.5l10 67q24 18 63 28t79 10q36 0 67.5 -9t55 -28.5t37.5 -50t14 -74.5z" />
    <glyph glyph-name="four" unicode="4" 
d="M459 180h-81l-28 -180h-64l29 180h-306l10 62l383 466h60l-74 -471h80zM385 622q-6 -11 -18.5 -29t-31.5 -41l-256 -315h245z" />
    <glyph glyph-name="five" unicode="5" 
d="M474 646h-280l-37 -224q11 4 31 7.5t48 3.5q97 0 144.5 -53t47.5 -148q0 -59 -17.5 -104t-50.5 -75t-79 -45.5t-103 -15.5q-59 0 -101 13.5t-64 29.5l6 66q21 -21 60 -38.5t99 -17.5q53 0 88.5 15.5t57.5 41.5t31 60t9 71q0 70 -34 109t-119 39q-36 0 -69 -6.5t-53 -17.5
l56 346h338z" />
    <glyph glyph-name="six" unicode="6" 
d="M503 603q-17 26 -54 41.5t-86 15.5q-61 0 -101 -24.5t-65 -63t-39 -85.5t-23 -93q16 17 48.5 34t89.5 17t91.5 -18.5t53 -47t25 -63.5t6.5 -67q0 -50 -12 -97t-38 -83t-67.5 -57.5t-101.5 -21.5q-86 0 -133 52t-47 173q0 34 4 75t11.5 84t19 84.5t26.5 77.5
q15 35 36.5 67t52 56.5t70.5 39t92 14.5q49 0 90 -12.5t61 -34.5zM385 243q0 31 -5 58.5t-19 47.5t-38 32t-61 12q-48 0 -83 -17t-53 -39q-5 -25 -9 -58.5t-4 -73.5q0 -31 4 -60t17 -52t36.5 -37t61.5 -14q33 0 61 11.5t48.5 36t32 62.5t11.5 91z" />
    <glyph glyph-name="seven" unicode="7" 
d="M486 674q-11 -61 -33.5 -114t-53.5 -98l-98 -144q-23 -34 -40.5 -64.5t-30.5 -62.5t-23 -68t-17 -81l-7 -42h-64l5 31q8 49 17.5 86t24.5 73t38 74.5t58 90.5l69 101q25 37 41.5 65t26.5 50t15 38.5t7 30.5l1 6h-319l9 57h379z" />
    <glyph glyph-name="eight" unicode="8" 
d="M475 553q0 -42 -14 -74.5t-36.5 -55.5t-50.5 -38.5t-56 -22.5l11 -8q19 -14 38 -30.5t34 -38t24 -49.5t9 -64q0 -13 -2 -31t-8.5 -38.5t-20 -41t-36 -36.5t-55.5 -26t-80 -10q-56 0 -93.5 14.5t-60 38.5t-32 55t-9.5 64q0 45 15 80t39.5 61t55.5 43t63 26l-10 8
q-19 15 -35.5 32t-29 36.5t-19.5 42.5t-7 52q0 25 7.5 55t28 56t57 43t95.5 17q53 0 87.5 -14.5t54.5 -37.5t28 -51.5t8 -56.5zM411 553q0 39 -13 61.5t-31.5 34t-38.5 14.5t-34 3q-37 0 -61 -11t-37.5 -28.5t-19 -39t-5.5 -42.5q0 -39 16.5 -69t56.5 -59l35 -26
q25 7 48.5 19.5t42 32.5t30 47t11.5 63zM371 168q0 45 -18.5 78t-60.5 65l-41 31q-27 -8 -53.5 -22t-48.5 -36t-35.5 -52t-13.5 -70q0 -41 14 -66t35 -38t45 -17t43 -4q39 0 64.5 11t41 29t22 41.5t6.5 49.5z" />
    <glyph glyph-name="nine" unicode="9" 
d="M466 488q0 -34 -4 -75t-11.5 -84t-19 -84.5t-26.5 -77.5q-15 -35 -36.5 -67t-52 -56.5t-70.5 -39t-92 -14.5q-49 0 -90 12.5t-61 34.5l10 63q20 -29 58.5 -43t81.5 -14q61 0 101 24.5t65 63t39 85.5t23 93q-16 -17 -48.5 -34t-89.5 -17t-91.5 18.5t-53 47t-25 63.5
t-6.5 67q0 50 12 97t38 83t67.5 57.5t101.5 21.5q86 0 133 -52t47 -173zM403 498q0 31 -4.5 60t-17 52t-36 37t-61.5 14q-33 0 -61 -11.5t-48.5 -36t-32 -62.5t-11.5 -91q0 -31 5 -58.5t19 -47.5t37.5 -32t61.5 -12q48 0 83 17t53 39q5 25 9 58.5t4 73.5z" />
    <glyph glyph-name="colon" unicode=":" horiz-adv-x="194" 
d="M114 47q0 -26 -15 -42t-40 -16q-21 0 -33.5 13t-12.5 37q0 26 14 42.5t38 16.5q22 0 35.5 -14t13.5 -37zM176 455q0 -26 -15 -42t-40 -16q-21 0 -33.5 13t-12.5 37q0 26 14 42.5t38 16.5q22 0 35.5 -14t13.5 -37z" />
    <glyph glyph-name="semicolon" unicode=";" horiz-adv-x="200" 
d="M185 455q0 -26 -15 -42t-40 -16q-21 0 -33.5 13t-12.5 37q0 26 14 42.5t38 16.5q22 0 35.5 -14t13.5 -37zM126 92q-4 -35 -15 -67.5t-25.5 -62t-31.5 -55.5t-33 -47l-41 20q32 56 47.5 105t21.5 107h77v0z" />
    <glyph glyph-name="less" unicode="&#x3c;" horiz-adv-x="711" 
d="M36 332v37l665 292v-65l-569 -244l569 -243v-68z" />
    <glyph glyph-name="equal" unicode="=" horiz-adv-x="640" 
d="M36 194v59h594v-59h-594zM36 443v59h594v-59h-594z" />
    <glyph glyph-name="greater" unicode="&#x3e;" horiz-adv-x="711" 
d="M36 41v68l569 243l-569 244v65l665 -292v-37z" />
    <glyph glyph-name="question" unicode="?" horiz-adv-x="396" 
d="M406 557q0 -51 -23.5 -98t-80.5 -96l-75 -64q-15 -13 -24.5 -24t-15.5 -22.5t-9.5 -24t-6.5 -28.5l-7 -42h-56l8 54q5 35 20 65t46 56l82 71q35 31 56.5 65.5t21.5 79.5q0 22 -6 42t-20 35t-37 24t-57 9q-40 0 -78 -13.5t-63 -39.5l10 69q31 20 71 29t76 9q35 0 66 -9
t53.5 -28t35.5 -48.5t13 -70.5zM176 49q0 -27 -15.5 -43.5t-39.5 -16.5q-22 0 -33.5 14t-11.5 37q0 26 14.5 43t39.5 17q24 0 35 -15t11 -36z" />
    <glyph glyph-name="at" unicode="@" horiz-adv-x="937" 
d="M887 329q0 -44 -8 -87t-26 -81.5t-47 -70.5t-71 -55q-45 -24 -84.5 -30t-81.5 -6h-19.5t-24.5 1l22 121q-8 -14 -23.5 -38.5t-39.5 -47.5q-26 -24 -50.5 -33t-50.5 -9q-59 0 -91.5 41t-32.5 137q0 57 12.5 118.5t41 113t74 84.5t111.5 33q41 0 67.5 -11.5t40.5 -24.5
l59 34l-75 -470h6q25 0 54.5 6.5t55.5 20.5q57 31 87 95.5t30 152.5q0 73 -21.5 131t-61 98.5t-96.5 61.5t-128 21q-39 0 -84 -7.5t-89.5 -25.5t-85 -47.5t-71.5 -74.5t-49.5 -106.5t-18.5 -142.5q0 -88 23.5 -158.5t71 -119.5t118 -75t164.5 -26q85 0 141 17.5t87 34.5
l-5 -64q-27 -15 -82.5 -29t-137.5 -14q-110 0 -194 30.5t-140 86t-84.5 134t-28.5 174.5q0 106 33 192.5t93 147.5t143.5 94.5t184.5 33.5q80 0 150 -22t121.5 -67t81 -113t29.5 -159zM591 437q-11 11 -32.5 21.5t-54.5 10.5q-40 0 -69 -17t-49.5 -44.5t-32.5 -61t-19 -67
t-9 -63t-2 -48.5q0 -42 7 -66t17.5 -36t22.5 -15.5t22 -3.5q28 0 51 15t48 46q11 14 22.5 30.5t21.5 34.5t17 36.5t10 35.5z" />
    <glyph glyph-name="A" unicode="A" horiz-adv-x="527" 
d="M426 0l-44 256h-233l-127 -256h-62l353 706h54l122 -706h-63zM337 520q-2 9 -3.5 22.5t-3.5 28t-3.5 28t-1.5 22.5q-7 -17 -18.5 -42.5t-26.5 -56.5l-108 -218h202z" />
    <glyph glyph-name="B" unicode="B" horiz-adv-x="495" 
d="M473 551q0 -74 -39 -122t-102 -62q22 -3 42.5 -14t36.5 -30.5t25 -47t9 -64.5q0 -55 -24 -105.5t-81 -78.5q-38 -19 -85 -23t-106 -4h-114l112 703h101q61 0 99 -4.5t64 -20.5q62 -37 62 -127zM406 542q0 40 -11.5 62.5t-30 33t-41 12.5t-43.5 2h-78l-41 -261h75
q22 0 51.5 4.5t56 20.5t44.5 45.5t18 80.5zM378 209q0 46 -13 72.5t-33.5 39.5t-45.5 16t-49 3h-85l-45 -289h93q26 0 57 4t58 20t45 47.5t18 86.5z" />
    <glyph glyph-name="C" unicode="C" horiz-adv-x="524" 
d="M552 596q-20 24 -61 43.5t-102 19.5q-60 0 -104 -21t-74.5 -54.5t-49 -75.5t-28.5 -84.5t-13.5 -82t-3.5 -66.5q0 -111 45 -172t146 -61q67 0 108.5 22.5t64.5 47.5l-15 -76q-20 -16 -59 -31.5t-106 -15.5q-74 0 -122 22.5t-77 62t-40.5 93t-11.5 115.5q0 99 23.5 172.5
t60.5 127.5q28 41 60.5 66.5t65.5 39.5t66 19t64 5q68 0 109 -15.5t64 -35.5z" />
    <glyph glyph-name="D" unicode="D" horiz-adv-x="604" 
d="M584 422q0 -107 -31.5 -192.5t-89.5 -141.5q-27 -26 -57.5 -43t-67.5 -27t-80.5 -14t-95.5 -4h-127l112 703h127q50 0 87 -3t65.5 -11t50 -21.5t40.5 -33.5q34 -37 50.5 -87t16.5 -125zM517 426q0 77 -18 124.5t-57 72.5q-23 15 -58.5 22t-92.5 7h-89l-95 -601h113
q67 0 115 19.5t81 51.5t53 73t30.5 82.5t14 80.5t3.5 68z" />
    <glyph glyph-name="E" unicode="E" horiz-adv-x="441" 
d="M453 651h-251l-42 -262h211l-8 -52h-211l-46 -285h269l-11 -52h-329l112 703h315z" />
    <glyph glyph-name="F" unicode="F" horiz-adv-x="411" 
d="M453 651h-251l-42 -262h211l-8 -52h-211l-54 -337h-63l112 703h315z" />
    <glyph glyph-name="G" unicode="G" horiz-adv-x="588" 
d="M582 596q-20 22 -62.5 42.5t-111.5 20.5q-65 0 -111.5 -21t-79 -54.5t-52.5 -75.5t-31 -85t-14.5 -82t-3.5 -67q0 -55 11.5 -98t36 -73t63 -46t93.5 -16q43 0 72 7.5t42 14.5l39 250h64l-44 -275q-24 -19 -67 -34t-111 -15q-78 0 -129.5 22.5t-81.5 62t-42.5 93
t-12.5 115.5q0 99 25 173t64 128q30 41 64.5 66.5t70 39.5t70 18.5t66.5 4.5q76 0 119 -17t64 -34z" />
    <glyph glyph-name="H" unicode="H" horiz-adv-x="601" 
d="M487 0h-63l53 337h-325l-54 -337h-63l112 703h63l-50 -313h325l51 313h63z" />
    <glyph glyph-name="I" unicode="I" horiz-adv-x="212" 
d="M98 0h-63l112 703h63z" />
    <glyph glyph-name="J" unicode="J" horiz-adv-x="265" 
d="M181 146q-2 -12 -4.5 -27.5t-7.5 -31t-12 -30.5t-18 -27q-16 -17 -40 -27t-57 -10q-23 0 -38 4t-22 8l8 54q8 -6 19 -10t28 -4q22 0 36 7.5t22.5 20t13 28.5t7.5 34l89 568h63z" />
    <glyph glyph-name="K" unicode="K" horiz-adv-x="477" 
d="M223 373l224 -373h-74l-217 364l-58 -364h-63l112 703h63l-52 -324l326 324h75z" />
    <glyph glyph-name="L" unicode="L" horiz-adv-x="405" 
d="M354 0h-319l112 703h64l-105 -651h259z" />
    <glyph glyph-name="M" unicode="M" horiz-adv-x="738" 
d="M624 0h-62l104 656q-6 -21 -17.5 -51.5t-24.5 -55.5l-278 -549h-39l-102 549q-5 26 -7 56t-2 51l-104 -656h-57l112 703h89l100 -538q5 -29 6 -44.5t1 -22.5q1 5 3 10.5t5 13t8.5 18t13.5 27.5l271 536h92z" />
    <glyph glyph-name="N" unicode="N" horiz-adv-x="594" 
d="M481 0h-47l-219 513q-11 26 -20 51t-9 35l-94 -599h-57l111 703h55l209 -495q4 -11 9.5 -24t10 -25.5t8 -24.5t4.5 -19l93 588h57z" />
    <glyph glyph-name="O" unicode="O" horiz-adv-x="621" 
d="M601 433q0 -20 -3 -60.5t-13 -90t-30.5 -102t-55.5 -95t-87 -70t-126 -27.5q-54 0 -92.5 15t-64.5 38.5t-42 54t-24.5 61.5t-11 60t-2.5 51q0 20 3 60.5t13 90t30.5 102t55.5 95t87 70t126 27.5q54 0 92.5 -15t64.5 -38.5t42 -54t24.5 -61.5t11 -60.5t2.5 -50.5zM534 422
q0 68 -12.5 113.5t-35 73.5t-54.5 39.5t-71 11.5q-51 0 -93 -19.5t-77 -69.5q-21 -30 -35 -65.5t-23 -73.5t-13 -77t-4 -76q0 -68 12.5 -113.5t35 -73.5t54.5 -39.5t71 -11.5q51 0 93 19.5t77 69.5q21 30 35 65.5t23 73.5t13 77t4 76z" />
    <glyph glyph-name="P" unicode="P" horiz-adv-x="457" 
d="M477 536q0 -80 -26.5 -129t-66 -76t-85 -36t-83.5 -9h-73l-45 -286h-63l110 703h127q30 0 53 -1.5t40.5 -5t31.5 -10t26 -15.5q26 -20 40 -50t14 -85zM412 529q0 44 -10 68.5t-28.5 36.5t-44 15t-56.5 3h-73l-50 -314h72q34 0 68 8t61 29.5t44 58.5t17 95z" />
    <glyph glyph-name="Q" unicode="Q" horiz-adv-x="621" 
d="M601 432q0 -19 -2.5 -58.5t-12 -87t-28.5 -98.5t-52 -94t-82 -72t-119 -33q13 -40 41 -64.5t86 -24.5q36 0 73 10t61 30l-9 -61q-17 -11 -51 -21.5t-81 -10.5q-79 0 -122.5 36.5t-60.5 107.5q-66 14 -104 45t-58 68.5t-25.5 78t-5.5 74.5q0 23 3 66t13 93.5t30.5 103.5
t55.5 95.5t87 70t126 27.5q54 0 92.5 -14.5t64.5 -38.5t42 -54.5t24.5 -61.5t11 -60.5t2.5 -51.5zM534 422q0 68 -12.5 113.5t-35 73.5t-54.5 39.5t-71 11.5q-51 0 -93 -19.5t-77 -69.5q-21 -30 -35 -65.5t-23 -73.5t-13 -77t-4 -76q0 -68 12.5 -113.5t35 -73.5t54.5 -39.5
t71 -11.5q51 0 93 19.5t77 69.5q21 30 35 65.5t23 73.5t13 77t4 76z" />
    <glyph glyph-name="R" unicode="R" horiz-adv-x="473" 
d="M467 540q0 -46 -11.5 -79.5t-31 -56.5t-45 -36.5t-52 -21t-53 -10t-48.5 -2.5l207 -334h-75l-205 341l-55 -341h-63l112 703h101q34 0 58 -1t42 -4t31.5 -8t25.5 -13q37 -24 49.5 -60t12.5 -77zM401 537q0 42 -11 65t-28.5 34.5t-39.5 13.5t-43 2h-77l-44 -272h74
q24 0 53.5 4.5t55 20.5t43 47.5t17.5 84.5z" />
    <glyph glyph-name="S" unicode="S" horiz-adv-x="447" 
d="M438 596q-27 33 -69.5 48t-83.5 15q-64 0 -96 -32t-32 -88q0 -19 4 -34t12.5 -29.5t22.5 -28.5t34 -31l58 -49q16 -14 34 -30t34 -37.5t26.5 -50t10.5 -67.5q0 -29 -8.5 -62.5t-32 -62.5t-66.5 -48.5t-112 -19.5q-62 0 -103.5 14t-64.5 30l10 67q19 -21 59 -39.5
t100 -18.5q78 0 116.5 35.5t38.5 101.5q0 20 -4 36.5t-13 31.5t-23.5 30.5t-36.5 33.5l-59 49q-19 16 -37 33t-32 38t-22.5 47t-8.5 60q0 80 49.5 127t142.5 47q57 0 98 -16t64 -36z" />
    <glyph glyph-name="T" unicode="T" horiz-adv-x="468" 
d="M517 651h-193l-103 -651h-63l103 651h-191l9 52h449z" />
    <glyph glyph-name="U" unicode="U" horiz-adv-x="584" 
d="M519 257q-6 -38 -11.5 -69t-14 -57t-20.5 -47.5t-30 -39.5q-34 -33 -76.5 -44.5t-91.5 -11.5q-53 0 -89.5 9.5t-61 25t-38 34t-20.5 37.5t-8.5 36t-1.5 28q0 23 2.5 49t6.5 50l71 446h63l-73 -458q-3 -20 -5 -37t-2 -34q0 -45 14.5 -71t37 -40t49.5 -18t51 -4
q52 0 84.5 12.5t52 37t30 61t18.5 84.5l75 467h59z" />
    <glyph glyph-name="V" unicode="V" horiz-adv-x="522" 
d="M239 -3h-54l-122 706h64l89 -520q5 -26 7.5 -54t3.5 -45q6 15 17 40t27 57l258 522h63z" />
    <glyph glyph-name="W" unicode="W" horiz-adv-x="833" 
d="M592 -3h-55l-59 553q-3 27 -4 40.5t-2 28.5q-3 -7 -7 -17q-3 -8 -8 -19.5t-11 -26.5l-240 -559h-56l-80 706h64l54 -510q5 -46 5.5 -71.5t0.5 -34.5q6 19 17 48.5t24 59.5l218 508h69l54 -509q4 -38 4.5 -68t0.5 -39q6 20 17 51t22 57l215 508h63z" />
    <glyph glyph-name="X" unicode="X" horiz-adv-x="534" 
d="M316 354l170 -354h-67l-149 309l-226 -309h-74l274 362l-165 341h70l142 -297l217 297h73z" />
    <glyph glyph-name="Y" unicode="Y" horiz-adv-x="500" 
d="M278 278l-44 -278h-63l43 277l-154 426h69l125 -364l245 364h71z" />
    <glyph glyph-name="Z" unicode="Z" horiz-adv-x="527" 
d="M550 662l-463 -610h363l-11 -52h-439l6 42l461 609h-338l8 52h420z" />
    <glyph glyph-name="bracketleft" unicode="[" horiz-adv-x="318" 
d="M312 720h-96l-149 -900h96l-8 -50h-157l164 1000h158z" />
    <glyph glyph-name="backslash" unicode="\" horiz-adv-x="387" 
d="M271 -177l-171 947h62l170 -947h-61z" />
    <glyph glyph-name="bracketright" unicode="]" horiz-adv-x="318" 
d="M154 -230h-156l7 50h96l149 900h-96l8 50h158z" />
    <glyph glyph-name="asciicircum" unicode="^" horiz-adv-x="557" 
d="M449 234l-172 423l-170 -423h-67l220 524h35l222 -524h-68z" />
    <glyph glyph-name="underscore" unicode="_" horiz-adv-x="500" 
d="M0 -118v39h500v-39h-500z" />
    <glyph glyph-name="grave" unicode="`" horiz-adv-x="500" 
d="M328 583l-188 107l33 53l178 -124z" />
    <glyph glyph-name="a" unicode="a" horiz-adv-x="477" 
d="M365 0h-58l22 123q-12 -23 -28 -46.5t-35 -41.5q-28 -26 -54 -34t-48 -8q-59 0 -91 41t-32 137q0 57 12.5 119t41 113t74 84t111.5 33q39 0 64.5 -10.5t39.5 -23.5l4 27h58zM373 437q-11 11 -32.5 21.5t-54.5 10.5q-40 0 -69 -17t-49.5 -44.5t-32.5 -61t-19 -67t-9 -63
t-2 -48.5q0 -42 7 -66t17.5 -36t22.5 -15.5t22 -3.5q28 0 51 15t48 46q11 14 22.5 30.5t21.5 34.5t17 36.5t10 35.5z" />
    <glyph glyph-name="b" unicode="b" horiz-adv-x="487" 
d="M446 341q0 -57 -13 -118.5t-42 -112.5t-75.5 -84t-114.5 -33q-42 0 -68.5 11t-38.5 22l-62 -32l121 763l62 13l-43 -271q-5 -28 -10 -56.5t-10 -49.5q11 20 27 43.5t36 41.5q26 24 52.5 33t53.5 9q29 0 52.5 -9.5t39.5 -31t24.5 -55.5t8.5 -83zM382 343q0 44 -8 69
t-19 37t-23 14.5t-21 2.5q-27 0 -51 -12.5t-53 -47.5q-25 -30 -45.5 -66.5t-25.5 -69.5l-30 -194q12 -13 35 -22.5t55 -9.5q42 0 72 17t50.5 44t33 60.5t19.5 67t9 62.5t2 48z" />
    <glyph glyph-name="c" unicode="c" horiz-adv-x="414" 
d="M399 423q-14 16 -40.5 32t-71.5 16q-12 0 -26 -2t-30 -7.5t-31.5 -16t-30.5 -28.5q-29 -35 -46 -90t-17 -122q0 -38 6.5 -68.5t21 -52t38.5 -33t59 -11.5q42 0 71 14t49 32l-12 -64q-17 -11 -44 -20.5t-71 -9.5q-65 0 -102 22.5t-55 54t-22 65t-4 56.5q0 63 13.5 122.5
t43 105t75.5 73.5t112 28q49 0 79 -13t44 -26z" />
    <glyph glyph-name="d" unicode="d" horiz-adv-x="487" 
d="M372 0h-58l21 119q-11 -20 -27 -43t-36 -41q-26 -24 -52.5 -33t-53.5 -9q-59 0 -92 40.5t-33 138.5q0 57 13 118.5t41.5 112.5t75 84t114.5 33q40 0 65.5 -10.5t38.5 -22.5l43 270l62 13zM381 437q-12 13 -35 22.5t-55 9.5q-42 0 -72 -17t-50.5 -44t-33 -60.5t-19.5 -67
t-9 -63t-2 -47.5q0 -44 8 -69t19 -37t23 -14.5t21 -2.5q27 0 51 12.5t53 47.5q25 30 45.5 66.5t25.5 69.5z" />
    <glyph glyph-name="e" unicode="e" horiz-adv-x="439" 
d="M420 405q0 -30 -9.5 -52t-24 -38t-31.5 -26t-32 -16q-25 -10 -54.5 -16t-57.5 -9t-52.5 -3.5t-40.5 -0.5h-10q-1 -5 -1.5 -17t-0.5 -26q0 -35 5.5 -64.5t20 -51t39 -33.5t62.5 -12q45 0 76 14.5t48 31.5l-12 -64q-13 -10 -41.5 -20t-76.5 -10q-65 0 -102 21t-55.5 51.5
t-23.5 65t-5 61.5q0 67 15.5 127t47 105t77.5 71t108 26q43 0 69 -12t40 -30t18 -38t4 -35zM357 404q0 69 -78 69q-48 0 -78.5 -21.5t-47.5 -50.5q-14 -23 -24.5 -54t-15.5 -60h9q123 0 179 28.5t56 88.5z" />
    <glyph glyph-name="f" unicode="f" horiz-adv-x="238" 
d="M343 701q-10 9 -26.5 14t-35.5 5q-21 0 -34.5 -6.5t-22.5 -18.5q-11 -14 -14.5 -34.5t-7.5 -42.5l-17 -106h106l-8 -49h-106l-109 -693h-60l109 693h-55l8 49h55l16 98q8 46 15.5 71t21.5 45q20 27 48 35.5t57 8.5q25 0 41 -4t27 -9z" />
    <glyph glyph-name="g" unicode="g" 
d="M370 -16q-8 -52 -18 -86.5t-32 -62.5q-51 -65 -164 -65q-54 0 -93 12.5t-59 28.5l9 60q17 -18 51.5 -35t90.5 -17q45 0 71 12t42 30q19 22 27 50.5t15 70.5l10 62q5 32 9 49t6 26q-11 -20 -27 -43t-36 -41q-26 -24 -52.5 -33t-53.5 -9q-59 0 -92 40.5t-33 138.5
q0 57 13 118.5t41.5 112.5t75 84t114.5 33q42 0 68 -11t39 -23l4 26h58zM381 437q-12 13 -35 22.5t-55 9.5q-42 0 -72 -17t-50.5 -44t-33 -60.5t-19.5 -67t-9 -63t-2 -47.5q0 -44 8 -69t19 -37t23 -14.5t21 -2.5q27 0 51 12.5t53 47.5q25 30 45.5 66.5t25.5 69.5z" />
    <glyph glyph-name="h" unicode="h" horiz-adv-x="498" 
d="M444 416q0 -27 -3 -53.5t-5 -36.5l-51 -326h-60l49 313q2 13 5.5 39t3.5 52q0 7 -1 18t-7 20.5t-18.5 16.5t-34.5 7q-37 0 -64 -18.5t-47 -42.5q-12 -15 -24.5 -32.5t-22.5 -35.5t-17 -34.5t-9 -28.5l-43 -274h-60l120 757l62 13l-43 -271q-2 -9 -4.5 -24t-5.5 -30.5
t-6 -30.5t-5 -24q13 23 30.5 47t36.5 41q29 26 58 34t53 8q42 0 64.5 -13.5t33.5 -31t13 -35t2 -24.5z" />
    <glyph glyph-name="i" unicode="i" horiz-adv-x="210" 
d="M216 697q0 -17 -10.5 -30.5t-31.5 -13.5q-20 0 -29.5 11.5t-9.5 27.5q0 17 10.5 30.5t31.5 13.5q20 0 29.5 -11.5t9.5 -27.5zM95 0h-60l81 512h60z" />
    <glyph glyph-name="j" unicode="j" horiz-adv-x="213" 
d="M219 697q0 -17 -10.5 -30.5t-31.5 -13.5q-20 0 -29.5 11.5t-9.5 27.5q0 17 10.5 30.5t31.5 13.5q20 0 29.5 -11.5t9.5 -27.5zM84 -87q-5 -30 -12.5 -56t-23 -45.5t-41 -30.5t-66.5 -11q-23 0 -36 3t-21 7l4 53q5 -4 16 -8.5t34 -4.5q44 0 61 22t25 69l95 601h60z" />
    <glyph glyph-name="k" unicode="k" horiz-adv-x="417" 
d="M201 278l165 -278h-68l-160 273l-43 -273h-60l120 757l62 13l-77 -484l235 226h74z" />
    <glyph glyph-name="l" unicode="l" horiz-adv-x="209" 
d="M95 0h-60l120 757l62 13z" />
    <glyph glyph-name="m" unicode="m" horiz-adv-x="784" 
d="M730 406q0 -7 -1 -18t-2.5 -23t-2.5 -22.5t-2 -15.5l-51 -327h-60l49 313q1 6 2.5 17t3 23t2.5 23.5t1 20.5q0 10 -1 22t-6.5 22.5t-18 17.5t-34.5 7q-38 0 -64 -19t-46 -42q-12 -14 -24 -31.5t-22 -35t-17.5 -34.5t-9.5 -30l-43 -274h-60l49 313q1 6 2.5 17t3 23
t2.5 23.5t1 20.5q0 10 -1 22t-6.5 22.5t-18 17.5t-34.5 7q-38 0 -64 -19t-46 -42q-12 -14 -24 -31.5t-22 -35t-17.5 -34.5t-9.5 -30l-43 -274h-60l81 512h58l-21 -122q13 23 30.5 47t36.5 41q29 26 57.5 34t53.5 8q41 0 63.5 -13t33 -31t12 -37t1.5 -31q0 -7 -0.5 -10.5
t-0.5 -7.5q14 23 31.5 47t35.5 41q29 27 57.5 35t53.5 8q42 0 64.5 -13t33 -31.5t12.5 -38t2 -32.5z" />
    <glyph glyph-name="n" unicode="n" horiz-adv-x="498" 
d="M444 416q0 -27 -3 -53.5t-5 -36.5l-51 -326h-60l49 313q2 13 5.5 39t3.5 52q0 7 -1 18t-7 20.5t-18.5 16.5t-34.5 7q-37 0 -64 -18.5t-47 -42.5q-12 -15 -24.5 -32.5t-22.5 -35.5t-17 -34.5t-9 -28.5l-43 -274h-60l81 512h58l-21 -122q13 23 30.5 47t36.5 41q29 26 58 34
t53 8q42 0 64.5 -13.5t33.5 -31t13 -35t2 -24.5z" />
    <glyph glyph-name="o" unicode="o" horiz-adv-x="470" 
d="M430 318q0 -22 -3 -55.5t-11.5 -69.5t-24 -72.5t-40.5 -65.5t-61 -47t-85 -18q-57 0 -89.5 23t-49.5 55t-21.5 66.5t-4.5 58.5q0 22 3 55.5t11.5 69.5t24 72.5t40.5 65.5t61 47t85 18q57 0 89.5 -23t49.5 -55t21.5 -66.5t4.5 -58.5zM366 310q0 87 -27 124t-79 37
q-28 0 -51 -10.5t-43 -36.5q-31 -39 -46.5 -98t-15.5 -125q0 -87 26.5 -124t79.5 -37q28 0 51 10.5t43 36.5q31 39 46.5 98t15.5 125z" />
    <glyph glyph-name="p" unicode="p" 
d="M447 341q0 -57 -13 -118.5t-42 -112.5t-75.5 -84t-114.5 -33q-36 0 -62.5 9t-40.5 21l-40 -253h-60l117 742h58l-21 -119q11 20 27 43.5t36 41.5q26 24 52.5 33t53.5 9q29 0 52.5 -9.5t39.5 -31t24.5 -55.5t8.5 -83zM383 343q0 44 -8 69t-19 37t-23 14.5t-21 2.5
q-27 0 -51 -12.5t-53 -47.5q-25 -30 -45.5 -66.5t-25.5 -69.5l-30 -194q12 -13 35 -22.5t55 -9.5q42 0 72 17t50.5 44t33 60.5t19.5 67t9 62.5t2 48z" />
    <glyph glyph-name="q" unicode="q" 
d="M335 -230h-59l44 274q4 23 8.5 46.5t5.5 27.5q-1 -2 -5.5 -10.5t-13 -20.5t-19.5 -26t-24 -26q-26 -24 -52.5 -33t-53.5 -9q-59 0 -92 40.5t-33 138.5q0 57 13 118.5t41.5 112.5t75 84t114.5 33q42 0 68 -11t39 -23l4 26h58zM381 437q-12 13 -35 22.5t-55 9.5
q-42 0 -72 -17t-50.5 -44t-33 -60.5t-19.5 -67t-9 -63t-2 -48.5q0 -68 19.5 -95t55.5 -27q26 0 49 13.5t51 46.5q23 28 44.5 65t26.5 71z" />
    <glyph glyph-name="r" unicode="r" horiz-adv-x="337" 
d="M355 449q-8 8 -20 11.5t-25 3.5q-26 0 -51 -16t-54 -51q-26 -32 -45 -68t-24 -68l-41 -261h-60l81 512h58l-23 -129q8 18 22.5 40t33.5 42q29 31 56.5 43t58.5 12q21 0 33 -4t17 -7z" />
    <glyph glyph-name="s" unicode="s" horiz-adv-x="359" 
d="M329 423q-17 19 -45.5 33.5t-66.5 14.5q-29 0 -46.5 -8.5t-27 -20.5t-12.5 -26t-3 -25q0 -43 40 -76l66 -55q35 -29 50.5 -56.5t15.5 -65.5q0 -17 -5 -42t-21.5 -48t-48.5 -39.5t-87 -16.5q-48 0 -79 11.5t-48 25.5l9 59q17 -17 45.5 -32.5t71.5 -15.5t72 20.5t29 70.5
q0 29 -12 47.5t-38 40.5l-56 46q-39 32 -52 60.5t-13 57.5q0 22 7 46.5t24 44t45.5 32.5t72.5 13q45 0 74.5 -12.5t47.5 -26.5z" />
    <glyph glyph-name="t" unicode="t" horiz-adv-x="277" 
d="M300 462h-125l-50 -320q-2 -10 -3.5 -24.5t-1.5 -25.5q0 -6 1.5 -14.5t6.5 -16t16 -12.5t31 -5q19 0 33.5 5t28.5 15l-8 -55q-11 -5 -27 -9.5t-41 -4.5q-36 0 -56.5 10t-30.5 24t-12.5 29t-2.5 25q0 16 2 31.5t5 35.5l49 312h-54l8 50h54l15 92l63 18l-18 -110h125z" />
    <glyph glyph-name="u" unicode="u" horiz-adv-x="493" 
d="M381 0h-58l21 123q-13 -23 -30.5 -47t-36.5 -41q-29 -26 -58 -34t-53 -8q-42 0 -64.5 13.5t-33.5 31t-13 34.5t-2 25q0 28 3 54t5 36l51 325h60l-49 -312q-2 -13 -5.5 -39.5t-3.5 -52.5q0 -8 1 -18t7 -20t18.5 -16.5t34.5 -6.5q37 0 64 18.5t47 42.5q10 12 22 29t22.5 35
t18.5 35.5t10 31.5l43 273h60z" />
    <glyph glyph-name="v" unicode="v" horiz-adv-x="392" 
d="M175 -4h-48l-85 516h62l50 -330q6 -40 8.5 -64t3.5 -35q4 12 16 40.5t26 57.5l158 331h62z" />
    <glyph glyph-name="w" unicode="w" horiz-adv-x="661" 
d="M456 -4h-47l-47 382q-2 11 -3.5 30.5t-2.5 33.5q-3 -8 -10.5 -26.5t-16.5 -38.5l-168 -381h-45l-69 516h62l37 -315q6 -54 7 -78.5t1 -33.5q5 15 14 39.5t28 67.5l140 320h65l39 -319q3 -28 5 -46.5t3 -30.5t1 -19.5v-11.5q7 20 18 47.5t25 60.5l138 319h62z" />
    <glyph glyph-name="x" unicode="x" horiz-adv-x="395" 
d="M232 266l138 -266h-65l-115 221l-161 -221h-69l205 269l-127 243h66l103 -199l145 199h68z" />
    <glyph glyph-name="y" unicode="y" horiz-adv-x="393" 
d="M144 -69q-22 -45 -40.5 -74.5t-38.5 -49.5q-38 -37 -100 -37q-31 0 -52 9l9 53q6 -5 19 -9t28 -4q21 0 37 8t29 21.5t24.5 32.5t22.5 41l44 88l-84 502h63l50 -324q5 -35 8 -63t4 -42q4 12 16 40.5t26 57.5l158 331h62z" />
    <glyph glyph-name="z" unicode="z" horiz-adv-x="411" 
d="M420 474l-345 -425h275l-8 -49h-352l6 39l344 424h-261l8 49h339z" />
    <glyph glyph-name="braceleft" unicode="{" horiz-adv-x="381" 
d="M383 705q-5 3 -14 5.5t-22 2.5q-21 0 -35.5 -8t-24 -21.5t-15 -32t-9.5 -40.5l-31 -177q-5 -26 -10.5 -49.5t-16.5 -43t-30 -35t-49 -24.5q36 -15 48 -42.5t12 -61.5q0 -14 -1.5 -30t-3.5 -30l-31 -188q-2 -10 -3 -22.5t-1 -21.5q0 -24 11.5 -41t42.5 -17q14 0 24.5 3
t16.5 5l-12 -54q-19 -7 -48 -7q-28 0 -47 7.5t-31 20.5t-17 30t-5 36q0 11 1 21t3 19l35 212q2 13 3 27t1 22q0 38 -17 63t-59 27l8 50q49 0 76.5 30.5t39.5 99.5l34 197q4 25 13.5 48.5t26 41.5t40.5 28.5t59 10.5q15 0 29.5 -2t21.5 -5z" />
    <glyph glyph-name="bar" unicode="|" horiz-adv-x="246" 
d="M77 -181h-60l150 947h60z" />
    <glyph glyph-name="braceright" unicode="}" horiz-adv-x="381" 
d="M325 231q-49 0 -76.5 -30.5t-39.5 -99.5l-34 -197q-5 -26 -14 -49t-25.5 -41t-41 -28.5t-58.5 -10.5q-15 0 -29.5 2t-21.5 5l13 54q5 -3 14 -5.5t22 -2.5q21 0 35.5 8t24 21.5t15 32t9.5 40.5l31 177q4 26 10 49.5t17 43t30 35t49 24.5q-36 15 -48 42.5t-12 61.5
q0 14 1.5 30t3.5 30l31 188q2 10 3 22.5t1 21.5q0 24 -11.5 41t-42.5 17q-14 0 -24.5 -3t-16.5 -5l12 54q19 7 48 7q28 0 47 -7.5t31 -20.5t17 -30t5 -36q0 -11 -1 -21t-3 -19l-35 -212q-2 -13 -3 -27t-1 -22q0 -38 17 -63t59 -27z" />
    <glyph glyph-name="asciitilde" unicode="~" horiz-adv-x="698" 
d="M680 447q-6 -24 -16 -52.5t-24 -54.5q-22 -39 -53 -55.5t-70 -16.5q-38 0 -73.5 11.5t-68.5 24.5l-78 30q-48 19 -72.5 24t-42.5 5q-29 0 -46.5 -8.5t-33.5 -27.5q-17 -20 -27 -44.5t-15 -46.5l-42 14q6 29 16 60.5t24 56.5q22 39 53 55.5t70 16.5q38 0 73.5 -11.5
t68.5 -24.5l79 -30q48 -18 71 -23.5t40 -5.5q53 0 85 35q17 18 27 41t15 40l40 -13v0z" />
    <glyph glyph-name="uni00A0" unicode="&#xa0;" horiz-adv-x="200" 
 />
    <glyph glyph-name="exclamdown" unicode="&#xa1;" horiz-adv-x="273" 
d="M243 658q0 -26 -14.5 -43t-39.5 -17q-24 0 -35 15t-11 36q0 27 15.5 43.5t39.5 16.5q22 0 33.5 -14t11.5 -37zM127 10l-67 -15l92 545h52z" />
    <glyph glyph-name="cent" unicode="&#xa2;" 
d="M450 518q-13 17 -38 30t-55 17l-72 -430h1q36 0 67.5 14.5t48.5 31.5l-12 -64q-14 -11 -43.5 -20.5t-66.5 -9.5h-3l-16 -99h-52l17 103q-21 6 -45 15t-43.5 30.5t-32.5 59.5t-13 101q0 59 13 113.5t40 98t69 71.5t99 33l15 88l54 12l-17 -101q35 -4 60 -15.5t34 -21.5z
M305 563q-21 -4 -43 -15.5t-42 -35.5q-29 -35 -46 -90t-17 -124t18 -105.5t60 -50.5z" />
    <glyph glyph-name="sterling" unicode="&#xa3;" horiz-adv-x="489" 
d="M500 604q-19 29 -51.5 42.5t-66.5 13.5q-30 0 -60.5 -13.5t-53.5 -52.5q-18 -32 -31 -81t-27 -117h175l-7 -47h-177q-20 -105 -40.5 -162.5t-43.5 -83.5q-5 -6 -12.5 -13.5t-15 -14t-13.5 -12t-9 -8.5q5 3 15 5.5t23 4.5t26.5 3.5t25.5 1.5q14 0 31 -2t31 -5l68 -16
q7 -2 22.5 -4t29.5 -2q33 0 57.5 12.5t39.5 27.5l-14 -70q-19 -15 -43.5 -19.5t-47.5 -4.5q-26 0 -49.5 3.5t-46.5 8.5l-70 16q-14 3 -31.5 4.5t-30.5 1.5q-29 0 -55 -7.5t-44 -21.5l-20 43q17 11 30 20.5t25 23.5t24.5 35.5t25 53.5t24.5 76.5t24 104.5h-79l7 47h80
q12 66 25 114t26 77q11 25 28.5 48t41 40t54 27.5t68.5 10.5q48 0 78.5 -14t44.5 -28z" />
    <glyph glyph-name="currency" unicode="&#xa4;" horiz-adv-x="607" 
d="M503 131l-66 63q-19 -13 -35 -21.5t-31.5 -13.5t-32 -7t-35.5 -2q-20 0 -36 2t-31.5 7.5t-31 14t-34.5 21.5l-67 -64l-35 34l68 65q-28 37 -37.5 65t-9.5 64q0 38 10 66.5t37 66.5l-68 65l35 33l67 -64q19 13 34.5 21.5t31 13.5t31.5 7.5t36 2.5q19 0 35.5 -2.5t32 -7.5
t31.5 -14t35 -22l66 65l35 -33l-67 -65q13 -19 22.5 -34.5t14.5 -31t7.5 -32t2.5 -35.5q0 -18 -2 -33.5t-7.5 -30.5t-14.5 -30.5t-23 -34.5l67 -65zM455 362q0 34 -12 62t-32.5 48t-48 31t-58.5 11q-32 0 -59.5 -11.5t-48 -31.5t-32.5 -48.5t-12 -61.5t12 -61t32 -49
t47.5 -32.5t59.5 -11.5q31 0 58.5 11.5t48.5 32t33 49t12 62.5z" />
    <glyph glyph-name="yen" unicode="&#xa5;" 
d="M309 349h122l-8 -50h-150l-15 -93h150l-8 -50h-150l-25 -156h-62l24 156h-150l8 50h150l15 93h-150l8 50h125l-120 354h70l109 -345l220 345h71z" />
    <glyph glyph-name="brokenbar" unicode="&#xa6;" horiz-adv-x="530" 
d="M307 349h-60l55 354h60zM224 -177h-60l53 339h60z" />
    <glyph glyph-name="section" unicode="&#xa7;" horiz-adv-x="536" 
d="M486 670q-19 24 -51.5 37.5t-70.5 13.5q-52 0 -82 -26t-30 -78q0 -38 15.5 -60t36.5 -37l74 -54q39 -29 59.5 -60t20.5 -83q0 -44 -14 -76.5t-36.5 -56t-51 -38t-57.5 -22.5l4 -3q8 -6 18.5 -16.5t19.5 -26t15.5 -35.5t6.5 -45q0 -19 -6 -46.5t-24.5 -52.5t-52.5 -43
t-91 -18q-53 0 -86.5 13.5t-47.5 25.5l10 61q19 -24 51.5 -37.5t70.5 -13.5q52 0 82 26t30 78q0 38 -15.5 60t-36.5 37l-74 54q-39 29 -59.5 60t-20.5 83q0 44 14 76.5t36.5 56t51 38t57.5 22.5l-4 3q-8 6 -18.5 16.5t-19.5 26t-15.5 35.5t-6.5 45q0 19 6 46.5t24.5 52.5
t52.5 43t91 18q53 0 86.5 -13.5t47.5 -25.5zM397 313q0 42 -17.5 66.5t-46.5 46.5l-42 31q-24 -7 -48 -18.5t-44 -30.5t-32.5 -45t-12.5 -62q0 -42 17.5 -66.5t46.5 -46.5l42 -31q24 7 48 18.5t44 30.5t32.5 45t12.5 62z" />
    <glyph glyph-name="dieresis" unicode="&#xa8;" horiz-adv-x="500" 
d="M374 658q0 -21 -13.5 -34t-33.5 -13q-17 0 -27.5 10t-10.5 28q0 21 13.5 34t33.5 13q17 0 27.5 -10t10.5 -28zM213 658q0 -21 -13.5 -34t-33.5 -13q-17 0 -27.5 10t-10.5 28q0 21 13.5 34t33.5 13q17 0 27.5 -10t10.5 -28z" />
    <glyph glyph-name="copyright" unicode="&#xa9;" horiz-adv-x="868" 
d="M833 321q0 -87 -28.5 -161t-80 -128t-123.5 -84.5t-159 -30.5q-86 0 -158 29.5t-124 82.5t-81 126t-29 160t29.5 160.5t82 126.5t125.5 82.5t161 29.5q87 0 158.5 -29.5t121.5 -81.5t77.5 -124.5t27.5 -157.5zM773 319q0 75 -22.5 138.5t-65 110t-103 72.5t-136.5 26
q-77 0 -138.5 -26.5t-105.5 -73.5t-67.5 -111t-23.5 -139t24 -139.5t67.5 -112t104.5 -74t136 -26.5t136 27t104 74.5t66.5 112.5t23.5 141zM582 95q-20 -15 -54 -24t-75 -9q-60 0 -103.5 19.5t-72 52.5t-42.5 77.5t-14 94.5q0 45 10.5 85.5t28.5 71.5q29 51 80 77.5
t119 26.5q39 0 72.5 -8t53.5 -20v-63q-16 15 -47.5 27.5t-75.5 12.5q-85 0 -130 -53.5t-45 -150.5t45 -148.5t126 -51.5q42 0 75.5 12.5t53.5 29.5z" />
    <glyph glyph-name="ordfeminine" unicode="&#xaa;" horiz-adv-x="357" 
d="M316 323h-49l17 92q-9 -18 -21 -35t-26 -31q-20 -19 -38.5 -25t-37.5 -6q-48 0 -72 30.5t-24 102.5q0 43 9.5 89.5t31 84.5t56 63t85.5 25q32 0 50.5 -8.5t27.5 -16.5l3 20h49zM314 647q-10 11 -26.5 17t-36.5 6q-28 0 -48.5 -12.5t-35 -32.5t-23.5 -45t-14 -49.5
t-6.5 -46.5t-1.5 -36q0 -28 4.5 -44.5t11.5 -25.5t15.5 -12t15.5 -3q20 0 38 14t36 37q17 22 33 49t20 51l20 133h-2z" />
    <glyph glyph-name="guillemotleft" unicode="&#xab;" horiz-adv-x="433" 
d="M130 265l54 -211h-58l-71 212l133 185h65zM304 265l54 -211h-58l-71 212l133 185h65z" />
    <glyph glyph-name="logicalnot" unicode="&#xac;" horiz-adv-x="640" 
d="M570 186v166h-534v59h594v-225h-60z" />
    <glyph glyph-name="uni00AD" unicode="&#xad;" horiz-adv-x="312" 
d="M266 234h-231l11 63h231z" />
    <glyph glyph-name="registered" unicode="&#xae;" horiz-adv-x="868" 
d="M833 321q0 -87 -28.5 -161t-80 -128t-123.5 -84.5t-159 -30.5q-86 0 -158 29.5t-124 82.5t-81 126t-29 160t29.5 160.5t82 126.5t125.5 82.5t161 29.5q87 0 158.5 -29.5t121.5 -81.5t77.5 -124.5t27.5 -157.5zM773 319q0 75 -22.5 138.5t-65 110t-103 72.5t-136.5 26
q-77 0 -138.5 -26.5t-105.5 -73.5t-67.5 -111t-23.5 -139t24 -139.5t67.5 -112t104.5 -74t136 -26.5t136 27t104 74.5t66.5 112.5t23.5 141zM548 68l-183 226v-226h-60v509h84q42 0 75 -3t59 -17q30 -16 48 -44.5t18 -73.5q0 -38 -13 -66t-34 -46t-48.5 -27t-55.5 -9
l185 -223h-75zM526 433q0 30 -9.5 49t-25.5 29.5t-37.5 14.5t-46.5 4h-42v-198h46q22 0 42.5 4t36.5 15t26 30.5t10 51.5z" />
    <glyph glyph-name="macron" unicode="&#xaf;" horiz-adv-x="475" 
d="M471 621h-273l8 53h274z" />
    <glyph glyph-name="degree" unicode="&#xb0;" horiz-adv-x="363" 
d="M373 600q0 -32 -12 -60.5t-33 -49.5t-49.5 -33t-60.5 -12t-60.5 12t-49.5 33t-33 49.5t-12 60.5t12 60.5t33 49.5t49.5 33t60.5 12t60.5 -12t49.5 -33t33 -49.5t12 -60.5zM322 601q0 45 -30 75.5t-75 30.5t-74 -30.5t-29 -75.5q0 -23 8 -42.5t21.5 -34.5t32.5 -23.5
t41 -8.5t41 8.5t33.5 23.5t22.5 34.5t8 42.5z" />
    <glyph glyph-name="plusminus" unicode="&#xb1;" horiz-adv-x="640" 
d="M365 404v-274h-64v274h-265v59h265v273h64v-273h265v-59h-265zM36 0v59h594v-59h-594z" />
    <glyph glyph-name="twosuperior" unicode="&#xb2;" horiz-adv-x="352" 
d="M300 606q0 -26 -8 -49t-23 -45t-35 -43t-44 -44q-30 -29 -54 -50.5t-44 -39.5h170l-9 -52h-246l7 46q38 35 76 71t64 62q23 23 39 41.5t25.5 34.5t14 30.5t4.5 29.5q0 27 -14.5 45t-51.5 18q-32 0 -57.5 -12t-41.5 -26l11 63q19 11 46 19t59 8q31 0 52.5 -9t34.5 -23.5
t19 -34t6 -40.5z" />
    <glyph glyph-name="threesuperior" unicode="&#xb3;" horiz-adv-x="352" 
d="M296 619q0 -30 -11.5 -51t-28 -34.5t-34 -21t-28.5 -8.5q40 -5 62.5 -25.5t22.5 -65.5q0 -70 -53 -108q-23 -17 -52 -23.5t-58 -6.5q-37 0 -61.5 8.5t-35.5 18.5l9 56q13 -11 36 -22.5t57 -11.5q42 0 69 21t27 62q0 21 -7.5 34t-21 20.5t-31.5 10.5t-38 3h-10l8 49h10
q18 0 37 4t34 13t25 24.5t10 38.5q0 28 -15.5 44t-48.5 16q-27 0 -51 -10t-41 -23l10 57q17 10 43 17.5t57 7.5q53 0 81 -25t28 -69z" />
    <glyph glyph-name="acute" unicode="&#xb4;" horiz-adv-x="500" 
d="M164 583l-23 37l178 124l33 -54z" />
    <glyph glyph-name="paragraph" unicode="&#xb6;" horiz-adv-x="424" 
d="M427 653h-51l-103 -654q-5 -28 -11 -52t-16 -43q-18 -34 -49 -47t-69 -13q-28 0 -47.5 5t-30.5 10l9 55q12 -7 28 -13.5t40 -6.5q40 0 58.5 21.5t25.5 66.5l53 338h-15q-74 0 -119 44.5t-45 124.5q0 46 16 85.5t47 68t75.5 44.5t100.5 16h115z" />
    <glyph glyph-name="periodcentered" unicode="&#xb7;" horiz-adv-x="205" 
d="M165 301q0 -29 -16.5 -47.5t-45.5 -18.5q-27 0 -44 17.5t-17 47.5t17 48t44 18q26 0 44 -17t18 -48z" />
    <glyph glyph-name="cedilla" unicode="&#xb8;" horiz-adv-x="500" 
d="M226 -122q0 -38 -24 -62q-28 -28 -77 -28q-14 0 -27.5 2.5t-24.5 7.5l8 51q6 -5 16.5 -10t26.5 -5q18 0 31.5 8.5t13.5 31.5q0 16 -6.5 23.5t-14.5 14.5t-14.5 15.5t-6.5 25.5q0 12 3.5 22.5t10.5 24.5h49q-5 -10 -7 -16.5t-2 -14.5q0 -14 5 -20.5t13 -13.5q9 -8 18 -20
t9 -37z" />
    <glyph glyph-name="onesuperior" unicode="&#xb9;" horiz-adv-x="292" 
d="M159 283h-61l55 345l-95 -18l7 49q26 5 60.5 16.5t56.5 27.5h43z" />
    <glyph glyph-name="ordmasculine" unicode="&#xba;" horiz-adv-x="358" 
d="M368 561q0 -17 -2.5 -42t-9 -52.5t-18 -55t-30.5 -49t-46.5 -35t-65.5 -13.5q-44 0 -69 17t-37.5 41t-16 50t-3.5 44q0 17 2.5 42t9 52.5t18 55t30.5 49t46.5 35t65.5 13.5q43 0 68.5 -17t38 -41t16 -50t3.5 -44zM312 553q0 63 -19 90t-56 27q-18 0 -35 -7t-32 -26
q-21 -26 -32.5 -69.5t-11.5 -93.5q0 -63 19 -90t56 -27q18 0 35 7t32 26q21 26 32.5 69.5t11.5 93.5z" />
    <glyph glyph-name="guillemotright" unicode="&#xbb;" horiz-adv-x="422" 
d="M70 55h-65l123 188l-54 209h58l71 -212zM244 55h-65l123 188l-54 209h58l71 -212z" />
    <glyph glyph-name="onequarter" unicode="&#xbc;" horiz-adv-x="737" 
d="M658 100h-47l-15 -100h-58l15 100h-184l8 52l233 276h53l-43 -280h46zM130 0h-68l511 703h66zM157 283h-61l55 345l-95 -18l7 49q26 5 60.5 16.5t56.5 27.5h43zM593 348q-3 -6 -12 -18.5t-17 -21.5l-136 -160h134z" />
    <glyph glyph-name="onehalf" unicode="&#xbd;" horiz-adv-x="737" 
d="M104 0h-68l511 703h66zM147 283h-61l55 345l-95 -18l7 49q26 5 60.5 16.5t56.5 27.5h43zM694 324q0 -26 -8 -49t-23 -45t-35 -43t-44 -44q-30 -29 -54 -50.5t-44 -39.5h170l-9 -52h-246l7 46q38 35 76 71t64 62q23 23 39 41.5t25.5 34.5t14 30.5t4.5 29.5q0 27 -14.5 45
t-51.5 18q-32 0 -57.5 -12t-41.5 -26l11 63q19 11 46 19t59 8q31 0 52.5 -9t34.5 -23.5t19 -34t6 -40.5z" />
    <glyph glyph-name="threequarters" unicode="&#xbe;" horiz-adv-x="737" 
d="M688 100h-47l-15 -100h-58l15 100h-184l8 52l233 276h53l-43 -280h46zM187 0h-68l511 703h66zM307 619q0 -30 -11.5 -51t-28 -34.5t-34 -21t-28.5 -8.5q40 -5 62.5 -25.5t22.5 -65.5q0 -70 -53 -108q-23 -17 -52 -23.5t-58 -6.5q-37 0 -61.5 8.5t-35.5 18.5l9 56
q13 -11 36 -22.5t57 -11.5q42 0 69 21t27 62q0 21 -7.5 34t-21 20.5t-31.5 10.5t-38 3h-10l8 49h10q18 0 37 4t34 13t25 24.5t10 38.5q0 28 -15.5 44t-48.5 16q-27 0 -51 -10t-41 -23l10 57q17 10 43 17.5t57 7.5q53 0 81 -25t28 -69zM623 348q-3 -6 -12 -18.5t-17 -21.5
l-136 -160h134z" />
    <glyph glyph-name="questiondown" unicode="&#xbf;" horiz-adv-x="390" 
d="M345 658q0 -26 -14.5 -43t-39.5 -17q-24 0 -35 15t-11 36q0 27 15.5 43.5t39.5 16.5q22 0 33.5 -14t11.5 -37zM330 23q-31 -20 -71 -29t-76 -9q-35 0 -66 9t-53.5 28t-35.5 48.5t-13 70.5q0 51 23.5 98t80.5 96l75 64q15 13 24.5 24t15.5 22.5t9.5 24t6.5 28.5l7 42h56
l-8 -54q-5 -35 -20 -65t-46 -56l-82 -71q-35 -31 -56.5 -65.5t-21.5 -79.5q0 -22 6 -42t20 -35t37 -24t57 -9q40 0 78 13.5t63 39.5z" />
    <glyph glyph-name="Agrave" unicode="&#xc0;" horiz-adv-x="527" 
d="M419 748l-188 107l33 53l178 -124zM426 0l-44 256h-233l-127 -256h-62l353 706h54l122 -706h-63zM337 520q-2 9 -3.5 22.5t-3.5 28t-3.5 28t-1.5 22.5q-7 -17 -18.5 -42.5t-26.5 -56.5l-108 -218h202z" />
    <glyph glyph-name="Aacute" unicode="&#xc1;" horiz-adv-x="527" 
d="M265 748l-23 37l178 124l33 -54zM426 0l-44 256h-233l-127 -256h-62l353 706h54l122 -706h-63zM337 520q-2 9 -3.5 22.5t-3.5 28t-3.5 28t-1.5 22.5q-7 -17 -18.5 -42.5t-26.5 -56.5l-108 -218h202z" />
    <glyph glyph-name="Acircumflex" unicode="&#xc2;" horiz-adv-x="527" 
d="M464 748l-102 84l-133 -84l-23 38l165 120l124 -120zM426 0l-44 256h-233l-127 -256h-62l353 706h54l122 -706h-63zM337 520q-2 9 -3.5 22.5t-3.5 28t-3.5 28t-1.5 22.5q-7 -17 -18.5 -42.5t-26.5 -56.5l-108 -218h202z" />
    <glyph glyph-name="Atilde" unicode="&#xc3;" horiz-adv-x="527" 
d="M493 837q-12 -26 -35.5 -46.5t-58.5 -20.5q-12 0 -22 3t-24 10l-21 10q-15 8 -22.5 9.5t-12.5 1.5q-20 0 -32 -11.5t-18 -22.5l-34 25q11 25 33.5 46t57.5 21q23 0 51 -14l21 -10q13 -6 20.5 -8t13.5 -2q19 0 30.5 11t18.5 23l34 -25v0zM426 0l-44 256h-233l-127 -256
h-62l353 706h54l122 -706h-63zM337 520q-2 9 -3.5 22.5t-3.5 28t-3.5 28t-1.5 22.5q-7 -17 -18.5 -42.5t-26.5 -56.5l-108 -218h202z" />
    <glyph glyph-name="Adieresis" unicode="&#xc4;" horiz-adv-x="527" 
d="M477 823q0 -21 -13.5 -34t-33.5 -13q-17 0 -27.5 10t-10.5 28q0 21 13.5 34t33.5 13q17 0 27.5 -10t10.5 -28zM316 823q0 -21 -13.5 -34t-33.5 -13q-17 0 -27.5 10t-10.5 28q0 21 13.5 34t33.5 13q17 0 27.5 -10t10.5 -28zM426 0l-44 256h-233l-127 -256h-62l353 706h54
l122 -706h-63zM337 520q-2 9 -3.5 22.5t-3.5 28t-3.5 28t-1.5 22.5q-7 -17 -18.5 -42.5t-26.5 -56.5l-108 -218h202z" />
    <glyph glyph-name="Aring" unicode="&#xc5;" horiz-adv-x="527" 
d="M458 838q0 -50 -31.5 -79t-76.5 -29q-40 0 -69.5 24t-29.5 73q0 50 31.5 78.5t76.5 28.5q40 0 69.5 -23.5t29.5 -72.5zM410 836q0 29 -15.5 42.5t-36.5 13.5q-25 0 -42 -16t-17 -47q0 -30 16 -43.5t36 -13.5q25 0 42 17t17 47zM426 0l-44 256h-233l-127 -256h-62l353 706
h54l122 -706h-63zM337 520q-2 9 -3.5 22.5t-3.5 28t-3.5 28t-1.5 22.5q-7 -17 -18.5 -42.5t-26.5 -56.5l-108 -218h202z" />
    <glyph glyph-name="AE" unicode="&#xc6;" horiz-adv-x="719" 
d="M731 651h-251l-42 -262h211l-8 -52h-211l-46 -285h269l-11 -52h-329l54 339h-136l-202 -339h-64l420 703h355zM419 664q-8 -18 -12.5 -28t-12.5 -23l-131 -223h112z" />
    <glyph glyph-name="Ccedilla" unicode="&#xc7;" horiz-adv-x="524" 
d="M552 596q-20 24 -61 43.5t-102 19.5q-60 0 -104 -21t-74.5 -54.5t-49 -75.5t-28.5 -84.5t-13.5 -82t-3.5 -66.5q0 -111 45 -172t146 -61q67 0 108.5 22.5t64.5 47.5l-15 -76q-20 -18 -63.5 -32.5t-97.5 -14.5h-3q-4 -9 -4 -20q0 -14 5 -20t13 -14q9 -8 18 -20t9 -37
q0 -38 -24 -62q-28 -28 -77 -28q-14 0 -27.5 2.5t-24.5 7.5l8 51q6 -5 16.5 -10t26.5 -5q18 0 31.5 8.5t13.5 31.5q0 16 -6.5 23.5t-14.5 14.5q-9 8 -15 16t-6 25q0 19 10 39q-60 7 -99 32t-62.5 63t-33 87t-9.5 106q0 103 24.5 177t59.5 125q28 40 59.5 65.5t64.5 39.5
t66.5 19.5t65.5 5.5q68 0 109 -15.5t64 -35.5z" />
    <glyph glyph-name="Egrave" unicode="&#xc8;" horiz-adv-x="441" 
d="M397 748l-188 107l33 53l178 -124zM453 651h-251l-42 -262h211l-8 -52h-211l-46 -285h269l-11 -52h-329l112 703h315z" />
    <glyph glyph-name="Eacute" unicode="&#xc9;" horiz-adv-x="441" 
d="M246 748l-23 37l178 124l33 -54zM453 651h-251l-42 -262h211l-8 -52h-211l-46 -285h269l-11 -52h-329l112 703h315z" />
    <glyph glyph-name="Ecircumflex" unicode="&#xca;" horiz-adv-x="441" 
d="M425 748l-102 84l-133 -84l-23 38l165 120l124 -120zM453 651h-251l-42 -262h211l-8 -52h-211l-46 -285h269l-11 -52h-329l112 703h315z" />
    <glyph glyph-name="Edieresis" unicode="&#xcb;" horiz-adv-x="441" 
d="M438 823q0 -21 -13.5 -34t-33.5 -13q-17 0 -27.5 10t-10.5 28q0 21 13.5 34t33.5 13q17 0 27.5 -10t10.5 -28zM277 823q0 -21 -13.5 -34t-33.5 -13q-17 0 -27.5 10t-10.5 28q0 21 13.5 34t33.5 13q17 0 27.5 -10t10.5 -28zM453 651h-251l-42 -262h211l-8 -52h-211
l-46 -285h269l-11 -52h-329l112 703h315z" />
    <glyph glyph-name="Igrave" unicode="&#xcc;" horiz-adv-x="212" 
d="M267 748l-188 107l33 53l178 -124zM98 0h-63l112 703h63z" />
    <glyph glyph-name="Iacute" unicode="&#xcd;" horiz-adv-x="212" 
d="M103 748l-23 37l178 124l33 -54zM98 0h-63l112 703h63z" />
    <glyph glyph-name="Icircumflex" unicode="&#xce;" horiz-adv-x="212" 
d="M305 748l-102 84l-133 -84l-23 38l165 120l124 -120zM98 0h-63l112 703h63z" />
    <glyph glyph-name="Idieresis" unicode="&#xcf;" horiz-adv-x="212" 
d="M315 823q0 -21 -13.5 -34t-33.5 -13q-17 0 -27.5 10t-10.5 28q0 21 13.5 34t33.5 13q17 0 27.5 -10t10.5 -28zM154 823q0 -21 -13.5 -34t-33.5 -13q-17 0 -27.5 10t-10.5 28q0 21 13.5 34t33.5 13q17 0 27.5 -10t10.5 -28zM98 0h-63l112 703h63z" />
    <glyph glyph-name="Eth" unicode="&#xd0;" horiz-adv-x="604" 
d="M584 422q0 -107 -31.5 -192.5t-89.5 -141.5q-27 -26 -57.5 -43t-67.5 -27t-80.5 -14t-95.5 -4h-127l53 336h-65l8 51h65l51 316h127q50 0 87 -3t65.5 -11t50 -21.5t40.5 -33.5q34 -37 50.5 -87t16.5 -125zM517 426q0 77 -18 124.5t-57 72.5q-23 15 -58.5 22t-92.5 7h-89
l-42 -265h200l-12 -51h-196l-45 -285h113q67 0 115 19.5t81 51.5t53 73t30.5 82.5t14 80.5t3.5 68z" />
    <glyph glyph-name="Ntilde" unicode="&#xd1;" horiz-adv-x="594" 
d="M534 837q-12 -26 -35.5 -46.5t-58.5 -20.5q-12 0 -22 3t-24 10l-21 10q-15 8 -22.5 9.5t-12.5 1.5q-20 0 -32 -11.5t-18 -22.5l-34 25q11 25 33.5 46t57.5 21q23 0 51 -14l21 -10q13 -6 20.5 -8t13.5 -2q19 0 30.5 11t18.5 23l34 -25v0zM481 0h-47l-219 513
q-11 26 -20 51t-9 35l-94 -599h-57l111 703h55l209 -495q4 -11 9.5 -24t10 -25.5t8 -24.5t4.5 -19l93 588h57z" />
    <glyph glyph-name="Ograve" unicode="&#xd2;" horiz-adv-x="621" 
d="M473 748l-188 107l33 53l178 -124zM601 433q0 -20 -3 -60.5t-13 -90t-30.5 -102t-55.5 -95t-87 -70t-126 -27.5q-54 0 -92.5 15t-64.5 38.5t-42 54t-24.5 61.5t-11 60t-2.5 51q0 20 3 60.5t13 90t30.5 102t55.5 95t87 70t126 27.5q54 0 92.5 -15t64.5 -38.5t42 -54
t24.5 -61.5t11 -60.5t2.5 -50.5zM534 422q0 68 -12.5 113.5t-35 73.5t-54.5 39.5t-71 11.5q-51 0 -93 -19.5t-77 -69.5q-21 -30 -35 -65.5t-23 -73.5t-13 -77t-4 -76q0 -68 12.5 -113.5t35 -73.5t54.5 -39.5t71 -11.5q51 0 93 19.5t77 69.5q21 30 35 65.5t23 73.5t13 77
t4 76z" />
    <glyph glyph-name="Oacute" unicode="&#xd3;" horiz-adv-x="621" 
d="M316 748l-23 37l178 124l33 -54zM601 433q0 -20 -3 -60.5t-13 -90t-30.5 -102t-55.5 -95t-87 -70t-126 -27.5q-54 0 -92.5 15t-64.5 38.5t-42 54t-24.5 61.5t-11 60t-2.5 51q0 20 3 60.5t13 90t30.5 102t55.5 95t87 70t126 27.5q54 0 92.5 -15t64.5 -38.5t42 -54
t24.5 -61.5t11 -60.5t2.5 -50.5zM534 422q0 68 -12.5 113.5t-35 73.5t-54.5 39.5t-71 11.5q-51 0 -93 -19.5t-77 -69.5q-21 -30 -35 -65.5t-23 -73.5t-13 -77t-4 -76q0 -68 12.5 -113.5t35 -73.5t54.5 -39.5t71 -11.5q51 0 93 19.5t77 69.5q21 30 35 65.5t23 73.5t13 77
t4 76z" />
    <glyph glyph-name="Ocircumflex" unicode="&#xd4;" horiz-adv-x="621" 
d="M499 748l-102 84l-133 -84l-23 38l165 120l124 -120zM601 433q0 -20 -3 -60.5t-13 -90t-30.5 -102t-55.5 -95t-87 -70t-126 -27.5q-54 0 -92.5 15t-64.5 38.5t-42 54t-24.5 61.5t-11 60t-2.5 51q0 20 3 60.5t13 90t30.5 102t55.5 95t87 70t126 27.5q54 0 92.5 -15
t64.5 -38.5t42 -54t24.5 -61.5t11 -60.5t2.5 -50.5zM534 422q0 68 -12.5 113.5t-35 73.5t-54.5 39.5t-71 11.5q-51 0 -93 -19.5t-77 -69.5q-21 -30 -35 -65.5t-23 -73.5t-13 -77t-4 -76q0 -68 12.5 -113.5t35 -73.5t54.5 -39.5t71 -11.5q51 0 93 19.5t77 69.5q21 30 35 65.5
t23 73.5t13 77t4 76z" />
    <glyph glyph-name="Otilde" unicode="&#xd5;" horiz-adv-x="621" 
d="M534 837q-12 -26 -35.5 -46.5t-58.5 -20.5q-12 0 -22 3t-24 10l-21 10q-15 8 -22.5 9.5t-12.5 1.5q-20 0 -32 -11.5t-18 -22.5l-34 25q11 25 33.5 46t57.5 21q23 0 51 -14l21 -10q13 -6 20.5 -8t13.5 -2q19 0 30.5 11t18.5 23l34 -25v0zM601 433q0 -20 -3 -60.5t-13 -90
t-30.5 -102t-55.5 -95t-87 -70t-126 -27.5q-54 0 -92.5 15t-64.5 38.5t-42 54t-24.5 61.5t-11 60t-2.5 51q0 20 3 60.5t13 90t30.5 102t55.5 95t87 70t126 27.5q54 0 92.5 -15t64.5 -38.5t42 -54t24.5 -61.5t11 -60.5t2.5 -50.5zM534 422q0 68 -12.5 113.5t-35 73.5
t-54.5 39.5t-71 11.5q-51 0 -93 -19.5t-77 -69.5q-21 -30 -35 -65.5t-23 -73.5t-13 -77t-4 -76q0 -68 12.5 -113.5t35 -73.5t54.5 -39.5t71 -11.5q51 0 93 19.5t77 69.5q21 30 35 65.5t23 73.5t13 77t4 76z" />
    <glyph glyph-name="Odieresis" unicode="&#xd6;" horiz-adv-x="621" 
d="M517 823q0 -21 -13.5 -34t-33.5 -13q-17 0 -27.5 10t-10.5 28q0 21 13.5 34t33.5 13q17 0 27.5 -10t10.5 -28zM356 823q0 -21 -13.5 -34t-33.5 -13q-17 0 -27.5 10t-10.5 28q0 21 13.5 34t33.5 13q17 0 27.5 -10t10.5 -28zM601 433q0 -20 -3 -60.5t-13 -90t-30.5 -102
t-55.5 -95t-87 -70t-126 -27.5q-54 0 -92.5 15t-64.5 38.5t-42 54t-24.5 61.5t-11 60t-2.5 51q0 20 3 60.5t13 90t30.5 102t55.5 95t87 70t126 27.5q54 0 92.5 -15t64.5 -38.5t42 -54t24.5 -61.5t11 -60.5t2.5 -50.5zM534 422q0 68 -12.5 113.5t-35 73.5t-54.5 39.5
t-71 11.5q-51 0 -93 -19.5t-77 -69.5q-21 -30 -35 -65.5t-23 -73.5t-13 -77t-4 -76q0 -68 12.5 -113.5t35 -73.5t54.5 -39.5t71 -11.5q51 0 93 19.5t77 69.5q21 30 35 65.5t23 73.5t13 77t4 76z" />
    <glyph glyph-name="multiply" unicode="&#xd7;" horiz-adv-x="546" 
d="M493 100l-204 208l-204 -207l-42 38l205 208l-204 208l42 42l204 -208l203 207l41 -40l-203 -207l205 -209z" />
    <glyph glyph-name="Oslash" unicode="&#xd8;" horiz-adv-x="621" 
d="M545 633q18 -24 29 -52t17 -55.5t8 -52t2 -42.5q0 -19 -3 -59.5t-13 -90t-30.5 -101.5t-55.5 -94.5t-87 -70t-126 -27.5q-52 0 -91 14t-65 37l-54 -78h-61l82 118q-17 24 -26.5 52.5t-14 55t-6 49t-1.5 35.5q0 19 3 59t13 89t30.5 101.5t55 95t86.5 70t126 27.5
q48 0 83.5 -11.5t61.5 -31.5l41 58h63zM474 621q-23 20 -51.5 29.5t-63.5 9.5q-48 0 -90.5 -19.5t-77.5 -69.5q-21 -30 -35.5 -66t-23 -74.5t-12.5 -78.5t-4 -78q0 -47 5 -79.5t16 -58.5zM534 426q0 54 -7 89t-20 62l-342 -488q23 -26 55 -37t70 -11q49 0 91.5 19.5
t77.5 69.5q21 30 35.5 66t23 74.5t12.5 78t4 77.5z" />
    <glyph glyph-name="Ugrave" unicode="&#xd9;" horiz-adv-x="584" 
d="M449 748l-188 107l33 53l178 -124zM519 257q-6 -38 -11.5 -69t-14 -57t-20.5 -47.5t-30 -39.5q-34 -33 -76.5 -44.5t-91.5 -11.5q-53 0 -89.5 9.5t-61 25t-38 34t-20.5 37.5t-8.5 36t-1.5 28q0 23 2.5 49t6.5 50l71 446h63l-73 -458q-3 -20 -5 -37t-2 -34q0 -45 14.5 -71
t37 -40t49.5 -18t51 -4q52 0 84.5 12.5t52 37t30 61t18.5 84.5l75 467h59z" />
    <glyph glyph-name="Uacute" unicode="&#xda;" horiz-adv-x="584" 
d="M315 748l-23 37l178 124l33 -54zM519 257q-6 -38 -11.5 -69t-14 -57t-20.5 -47.5t-30 -39.5q-34 -33 -76.5 -44.5t-91.5 -11.5q-53 0 -89.5 9.5t-61 25t-38 34t-20.5 37.5t-8.5 36t-1.5 28q0 23 2.5 49t6.5 50l71 446h63l-73 -458q-3 -20 -5 -37t-2 -34q0 -45 14.5 -71
t37 -40t49.5 -18t51 -4q52 0 84.5 12.5t52 37t30 61t18.5 84.5l75 467h59z" />
    <glyph glyph-name="Ucircumflex" unicode="&#xdb;" horiz-adv-x="584" 
d="M487 748l-102 84l-133 -84l-23 38l165 120l124 -120zM519 257q-6 -38 -11.5 -69t-14 -57t-20.5 -47.5t-30 -39.5q-34 -33 -76.5 -44.5t-91.5 -11.5q-53 0 -89.5 9.5t-61 25t-38 34t-20.5 37.5t-8.5 36t-1.5 28q0 23 2.5 49t6.5 50l71 446h63l-73 -458q-3 -20 -5 -37
t-2 -34q0 -45 14.5 -71t37 -40t49.5 -18t51 -4q52 0 84.5 12.5t52 37t30 61t18.5 84.5l75 467h59z" />
    <glyph glyph-name="Udieresis" unicode="&#xdc;" horiz-adv-x="584" 
d="M505 823q0 -21 -13.5 -34t-33.5 -13q-17 0 -27.5 10t-10.5 28q0 21 13.5 34t33.5 13q17 0 27.5 -10t10.5 -28zM344 823q0 -21 -13.5 -34t-33.5 -13q-17 0 -27.5 10t-10.5 28q0 21 13.5 34t33.5 13q17 0 27.5 -10t10.5 -28zM519 257q-6 -38 -11.5 -69t-14 -57t-20.5 -47.5
t-30 -39.5q-34 -33 -76.5 -44.5t-91.5 -11.5q-53 0 -89.5 9.5t-61 25t-38 34t-20.5 37.5t-8.5 36t-1.5 28q0 23 2.5 49t6.5 50l71 446h63l-73 -458q-3 -20 -5 -37t-2 -34q0 -45 14.5 -71t37 -40t49.5 -18t51 -4q52 0 84.5 12.5t52 37t30 61t18.5 84.5l75 467h59z" />
    <glyph glyph-name="Yacute" unicode="&#xdd;" horiz-adv-x="500" 
d="M278 748l-23 37l178 124l33 -54zM278 278l-44 -278h-63l43 277l-154 426h69l125 -364l245 364h71z" />
    <glyph glyph-name="Thorn" unicode="&#xde;" horiz-adv-x="457" 
d="M463 445q0 -80 -26.5 -129t-66 -76t-85 -36t-83.5 -9h-73l-31 -195h-63l110 703h65l-15 -91h63q30 0 53 -1.5t40.5 -5t31.5 -10t26 -15.5q26 -20 40 -50t14 -85zM398 438q0 44 -10 68.5t-28.5 36.5t-44 15t-56.5 3h-73l-50 -314h72q34 0 68 8t61 29.5t44 58.5t17 95z" />
    <glyph glyph-name="germandbls" unicode="&#xdf;" horiz-adv-x="532" 
d="M492 644q0 -27 -8 -48.5t-22 -39.5t-33 -34t-40 -31q-17 -12 -32.5 -23.5t-27.5 -23.5t-19.5 -27t-7.5 -34q0 -23 10 -37.5t29 -30.5l66 -55q35 -29 50.5 -56.5t15.5 -65.5q0 -17 -5 -42t-21.5 -48t-48.5 -39.5t-87 -16.5q-48 0 -79 11.5t-48 25.5l9 59
q17 -17 45.5 -32.5t71.5 -15.5t72 20.5t29 70.5q0 29 -12 47.5t-38 40.5l-56 46q-39 32 -51.5 57.5t-12.5 54.5q0 28 8.5 49t23 38t34.5 32t43 31q34 24 56.5 47.5t22.5 61.5q0 27 -11 43.5t-27.5 25.5t-35.5 12.5t-36 3.5q-38 0 -63 -12t-39 -32q-13 -17 -19.5 -39
t-10.5 -46l-94 -592h-60l93 593q5 28 12 53t18 45q23 39 66 59t101 20q26 0 55.5 -5t55 -19t42 -38.5t16.5 -63.5z" />
    <glyph glyph-name="agrave" unicode="&#xe0;" horiz-adv-x="477" 
d="M365 0h-58l22 123q-12 -23 -28 -46.5t-35 -41.5q-28 -26 -54 -34t-48 -8q-59 0 -91 41t-32 137q0 57 12.5 119t41 113t74 84t111.5 33q39 0 64.5 -10.5t39.5 -23.5l4 27h58zM373 437q-11 11 -32.5 21.5t-54.5 10.5q-40 0 -69 -17t-49.5 -44.5t-32.5 -61t-19 -67t-9 -63
t-2 -48.5q0 -42 7 -66t17.5 -36t22.5 -15.5t22 -3.5q28 0 51 15t48 46q11 14 22.5 30.5t21.5 34.5t17 36.5t10 35.5zM395 583l-188 107l33 53l178 -124z" />
    <glyph glyph-name="aacute" unicode="&#xe1;" horiz-adv-x="477" 
d="M253 583l-23 37l178 124l33 -54zM365 0h-58l22 123q-12 -23 -28 -46.5t-35 -41.5q-28 -26 -54 -34t-48 -8q-59 0 -91 41t-32 137q0 57 12.5 119t41 113t74 84t111.5 33q39 0 64.5 -10.5t39.5 -23.5l4 27h58zM373 437q-11 11 -32.5 21.5t-54.5 10.5q-40 0 -69 -17
t-49.5 -44.5t-32.5 -61t-19 -67t-9 -63t-2 -48.5q0 -42 7 -66t17.5 -36t22.5 -15.5t22 -3.5q28 0 51 15t48 46q11 14 22.5 30.5t21.5 34.5t17 36.5t10 35.5z" />
    <glyph glyph-name="acircumflex" unicode="&#xe2;" horiz-adv-x="477" 
d="M418 583l-102 84l-133 -84l-23 38l165 120l124 -120zM365 0h-58l22 123q-12 -23 -28 -46.5t-35 -41.5q-28 -26 -54 -34t-48 -8q-59 0 -91 41t-32 137q0 57 12.5 119t41 113t74 84t111.5 33q39 0 64.5 -10.5t39.5 -23.5l4 27h58zM373 437q-11 11 -32.5 21.5t-54.5 10.5
q-40 0 -69 -17t-49.5 -44.5t-32.5 -61t-19 -67t-9 -63t-2 -48.5q0 -42 7 -66t17.5 -36t22.5 -15.5t22 -3.5q28 0 51 15t48 46q11 14 22.5 30.5t21.5 34.5t17 36.5t10 35.5z" />
    <glyph glyph-name="atilde" unicode="&#xe3;" horiz-adv-x="477" 
d="M448 672q-12 -26 -35.5 -46.5t-58.5 -20.5q-12 0 -22 3t-24 10l-21 10q-15 8 -22.5 9.5t-12.5 1.5q-20 0 -32 -11.5t-18 -22.5l-34 25q11 25 33.5 46t57.5 21q23 0 51 -14l21 -10q13 -6 20.5 -8t13.5 -2q19 0 30.5 11t18.5 23l34 -25v0zM365 0h-58l22 123
q-12 -23 -28 -46.5t-35 -41.5q-28 -26 -54 -34t-48 -8q-59 0 -91 41t-32 137q0 57 12.5 119t41 113t74 84t111.5 33q39 0 64.5 -10.5t39.5 -23.5l4 27h58zM373 437q-11 11 -32.5 21.5t-54.5 10.5q-40 0 -69 -17t-49.5 -44.5t-32.5 -61t-19 -67t-9 -63t-2 -48.5q0 -42 7 -66
t17.5 -36t22.5 -15.5t22 -3.5q28 0 51 15t48 46q11 14 22.5 30.5t21.5 34.5t17 36.5t10 35.5z" />
    <glyph glyph-name="adieresis" unicode="&#xe4;" horiz-adv-x="477" 
d="M445 658q0 -21 -13.5 -34t-33.5 -13q-17 0 -27.5 10t-10.5 28q0 21 13.5 34t33.5 13q17 0 27.5 -10t10.5 -28zM284 658q0 -21 -13.5 -34t-33.5 -13q-17 0 -27.5 10t-10.5 28q0 21 13.5 34t33.5 13q17 0 27.5 -10t10.5 -28zM365 0h-58l22 123q-12 -23 -28 -46.5t-35 -41.5
q-28 -26 -54 -34t-48 -8q-59 0 -91 41t-32 137q0 57 12.5 119t41 113t74 84t111.5 33q39 0 64.5 -10.5t39.5 -23.5l4 27h58zM373 437q-11 11 -32.5 21.5t-54.5 10.5q-40 0 -69 -17t-49.5 -44.5t-32.5 -61t-19 -67t-9 -63t-2 -48.5q0 -42 7 -66t17.5 -36t22.5 -15.5t22 -3.5
q28 0 51 15t48 46q11 14 22.5 30.5t21.5 34.5t17 36.5t10 35.5z" />
    <glyph glyph-name="aring" unicode="&#xe5;" horiz-adv-x="477" 
d="M415 655q0 -50 -31.5 -79t-76.5 -29q-40 0 -69.5 24t-29.5 73q0 50 31.5 78.5t76.5 28.5q40 0 69.5 -23.5t29.5 -72.5zM367 653q0 29 -15.5 42.5t-36.5 13.5q-25 0 -42 -16t-17 -47q0 -30 16 -43.5t36 -13.5q25 0 42 17t17 47zM365 0h-58l22 123q-12 -23 -28 -46.5
t-35 -41.5q-28 -26 -54 -34t-48 -8q-59 0 -91 41t-32 137q0 57 12.5 119t41 113t74 84t111.5 33q39 0 64.5 -10.5t39.5 -23.5l4 27h58zM373 437q-11 11 -32.5 21.5t-54.5 10.5q-40 0 -69 -17t-49.5 -44.5t-32.5 -61t-19 -67t-9 -63t-2 -48.5q0 -42 7 -66t17.5 -36
t22.5 -15.5t22 -3.5q28 0 51 15t48 46q11 14 22.5 30.5t21.5 34.5t17 36.5t10 35.5z" />
    <glyph glyph-name="ae" unicode="&#xe6;" horiz-adv-x="736" 
d="M717 406q0 -29 -9 -51t-23 -38t-31 -26.5t-34 -17.5q-24 -10 -52 -15.5t-56 -8.5t-53 -4t-44 -1h-10q-1 -5 -1.5 -17t-0.5 -26q0 -35 5.5 -64.5t20 -51t39 -33.5t62.5 -12q45 0 76 14.5t48 31.5l-12 -64q-15 -11 -44 -20.5t-74 -9.5q-58 0 -92.5 16t-53 38.5t-25.5 48
t-9 43.5q-10 -23 -30 -52t-40 -49q-25 -24 -52.5 -34t-56.5 -10q-60 0 -92 41t-32 136q0 57 12.5 119t41 113.5t74 84.5t111.5 33q41 0 65.5 -11.5t37.5 -22.5l4 27h55l-10 -60q20 25 56.5 46t96.5 21q46 0 72.5 -13t39.5 -31.5t16.5 -38t3.5 -31.5zM654 404q0 69 -78 69
q-48 0 -78.5 -21.5t-47.5 -50.5q-14 -23 -24.5 -54t-15.5 -60h9q123 0 179 28.5t56 88.5zM373 437q-11 11 -32.5 21.5t-54.5 10.5q-40 0 -69 -17t-49.5 -44.5t-32.5 -61t-19 -67t-9 -63t-2 -48.5q0 -42 7 -66t17.5 -36t22.5 -15.5t22 -3.5q28 0 51 15t48 46q11 14 22.5 30.5
t21.5 34.5t17 36.5t10 35.5z" />
    <glyph glyph-name="ccedilla" unicode="&#xe7;" horiz-adv-x="414" 
d="M399 423q-14 16 -40.5 32t-71.5 16q-12 0 -26 -2t-30 -7.5t-31.5 -16t-30.5 -28.5q-29 -35 -46 -90t-17 -122q0 -38 6.5 -68.5t21 -52t38.5 -33t59 -11.5q42 0 71 14t49 32l-12 -64q-15 -11 -42 -19.5t-61 -10.5q-5 -13 -5 -24q0 -13 5 -19.5t13 -13.5q9 -8 18 -20t9 -37
q0 -38 -24 -62q-28 -28 -77 -28q-14 0 -27.5 2.5t-24.5 7.5l8 51q6 -5 16.5 -10t26.5 -5q18 0 31.5 8.5t13.5 31.5q0 16 -6.5 23.5t-14.5 14.5t-14.5 15t-6.5 25q0 11 3 21.5t8 21.5q-27 5 -53 14.5t-47 31t-34 59.5t-13 100q0 59 13.5 116.5t43 102.5t75.5 72.5t112 27.5
q49 0 79 -13t44 -26z" />
    <glyph glyph-name="egrave" unicode="&#xe8;" horiz-adv-x="439" 
d="M420 405q0 -30 -9.5 -52t-24 -38t-31.5 -26t-32 -16q-25 -10 -54.5 -16t-57.5 -9t-52.5 -3.5t-40.5 -0.5h-10q-1 -5 -1.5 -17t-0.5 -26q0 -35 5.5 -64.5t20 -51t39 -33.5t62.5 -12q45 0 76 14.5t48 31.5l-12 -64q-13 -10 -41.5 -20t-76.5 -10q-65 0 -102 21t-55.5 51.5
t-23.5 65t-5 61.5q0 67 15.5 127t47 105t77.5 71t108 26q43 0 69 -12t40 -30t18 -38t4 -35zM357 404q0 69 -78 69q-48 0 -78.5 -21.5t-47.5 -50.5q-14 -23 -24.5 -54t-15.5 -60h9q123 0 179 28.5t56 88.5zM362 583l-188 107l33 53l178 -124z" />
    <glyph glyph-name="eacute" unicode="&#xe9;" horiz-adv-x="439" 
d="M224 583l-23 37l178 124l33 -54zM420 405q0 -30 -9.5 -52t-24 -38t-31.5 -26t-32 -16q-25 -10 -54.5 -16t-57.5 -9t-52.5 -3.5t-40.5 -0.5h-10q-1 -5 -1.5 -17t-0.5 -26q0 -35 5.5 -64.5t20 -51t39 -33.5t62.5 -12q45 0 76 14.5t48 31.5l-12 -64q-13 -10 -41.5 -20
t-76.5 -10q-65 0 -102 21t-55.5 51.5t-23.5 65t-5 61.5q0 67 15.5 127t47 105t77.5 71t108 26q43 0 69 -12t40 -30t18 -38t4 -35zM357 404q0 69 -78 69q-48 0 -78.5 -21.5t-47.5 -50.5q-14 -23 -24.5 -54t-15.5 -60h9q123 0 179 28.5t56 88.5z" />
    <glyph glyph-name="ecircumflex" unicode="&#xea;" horiz-adv-x="439" 
d="M397 583l-102 84l-133 -84l-23 38l165 120l124 -120zM420 405q0 -30 -9.5 -52t-24 -38t-31.5 -26t-32 -16q-25 -10 -54.5 -16t-57.5 -9t-52.5 -3.5t-40.5 -0.5h-10q-1 -5 -1.5 -17t-0.5 -26q0 -35 5.5 -64.5t20 -51t39 -33.5t62.5 -12q45 0 76 14.5t48 31.5l-12 -64
q-13 -10 -41.5 -20t-76.5 -10q-65 0 -102 21t-55.5 51.5t-23.5 65t-5 61.5q0 67 15.5 127t47 105t77.5 71t108 26q43 0 69 -12t40 -30t18 -38t4 -35zM357 404q0 69 -78 69q-48 0 -78.5 -21.5t-47.5 -50.5q-14 -23 -24.5 -54t-15.5 -60h9q123 0 179 28.5t56 88.5z" />
    <glyph glyph-name="edieresis" unicode="&#xeb;" horiz-adv-x="439" 
d="M413 658q0 -21 -13.5 -34t-33.5 -13q-17 0 -27.5 10t-10.5 28q0 21 13.5 34t33.5 13q17 0 27.5 -10t10.5 -28zM252 658q0 -21 -13.5 -34t-33.5 -13q-17 0 -27.5 10t-10.5 28q0 21 13.5 34t33.5 13q17 0 27.5 -10t10.5 -28zM420 405q0 -30 -9.5 -52t-24 -38t-31.5 -26
t-32 -16q-25 -10 -54.5 -16t-57.5 -9t-52.5 -3.5t-40.5 -0.5h-10q-1 -5 -1.5 -17t-0.5 -26q0 -35 5.5 -64.5t20 -51t39 -33.5t62.5 -12q45 0 76 14.5t48 31.5l-12 -64q-13 -10 -41.5 -20t-76.5 -10q-65 0 -102 21t-55.5 51.5t-23.5 65t-5 61.5q0 67 15.5 127t47 105t77.5 71
t108 26q43 0 69 -12t40 -30t18 -38t4 -35zM357 404q0 69 -78 69q-48 0 -78.5 -21.5t-47.5 -50.5q-14 -23 -24.5 -54t-15.5 -60h9q123 0 179 28.5t56 88.5z" />
    <glyph glyph-name="igrave" unicode="&#xec;" horiz-adv-x="210" 
d="M95 0h-60l81 512h60zM225 583l-188 107l33 53l178 -124z" />
    <glyph glyph-name="iacute" unicode="&#xed;" horiz-adv-x="210" 
d="M95 0h-60l81 512h60zM98 583l-23 37l178 124l33 -54z" />
    <glyph glyph-name="icircumflex" unicode="&#xee;" horiz-adv-x="210" 
d="M274 583l-102 84l-133 -84l-23 38l165 120l124 -120zM95 0h-60l81 512h60z" />
    <glyph glyph-name="idieresis" unicode="&#xef;" horiz-adv-x="210" 
d="M95 0h-60l81 512h60zM289 658q0 -21 -13.5 -34t-33.5 -13q-17 0 -27.5 10t-10.5 28q0 21 13.5 34t33.5 13q17 0 27.5 -10t10.5 -28zM128 658q0 -21 -13.5 -34t-33.5 -13q-17 0 -27.5 10t-10.5 28q0 21 13.5 34t33.5 13q17 0 27.5 -10t10.5 -28z" />
    <glyph glyph-name="eth" unicode="&#xf0;" horiz-adv-x="464" 
d="M414 678q17 -35 24 -80t7 -93q0 -38 -3.5 -79t-9 -81t-12.5 -77t-14 -65q-9 -38 -23.5 -76t-38 -68.5t-59 -49.5t-86.5 -19q-35 0 -64 10t-50 32.5t-33 59.5t-12 90q0 24 3 58t12 72t25 75t41.5 67t61.5 48.5t86 18.5q43 0 70.5 -12t40.5 -26v5t0.5 5t0.5 9v17
q0 22 -2.5 57.5t-16.5 67.5l-68 -46l-27 41l68 46q-15 15 -36.5 23.5t-55.5 8.5q-40 0 -76.5 -11t-58.5 -29l9 61q19 11 53 21.5t79 10.5q48 0 81.5 -13.5t56.5 -37.5l76 51l27 -41zM377 422q-17 23 -45.5 36t-60.5 13q-34 0 -60 -14.5t-44.5 -38.5t-30.5 -54.5t-19 -62
t-10 -62t-3 -53.5q0 -69 22.5 -107.5t76.5 -38.5q35 0 62.5 18t47.5 57.5t34.5 102t24.5 150.5q2 17 3 26.5t1 14.5t0.5 7.5t0.5 5.5z" />
    <glyph glyph-name="ntilde" unicode="&#xf1;" horiz-adv-x="498" 
d="M458 672q-12 -26 -35.5 -46.5t-58.5 -20.5q-12 0 -22 3t-24 10l-21 10q-15 8 -22.5 9.5t-12.5 1.5q-20 0 -32 -11.5t-18 -22.5l-34 25q11 25 33.5 46t57.5 21q23 0 51 -14l21 -10q13 -6 20.5 -8t13.5 -2q19 0 30.5 11t18.5 23l34 -25v0zM444 416q0 -27 -3 -53.5t-5 -36.5
l-51 -326h-60l49 313q2 13 5.5 39t3.5 52q0 7 -1 18t-7 20.5t-18.5 16.5t-34.5 7q-37 0 -64 -18.5t-47 -42.5q-12 -15 -24.5 -32.5t-22.5 -35.5t-17 -34.5t-9 -28.5l-43 -274h-60l81 512h58l-21 -122q13 23 30.5 47t36.5 41q29 26 58 34t53 8q42 0 64.5 -13.5t33.5 -31
t13 -35t2 -24.5z" />
    <glyph glyph-name="ograve" unicode="&#xf2;" horiz-adv-x="470" 
d="M430 318q0 -22 -3 -55.5t-11.5 -69.5t-24 -72.5t-40.5 -65.5t-61 -47t-85 -18q-57 0 -89.5 23t-49.5 55t-21.5 66.5t-4.5 58.5q0 22 3 55.5t11.5 69.5t24 72.5t40.5 65.5t61 47t85 18q57 0 89.5 -23t49.5 -55t21.5 -66.5t4.5 -58.5zM366 310q0 87 -27 124t-79 37
q-28 0 -51 -10.5t-43 -36.5q-31 -39 -46.5 -98t-15.5 -125q0 -87 26.5 -124t79.5 -37q28 0 51 10.5t43 36.5q31 39 46.5 98t15.5 125zM368 583l-188 107l33 53l178 -124z" />
    <glyph glyph-name="oacute" unicode="&#xf3;" horiz-adv-x="470" 
d="M212 583l-23 37l178 124l33 -54zM430 318q0 -22 -3 -55.5t-11.5 -69.5t-24 -72.5t-40.5 -65.5t-61 -47t-85 -18q-57 0 -89.5 23t-49.5 55t-21.5 66.5t-4.5 58.5q0 22 3 55.5t11.5 69.5t24 72.5t40.5 65.5t61 47t85 18q57 0 89.5 -23t49.5 -55t21.5 -66.5t4.5 -58.5z
M366 310q0 87 -27 124t-79 37q-28 0 -51 -10.5t-43 -36.5q-31 -39 -46.5 -98t-15.5 -125q0 -87 26.5 -124t79.5 -37q28 0 51 10.5t43 36.5q31 39 46.5 98t15.5 125z" />
    <glyph glyph-name="ocircumflex" unicode="&#xf4;" horiz-adv-x="470" 
d="M397 583l-102 84l-133 -84l-23 38l165 120l124 -120zM430 318q0 -22 -3 -55.5t-11.5 -69.5t-24 -72.5t-40.5 -65.5t-61 -47t-85 -18q-57 0 -89.5 23t-49.5 55t-21.5 66.5t-4.5 58.5q0 22 3 55.5t11.5 69.5t24 72.5t40.5 65.5t61 47t85 18q57 0 89.5 -23t49.5 -55
t21.5 -66.5t4.5 -58.5zM366 310q0 87 -27 124t-79 37q-28 0 -51 -10.5t-43 -36.5q-31 -39 -46.5 -98t-15.5 -125q0 -87 26.5 -124t79.5 -37q28 0 51 10.5t43 36.5q31 39 46.5 98t15.5 125z" />
    <glyph glyph-name="otilde" unicode="&#xf5;" horiz-adv-x="470" 
d="M432 672q-12 -26 -35.5 -46.5t-58.5 -20.5q-12 0 -22 3t-24 10l-21 10q-15 8 -22.5 9.5t-12.5 1.5q-20 0 -32 -11.5t-18 -22.5l-34 25q11 25 33.5 46t57.5 21q23 0 51 -14l21 -10q13 -6 20.5 -8t13.5 -2q19 0 30.5 11t18.5 23l34 -25v0zM430 318q0 -22 -3 -55.5
t-11.5 -69.5t-24 -72.5t-40.5 -65.5t-61 -47t-85 -18q-57 0 -89.5 23t-49.5 55t-21.5 66.5t-4.5 58.5q0 22 3 55.5t11.5 69.5t24 72.5t40.5 65.5t61 47t85 18q57 0 89.5 -23t49.5 -55t21.5 -66.5t4.5 -58.5zM366 310q0 87 -27 124t-79 37q-28 0 -51 -10.5t-43 -36.5
q-31 -39 -46.5 -98t-15.5 -125q0 -87 26.5 -124t79.5 -37q28 0 51 10.5t43 36.5q31 39 46.5 98t15.5 125z" />
    <glyph glyph-name="odieresis" unicode="&#xf6;" horiz-adv-x="470" 
d="M415 658q0 -21 -13.5 -34t-33.5 -13q-17 0 -27.5 10t-10.5 28q0 21 13.5 34t33.5 13q17 0 27.5 -10t10.5 -28zM254 658q0 -21 -13.5 -34t-33.5 -13q-17 0 -27.5 10t-10.5 28q0 21 13.5 34t33.5 13q17 0 27.5 -10t10.5 -28zM430 318q0 -22 -3 -55.5t-11.5 -69.5t-24 -72.5
t-40.5 -65.5t-61 -47t-85 -18q-57 0 -89.5 23t-49.5 55t-21.5 66.5t-4.5 58.5q0 22 3 55.5t11.5 69.5t24 72.5t40.5 65.5t61 47t85 18q57 0 89.5 -23t49.5 -55t21.5 -66.5t4.5 -58.5zM366 310q0 87 -27 124t-79 37q-28 0 -51 -10.5t-43 -36.5q-31 -39 -46.5 -98t-15.5 -125
q0 -87 26.5 -124t79.5 -37q28 0 51 10.5t43 36.5q31 39 46.5 98t15.5 125z" />
    <glyph glyph-name="divide" unicode="&#xf7;" horiz-adv-x="640" 
d="M392 561q0 -27 -17 -43.5t-42 -16.5q-24 0 -42 16t-18 44q0 26 16.5 42.5t42.5 16.5t43 -16t17 -43zM36 320v59h594v-59h-594zM392 146q0 -28 -17 -44t-42 -16t-42.5 16t-17.5 44q0 26 17 42.5t43 16.5q25 0 42 -15.5t17 -43.5z" />
    <glyph glyph-name="oslash" unicode="&#xf8;" horiz-adv-x="470" 
d="M404 442q17 -33 21.5 -69t4.5 -57q0 -22 -3 -54.5t-11.5 -68.5t-24 -72.5t-40.5 -65.5t-61 -47t-85 -18q-29 0 -51 6t-39 17l-40 -59h-56l61 91q-13 18 -21 38.5t-12 41t-5.5 39t-1.5 32.5q0 21 3 53.5t11.5 69t24 72.5t40.5 65t61 47t85 18q37 0 63.5 -10.5t45.5 -27.5
l44 66h58zM340 433q-25 38 -80 38q-28 0 -51 -10.5t-43 -36.5q-29 -37 -45.5 -95.5t-16.5 -130.5q0 -62 14 -97zM366 311q0 39 -6 66l-214 -318q25 -19 64 -19q28 0 51 10.5t43 36.5q31 39 46.5 98t15.5 126z" />
    <glyph glyph-name="ugrave" unicode="&#xf9;" horiz-adv-x="493" 
d="M381 0h-58l21 123q-13 -23 -30.5 -47t-36.5 -41q-29 -26 -58 -34t-53 -8q-42 0 -64.5 13.5t-33.5 31t-13 34.5t-2 25q0 28 3 54t5 36l51 325h60l-49 -312q-2 -13 -5.5 -39.5t-3.5 -52.5q0 -8 1 -18t7 -20t18.5 -16.5t34.5 -6.5q37 0 64 18.5t47 42.5q10 12 22 29t22.5 35
t18.5 35.5t10 31.5l43 273h60zM375 583l-188 107l33 53l178 -124z" />
    <glyph glyph-name="uacute" unicode="&#xfa;" horiz-adv-x="493" 
d="M243 583l-23 37l178 124l33 -54zM381 0h-58l21 123q-13 -23 -30.5 -47t-36.5 -41q-29 -26 -58 -34t-53 -8q-42 0 -64.5 13.5t-33.5 31t-13 34.5t-2 25q0 28 3 54t5 36l51 325h60l-49 -312q-2 -13 -5.5 -39.5t-3.5 -52.5q0 -8 1 -18t7 -20t18.5 -16.5t34.5 -6.5
q37 0 64 18.5t47 42.5q10 12 22 29t22.5 35t18.5 35.5t10 31.5l43 273h60z" />
    <glyph glyph-name="ucircumflex" unicode="&#xfb;" horiz-adv-x="493" 
d="M413 583l-102 84l-133 -84l-23 38l165 120l124 -120zM381 0h-58l21 123q-13 -23 -30.5 -47t-36.5 -41q-29 -26 -58 -34t-53 -8q-42 0 -64.5 13.5t-33.5 31t-13 34.5t-2 25q0 28 3 54t5 36l51 325h60l-49 -312q-2 -13 -5.5 -39.5t-3.5 -52.5q0 -8 1 -18t7 -20t18.5 -16.5
t34.5 -6.5q37 0 64 18.5t47 42.5q10 12 22 29t22.5 35t18.5 35.5t10 31.5l43 273h60z" />
    <glyph glyph-name="udieresis" unicode="&#xfc;" horiz-adv-x="493" 
d="M430 658q0 -21 -13.5 -34t-33.5 -13q-17 0 -27.5 10t-10.5 28q0 21 13.5 34t33.5 13q17 0 27.5 -10t10.5 -28zM269 658q0 -21 -13.5 -34t-33.5 -13q-17 0 -27.5 10t-10.5 28q0 21 13.5 34t33.5 13q17 0 27.5 -10t10.5 -28zM381 0h-58l21 123q-13 -23 -30.5 -47t-36.5 -41
q-29 -26 -58 -34t-53 -8q-42 0 -64.5 13.5t-33.5 31t-13 34.5t-2 25q0 28 3 54t5 36l51 325h60l-49 -312q-2 -13 -5.5 -39.5t-3.5 -52.5q0 -8 1 -18t7 -20t18.5 -16.5t34.5 -6.5q37 0 64 18.5t47 42.5q10 12 22 29t22.5 35t18.5 35.5t10 31.5l43 273h60z" />
    <glyph glyph-name="yacute" unicode="&#xfd;" horiz-adv-x="410" 
d="M200 583l-23 37l178 124l33 -54zM144 -69q-22 -45 -40.5 -74.5t-38.5 -49.5q-38 -37 -100 -37q-31 0 -52 9l9 53q6 -5 19 -9t28 -4q21 0 37 8t29 21.5t24.5 32.5t22.5 41l44 88l-84 502h63l50 -324q5 -35 8 -63t4 -42q4 12 16 40.5t26 57.5l158 331h62z" />
    <glyph glyph-name="thorn" unicode="&#xfe;" 
d="M447 341q0 -57 -13 -118.5t-42 -112.5t-75.5 -84t-114.5 -33q-36 0 -62.5 9t-40.5 21l-40 -253h-60l156 986l60 14l-62 -377q11 20 27 43.5t36 41.5q26 24 52.5 33t53.5 9q29 0 52.5 -9.5t39.5 -31t24.5 -55.5t8.5 -83zM383 343q0 44 -8 69t-19 37t-23 14.5t-21 2.5
q-27 0 -51 -12.5t-53 -47.5q-25 -30 -45.5 -66.5t-25.5 -69.5l-30 -194q12 -13 35 -22.5t55 -9.5q42 0 72 17t50.5 44t33 60.5t19.5 67t9 62.5t2 48z" />
    <glyph glyph-name="ydieresis" unicode="&#xff;" horiz-adv-x="410" 
d="M385 658q0 -21 -13.5 -34t-33.5 -13q-17 0 -27.5 10t-10.5 28q0 21 13.5 34t33.5 13q17 0 27.5 -10t10.5 -28zM224 658q0 -21 -13.5 -34t-33.5 -13q-17 0 -27.5 10t-10.5 28q0 21 13.5 34t33.5 13q17 0 27.5 -10t10.5 -28zM144 -69q-22 -45 -40.5 -74.5t-38.5 -49.5
q-38 -37 -100 -37q-31 0 -52 9l9 53q6 -5 19 -9t28 -4q21 0 37 8t29 21.5t24.5 32.5t22.5 41l44 88l-84 502h63l50 -324q5 -35 8 -63t4 -42q4 12 16 40.5t26 57.5l158 331h62z" />
    <glyph glyph-name="Amacron" unicode="&#x100;" horiz-adv-x="527" 
d="M485 786h-273l8 53h274zM426 0l-44 256h-233l-127 -256h-62l353 706h54l122 -706h-63zM337 520q-2 9 -3.5 22.5t-3.5 28t-3.5 28t-1.5 22.5q-7 -17 -18.5 -42.5t-26.5 -56.5l-108 -218h202z" />
    <glyph glyph-name="amacron" unicode="&#x101;" horiz-adv-x="477" 
d="M471 621h-273l8 53h274zM365 0h-58l22 123q-12 -23 -28 -46.5t-35 -41.5q-28 -26 -54 -34t-48 -8q-59 0 -91 41t-32 137q0 57 12.5 119t41 113t74 84t111.5 33q39 0 64.5 -10.5t39.5 -23.5l4 27h58zM373 437q-11 11 -32.5 21.5t-54.5 10.5q-40 0 -69 -17t-49.5 -44.5
t-32.5 -61t-19 -67t-9 -63t-2 -48.5q0 -42 7 -66t17.5 -36t22.5 -15.5t22 -3.5q28 0 51 15t48 46q11 14 22.5 30.5t21.5 34.5t17 36.5t10 35.5z" />
    <glyph glyph-name="Abreve" unicode="&#x102;" horiz-adv-x="527" 
d="M515 859q-2 -4 -6 -10.5t-18.5 -24t-32 -30.5t-47 -23.5t-63.5 -10.5q-53 0 -90 25t-48 49l-10 25l50 30q1 -3 3.5 -8t11 -18t19.5 -22.5t29 -17.5t39 -8q22 0 42.5 7.5t34 18.5t23.5 22.5t15 18.5l5 8zM426 0l-44 256h-233l-127 -256h-62l353 706h54l122 -706h-63z
M337 520q-2 9 -3.5 22.5t-3.5 28t-3.5 28t-1.5 22.5q-7 -17 -18.5 -42.5t-26.5 -56.5l-108 -218h202z" />
    <glyph glyph-name="abreve" unicode="&#x103;" horiz-adv-x="477" 
d="M495 694q-9 -17 -24 -34.5t-35.5 -32t-47.5 -23.5t-60 -9q-32 0 -57 9t-43 23t-30 31.5t-18 35.5l50 30q13 -29 38.5 -51.5t64.5 -22.5t70 23t49 52l43 -31v0zM365 0h-58l22 123q-12 -23 -28 -46.5t-35 -41.5q-28 -26 -54 -34t-48 -8q-59 0 -91 41t-32 137q0 57 12.5 119
t41 113t74 84t111.5 33q39 0 64.5 -10.5t39.5 -23.5l4 27h58zM373 437q-11 11 -32.5 21.5t-54.5 10.5q-40 0 -69 -17t-49.5 -44.5t-32.5 -61t-19 -67t-9 -63t-2 -48.5q0 -42 7 -66t17.5 -36t22.5 -15.5t22 -3.5q28 0 51 15t48 46q11 14 22.5 30.5t21.5 34.5t17 36.5t10 35.5
z" />
    <glyph glyph-name="Aogonek" unicode="&#x104;" horiz-adv-x="527" 
d="M489 0q-10 -3 -29 -15t-38 -30t-33 -40t-14 -45q0 -15 8.5 -28.5t32.5 -13.5q15 0 29.5 5t25.5 10l-10 -46q-12 -7 -29.5 -10t-33.5 -3q-42 0 -60.5 20t-18.5 52q0 25 10.5 47.5t26 40.5t34.5 32t36 24l-44 256h-233l-127 -256h-62l353 706h54zM337 520q-10 56 -10 78
t-2 22q-1 0 -3 -5t-6.5 -16t-13 -30t-22.5 -47l-108 -218h202z" />
    <glyph glyph-name="aogonek" unicode="&#x105;" horiz-adv-x="477" 
d="M365 0q-8 -4 -26 -16t-36 -29t-32 -38.5t-14 -44.5q0 -15 8.5 -28.5t32.5 -13.5q15 0 29.5 5t25.5 10l-10 -46q-12 -7 -29.5 -10t-33.5 -3q-42 0 -61 20t-19 52q0 24 9.5 45.5t25 40t34.5 33t38 25.5l22 121q-12 -23 -28 -46.5t-35 -41.5q-28 -26 -54 -34t-48 -8
q-59 0 -91 41t-32 137q0 57 12.5 119t41 113t74 84t111.5 33q39 0 64.5 -10.5t39.5 -23.5l4 27h58zM373 437q-11 11 -32.5 21.5t-54.5 10.5q-40 0 -69 -17t-49.5 -44.5t-32.5 -61t-19 -67t-9 -63t-2 -48.5q0 -42 7 -66t17.5 -36t22.5 -15.5t22 -3.5q28 0 51 15t48 46
q11 14 22.5 30.5t21.5 34.5t17 36.5t10 35.5z" />
    <glyph glyph-name="Cacute" unicode="&#x106;" horiz-adv-x="524" 
d="M354 748l-23 37l178 124l33 -54zM552 596q-20 24 -61 43.5t-102 19.5q-60 0 -104 -21t-74.5 -54.5t-49 -75.5t-28.5 -84.5t-13.5 -82t-3.5 -66.5q0 -111 45 -172t146 -61q67 0 108.5 22.5t64.5 47.5l-15 -76q-20 -16 -59 -31.5t-106 -15.5q-74 0 -122 22.5t-77 62
t-40.5 93t-11.5 115.5q0 99 23.5 172.5t60.5 127.5q28 41 60.5 66.5t65.5 39.5t66 19t64 5q68 0 109 -15.5t64 -35.5z" />
    <glyph glyph-name="cacute" unicode="&#x107;" horiz-adv-x="414" 
d="M391 711l-110 -155l-37 23l95 164zM399 423q-14 16 -40.5 32t-71.5 16q-12 0 -26 -2t-30 -7.5t-31.5 -16t-30.5 -28.5q-29 -35 -46 -90t-17 -122q0 -38 6.5 -68.5t21 -52t38.5 -33t59 -11.5q42 0 71 14t49 32l-12 -64q-17 -11 -44 -20.5t-71 -9.5q-65 0 -102 22.5t-55 54
t-22 65t-4 56.5q0 63 13.5 122.5t43 105t75.5 73.5t112 28q49 0 79 -13t44 -26z" />
    <glyph glyph-name="Ccircumflex" unicode="&#x108;" horiz-adv-x="524" 
d="M521 748l-102 84l-133 -84l-23 38l165 120l124 -120zM552 596q-20 24 -61 43.5t-102 19.5q-60 0 -104 -21t-74.5 -54.5t-49 -75.5t-28.5 -84.5t-13.5 -82t-3.5 -66.5q0 -111 45 -172t146 -61q67 0 108.5 22.5t64.5 47.5l-15 -76q-20 -16 -59 -31.5t-106 -15.5
q-74 0 -122 22.5t-77 62t-40.5 93t-11.5 115.5q0 99 23.5 172.5t60.5 127.5q28 41 60.5 66.5t65.5 39.5t66 19t64 5q68 0 109 -15.5t64 -35.5z" />
    <glyph glyph-name="ccircumflex" unicode="&#x109;" horiz-adv-x="414" 
d="M428 583l-102 84l-133 -84l-23 38l165 120l124 -120zM399 423q-14 16 -40.5 32t-71.5 16q-12 0 -26 -2t-30 -7.5t-31.5 -16t-30.5 -28.5q-29 -35 -46 -90t-17 -122q0 -38 6.5 -68.5t21 -52t38.5 -33t59 -11.5q42 0 71 14t49 32l-12 -64q-17 -11 -44 -20.5t-71 -9.5
q-65 0 -102 22.5t-55 54t-22 65t-4 56.5q0 63 13.5 122.5t43 105t75.5 73.5t112 28q49 0 79 -13t44 -26z" />
    <glyph glyph-name="Cdotaccent" unicode="&#x10a;" horiz-adv-x="524" 
d="M455 824q0 -23 -15.5 -37.5t-38.5 -14.5q-20 0 -31.5 11.5t-11.5 31.5q0 24 15.5 38.5t38.5 14.5q20 0 31.5 -12t11.5 -32zM552 596q-20 24 -61 43.5t-102 19.5q-60 0 -104 -21t-74.5 -54.5t-49 -75.5t-28.5 -84.5t-13.5 -82t-3.5 -66.5q0 -111 45 -172t146 -61
q67 0 108.5 22.5t64.5 47.5l-15 -76q-20 -16 -59 -31.5t-106 -15.5q-74 0 -122 22.5t-77 62t-40.5 93t-11.5 115.5q0 99 23.5 172.5t60.5 127.5q28 41 60.5 66.5t65.5 39.5t66 19t64 5q68 0 109 -15.5t64 -35.5z" />
    <glyph glyph-name="cdotaccent" unicode="&#x10b;" horiz-adv-x="414" 
d="M358 651q0 -23 -15.5 -37.5t-38.5 -14.5q-20 0 -31.5 11.5t-11.5 31.5q0 24 15.5 38.5t38.5 14.5q20 0 31.5 -12t11.5 -32zM399 423q-14 16 -40.5 32t-71.5 16q-12 0 -26 -2t-30 -7.5t-31.5 -16t-30.5 -28.5q-29 -35 -46 -90t-17 -122q0 -38 6.5 -68.5t21 -52t38.5 -33
t59 -11.5q42 0 71 14t49 32l-12 -64q-17 -11 -44 -20.5t-71 -9.5q-65 0 -102 22.5t-55 54t-22 65t-4 56.5q0 63 13.5 122.5t43 105t75.5 73.5t112 28q49 0 79 -13t44 -26z" />
    <glyph glyph-name="Ccaron" unicode="&#x10c;" horiz-adv-x="524" 
d="M393 750l-125 122l38 40l103 -95l122 93l26 -35zM552 596q-20 24 -61 43.5t-102 19.5q-60 0 -104 -21t-74.5 -54.5t-49 -75.5t-28.5 -84.5t-13.5 -82t-3.5 -66.5q0 -111 45 -172t146 -61q67 0 108.5 22.5t64.5 47.5l-15 -76q-20 -16 -59 -31.5t-106 -15.5
q-74 0 -122 22.5t-77 62t-40.5 93t-11.5 115.5q0 99 23.5 172.5t60.5 127.5q28 41 60.5 66.5t65.5 39.5t66 19t64 5q68 0 109 -15.5t64 -35.5z" />
    <glyph glyph-name="ccaron" unicode="&#x10d;" horiz-adv-x="414" 
d="M285 585l-125 122l38 40l103 -95l122 93l26 -35zM399 423q-14 16 -40.5 32t-71.5 16q-12 0 -26 -2t-30 -7.5t-31.5 -16t-30.5 -28.5q-29 -35 -46 -90t-17 -122q0 -38 6.5 -68.5t21 -52t38.5 -33t59 -11.5q42 0 71 14t49 32l-12 -64q-17 -11 -44 -20.5t-71 -9.5
q-65 0 -102 22.5t-55 54t-22 65t-4 56.5q0 63 13.5 122.5t43 105t75.5 73.5t112 28q49 0 79 -13t44 -26z" />
    <glyph glyph-name="Dcaron" unicode="&#x10e;" horiz-adv-x="604" 
d="M308 750l-125 122l38 40l103 -95l122 93l26 -35zM584 422q0 -107 -31.5 -192.5t-89.5 -141.5q-27 -26 -57.5 -43t-67.5 -27t-80.5 -14t-95.5 -4h-127l112 703h127q50 0 87 -3t65.5 -11t50 -21.5t40.5 -33.5q34 -37 50.5 -87t16.5 -125zM517 426q0 77 -18 124.5t-57 72.5
q-23 15 -58.5 22t-92.5 7h-89l-95 -601h113q67 0 115 19.5t81 51.5t53 73t30.5 82.5t14 80.5t3.5 68z" />
    <glyph glyph-name="dcaron" unicode="&#x10f;" horiz-adv-x="487" 
d="M626 793q-7 -51 -19 -87q-9 -30 -18 -51.5t-14 -28.5l-4 -7h-36q27 93 27 168v6h64zM372 0h-58l21 119q-11 -20 -27 -43t-36 -41q-26 -24 -52.5 -33t-53.5 -9q-59 0 -92 40.5t-33 138.5q0 57 13 118.5t41.5 112.5t75 84t114.5 33q40 0 65.5 -10.5t38.5 -22.5l43 270
l62 13zM381 437q-12 13 -35 22.5t-55 9.5q-42 0 -72 -17t-50.5 -44t-33 -60.5t-19.5 -67t-9 -63t-2 -47.5q0 -44 8 -69t19 -37t23 -14.5t21 -2.5q27 0 51 12.5t53 47.5q25 30 45.5 66.5t25.5 69.5z" />
    <glyph glyph-name="Dcroat" unicode="&#x110;" horiz-adv-x="604" 
d="M584 422q0 -107 -31.5 -192.5t-89.5 -141.5q-27 -26 -57.5 -43t-67.5 -27t-80.5 -14t-95.5 -4h-127l53 336h-65l8 51h65l51 316h127q50 0 87 -3t65.5 -11t50 -21.5t40.5 -33.5q34 -37 50.5 -87t16.5 -125zM517 426q0 77 -18 124.5t-57 72.5q-23 15 -58.5 22t-92.5 7h-89
l-42 -265h200l-12 -51h-196l-45 -285h113q67 0 115 19.5t81 51.5t53 73t30.5 82.5t14 80.5t3.5 68z" />
    <glyph glyph-name="dcroat" unicode="&#x111;" horiz-adv-x="487" 
d="M473 640h75l-8 -50h-75l-93 -590h-58l21 118q-1 -1 -5.5 -9t-13 -20.5t-19.5 -26.5t-25 -27q-26 -24 -52.5 -33t-53.5 -9q-59 0 -92 40.5t-33 138.5q0 57 13 118.5t41.5 112.5t75 84t114.5 33q40 0 65.5 -10.5t38.5 -22.5l16 103h-104l8 50h104l19 117l62 13zM381 437
q-12 13 -35 22.5t-55 9.5q-42 0 -72 -17t-50.5 -44t-33 -60.5t-19.5 -67t-9 -63t-2 -47.5q0 -44 8 -69t19 -37t23 -14.5t21 -2.5q27 0 51 12.5t53 47.5q25 30 45.5 66.5t25.5 69.5z" />
    <glyph glyph-name="Emacron" unicode="&#x112;" horiz-adv-x="441" 
d="M457 786h-273l8 53h274zM453 651h-251l-42 -262h211l-8 -52h-211l-46 -285h269l-11 -52h-329l112 703h315z" />
    <glyph glyph-name="emacron" unicode="&#x113;" horiz-adv-x="439" 
d="M433 621h-273l8 53h274zM420 405q0 -30 -9.5 -52t-24 -38t-31.5 -26t-32 -16q-25 -10 -54.5 -16t-57.5 -9t-52.5 -3.5t-40.5 -0.5h-10q-1 -5 -1.5 -17t-0.5 -26q0 -35 5.5 -64.5t20 -51t39 -33.5t62.5 -12q45 0 76 14.5t48 31.5l-12 -64q-13 -10 -41.5 -20t-76.5 -10
q-65 0 -102 21t-55.5 51.5t-23.5 65t-5 61.5q0 67 15.5 127t47 105t77.5 71t108 26q43 0 69 -12t40 -30t18 -38t4 -35zM357 404q0 69 -78 69q-48 0 -78.5 -21.5t-47.5 -50.5q-14 -23 -24.5 -54t-15.5 -60h9q123 0 179 28.5t56 88.5z" />
    <glyph glyph-name="Edotaccent" unicode="&#x116;" horiz-adv-x="441" 
d="M363 824q0 -23 -15.5 -37.5t-38.5 -14.5q-20 0 -31.5 11.5t-11.5 31.5q0 24 15.5 38.5t38.5 14.5q20 0 31.5 -12t11.5 -32zM453 651h-251l-42 -262h211l-8 -52h-211l-46 -285h269l-11 -52h-329l112 703h315z" />
    <glyph glyph-name="edotaccent" unicode="&#x117;" horiz-adv-x="439" 
d="M361 651q0 -23 -15.5 -37.5t-38.5 -14.5q-20 0 -31.5 11.5t-11.5 31.5q0 24 15.5 38.5t38.5 14.5q20 0 31.5 -12t11.5 -32zM420 405q0 -30 -9.5 -52t-24 -38t-31.5 -26t-32 -16q-25 -10 -54.5 -16t-57.5 -9t-52.5 -3.5t-40.5 -0.5h-10q-1 -5 -1.5 -17t-0.5 -26
q0 -35 5.5 -64.5t20 -51t39 -33.5t62.5 -12q45 0 76 14.5t48 31.5l-12 -64q-13 -10 -41.5 -20t-76.5 -10q-65 0 -102 21t-55.5 51.5t-23.5 65t-5 61.5q0 67 15.5 127t47 105t77.5 71t108 26q43 0 69 -12t40 -30t18 -38t4 -35zM357 404q0 69 -78 69q-48 0 -78.5 -21.5
t-47.5 -50.5q-14 -23 -24.5 -54t-15.5 -60h9q123 0 179 28.5t56 88.5z" />
    <glyph glyph-name="Eogonek" unicode="&#x118;" horiz-adv-x="441" 
d="M453 651h-251l-42 -262h211l-8 -52h-211l-46 -285h269l-11 -52q-12 -2 -32.5 -14t-40 -30t-34 -40.5t-14.5 -45.5q0 -15 8.5 -28.5t32.5 -13.5q15 0 29.5 5t25.5 10l-10 -46q-12 -7 -29.5 -10t-33.5 -3q-42 0 -60.5 20t-18.5 52q0 25 10.5 47.5t26 40.5t34.5 32t36 24
h-259l112 703h315z" />
    <glyph glyph-name="eogonek" unicode="&#x119;" horiz-adv-x="439" 
d="M420 405q0 -30 -9.5 -52t-24 -38t-31.5 -26t-32 -16q-25 -10 -54.5 -16t-57.5 -9t-52.5 -3.5t-40.5 -0.5h-10q-1 -5 -1.5 -17t-0.5 -26q0 -35 5.5 -64.5t20 -51t39 -33.5t62.5 -12q45 0 76 14.5t48 31.5l-12 -64q-8 -6 -22 -12t-31 -11q-10 -5 -28 -17.5t-35.5 -30
t-30.5 -38.5t-13 -43q0 -15 8.5 -28.5t32.5 -13.5q15 0 29.5 5t25.5 10l-10 -46q-12 -7 -29.5 -10t-33.5 -3q-42 0 -60.5 20t-18.5 52q0 22 8 42t21 37t29.5 31.5t34.5 25.5q-63 1 -99 22t-54 51t-23 64.5t-5 61.5q0 67 15.5 127t47 105t77.5 71t108 26q43 0 69 -12t40 -30
t18 -38t4 -35zM357 404q0 69 -78 69q-48 0 -78.5 -21.5t-47.5 -50.5q-14 -23 -24.5 -54t-15.5 -60h9q123 0 179 28.5t56 88.5z" />
    <glyph glyph-name="Ecaron" unicode="&#x11a;" horiz-adv-x="441" 
d="M306 750l-125 122l38 40l103 -95l122 93l26 -35zM453 651h-251l-42 -262h211l-8 -52h-211l-46 -285h269l-11 -52h-329l112 703h315z" />
    <glyph glyph-name="ecaron" unicode="&#x11b;" horiz-adv-x="439" 
d="M285 585l-125 122l38 40l103 -95l122 93l26 -35zM420 405q0 -30 -9.5 -52t-24 -38t-31.5 -26t-32 -16q-25 -10 -54.5 -16t-57.5 -9t-52.5 -3.5t-40.5 -0.5h-10q-1 -5 -1.5 -17t-0.5 -26q0 -35 5.5 -64.5t20 -51t39 -33.5t62.5 -12q45 0 76 14.5t48 31.5l-12 -64
q-13 -10 -41.5 -20t-76.5 -10q-65 0 -102 21t-55.5 51.5t-23.5 65t-5 61.5q0 67 15.5 127t47 105t77.5 71t108 26q43 0 69 -12t40 -30t18 -38t4 -35zM357 404q0 69 -78 69q-48 0 -78.5 -21.5t-47.5 -50.5q-14 -23 -24.5 -54t-15.5 -60h9q123 0 179 28.5t56 88.5z" />
    <glyph glyph-name="Gcircumflex" unicode="&#x11c;" horiz-adv-x="588" 
d="M537 748l-102 84l-133 -84l-23 38l165 120l124 -120zM582 596q-20 22 -62.5 42.5t-111.5 20.5q-65 0 -111.5 -21t-79 -54.5t-52.5 -75.5t-31 -85t-14.5 -82t-3.5 -67q0 -55 11.5 -98t36 -73t63 -46t93.5 -16q43 0 72 7.5t42 14.5l39 250h64l-44 -275q-24 -19 -67 -34
t-111 -15q-78 0 -129.5 22.5t-81.5 62t-42.5 93t-12.5 115.5q0 99 25 173t64 128q30 41 64.5 66.5t70 39.5t70 18.5t66.5 4.5q76 0 119 -17t64 -34z" />
    <glyph glyph-name="gcircumflex" unicode="&#x11d;" 
d="M427 583l-102 84l-133 -84l-23 38l165 120l124 -120zM370 -16q-8 -52 -18 -86.5t-32 -62.5q-51 -65 -164 -65q-54 0 -93 12.5t-59 28.5l9 60q17 -18 51.5 -35t90.5 -17q45 0 71 12t42 30q19 22 27 50.5t15 70.5l10 62q5 32 9 49t6 26q-11 -20 -27 -43t-36 -41
q-26 -24 -52.5 -33t-53.5 -9q-59 0 -92 40.5t-33 138.5q0 57 13 118.5t41.5 112.5t75 84t114.5 33q42 0 68 -11t39 -23l4 26h58zM381 437q-12 13 -35 22.5t-55 9.5q-42 0 -72 -17t-50.5 -44t-33 -60.5t-19.5 -67t-9 -63t-2 -47.5q0 -44 8 -69t19 -37t23 -14.5t21 -2.5
q27 0 51 12.5t53 47.5q25 30 45.5 66.5t25.5 69.5z" />
    <glyph glyph-name="Gbreve" unicode="&#x11e;" horiz-adv-x="588" 
d="M590 859q-2 -4 -6 -10.5t-18.5 -24t-32 -30.5t-47 -23.5t-63.5 -10.5q-53 0 -90 25t-48 49l-10 25l50 30q1 -3 3.5 -8t11 -18t19.5 -22.5t29 -17.5t39 -8q22 0 42.5 7.5t34 18.5t23.5 22.5t15 18.5l5 8zM582 596q-20 22 -62.5 42.5t-111.5 20.5q-65 0 -111.5 -21
t-79 -54.5t-52.5 -75.5t-31 -85t-14.5 -82t-3.5 -67q0 -55 11.5 -98t36 -73t63 -46t93.5 -16q43 0 72 7.5t42 14.5l39 250h64l-44 -275q-24 -19 -67 -34t-111 -15q-78 0 -129.5 22.5t-81.5 62t-42.5 93t-12.5 115.5q0 99 25 173t64 128q30 41 64.5 66.5t70 39.5t70 18.5
t66.5 4.5q76 0 119 -17t64 -34z" />
    <glyph glyph-name="gbreve" unicode="&#x11f;" 
d="M484 694q-9 -17 -24 -34.5t-35.5 -32t-47.5 -23.5t-60 -9q-32 0 -57 9t-43 23t-30 31.5t-18 35.5l50 30q13 -29 38.5 -51.5t64.5 -22.5t70 23t49 52l43 -31v0zM370 -16q-8 -52 -18 -86.5t-32 -62.5q-51 -65 -164 -65q-54 0 -93 12.5t-59 28.5l9 60q17 -18 51.5 -35
t90.5 -17q45 0 71 12t42 30q19 22 27 50.5t15 70.5l10 62q5 32 9 49t6 26q-11 -20 -27 -43t-36 -41q-26 -24 -52.5 -33t-53.5 -9q-59 0 -92 40.5t-33 138.5q0 57 13 118.5t41.5 112.5t75 84t114.5 33q42 0 68 -11t39 -23l4 26h58zM381 437q-12 13 -35 22.5t-55 9.5
q-42 0 -72 -17t-50.5 -44t-33 -60.5t-19.5 -67t-9 -63t-2 -47.5q0 -44 8 -69t19 -37t23 -14.5t21 -2.5q27 0 51 12.5t53 47.5q25 30 45.5 66.5t25.5 69.5z" />
    <glyph glyph-name="Gdotaccent" unicode="&#x120;" horiz-adv-x="588" 
d="M480 824q0 -23 -15.5 -37.5t-38.5 -14.5q-20 0 -31.5 11.5t-11.5 31.5q0 24 15.5 38.5t38.5 14.5q20 0 31.5 -12t11.5 -32zM582 596q-20 22 -62.5 42.5t-111.5 20.5q-65 0 -111.5 -21t-79 -54.5t-52.5 -75.5t-31 -85t-14.5 -82t-3.5 -67q0 -55 11.5 -98t36 -73t63 -46
t93.5 -16q43 0 72 7.5t42 14.5l39 250h64l-44 -275q-24 -19 -67 -34t-111 -15q-78 0 -129.5 22.5t-81.5 62t-42.5 93t-12.5 115.5q0 99 25 173t64 128q30 41 64.5 66.5t70 39.5t70 18.5t66.5 4.5q76 0 119 -17t64 -34z" />
    <glyph glyph-name="gdotaccent" unicode="&#x121;" 
d="M367 651q0 -23 -15.5 -37.5t-38.5 -14.5q-20 0 -31.5 11.5t-11.5 31.5q0 24 15.5 38.5t38.5 14.5q20 0 31.5 -12t11.5 -32zM370 -16q-8 -52 -18 -86.5t-32 -62.5q-51 -65 -164 -65q-54 0 -93 12.5t-59 28.5l9 60q17 -18 51.5 -35t90.5 -17q45 0 71 12t42 30
q19 22 27 50.5t15 70.5l10 62q5 32 9 49t6 26q-11 -20 -27 -43t-36 -41q-26 -24 -52.5 -33t-53.5 -9q-59 0 -92 40.5t-33 138.5q0 57 13 118.5t41.5 112.5t75 84t114.5 33q42 0 68 -11t39 -23l4 26h58zM381 437q-12 13 -35 22.5t-55 9.5q-42 0 -72 -17t-50.5 -44t-33 -60.5
t-19.5 -67t-9 -63t-2 -47.5q0 -44 8 -69t19 -37t23 -14.5t21 -2.5q27 0 51 12.5t53 47.5q25 30 45.5 66.5t25.5 69.5z" />
    <glyph glyph-name="uni0122" unicode="&#x122;" horiz-adv-x="588" 
d="M329 -55q-7 -51 -19 -87q-9 -30 -18 -51.5t-14 -28.5l-4 -7h-36q27 93 27 168v6h64zM582 596q-20 22 -62.5 42.5t-111.5 20.5q-65 0 -111.5 -21t-79 -54.5t-52.5 -75.5t-31 -85t-14.5 -82t-3.5 -67q0 -55 11.5 -98t36 -73t63 -46t93.5 -16q43 0 72 7.5t42 14.5l39 250h64
l-44 -275q-24 -19 -67 -34t-111 -15q-78 0 -129.5 22.5t-81.5 62t-42.5 93t-12.5 115.5q0 99 25 173t64 128q30 41 64.5 66.5t70 39.5t70 18.5t66.5 4.5q76 0 119 -17t64 -34z" />
    <glyph glyph-name="uni0123" unicode="&#x123;" 
d="M351 757q-27 -93 -27 -168v-6h-64q7 51 19 87q9 30 18 51.5t13 28.5l5 7h36zM370 -16q-8 -52 -18 -86.5t-32 -62.5q-51 -65 -164 -65q-54 0 -93 12.5t-59 28.5l9 60q17 -18 51.5 -35t90.5 -17q45 0 71 12t42 30q19 22 27 50.5t15 70.5l10 62q5 32 9 49t6 26
q-11 -20 -27 -43t-36 -41q-26 -24 -52.5 -33t-53.5 -9q-59 0 -92 40.5t-33 138.5q0 57 13 118.5t41.5 112.5t75 84t114.5 33q42 0 68 -11t39 -23l4 26h58zM381 437q-12 13 -35 22.5t-55 9.5q-42 0 -72 -17t-50.5 -44t-33 -60.5t-19.5 -67t-9 -63t-2 -47.5q0 -44 8 -69
t19 -37t23 -14.5t21 -2.5q27 0 51 12.5t53 47.5q25 30 45.5 66.5t25.5 69.5z" />
    <glyph glyph-name="Hcircumflex" unicode="&#x124;" horiz-adv-x="601" 
d="M493 748l-102 84l-133 -84l-23 38l165 120l124 -120zM487 0h-63l53 337h-325l-54 -337h-63l112 703h63l-50 -313h325l51 313h63z" />
    <glyph glyph-name="hcircumflex" unicode="&#x125;" horiz-adv-x="498" 
d="M319 748l-102 84l-133 -84l-23 38l165 120l124 -120zM444 416q0 -27 -3 -53.5t-5 -36.5l-51 -326h-60l49 313q2 13 5.5 39t3.5 52q0 7 -1 18t-7 20.5t-18.5 16.5t-34.5 7q-37 0 -64 -18.5t-47 -42.5q-12 -15 -24.5 -32.5t-22.5 -35.5t-17 -34.5t-9 -28.5l-43 -274h-60
l120 757l62 13l-43 -271q-2 -9 -4.5 -24t-5.5 -30.5t-6 -30.5t-5 -24q13 23 30.5 47t36.5 41q29 26 58 34t53 8q42 0 64.5 -13.5t33.5 -31t13 -35t2 -24.5z" />
    <glyph glyph-name="Hbar" unicode="&#x126;" horiz-adv-x="601" 
d="M487 0h-63l53 337h-325l-54 -337h-63l112 703h63l-21 -130h325l22 130h63zM485 390l21 130h-325l-21 -130h325z" />
    <glyph glyph-name="hbar" unicode="&#x127;" horiz-adv-x="498" 
d="M444 416q0 -27 -3 -53.5t-5 -36.5l-51 -326h-60l49 313q2 13 5.5 39t3.5 52q0 7 -1 18t-7 20.5t-18.5 16.5t-34.5 7q-37 0 -64 -18.5t-47 -42.5q-12 -15 -24.5 -32.5t-22.5 -35.5t-17 -34.5t-9 -28.5l-43 -274h-60l93 590h-75l8 50h75l19 117l62 13l-21 -130h104l-8 -50
h-104l-14 -91q-2 -14 -5.5 -32t-6.5 -34t-5.5 -28t-3.5 -14q1 1 6.5 10t14.5 22t20.5 27.5t25.5 27.5q29 26 58 34t53 8q42 0 64.5 -13.5t33.5 -31t13 -35t2 -24.5z" />
    <glyph glyph-name="Itilde" unicode="&#x128;" horiz-adv-x="212" 
d="M340 837q-12 -26 -35.5 -46.5t-58.5 -20.5q-12 0 -22 3t-24 10l-21 10q-15 8 -22.5 9.5t-12.5 1.5q-20 0 -32 -11.5t-18 -22.5l-34 25q11 25 33.5 46t57.5 21q23 0 51 -14l21 -10q13 -6 20.5 -8t13.5 -2q19 0 30.5 11t18.5 23l34 -25v0zM98 0h-63l112 703h63z" />
    <glyph glyph-name="itilde" unicode="&#x129;" horiz-adv-x="210" 
d="M310 672q-12 -26 -35.5 -46.5t-58.5 -20.5q-12 0 -22 3t-24 10l-21 10q-15 8 -22.5 9.5t-12.5 1.5q-20 0 -32 -11.5t-18 -22.5l-34 25q11 25 33.5 46t57.5 21q23 0 51 -14l21 -10q13 -6 20.5 -8t13.5 -2q19 0 30.5 11t18.5 23l34 -25v0zM95 0h-60l81 512h60z" />
    <glyph glyph-name="Imacron" unicode="&#x12a;" horiz-adv-x="212" 
d="M332 786h-273l8 53h274zM98 0h-63l112 703h63z" />
    <glyph glyph-name="imacron" unicode="&#x12b;" horiz-adv-x="210" 
d="M95 0h-60l81 512h60zM299 621h-273l8 53h274z" />
    <glyph glyph-name="Iogonek" unicode="&#x12e;" horiz-adv-x="212" 
d="M98 0q-9 -3 -27.5 -14.5t-38 -29.5t-34 -40.5t-14.5 -45.5q0 -15 8.5 -28.5t32.5 -13.5q15 0 29.5 5t25.5 10l-10 -46q-12 -7 -29.5 -10t-33.5 -3q-42 0 -60.5 20t-18.5 52q0 25 10.5 47.5t26 40.5t34.5 32t36 24l112 703h63z" />
    <glyph glyph-name="iogonek" unicode="&#x12f;" horiz-adv-x="210" 
d="M95 0q-9 -4 -27 -16t-37 -29.5t-33 -39.5t-14 -45q0 -15 8.5 -28.5t32.5 -13.5q15 0 29.5 5t25.5 10l-10 -46q-12 -7 -29.5 -10t-33.5 -3q-42 0 -60.5 20t-18.5 52q0 25 10.5 47.5t26 40.5t34.5 32t36 24l81 512h60zM216 697q0 -17 -10.5 -30.5t-31.5 -13.5
q-20 0 -29.5 11.5t-9.5 27.5q0 17 10.5 30.5t31.5 13.5q20 0 29.5 -11.5t9.5 -27.5z" />
    <glyph glyph-name="Idotaccent" unicode="&#x130;" horiz-adv-x="212" 
d="M247 824q0 -23 -15.5 -37.5t-38.5 -14.5q-20 0 -31.5 11.5t-11.5 31.5q0 24 15.5 38.5t38.5 14.5q20 0 31.5 -12t11.5 -32zM98 0h-63l112 703h63z" />
    <glyph glyph-name="dotlessi" unicode="&#x131;" horiz-adv-x="210" 
d="M95 0h-60l81 512h60z" />
    <glyph glyph-name="Jcircumflex" unicode="&#x134;" horiz-adv-x="265" 
d="M369 748l-102 84l-133 -84l-23 38l165 120l124 -120zM181 146q-2 -12 -4.5 -27.5t-7.5 -31t-12 -30.5t-18 -27q-16 -17 -40 -27t-57 -10q-23 0 -38 4t-22 8l8 54q8 -6 19 -10t28 -4q22 0 36 7.5t22.5 20t13 28.5t7.5 34l89 568h63z" />
    <glyph glyph-name="jcircumflex" unicode="&#x135;" horiz-adv-x="213" 
d="M179 512l-95 -599q-5 -34 -12 -55.5t-22 -44t-43 -33t-69 -10.5q-16 0 -29.5 2.5t-18.5 5.5l-6 2l4 53q14 -13 48 -13q44 0 62 21t26 70l95 601h60zM286 583l-102 84l-133 -84l-23 38l165 120l124 -120z" />
    <glyph glyph-name="uni0136" unicode="&#x136;" horiz-adv-x="477" 
d="M228 -55q-7 -51 -19 -87q-9 -30 -18 -51.5t-14 -28.5l-4 -7h-36q27 93 27 168v6h64zM223 373l224 -373h-74l-217 364l-58 -364h-63l112 703h63l-52 -324l326 324h75z" />
    <glyph glyph-name="uni0137" unicode="&#x137;" horiz-adv-x="417" 
d="M204 -55q-7 -51 -19 -87q-9 -30 -18 -51.5t-14 -28.5l-4 -7h-36q27 93 27 168v6h64zM201 278l165 -278h-68l-160 273l-43 -273h-60l120 757l62 13l-77 -484l235 226h74z" />
    <glyph glyph-name="kgreenlandic" unicode="&#x138;" horiz-adv-x="417" 
d="M201 278l165 -278h-68l-160 273l-43 -273h-60l80 506l62 13l-37 -233l235 226h74z" />
    <glyph glyph-name="Lacute" unicode="&#x139;" horiz-adv-x="405" 
d="M140 748l-23 37l178 124l33 -54zM354 0h-319l112 703h64l-105 -651h259z" />
    <glyph glyph-name="lacute" unicode="&#x13a;" horiz-adv-x="209" 
d="M136 778l-23 37l178 124l33 -54zM95 0h-60l120 757l62 13z" />
    <glyph glyph-name="uni013B" unicode="&#x13b;" horiz-adv-x="405" 
d="M212 -55q-7 -51 -19 -87q-9 -30 -18 -51.5t-14 -28.5l-4 -7h-36q27 93 27 168v6h64zM354 0h-319l112 703h64l-105 -651h259z" />
    <glyph glyph-name="uni013C" unicode="&#x13c;" horiz-adv-x="209" 
d="M91 -55q-7 -51 -19 -87q-9 -30 -18 -51.5t-14 -28.5l-4 -7h-36q27 93 27 168v6h64zM95 0h-60l120 757l62 13z" />
    <glyph glyph-name="Lcaron" unicode="&#x13d;" horiz-adv-x="405" 
d="M394 725q-7 -51 -19 -87q-9 -30 -18 -51.5t-14 -28.5l-4 -7h-36q27 93 27 168v6h64zM354 0h-319l112 703h64l-105 -651h259z" />
    <glyph glyph-name="lcaron" unicode="&#x13e;" horiz-adv-x="209" 
d="M353 793q-7 -51 -19 -87q-9 -30 -18 -51.5t-14 -28.5l-4 -7h-36q27 93 27 168v6h64zM95 0h-60l120 757l62 13z" />
    <glyph glyph-name="Ldot" unicode="&#x13f;" horiz-adv-x="405" 
d="M392 479q0 -23 -15.5 -37.5t-38.5 -14.5q-20 0 -31.5 11.5t-11.5 31.5q0 24 15.5 38.5t38.5 14.5q20 0 31.5 -12t11.5 -32zM354 0h-319l112 703h64l-105 -651h259z" />
    <glyph glyph-name="ldot" unicode="&#x140;" horiz-adv-x="209" 
d="M316 479q0 -23 -15.5 -37.5t-38.5 -14.5q-20 0 -31.5 11.5t-11.5 31.5q0 24 15.5 38.5t38.5 14.5q20 0 31.5 -12t11.5 -32zM95 0h-60l120 757l62 13z" />
    <glyph glyph-name="Lslash" unicode="&#x141;" horiz-adv-x="441" 
d="M354 0h-319l47 297l-47 -27l-25 44l82 46l55 343h64l-49 -303l153 86l25 -44l-188 -106l-46 -284h259z" />
    <glyph glyph-name="lslash" unicode="&#x142;" horiz-adv-x="209" 
d="M156 385l-61 -385h-60l53 335l-30 -22l-29 40l70 52l56 352l62 13l-50 -315l40 29l29 -40z" />
    <glyph glyph-name="Nacute" unicode="&#x143;" horiz-adv-x="594" 
d="M310 748l-23 37l178 124l33 -54zM481 0h-47l-219 513q-11 26 -20 51t-9 35l-94 -599h-57l111 703h55l209 -495q4 -11 9.5 -24t10 -25.5t8 -24.5t4.5 -19l93 588h57z" />
    <glyph glyph-name="nacute" unicode="&#x144;" horiz-adv-x="498" 
d="M419 711l-110 -155l-37 23l95 164zM444 416q0 -27 -3 -53.5t-5 -36.5l-51 -326h-60l49 313q2 13 5.5 39t3.5 52q0 7 -1 18t-7 20.5t-18.5 16.5t-34.5 7q-37 0 -64 -18.5t-47 -42.5q-12 -15 -24.5 -32.5t-22.5 -35.5t-17 -34.5t-9 -28.5l-43 -274h-60l81 512h58l-21 -122
q13 23 30.5 47t36.5 41q29 26 58 34t53 8q42 0 64.5 -13.5t33.5 -31t13 -35t2 -24.5z" />
    <glyph glyph-name="uni0145" unicode="&#x145;" horiz-adv-x="594" 
d="M270 -55q-7 -51 -19 -87q-9 -30 -18 -51.5t-14 -28.5l-4 -7h-36q27 93 27 168v6h64zM481 0h-47l-219 513q-11 26 -20 51t-9 35l-94 -599h-57l111 703h55l209 -495q4 -11 9.5 -24t10 -25.5t8 -24.5t4.5 -19l93 588h57z" />
    <glyph glyph-name="uni0146" unicode="&#x146;" horiz-adv-x="498" 
d="M230 -55q-7 -51 -19 -87q-9 -30 -18 -51.5t-14 -28.5l-4 -7h-36q27 93 27 168v6h64zM444 416q0 -27 -3 -53.5t-5 -36.5l-51 -326h-60l49 313q2 13 5.5 39t3.5 52q0 7 -1 18t-7 20.5t-18.5 16.5t-34.5 7q-37 0 -64 -18.5t-47 -42.5q-12 -15 -24.5 -32.5t-22.5 -35.5
t-17 -34.5t-9 -28.5l-43 -274h-60l81 512h58l-21 -122q13 23 30.5 47t36.5 41q29 26 58 34t53 8q42 0 64.5 -13.5t33.5 -31t13 -35t2 -24.5z" />
    <glyph glyph-name="Ncaron" unicode="&#x147;" horiz-adv-x="594" 
d="M371 750l-125 122l38 40l103 -95l122 93l26 -35zM481 0h-47l-219 513q-11 26 -20 51t-9 35l-94 -599h-57l111 703h55l209 -495q4 -11 9.5 -24t10 -25.5t8 -24.5t4.5 -19l93 588h57z" />
    <glyph glyph-name="ncaron" unicode="&#x148;" horiz-adv-x="498" 
d="M313 585l-125 122l38 40l103 -95l122 93l26 -35zM444 416q0 -27 -3 -53.5t-5 -36.5l-51 -326h-60l49 313q2 13 5.5 39t3.5 52q0 7 -1 18t-7 20.5t-18.5 16.5t-34.5 7q-37 0 -64 -18.5t-47 -42.5q-12 -15 -24.5 -32.5t-22.5 -35.5t-17 -34.5t-9 -28.5l-43 -274h-60l81 512
h58l-21 -122q13 23 30.5 47t36.5 41q29 26 58 34t53 8q42 0 64.5 -13.5t33.5 -31t13 -35t2 -24.5z" />
    <glyph glyph-name="napostrophe" unicode="&#x149;" horiz-adv-x="498" 
d="M133 793q-7 -51 -19 -87q-9 -30 -18 -51.5t-14 -28.5l-4 -7h-36q27 93 27 168v6h64zM444 416q0 -27 -3 -53.5t-5 -36.5l-51 -326h-60l49 313q2 13 5.5 39t3.5 52q0 7 -1 18t-7 20.5t-18.5 16.5t-34.5 7q-37 0 -64 -18.5t-47 -42.5q-12 -15 -24.5 -32.5t-22.5 -35.5
t-17 -34.5t-9 -28.5l-43 -274h-60l81 512h58l-21 -122q13 23 30.5 47t36.5 41q29 26 58 34t53 8q42 0 64.5 -13.5t33.5 -31t13 -35t2 -24.5z" />
    <glyph glyph-name="Eng" unicode="&#x14a;" horiz-adv-x="594" 
d="M467 -87q-5 -30 -12.5 -56t-23 -45.5t-41 -30.5t-66.5 -11q-23 0 -36 3t-21 7l4 53q5 -4 16 -8.5t34 -4.5t38 6.5t24.5 18t15 28.5t8.5 38l17 111l-209 491q-11 26 -20 51t-9 35l-94 -599h-57l111 703h55l209 -495q4 -11 9.5 -24t10 -25.5t8 -24.5t4.5 -19l93 588h57z
" />
    <glyph glyph-name="eng" unicode="&#x14b;" horiz-adv-x="498" 
d="M444 416q0 -27 -3 -53.5t-5 -36.5l-65 -413q-5 -30 -12.5 -56t-23 -45.5t-41 -30.5t-66.5 -11q-23 0 -36 3t-21 7l4 53q5 -4 16 -8.5t34 -4.5q44 0 61 22t25 69l63 402q2 13 5.5 39t3.5 52q0 7 -1 18t-7 20.5t-18.5 16.5t-34.5 7q-37 0 -64 -18.5t-47 -42.5
q-12 -15 -24.5 -32.5t-22.5 -35.5t-17 -34.5t-9 -28.5l-43 -274h-60l81 512h58l-21 -122q0 1 5.5 10.5t14.5 22.5t21 28t26 27q29 26 58 34t53 8q42 0 64.5 -13.5t33.5 -31t13 -35t2 -24.5z" />
    <glyph glyph-name="Omacron" unicode="&#x14c;" horiz-adv-x="621" 
d="M515 786h-273l8 53h274zM601 433q0 -20 -3 -60.5t-13 -90t-30.5 -102t-55.5 -95t-87 -70t-126 -27.5q-54 0 -92.5 15t-64.5 38.5t-42 54t-24.5 61.5t-11 60t-2.5 51q0 20 3 60.5t13 90t30.5 102t55.5 95t87 70t126 27.5q54 0 92.5 -15t64.5 -38.5t42 -54t24.5 -61.5
t11 -60.5t2.5 -50.5zM534 422q0 68 -12.5 113.5t-35 73.5t-54.5 39.5t-71 11.5q-51 0 -93 -19.5t-77 -69.5q-21 -30 -35 -65.5t-23 -73.5t-13 -77t-4 -76q0 -68 12.5 -113.5t35 -73.5t54.5 -39.5t71 -11.5q51 0 93 19.5t77 69.5q21 30 35 65.5t23 73.5t13 77t4 76z" />
    <glyph glyph-name="omacron" unicode="&#x14d;" horiz-adv-x="470" 
d="M424 621h-273l8 53h274zM430 318q0 -22 -3 -55.5t-11.5 -69.5t-24 -72.5t-40.5 -65.5t-61 -47t-85 -18q-57 0 -89.5 23t-49.5 55t-21.5 66.5t-4.5 58.5q0 22 3 55.5t11.5 69.5t24 72.5t40.5 65.5t61 47t85 18q57 0 89.5 -23t49.5 -55t21.5 -66.5t4.5 -58.5zM366 310
q0 87 -27 124t-79 37q-28 0 -51 -10.5t-43 -36.5q-31 -39 -46.5 -98t-15.5 -125q0 -87 26.5 -124t79.5 -37q28 0 51 10.5t43 36.5q31 39 46.5 98t15.5 125z" />
    <glyph glyph-name="Ohungarumlaut" unicode="&#x150;" horiz-adv-x="621" 
d="M263 748l-23 37l178 124l33 -54zM459 748l-23 37l178 124l33 -54zM601 433q0 -20 -3 -60.5t-13 -90t-30.5 -102t-55.5 -95t-87 -70t-126 -27.5q-54 0 -92.5 15t-64.5 38.5t-42 54t-24.5 61.5t-11 60t-2.5 51q0 20 3 60.5t13 90t30.5 102t55.5 95t87 70t126 27.5
q54 0 92.5 -15t64.5 -38.5t42 -54t24.5 -61.5t11 -60.5t2.5 -50.5zM534 422q0 68 -12.5 113.5t-35 73.5t-54.5 39.5t-71 11.5q-51 0 -93 -19.5t-77 -69.5q-21 -30 -35 -65.5t-23 -73.5t-13 -77t-4 -76q0 -68 12.5 -113.5t35 -73.5t54.5 -39.5t71 -11.5q51 0 93 19.5t77 69.5
q21 30 35 65.5t23 73.5t13 77t4 76z" />
    <glyph glyph-name="ohungarumlaut" unicode="&#x151;" horiz-adv-x="470" 
d="M324 713l-110 -155l-37 23l95 164zM470 713l-110 -155l-37 23l95 164zM430 318q0 -22 -3 -55.5t-11.5 -69.5t-24 -72.5t-40.5 -65.5t-61 -47t-85 -18q-57 0 -89.5 23t-49.5 55t-21.5 66.5t-4.5 58.5q0 22 3 55.5t11.5 69.5t24 72.5t40.5 65.5t61 47t85 18q57 0 89.5 -23
t49.5 -55t21.5 -66.5t4.5 -58.5zM366 310q0 87 -27 124t-79 37q-28 0 -51 -10.5t-43 -36.5q-31 -39 -46.5 -98t-15.5 -125q0 -87 26.5 -124t79.5 -37q28 0 51 10.5t43 36.5q31 39 46.5 98t15.5 125z" />
    <glyph glyph-name="OE" unicode="&#x152;" horiz-adv-x="792" 
d="M804 651h-251l-42 -262h211l-8 -52h-211l-46 -285h269l-11 -52h-337q-15 -5 -39.5 -8.5t-52.5 -3.5q-54 0 -97.5 17t-74.5 51.5t-48 87.5t-17 124q0 26 3.5 69.5t14.5 93.5t32.5 100.5t57 92t87.5 67.5t125 26q23 0 53 -3t56 -11h335zM489 642q-12 7 -28.5 11.5t-33 7
t-32 3.5t-27.5 1q-57 0 -100 -22.5t-76 -70.5q-21 -30 -35.5 -66.5t-23.5 -74.5t-13 -77t-4 -75q0 -68 13 -113.5t37 -73.5t58 -39.5t76 -11.5q23 0 48 4t48 15z" />
    <glyph glyph-name="oe" unicode="&#x153;" horiz-adv-x="755" 
d="M736 406q0 -30 -9 -52t-23.5 -38t-31.5 -26.5t-33 -16.5q-24 -10 -52 -15.5t-56 -8.5t-53 -4t-44 -1h-10q-1 -5 -1.5 -17t-0.5 -26q0 -35 5.5 -64.5t20 -51t39 -33.5t62.5 -12q45 0 76 14.5t48 31.5l-12 -64q-13 -10 -41.5 -20t-75.5 -10q-40 0 -68.5 8.5t-49 23
t-32.5 34t-19 40.5q-23 -45 -64 -76.5t-107 -31.5q-56 0 -88.5 23t-49.5 55t-21.5 67t-4.5 59q0 22 3 55t11.5 69t24 72.5t40.5 65.5t60.5 47t84.5 18q34 0 60 -9.5t44 -25t29 -36.5t16 -45q30 56 76.5 85.5t113.5 29.5q44 0 70.5 -12t40.5 -29.5t18 -37t4 -35.5zM673 404
q0 69 -77 69q-49 0 -79.5 -22t-47.5 -51q-14 -23 -24.5 -53.5t-15.5 -59.5h9q123 0 179 28.5t56 88.5zM366 310q0 87 -27 124t-79 37q-28 0 -51 -10.5t-43 -36.5q-31 -39 -46.5 -98t-15.5 -125q0 -87 26.5 -124t79.5 -37q28 0 51 10.5t43 36.5q31 39 46.5 98t15.5 125z" />
    <glyph glyph-name="Racute" unicode="&#x154;" horiz-adv-x="473" 
d="M256 748l-23 37l178 124l33 -54zM467 540q0 -46 -11.5 -79.5t-31 -56.5t-45 -36.5t-52 -21t-53 -10t-48.5 -2.5l207 -334h-75l-205 341l-55 -341h-63l112 703h101q34 0 58 -1t42 -4t31.5 -8t25.5 -13q37 -24 49.5 -60t12.5 -77zM401 537q0 42 -11 65t-28.5 34.5
t-39.5 13.5t-43 2h-77l-44 -272h74q24 0 53.5 4.5t55 20.5t43 47.5t17.5 84.5z" />
    <glyph glyph-name="racute" unicode="&#x155;" horiz-adv-x="337" 
d="M191 583l-23 37l178 124l33 -54zM355 449q-8 8 -20 11.5t-25 3.5q-26 0 -51 -16t-54 -51q-26 -32 -45 -68t-24 -68l-41 -261h-60l81 512h58l-23 -129q8 18 22.5 40t33.5 42q29 31 56.5 43t58.5 12q21 0 33 -4t17 -7z" />
    <glyph glyph-name="uni0156" unicode="&#x156;" horiz-adv-x="473" 
d="M222 -55q-7 -51 -19 -87q-9 -30 -18 -51.5t-14 -28.5l-4 -7h-36q27 93 27 168v6h64zM467 540q0 -46 -11.5 -79.5t-31 -56.5t-45 -36.5t-52 -21t-53 -10t-48.5 -2.5l207 -334h-75l-205 341l-55 -341h-63l112 703h101q34 0 58 -1t42 -4t31.5 -8t25.5 -13q37 -24 49.5 -60
t12.5 -77zM401 537q0 42 -11 65t-28.5 34.5t-39.5 13.5t-43 2h-77l-44 -272h74q24 0 53.5 4.5t55 20.5t43 47.5t17.5 84.5z" />
    <glyph glyph-name="uni0157" unicode="&#x157;" horiz-adv-x="337" 
d="M91 -55q-7 -51 -19 -87q-9 -30 -18 -51.5t-14 -28.5l-4 -7h-36q27 93 27 168v6h64zM355 449q-8 8 -20 11.5t-25 3.5q-26 0 -51 -16t-54 -51q-26 -32 -45 -68t-24 -68l-41 -261h-60l81 512h58l-23 -129q8 18 22.5 40t33.5 42q29 31 56.5 43t58.5 12q21 0 33 -4t17 -7z" />
    <glyph glyph-name="Rcaron" unicode="&#x158;" horiz-adv-x="473" 
d="M293 750l-125 122l38 40l103 -95l122 93l26 -35zM467 540q0 -46 -11.5 -79.5t-31 -56.5t-45 -36.5t-52 -21t-53 -10t-48.5 -2.5l207 -334h-75l-205 341l-55 -341h-63l112 703h101q34 0 58 -1t42 -4t31.5 -8t25.5 -13q37 -24 49.5 -60t12.5 -77zM401 537q0 42 -11 65
t-28.5 34.5t-39.5 13.5t-43 2h-77l-44 -272h74q24 0 53.5 4.5t55 20.5t43 47.5t17.5 84.5z" />
    <glyph glyph-name="rcaron" unicode="&#x159;" horiz-adv-x="337" 
d="M261 585l-125 122l38 40l103 -95l122 93l26 -35zM355 449q-8 8 -20 11.5t-25 3.5q-26 0 -51 -16t-54 -51q-26 -32 -45 -68t-24 -68l-41 -261h-60l81 512h58l-23 -129q8 18 22.5 40t33.5 42q29 31 56.5 43t58.5 12q21 0 33 -4t17 -7z" />
    <glyph glyph-name="Sacute" unicode="&#x15a;" horiz-adv-x="447" 
d="M246 748l-23 37l178 124l33 -54zM438 596q-27 33 -69.5 48t-83.5 15q-64 0 -96 -32t-32 -88q0 -19 4 -34t12.5 -29.5t22.5 -28.5t34 -31l58 -49q16 -14 34 -30t34 -37.5t26.5 -50t10.5 -67.5q0 -29 -8.5 -62.5t-32 -62.5t-66.5 -48.5t-112 -19.5q-62 0 -103.5 14
t-64.5 30l10 67q19 -21 59 -39.5t100 -18.5q78 0 116.5 35.5t38.5 101.5q0 20 -4 36.5t-13 31.5t-23.5 30.5t-36.5 33.5l-59 49q-19 16 -37 33t-32 38t-22.5 47t-8.5 60q0 80 49.5 127t142.5 47q57 0 98 -16t64 -36z" />
    <glyph glyph-name="sacute" unicode="&#x15b;" horiz-adv-x="359" 
d="M319 711l-110 -155l-37 23l95 164zM329 423q-17 19 -45.5 33.5t-66.5 14.5q-29 0 -46.5 -8.5t-27 -20.5t-12.5 -26t-3 -25q0 -43 40 -76l66 -55q35 -29 50.5 -56.5t15.5 -65.5q0 -17 -5 -42t-21.5 -48t-48.5 -39.5t-87 -16.5q-48 0 -79 11.5t-48 25.5l9 59
q17 -17 45.5 -32.5t71.5 -15.5t72 20.5t29 70.5q0 29 -12 47.5t-38 40.5l-56 46q-39 32 -52 60.5t-13 57.5q0 22 7 46.5t24 44t45.5 32.5t72.5 13q45 0 74.5 -12.5t47.5 -26.5z" />
    <glyph glyph-name="Scircumflex" unicode="&#x15c;" horiz-adv-x="447" 
d="M425 748l-102 84l-133 -84l-23 38l165 120l124 -120zM438 596q-27 33 -69.5 48t-83.5 15q-64 0 -96 -32t-32 -88q0 -19 4 -34t12.5 -29.5t22.5 -28.5t34 -31l58 -49q16 -14 34 -30t34 -37.5t26.5 -50t10.5 -67.5q0 -29 -8.5 -62.5t-32 -62.5t-66.5 -48.5t-112 -19.5
q-62 0 -103.5 14t-64.5 30l10 67q19 -21 59 -39.5t100 -18.5q78 0 116.5 35.5t38.5 101.5q0 20 -4 36.5t-13 31.5t-23.5 30.5t-36.5 33.5l-59 49q-19 16 -37 33t-32 38t-22.5 47t-8.5 60q0 80 49.5 127t142.5 47q57 0 98 -16t64 -36z" />
    <glyph glyph-name="scircumflex" unicode="&#x15d;" horiz-adv-x="359" 
d="M355 583l-102 84l-133 -84l-23 38l165 120l124 -120zM329 423q-17 19 -45.5 33.5t-66.5 14.5q-29 0 -46.5 -8.5t-27 -20.5t-12.5 -26t-3 -25q0 -43 40 -76l66 -55q35 -29 50.5 -56.5t15.5 -65.5q0 -17 -5 -42t-21.5 -48t-48.5 -39.5t-87 -16.5q-48 0 -79 11.5t-48 25.5
l9 59q17 -17 45.5 -32.5t71.5 -15.5t72 20.5t29 70.5q0 29 -12 47.5t-38 40.5l-56 46q-39 32 -52 60.5t-13 57.5q0 22 7 46.5t24 44t45.5 32.5t72.5 13q45 0 74.5 -12.5t47.5 -26.5z" />
    <glyph glyph-name="Scedilla" unicode="&#x15e;" horiz-adv-x="447" 
d="M241 -122q0 -38 -24 -62q-28 -28 -77 -28q-14 0 -27.5 2.5t-24.5 7.5l8 51q6 -5 16.5 -10t26.5 -5q18 0 31.5 8.5t13.5 31.5q0 16 -6.5 23.5t-14.5 14.5t-14.5 15.5t-6.5 25.5t9 37q-44 2 -83.5 14.5t-61.5 28.5l10 67q19 -21 59 -39.5t100 -18.5q78 0 116.5 35.5
t38.5 101.5q0 20 -4 36.5t-13 31.5t-23.5 30.5t-36.5 33.5l-59 49q-19 16 -37 33t-32 38t-22.5 47t-8.5 60q0 80 49.5 127t142.5 47q57 0 98 -16t64 -36l-10 -64q-27 33 -69.5 48t-83.5 15q-64 0 -96 -32t-32 -88q0 -19 4 -34t12.5 -29.5t22.5 -28.5t34 -31l58 -49
q18 -15 37 -32t34 -39t24.5 -49.5t9.5 -64.5q0 -24 -6.5 -55t-26.5 -60t-58 -51t-102 -26q-4 -9 -4 -21q0 -14 5 -20t13 -14q9 -8 18 -20t9 -37z" />
    <glyph glyph-name="scedilla" unicode="&#x15f;" horiz-adv-x="359" 
d="M206 -122q0 -38 -24 -62q-28 -28 -77 -28q-14 0 -27.5 2.5t-24.5 7.5l8 51q6 -5 16.5 -10t26.5 -5q18 0 31.5 8.5t13.5 31.5q0 16 -6.5 23.5t-14.5 14.5q-9 8 -15 16t-6 25q0 19 10 40q-38 2 -66.5 13.5t-39.5 22.5l9 59q17 -17 45.5 -32.5t71.5 -15.5t72 20.5t29 70.5
q0 29 -12 47.5t-38 40.5l-56 46q-39 32 -52 60.5t-13 57.5q0 22 7 46.5t24 44t45.5 32.5t72.5 13q45 0 74.5 -12.5t47.5 -26.5l-9 -57q-17 19 -45.5 33.5t-66.5 14.5q-29 0 -46.5 -8.5t-27 -20.5t-12.5 -26t-3 -25q0 -43 40 -76l66 -55q35 -29 50.5 -57t15.5 -65
q0 -14 -3.5 -36.5t-17 -45t-40 -40.5t-72.5 -22q-6 -14 -6 -25q0 -14 5 -20.5t13 -13.5q9 -8 18 -20t9 -37z" />
    <glyph glyph-name="Scaron" unicode="&#x160;" horiz-adv-x="447" 
d="M288 750l-125 122l38 40l103 -95l122 93l26 -35zM438 596q-27 33 -69.5 48t-83.5 15q-64 0 -96 -32t-32 -88q0 -19 4 -34t12.5 -29.5t22.5 -28.5t34 -31l58 -49q16 -14 34 -30t34 -37.5t26.5 -50t10.5 -67.5q0 -29 -8.5 -62.5t-32 -62.5t-66.5 -48.5t-112 -19.5
q-62 0 -103.5 14t-64.5 30l10 67q19 -21 59 -39.5t100 -18.5q78 0 116.5 35.5t38.5 101.5q0 20 -4 36.5t-13 31.5t-23.5 30.5t-36.5 33.5l-59 49q-19 16 -37 33t-32 38t-22.5 47t-8.5 60q0 80 49.5 127t142.5 47q57 0 98 -16t64 -36z" />
    <glyph glyph-name="scaron" unicode="&#x161;" horiz-adv-x="359" 
d="M225 585l-125 122l38 40l103 -95l122 93l26 -35zM329 423q-17 19 -45.5 33.5t-66.5 14.5q-29 0 -46.5 -8.5t-27 -20.5t-12.5 -26t-3 -25q0 -43 40 -76l66 -55q35 -29 50.5 -56.5t15.5 -65.5q0 -17 -5 -42t-21.5 -48t-48.5 -39.5t-87 -16.5q-48 0 -79 11.5t-48 25.5l9 59
q17 -17 45.5 -32.5t71.5 -15.5t72 20.5t29 70.5q0 29 -12 47.5t-38 40.5l-56 46q-39 32 -52 60.5t-13 57.5q0 22 7 46.5t24 44t45.5 32.5t72.5 13q45 0 74.5 -12.5t47.5 -26.5z" />
    <glyph glyph-name="uni0162" unicode="&#x162;" horiz-adv-x="468" 
d="M210 -55q-7 -51 -19 -87q-9 -30 -18 -51.5t-14 -28.5l-4 -7h-36q27 93 27 168v6h64zM517 651h-193l-103 -651h-63l103 651h-191l9 52h449z" />
    <glyph glyph-name="uni0163" unicode="&#x163;" horiz-adv-x="277" 
d="M155 -55q-7 -51 -19 -87q-9 -30 -18 -51.5t-14 -28.5l-4 -7h-36q27 93 27 168v6h64zM300 462h-125l-50 -320q-2 -10 -3.5 -24.5t-1.5 -25.5q0 -6 1.5 -14.5t6.5 -16t16 -12.5t31 -5q19 0 33.5 5t28.5 15l-8 -55q-11 -5 -27 -9.5t-41 -4.5q-36 0 -56.5 10t-30.5 24
t-12.5 29t-2.5 25q0 16 2 31.5t5 35.5l49 312h-54l8 50h54l15 92l63 18l-18 -110h125z" />
    <glyph glyph-name="Tcaron" unicode="&#x164;" horiz-adv-x="468" 
d="M305 750l-125 122l38 40l103 -95l122 93l26 -35zM517 651h-193l-103 -651h-63l103 651h-191l9 52h449z" />
    <glyph glyph-name="tcaron" unicode="&#x165;" horiz-adv-x="277" 
d="M345 793q-7 -51 -19 -87q-9 -30 -18 -51.5t-14 -28.5l-4 -7h-36q27 93 27 168v6h64zM300 462h-125l-50 -320q-2 -10 -3.5 -24.5t-1.5 -25.5q0 -6 1.5 -14.5t6.5 -16t16 -12.5t31 -5q19 0 33.5 5t28.5 15l-8 -55q-11 -5 -27 -9.5t-41 -4.5q-36 0 -56.5 10t-30.5 24
t-12.5 29t-2.5 25q0 16 2 31.5t5 35.5l49 312h-54l8 50h54l15 92l63 18l-18 -110h125z" />
    <glyph glyph-name="Tbar" unicode="&#x166;" horiz-adv-x="468" 
d="M517 651h-193l-22 -139h103l-11 -50h-100l-73 -462h-63l73 462h-100l8 50h100l22 139h-191l9 52h449z" />
    <glyph glyph-name="tbar" unicode="&#x167;" horiz-adv-x="277" 
d="M300 462h-125l-16 -100h125l-8 -50h-125l-26 -170q-2 -10 -3.5 -24.5t-1.5 -25.5q0 -6 1.5 -14.5t6.5 -16t16 -12.5t31 -5q19 0 33.5 5t28.5 15l-8 -55q-11 -5 -27 -9.5t-41 -4.5q-36 0 -56.5 10t-30.5 24t-12.5 29t-2.5 25q0 15 2 31t5 36l25 162h-54l8 50h54l16 100
h-54l8 50h54l15 92l63 18l-18 -110h125z" />
    <glyph glyph-name="Utilde" unicode="&#x168;" horiz-adv-x="584" 
d="M530 837q-12 -26 -35.5 -46.5t-58.5 -20.5q-12 0 -22 3t-24 10l-21 10q-15 8 -22.5 9.5t-12.5 1.5q-20 0 -32 -11.5t-18 -22.5l-34 25q11 25 33.5 46t57.5 21q23 0 51 -14l21 -10q13 -6 20.5 -8t13.5 -2q19 0 30.5 11t18.5 23l34 -25v0zM519 257q-6 -38 -11.5 -69
t-14 -57t-20.5 -47.5t-30 -39.5q-34 -33 -76.5 -44.5t-91.5 -11.5q-53 0 -89.5 9.5t-61 25t-38 34t-20.5 37.5t-8.5 36t-1.5 28q0 23 2.5 49t6.5 50l71 446h63l-73 -458q-3 -20 -5 -37t-2 -34q0 -45 14.5 -71t37 -40t49.5 -18t51 -4q52 0 84.5 12.5t52 37t30 61t18.5 84.5
l75 467h59z" />
    <glyph glyph-name="utilde" unicode="&#x169;" horiz-adv-x="493" 
d="M446 672q-12 -26 -35.5 -46.5t-58.5 -20.5q-12 0 -22 3t-24 10l-21 10q-15 8 -22.5 9.5t-12.5 1.5q-20 0 -32 -11.5t-18 -22.5l-34 25q11 25 33.5 46t57.5 21q23 0 51 -14l21 -10q13 -6 20.5 -8t13.5 -2q19 0 30.5 11t18.5 23l34 -25v0zM381 0h-58l21 123
q-13 -23 -30.5 -47t-36.5 -41q-29 -26 -58 -34t-53 -8q-42 0 -64.5 13.5t-33.5 31t-13 34.5t-2 25q0 28 3 54t5 36l51 325h60l-49 -312q-2 -13 -5.5 -39.5t-3.5 -52.5q0 -8 1 -18t7 -20t18.5 -16.5t34.5 -6.5q37 0 64 18.5t47 42.5q10 12 22 29t22.5 35t18.5 35.5t10 31.5
l43 273h60z" />
    <glyph glyph-name="Umacron" unicode="&#x16a;" horiz-adv-x="584" 
d="M509 786h-273l8 53h274zM519 257q-6 -38 -11.5 -69t-14 -57t-20.5 -47.5t-30 -39.5q-34 -33 -76.5 -44.5t-91.5 -11.5q-53 0 -89.5 9.5t-61 25t-38 34t-20.5 37.5t-8.5 36t-1.5 28q0 23 2.5 49t6.5 50l71 446h63l-73 -458q-3 -20 -5 -37t-2 -34q0 -45 14.5 -71t37 -40
t49.5 -18t51 -4q52 0 84.5 12.5t52 37t30 61t18.5 84.5l75 467h59z" />
    <glyph glyph-name="umacron" unicode="&#x16b;" horiz-adv-x="493" 
d="M447 621h-273l8 53h274zM381 0h-58l21 123q-13 -23 -30.5 -47t-36.5 -41q-29 -26 -58 -34t-53 -8q-42 0 -64.5 13.5t-33.5 31t-13 34.5t-2 25q0 28 3 54t5 36l51 325h60l-49 -312q-2 -13 -5.5 -39.5t-3.5 -52.5q0 -8 1 -18t7 -20t18.5 -16.5t34.5 -6.5q37 0 64 18.5
t47 42.5q10 12 22 29t22.5 35t18.5 35.5t10 31.5l43 273h60z" />
    <glyph glyph-name="Ubreve" unicode="&#x16c;" horiz-adv-x="584" 
d="M541 859q-2 -4 -6 -10.5t-18.5 -24t-32 -30.5t-47 -23.5t-63.5 -10.5q-53 0 -90 25t-48 49l-10 25l50 30q1 -3 3.5 -8t11 -18t19.5 -22.5t29 -17.5t39 -8q22 0 42.5 7.5t34 18.5t23.5 22.5t15 18.5l5 8zM519 257q-6 -38 -11.5 -69t-14 -57t-20.5 -47.5t-30 -39.5
q-34 -33 -76.5 -44.5t-91.5 -11.5q-53 0 -89.5 9.5t-61 25t-38 34t-20.5 37.5t-8.5 36t-1.5 28q0 23 2.5 49t6.5 50l71 446h63l-73 -458q-3 -20 -5 -37t-2 -34q0 -45 14.5 -71t37 -40t49.5 -18t51 -4q52 0 84.5 12.5t52 37t30 61t18.5 84.5l75 467h59z" />
    <glyph glyph-name="ubreve" unicode="&#x16d;" horiz-adv-x="493" 
d="M467 694q-9 -17 -24 -34.5t-35.5 -32t-47.5 -23.5t-60 -9q-32 0 -57 9t-43 23t-30 31.5t-18 35.5l50 30q13 -29 38.5 -51.5t64.5 -22.5t70 23t49 52l43 -31v0zM381 0h-58l21 123q-13 -23 -30.5 -47t-36.5 -41q-29 -26 -58 -34t-53 -8q-42 0 -64.5 13.5t-33.5 31t-13 34.5
t-2 25q0 28 3 54t5 36l51 325h60l-49 -312q-2 -13 -5.5 -39.5t-3.5 -52.5q0 -8 1 -18t7 -20t18.5 -16.5t34.5 -6.5q37 0 64 18.5t47 42.5q10 12 22 29t22.5 35t18.5 35.5t10 31.5l43 273h60z" />
    <glyph glyph-name="Uring" unicode="&#x16e;" horiz-adv-x="584" 
d="M484 838q0 -50 -31.5 -79t-76.5 -29q-40 0 -69.5 24t-29.5 73q0 50 31.5 78.5t76.5 28.5q40 0 69.5 -23.5t29.5 -72.5zM436 836q0 29 -15.5 42.5t-36.5 13.5q-25 0 -42 -16t-17 -47q0 -30 16 -43.5t36 -13.5q25 0 42 17t17 47zM519 257q-6 -38 -11.5 -69t-14 -57
t-20.5 -47.5t-30 -39.5q-34 -33 -76.5 -44.5t-91.5 -11.5q-53 0 -89.5 9.5t-61 25t-38 34t-20.5 37.5t-8.5 36t-1.5 28q0 23 2.5 49t6.5 50l71 446h63l-73 -458q-3 -20 -5 -37t-2 -34q0 -45 14.5 -71t37 -40t49.5 -18t51 -4q52 0 84.5 12.5t52 37t30 61t18.5 84.5l75 467h59
z" />
    <glyph glyph-name="uring" unicode="&#x16f;" horiz-adv-x="493" 
d="M409 655q0 -50 -31.5 -79t-76.5 -29q-40 0 -69.5 24t-29.5 73q0 50 31.5 78.5t76.5 28.5q40 0 69.5 -23.5t29.5 -72.5zM361 653q0 29 -15.5 42.5t-36.5 13.5q-25 0 -42 -16t-17 -47q0 -30 16 -43.5t36 -13.5q25 0 42 17t17 47zM381 0h-58l21 123q-13 -23 -30.5 -47
t-36.5 -41q-29 -26 -58 -34t-53 -8q-42 0 -64.5 13.5t-33.5 31t-13 34.5t-2 25q0 28 3 54t5 36l51 325h60l-49 -312q-2 -13 -5.5 -39.5t-3.5 -52.5q0 -8 1 -18t7 -20t18.5 -16.5t34.5 -6.5q37 0 64 18.5t47 42.5q10 12 22 29t22.5 35t18.5 35.5t10 31.5l43 273h60z" />
    <glyph glyph-name="Uhungarumlaut" unicode="&#x170;" horiz-adv-x="584" 
d="M220 748l-23 37l178 124l33 -54zM416 748l-23 37l178 124l33 -54zM519 257q-6 -38 -11.5 -69t-14 -57t-20.5 -47.5t-30 -39.5q-34 -33 -76.5 -44.5t-91.5 -11.5q-53 0 -89.5 9.5t-61 25t-38 34t-20.5 37.5t-8.5 36t-1.5 28q0 23 2.5 49t6.5 50l71 446h63l-73 -458
q-3 -20 -5 -37t-2 -34q0 -45 14.5 -71t37 -40t49.5 -18t51 -4q52 0 84.5 12.5t52 37t30 61t18.5 84.5l75 467h59z" />
    <glyph glyph-name="uhungarumlaut" unicode="&#x171;" horiz-adv-x="493" 
d="M326 713l-110 -155l-37 23l95 164zM472 713l-110 -155l-37 23l95 164zM381 0h-58l21 123q-13 -23 -30.5 -47t-36.5 -41q-29 -26 -58 -34t-53 -8q-42 0 -64.5 13.5t-33.5 31t-13 34.5t-2 25q0 28 3 54t5 36l51 325h60l-49 -312q-2 -13 -5.5 -39.5t-3.5 -52.5q0 -8 1 -18
t7 -20t18.5 -16.5t34.5 -6.5q37 0 64 18.5t47 42.5q10 12 22 29t22.5 35t18.5 35.5t10 31.5l43 273h60z" />
    <glyph glyph-name="Uogonek" unicode="&#x172;" horiz-adv-x="584" 
d="M519 257q-6 -38 -11.5 -69t-14 -57t-20.5 -47.5t-30 -39.5q-33 -32 -76 -44q-8 -5 -26 -17t-36 -29.5t-32 -39t-14 -44.5q0 -15 8.5 -28.5t32.5 -13.5q15 0 29.5 5t25.5 10l-10 -46q-12 -7 -29.5 -10t-33.5 -3q-42 0 -60.5 20t-18.5 52q0 44 27.5 77.5t60.5 55.5
q-6 -1 -11.5 -1h-11.5q-51 0 -86.5 10t-59 25.5t-37 34.5t-20 38t-8 36t-1.5 28q0 21 2.5 47t6.5 50l71 446h63l-73 -458q-3 -20 -5 -37t-2 -34q0 -45 14.5 -71t37 -40t49.5 -18t51 -4q52 0 84.5 12.5t52 37t30 61t18.5 84.5l75 467h59z" />
    <glyph glyph-name="uogonek" unicode="&#x173;" horiz-adv-x="493" 
d="M381 0q-8 -4 -26 -16t-36.5 -29.5t-32.5 -39.5t-14 -45q0 -15 8.5 -28.5t32.5 -13.5q15 0 29.5 5t25.5 10l-10 -46q-12 -7 -29.5 -10t-33.5 -3q-42 0 -60.5 20t-18.5 52q0 25 10.5 47.5t26 40.5t34.5 32t36 24l21 122q-1 -1 -6.5 -10t-14.5 -22t-21 -28t-25 -27
q-29 -26 -58 -34t-53 -8q-42 0 -64.5 13.5t-33.5 31t-13 34.5t-2 25q0 28 3 54t5 36l51 325h60l-49 -312q-2 -13 -5.5 -39.5t-3.5 -52.5q0 -8 1 -18t7 -20t18.5 -16.5t34.5 -6.5q37 0 64 18.5t47 42.5q10 12 22 29t22.5 35t18.5 35.5t10 31.5l43 273h60z" />
    <glyph glyph-name="Wcircumflex" unicode="&#x174;" horiz-adv-x="833" 
d="M619 748l-102 84l-133 -84l-23 38l165 120l124 -120zM592 -3h-55l-59 553q-3 27 -4 40.5t-2 28.5q-3 -7 -7 -17q-3 -8 -8 -19.5t-11 -26.5l-240 -559h-56l-80 706h64l54 -510q5 -46 5.5 -71.5t0.5 -34.5q6 19 17 48.5t24 59.5l218 508h69l54 -509q4 -38 4.5 -68t0.5 -39
q6 20 17 51t22 57l215 508h63z" />
    <glyph glyph-name="wcircumflex" unicode="&#x175;" horiz-adv-x="661" 
d="M501 583l-102 84l-133 -84l-23 38l165 120l124 -120zM456 -4h-47l-47 382q-2 11 -3.5 30.5t-2.5 33.5q-3 -8 -10.5 -26.5t-16.5 -38.5l-168 -381h-45l-69 516h62l37 -315q6 -54 7 -78.5t1 -33.5q5 15 14 39.5t28 67.5l140 320h65l39 -319q3 -28 5 -46.5t3 -30.5t1 -19.5
v-11.5q7 20 18 47.5t25 60.5l138 319h62z" />
    <glyph glyph-name="Ycircumflex" unicode="&#x176;" horiz-adv-x="500" 
d="M447 748l-102 84l-133 -84l-23 38l165 120l124 -120zM278 278l-44 -278h-63l43 277l-154 426h69l125 -364l245 364h71z" />
    <glyph glyph-name="ycircumflex" unicode="&#x177;" horiz-adv-x="393" 
d="M374 583l-102 84l-133 -84l-23 38l165 120l124 -120zM144 -69q-22 -45 -40.5 -74.5t-38.5 -49.5q-38 -37 -100 -37q-31 0 -52 9l9 53q6 -5 19 -9t28 -4q21 0 37 8t29 21.5t24.5 32.5t22.5 41l44 88l-84 502h63l50 -324q5 -35 8 -63t4 -42q4 12 16 40.5t26 57.5l158 331
h62z" />
    <glyph glyph-name="Ydieresis" unicode="&#x178;" horiz-adv-x="500" 
d="M458 823q0 -21 -13.5 -34t-33.5 -13q-17 0 -27.5 10t-10.5 28q0 21 13.5 34t33.5 13q17 0 27.5 -10t10.5 -28zM297 823q0 -21 -13.5 -34t-33.5 -13q-17 0 -27.5 10t-10.5 28q0 21 13.5 34t33.5 13q17 0 27.5 -10t10.5 -28zM278 278l-44 -278h-63l43 277l-154 426h69
l125 -364l245 364h71z" />
    <glyph glyph-name="Zacute" unicode="&#x179;" horiz-adv-x="527" 
d="M325 748l-23 37l178 124l33 -54zM550 662l-463 -610h363l-11 -52h-439l6 42l461 609h-338l8 52h420z" />
    <glyph glyph-name="zacute" unicode="&#x17a;" horiz-adv-x="411" 
d="M368 711l-110 -155l-37 23l95 164zM420 474l-345 -425h275l-8 -49h-352l6 39l344 424h-261l8 49h339z" />
    <glyph glyph-name="Zdotaccent" unicode="&#x17b;" horiz-adv-x="527" 
d="M417 824q0 -23 -15.5 -37.5t-38.5 -14.5q-20 0 -31.5 11.5t-11.5 31.5q0 24 15.5 38.5t38.5 14.5q20 0 31.5 -12t11.5 -32zM550 662l-463 -610h363l-11 -52h-439l6 42l461 609h-338l8 52h420z" />
    <glyph glyph-name="zdotaccent" unicode="&#x17c;" horiz-adv-x="411" 
d="M324 651q0 -23 -15.5 -37.5t-38.5 -14.5q-20 0 -31.5 11.5t-11.5 31.5q0 24 15.5 38.5t38.5 14.5q20 0 31.5 -12t11.5 -32zM420 474l-345 -425h275l-8 -49h-352l6 39l344 424h-261l8 49h339z" />
    <glyph glyph-name="Zcaron" unicode="&#x17d;" horiz-adv-x="527" 
d="M345 750l-125 122l38 40l103 -95l122 93l26 -35zM550 662l-463 -610h363l-11 -52h-439l6 42l461 609h-338l8 52h420z" />
    <glyph glyph-name="zcaron" unicode="&#x17e;" horiz-adv-x="416" 
d="M266 585l-125 122l38 40l103 -95l122 93l26 -35zM420 474l-345 -425h275l-8 -49h-352l6 39l344 424h-261l8 49h339z" />
    <glyph glyph-name="florin" unicode="&#x192;" horiz-adv-x="498" 
d="M433 701q-10 9 -26.5 14t-35.5 5q-21 0 -34.5 -6.5t-22.5 -18.5q-11 -14 -14.5 -34.5t-7.5 -42.5l-17 -106h106l-8 -49h-106l-85 -542q-6 -38 -13.5 -61.5t-21.5 -43.5q-22 -29 -51.5 -37.5t-54.5 -8.5q-31 0 -50.5 6.5t-30.5 11.5l9 54q14 -11 32.5 -16.5t36.5 -5.5
q39 0 58 25q11 15 17 36.5t9 39.5l85 542h-55l8 49h55l16 98q8 46 15.5 71t21.5 45q20 27 48 35.5t57 8.5q25 0 41 -4t27 -9z" />
    <glyph glyph-name="uni01F5" unicode="&#x1f5;" 
d="M269 583l-23 37l178 124l33 -54zM370 -16q-8 -52 -18 -86.5t-32 -62.5q-51 -65 -164 -65q-54 0 -93 12.5t-59 28.5l9 60q17 -18 51.5 -35t90.5 -17q45 0 71 12t42 30q19 22 27 50.5t15 70.5l10 62q5 32 9 49t6 26q-11 -20 -27 -43t-36 -41q-26 -24 -52.5 -33t-53.5 -9
q-59 0 -92 40.5t-33 138.5q0 57 13 118.5t41.5 112.5t75 84t114.5 33q42 0 68 -11t39 -23l4 26h58zM381 437q-12 13 -35 22.5t-55 9.5q-42 0 -72 -17t-50.5 -44t-33 -60.5t-19.5 -67t-9 -63t-2 -47.5q0 -44 8 -69t19 -37t23 -14.5t21 -2.5q27 0 51 12.5t53 47.5
q25 30 45.5 66.5t25.5 69.5z" />
    <glyph glyph-name="uni0218" unicode="&#x218;" horiz-adv-x="447" 
d="M206 -55q-7 -51 -19 -87q-9 -30 -18 -51.5t-14 -28.5l-4 -7h-36q27 93 27 168v6h64zM438 596q-27 33 -69.5 48t-83.5 15q-64 0 -96 -32t-32 -88q0 -19 4 -34t12.5 -29.5t22.5 -28.5t34 -31l58 -49q16 -14 34 -30t34 -37.5t26.5 -50t10.5 -67.5q0 -29 -8.5 -62.5
t-32 -62.5t-66.5 -48.5t-112 -19.5q-62 0 -103.5 14t-64.5 30l10 67q19 -21 59 -39.5t100 -18.5q78 0 116.5 35.5t38.5 101.5q0 20 -4 36.5t-13 31.5t-23.5 30.5t-36.5 33.5l-59 49q-19 16 -37 33t-32 38t-22.5 47t-8.5 60q0 80 49.5 127t142.5 47q57 0 98 -16t64 -36z" />
    <glyph glyph-name="uni0219" unicode="&#x219;" horiz-adv-x="359" 
d="M158 -55q-7 -51 -19 -87q-9 -30 -18 -51.5t-14 -28.5l-4 -7h-36q27 93 27 168v6h64zM329 423q-17 19 -45.5 33.5t-66.5 14.5q-29 0 -46.5 -8.5t-27 -20.5t-12.5 -26t-3 -25q0 -43 40 -76l66 -55q35 -29 50.5 -56.5t15.5 -65.5q0 -17 -5 -42t-21.5 -48t-48.5 -39.5
t-87 -16.5q-48 0 -79 11.5t-48 25.5l9 59q17 -17 45.5 -32.5t71.5 -15.5t72 20.5t29 70.5q0 29 -12 47.5t-38 40.5l-56 46q-39 32 -52 60.5t-13 57.5q0 22 7 46.5t24 44t45.5 32.5t72.5 13q45 0 74.5 -12.5t47.5 -26.5z" />
    <glyph glyph-name="uni021A" unicode="&#x21a;" horiz-adv-x="468" 
d="M210 -55q-7 -51 -19 -87q-9 -30 -18 -51.5t-14 -28.5l-4 -7h-36q27 93 27 168v6h64zM517 651h-193l-103 -651h-63l103 651h-191l9 52h449z" />
    <glyph glyph-name="uni021B" unicode="&#x21b;" horiz-adv-x="277" 
d="M155 -55q-7 -51 -19 -87q-9 -30 -18 -51.5t-14 -28.5l-4 -7h-36q27 93 27 168v6h64zM300 462h-125l-50 -320q-2 -10 -3.5 -24.5t-1.5 -25.5q0 -6 1.5 -14.5t6.5 -16t16 -12.5t31 -5q19 0 33.5 5t28.5 15l-8 -55q-11 -5 -27 -9.5t-41 -4.5q-36 0 -56.5 10t-30.5 24
t-12.5 29t-2.5 25q0 16 2 31.5t5 35.5l49 312h-54l8 50h54l15 92l63 18l-18 -110h125z" />
    <glyph glyph-name="circumflex" unicode="&#x2c6;" horiz-adv-x="475" 
d="M444 583l-102 84l-133 -84l-23 38l165 120l124 -120z" />
    <glyph glyph-name="caron" unicode="&#x2c7;" horiz-adv-x="309" 
d="M125 585l-125 122l38 40l103 -95l122 93l26 -35z" />
    <glyph glyph-name="breve" unicode="&#x2d8;" horiz-adv-x="475" 
d="M505 694q-9 -17 -24 -34.5t-35.5 -32t-47.5 -23.5t-60 -9q-32 0 -57 9t-43 23t-30 31.5t-18 35.5l50 30q13 -29 38.5 -51.5t64.5 -22.5t70 23t49 52l43 -31v0z" />
    <glyph glyph-name="dotaccent" unicode="&#x2d9;" horiz-adv-x="500" 
d="M298 651q0 -23 -15.5 -37.5t-38.5 -14.5q-20 0 -31.5 11.5t-11.5 31.5q0 24 15.5 38.5t38.5 14.5q20 0 31.5 -12t11.5 -32z" />
    <glyph glyph-name="ring" unicode="&#x2da;" horiz-adv-x="500" 
d="M327 655q0 -50 -31.5 -79t-76.5 -29q-40 0 -69.5 24t-29.5 73q0 50 31.5 78.5t76.5 28.5q40 0 69.5 -23.5t29.5 -72.5zM279 653q0 29 -15.5 42.5t-36.5 13.5q-25 0 -42 -16t-17 -47q0 -30 16 -43.5t36 -13.5q25 0 42 17t17 47z" />
    <glyph glyph-name="ogonek" unicode="&#x2db;" horiz-adv-x="185" 
d="M165 0q-8 -4 -26 -16t-36.5 -29.5t-32.5 -39.5t-14 -45q0 -15 8.5 -28.5t32.5 -13.5q15 0 29.5 5t25.5 10l-10 -46q-12 -7 -29.5 -10t-33.5 -3q-42 0 -60.5 20t-18.5 52q0 25 10.5 47.5t26 40.5t34.5 32t36 24h58v0z" />
    <glyph glyph-name="tilde" unicode="&#x2dc;" horiz-adv-x="475" 
d="M503 672q-12 -26 -35.5 -46.5t-58.5 -20.5q-12 0 -22 3t-24 10l-21 10q-15 8 -22.5 9.5t-12.5 1.5q-20 0 -32 -11.5t-18 -22.5l-34 25q11 25 33.5 46t57.5 21q23 0 51 -14l21 -10q13 -6 20.5 -8t13.5 -2q19 0 30.5 11t18.5 23l34 -25v0z" />
    <glyph glyph-name="hungarumlaut" unicode="&#x2dd;" horiz-adv-x="313" 
d="M147 713l-110 -155l-37 23l95 164zM293 713l-110 -155l-37 23l95 164z" />
    <glyph glyph-name="endash" unicode="&#x2013;" horiz-adv-x="500" 
d="M495 241h-499l8 50h500z" />
    <glyph glyph-name="emdash" unicode="&#x2014;" horiz-adv-x="1000" 
d="M995 241h-999l8 50h1000z" />
    <glyph glyph-name="afii00208" unicode="&#x2015;" horiz-adv-x="277" 
d="M284 362l-8 -50h-239l8 50h239z" />
    <glyph glyph-name="quoteleft" unicode="&#x2018;" horiz-adv-x="200" 
d="M240 754q-32 -56 -47.5 -105t-21.5 -107h-77q4 35 15 67.5t25.5 62t31 55.5t33.5 47l41 -20v0z" />
    <glyph glyph-name="quoteright" unicode="&#x2019;" horiz-adv-x="200" 
d="M236 770q-4 -35 -15 -67.5t-25.5 -62t-31.5 -55.5t-33 -47l-41 20q32 56 47.5 105t21.5 107h77v0z" />
    <glyph glyph-name="quotesinglbase" unicode="&#x201a;" horiz-adv-x="180" 
d="M116 92q-4 -35 -15 -67.5t-25.5 -62t-31.5 -55.5t-33 -47l-41 20q32 56 47.5 105t21.5 107h77v0z" />
    <glyph glyph-name="quotedblleft" unicode="&#x201c;" horiz-adv-x="365" 
d="M240 754q-32 -56 -47.5 -105t-21.5 -107h-77q4 35 15 67.5t25.5 62t31 55.5t33.5 47l41 -20v0zM405 754q-32 -56 -47.5 -105t-21.5 -107h-77q4 35 15 67.5t25.5 62t31 55.5t33.5 47l41 -20v0z" />
    <glyph glyph-name="quotedblright" unicode="&#x201d;" horiz-adv-x="365" 
d="M236 770q-4 -35 -15 -67.5t-25.5 -62t-31.5 -55.5t-33 -47l-41 20q32 56 47.5 105t21.5 107h77v0zM401 770q-4 -35 -15 -67.5t-25.5 -62t-31.5 -55.5t-33 -47l-41 20q32 56 47.5 105t21.5 107h77v0z" />
    <glyph glyph-name="quotedblbase" unicode="&#x201e;" horiz-adv-x="345" 
d="M116 92q-4 -35 -15 -67.5t-25.5 -62t-31.5 -55.5t-33 -47l-41 20q32 56 47.5 105t21.5 107h77v0zM281 92q-4 -35 -15 -67.5t-25.5 -62t-31.5 -55.5t-33 -47l-41 20q32 56 47.5 105t21.5 107h77v0z" />
    <glyph glyph-name="dagger" unicode="&#x2020;" horiz-adv-x="472" 
d="M451 448l-162 19l-2 -146l-15 -96l-80 -374h-36l30 377l16 95l43 144l-167 -16l13 84l162 -22l8 190h87l-50 -190l166 19z" />
    <glyph glyph-name="daggerdbl" unicode="&#x2021;" horiz-adv-x="472" 
d="M449 448l-162 19l-1 -143l-12 -75l-45 -150l168 19l-14 -84l-161 19l-10 -202h-87l53 202l-166 -15l12 84l162 -23l2 153l12 75l45 140l-169 -16l14 84l162 -22l8 190h86l-51 -190l167 19z" />
    <glyph glyph-name="bullet" unicode="&#x2022;" horiz-adv-x="510" 
d="M413 292q0 -32 -12.5 -60.5t-33.5 -49.5t-49.5 -33.5t-59.5 -12.5q-32 0 -59.5 12.5t-48.5 33.5t-33 49.5t-12 60.5t12 60t32.5 49t48.5 33.5t60 12.5t60 -12.5t49 -33.5t33.5 -49t12.5 -60z" />
    <glyph glyph-name="ellipsis" unicode="&#x2026;" horiz-adv-x="773" 
d="M114 47q0 -26 -15 -42t-40 -16q-21 0 -33.5 13t-12.5 37q0 26 14 42.5t38 16.5q22 0 35.5 -14t13.5 -37zM414 47q0 -26 -15 -42t-40 -16q-21 0 -33.5 13t-12.5 37q0 26 14 42.5t38 16.5q22 0 35.5 -14t13.5 -37zM705 47q0 -26 -15 -42t-40 -16q-21 0 -33.5 13t-12.5 37
q0 26 14 42.5t38 16.5q22 0 35.5 -14t13.5 -37z" />
    <glyph glyph-name="perthousand" unicode="&#x2030;" horiz-adv-x="989" 
d="M954 159q0 -36 -11.5 -67t-32.5 -54t-51 -36.5t-66 -13.5q-66 0 -103.5 41.5t-37.5 107.5q0 37 12 68t33.5 53t51 34.5t64.5 12.5q63 0 102 -38.5t39 -107.5zM358 567q0 -36 -11.5 -67t-32.5 -54t-51 -36.5t-66 -13.5q-66 0 -103.5 41.5t-37.5 107.5q0 37 12 68t33.5 53
t51 34.5t64.5 12.5q63 0 102 -38.5t39 -107.5zM63 0h-73l629 706h72zM609 159q0 -36 -11.5 -67t-32.5 -54t-51 -36.5t-66 -13.5q-66 0 -103.5 41.5t-37.5 107.5q0 37 12 68t33.5 53t51 34.5t64.5 12.5q63 0 102 -38.5t39 -107.5zM894 153q0 21 -5.5 39.5t-16 32.5t-27 22.5
t-38.5 8.5q-24 0 -41.5 -9.5t-29 -26t-17.5 -37.5t-6 -44q0 -41 19.5 -70.5t63.5 -29.5q24 0 42 9t30.5 24.5t19 36.5t6.5 44zM298 561q0 21 -5.5 39.5t-16 32.5t-27 22.5t-38.5 8.5q-24 0 -41.5 -9.5t-29 -26t-17.5 -37.5t-6 -44q0 -41 19.5 -70.5t63.5 -29.5q24 0 42 9
t30.5 24.5t19 36.5t6.5 44zM549 153q0 21 -5.5 39.5t-16 32.5t-27 22.5t-38.5 8.5q-24 0 -41.5 -9.5t-29 -26t-17.5 -37.5t-6 -44q0 -41 19.5 -70.5t63.5 -29.5q24 0 42 9t30.5 24.5t19 36.5t6.5 44z" />
    <glyph glyph-name="guilsinglleft" unicode="&#x2039;" horiz-adv-x="259" 
d="M130 265l54 -211h-58l-71 212l133 185h65z" />
    <glyph glyph-name="guilsinglright" unicode="&#x203a;" horiz-adv-x="248" 
d="M70 55h-65l123 188l-54 209h58l71 -212z" />
    <glyph glyph-name="fraction" unicode="&#x2044;" horiz-adv-x="500" 
d="M57 0h-68l511 703h66z" />
    <glyph glyph-name="Euro" unicode="&#x20ac;" 
d="M517 596q-14 22 -46.5 41.5t-86.5 19.5q-48 0 -84.5 -18t-63.5 -47.5t-45.5 -68.5t-30.5 -81h258l-19 -50h-250q-5 -28 -8 -53.5t-5 -45.5h224l-18 -50h-205q0 -41 8 -77t26.5 -63.5t48 -43.5t73.5 -16q51 0 88.5 18.5t57.5 38.5l-16 -77q-23 -15 -59.5 -24.5t-78.5 -9.5
q-62 0 -103 21.5t-66 56.5t-35.5 81t-11.5 95h-90l19 50h71q2 27 5 51.5t7 47.5h-63l19 50h55q11 42 25.5 76t33.5 63q27 42 57.5 68t61 40t60 19t55.5 5q60 0 94 -16.5t50 -33.5z" />
    <glyph glyph-name="trademark" unicode="&#x2122;" horiz-adv-x="850" 
d="M766 309v326q-2 -8 -5 -16q-2 -7 -5 -14t-5 -12l-112 -284h-44l-107 291q-5 14 -7 22t-4 15v-328h-54v394h84l105 -286q2 -5 4.5 -15.5t4.5 -18.5q2 6 4 13q2 5 4 11.5t4 11.5l109 284h78v-394h-54zM244 655v-346h-58v346h-116v48h291v-48h-117z" />
    <glyph glyph-name="uni2139" unicode="&#x2139;" horiz-adv-x="659" 
d="M477 744q0 -32 -12.5 -61t-34 -50.5t-50 -34t-60.5 -12.5q-33 0 -61.5 12.5t-49.5 34t-33.5 50.5t-12.5 61t12.5 60.5t34 49.5t50 33.5t60.5 12.5t60.5 -12.5t50 -33.5t34 -49.5t12.5 -60.5zM120 0v39h58q9 0 14.5 6.5t5.5 12.5v426q0 15 -18 15h-60v40h322v-483
q0 -5 3.5 -11t11.5 -6h82v-39h-419z" />
    <glyph glyph-name="arrowleft" unicode="&#x2190;" horiz-adv-x="703" 
d="M177 299l260 -259h-125l-312 311l312 312h125l-260 -260h526v-104h-526z" />
    <glyph glyph-name="arrowup" unicode="&#x2191;" horiz-adv-x="623" 
d="M363 526v-526h-104v526l-259 -260v125l311 312l312 -312v-125z" />
    <glyph glyph-name="arrowright" unicode="&#x2192;" horiz-adv-x="703" 
d="M391 40h-125l260 260h-526v104h526l-260 259h125l312 -311z" />
    <glyph glyph-name="arrowdown" unicode="&#x2193;" horiz-adv-x="623" 
d="M312 0l-312 312v125l260 -260v526h104v-526l259 260v-125z" />
    <glyph glyph-name="uni2196" unicode="&#x2196;" horiz-adv-x="533" 
d="M460 66l-372 372v-367l-88 88v441h441l88 -89h-367l371 -372z" />
    <glyph glyph-name="uni2197" unicode="&#x2197;" horiz-adv-x="534" 
d="M445 71v367l-372 -371l-73 73l372 371h-367l88 89h441v-441z" />
    <glyph glyph-name="uni2198" unicode="&#x2198;" horiz-adv-x="533" 
d="M92 103l-88 89h367l-371 372l73 73l371 -372v367l89 -88v-441h-441z" />
    <glyph glyph-name="uni2199" unicode="&#x2199;" horiz-adv-x="534" 
d="M162 191h367l-88 -88h-441v441l89 88v-367l372 371l73 -73z" />
    <glyph glyph-name="minus" unicode="&#x2212;" horiz-adv-x="640" 
d="M36 320v59h594v-59h-594z" />
    <glyph glyph-name="uni2219" unicode="&#x2219;" horiz-adv-x="205" 
d="M165 301q0 -29 -16.5 -47.5t-45.5 -18.5q-27 0 -44 17.5t-17 47.5t17 48t44 18q26 0 44 -17t18 -48z" />
    <glyph glyph-name="notequal" unicode="&#x2260;" horiz-adv-x="640" 
d="M295 193l-90 -173l-51 27l75 146h-193v60h228l94 190h-322v60h356l87 176l51 -28l-71 -148h171v-60h-205l-94 -190h299v-60h-335z" />
    <glyph glyph-name="lessequal" unicode="&#x2264;" horiz-adv-x="711" 
d="M36 418v37l665 292v-65l-569 -244l569 -243v-68zM36 0v59h665v-59h-665z" />
    <glyph glyph-name="greaterequal" unicode="&#x2265;" horiz-adv-x="711" 
d="M36 127v68l569 243l-569 244v65l665 -292v-37zM36 0v59h665v-59h-665z" />
    <glyph glyph-name="SF100000" unicode="&#x2500;" horiz-adv-x="500" 
d="M0 0v35h500v-35h-500z" />
    <glyph glyph-name="uni254C" unicode="&#x254c;" horiz-adv-x="500" 
d="M0 0v35h250v-35h-250z" />
    <glyph glyph-name="uni25A3" unicode="&#x25a3;" horiz-adv-x="703" 
d="M0 0v703h703v-703h-703zM631 631h-559v-559h559v559zM156 156v391h391v-391h-391z" />
    <glyph glyph-name="uni25B6" unicode="&#x25b6;" horiz-adv-x="703" 
d="M-1 0v703l703 -352z" />
    <glyph glyph-name="uni25C0" unicode="&#x25c0;" horiz-adv-x="703" 
d="M0 351l703 352v-703z" />
    <glyph glyph-name="lozenge" unicode="&#x25ca;" horiz-adv-x="538" 
d="M280 2l-252 368l254 382l252 -367zM281 649l-183 -277l183 -272l180 282z" />
    <glyph glyph-name="uni25FC" unicode="&#x25fc;" horiz-adv-x="703" 
d="M0 0v703h703v-703h-703z" />
    <glyph glyph-name="uni25FD" unicode="&#x25fd;" horiz-adv-x="703" 
d="M631 72h-559v559h559v-559z" />
    <glyph glyph-name="uni25FE" unicode="&#x25fe;" horiz-adv-x="703" 
d="M156 156v391h391v-391h-391z" />
    <glyph glyph-name="uni260E" unicode="&#x260e;" horiz-adv-x="955" 
d="M955 484q2 -26 -5 -44.5t-16 -26.5q-8 -8 -24.5 -13t-50.5 -5q-149 0 -149 116v19q73 -41 151 -41q43 0 93 17zM954 543q-23 -8 -45.5 -12.5t-45.5 -4.5q-37 0 -76 11.5t-77 34.5v11q0 76 -235 76q-230 0 -230 -76v-11q-80 -40 -157 -40q-22 0 -43.5 3t-44.5 8
q7 43 20.5 82t35.5 74q55 20 101.5 32.5t99.5 21.5q105 18 221 18q114 0 219 -18q53 -9 100.5 -22t100.5 -32q22 -39 35.5 -78t20.5 -78zM106 0v119q0 77 51 158l132 212v95l112 14v-83h153v83l112 -14v-95l132 -212q51 -81 51 -158v-119h-743zM245 511q0 -110 -149 -110
q-56 0 -76 17t-20 65v24q42 -12 90 -12q42 0 80.5 9.5t74.5 29.5v-23zM648 301q0 25 -13.5 47.5t-37 39t-54.5 26t-66 9.5t-66 -9.5t-54 -26t-36.5 -39t-13.5 -47.5q0 -26 13.5 -48t36.5 -38.5t54 -26t66 -9.5t66 9.5t54.5 26t37 38.5t13.5 48z" />
    <glyph glyph-name="uni2610" unicode="&#x2610;" horiz-adv-x="703" 
d="M0 0v703h703v-703h-703zM631 631h-559v-559h559v559z" />
    <glyph glyph-name="uni2611" unicode="&#x2611;" horiz-adv-x="703" 
d="M802 718q-53 -44 -99 -93v-625h-703v703h703v-17q20 15 41 30.5t44 29.5zM631 542q-8 -11 -16 -20t-20 -24q-24 -30 -49.5 -66.5t-50.5 -77t-48.5 -83t-42.5 -83.5l-90 -52l-172 298l89 52l116 -200q33 60 87.5 131.5t124.5 143.5q16 17 34 33.5t38 33.5v3h-559v-559h559
v470z" />
    <glyph glyph-name="uni2612" unicode="&#x2612;" horiz-adv-x="703" 
d="M0 0v703h703v-703h-703zM631 631h-559v-559h559v559zM504 138l-153 153l-152 -153l-61 61l153 152l-153 153l61 61l152 -153l153 153l61 -61l-153 -153l153 -152z" />
    <glyph glyph-name="uni26A0" unicode="&#x26a0;" horiz-adv-x="1020" 
d="M1020 58q0 -24 -17 -41t-42 -17h-902q-25 0 -42 17t-17 43q0 16 7 29l449 776q8 14 22 24.5t32 10.5q17 0 30.5 -9t21.5 -23l449 -777q4 -7 6.5 -15t2.5 -18zM510 782l-400 -693h800zM545 333q-2 -16 -9 -30t-26 -14t-26.5 14t-9.5 30l-27 231q-2 16 0.5 33t10 31
t20.5 22.5t32 8.5t32 -8.5t20 -22.5t9.5 -31t0.5 -33zM567 180q0 -24 -17 -41t-41 -17t-41.5 17t-17.5 41t17.5 41t41.5 17t41 -17t17 -41z" />
    <glyph glyph-name="uni2702" unicode="&#x2702;" horiz-adv-x="1170" 
d="M1170 -124q-36 -10 -72.5 -13.5t-70.5 -3.5q-54 0 -125 7.5t-161 24.5q-61 11 -107 22t-82.5 21.5t-65.5 20.5t-54 20q-16 -12 -28.5 -20.5t-27.5 -14.5t-33.5 -8.5t-46.5 -2.5q-15 0 -33.5 1t-38.5 3q17 -12 26.5 -25.5t9.5 -32.5q0 -22 -11.5 -38.5t-30.5 -29.5
q-23 -16 -49 -22t-50 -6q-26 0 -51.5 7.5t-44.5 24.5q-23 20 -23 52q0 19 7 32.5t18.5 22.5t26 15t29.5 11q30 10 60.5 16.5t73.5 14.5t71.5 14.5t54.5 19.5q-30 14 -58.5 21t-67.5 14q-30 5 -49 9t-33.5 7t-26 6t-25.5 8q-35 11 -58 28.5t-23 52.5q0 32 23 52
q19 17 44.5 24.5t51.5 7.5q24 0 50 -6t49 -22q19 -13 30.5 -29.5t11.5 -38.5q0 -19 -9.5 -32t-26.5 -25q20 2 38.5 3t33.5 1q28 0 46.5 -2.5t33.5 -8.5t27.5 -14.5t28.5 -20.5q25 10 60.5 21.5t76.5 22.5t85 21t87 18q87 15 153 24t129 9q38 0 74.5 -4t72.5 -14l-593 -133z
M210 141q0 13 -10.5 24.5t-29.5 18.5q-10 4 -23.5 6.5t-28.5 2.5q-34 0 -49 -12t-15 -29q0 -16 10.5 -24t22.5 -13q27 -11 55 -11q10 0 22 2t22.5 6.5t17 11.5t6.5 17zM210 -122q0 10 -6.5 17t-17 11.5t-22.5 6.5t-22 2q-28 0 -55 -11q-12 -5 -22.5 -13t-10.5 -23
q0 -17 15 -30t48 -13q16 0 29.5 3t23.5 7q40 15 40 43z" />
    <glyph glyph-name="uni2706" unicode="&#x2706;" horiz-adv-x="900" 
d="M900 393q0 -93 -35.5 -175t-96.5 -143t-143 -96.5t-175 -35.5t-175 35.5t-143 96.5t-96.5 143t-35.5 175t35.5 175t96.5 143t143 96.5t175 35.5t175 -35.5t143 -96.5t96.5 -143t35.5 -175zM865 393q0 85 -32.5 161t-89 132.5t-132 89.5t-161.5 33t-161.5 -33t-132 -89.5
t-89 -132.5t-32.5 -161q0 -86 32.5 -161.5t89 -132t132 -89t161.5 -32.5t161.5 32.5t132 89t89 132t32.5 161.5zM442 668q14 -52 0 -81t-52 -39l-12 -3q15 55 0 108q-5 16 -11.5 30t-16.5 29l15 4q35 9 51 -1t26 -47zM496 70q-30 -3 -58.5 -1t-55.5 10q-23 32 -41.5 65
t-30.5 59q-14 31 -27 67.5t-24 76.5q-12 48 -18 81.5t-9 67.5q-6 71 0 144q43 42 94 65q11 -16 17 -29.5t10 -27.5q13 -51 -3 -111l-7 -2q-51 -15 -9 -171q20 -75 43 -110.5t49 -27.5l7 2q22 -25 35 -50t19 -47q3 -11 5.5 -27.5t3.5 -33.5zM576 105q-8 -17 -40 -25l-16 -4
q1 27 -8 62q-8 30 -21 51.5t-33 44.5l16 4q74 18 100 -80q5 -21 5 -33.5t-3 -19.5z" />
    <glyph glyph-name="uni2709" unicode="&#x2709;" horiz-adv-x="1055" 
d="M0 0v779h1055v-779h-1055zM1020 721l-322 -341l322 -322v663zM60 744l385 -409h164l385 409h-934zM675 354l-51 -54h-194l-50 54l-320 -319h934zM34 721v-663l322 322z" />
    <glyph glyph-name="uni270E" unicode="&#x270e;" horiz-adv-x="900" 
d="M628 133l-628 628l139 139l628 -628l133 -272zM134 849l-27 -28l582 -582l28 27zM748 253l-101 -100l131 -68l37 37zM79 793l-28 -27l583 -583l28 28z" />
    <glyph glyph-name="uni2713" unicode="&#x2713;" horiz-adv-x="703" 
d="M802 718q-45 -38 -98.5 -94t-108.5 -126q-60 -77 -107.5 -154.5t-84.5 -155.5l-90 -52l-172 298l89 52l116 -200q33 60 87.5 131.5t124.5 143.5q45 45 102.5 92.5t126.5 92.5z" />
    <glyph glyph-name="uni2717" unicode="&#x2717;" horiz-adv-x="703" 
d="M504 138l-153 153l-152 -153l-61 61l153 152l-153 153l61 61l152 -153l153 153l61 -61l-153 -153l153 -152z" />
    <glyph glyph-name="uni2794" unicode="&#x2794;" horiz-adv-x="703" 
d="M391 40h-196l243 243h-438v138h438l-243 242h196l312 -311z" />
    <glyph glyph-name="uniE003" unicode="&#xe003;" horiz-adv-x="167" 
d="M147 711l-110 -155l-37 23l95 164z" />
    <glyph glyph-name="uniE708" unicode="&#xe708;" horiz-adv-x="588" 
d="M595 859q-2 -4 -6 -10.5t-18.5 -24t-32 -30.5t-47 -23.5t-63.5 -10.5q-53 0 -90 25t-48 49l-10 25l50 30q1 -3 3.5 -8t11 -18t19.5 -22.5t29 -17.5t39 -8q22 0 42.5 7.5t34 18.5t23.5 22.5t15 18.5l5 8z" />
    <glyph glyph-name="uniE719" unicode="&#xe719;" horiz-adv-x="111" 
d="M91 725q-7 -51 -19 -87q-9 -30 -18 -51.5t-14 -28.5l-4 -7h-36q27 93 27 168v6h64z" />
    <glyph glyph-name="uniE784" unicode="&#xe784;" horiz-adv-x="111" 
d="M91 757q-27 -93 -27 -168v-6h-64q7 51 19 87q9 30 18 51.5t13 28.5l5 7h36z" />
    <glyph glyph-name="uniF6BE" unicode="&#xf6be;" horiz-adv-x="213" 
d="M179 512l-95 -599q-5 -34 -12 -55.5t-22 -44t-43 -33t-69 -10.5q-16 0 -29.5 2.5t-18.5 5.5l-6 2l4 53q14 -13 48 -13q44 0 62 21t26 70l95 601h60z" />
    <glyph glyph-name="exclam" unicode="!" horiz-adv-x="263" 
d="M136 158h-52l77 530l67 15zM145 49q0 -27 -15.5 -43.5t-39.5 -16.5q-22 0 -33.5 14t-11.5 37q0 26 14.5 43t39.5 17q24 0 35 -15t11 -36z" />
    <glyph glyph-name="quotedbl" unicode="&#x22;" horiz-adv-x="260" 
d="M117 487h-47l24 216h69zM234 487h-47l24 216h69z" />
    </font>
</defs>
</svg>
