<svg  width="1792" height="1792" viewBox="0 0 1792 1792" xmlns="http://www.w3.org/2000/svg">
 <g transform="matrix(.34705 0 0 -.34705 11.839 1790.5)">
  <path d="m2789 5017c-360-221-653-454-998-792-580-569-1150-1306-1411-1826-39-77-42-87-38-150 3-64 7-73 63-155 218-321 674-632 930-634l50-1 85-102c47-56 247-304 444-552 423-530 639-790 661-799 9-3 34-6 56-6 64 0 88 32 168 227 132 323 207 452 340 584 69 68 105 95 171 128l85 41 122-34c295-83 497-64 708 66 187 116 358 256 420 343 49 69 145 254 145 279 0 9-6 32-14 51-12 29-12 35-1 45 8 7 17 27 21 45 8 46-59 192-182 397-107 176-164 299-308 653-123 300-169 396-258 532-92 139-258 308-380 388l-88 56v132c0 259-21 832-32 860-12 32-54 57-93 57s-273-76-323-105l-44-25 6 28c3 15 8 86 12 158 7 139 2 162-40 196-13 11-38 17-66 17-39 0-67-14-211-102zm86-465c1-261 16-413 61-610 27-121 108-195 249-230 292-72 515-232 686-492 67-102 120-212 234-495 138-340 211-495 298-637 98-160 98-158 56-158-89 0-154-103-118-184 7-14 47-48 90-77 43-28 83-57 88-63 19-23-58-134-145-210-91-79-309-226-372-250-68-26-162-35-245-25-98 12-277 63-705 201-539 172-618 197-757 233-314 80-536 114-795 121-250 7-292 19-480 142-164 106-311 240-408 370l-54 73 65 118c392 716 1185 1634 1869 2164 88 68 373 267 382 267 1 0 1-116 1-258zm480-344c4-170 4-308 1-308-30 0-178 46-189 59-15 17-48 193-67 365l-12 100 49 43c65 59 115 93 160 108l38 13 6-36c4-21 10-175 14-344zm-1460-2803c152-29 378-83 575-140 150-43 613-186 619-191 2-2-9-13-25-25s-63-57-105-99c-118-119-208-268-319-523l-47-109-140 174c-326 405-753 940-753 943 0 5 16 3 195-30z"/>
  <path d="m3297 2956c-74-28-107-78-107-164 0-137 184-336 404-438 157-72 293-93 341-51 34 29 44 74 52 227 7 145-6 207-59 286-66 97-196 138-468 149-95 4-134 2-163-9zm284-222c170-23 189-39 189-155v-59l-57 25c-76 33-177 103-233 159-51 53-54 52 101 30z"/>
 </g>
</svg>
