<?xml version="1.0" encoding="utf-8"?>
<!-- Generator: Adobe Illustrator 21.0.2, SVG Export Plug-In . SVG Version: 6.00 Build 0)  -->
<svg version="1.1" id="Ebene_1" xmlns="http://www.w3.org/2000/svg" xmlns:xlink="http://www.w3.org/1999/xlink" x="0px" y="0px"
	 viewBox="0 0 3584 3584" style="enable-background:new 0 0 3584 3584;" xml:space="preserve">
<g>
	<path d="M366.9,2847.5h-91.4c-31.7,0-57.5-21.6-61.3-51.3c-3.7-30,15.2-71,81.1-87.9c25.1-6.4,58.8-24,84.4-40.8
		c-52-9.9-121-27.3-157.3-85.1c-26-41.4-35.5-45.4-51.1-52.2c-8.6-3.7-19.4-8.2-32-16.5c-15-7.9-63-36.6-65.9-80.2
		c-1.5-22.3,9-42.5,28.9-56l2.9-2l3.1-1.5c68.8-32.4,145.2-46.3,221-40.3c79.8-2.2,158.9-23.6,228.9-61.7
		c11.5-6.8,26.2-13.4,41.9-20.3c15-6.6,46.5-20.5,61.7-31.7c-7.5-3.5-20.5-8.6-43.4-13.7c-32.8-7.5-73.8-13.2-117.2-19.2
		c-17.8-2.4-36.4-5.1-54.6-7.7c-104.7-3.7-208.5-32-300.6-81.8l-3.1-1.8l-11.2-8.6c-51.8-39.9-75.6-58.2-75.6-116.1
		c0-42.7,41.6-71.8,89.7-105.3c11.7-8.2,27.5-19.2,37.9-27.8c-0.7-0.9-1.5-1.8-2.2-2.4c-13.2-15.2-35.5-41-35.5-83.5
		c0-34.8,22.9-64.6,68.1-88.6c28.9-15.4,63.7-27.1,91.7-36.8c10.4-3.5,20.1-6.8,27.8-9.7c15.2-5.7,32.8-15,49.4-24.9
		c-32.2-11.7-50.7-38.1-50.7-72.7v-10.6c0-24.5,13.2-39.2,20.3-47.2c5.1-5.7,6.6-7.5,6.6-19.6c0-6.4-5.1-15-13.9-29.3
		c-17-27.3-42.3-68.8-42.3-140.4v-22.3l1.5-5.5c23.4-88.6,93-158,181.4-181.4l2.4-0.7l2.4-0.4c79.5-11.9,156.7-41.9,223.2-86.8
		c89.9-107.3,226.1-167.5,366.2-161.3c215.1-1.8,431.7,15,643.9,49.4l4.2,0.7l4,1.5c28.6,10.6,47.2,22,61.9,31.1
		c18.7,11.5,26.7,16.3,48.7,16.3c56.4,0,100.3,32,132.4,55.3c8.8,6.4,17,12.3,22.5,15.4c19.8,11,80.6,44.3,80.6,101.6v17.2
		c0,11.5-3.5,20.7-8.2,28.4c15.2,2.2,34.2,4,54.6,4c2.6-0.9,19.6-8.6,51.3-54.6c22.9-33.5,42.7-71,53.3-91.2l2.9-5.3l4.2-4.4
		c85.9-91.2,207.1-142.1,332.5-139.9c21.6,0,43.2-0.2,64.3-0.2c170.6-0.9,232.9,1.1,263.3,26c8.6,7.1,17.8,17,28.6,28.4
		c13,13.9,27.8,29.3,42.3,41.2c17.8,14.5,25.6,15,25.6,15c54.6,0,93.6,38.1,106.7,102.9c4.8,1.1,10.6,2.2,14.8,3.1
		c11.9,2.2,24,4.6,35.3,9.3c24.2,10.1,38.8,30.4,38.8,54.2v13.4c0,6.2-0.9,12.1-2.6,17.6c80.2,6.8,216.4,30,257.8,92.1
		c11,16.7,21.6,45,8.8,84.6c-19.8,61.5-93.2,130.2-171,159.5c-32.6,12.3-36.6,19.2-40.8,26.7c-10.6,18.7-24.5,37.9-68.5,49.8
		c-22.3,5.9-37,14.3-45,20.7c10.4,7.7,26.9,18.5,44.3,29.7c98.9,64.6,163.7,110.8,163.7,166.8v31.5c0,12.8-3.5,24-6.8,35
		c-6.2,19.8-6.6,25.6-2.4,30.8l0.9,1.3l0.9,1.3c17.4,25.8,46.3,41.2,77.3,41.2l0,0c34.6,0,63,4.6,84.6,13.9
		c45.4,19.4,50.2,53.8,50.2,67.6c0,31.3-22,54.2-65.2,68.5c-25.1,8.4-56.4,13.9-80.6,17.6l0,0c2.6,7.1,3.7,15,2.6,24
		c-4.6,37.5-43.6,49.8-58.2,54.6c-22.3,7.3-58,7.7-124.5,7.9c-78,0.4-184.9,0.9-240.8,21.4c-100.3,36.8-375.7,134.6-453.5,156.5
		c-2.4,0.7-4.4,1.3-5.7,2c3.5,5.9,10.6,13.2,15.2,15c44.7,17.2,91.4,30.8,138.6,40.8l4.2,0.9l3.7,1.5c59.5,24.9,122.5,37.5,186.9,37
		c81.1,0,161.3,7.1,220.1,19.6c38.8,8.2,68.5,18.5,91.2,31.5c44.1,25.1,53.3,57.1,53.3,79.3v46.5c0,41.2-22,66.5-40.3,80.4
		c-34.2,26-89,38.6-167.2,38.6c-46.1,0-81.8-1.1-110.4-1.8c-69.6-2-98.3-2.9-153.8,13c-26,7.3-45.2,15.2-64.1,22.9
		c-42.1,17.2-81.8,33.5-167.9,33.5c-67.4,0-114.4-3.7-147.6-11.7c-74.3-17.6-85.5-60.4-85.5-84.2c0-24.9,10.4-45.4,19.8-61.5
		c-3.5-0.4-7.1-0.9-10.4-1.3c-20.5-2.6-43.9-5.7-64.3-16.7c-30-15.6-46.5-44.1-46.5-79.5c0-55.1,41.9-86.4,72.5-109.1
		c9.5-7.1,24.7-18.3,28.6-24.5c-2.2-12.8-18.1-21.6-61.9-40.1c-9.5-4-19-7.9-28.9-12.6c-45.6-14.5-85.7-44.1-112.8-83.7
		c-27.5-39.9-40.8-88.6-37.7-136.8c0-50.5-1.1-124.5-10.1-191c-12.1-89.2-32.6-121.6-43.9-132.9c-33.9-34.2-113-114.4-167.5-114.4
		h-106.7c-2,1.1-5.1,3.1-7.5,4.6c-37,23.1-87,47.8-214.4,47.8c-130,0.7-257.4,24.9-378.6,72.1l-2.6,0.9
		c-67.4,21.6-108.9,46.9-128.9,63.5c15.6,5.7,40.8,12.8,78.2,19.8c57.3,10.6,123,16.7,180.7,16.7c57.7,0,99.6,0,128.5,1.5
		c32.8,1.8,63.7,5.3,80,29.7c9.7,14.5,11,32.6,4,49.4c-0.7,1.8-1.5,3.7-2.6,5.9c-0.9,2-2.2,5.1-3.5,8.4c32.2,1.5,78,7.5,122.1,18.3
		c73.6,18.3,118.3,44.3,136.8,80c26.4,50.9,10.8,99.8-2.9,143c-6.4,19.8-12.8,40.1-16.1,61.7c8.6,4.4,28.6,9,40.1,11.7
		c19,4.4,38.3,8.8,55.5,17.2c39,19.4,44.7,50.5,44.7,67.2v33.1c0,46.3-34.2,69-85.7,103.3c-4.8,3.3-6.4,6.8-11,24.9
		c-4.8,19-11.5,45.2-33.3,70.3c-22.7,26.2-57.7,46.1-107.1,60.6c-51.6,15.2-80.6,27.1-103.8,36.8c-46.1,19-71.8,28.2-156.2,31.1
		c-51.8,1.8-77.6,9.9-107.1,19.2c-38.6,12.1-82.2,25.8-178.7,25.8c-59.9,0-108.4-0.7-151.2-1.1c-76.5-0.9-136.8-1.8-227.2,1.1
		C524,2844.6,429.1,2847.5,366.9,2847.5z M184.9,2438.3l0.9,0.7c6.8,4.6,12.6,7.1,19.8,10.1c29.7,12.6,53.5,26.2,91.2,86.4
		c19.4,30.8,73.8,40.8,113.5,48c38.1,7.1,68.1,12.3,83.5,38.3c9,15.2,9.9,33.1,2.6,50.7c-9.5,22.9-35.7,47.8-77.8,74.3
		c-6.8,4.4-13.9,8.6-21.2,12.6c60.6-0.7,147.2-3.3,272.1-7.3c92.1-2.9,156.5-2,230.9-1.1c42.5,0.4,90.6,1.1,150.1,1.1
		c83.1,0,116.6-10.6,152.3-21.8c32.8-10.4,66.8-20.9,130.4-23.1c72.3-2.6,87.9-9,125.8-24.5c23.8-9.7,56.4-23.1,112.4-39.7
		c32.2-9.5,54.2-20.9,65.4-33.9c7.7-8.8,10.4-18.3,14.5-34.2c5.7-22.7,13.7-53.8,47.6-76.5c10.8-7.3,37.7-25.1,46.5-33.9v-19.4
		c-8.4-3.1-22.5-6.4-31.7-8.6c-21.6-5.1-46.1-10.6-66.3-22.5c-31.5-18.5-46.7-49.4-41.6-84.8c4.2-29.7,12.6-55.7,19.8-78.7
		c11.9-37.7,17.8-58.2,8.8-75.6c-2.9-5.1-22.7-21.2-80.9-35.3c-43-10.6-91.4-16.1-117.2-16.1c-37.5,0-56.4-17-65.7-31.3
		c-13-20.1-12.8-42.5-8.2-62.1c-28.2-1.1-69.9-1.1-115.5-1.1c-67,0-142.6-7.5-207.4-20.3c-112.4-22.3-132.2-48-139.7-57.7
		c-12.8-16.5-16.3-38.1-9.9-59.1c18.1-58,114.4-107.5,198.8-134.6c130.9-50.9,268.6-76.9,409.2-77.6c113,0,147.4-21.6,167.9-34.4
		c12.8-8.2,28.9-18.1,51.3-18.1H1827c80.2,0,158,67.6,230.3,140.6c54.9,55.7,79.5,175.2,79.5,387.4v1.5l-0.2,1.5
		c-4.4,60.4,33.1,114.8,91,132.4l2.9,0.9l2.9,1.3c9.5,4.4,19.2,8.4,28.9,12.6c49.4,20.7,111.1,46.5,115.9,116.8
		c3.5,49.4-35.5,78.4-64.1,99.8c-17.4,13-37,27.5-37,38.3c0,0.9,0,1.5,0,2c6.6,3.1,23.6,5.5,34.2,6.8c19.8,2.6,42.3,5.7,61.9,15.9
		c23.1,11.9,32,28.9,35.3,41c7.7,28.4-7.3,52.4-18.1,69.9c-2.9,4.6-7.3,11.7-9.9,17.2c5.7,2.4,16.7,5.9,36.6,8.6
		c25.8,3.5,60.4,5.3,106.2,5.3c68.8,0,96.3-11.2,134.4-26.9c20.1-8.2,42.7-17.4,73.4-26.2c68.3-19.4,108.2-18.3,180.5-16.3
		c28.2,0.9,63,1.8,107.8,1.8c78.2,0,105.8-14.5,113.9-20.7c5.5-4.2,5.5-6.4,5.5-10.4v-43c-4.6-4.4-25.1-19.6-94.5-32
		c-50.5-8.8-116.6-13.9-181.8-13.9c-0.7,0-1.3,0-2,0c-74,0-146.5-14.3-215.1-42.3c-50.2-10.8-100-25.6-148.1-43.9
		c-37.2-14.3-75.8-58.8-73.6-105.8c0.9-17.8,9.5-61,72.3-78.4c74.5-20.9,350.4-118.8,446.9-154.2c70.5-25.8,181.6-26.4,270.8-26.9
		c22.7,0,48.7-0.2,68.5-1.1c-1.5-6.8-1.5-14.1,0-21.4c5.9-29.3,34.6-50,82.9-60.4c-44.3-9.9-83.5-36.4-109.5-74.5
		c-32-42.1-18.5-85.9-11.2-109.5c1.1-3.5,2.6-8.4,3.1-10.6v-26.4c-2.2-3.7-11-16.1-41-39.2c-25.3-19.6-56-39.4-82.9-57.1
		c-23.8-15.4-44.3-28.9-57.3-39.7c-25.6-20.9-36.6-49.4-30.6-78c8.6-40.5,51.1-74.9,113.7-91.7c7.9-2.2,11.5-3.7,12.8-4.6
		c0.7-0.9,1.3-2.4,2-3.5c12.1-21.2,28.6-43.9,86.2-65.7c33.1-12.6,67.6-36.4,92.3-63.7c25.3-28,28.2-46.1,27.5-49.6
		c-4-5.5-27.5-22.5-91.2-37.5c-56-13.2-111.5-17.8-142.1-17.8c-53.8,0-92.3-15.6-108.4-43.9c-9.9-17.4-9.9-37.7,0-54.2
		c3.5-5.9,8.2-11,13.4-15c-20.5-14.3-26.2-33.3-27.5-44.5c-2-14.3-5.7-26.4-10.4-33.9c-4-5.9-6.4-6.6-11.2-6.6
		c-52.9,0-98.7-48.5-132-84c-6.8-7.3-13.7-14.5-18.3-18.7c-25.6-8.8-131.3-8.4-209.3-7.9c-21.2,0-43.2,0.2-65,0.2h-0.9
		c-98.7-1.8-194.4,37.5-263.1,108c-51.8,98.1-109.5,187.5-178.7,187.5c-31.5,0-64.3-3.3-89.9-8.8c-16.5-3.7-29.7-8.2-40.3-13.9
		c-31.3-16.7-34.6-42.1-34.6-52.2c0-28.6,18.3-48,29.3-58.8v-2.4c-1.5-2.6-8.6-11.7-35-26.2c-10.4-5.7-20.7-13.2-31.7-21.4
		c-24.7-18.1-52.9-38.6-80.4-38.6c-46.9,0-71.2-15-94.8-29.3c-11.9-7.3-24.5-15-42.7-22.3c-206.3-33.3-416.9-49.1-625.8-47.4h-1.3
		h-1.3c-114.8-5.5-226.5,44.5-299,133.8l-4,4.8l-5.1,3.5c-78,54-169,90.1-262.9,104.4c-55.1,15.4-98.7,58.2-115,112.8v10.4
		c0,46.5,14.3,69.6,29.3,94.1c12.6,20.5,27.1,43.9,27.1,75.6c0,35.5-11.5,56.2-21.4,69c5.9,0.4,12.3,0.4,16.7,0.4
		c23.4,0.2,52.7,0.4,70.3,24.2c9.5,12.8,12.3,29.3,7.5,45.4c-4.4,14.5-15.9,35.9-68.1,71c-29.3,19.6-62.8,37.7-87.7,47.2
		c-9,3.3-19.4,7.1-30.6,10.8c-22,7.5-47.2,16.1-68.1,25.8c-20.7,9.7-28.9,16.7-31.7,19.6c0.9,6.6,4.2,11.2,13.7,22.3
		c11.2,13,28.2,32.6,29.5,62.1c1.8,39.9-35,65.4-81.5,98.1c-15.2,10.6-42.3,29.5-51.8,40.1c0.4,4.6,1.1,5.5,1.5,6.4
		c5.1,6.4,20.3,18.3,39.4,33.1l5.5,4.2c80,42.7,170.1,66.8,260.9,69.6h2.6l2.6,0.4c18.5,2.9,37.7,5.3,56.2,7.9
		c125.2,17.2,223.9,30.6,241.3,100c4.8,19.8,5.9,58.2-43.6,93.4c-22.5,15.9-50.2,28.2-74.7,39c-13.4,5.9-26,11.5-33.1,15.9l-1.5,0.9
		c-83.3,45.4-177.4,70.7-272.1,72.9h-2.4l-2.4-0.2C277.2,2418,229.6,2423.5,184.9,2438.3z M2278,2564.1L2278,2564.1L2278,2564.1z
		 M3247.6,1810.7L3247.6,1810.7L3247.6,1810.7z M3248.3,1785.6L3248.3,1785.6L3248.3,1785.6z M3120.2,1578.5L3120.2,1578.5
		L3120.2,1578.5z M420,1520.1L420,1520.1L420,1520.1z M2844.3,936.6L2844.3,936.6L2844.3,936.6z"/>
</g>
</svg>
